G75*
%MOIN*%
%OFA0B0*%
%FSLAX25Y25*%
%IPPOS*%
%LPD*%
%AMOC8*
5,1,8,0,0,1.08239X$1,22.5*
%
%ADD10R,0.03150X0.03150*%
%ADD11R,0.03937X0.04331*%
%ADD12R,0.04331X0.03937*%
%ADD13R,0.05118X0.01181*%
%ADD14R,0.09449X0.09449*%
%ADD15R,0.07900X0.05900*%
%ADD16R,0.07900X0.15000*%
%ADD17R,0.03150X0.03543*%
%ADD18R,0.01200X0.03900*%
%ADD19C,0.05937*%
%ADD20R,0.03150X0.03150*%
%ADD21C,0.01000*%
%ADD22C,0.01200*%
%ADD23C,0.05315*%
%ADD24C,0.02400*%
%ADD25R,0.03562X0.03562*%
%ADD26C,0.04000*%
%ADD27C,0.01600*%
D10*
X0061728Y0047161D03*
X0067634Y0047161D03*
X0067634Y0055331D03*
X0067634Y0061236D03*
X0061531Y0061236D03*
X0061531Y0055331D03*
X0055429Y0055331D03*
X0055429Y0061236D03*
X0049228Y0061236D03*
X0049228Y0055331D03*
X0194110Y0181217D03*
X0194110Y0187122D03*
X0194898Y0203756D03*
X0200803Y0203756D03*
X0147457Y0189878D03*
X0141551Y0189878D03*
D11*
X0097063Y0169406D03*
X0090370Y0169406D03*
X0090370Y0161433D03*
X0097063Y0161433D03*
X0097063Y0153461D03*
X0090370Y0153461D03*
X0090370Y0145587D03*
X0097063Y0145587D03*
X0097063Y0137614D03*
X0090370Y0137614D03*
X0091945Y0085154D03*
X0085252Y0085154D03*
X0085252Y0077378D03*
X0091945Y0077378D03*
X0091945Y0069602D03*
X0085252Y0069602D03*
X0085252Y0061925D03*
X0091945Y0061925D03*
X0091945Y0054150D03*
X0085252Y0054150D03*
X0098638Y0039583D03*
X0105331Y0039583D03*
X0113402Y0039583D03*
X0120094Y0039583D03*
D12*
X0104248Y0046571D03*
X0104248Y0053264D03*
X0065961Y0120783D03*
X0057693Y0120783D03*
X0057693Y0127476D03*
X0065961Y0127476D03*
D13*
X0117339Y0126984D03*
X0117339Y0125016D03*
X0117339Y0123047D03*
X0117339Y0121079D03*
X0117339Y0119110D03*
X0117339Y0117142D03*
X0117339Y0115173D03*
X0117339Y0113205D03*
X0117339Y0111236D03*
X0117339Y0109268D03*
X0117339Y0107299D03*
X0117339Y0105331D03*
X0117339Y0103362D03*
X0117339Y0101394D03*
X0117339Y0099425D03*
X0117339Y0097457D03*
X0117339Y0095488D03*
X0117339Y0093520D03*
X0117339Y0091551D03*
X0117339Y0089583D03*
X0117339Y0087614D03*
X0117339Y0085646D03*
X0117339Y0083677D03*
X0117339Y0081709D03*
X0117339Y0079740D03*
X0117339Y0077772D03*
X0117339Y0075803D03*
X0117339Y0073835D03*
X0117339Y0128953D03*
X0117339Y0130921D03*
X0117339Y0132890D03*
X0117339Y0134858D03*
X0117339Y0136827D03*
X0117339Y0138795D03*
X0117339Y0140764D03*
X0117339Y0142732D03*
X0117339Y0144701D03*
X0117339Y0146669D03*
X0117339Y0148638D03*
X0117339Y0150606D03*
X0117339Y0152575D03*
X0117339Y0154543D03*
X0117339Y0156512D03*
X0117339Y0158480D03*
X0117339Y0160449D03*
X0117339Y0162417D03*
X0117339Y0164386D03*
X0117339Y0166354D03*
X0117339Y0168323D03*
X0117339Y0170291D03*
D14*
X0130134Y0178559D03*
X0130134Y0065567D03*
D15*
X0183971Y0194656D03*
X0183971Y0203656D03*
X0183971Y0212656D03*
D16*
X0159171Y0203756D03*
D17*
X0116453Y0054445D03*
X0120193Y0046571D03*
X0112713Y0046571D03*
D18*
X0071472Y0078981D03*
X0068913Y0078981D03*
X0066354Y0078981D03*
X0063795Y0078981D03*
X0061236Y0078981D03*
X0058677Y0078981D03*
X0056118Y0078981D03*
X0053559Y0078981D03*
X0053559Y0101956D03*
X0056118Y0101956D03*
X0058677Y0101956D03*
X0061236Y0101956D03*
X0063795Y0101956D03*
X0066354Y0101956D03*
X0068913Y0101956D03*
X0071472Y0101956D03*
D19*
X0075291Y0026787D03*
X0085291Y0026787D03*
X0085291Y0016787D03*
X0075291Y0016787D03*
X0065291Y0016787D03*
X0055291Y0016787D03*
X0055291Y0026787D03*
X0065291Y0026787D03*
X0095291Y0026787D03*
X0105291Y0026787D03*
X0105291Y0016787D03*
X0095291Y0016787D03*
X0115291Y0016787D03*
X0125291Y0016787D03*
X0135291Y0016787D03*
X0145291Y0016787D03*
X0155291Y0016787D03*
X0165291Y0016787D03*
X0175291Y0016787D03*
X0185291Y0016787D03*
X0195291Y0016787D03*
X0205291Y0016787D03*
X0215291Y0016787D03*
X0225291Y0016787D03*
X0235291Y0016787D03*
X0245291Y0016787D03*
X0245291Y0026787D03*
X0235291Y0026787D03*
X0225291Y0026787D03*
X0215291Y0026787D03*
X0205291Y0026787D03*
X0195291Y0026787D03*
X0185291Y0026787D03*
X0175291Y0026787D03*
X0165291Y0026787D03*
X0155291Y0026787D03*
X0145291Y0026787D03*
X0135291Y0026787D03*
X0125291Y0026787D03*
X0115291Y0026787D03*
D20*
G36*
X0108127Y0171944D02*
X0105900Y0169717D01*
X0103673Y0171944D01*
X0105900Y0174171D01*
X0108127Y0171944D01*
G37*
G36*
X0112303Y0176119D02*
X0110076Y0173892D01*
X0107849Y0176119D01*
X0110076Y0178346D01*
X0112303Y0176119D01*
G37*
D21*
X0010574Y0142727D02*
X0010574Y0010574D01*
X0276859Y0010574D01*
X0276859Y0216354D01*
X0276762Y0217828D01*
X0275999Y0220676D01*
X0274526Y0223229D01*
X0272441Y0225313D01*
X0269888Y0226787D01*
X0267041Y0227550D01*
X0265567Y0227646D01*
X0028564Y0227646D01*
X0028127Y0227603D01*
X0027318Y0227269D01*
X0026700Y0226650D01*
X0026365Y0225842D01*
X0026322Y0225405D01*
X0026322Y0149485D01*
X0025464Y0147413D01*
X0025464Y0147413D01*
X0023878Y0145827D01*
X0023878Y0145827D01*
X0021806Y0144969D01*
X0012816Y0144969D01*
X0012379Y0144926D01*
X0011570Y0144591D01*
X0010952Y0143973D01*
X0010617Y0143165D01*
X0010574Y0142727D01*
X0010574Y0142675D02*
X0071096Y0142675D01*
X0071033Y0142522D02*
X0071033Y0130376D01*
X0069599Y0130376D01*
X0068830Y0131145D01*
X0063091Y0131145D01*
X0062323Y0130376D01*
X0061331Y0130376D01*
X0060562Y0131145D01*
X0054823Y0131145D01*
X0054055Y0130376D01*
X0045108Y0130376D01*
X0044042Y0129935D01*
X0034101Y0119994D01*
X0033286Y0119178D01*
X0032844Y0118112D01*
X0032844Y0054163D01*
X0033286Y0053097D01*
X0048443Y0037940D01*
X0049259Y0037124D01*
X0050325Y0036683D01*
X0095000Y0036683D01*
X0095965Y0035717D01*
X0101052Y0035717D01*
X0100973Y0035528D01*
X0100973Y0033795D01*
X0101637Y0032193D01*
X0102862Y0030967D01*
X0103023Y0030901D01*
X0102647Y0030745D01*
X0101334Y0029432D01*
X0100623Y0027716D01*
X0100623Y0025859D01*
X0101334Y0024143D01*
X0102647Y0022830D01*
X0104363Y0022119D01*
X0106220Y0022119D01*
X0107936Y0022830D01*
X0109249Y0024143D01*
X0109960Y0025859D01*
X0109960Y0027716D01*
X0109249Y0029432D01*
X0107936Y0030745D01*
X0107599Y0030885D01*
X0107799Y0030967D01*
X0109025Y0032193D01*
X0109688Y0033795D01*
X0109688Y0035528D01*
X0109210Y0036683D01*
X0109764Y0036683D01*
X0110729Y0035717D01*
X0116074Y0035717D01*
X0116748Y0036391D01*
X0117422Y0035717D01*
X0122767Y0035717D01*
X0123763Y0036713D01*
X0123763Y0042452D01*
X0123045Y0043170D01*
X0123052Y0043680D01*
X0123468Y0044095D01*
X0123468Y0049047D01*
X0122472Y0050043D01*
X0117914Y0050043D01*
X0116918Y0049047D01*
X0116918Y0044095D01*
X0117253Y0043760D01*
X0117246Y0043272D01*
X0116748Y0042774D01*
X0116074Y0043448D01*
X0115340Y0043448D01*
X0115987Y0044095D01*
X0115987Y0049047D01*
X0114992Y0050043D01*
X0110434Y0050043D01*
X0109862Y0049471D01*
X0107886Y0049471D01*
X0107440Y0049917D01*
X0108113Y0050591D01*
X0108113Y0055936D01*
X0107118Y0056932D01*
X0106548Y0056932D01*
X0106548Y0070028D01*
X0110024Y0073503D01*
X0113280Y0073503D01*
X0113280Y0073047D01*
X0113382Y0072665D01*
X0113579Y0072323D01*
X0113859Y0072044D01*
X0114201Y0071846D01*
X0114582Y0071744D01*
X0117339Y0071744D01*
X0120095Y0071744D01*
X0120477Y0071846D01*
X0120819Y0072044D01*
X0121098Y0072323D01*
X0121295Y0072665D01*
X0121398Y0073047D01*
X0121398Y0073503D01*
X0126854Y0073503D01*
X0128202Y0074850D01*
X0128202Y0076721D01*
X0128300Y0076819D01*
X0128300Y0078724D01*
X0128202Y0078823D01*
X0128202Y0080693D01*
X0128170Y0080724D01*
X0128202Y0080756D01*
X0128202Y0082661D01*
X0128170Y0082693D01*
X0128202Y0082724D01*
X0128202Y0084630D01*
X0128170Y0084661D01*
X0128202Y0084693D01*
X0128202Y0085314D01*
X0129028Y0085314D01*
X0129097Y0085146D01*
X0130323Y0083920D01*
X0131925Y0083257D01*
X0133658Y0083257D01*
X0135260Y0083920D01*
X0136415Y0085075D01*
X0136452Y0071102D01*
X0135562Y0071991D01*
X0124705Y0071991D01*
X0123709Y0070995D01*
X0123709Y0060138D01*
X0124705Y0059143D01*
X0135562Y0059143D01*
X0136481Y0060061D01*
X0136493Y0055558D01*
X0130189Y0048929D01*
X0130115Y0048960D01*
X0128381Y0048960D01*
X0126780Y0048296D01*
X0125554Y0047071D01*
X0124891Y0045469D01*
X0124891Y0043736D01*
X0125554Y0042134D01*
X0126780Y0040908D01*
X0128381Y0040245D01*
X0130115Y0040245D01*
X0131716Y0040908D01*
X0132942Y0042134D01*
X0133605Y0043736D01*
X0133605Y0045469D01*
X0133496Y0045732D01*
X0134330Y0046609D01*
X0134330Y0037744D01*
X0135677Y0036397D01*
X0136082Y0035992D01*
X0136013Y0035823D01*
X0136013Y0034090D01*
X0136676Y0032488D01*
X0137902Y0031263D01*
X0139503Y0030599D01*
X0141237Y0030599D01*
X0142838Y0031263D01*
X0144064Y0032488D01*
X0144728Y0034090D01*
X0144728Y0035823D01*
X0144064Y0037425D01*
X0142838Y0038651D01*
X0141237Y0039314D01*
X0139503Y0039314D01*
X0139335Y0039244D01*
X0138930Y0039650D01*
X0138930Y0041652D01*
X0139575Y0041007D01*
X0141177Y0040343D01*
X0142910Y0040343D01*
X0144512Y0041007D01*
X0145737Y0042232D01*
X0146401Y0043834D01*
X0146401Y0045568D01*
X0146024Y0046478D01*
X0146034Y0046808D01*
X0147617Y0045224D01*
X0147617Y0038827D01*
X0148965Y0037480D01*
X0149665Y0036779D01*
X0149595Y0036611D01*
X0149595Y0034877D01*
X0150259Y0033276D01*
X0151484Y0032050D01*
X0153086Y0031387D01*
X0154195Y0031387D01*
X0152647Y0030745D01*
X0151334Y0029432D01*
X0150623Y0027716D01*
X0150623Y0025859D01*
X0151334Y0024143D01*
X0152647Y0022830D01*
X0154363Y0022119D01*
X0156220Y0022119D01*
X0157936Y0022830D01*
X0159249Y0024143D01*
X0159960Y0025859D01*
X0159960Y0027716D01*
X0159249Y0029432D01*
X0157936Y0030745D01*
X0156220Y0031456D01*
X0154987Y0031456D01*
X0156421Y0032050D01*
X0157647Y0033276D01*
X0158310Y0034877D01*
X0158310Y0036611D01*
X0157647Y0038212D01*
X0156421Y0039438D01*
X0154820Y0040102D01*
X0153086Y0040102D01*
X0152918Y0040032D01*
X0152217Y0040732D01*
X0152217Y0042734D01*
X0153355Y0041597D01*
X0154956Y0040934D01*
X0156690Y0040934D01*
X0158291Y0041597D01*
X0159517Y0042823D01*
X0160180Y0044425D01*
X0160180Y0046158D01*
X0159517Y0047760D01*
X0158291Y0048985D01*
X0156690Y0049649D01*
X0154956Y0049649D01*
X0153813Y0049175D01*
X0151135Y0051854D01*
X0151135Y0096736D01*
X0139619Y0108252D01*
X0138272Y0109599D01*
X0124354Y0109599D01*
X0124354Y0111153D01*
X0124270Y0111236D01*
X0124354Y0111319D01*
X0124354Y0113121D01*
X0124270Y0113205D01*
X0124354Y0113288D01*
X0124354Y0115090D01*
X0124270Y0115173D01*
X0124354Y0115256D01*
X0124354Y0117058D01*
X0124270Y0117142D01*
X0124354Y0117225D01*
X0124354Y0119027D01*
X0124270Y0119110D01*
X0124354Y0119193D01*
X0124354Y0120995D01*
X0124270Y0121079D01*
X0124354Y0121162D01*
X0124354Y0122964D01*
X0124270Y0123047D01*
X0124354Y0123130D01*
X0124354Y0124933D01*
X0124270Y0125016D01*
X0124354Y0125099D01*
X0124354Y0126901D01*
X0124270Y0126984D01*
X0124354Y0127067D01*
X0124354Y0128870D01*
X0124270Y0128953D01*
X0124354Y0129036D01*
X0124354Y0130838D01*
X0124270Y0130921D01*
X0124354Y0131004D01*
X0124354Y0132807D01*
X0124270Y0132890D01*
X0124354Y0132973D01*
X0124354Y0134775D01*
X0124270Y0134858D01*
X0124354Y0134941D01*
X0124354Y0136744D01*
X0124270Y0136827D01*
X0124354Y0136910D01*
X0124354Y0138712D01*
X0124270Y0138795D01*
X0124354Y0138879D01*
X0124354Y0140681D01*
X0124270Y0140764D01*
X0124354Y0140847D01*
X0124354Y0142649D01*
X0124270Y0142732D01*
X0124354Y0142816D01*
X0124354Y0144618D01*
X0123358Y0145613D01*
X0121598Y0145613D01*
X0121598Y0148672D01*
X0121623Y0148698D01*
X0122004Y0149617D01*
X0122004Y0154212D01*
X0128921Y0154212D01*
X0130890Y0156180D01*
X0130988Y0156180D01*
X0134304Y0159496D01*
X0134304Y0159583D01*
X0156962Y0182241D01*
X0166893Y0182241D01*
X0168253Y0182804D01*
X0169294Y0183845D01*
X0175101Y0189652D01*
X0175665Y0191012D01*
X0175665Y0197893D01*
X0177728Y0199956D01*
X0178367Y0199956D01*
X0179167Y0199156D01*
X0178321Y0198310D01*
X0178321Y0191002D01*
X0179317Y0190006D01*
X0188625Y0190006D01*
X0189575Y0190956D01*
X0191210Y0190956D01*
X0191210Y0189776D01*
X0190835Y0189401D01*
X0190835Y0184843D01*
X0191660Y0184018D01*
X0191614Y0183992D01*
X0191335Y0183712D01*
X0191138Y0183370D01*
X0191035Y0182989D01*
X0191035Y0181504D01*
X0193823Y0181504D01*
X0193823Y0180929D01*
X0194398Y0180929D01*
X0194398Y0181504D01*
X0197185Y0181504D01*
X0197185Y0182989D01*
X0197083Y0183370D01*
X0196885Y0183712D01*
X0196606Y0183992D01*
X0196560Y0184018D01*
X0197385Y0184843D01*
X0197385Y0189401D01*
X0197010Y0189776D01*
X0197010Y0190956D01*
X0199315Y0190956D01*
X0208324Y0181948D01*
X0208324Y0176494D01*
X0208231Y0176401D01*
X0207568Y0174800D01*
X0207568Y0173066D01*
X0208231Y0171465D01*
X0208324Y0171372D01*
X0208324Y0168415D01*
X0207666Y0166827D01*
X0207666Y0165094D01*
X0208330Y0163492D01*
X0209555Y0162267D01*
X0211157Y0161603D01*
X0212890Y0161603D01*
X0214492Y0162267D01*
X0215718Y0163492D01*
X0216381Y0165094D01*
X0216381Y0166827D01*
X0215724Y0168415D01*
X0215724Y0171717D01*
X0216283Y0173066D01*
X0216283Y0174800D01*
X0215724Y0176149D01*
X0215724Y0184216D01*
X0215160Y0185576D01*
X0214120Y0186617D01*
X0202944Y0197793D01*
X0201584Y0198356D01*
X0189575Y0198356D01*
X0188775Y0199156D01*
X0189621Y0200002D01*
X0189621Y0200856D01*
X0192244Y0200856D01*
X0192619Y0200481D01*
X0197177Y0200481D01*
X0198002Y0201306D01*
X0198028Y0201260D01*
X0198307Y0200981D01*
X0198649Y0200783D01*
X0199031Y0200681D01*
X0200516Y0200681D01*
X0200516Y0203468D01*
X0201091Y0203468D01*
X0201091Y0204043D01*
X0203878Y0204043D01*
X0203878Y0205528D01*
X0203776Y0205910D01*
X0203578Y0206252D01*
X0203299Y0206531D01*
X0202957Y0206728D01*
X0202575Y0206831D01*
X0201091Y0206831D01*
X0201091Y0204043D01*
X0200516Y0204043D01*
X0200516Y0206831D01*
X0199031Y0206831D01*
X0198649Y0206728D01*
X0198307Y0206531D01*
X0198028Y0206252D01*
X0198002Y0206206D01*
X0197177Y0207031D01*
X0192619Y0207031D01*
X0192244Y0206656D01*
X0189621Y0206656D01*
X0189621Y0207310D01*
X0188625Y0208306D01*
X0188491Y0208306D01*
X0188500Y0208308D01*
X0188842Y0208506D01*
X0189121Y0208785D01*
X0189319Y0209127D01*
X0189421Y0209508D01*
X0189421Y0212156D01*
X0184471Y0212156D01*
X0184471Y0213156D01*
X0189421Y0213156D01*
X0189421Y0215803D01*
X0189319Y0216185D01*
X0189121Y0216527D01*
X0188842Y0216806D01*
X0188500Y0217004D01*
X0188118Y0217106D01*
X0184471Y0217106D01*
X0184471Y0213156D01*
X0183471Y0213156D01*
X0183471Y0217106D01*
X0179823Y0217106D01*
X0179442Y0217004D01*
X0179100Y0216806D01*
X0178821Y0216527D01*
X0178623Y0216185D01*
X0178521Y0215803D01*
X0178521Y0213156D01*
X0183471Y0213156D01*
X0183471Y0212156D01*
X0183471Y0208306D01*
X0184471Y0208306D01*
X0184471Y0212156D01*
X0183471Y0212156D01*
X0178521Y0212156D01*
X0178521Y0209508D01*
X0178623Y0209127D01*
X0178821Y0208785D01*
X0179100Y0208506D01*
X0179442Y0208308D01*
X0179450Y0208306D01*
X0179317Y0208306D01*
X0178367Y0207356D01*
X0175459Y0207356D01*
X0174099Y0206793D01*
X0173059Y0205752D01*
X0169869Y0202562D01*
X0169869Y0202562D01*
X0168828Y0201521D01*
X0168265Y0200161D01*
X0168265Y0193281D01*
X0164625Y0189641D01*
X0155830Y0189641D01*
X0153135Y0192336D01*
X0152069Y0192778D01*
X0150110Y0192778D01*
X0149736Y0193153D01*
X0145178Y0193153D01*
X0144353Y0192328D01*
X0144326Y0192374D01*
X0144047Y0192653D01*
X0143705Y0192851D01*
X0143323Y0192953D01*
X0141839Y0192953D01*
X0141839Y0190165D01*
X0141264Y0190165D01*
X0141264Y0189591D01*
X0138476Y0189591D01*
X0138476Y0188106D01*
X0138579Y0187724D01*
X0138776Y0187382D01*
X0139055Y0187103D01*
X0139397Y0186905D01*
X0139779Y0186803D01*
X0141264Y0186803D01*
X0141264Y0189590D01*
X0141839Y0189590D01*
X0141839Y0186803D01*
X0143323Y0186803D01*
X0143705Y0186905D01*
X0144047Y0187103D01*
X0144326Y0187382D01*
X0144353Y0187428D01*
X0145178Y0186603D01*
X0149736Y0186603D01*
X0150110Y0186978D01*
X0150291Y0186978D01*
X0150762Y0186507D01*
X0134878Y0170623D01*
X0121398Y0170623D01*
X0121398Y0171079D01*
X0121295Y0171461D01*
X0121098Y0171803D01*
X0120819Y0172082D01*
X0120477Y0172280D01*
X0120095Y0172382D01*
X0117339Y0172382D01*
X0117339Y0171020D01*
X0117339Y0171020D01*
X0117339Y0172382D01*
X0114582Y0172382D01*
X0114201Y0172280D01*
X0113859Y0172082D01*
X0113579Y0171803D01*
X0113382Y0171461D01*
X0113280Y0171079D01*
X0113280Y0171020D01*
X0110697Y0171020D01*
X0109827Y0171889D01*
X0109827Y0172406D01*
X0109879Y0172392D01*
X0110274Y0172392D01*
X0110655Y0172495D01*
X0110997Y0172692D01*
X0112047Y0173742D01*
X0110076Y0175713D01*
X0110483Y0176119D01*
X0112454Y0174148D01*
X0113503Y0175198D01*
X0113701Y0175540D01*
X0113803Y0175922D01*
X0113803Y0176317D01*
X0113701Y0176698D01*
X0113503Y0177040D01*
X0112454Y0178090D01*
X0110483Y0176119D01*
X0110076Y0176526D01*
X0109670Y0176119D01*
X0107699Y0178090D01*
X0106649Y0177040D01*
X0106451Y0176698D01*
X0106349Y0176317D01*
X0106349Y0175922D01*
X0106363Y0175871D01*
X0105846Y0175871D01*
X0104694Y0177022D01*
X0103991Y0177726D01*
X0103072Y0178106D01*
X0089971Y0178106D01*
X0089052Y0177726D01*
X0087379Y0176052D01*
X0086676Y0175349D01*
X0086295Y0174430D01*
X0086295Y0156361D01*
X0084872Y0156361D01*
X0083806Y0155919D01*
X0072290Y0144403D01*
X0071475Y0143588D01*
X0071033Y0142522D01*
X0071033Y0141676D02*
X0010574Y0141676D01*
X0010574Y0140678D02*
X0071033Y0140678D01*
X0071033Y0139679D02*
X0010574Y0139679D01*
X0010574Y0138680D02*
X0071033Y0138680D01*
X0071033Y0137682D02*
X0010574Y0137682D01*
X0010574Y0136683D02*
X0071033Y0136683D01*
X0071033Y0135685D02*
X0010574Y0135685D01*
X0010574Y0134686D02*
X0071033Y0134686D01*
X0071033Y0133688D02*
X0010574Y0133688D01*
X0010574Y0132689D02*
X0071033Y0132689D01*
X0071033Y0131691D02*
X0010574Y0131691D01*
X0010574Y0130692D02*
X0054371Y0130692D01*
X0054055Y0124576D02*
X0054501Y0124130D01*
X0054350Y0123979D01*
X0053081Y0123979D01*
X0052484Y0124576D01*
X0054055Y0124576D01*
X0047154Y0124576D02*
X0046125Y0123547D01*
X0045461Y0121945D01*
X0045461Y0120212D01*
X0046125Y0118610D01*
X0047351Y0117385D01*
X0048952Y0116721D01*
X0050686Y0116721D01*
X0052287Y0117385D01*
X0053081Y0118179D01*
X0053828Y0118179D01*
X0053828Y0118111D01*
X0054823Y0117115D01*
X0056377Y0117115D01*
X0056377Y0110096D01*
X0055957Y0110516D01*
X0054610Y0111863D01*
X0052205Y0111863D01*
X0052135Y0112031D01*
X0050909Y0113257D01*
X0049308Y0113920D01*
X0047574Y0113920D01*
X0045973Y0113257D01*
X0044747Y0112031D01*
X0044083Y0110430D01*
X0044083Y0108696D01*
X0044747Y0107095D01*
X0045973Y0105869D01*
X0047574Y0105206D01*
X0049308Y0105206D01*
X0050909Y0105869D01*
X0052135Y0107095D01*
X0052205Y0107263D01*
X0052705Y0107263D01*
X0053818Y0106150D01*
X0053818Y0105606D01*
X0052255Y0105606D01*
X0051259Y0104610D01*
X0051259Y0099302D01*
X0052255Y0098306D01*
X0062540Y0098306D01*
X0062795Y0098560D01*
X0062998Y0098506D01*
X0063688Y0098506D01*
X0063977Y0098217D01*
X0066173Y0098217D01*
X0066461Y0098506D01*
X0067152Y0098506D01*
X0067355Y0098560D01*
X0067502Y0098413D01*
X0060284Y0091194D01*
X0058936Y0089846D01*
X0058936Y0082431D01*
X0058677Y0082431D01*
X0057880Y0082431D01*
X0057677Y0082377D01*
X0057422Y0082631D01*
X0052255Y0082631D01*
X0051259Y0081635D01*
X0051259Y0076327D01*
X0052255Y0075331D01*
X0057422Y0075331D01*
X0057677Y0075586D01*
X0057880Y0075531D01*
X0058677Y0075531D01*
X0058677Y0078981D01*
X0058677Y0078981D01*
X0058677Y0075531D01*
X0058936Y0075531D01*
X0058936Y0074197D01*
X0049250Y0064511D01*
X0046949Y0064511D01*
X0045954Y0063515D01*
X0045954Y0058957D01*
X0046778Y0058132D01*
X0046733Y0058106D01*
X0046453Y0057827D01*
X0046256Y0057484D01*
X0046154Y0057103D01*
X0046154Y0055618D01*
X0048941Y0055618D01*
X0048941Y0055043D01*
X0049516Y0055043D01*
X0049516Y0055618D01*
X0052303Y0055618D01*
X0052303Y0057103D01*
X0052201Y0057484D01*
X0052003Y0057827D01*
X0051724Y0058106D01*
X0051678Y0058132D01*
X0052329Y0058783D01*
X0052979Y0058132D01*
X0052933Y0058106D01*
X0052654Y0057827D01*
X0052457Y0057484D01*
X0052354Y0057103D01*
X0052354Y0055618D01*
X0055142Y0055618D01*
X0055142Y0055043D01*
X0055717Y0055043D01*
X0055717Y0052256D01*
X0057201Y0052256D01*
X0057583Y0052358D01*
X0057925Y0052556D01*
X0058204Y0052835D01*
X0058303Y0053006D01*
X0059253Y0052056D01*
X0063810Y0052056D01*
X0064583Y0052828D01*
X0064734Y0052677D01*
X0064734Y0049815D01*
X0064530Y0049611D01*
X0064503Y0049657D01*
X0064224Y0049937D01*
X0063882Y0050134D01*
X0063501Y0050236D01*
X0062016Y0050236D01*
X0062016Y0047449D01*
X0061441Y0047449D01*
X0061441Y0050236D01*
X0059956Y0050236D01*
X0059575Y0050134D01*
X0059233Y0049937D01*
X0058953Y0049657D01*
X0058756Y0049315D01*
X0058654Y0048934D01*
X0058654Y0047449D01*
X0061441Y0047449D01*
X0061441Y0046874D01*
X0062016Y0046874D01*
X0062016Y0044087D01*
X0063501Y0044087D01*
X0063882Y0044189D01*
X0064224Y0044386D01*
X0064503Y0044666D01*
X0064530Y0044712D01*
X0064832Y0044409D01*
X0064832Y0042483D01*
X0052103Y0042483D01*
X0038644Y0055941D01*
X0038644Y0116334D01*
X0046886Y0124576D01*
X0047154Y0124576D01*
X0046281Y0123703D02*
X0046013Y0123703D01*
X0045776Y0122704D02*
X0045014Y0122704D01*
X0045461Y0121706D02*
X0044016Y0121706D01*
X0043017Y0120707D02*
X0045461Y0120707D01*
X0045670Y0119709D02*
X0042019Y0119709D01*
X0041020Y0118710D02*
X0046083Y0118710D01*
X0047023Y0117712D02*
X0040022Y0117712D01*
X0039023Y0116713D02*
X0056377Y0116713D01*
X0056377Y0115715D02*
X0038644Y0115715D01*
X0038644Y0114716D02*
X0056377Y0114716D01*
X0056377Y0113718D02*
X0049797Y0113718D01*
X0051447Y0112719D02*
X0056377Y0112719D01*
X0056377Y0111721D02*
X0054752Y0111721D01*
X0055751Y0110722D02*
X0056377Y0110722D01*
X0053240Y0106728D02*
X0051768Y0106728D01*
X0050573Y0105730D02*
X0053818Y0105730D01*
X0051380Y0104731D02*
X0038644Y0104731D01*
X0038644Y0103733D02*
X0051259Y0103733D01*
X0051259Y0102734D02*
X0038644Y0102734D01*
X0038644Y0101736D02*
X0051259Y0101736D01*
X0051259Y0100737D02*
X0038644Y0100737D01*
X0038644Y0099739D02*
X0051259Y0099739D01*
X0051821Y0098740D02*
X0038644Y0098740D01*
X0038644Y0097742D02*
X0066831Y0097742D01*
X0065833Y0096743D02*
X0038644Y0096743D01*
X0038644Y0095745D02*
X0064834Y0095745D01*
X0063836Y0094746D02*
X0038644Y0094746D01*
X0038644Y0093747D02*
X0062837Y0093747D01*
X0061839Y0092749D02*
X0038644Y0092749D01*
X0038644Y0091750D02*
X0060840Y0091750D01*
X0059842Y0090752D02*
X0038644Y0090752D01*
X0038644Y0089753D02*
X0058936Y0089753D01*
X0058936Y0088755D02*
X0038644Y0088755D01*
X0038644Y0087756D02*
X0058936Y0087756D01*
X0058936Y0086758D02*
X0038644Y0086758D01*
X0038644Y0085759D02*
X0058936Y0085759D01*
X0058936Y0084761D02*
X0038644Y0084761D01*
X0038644Y0083762D02*
X0058936Y0083762D01*
X0058936Y0082764D02*
X0038644Y0082764D01*
X0038644Y0081765D02*
X0051389Y0081765D01*
X0051259Y0080767D02*
X0038644Y0080767D01*
X0038644Y0079768D02*
X0051259Y0079768D01*
X0051259Y0078770D02*
X0038644Y0078770D01*
X0038644Y0077771D02*
X0051259Y0077771D01*
X0051259Y0076773D02*
X0038644Y0076773D01*
X0038644Y0075774D02*
X0051812Y0075774D01*
X0056520Y0071780D02*
X0038644Y0071780D01*
X0038644Y0070782D02*
X0055521Y0070782D01*
X0054523Y0069783D02*
X0038644Y0069783D01*
X0038644Y0068785D02*
X0053524Y0068785D01*
X0052526Y0067786D02*
X0038644Y0067786D01*
X0038644Y0066788D02*
X0051527Y0066788D01*
X0050529Y0065789D02*
X0038644Y0065789D01*
X0038644Y0064791D02*
X0049530Y0064791D01*
X0046230Y0063792D02*
X0038644Y0063792D01*
X0038644Y0062794D02*
X0045954Y0062794D01*
X0045954Y0061795D02*
X0038644Y0061795D01*
X0038644Y0060797D02*
X0045954Y0060797D01*
X0045954Y0059798D02*
X0038644Y0059798D01*
X0038644Y0058800D02*
X0046111Y0058800D01*
X0046439Y0057801D02*
X0038644Y0057801D01*
X0038644Y0056803D02*
X0046154Y0056803D01*
X0046154Y0055804D02*
X0038781Y0055804D01*
X0039780Y0054806D02*
X0046154Y0054806D01*
X0046154Y0055043D02*
X0046154Y0053558D01*
X0046256Y0053177D01*
X0046453Y0052835D01*
X0046733Y0052556D01*
X0047075Y0052358D01*
X0047456Y0052256D01*
X0048941Y0052256D01*
X0048941Y0055043D01*
X0046154Y0055043D01*
X0046154Y0053807D02*
X0040778Y0053807D01*
X0041777Y0052809D02*
X0046480Y0052809D01*
X0048941Y0052809D02*
X0049516Y0052809D01*
X0049516Y0052256D02*
X0051001Y0052256D01*
X0051382Y0052358D01*
X0051724Y0052556D01*
X0052003Y0052835D01*
X0052201Y0053177D01*
X0052303Y0053558D01*
X0052303Y0055043D01*
X0049516Y0055043D01*
X0049516Y0052256D01*
X0049516Y0053807D02*
X0048941Y0053807D01*
X0048941Y0054806D02*
X0049516Y0054806D01*
X0052303Y0054806D02*
X0052354Y0054806D01*
X0052354Y0055043D02*
X0052354Y0053558D01*
X0052457Y0053177D01*
X0052654Y0052835D01*
X0052933Y0052556D01*
X0053275Y0052358D01*
X0053657Y0052256D01*
X0055142Y0052256D01*
X0055142Y0055043D01*
X0052354Y0055043D01*
X0052354Y0055804D02*
X0052303Y0055804D01*
X0052303Y0056803D02*
X0052354Y0056803D01*
X0052639Y0057801D02*
X0052018Y0057801D01*
X0055142Y0054806D02*
X0055717Y0054806D01*
X0055717Y0053807D02*
X0055142Y0053807D01*
X0055142Y0052809D02*
X0055717Y0052809D01*
X0058178Y0052809D02*
X0058500Y0052809D01*
X0059109Y0049813D02*
X0044772Y0049813D01*
X0043774Y0050811D02*
X0064734Y0050811D01*
X0064732Y0049813D02*
X0064348Y0049813D01*
X0064734Y0051810D02*
X0042775Y0051810D01*
X0045771Y0048814D02*
X0058654Y0048814D01*
X0058654Y0047816D02*
X0046770Y0047816D01*
X0047768Y0046817D02*
X0058654Y0046817D01*
X0058654Y0046874D02*
X0058654Y0045389D01*
X0058756Y0045008D01*
X0058953Y0044666D01*
X0059233Y0044386D01*
X0059575Y0044189D01*
X0059956Y0044087D01*
X0061441Y0044087D01*
X0061441Y0046874D01*
X0058654Y0046874D01*
X0058654Y0045819D02*
X0048767Y0045819D01*
X0049765Y0044820D02*
X0058864Y0044820D01*
X0061441Y0044820D02*
X0062016Y0044820D01*
X0062016Y0045819D02*
X0061441Y0045819D01*
X0061441Y0046817D02*
X0062016Y0046817D01*
X0062016Y0047816D02*
X0061441Y0047816D01*
X0061441Y0048814D02*
X0062016Y0048814D01*
X0062016Y0049813D02*
X0061441Y0049813D01*
X0064563Y0052809D02*
X0064602Y0052809D01*
X0064583Y0057833D02*
X0064132Y0058283D01*
X0064583Y0058734D01*
X0065033Y0058283D01*
X0064583Y0057833D01*
X0058930Y0058283D02*
X0058480Y0058734D01*
X0057879Y0058132D01*
X0057925Y0058106D01*
X0058204Y0057827D01*
X0058303Y0057656D01*
X0058930Y0058283D01*
X0058448Y0057801D02*
X0058219Y0057801D01*
X0052354Y0053807D02*
X0052303Y0053807D01*
X0051977Y0052809D02*
X0052680Y0052809D01*
X0050764Y0043822D02*
X0064832Y0043822D01*
X0064832Y0042823D02*
X0051762Y0042823D01*
X0047554Y0038829D02*
X0010574Y0038829D01*
X0010574Y0037831D02*
X0048552Y0037831D01*
X0049963Y0036832D02*
X0010574Y0036832D01*
X0010574Y0035834D02*
X0095849Y0035834D01*
X0096220Y0031456D02*
X0094363Y0031456D01*
X0092647Y0030745D01*
X0091334Y0029432D01*
X0090623Y0027716D01*
X0090623Y0025859D01*
X0091334Y0024143D01*
X0092647Y0022830D01*
X0094363Y0022119D01*
X0096220Y0022119D01*
X0097936Y0022830D01*
X0099249Y0024143D01*
X0099960Y0025859D01*
X0099960Y0027716D01*
X0099249Y0029432D01*
X0097936Y0030745D01*
X0096220Y0031456D01*
X0097704Y0030841D02*
X0102879Y0030841D01*
X0101990Y0031840D02*
X0010574Y0031840D01*
X0010574Y0032838D02*
X0101369Y0032838D01*
X0100973Y0033837D02*
X0010574Y0033837D01*
X0010574Y0034835D02*
X0100973Y0034835D01*
X0101744Y0029843D02*
X0098838Y0029843D01*
X0099493Y0028844D02*
X0101090Y0028844D01*
X0100677Y0027846D02*
X0099906Y0027846D01*
X0099960Y0026847D02*
X0100623Y0026847D01*
X0100627Y0025849D02*
X0099956Y0025849D01*
X0099542Y0024850D02*
X0101041Y0024850D01*
X0101625Y0023852D02*
X0098958Y0023852D01*
X0097959Y0022853D02*
X0102623Y0022853D01*
X0103576Y0020929D02*
X0102949Y0020609D01*
X0102380Y0020196D01*
X0101883Y0019698D01*
X0101470Y0019129D01*
X0101150Y0018503D01*
X0100933Y0017834D01*
X0100844Y0017272D01*
X0104807Y0017272D01*
X0104807Y0021235D01*
X0104245Y0021146D01*
X0103576Y0020929D01*
X0103434Y0020856D02*
X0097668Y0020856D01*
X0097936Y0020745D02*
X0096220Y0021456D01*
X0094363Y0021456D01*
X0092647Y0020745D01*
X0091334Y0019432D01*
X0090623Y0017716D01*
X0090623Y0015859D01*
X0091334Y0014143D01*
X0092647Y0012830D01*
X0094363Y0012119D01*
X0096220Y0012119D01*
X0097936Y0012830D01*
X0099249Y0014143D01*
X0099960Y0015859D01*
X0099960Y0017716D01*
X0099249Y0019432D01*
X0097936Y0020745D01*
X0098823Y0019858D02*
X0102042Y0019858D01*
X0101332Y0018859D02*
X0099486Y0018859D01*
X0099900Y0017861D02*
X0100942Y0017861D01*
X0099960Y0016862D02*
X0104807Y0016862D01*
X0104807Y0017272D02*
X0104807Y0016303D01*
X0105776Y0016303D01*
X0105776Y0017272D01*
X0109739Y0017272D01*
X0109650Y0017834D01*
X0109432Y0018503D01*
X0109113Y0019129D01*
X0108700Y0019698D01*
X0108202Y0020196D01*
X0107633Y0020609D01*
X0107007Y0020929D01*
X0106338Y0021146D01*
X0105776Y0021235D01*
X0105776Y0017272D01*
X0104807Y0017272D01*
X0104807Y0017861D02*
X0105776Y0017861D01*
X0105776Y0018859D02*
X0104807Y0018859D01*
X0104807Y0019858D02*
X0105776Y0019858D01*
X0105776Y0020856D02*
X0104807Y0020856D01*
X0107149Y0020856D02*
X0112915Y0020856D01*
X0112647Y0020745D02*
X0111334Y0019432D01*
X0110623Y0017716D01*
X0110623Y0015859D01*
X0111334Y0014143D01*
X0112647Y0012830D01*
X0114363Y0012119D01*
X0116220Y0012119D01*
X0117936Y0012830D01*
X0119249Y0014143D01*
X0119960Y0015859D01*
X0119960Y0017716D01*
X0119249Y0019432D01*
X0117936Y0020745D01*
X0116220Y0021456D01*
X0114363Y0021456D01*
X0112647Y0020745D01*
X0111759Y0019858D02*
X0108541Y0019858D01*
X0109251Y0018859D02*
X0111096Y0018859D01*
X0110683Y0017861D02*
X0109641Y0017861D01*
X0110623Y0016862D02*
X0105776Y0016862D01*
X0105776Y0016303D02*
X0109739Y0016303D01*
X0109650Y0015741D01*
X0109432Y0015072D01*
X0109113Y0014445D01*
X0108700Y0013876D01*
X0108202Y0013379D01*
X0107633Y0012966D01*
X0107007Y0012646D01*
X0106338Y0012429D01*
X0105776Y0012340D01*
X0105776Y0016303D01*
X0105776Y0015864D02*
X0104807Y0015864D01*
X0104807Y0016303D02*
X0104807Y0012340D01*
X0104245Y0012429D01*
X0103576Y0012646D01*
X0102949Y0012966D01*
X0102380Y0013379D01*
X0101883Y0013876D01*
X0101470Y0014445D01*
X0101150Y0015072D01*
X0100933Y0015741D01*
X0100844Y0016303D01*
X0104807Y0016303D01*
X0104807Y0014865D02*
X0105776Y0014865D01*
X0105776Y0013867D02*
X0104807Y0013867D01*
X0104807Y0012868D02*
X0105776Y0012868D01*
X0107442Y0012868D02*
X0112608Y0012868D01*
X0111610Y0013867D02*
X0108690Y0013867D01*
X0109327Y0014865D02*
X0111034Y0014865D01*
X0110623Y0015864D02*
X0109669Y0015864D01*
X0117668Y0020856D02*
X0122915Y0020856D01*
X0122647Y0020745D02*
X0121334Y0019432D01*
X0120623Y0017716D01*
X0120623Y0015859D01*
X0121334Y0014143D01*
X0122647Y0012830D01*
X0124363Y0012119D01*
X0126220Y0012119D01*
X0127936Y0012830D01*
X0129249Y0014143D01*
X0129960Y0015859D01*
X0129960Y0017716D01*
X0129249Y0019432D01*
X0127936Y0020745D01*
X0126220Y0021456D01*
X0124363Y0021456D01*
X0122647Y0020745D01*
X0121759Y0019858D02*
X0118823Y0019858D01*
X0119486Y0018859D02*
X0121096Y0018859D01*
X0120683Y0017861D02*
X0119900Y0017861D01*
X0119960Y0016862D02*
X0120623Y0016862D01*
X0120623Y0015864D02*
X0119960Y0015864D01*
X0119548Y0014865D02*
X0121034Y0014865D01*
X0121610Y0013867D02*
X0118973Y0013867D01*
X0117974Y0012868D02*
X0122608Y0012868D01*
X0127974Y0012868D02*
X0132608Y0012868D01*
X0132647Y0012830D02*
X0134363Y0012119D01*
X0136220Y0012119D01*
X0137936Y0012830D01*
X0139249Y0014143D01*
X0139960Y0015859D01*
X0139960Y0017716D01*
X0139249Y0019432D01*
X0137936Y0020745D01*
X0136220Y0021456D01*
X0134363Y0021456D01*
X0132647Y0020745D01*
X0131334Y0019432D01*
X0130623Y0017716D01*
X0130623Y0015859D01*
X0131334Y0014143D01*
X0132647Y0012830D01*
X0131610Y0013867D02*
X0128973Y0013867D01*
X0129548Y0014865D02*
X0131034Y0014865D01*
X0130623Y0015864D02*
X0129960Y0015864D01*
X0129960Y0016862D02*
X0130623Y0016862D01*
X0130683Y0017861D02*
X0129900Y0017861D01*
X0129486Y0018859D02*
X0131096Y0018859D01*
X0131759Y0019858D02*
X0128823Y0019858D01*
X0127668Y0020856D02*
X0132915Y0020856D01*
X0134363Y0022119D02*
X0136220Y0022119D01*
X0137936Y0022830D01*
X0139249Y0024143D01*
X0139960Y0025859D01*
X0139960Y0027716D01*
X0139249Y0029432D01*
X0137936Y0030745D01*
X0136220Y0031456D01*
X0134363Y0031456D01*
X0132647Y0030745D01*
X0131334Y0029432D01*
X0130623Y0027716D01*
X0130623Y0025859D01*
X0131334Y0024143D01*
X0132647Y0022830D01*
X0134363Y0022119D01*
X0132623Y0022853D02*
X0127413Y0022853D01*
X0127633Y0022966D02*
X0128202Y0023379D01*
X0128700Y0023876D01*
X0129113Y0024445D01*
X0129432Y0025072D01*
X0129650Y0025741D01*
X0129739Y0026303D01*
X0125776Y0026303D01*
X0125776Y0027272D01*
X0129739Y0027272D01*
X0129650Y0027834D01*
X0129432Y0028503D01*
X0129113Y0029129D01*
X0128700Y0029698D01*
X0128202Y0030196D01*
X0127633Y0030609D01*
X0127007Y0030929D01*
X0126338Y0031146D01*
X0125776Y0031235D01*
X0125776Y0027272D01*
X0124807Y0027272D01*
X0124807Y0031235D01*
X0124245Y0031146D01*
X0123576Y0030929D01*
X0122949Y0030609D01*
X0122380Y0030196D01*
X0121883Y0029698D01*
X0121470Y0029129D01*
X0121150Y0028503D01*
X0120933Y0027834D01*
X0120844Y0027272D01*
X0124807Y0027272D01*
X0124807Y0026303D01*
X0125776Y0026303D01*
X0125776Y0022340D01*
X0126338Y0022429D01*
X0127007Y0022646D01*
X0127633Y0022966D01*
X0128675Y0023852D02*
X0131625Y0023852D01*
X0131041Y0024850D02*
X0129319Y0024850D01*
X0129667Y0025849D02*
X0130627Y0025849D01*
X0130623Y0026847D02*
X0125776Y0026847D01*
X0124807Y0026847D02*
X0119960Y0026847D01*
X0119960Y0027716D02*
X0119249Y0029432D01*
X0117936Y0030745D01*
X0116220Y0031456D01*
X0114363Y0031456D01*
X0112647Y0030745D01*
X0111334Y0029432D01*
X0110623Y0027716D01*
X0110623Y0025859D01*
X0111334Y0024143D01*
X0112647Y0022830D01*
X0114363Y0022119D01*
X0116220Y0022119D01*
X0117936Y0022830D01*
X0119249Y0024143D01*
X0119960Y0025859D01*
X0119960Y0027716D01*
X0119906Y0027846D02*
X0120937Y0027846D01*
X0121324Y0028844D02*
X0119493Y0028844D01*
X0118838Y0029843D02*
X0122027Y0029843D01*
X0123405Y0030841D02*
X0117704Y0030841D01*
X0112879Y0030841D02*
X0107704Y0030841D01*
X0108671Y0031840D02*
X0137325Y0031840D01*
X0137704Y0030841D02*
X0138919Y0030841D01*
X0138838Y0029843D02*
X0141744Y0029843D01*
X0141334Y0029432D02*
X0140623Y0027716D01*
X0140623Y0025859D01*
X0141334Y0024143D01*
X0142647Y0022830D01*
X0144363Y0022119D01*
X0146220Y0022119D01*
X0147936Y0022830D01*
X0149249Y0024143D01*
X0149960Y0025859D01*
X0149960Y0027716D01*
X0149249Y0029432D01*
X0147936Y0030745D01*
X0146220Y0031456D01*
X0144363Y0031456D01*
X0142647Y0030745D01*
X0141334Y0029432D01*
X0141090Y0028844D02*
X0139493Y0028844D01*
X0139906Y0027846D02*
X0140677Y0027846D01*
X0140623Y0026847D02*
X0139960Y0026847D01*
X0139956Y0025849D02*
X0140627Y0025849D01*
X0141041Y0024850D02*
X0139542Y0024850D01*
X0138958Y0023852D02*
X0141625Y0023852D01*
X0142623Y0022853D02*
X0137959Y0022853D01*
X0137668Y0020856D02*
X0142915Y0020856D01*
X0142647Y0020745D02*
X0141334Y0019432D01*
X0140623Y0017716D01*
X0140623Y0015859D01*
X0141334Y0014143D01*
X0142647Y0012830D01*
X0144363Y0012119D01*
X0146220Y0012119D01*
X0147936Y0012830D01*
X0149249Y0014143D01*
X0149960Y0015859D01*
X0149960Y0017716D01*
X0149249Y0019432D01*
X0147936Y0020745D01*
X0146220Y0021456D01*
X0144363Y0021456D01*
X0142647Y0020745D01*
X0141759Y0019858D02*
X0138823Y0019858D01*
X0139486Y0018859D02*
X0141096Y0018859D01*
X0140683Y0017861D02*
X0139900Y0017861D01*
X0139960Y0016862D02*
X0140623Y0016862D01*
X0140623Y0015864D02*
X0139960Y0015864D01*
X0139548Y0014865D02*
X0141034Y0014865D01*
X0141610Y0013867D02*
X0138973Y0013867D01*
X0137974Y0012868D02*
X0142608Y0012868D01*
X0147974Y0012868D02*
X0153141Y0012868D01*
X0152949Y0012966D02*
X0153576Y0012646D01*
X0154245Y0012429D01*
X0154807Y0012340D01*
X0154807Y0016303D01*
X0155776Y0016303D01*
X0155776Y0017272D01*
X0159739Y0017272D01*
X0159650Y0017834D01*
X0159432Y0018503D01*
X0159113Y0019129D01*
X0158700Y0019698D01*
X0158202Y0020196D01*
X0157633Y0020609D01*
X0157007Y0020929D01*
X0156338Y0021146D01*
X0155776Y0021235D01*
X0155776Y0017272D01*
X0154807Y0017272D01*
X0154807Y0021235D01*
X0154245Y0021146D01*
X0153576Y0020929D01*
X0152949Y0020609D01*
X0152380Y0020196D01*
X0151883Y0019698D01*
X0151470Y0019129D01*
X0151150Y0018503D01*
X0150933Y0017834D01*
X0150844Y0017272D01*
X0154807Y0017272D01*
X0154807Y0016303D01*
X0150844Y0016303D01*
X0150933Y0015741D01*
X0151150Y0015072D01*
X0151470Y0014445D01*
X0151883Y0013876D01*
X0152380Y0013379D01*
X0152949Y0012966D01*
X0151893Y0013867D02*
X0148973Y0013867D01*
X0149548Y0014865D02*
X0151256Y0014865D01*
X0150913Y0015864D02*
X0149960Y0015864D01*
X0149960Y0016862D02*
X0154807Y0016862D01*
X0155776Y0016862D02*
X0160623Y0016862D01*
X0160623Y0017716D02*
X0160623Y0015859D01*
X0161334Y0014143D01*
X0162647Y0012830D01*
X0164363Y0012119D01*
X0166220Y0012119D01*
X0167936Y0012830D01*
X0169249Y0014143D01*
X0169960Y0015859D01*
X0169960Y0017716D01*
X0169249Y0019432D01*
X0167936Y0020745D01*
X0166220Y0021456D01*
X0164363Y0021456D01*
X0162647Y0020745D01*
X0161334Y0019432D01*
X0160623Y0017716D01*
X0160683Y0017861D02*
X0159641Y0017861D01*
X0159251Y0018859D02*
X0161096Y0018859D01*
X0161759Y0019858D02*
X0158541Y0019858D01*
X0157149Y0020856D02*
X0162915Y0020856D01*
X0164363Y0022119D02*
X0162647Y0022830D01*
X0161334Y0024143D01*
X0160623Y0025859D01*
X0160623Y0027716D01*
X0161334Y0029432D01*
X0162647Y0030745D01*
X0164363Y0031456D01*
X0166220Y0031456D01*
X0167936Y0030745D01*
X0169249Y0029432D01*
X0169960Y0027716D01*
X0169960Y0025859D01*
X0169249Y0024143D01*
X0167936Y0022830D01*
X0166220Y0022119D01*
X0164363Y0022119D01*
X0162623Y0022853D02*
X0157959Y0022853D01*
X0158958Y0023852D02*
X0161625Y0023852D01*
X0161041Y0024850D02*
X0159542Y0024850D01*
X0159956Y0025849D02*
X0160627Y0025849D01*
X0160623Y0026847D02*
X0159960Y0026847D01*
X0159906Y0027846D02*
X0160677Y0027846D01*
X0161090Y0028844D02*
X0159493Y0028844D01*
X0158838Y0029843D02*
X0161744Y0029843D01*
X0162879Y0030841D02*
X0157704Y0030841D01*
X0155914Y0031840D02*
X0162350Y0031840D01*
X0162732Y0031682D02*
X0164465Y0031682D01*
X0166067Y0032345D01*
X0167293Y0033571D01*
X0167956Y0035173D01*
X0167956Y0036906D01*
X0167293Y0038508D01*
X0166067Y0039733D01*
X0164465Y0040397D01*
X0162732Y0040397D01*
X0161130Y0039733D01*
X0159904Y0038508D01*
X0159241Y0036906D01*
X0159241Y0035173D01*
X0159904Y0033571D01*
X0161130Y0032345D01*
X0162732Y0031682D01*
X0164846Y0031840D02*
X0276859Y0031840D01*
X0276859Y0032838D02*
X0166560Y0032838D01*
X0167403Y0033837D02*
X0276859Y0033837D01*
X0276859Y0034835D02*
X0167816Y0034835D01*
X0167956Y0035834D02*
X0276859Y0035834D01*
X0276859Y0036832D02*
X0167956Y0036832D01*
X0167573Y0037831D02*
X0276859Y0037831D01*
X0276859Y0038829D02*
X0166971Y0038829D01*
X0165839Y0039828D02*
X0276859Y0039828D01*
X0276859Y0040826D02*
X0152217Y0040826D01*
X0152217Y0041825D02*
X0153127Y0041825D01*
X0155480Y0039828D02*
X0161358Y0039828D01*
X0160226Y0038829D02*
X0157030Y0038829D01*
X0157805Y0037831D02*
X0159624Y0037831D01*
X0159241Y0036832D02*
X0158218Y0036832D01*
X0158310Y0035834D02*
X0159241Y0035834D01*
X0159381Y0034835D02*
X0158293Y0034835D01*
X0157879Y0033837D02*
X0159794Y0033837D01*
X0160637Y0032838D02*
X0157209Y0032838D01*
X0152879Y0030841D02*
X0147704Y0030841D01*
X0148838Y0029843D02*
X0151744Y0029843D01*
X0151090Y0028844D02*
X0149493Y0028844D01*
X0149906Y0027846D02*
X0150677Y0027846D01*
X0150623Y0026847D02*
X0149960Y0026847D01*
X0149956Y0025849D02*
X0150627Y0025849D01*
X0151041Y0024850D02*
X0149542Y0024850D01*
X0148958Y0023852D02*
X0151625Y0023852D01*
X0152623Y0022853D02*
X0147959Y0022853D01*
X0147668Y0020856D02*
X0153434Y0020856D01*
X0154807Y0020856D02*
X0155776Y0020856D01*
X0155776Y0019858D02*
X0154807Y0019858D01*
X0154807Y0018859D02*
X0155776Y0018859D01*
X0155776Y0017861D02*
X0154807Y0017861D01*
X0155776Y0016303D02*
X0159739Y0016303D01*
X0159650Y0015741D01*
X0159432Y0015072D01*
X0159113Y0014445D01*
X0158700Y0013876D01*
X0158202Y0013379D01*
X0157633Y0012966D01*
X0157007Y0012646D01*
X0156338Y0012429D01*
X0155776Y0012340D01*
X0155776Y0016303D01*
X0155776Y0015864D02*
X0154807Y0015864D01*
X0154807Y0014865D02*
X0155776Y0014865D01*
X0155776Y0013867D02*
X0154807Y0013867D01*
X0154807Y0012868D02*
X0155776Y0012868D01*
X0157442Y0012868D02*
X0162608Y0012868D01*
X0161610Y0013867D02*
X0158690Y0013867D01*
X0159327Y0014865D02*
X0161034Y0014865D01*
X0160623Y0015864D02*
X0159669Y0015864D01*
X0152042Y0019858D02*
X0148823Y0019858D01*
X0149486Y0018859D02*
X0151332Y0018859D01*
X0150942Y0017861D02*
X0149900Y0017861D01*
X0142879Y0030841D02*
X0141821Y0030841D01*
X0143416Y0031840D02*
X0151992Y0031840D01*
X0150696Y0032838D02*
X0144209Y0032838D01*
X0144623Y0033837D02*
X0150026Y0033837D01*
X0149613Y0034835D02*
X0144728Y0034835D01*
X0144723Y0035834D02*
X0149595Y0035834D01*
X0149612Y0036832D02*
X0144310Y0036832D01*
X0143658Y0037831D02*
X0148613Y0037831D01*
X0147617Y0038829D02*
X0142407Y0038829D01*
X0144076Y0040826D02*
X0147617Y0040826D01*
X0147617Y0039828D02*
X0138930Y0039828D01*
X0138930Y0040826D02*
X0140010Y0040826D01*
X0145330Y0041825D02*
X0147617Y0041825D01*
X0147617Y0042823D02*
X0145982Y0042823D01*
X0146396Y0043822D02*
X0147617Y0043822D01*
X0147617Y0044820D02*
X0146401Y0044820D01*
X0146297Y0045819D02*
X0147023Y0045819D01*
X0141422Y0049058D02*
X0141425Y0050180D01*
X0139685Y0048441D01*
X0141177Y0049058D01*
X0141422Y0049058D01*
X0141424Y0049813D02*
X0141058Y0049813D01*
X0140588Y0048814D02*
X0140059Y0048814D01*
X0134330Y0045819D02*
X0133579Y0045819D01*
X0133605Y0044820D02*
X0134330Y0044820D01*
X0134330Y0043822D02*
X0133605Y0043822D01*
X0133228Y0042823D02*
X0134330Y0042823D01*
X0134330Y0041825D02*
X0132633Y0041825D01*
X0131519Y0040826D02*
X0134330Y0040826D01*
X0134330Y0039828D02*
X0123763Y0039828D01*
X0123763Y0040826D02*
X0126977Y0040826D01*
X0125863Y0041825D02*
X0123763Y0041825D01*
X0123392Y0042823D02*
X0125268Y0042823D01*
X0124891Y0043822D02*
X0123195Y0043822D01*
X0123468Y0044820D02*
X0124891Y0044820D01*
X0125035Y0045819D02*
X0123468Y0045819D01*
X0123468Y0046817D02*
X0125449Y0046817D01*
X0126299Y0047816D02*
X0123468Y0047816D01*
X0123468Y0048814D02*
X0128030Y0048814D01*
X0131029Y0049813D02*
X0122701Y0049813D01*
X0119261Y0051810D02*
X0132928Y0051810D01*
X0131979Y0050811D02*
X0108113Y0050811D01*
X0108113Y0051810D02*
X0113644Y0051810D01*
X0113678Y0051752D02*
X0113957Y0051473D01*
X0114299Y0051275D01*
X0114680Y0051173D01*
X0116165Y0051173D01*
X0116165Y0054157D01*
X0116740Y0054157D01*
X0116740Y0051173D01*
X0118225Y0051173D01*
X0118607Y0051275D01*
X0118949Y0051473D01*
X0119228Y0051752D01*
X0119425Y0052094D01*
X0119528Y0052476D01*
X0119528Y0054157D01*
X0116740Y0054157D01*
X0116740Y0054732D01*
X0119528Y0054732D01*
X0119528Y0056414D01*
X0119425Y0056796D01*
X0119228Y0057138D01*
X0118949Y0057417D01*
X0118607Y0057614D01*
X0118225Y0057717D01*
X0116740Y0057717D01*
X0116740Y0054732D01*
X0116165Y0054732D01*
X0116165Y0054157D01*
X0113378Y0054157D01*
X0113378Y0052476D01*
X0113480Y0052094D01*
X0113678Y0051752D01*
X0113378Y0052809D02*
X0108113Y0052809D01*
X0108113Y0053807D02*
X0113378Y0053807D01*
X0113378Y0054732D02*
X0116165Y0054732D01*
X0116165Y0057717D01*
X0114680Y0057717D01*
X0114299Y0057614D01*
X0113957Y0057417D01*
X0113678Y0057138D01*
X0113480Y0056796D01*
X0113378Y0056414D01*
X0113378Y0054732D01*
X0113378Y0054806D02*
X0108113Y0054806D01*
X0108113Y0055804D02*
X0113378Y0055804D01*
X0113484Y0056803D02*
X0107247Y0056803D01*
X0106548Y0057801D02*
X0136487Y0057801D01*
X0136490Y0056803D02*
X0119421Y0056803D01*
X0119528Y0055804D02*
X0136492Y0055804D01*
X0135777Y0054806D02*
X0119528Y0054806D01*
X0119528Y0053807D02*
X0134828Y0053807D01*
X0133878Y0052809D02*
X0119528Y0052809D01*
X0116740Y0052809D02*
X0116165Y0052809D01*
X0116165Y0053807D02*
X0116740Y0053807D01*
X0116740Y0054806D02*
X0116165Y0054806D01*
X0116165Y0055804D02*
X0116740Y0055804D01*
X0116740Y0056803D02*
X0116165Y0056803D01*
X0116165Y0051810D02*
X0116740Y0051810D01*
X0117684Y0049813D02*
X0115221Y0049813D01*
X0115987Y0048814D02*
X0116918Y0048814D01*
X0116918Y0047816D02*
X0115987Y0047816D01*
X0115987Y0046817D02*
X0116918Y0046817D01*
X0116918Y0045819D02*
X0115987Y0045819D01*
X0115987Y0044820D02*
X0116918Y0044820D01*
X0117191Y0043822D02*
X0115714Y0043822D01*
X0116699Y0042823D02*
X0116797Y0042823D01*
X0110407Y0043126D02*
X0109764Y0042483D01*
X0108969Y0042483D01*
X0108003Y0043448D01*
X0107663Y0043448D01*
X0107886Y0043671D01*
X0109862Y0043671D01*
X0110407Y0043126D01*
X0110104Y0042823D02*
X0108628Y0042823D01*
X0102112Y0042902D02*
X0101984Y0042774D01*
X0101856Y0042902D01*
X0102112Y0042902D01*
X0102033Y0042823D02*
X0101935Y0042823D01*
X0100833Y0043448D02*
X0095965Y0043448D01*
X0095000Y0042483D01*
X0070632Y0042483D01*
X0070632Y0044606D01*
X0070909Y0044882D01*
X0070909Y0049440D01*
X0070534Y0049815D01*
X0070534Y0052677D01*
X0070888Y0053031D01*
X0071244Y0053031D01*
X0072591Y0054378D01*
X0073772Y0055559D01*
X0073772Y0081635D01*
X0073048Y0082360D01*
X0073722Y0083050D01*
X0073811Y0083050D01*
X0073881Y0082882D01*
X0075106Y0081656D01*
X0076708Y0080993D01*
X0078442Y0080993D01*
X0080043Y0081656D01*
X0081269Y0082882D01*
X0081583Y0083642D01*
X0081583Y0082284D01*
X0082352Y0081516D01*
X0082352Y0081016D01*
X0081583Y0080247D01*
X0081583Y0074508D01*
X0082352Y0073740D01*
X0082352Y0073240D01*
X0081583Y0072472D01*
X0081583Y0066733D01*
X0082352Y0065964D01*
X0082352Y0065563D01*
X0081583Y0064795D01*
X0081583Y0059056D01*
X0082352Y0058287D01*
X0082352Y0057788D01*
X0081583Y0057019D01*
X0081583Y0051280D01*
X0082352Y0050512D01*
X0082352Y0049340D01*
X0082793Y0048275D01*
X0086956Y0044112D01*
X0088022Y0043671D01*
X0100610Y0043671D01*
X0100833Y0043448D01*
X0095341Y0042823D02*
X0070632Y0042823D01*
X0070632Y0043822D02*
X0087657Y0043822D01*
X0086248Y0044820D02*
X0070847Y0044820D01*
X0070909Y0045819D02*
X0085249Y0045819D01*
X0084251Y0046817D02*
X0070909Y0046817D01*
X0070909Y0047816D02*
X0083252Y0047816D01*
X0082570Y0048814D02*
X0070909Y0048814D01*
X0070536Y0049813D02*
X0082352Y0049813D01*
X0082052Y0050811D02*
X0070534Y0050811D01*
X0070534Y0051810D02*
X0081583Y0051810D01*
X0081583Y0052809D02*
X0070665Y0052809D01*
X0072020Y0053807D02*
X0081583Y0053807D01*
X0081583Y0054806D02*
X0073019Y0054806D01*
X0073772Y0055804D02*
X0081583Y0055804D01*
X0081583Y0056803D02*
X0073772Y0056803D01*
X0073772Y0057801D02*
X0082352Y0057801D01*
X0081840Y0058800D02*
X0073772Y0058800D01*
X0073772Y0059798D02*
X0081583Y0059798D01*
X0081583Y0060797D02*
X0073772Y0060797D01*
X0073772Y0061795D02*
X0081583Y0061795D01*
X0081583Y0062794D02*
X0073772Y0062794D01*
X0073772Y0063792D02*
X0081583Y0063792D01*
X0081583Y0064791D02*
X0073772Y0064791D01*
X0073772Y0065789D02*
X0082352Y0065789D01*
X0081583Y0066788D02*
X0073772Y0066788D01*
X0073772Y0067786D02*
X0081583Y0067786D01*
X0081583Y0068785D02*
X0073772Y0068785D01*
X0073772Y0069783D02*
X0081583Y0069783D01*
X0081583Y0070782D02*
X0073772Y0070782D01*
X0073772Y0071780D02*
X0081583Y0071780D01*
X0081890Y0072779D02*
X0073772Y0072779D01*
X0073772Y0073777D02*
X0082315Y0073777D01*
X0081583Y0074776D02*
X0073772Y0074776D01*
X0073772Y0075774D02*
X0081583Y0075774D01*
X0081583Y0076773D02*
X0073772Y0076773D01*
X0073772Y0077771D02*
X0081583Y0077771D01*
X0081583Y0078770D02*
X0073772Y0078770D01*
X0073772Y0079768D02*
X0081583Y0079768D01*
X0082103Y0080767D02*
X0073772Y0080767D01*
X0073642Y0081765D02*
X0074997Y0081765D01*
X0073999Y0082764D02*
X0073442Y0082764D01*
X0073688Y0087650D02*
X0073675Y0087662D01*
X0072737Y0087650D01*
X0072202Y0087650D01*
X0073114Y0088562D01*
X0074624Y0088562D01*
X0073881Y0087819D01*
X0073811Y0087650D01*
X0073688Y0087650D01*
X0073855Y0087756D02*
X0072308Y0087756D01*
X0080152Y0081765D02*
X0082102Y0081765D01*
X0081583Y0082764D02*
X0081151Y0082764D01*
X0081583Y0087059D02*
X0081269Y0087819D01*
X0080525Y0088562D01*
X0082123Y0088562D01*
X0081583Y0088023D01*
X0081583Y0087059D01*
X0081583Y0087756D02*
X0081295Y0087756D01*
X0088381Y0088562D02*
X0088816Y0088562D01*
X0088598Y0088345D01*
X0088381Y0088562D01*
X0088598Y0081962D02*
X0088152Y0081516D01*
X0088152Y0081016D01*
X0088598Y0080570D01*
X0089272Y0081243D01*
X0092558Y0081243D01*
X0092602Y0081288D01*
X0089272Y0081288D01*
X0088598Y0081962D01*
X0088402Y0081765D02*
X0088795Y0081765D01*
X0088796Y0080767D02*
X0088401Y0080767D01*
X0088598Y0074186D02*
X0088152Y0073740D01*
X0088152Y0073240D01*
X0088598Y0072794D01*
X0089272Y0073468D01*
X0092558Y0073468D01*
X0092602Y0073513D01*
X0089272Y0073513D01*
X0088598Y0074186D01*
X0088189Y0073777D02*
X0089008Y0073777D01*
X0095613Y0076524D02*
X0095613Y0077794D01*
X0099197Y0081377D01*
X0100467Y0081377D01*
X0095613Y0076524D01*
X0095613Y0076773D02*
X0095863Y0076773D01*
X0095613Y0077771D02*
X0096861Y0077771D01*
X0096589Y0078770D02*
X0097860Y0078770D01*
X0097588Y0079768D02*
X0098858Y0079768D01*
X0098586Y0080767D02*
X0099857Y0080767D01*
X0108301Y0071780D02*
X0114447Y0071780D01*
X0113351Y0072779D02*
X0109299Y0072779D01*
X0107302Y0070782D02*
X0123709Y0070782D01*
X0123709Y0069783D02*
X0106548Y0069783D01*
X0106548Y0068785D02*
X0123709Y0068785D01*
X0123709Y0067786D02*
X0106548Y0067786D01*
X0106548Y0066788D02*
X0123709Y0066788D01*
X0123709Y0065789D02*
X0106548Y0065789D01*
X0106548Y0064791D02*
X0123709Y0064791D01*
X0123709Y0063792D02*
X0106548Y0063792D01*
X0106548Y0062794D02*
X0123709Y0062794D01*
X0123709Y0061795D02*
X0106548Y0061795D01*
X0106548Y0060797D02*
X0123709Y0060797D01*
X0124050Y0059798D02*
X0106548Y0059798D01*
X0106548Y0058800D02*
X0136484Y0058800D01*
X0136482Y0059798D02*
X0136218Y0059798D01*
X0136450Y0071780D02*
X0135774Y0071780D01*
X0136447Y0072779D02*
X0121326Y0072779D01*
X0120230Y0071780D02*
X0124494Y0071780D01*
X0127128Y0073777D02*
X0136445Y0073777D01*
X0136442Y0074776D02*
X0128127Y0074776D01*
X0128202Y0075774D02*
X0136439Y0075774D01*
X0136437Y0076773D02*
X0128254Y0076773D01*
X0128300Y0077771D02*
X0136434Y0077771D01*
X0136431Y0078770D02*
X0128255Y0078770D01*
X0128202Y0079768D02*
X0136429Y0079768D01*
X0136426Y0080767D02*
X0128202Y0080767D01*
X0128202Y0081765D02*
X0136423Y0081765D01*
X0136421Y0082764D02*
X0128202Y0082764D01*
X0128202Y0083762D02*
X0130704Y0083762D01*
X0129482Y0084761D02*
X0128202Y0084761D01*
X0128005Y0089914D02*
X0128005Y0090500D01*
X0128103Y0090598D01*
X0128103Y0092504D01*
X0128072Y0092535D01*
X0128103Y0092567D01*
X0128103Y0094472D01*
X0128072Y0094504D01*
X0128103Y0094535D01*
X0128103Y0095157D01*
X0132035Y0095157D01*
X0136399Y0090793D01*
X0136401Y0090167D01*
X0135260Y0091308D01*
X0133658Y0091972D01*
X0131925Y0091972D01*
X0130323Y0091308D01*
X0129097Y0090082D01*
X0129028Y0089914D01*
X0128005Y0089914D01*
X0128103Y0090752D02*
X0129767Y0090752D01*
X0131391Y0091750D02*
X0128103Y0091750D01*
X0128103Y0092749D02*
X0134443Y0092749D01*
X0134192Y0091750D02*
X0135442Y0091750D01*
X0135816Y0090752D02*
X0136399Y0090752D01*
X0133445Y0093747D02*
X0128103Y0093747D01*
X0128103Y0094746D02*
X0132446Y0094746D01*
X0136100Y0084761D02*
X0136415Y0084761D01*
X0136418Y0083762D02*
X0134879Y0083762D01*
X0151135Y0083762D02*
X0158749Y0083762D01*
X0158749Y0082764D02*
X0151135Y0082764D01*
X0151135Y0081765D02*
X0158749Y0081765D01*
X0158749Y0080767D02*
X0151135Y0080767D01*
X0151135Y0079768D02*
X0158749Y0079768D01*
X0158749Y0078770D02*
X0151135Y0078770D01*
X0151135Y0077771D02*
X0158749Y0077771D01*
X0158749Y0076773D02*
X0151135Y0076773D01*
X0151135Y0075774D02*
X0158749Y0075774D01*
X0158749Y0074776D02*
X0151135Y0074776D01*
X0151135Y0073777D02*
X0158749Y0073777D01*
X0158749Y0072779D02*
X0151135Y0072779D01*
X0151135Y0071780D02*
X0158749Y0071780D01*
X0158749Y0070782D02*
X0151135Y0070782D01*
X0151135Y0069783D02*
X0158749Y0069783D01*
X0158749Y0068785D02*
X0151135Y0068785D01*
X0151135Y0067786D02*
X0158749Y0067786D01*
X0158749Y0067225D02*
X0159745Y0066229D01*
X0188712Y0066229D01*
X0189708Y0067225D01*
X0189708Y0175129D01*
X0188712Y0176125D01*
X0159745Y0176125D01*
X0158749Y0175129D01*
X0158749Y0067225D01*
X0159186Y0066788D02*
X0151135Y0066788D01*
X0151135Y0065789D02*
X0276859Y0065789D01*
X0276859Y0064791D02*
X0151135Y0064791D01*
X0151135Y0063792D02*
X0276859Y0063792D01*
X0276859Y0062794D02*
X0151135Y0062794D01*
X0151135Y0061795D02*
X0276859Y0061795D01*
X0276859Y0060797D02*
X0151135Y0060797D01*
X0151135Y0059798D02*
X0276859Y0059798D01*
X0276859Y0058800D02*
X0151135Y0058800D01*
X0151135Y0057801D02*
X0276859Y0057801D01*
X0276859Y0056803D02*
X0151135Y0056803D01*
X0151135Y0055804D02*
X0276859Y0055804D01*
X0276859Y0054806D02*
X0151135Y0054806D01*
X0151135Y0053807D02*
X0276859Y0053807D01*
X0276859Y0052809D02*
X0151135Y0052809D01*
X0151179Y0051810D02*
X0276859Y0051810D01*
X0276859Y0050811D02*
X0152177Y0050811D01*
X0153176Y0049813D02*
X0276859Y0049813D01*
X0276859Y0048814D02*
X0158462Y0048814D01*
X0159461Y0047816D02*
X0276859Y0047816D01*
X0276859Y0046817D02*
X0159907Y0046817D01*
X0160180Y0045819D02*
X0276859Y0045819D01*
X0276859Y0044820D02*
X0160180Y0044820D01*
X0159931Y0043822D02*
X0276859Y0043822D01*
X0276859Y0042823D02*
X0159517Y0042823D01*
X0158519Y0041825D02*
X0276859Y0041825D01*
X0276859Y0030841D02*
X0247704Y0030841D01*
X0247936Y0030745D02*
X0246220Y0031456D01*
X0244363Y0031456D01*
X0242647Y0030745D01*
X0241334Y0029432D01*
X0240623Y0027716D01*
X0240623Y0025859D01*
X0241334Y0024143D01*
X0242647Y0022830D01*
X0244363Y0022119D01*
X0246220Y0022119D01*
X0247936Y0022830D01*
X0249249Y0024143D01*
X0249960Y0025859D01*
X0249960Y0027716D01*
X0249249Y0029432D01*
X0247936Y0030745D01*
X0248838Y0029843D02*
X0276859Y0029843D01*
X0276859Y0028844D02*
X0249493Y0028844D01*
X0249906Y0027846D02*
X0276859Y0027846D01*
X0276859Y0026847D02*
X0249960Y0026847D01*
X0249956Y0025849D02*
X0276859Y0025849D01*
X0276859Y0024850D02*
X0249542Y0024850D01*
X0248958Y0023852D02*
X0276859Y0023852D01*
X0276859Y0022853D02*
X0247959Y0022853D01*
X0247668Y0020856D02*
X0276859Y0020856D01*
X0276859Y0019858D02*
X0248823Y0019858D01*
X0249249Y0019432D02*
X0247936Y0020745D01*
X0246220Y0021456D01*
X0244363Y0021456D01*
X0242647Y0020745D01*
X0241334Y0019432D01*
X0240623Y0017716D01*
X0240623Y0015859D01*
X0241334Y0014143D01*
X0242647Y0012830D01*
X0244363Y0012119D01*
X0246220Y0012119D01*
X0247936Y0012830D01*
X0249249Y0014143D01*
X0249960Y0015859D01*
X0249960Y0017716D01*
X0249249Y0019432D01*
X0249486Y0018859D02*
X0276859Y0018859D01*
X0276859Y0017861D02*
X0249900Y0017861D01*
X0249960Y0016862D02*
X0276859Y0016862D01*
X0276859Y0015864D02*
X0249960Y0015864D01*
X0249548Y0014865D02*
X0276859Y0014865D01*
X0276859Y0013867D02*
X0248973Y0013867D01*
X0247974Y0012868D02*
X0276859Y0012868D01*
X0276859Y0011870D02*
X0010574Y0011870D01*
X0010574Y0012868D02*
X0052608Y0012868D01*
X0052647Y0012830D02*
X0054363Y0012119D01*
X0056220Y0012119D01*
X0057936Y0012830D01*
X0059249Y0014143D01*
X0059960Y0015859D01*
X0059960Y0017716D01*
X0059249Y0019432D01*
X0057936Y0020745D01*
X0056220Y0021456D01*
X0054363Y0021456D01*
X0052647Y0020745D01*
X0051334Y0019432D01*
X0050623Y0017716D01*
X0050623Y0015859D01*
X0051334Y0014143D01*
X0052647Y0012830D01*
X0051610Y0013867D02*
X0010574Y0013867D01*
X0010574Y0014865D02*
X0051034Y0014865D01*
X0050623Y0015864D02*
X0010574Y0015864D01*
X0010574Y0016862D02*
X0050623Y0016862D01*
X0050683Y0017861D02*
X0010574Y0017861D01*
X0010574Y0018859D02*
X0051096Y0018859D01*
X0051759Y0019858D02*
X0010574Y0019858D01*
X0010574Y0020856D02*
X0052915Y0020856D01*
X0053576Y0022646D02*
X0054245Y0022429D01*
X0054807Y0022340D01*
X0054807Y0026303D01*
X0055776Y0026303D01*
X0055776Y0027272D01*
X0059739Y0027272D01*
X0059650Y0027834D01*
X0059432Y0028503D01*
X0059113Y0029129D01*
X0058700Y0029698D01*
X0058202Y0030196D01*
X0057633Y0030609D01*
X0057007Y0030929D01*
X0056338Y0031146D01*
X0055776Y0031235D01*
X0055776Y0027272D01*
X0054807Y0027272D01*
X0054807Y0031235D01*
X0054245Y0031146D01*
X0053576Y0030929D01*
X0052949Y0030609D01*
X0052380Y0030196D01*
X0051883Y0029698D01*
X0051470Y0029129D01*
X0051150Y0028503D01*
X0050933Y0027834D01*
X0050844Y0027272D01*
X0054807Y0027272D01*
X0054807Y0026303D01*
X0050844Y0026303D01*
X0050933Y0025741D01*
X0051150Y0025072D01*
X0051470Y0024445D01*
X0051883Y0023876D01*
X0052380Y0023379D01*
X0052949Y0022966D01*
X0053576Y0022646D01*
X0053170Y0022853D02*
X0010574Y0022853D01*
X0010574Y0021855D02*
X0276859Y0021855D01*
X0276859Y0010871D02*
X0010574Y0010871D01*
X0010574Y0023852D02*
X0051908Y0023852D01*
X0051263Y0024850D02*
X0010574Y0024850D01*
X0010574Y0025849D02*
X0050916Y0025849D01*
X0050937Y0027846D02*
X0010574Y0027846D01*
X0010574Y0028844D02*
X0051324Y0028844D01*
X0052027Y0029843D02*
X0010574Y0029843D01*
X0010574Y0030841D02*
X0053405Y0030841D01*
X0054807Y0030841D02*
X0055776Y0030841D01*
X0055776Y0029843D02*
X0054807Y0029843D01*
X0054807Y0028844D02*
X0055776Y0028844D01*
X0055776Y0027846D02*
X0054807Y0027846D01*
X0054807Y0026847D02*
X0010574Y0026847D01*
X0010574Y0039828D02*
X0046555Y0039828D01*
X0045557Y0040826D02*
X0010574Y0040826D01*
X0010574Y0041825D02*
X0044558Y0041825D01*
X0043560Y0042823D02*
X0010574Y0042823D01*
X0010574Y0043822D02*
X0042561Y0043822D01*
X0041563Y0044820D02*
X0010574Y0044820D01*
X0010574Y0045819D02*
X0040564Y0045819D01*
X0039566Y0046817D02*
X0010574Y0046817D01*
X0010574Y0047816D02*
X0038567Y0047816D01*
X0037569Y0048814D02*
X0010574Y0048814D01*
X0010574Y0049813D02*
X0036570Y0049813D01*
X0035572Y0050811D02*
X0010574Y0050811D01*
X0010574Y0051810D02*
X0034573Y0051810D01*
X0033575Y0052809D02*
X0010574Y0052809D01*
X0010574Y0053807D02*
X0032992Y0053807D01*
X0032844Y0054806D02*
X0010574Y0054806D01*
X0010574Y0055804D02*
X0032844Y0055804D01*
X0032844Y0056803D02*
X0010574Y0056803D01*
X0010574Y0057801D02*
X0032844Y0057801D01*
X0032844Y0058800D02*
X0010574Y0058800D01*
X0010574Y0059798D02*
X0032844Y0059798D01*
X0032844Y0060797D02*
X0010574Y0060797D01*
X0010574Y0061795D02*
X0032844Y0061795D01*
X0032844Y0062794D02*
X0010574Y0062794D01*
X0010574Y0063792D02*
X0032844Y0063792D01*
X0032844Y0064791D02*
X0010574Y0064791D01*
X0010574Y0065789D02*
X0032844Y0065789D01*
X0032844Y0066788D02*
X0010574Y0066788D01*
X0010574Y0067786D02*
X0032844Y0067786D01*
X0032844Y0068785D02*
X0010574Y0068785D01*
X0010574Y0069783D02*
X0032844Y0069783D01*
X0032844Y0070782D02*
X0010574Y0070782D01*
X0010574Y0071780D02*
X0032844Y0071780D01*
X0032844Y0072779D02*
X0010574Y0072779D01*
X0010574Y0073777D02*
X0032844Y0073777D01*
X0032844Y0074776D02*
X0010574Y0074776D01*
X0010574Y0075774D02*
X0032844Y0075774D01*
X0032844Y0076773D02*
X0010574Y0076773D01*
X0010574Y0077771D02*
X0032844Y0077771D01*
X0032844Y0078770D02*
X0010574Y0078770D01*
X0010574Y0079768D02*
X0032844Y0079768D01*
X0032844Y0080767D02*
X0010574Y0080767D01*
X0010574Y0081765D02*
X0032844Y0081765D01*
X0032844Y0082764D02*
X0010574Y0082764D01*
X0010574Y0083762D02*
X0032844Y0083762D01*
X0032844Y0084761D02*
X0010574Y0084761D01*
X0010574Y0085759D02*
X0032844Y0085759D01*
X0032844Y0086758D02*
X0010574Y0086758D01*
X0010574Y0087756D02*
X0032844Y0087756D01*
X0032844Y0088755D02*
X0010574Y0088755D01*
X0010574Y0089753D02*
X0032844Y0089753D01*
X0032844Y0090752D02*
X0010574Y0090752D01*
X0010574Y0091750D02*
X0032844Y0091750D01*
X0032844Y0092749D02*
X0010574Y0092749D01*
X0010574Y0093747D02*
X0032844Y0093747D01*
X0032844Y0094746D02*
X0010574Y0094746D01*
X0010574Y0095745D02*
X0032844Y0095745D01*
X0032844Y0096743D02*
X0010574Y0096743D01*
X0010574Y0097742D02*
X0032844Y0097742D01*
X0032844Y0098740D02*
X0010574Y0098740D01*
X0010574Y0099739D02*
X0032844Y0099739D01*
X0032844Y0100737D02*
X0010574Y0100737D01*
X0010574Y0101736D02*
X0032844Y0101736D01*
X0032844Y0102734D02*
X0010574Y0102734D01*
X0010574Y0103733D02*
X0032844Y0103733D01*
X0032844Y0104731D02*
X0010574Y0104731D01*
X0010574Y0105730D02*
X0032844Y0105730D01*
X0032844Y0106728D02*
X0010574Y0106728D01*
X0010574Y0107727D02*
X0032844Y0107727D01*
X0032844Y0108725D02*
X0010574Y0108725D01*
X0010574Y0109724D02*
X0032844Y0109724D01*
X0032844Y0110722D02*
X0010574Y0110722D01*
X0010574Y0111721D02*
X0032844Y0111721D01*
X0032844Y0112719D02*
X0010574Y0112719D01*
X0010574Y0113718D02*
X0032844Y0113718D01*
X0032844Y0114716D02*
X0010574Y0114716D01*
X0010574Y0115715D02*
X0032844Y0115715D01*
X0032844Y0116713D02*
X0010574Y0116713D01*
X0010574Y0117712D02*
X0032844Y0117712D01*
X0033092Y0118710D02*
X0010574Y0118710D01*
X0010574Y0119709D02*
X0033816Y0119709D01*
X0034815Y0120707D02*
X0010574Y0120707D01*
X0010574Y0121706D02*
X0035813Y0121706D01*
X0036812Y0122704D02*
X0010574Y0122704D01*
X0010574Y0123703D02*
X0037810Y0123703D01*
X0038809Y0124701D02*
X0010574Y0124701D01*
X0010574Y0125700D02*
X0039807Y0125700D01*
X0040806Y0126698D02*
X0010574Y0126698D01*
X0010574Y0127697D02*
X0041804Y0127697D01*
X0042803Y0128695D02*
X0010574Y0128695D01*
X0010574Y0129694D02*
X0043801Y0129694D01*
X0052614Y0117712D02*
X0054227Y0117712D01*
X0047085Y0113718D02*
X0038644Y0113718D01*
X0038644Y0112719D02*
X0045435Y0112719D01*
X0044618Y0111721D02*
X0038644Y0111721D01*
X0038644Y0110722D02*
X0044205Y0110722D01*
X0044083Y0109724D02*
X0038644Y0109724D01*
X0038644Y0108725D02*
X0044083Y0108725D01*
X0044485Y0107727D02*
X0038644Y0107727D01*
X0038644Y0106728D02*
X0045113Y0106728D01*
X0046309Y0105730D02*
X0038644Y0105730D01*
X0061558Y0119634D02*
X0061558Y0123456D01*
X0060884Y0124130D01*
X0061331Y0124576D01*
X0062323Y0124576D01*
X0062769Y0124130D01*
X0062095Y0123456D01*
X0062095Y0120171D01*
X0061558Y0119634D01*
X0061558Y0119709D02*
X0061633Y0119709D01*
X0061558Y0120707D02*
X0062095Y0120707D01*
X0062095Y0121706D02*
X0061558Y0121706D01*
X0061558Y0122704D02*
X0062095Y0122704D01*
X0062342Y0123703D02*
X0061312Y0123703D01*
X0065545Y0117115D02*
X0068830Y0117115D01*
X0069599Y0117883D01*
X0082666Y0117883D01*
X0082666Y0117062D01*
X0083330Y0115461D01*
X0084555Y0114235D01*
X0086157Y0113572D01*
X0087890Y0113572D01*
X0089492Y0114235D01*
X0090718Y0115461D01*
X0091381Y0117062D01*
X0091381Y0118796D01*
X0090718Y0120397D01*
X0089492Y0121623D01*
X0087890Y0122287D01*
X0086767Y0122287D01*
X0085812Y0123242D01*
X0084746Y0123683D01*
X0069599Y0123683D01*
X0069152Y0124130D01*
X0069599Y0124576D01*
X0090645Y0124576D01*
X0094655Y0120566D01*
X0094655Y0107726D01*
X0094612Y0107581D01*
X0094655Y0107153D01*
X0094655Y0106722D01*
X0094713Y0106583D01*
X0094728Y0106434D01*
X0094932Y0106054D01*
X0095097Y0105656D01*
X0095203Y0105550D01*
X0095274Y0105417D01*
X0095608Y0105145D01*
X0095912Y0104841D01*
X0096051Y0104783D01*
X0100991Y0100751D01*
X0102096Y0100419D01*
X0103244Y0100535D01*
X0104224Y0101062D01*
X0104507Y0101062D01*
X0104507Y0100441D01*
X0104539Y0100409D01*
X0104507Y0100378D01*
X0104507Y0098473D01*
X0104539Y0098441D01*
X0104507Y0098409D01*
X0104507Y0097788D01*
X0102445Y0097788D01*
X0098871Y0101362D01*
X0097524Y0102709D01*
X0081932Y0102709D01*
X0081932Y0103245D01*
X0081269Y0104846D01*
X0080043Y0106072D01*
X0078442Y0106735D01*
X0076708Y0106735D01*
X0075106Y0106072D01*
X0073881Y0104846D01*
X0073572Y0104102D01*
X0073572Y0104103D01*
X0073470Y0104485D01*
X0073273Y0104827D01*
X0072993Y0105106D01*
X0072651Y0105304D01*
X0072270Y0105406D01*
X0071472Y0105406D01*
X0070675Y0105406D01*
X0070472Y0105351D01*
X0070218Y0105606D01*
X0067609Y0105606D01*
X0067355Y0105351D01*
X0067152Y0105406D01*
X0066420Y0105406D01*
X0066173Y0105653D01*
X0063977Y0105653D01*
X0063730Y0105406D01*
X0063536Y0105406D01*
X0063536Y0115106D01*
X0065545Y0117115D01*
X0065143Y0116713D02*
X0082811Y0116713D01*
X0082666Y0117712D02*
X0069427Y0117712D01*
X0064145Y0115715D02*
X0083224Y0115715D01*
X0084074Y0114716D02*
X0063536Y0114716D01*
X0063536Y0113718D02*
X0085804Y0113718D01*
X0088243Y0113718D02*
X0094655Y0113718D01*
X0094655Y0114716D02*
X0089973Y0114716D01*
X0090823Y0115715D02*
X0094655Y0115715D01*
X0094655Y0116713D02*
X0091236Y0116713D01*
X0091381Y0117712D02*
X0094655Y0117712D01*
X0094655Y0118710D02*
X0091381Y0118710D01*
X0091003Y0119709D02*
X0094655Y0119709D01*
X0094514Y0120707D02*
X0090408Y0120707D01*
X0089293Y0121706D02*
X0093516Y0121706D01*
X0092517Y0122704D02*
X0086350Y0122704D01*
X0091519Y0123703D02*
X0069579Y0123703D01*
X0069283Y0130692D02*
X0071033Y0130692D01*
X0076833Y0130692D02*
X0109536Y0130692D01*
X0109536Y0130838D02*
X0109536Y0129036D01*
X0109619Y0128953D01*
X0109536Y0128870D01*
X0109536Y0127067D01*
X0109619Y0126984D01*
X0109536Y0126901D01*
X0109536Y0125099D01*
X0109619Y0125016D01*
X0109536Y0124933D01*
X0109536Y0123130D01*
X0109619Y0123047D01*
X0109536Y0122964D01*
X0109536Y0121162D01*
X0109619Y0121079D01*
X0109536Y0120995D01*
X0109536Y0119193D01*
X0109619Y0119110D01*
X0109536Y0119027D01*
X0109536Y0117225D01*
X0109619Y0117142D01*
X0109536Y0117058D01*
X0109536Y0115256D01*
X0109619Y0115173D01*
X0109536Y0115090D01*
X0109536Y0113288D01*
X0109619Y0113205D01*
X0109536Y0113121D01*
X0109536Y0111319D01*
X0109619Y0111236D01*
X0109536Y0111153D01*
X0109536Y0109599D01*
X0105854Y0109599D01*
X0104507Y0108252D01*
X0104507Y0106347D01*
X0104539Y0106315D01*
X0104507Y0106283D01*
X0104507Y0105662D01*
X0104146Y0105662D01*
X0100455Y0108675D01*
X0100455Y0122345D01*
X0100014Y0123410D01*
X0099198Y0124226D01*
X0093489Y0129935D01*
X0092423Y0130376D01*
X0076833Y0130376D01*
X0076833Y0140744D01*
X0086295Y0150206D01*
X0086295Y0149617D01*
X0086676Y0148698D01*
X0087018Y0148356D01*
X0087004Y0148331D01*
X0086902Y0147949D01*
X0086902Y0146071D01*
X0089886Y0146071D01*
X0089886Y0145102D01*
X0090854Y0145102D01*
X0090854Y0141921D01*
X0092536Y0141921D01*
X0092918Y0142023D01*
X0093260Y0142221D01*
X0093539Y0142500D01*
X0093565Y0142546D01*
X0094390Y0141721D01*
X0099736Y0141721D01*
X0100373Y0142359D01*
X0100373Y0141444D01*
X0100067Y0141148D01*
X0099736Y0141480D01*
X0094390Y0141480D01*
X0093565Y0140655D01*
X0093539Y0140701D01*
X0093260Y0140980D01*
X0092918Y0141177D01*
X0092536Y0141280D01*
X0090854Y0141280D01*
X0090854Y0138098D01*
X0089886Y0138098D01*
X0089886Y0137130D01*
X0090854Y0137130D01*
X0090854Y0133949D01*
X0092536Y0133949D01*
X0092918Y0134051D01*
X0093260Y0134249D01*
X0093539Y0134528D01*
X0093565Y0134574D01*
X0094390Y0133749D01*
X0099736Y0133749D01*
X0100731Y0134745D01*
X0100731Y0135373D01*
X0101333Y0135974D01*
X0103603Y0138169D01*
X0103626Y0138169D01*
X0104286Y0138829D01*
X0104957Y0139477D01*
X0104957Y0139500D01*
X0104973Y0139516D01*
X0104973Y0140449D01*
X0104989Y0141382D01*
X0104973Y0141398D01*
X0104973Y0142665D01*
X0106677Y0144369D01*
X0109536Y0144369D01*
X0109536Y0142816D01*
X0109619Y0142732D01*
X0109536Y0142649D01*
X0109536Y0140847D01*
X0109619Y0140764D01*
X0109536Y0140681D01*
X0109536Y0138879D01*
X0109619Y0138795D01*
X0109536Y0138712D01*
X0109536Y0136910D01*
X0109619Y0136827D01*
X0109536Y0136744D01*
X0109536Y0134941D01*
X0109619Y0134858D01*
X0109536Y0134775D01*
X0109536Y0132973D01*
X0109619Y0132890D01*
X0109536Y0132807D01*
X0109536Y0131004D01*
X0109619Y0130921D01*
X0109536Y0130838D01*
X0109536Y0131691D02*
X0076833Y0131691D01*
X0076833Y0132689D02*
X0109536Y0132689D01*
X0109536Y0133688D02*
X0076833Y0133688D01*
X0076833Y0134686D02*
X0087110Y0134686D01*
X0087201Y0134528D02*
X0087481Y0134249D01*
X0087823Y0134051D01*
X0088204Y0133949D01*
X0089886Y0133949D01*
X0089886Y0137130D01*
X0086902Y0137130D01*
X0086902Y0135251D01*
X0087004Y0134870D01*
X0087201Y0134528D01*
X0086902Y0135685D02*
X0076833Y0135685D01*
X0076833Y0136683D02*
X0086902Y0136683D01*
X0086902Y0138098D02*
X0089886Y0138098D01*
X0089886Y0141280D01*
X0088204Y0141280D01*
X0087823Y0141177D01*
X0087481Y0140980D01*
X0087201Y0140701D01*
X0087004Y0140359D01*
X0086902Y0139977D01*
X0086902Y0138098D01*
X0086902Y0138680D02*
X0076833Y0138680D01*
X0076833Y0137682D02*
X0089886Y0137682D01*
X0089886Y0138680D02*
X0090854Y0138680D01*
X0090854Y0139679D02*
X0089886Y0139679D01*
X0089886Y0140678D02*
X0090854Y0140678D01*
X0089886Y0141921D02*
X0089886Y0145102D01*
X0086902Y0145102D01*
X0086902Y0143224D01*
X0087004Y0142842D01*
X0087201Y0142500D01*
X0087481Y0142221D01*
X0087823Y0142023D01*
X0088204Y0141921D01*
X0089886Y0141921D01*
X0089886Y0142675D02*
X0090854Y0142675D01*
X0090854Y0143673D02*
X0089886Y0143673D01*
X0089886Y0144672D02*
X0090854Y0144672D01*
X0089886Y0145670D02*
X0081759Y0145670D01*
X0080761Y0144672D02*
X0086902Y0144672D01*
X0086902Y0143673D02*
X0079762Y0143673D01*
X0078764Y0142675D02*
X0087101Y0142675D01*
X0087188Y0140678D02*
X0076833Y0140678D01*
X0076833Y0139679D02*
X0086902Y0139679D01*
X0089886Y0136683D02*
X0090854Y0136683D01*
X0090854Y0135685D02*
X0089886Y0135685D01*
X0089886Y0134686D02*
X0090854Y0134686D01*
X0093730Y0129694D02*
X0109536Y0129694D01*
X0109536Y0128695D02*
X0094729Y0128695D01*
X0095727Y0127697D02*
X0109536Y0127697D01*
X0109536Y0126698D02*
X0096726Y0126698D01*
X0097724Y0125700D02*
X0109536Y0125700D01*
X0109536Y0124701D02*
X0098723Y0124701D01*
X0099721Y0123703D02*
X0109536Y0123703D01*
X0109536Y0122704D02*
X0100306Y0122704D01*
X0100455Y0121706D02*
X0109536Y0121706D01*
X0109536Y0120707D02*
X0100455Y0120707D01*
X0100455Y0119709D02*
X0109536Y0119709D01*
X0109536Y0118710D02*
X0100455Y0118710D01*
X0100455Y0117712D02*
X0109536Y0117712D01*
X0109536Y0116713D02*
X0100455Y0116713D01*
X0100455Y0115715D02*
X0109536Y0115715D01*
X0109536Y0114716D02*
X0100455Y0114716D01*
X0100455Y0113718D02*
X0109536Y0113718D01*
X0109536Y0112719D02*
X0100455Y0112719D01*
X0100455Y0111721D02*
X0109536Y0111721D01*
X0109536Y0110722D02*
X0100455Y0110722D01*
X0100455Y0109724D02*
X0109536Y0109724D01*
X0104980Y0108725D02*
X0100455Y0108725D01*
X0101617Y0107727D02*
X0104507Y0107727D01*
X0104507Y0106728D02*
X0102841Y0106728D01*
X0104064Y0105730D02*
X0104507Y0105730D01*
X0104507Y0100737D02*
X0103619Y0100737D01*
X0104507Y0099739D02*
X0100494Y0099739D01*
X0101037Y0100737D02*
X0099496Y0100737D01*
X0099785Y0101736D02*
X0098497Y0101736D01*
X0098562Y0102734D02*
X0081932Y0102734D01*
X0081730Y0103733D02*
X0097338Y0103733D01*
X0096115Y0104731D02*
X0081317Y0104731D01*
X0080386Y0105730D02*
X0095066Y0105730D01*
X0094655Y0106728D02*
X0078459Y0106728D01*
X0076690Y0106728D02*
X0063536Y0106728D01*
X0063536Y0105730D02*
X0074764Y0105730D01*
X0073833Y0104731D02*
X0073328Y0104731D01*
X0071472Y0104731D02*
X0071472Y0104731D01*
X0071472Y0105406D02*
X0071472Y0101956D01*
X0071472Y0101956D01*
X0071472Y0105406D01*
X0071472Y0103733D02*
X0071472Y0103733D01*
X0071472Y0102734D02*
X0071472Y0102734D01*
X0073572Y0100654D02*
X0073881Y0099910D01*
X0075018Y0098772D01*
X0072936Y0098772D01*
X0072993Y0098806D01*
X0073273Y0099085D01*
X0073470Y0099427D01*
X0073572Y0099808D01*
X0073572Y0100654D01*
X0073554Y0099739D02*
X0074052Y0099739D01*
X0063536Y0107727D02*
X0094655Y0107727D01*
X0094655Y0108725D02*
X0063536Y0108725D01*
X0063536Y0109724D02*
X0094655Y0109724D01*
X0094655Y0110722D02*
X0063536Y0110722D01*
X0063536Y0111721D02*
X0094655Y0111721D01*
X0094655Y0112719D02*
X0063536Y0112719D01*
X0062639Y0130692D02*
X0061015Y0130692D01*
X0071560Y0143673D02*
X0010828Y0143673D01*
X0011764Y0144672D02*
X0072559Y0144672D01*
X0073557Y0145670D02*
X0023498Y0145670D01*
X0024719Y0146669D02*
X0074556Y0146669D01*
X0075554Y0147667D02*
X0025569Y0147667D01*
X0025983Y0148666D02*
X0076553Y0148666D01*
X0077551Y0149664D02*
X0026322Y0149664D01*
X0026322Y0150663D02*
X0078550Y0150663D01*
X0079548Y0151661D02*
X0026322Y0151661D01*
X0026322Y0152660D02*
X0080547Y0152660D01*
X0081545Y0153658D02*
X0026322Y0153658D01*
X0026322Y0154657D02*
X0082544Y0154657D01*
X0083542Y0155655D02*
X0026322Y0155655D01*
X0026322Y0156654D02*
X0086295Y0156654D01*
X0086295Y0157652D02*
X0026322Y0157652D01*
X0026322Y0158651D02*
X0086295Y0158651D01*
X0086295Y0159649D02*
X0026322Y0159649D01*
X0026322Y0160648D02*
X0086295Y0160648D01*
X0086295Y0161646D02*
X0026322Y0161646D01*
X0026322Y0162645D02*
X0086295Y0162645D01*
X0086295Y0163643D02*
X0026322Y0163643D01*
X0026322Y0164642D02*
X0086295Y0164642D01*
X0086295Y0165640D02*
X0026322Y0165640D01*
X0026322Y0166639D02*
X0086295Y0166639D01*
X0086295Y0167637D02*
X0026322Y0167637D01*
X0026322Y0168636D02*
X0086295Y0168636D01*
X0086295Y0169634D02*
X0026322Y0169634D01*
X0026322Y0170633D02*
X0086295Y0170633D01*
X0086295Y0171631D02*
X0026322Y0171631D01*
X0026322Y0172630D02*
X0086295Y0172630D01*
X0086295Y0173628D02*
X0026322Y0173628D01*
X0026322Y0174627D02*
X0086377Y0174627D01*
X0086952Y0175625D02*
X0026322Y0175625D01*
X0026322Y0176624D02*
X0087951Y0176624D01*
X0088949Y0177622D02*
X0026322Y0177622D01*
X0026322Y0178621D02*
X0108229Y0178621D01*
X0108105Y0178497D02*
X0110076Y0176526D01*
X0112047Y0178497D01*
X0110997Y0179547D01*
X0110655Y0179744D01*
X0110274Y0179846D01*
X0109879Y0179846D01*
X0109497Y0179744D01*
X0109155Y0179547D01*
X0108105Y0178497D01*
X0108167Y0177622D02*
X0108980Y0177622D01*
X0109165Y0176624D02*
X0109978Y0176624D01*
X0110174Y0176624D02*
X0110987Y0176624D01*
X0110977Y0175625D02*
X0110164Y0175625D01*
X0111162Y0174627D02*
X0111975Y0174627D01*
X0112932Y0174627D02*
X0123709Y0174627D01*
X0123709Y0175625D02*
X0113724Y0175625D01*
X0113721Y0176624D02*
X0123709Y0176624D01*
X0123709Y0177622D02*
X0112921Y0177622D01*
X0111986Y0177622D02*
X0111173Y0177622D01*
X0111923Y0178621D02*
X0123709Y0178621D01*
X0123709Y0179619D02*
X0110871Y0179619D01*
X0109281Y0179619D02*
X0026322Y0179619D01*
X0026322Y0180618D02*
X0123709Y0180618D01*
X0123709Y0181616D02*
X0026322Y0181616D01*
X0026322Y0182615D02*
X0123709Y0182615D01*
X0123709Y0183613D02*
X0026322Y0183613D01*
X0026322Y0184612D02*
X0124334Y0184612D01*
X0124705Y0184983D02*
X0123709Y0183988D01*
X0123709Y0173130D01*
X0124705Y0172135D01*
X0135562Y0172135D01*
X0136558Y0173130D01*
X0136558Y0183988D01*
X0135562Y0184983D01*
X0124705Y0184983D01*
X0117339Y0178067D02*
X0117339Y0170291D01*
X0117339Y0171631D02*
X0117339Y0171631D01*
X0113480Y0171631D02*
X0110085Y0171631D01*
X0110890Y0172630D02*
X0124210Y0172630D01*
X0123709Y0173628D02*
X0111933Y0173628D01*
X0107231Y0177622D02*
X0104094Y0177622D01*
X0105093Y0176624D02*
X0106431Y0176624D01*
X0117240Y0166256D02*
X0117339Y0166354D01*
X0121398Y0170633D02*
X0134888Y0170633D01*
X0135887Y0171631D02*
X0121197Y0171631D01*
X0112319Y0160449D02*
X0112319Y0158480D01*
X0117339Y0158480D01*
X0117339Y0156512D02*
X0117043Y0156512D01*
X0113205Y0156512D01*
X0111039Y0158677D01*
X0122004Y0153658D02*
X0158749Y0153658D01*
X0158749Y0152660D02*
X0122004Y0152660D01*
X0122004Y0151661D02*
X0158749Y0151661D01*
X0158749Y0150663D02*
X0122004Y0150663D01*
X0122004Y0149664D02*
X0158749Y0149664D01*
X0158749Y0148666D02*
X0121598Y0148666D01*
X0121598Y0147667D02*
X0158749Y0147667D01*
X0158749Y0146669D02*
X0121598Y0146669D01*
X0121598Y0145670D02*
X0158749Y0145670D01*
X0158749Y0144672D02*
X0124300Y0144672D01*
X0124354Y0143673D02*
X0158749Y0143673D01*
X0158749Y0142675D02*
X0124328Y0142675D01*
X0124354Y0141676D02*
X0158749Y0141676D01*
X0158749Y0140678D02*
X0124354Y0140678D01*
X0124354Y0139679D02*
X0158749Y0139679D01*
X0158749Y0138680D02*
X0124354Y0138680D01*
X0124354Y0137682D02*
X0158749Y0137682D01*
X0158749Y0136683D02*
X0124354Y0136683D01*
X0124354Y0135685D02*
X0158749Y0135685D01*
X0158749Y0134686D02*
X0124354Y0134686D01*
X0124354Y0133688D02*
X0158749Y0133688D01*
X0158749Y0132689D02*
X0124354Y0132689D01*
X0124354Y0131691D02*
X0158749Y0131691D01*
X0158749Y0130692D02*
X0124354Y0130692D01*
X0124354Y0129694D02*
X0158749Y0129694D01*
X0158749Y0128695D02*
X0124354Y0128695D01*
X0124354Y0127697D02*
X0158749Y0127697D01*
X0158749Y0126698D02*
X0124354Y0126698D01*
X0124622Y0126984D02*
X0138795Y0126984D01*
X0124354Y0125700D02*
X0158749Y0125700D01*
X0158749Y0124701D02*
X0124354Y0124701D01*
X0124354Y0123703D02*
X0158749Y0123703D01*
X0158749Y0122704D02*
X0124354Y0122704D01*
X0124354Y0121706D02*
X0158749Y0121706D01*
X0158749Y0120707D02*
X0124354Y0120707D01*
X0124354Y0119709D02*
X0158749Y0119709D01*
X0158749Y0118710D02*
X0124354Y0118710D01*
X0124354Y0117712D02*
X0158749Y0117712D01*
X0158749Y0116713D02*
X0124354Y0116713D01*
X0124354Y0115715D02*
X0158749Y0115715D01*
X0158749Y0114716D02*
X0124354Y0114716D01*
X0124354Y0113718D02*
X0158749Y0113718D01*
X0158749Y0112719D02*
X0124354Y0112719D01*
X0124354Y0111721D02*
X0158749Y0111721D01*
X0158749Y0110722D02*
X0124354Y0110722D01*
X0124622Y0111236D02*
X0124622Y0109957D01*
X0123933Y0109268D01*
X0117142Y0109268D01*
X0124354Y0109724D02*
X0158749Y0109724D01*
X0158749Y0108725D02*
X0139146Y0108725D01*
X0140144Y0107727D02*
X0158749Y0107727D01*
X0158749Y0106728D02*
X0141143Y0106728D01*
X0142141Y0105730D02*
X0158749Y0105730D01*
X0158749Y0104731D02*
X0143140Y0104731D01*
X0144138Y0103733D02*
X0158749Y0103733D01*
X0158749Y0102734D02*
X0145137Y0102734D01*
X0146135Y0101736D02*
X0158749Y0101736D01*
X0158749Y0100737D02*
X0147134Y0100737D01*
X0148132Y0099739D02*
X0158749Y0099739D01*
X0158749Y0098740D02*
X0149131Y0098740D01*
X0150129Y0097742D02*
X0158749Y0097742D01*
X0158749Y0096743D02*
X0151128Y0096743D01*
X0151135Y0095745D02*
X0158749Y0095745D01*
X0158749Y0094746D02*
X0151135Y0094746D01*
X0151135Y0093747D02*
X0158749Y0093747D01*
X0158749Y0092749D02*
X0151135Y0092749D01*
X0151135Y0091750D02*
X0158749Y0091750D01*
X0158749Y0090752D02*
X0151135Y0090752D01*
X0151135Y0089753D02*
X0158749Y0089753D01*
X0158749Y0088755D02*
X0151135Y0088755D01*
X0151135Y0087756D02*
X0158749Y0087756D01*
X0158749Y0086758D02*
X0151135Y0086758D01*
X0151135Y0085759D02*
X0158749Y0085759D01*
X0158749Y0084761D02*
X0151135Y0084761D01*
X0117339Y0093520D02*
X0117142Y0093520D01*
X0104507Y0098740D02*
X0101493Y0098740D01*
X0117339Y0073835D02*
X0117339Y0062024D01*
X0117339Y0071744D02*
X0117339Y0073503D01*
X0117339Y0073503D01*
X0117339Y0071744D01*
X0117339Y0071780D02*
X0117339Y0071780D01*
X0117339Y0072779D02*
X0117339Y0072779D01*
X0101948Y0068971D02*
X0101948Y0056932D01*
X0101379Y0056932D01*
X0100383Y0055936D01*
X0100383Y0050591D01*
X0101056Y0049917D01*
X0100610Y0049471D01*
X0089800Y0049471D01*
X0088455Y0050815D01*
X0088598Y0050958D01*
X0089272Y0050284D01*
X0094618Y0050284D01*
X0095613Y0051280D01*
X0095613Y0051850D01*
X0095752Y0051850D01*
X0101922Y0058020D01*
X0101922Y0068945D01*
X0101948Y0068971D01*
X0101948Y0068785D02*
X0101922Y0068785D01*
X0101922Y0067786D02*
X0101948Y0067786D01*
X0101922Y0066788D02*
X0101948Y0066788D01*
X0101922Y0065789D02*
X0101948Y0065789D01*
X0101922Y0064791D02*
X0101948Y0064791D01*
X0101922Y0063792D02*
X0101948Y0063792D01*
X0101922Y0062794D02*
X0101948Y0062794D01*
X0101922Y0061795D02*
X0101948Y0061795D01*
X0101922Y0060797D02*
X0101948Y0060797D01*
X0101922Y0059798D02*
X0101948Y0059798D01*
X0101922Y0058800D02*
X0101948Y0058800D01*
X0101948Y0057801D02*
X0101703Y0057801D01*
X0101249Y0056803D02*
X0100705Y0056803D01*
X0100383Y0055804D02*
X0099706Y0055804D01*
X0100383Y0054806D02*
X0098708Y0054806D01*
X0097709Y0053807D02*
X0100383Y0053807D01*
X0100383Y0052809D02*
X0096711Y0052809D01*
X0095613Y0051810D02*
X0100383Y0051810D01*
X0100383Y0050811D02*
X0095145Y0050811D01*
X0091945Y0054150D02*
X0092142Y0054740D01*
X0095015Y0057618D02*
X0094618Y0058015D01*
X0089272Y0058015D01*
X0088598Y0057341D01*
X0088152Y0057788D01*
X0088152Y0058287D01*
X0088598Y0058734D01*
X0089272Y0058060D01*
X0094618Y0058060D01*
X0095613Y0059056D01*
X0095613Y0059625D01*
X0096047Y0059625D01*
X0097322Y0060900D01*
X0097322Y0059925D01*
X0095015Y0057618D01*
X0095198Y0057801D02*
X0094831Y0057801D01*
X0095357Y0058800D02*
X0096197Y0058800D01*
X0096220Y0059798D02*
X0097195Y0059798D01*
X0097219Y0060797D02*
X0097322Y0060797D01*
X0094665Y0065744D02*
X0094644Y0065764D01*
X0094665Y0065784D01*
X0094665Y0065744D01*
X0089245Y0065764D02*
X0088598Y0065117D01*
X0088152Y0065563D01*
X0088152Y0065964D01*
X0088598Y0066411D01*
X0089245Y0065764D01*
X0089220Y0065789D02*
X0088152Y0065789D01*
X0088152Y0057801D02*
X0089058Y0057801D01*
X0088745Y0050811D02*
X0088459Y0050811D01*
X0089458Y0049813D02*
X0100952Y0049813D01*
X0107544Y0049813D02*
X0110204Y0049813D01*
X0110612Y0035834D02*
X0109562Y0035834D01*
X0109688Y0034835D02*
X0136013Y0034835D01*
X0136017Y0035834D02*
X0122884Y0035834D01*
X0123763Y0036832D02*
X0135242Y0036832D01*
X0134330Y0037831D02*
X0123763Y0037831D01*
X0123763Y0038829D02*
X0134330Y0038829D01*
X0136117Y0033837D02*
X0109688Y0033837D01*
X0109292Y0032838D02*
X0136531Y0032838D01*
X0132879Y0030841D02*
X0127178Y0030841D01*
X0125776Y0030841D02*
X0124807Y0030841D01*
X0124807Y0029843D02*
X0125776Y0029843D01*
X0125776Y0028844D02*
X0124807Y0028844D01*
X0124807Y0027846D02*
X0125776Y0027846D01*
X0124807Y0026303D02*
X0120844Y0026303D01*
X0120933Y0025741D01*
X0121150Y0025072D01*
X0121470Y0024445D01*
X0121883Y0023876D01*
X0122380Y0023379D01*
X0122949Y0022966D01*
X0123576Y0022646D01*
X0124245Y0022429D01*
X0124807Y0022340D01*
X0124807Y0026303D01*
X0124807Y0025849D02*
X0125776Y0025849D01*
X0125776Y0024850D02*
X0124807Y0024850D01*
X0124807Y0023852D02*
X0125776Y0023852D01*
X0125776Y0022853D02*
X0124807Y0022853D01*
X0123170Y0022853D02*
X0117959Y0022853D01*
X0118958Y0023852D02*
X0121908Y0023852D01*
X0121263Y0024850D02*
X0119542Y0024850D01*
X0119956Y0025849D02*
X0120916Y0025849D01*
X0128555Y0029843D02*
X0131744Y0029843D01*
X0131090Y0028844D02*
X0129258Y0028844D01*
X0129646Y0027846D02*
X0130677Y0027846D01*
X0117305Y0035834D02*
X0116191Y0035834D01*
X0111744Y0029843D02*
X0108838Y0029843D01*
X0109493Y0028844D02*
X0111090Y0028844D01*
X0110677Y0027846D02*
X0109906Y0027846D01*
X0109960Y0026847D02*
X0110623Y0026847D01*
X0110627Y0025849D02*
X0109956Y0025849D01*
X0109542Y0024850D02*
X0111041Y0024850D01*
X0111625Y0023852D02*
X0108958Y0023852D01*
X0107959Y0022853D02*
X0112623Y0022853D01*
X0100913Y0015864D02*
X0099960Y0015864D01*
X0099548Y0014865D02*
X0101256Y0014865D01*
X0101893Y0013867D02*
X0098973Y0013867D01*
X0097974Y0012868D02*
X0103141Y0012868D01*
X0092608Y0012868D02*
X0087442Y0012868D01*
X0087633Y0012966D02*
X0088202Y0013379D01*
X0088700Y0013876D01*
X0089113Y0014445D01*
X0089432Y0015072D01*
X0089650Y0015741D01*
X0089739Y0016303D01*
X0085776Y0016303D01*
X0085776Y0017272D01*
X0089739Y0017272D01*
X0089650Y0017834D01*
X0089432Y0018503D01*
X0089113Y0019129D01*
X0088700Y0019698D01*
X0088202Y0020196D01*
X0087633Y0020609D01*
X0087007Y0020929D01*
X0086338Y0021146D01*
X0085776Y0021235D01*
X0085776Y0017272D01*
X0084807Y0017272D01*
X0084807Y0021235D01*
X0084245Y0021146D01*
X0083576Y0020929D01*
X0082949Y0020609D01*
X0082380Y0020196D01*
X0081883Y0019698D01*
X0081470Y0019129D01*
X0081150Y0018503D01*
X0080933Y0017834D01*
X0080844Y0017272D01*
X0084807Y0017272D01*
X0084807Y0016303D01*
X0085776Y0016303D01*
X0085776Y0012340D01*
X0086338Y0012429D01*
X0087007Y0012646D01*
X0087633Y0012966D01*
X0088690Y0013867D02*
X0091610Y0013867D01*
X0091034Y0014865D02*
X0089327Y0014865D01*
X0089669Y0015864D02*
X0090623Y0015864D01*
X0090623Y0016862D02*
X0085776Y0016862D01*
X0084807Y0016862D02*
X0079960Y0016862D01*
X0079960Y0017716D02*
X0079249Y0019432D01*
X0077936Y0020745D01*
X0076220Y0021456D01*
X0074363Y0021456D01*
X0072647Y0020745D01*
X0071334Y0019432D01*
X0070623Y0017716D01*
X0070623Y0015859D01*
X0071334Y0014143D01*
X0072647Y0012830D01*
X0074363Y0012119D01*
X0076220Y0012119D01*
X0077936Y0012830D01*
X0079249Y0014143D01*
X0079960Y0015859D01*
X0079960Y0017716D01*
X0079900Y0017861D02*
X0080942Y0017861D01*
X0081332Y0018859D02*
X0079486Y0018859D01*
X0078823Y0019858D02*
X0082042Y0019858D01*
X0083434Y0020856D02*
X0077668Y0020856D01*
X0076220Y0022119D02*
X0077936Y0022830D01*
X0079249Y0024143D01*
X0079960Y0025859D01*
X0079960Y0027716D01*
X0079249Y0029432D01*
X0077936Y0030745D01*
X0076220Y0031456D01*
X0074363Y0031456D01*
X0072647Y0030745D01*
X0071334Y0029432D01*
X0070623Y0027716D01*
X0070623Y0025859D01*
X0071334Y0024143D01*
X0072647Y0022830D01*
X0074363Y0022119D01*
X0076220Y0022119D01*
X0077959Y0022853D02*
X0082623Y0022853D01*
X0082647Y0022830D02*
X0084363Y0022119D01*
X0086220Y0022119D01*
X0087936Y0022830D01*
X0089249Y0024143D01*
X0089960Y0025859D01*
X0089960Y0027716D01*
X0089249Y0029432D01*
X0087936Y0030745D01*
X0086220Y0031456D01*
X0084363Y0031456D01*
X0082647Y0030745D01*
X0081334Y0029432D01*
X0080623Y0027716D01*
X0080623Y0025859D01*
X0081334Y0024143D01*
X0082647Y0022830D01*
X0081625Y0023852D02*
X0078958Y0023852D01*
X0079542Y0024850D02*
X0081041Y0024850D01*
X0080627Y0025849D02*
X0079956Y0025849D01*
X0079960Y0026847D02*
X0080623Y0026847D01*
X0080677Y0027846D02*
X0079906Y0027846D01*
X0079493Y0028844D02*
X0081090Y0028844D01*
X0081744Y0029843D02*
X0078838Y0029843D01*
X0077704Y0030841D02*
X0082879Y0030841D01*
X0087704Y0030841D02*
X0092879Y0030841D01*
X0091744Y0029843D02*
X0088838Y0029843D01*
X0089493Y0028844D02*
X0091090Y0028844D01*
X0090677Y0027846D02*
X0089906Y0027846D01*
X0089960Y0026847D02*
X0090623Y0026847D01*
X0090627Y0025849D02*
X0089956Y0025849D01*
X0089542Y0024850D02*
X0091041Y0024850D01*
X0091625Y0023852D02*
X0088958Y0023852D01*
X0087959Y0022853D02*
X0092623Y0022853D01*
X0092915Y0020856D02*
X0087149Y0020856D01*
X0085776Y0020856D02*
X0084807Y0020856D01*
X0084807Y0019858D02*
X0085776Y0019858D01*
X0085776Y0018859D02*
X0084807Y0018859D01*
X0084807Y0017861D02*
X0085776Y0017861D01*
X0084807Y0016303D02*
X0080844Y0016303D01*
X0080933Y0015741D01*
X0081150Y0015072D01*
X0081470Y0014445D01*
X0081883Y0013876D01*
X0082380Y0013379D01*
X0082949Y0012966D01*
X0083576Y0012646D01*
X0084245Y0012429D01*
X0084807Y0012340D01*
X0084807Y0016303D01*
X0084807Y0015864D02*
X0085776Y0015864D01*
X0085776Y0014865D02*
X0084807Y0014865D01*
X0084807Y0013867D02*
X0085776Y0013867D01*
X0085776Y0012868D02*
X0084807Y0012868D01*
X0083141Y0012868D02*
X0077974Y0012868D01*
X0078973Y0013867D02*
X0081893Y0013867D01*
X0081256Y0014865D02*
X0079548Y0014865D01*
X0079960Y0015864D02*
X0080913Y0015864D01*
X0088541Y0019858D02*
X0091759Y0019858D01*
X0091096Y0018859D02*
X0089251Y0018859D01*
X0089641Y0017861D02*
X0090683Y0017861D01*
X0072915Y0020856D02*
X0067668Y0020856D01*
X0067936Y0020745D02*
X0066220Y0021456D01*
X0064363Y0021456D01*
X0062647Y0020745D01*
X0061334Y0019432D01*
X0060623Y0017716D01*
X0060623Y0015859D01*
X0061334Y0014143D01*
X0062647Y0012830D01*
X0064363Y0012119D01*
X0066220Y0012119D01*
X0067936Y0012830D01*
X0069249Y0014143D01*
X0069960Y0015859D01*
X0069960Y0017716D01*
X0069249Y0019432D01*
X0067936Y0020745D01*
X0068823Y0019858D02*
X0071759Y0019858D01*
X0071096Y0018859D02*
X0069486Y0018859D01*
X0069900Y0017861D02*
X0070683Y0017861D01*
X0070623Y0016862D02*
X0069960Y0016862D01*
X0069960Y0015864D02*
X0070623Y0015864D01*
X0071034Y0014865D02*
X0069548Y0014865D01*
X0068973Y0013867D02*
X0071610Y0013867D01*
X0072608Y0012868D02*
X0067974Y0012868D01*
X0062608Y0012868D02*
X0057974Y0012868D01*
X0058973Y0013867D02*
X0061610Y0013867D01*
X0061034Y0014865D02*
X0059548Y0014865D01*
X0059960Y0015864D02*
X0060623Y0015864D01*
X0060623Y0016862D02*
X0059960Y0016862D01*
X0059900Y0017861D02*
X0060683Y0017861D01*
X0061096Y0018859D02*
X0059486Y0018859D01*
X0058823Y0019858D02*
X0061759Y0019858D01*
X0062915Y0020856D02*
X0057668Y0020856D01*
X0057007Y0022646D02*
X0057633Y0022966D01*
X0058202Y0023379D01*
X0058700Y0023876D01*
X0059113Y0024445D01*
X0059432Y0025072D01*
X0059650Y0025741D01*
X0059739Y0026303D01*
X0055776Y0026303D01*
X0055776Y0022340D01*
X0056338Y0022429D01*
X0057007Y0022646D01*
X0057413Y0022853D02*
X0062623Y0022853D01*
X0062647Y0022830D02*
X0064363Y0022119D01*
X0066220Y0022119D01*
X0067936Y0022830D01*
X0069249Y0024143D01*
X0069960Y0025859D01*
X0069960Y0027716D01*
X0069249Y0029432D01*
X0067936Y0030745D01*
X0066220Y0031456D01*
X0064363Y0031456D01*
X0062647Y0030745D01*
X0061334Y0029432D01*
X0060623Y0027716D01*
X0060623Y0025859D01*
X0061334Y0024143D01*
X0062647Y0022830D01*
X0061625Y0023852D02*
X0058675Y0023852D01*
X0059319Y0024850D02*
X0061041Y0024850D01*
X0060627Y0025849D02*
X0059667Y0025849D01*
X0060623Y0026847D02*
X0055776Y0026847D01*
X0055776Y0025849D02*
X0054807Y0025849D01*
X0054807Y0024850D02*
X0055776Y0024850D01*
X0055776Y0023852D02*
X0054807Y0023852D01*
X0054807Y0022853D02*
X0055776Y0022853D01*
X0059646Y0027846D02*
X0060677Y0027846D01*
X0061090Y0028844D02*
X0059258Y0028844D01*
X0058555Y0029843D02*
X0061744Y0029843D01*
X0062879Y0030841D02*
X0057178Y0030841D01*
X0067704Y0030841D02*
X0072879Y0030841D01*
X0071744Y0029843D02*
X0068838Y0029843D01*
X0069493Y0028844D02*
X0071090Y0028844D01*
X0070677Y0027846D02*
X0069906Y0027846D01*
X0069960Y0026847D02*
X0070623Y0026847D01*
X0070627Y0025849D02*
X0069956Y0025849D01*
X0069542Y0024850D02*
X0071041Y0024850D01*
X0071625Y0023852D02*
X0068958Y0023852D01*
X0067959Y0022853D02*
X0072623Y0022853D01*
X0057518Y0072779D02*
X0038644Y0072779D01*
X0038644Y0073777D02*
X0058517Y0073777D01*
X0058936Y0074776D02*
X0038644Y0074776D01*
X0058677Y0075774D02*
X0058677Y0075774D01*
X0058677Y0076773D02*
X0058677Y0076773D01*
X0058677Y0077771D02*
X0058677Y0077771D01*
X0058677Y0078770D02*
X0058677Y0078770D01*
X0058677Y0078981D02*
X0058677Y0082431D01*
X0058677Y0078981D01*
X0058677Y0078981D01*
X0058677Y0079768D02*
X0058677Y0079768D01*
X0058677Y0080767D02*
X0058677Y0080767D01*
X0058677Y0081765D02*
X0058677Y0081765D01*
X0100673Y0134686D02*
X0109536Y0134686D01*
X0109536Y0135685D02*
X0101044Y0135685D01*
X0102067Y0136683D02*
X0109536Y0136683D01*
X0109536Y0137682D02*
X0103100Y0137682D01*
X0104138Y0138680D02*
X0109536Y0138680D01*
X0109536Y0139679D02*
X0104973Y0139679D01*
X0104977Y0140678D02*
X0109536Y0140678D01*
X0109536Y0141676D02*
X0104973Y0141676D01*
X0104982Y0142675D02*
X0109562Y0142675D01*
X0109536Y0143673D02*
X0105981Y0143673D01*
X0102140Y0146338D02*
X0101721Y0145918D01*
X0100731Y0144929D01*
X0100731Y0146002D01*
X0101067Y0146338D01*
X0102140Y0146338D01*
X0101473Y0145670D02*
X0100731Y0145670D01*
X0100373Y0141676D02*
X0077765Y0141676D01*
X0082758Y0146669D02*
X0086902Y0146669D01*
X0086902Y0147667D02*
X0083756Y0147667D01*
X0084755Y0148666D02*
X0086708Y0148666D01*
X0086295Y0149664D02*
X0085754Y0149664D01*
X0093552Y0140678D02*
X0093588Y0140678D01*
X0129366Y0154657D02*
X0158749Y0154657D01*
X0158749Y0155655D02*
X0130365Y0155655D01*
X0131461Y0156654D02*
X0158749Y0156654D01*
X0158749Y0157652D02*
X0132460Y0157652D01*
X0133459Y0158651D02*
X0158749Y0158651D01*
X0158749Y0159649D02*
X0134370Y0159649D01*
X0135369Y0160648D02*
X0158749Y0160648D01*
X0158749Y0161646D02*
X0136367Y0161646D01*
X0137366Y0162645D02*
X0158749Y0162645D01*
X0158749Y0163643D02*
X0138364Y0163643D01*
X0139363Y0164642D02*
X0158749Y0164642D01*
X0158749Y0165640D02*
X0140361Y0165640D01*
X0141360Y0166639D02*
X0158749Y0166639D01*
X0158749Y0167637D02*
X0142358Y0167637D01*
X0143357Y0168636D02*
X0158749Y0168636D01*
X0158749Y0169634D02*
X0144355Y0169634D01*
X0145354Y0170633D02*
X0158749Y0170633D01*
X0158749Y0171631D02*
X0146352Y0171631D01*
X0147351Y0172630D02*
X0158749Y0172630D01*
X0158749Y0173628D02*
X0148349Y0173628D01*
X0149348Y0174627D02*
X0158749Y0174627D01*
X0159245Y0175625D02*
X0150346Y0175625D01*
X0151345Y0176624D02*
X0208324Y0176624D01*
X0208324Y0177622D02*
X0152343Y0177622D01*
X0153342Y0178621D02*
X0191435Y0178621D01*
X0191335Y0178721D02*
X0191614Y0178441D01*
X0191956Y0178244D01*
X0192338Y0178142D01*
X0193823Y0178142D01*
X0193823Y0180929D01*
X0191035Y0180929D01*
X0191035Y0179444D01*
X0191138Y0179063D01*
X0191335Y0178721D01*
X0191035Y0179619D02*
X0154340Y0179619D01*
X0155339Y0180618D02*
X0191035Y0180618D01*
X0191035Y0181616D02*
X0156337Y0181616D01*
X0150660Y0186609D02*
X0149742Y0186609D01*
X0149866Y0185611D02*
X0026322Y0185611D01*
X0026322Y0186609D02*
X0145172Y0186609D01*
X0141839Y0187608D02*
X0141264Y0187608D01*
X0141264Y0188606D02*
X0141839Y0188606D01*
X0141264Y0189605D02*
X0026322Y0189605D01*
X0026322Y0190603D02*
X0138476Y0190603D01*
X0138476Y0190165D02*
X0138476Y0191650D01*
X0138579Y0192032D01*
X0138776Y0192374D01*
X0139055Y0192653D01*
X0139397Y0192851D01*
X0139779Y0192953D01*
X0141264Y0192953D01*
X0141264Y0190165D01*
X0138476Y0190165D01*
X0138476Y0191602D02*
X0026322Y0191602D01*
X0026322Y0192600D02*
X0139002Y0192600D01*
X0141264Y0192600D02*
X0141839Y0192600D01*
X0141839Y0191602D02*
X0141264Y0191602D01*
X0141264Y0190603D02*
X0141839Y0190603D01*
X0144100Y0192600D02*
X0144625Y0192600D01*
X0138476Y0188606D02*
X0026322Y0188606D01*
X0026322Y0187608D02*
X0138646Y0187608D01*
X0135934Y0184612D02*
X0148868Y0184612D01*
X0147869Y0183613D02*
X0136558Y0183613D01*
X0136558Y0182615D02*
X0146871Y0182615D01*
X0145872Y0181616D02*
X0136558Y0181616D01*
X0136558Y0180618D02*
X0144874Y0180618D01*
X0143875Y0179619D02*
X0136558Y0179619D01*
X0136558Y0178621D02*
X0142877Y0178621D01*
X0141878Y0177622D02*
X0136558Y0177622D01*
X0136558Y0176624D02*
X0140880Y0176624D01*
X0139881Y0175625D02*
X0136558Y0175625D01*
X0136558Y0174627D02*
X0138883Y0174627D01*
X0137884Y0173628D02*
X0136558Y0173628D01*
X0136885Y0172630D02*
X0136058Y0172630D01*
X0152498Y0192600D02*
X0167584Y0192600D01*
X0168265Y0193599D02*
X0026322Y0193599D01*
X0026322Y0194597D02*
X0154475Y0194597D01*
X0154517Y0194556D02*
X0153521Y0195552D01*
X0153521Y0211960D01*
X0154517Y0212956D01*
X0163825Y0212956D01*
X0164821Y0211960D01*
X0164821Y0195552D01*
X0163825Y0194556D01*
X0154517Y0194556D01*
X0153521Y0195596D02*
X0026322Y0195596D01*
X0026322Y0196594D02*
X0153521Y0196594D01*
X0153521Y0197593D02*
X0026322Y0197593D01*
X0026322Y0198591D02*
X0153521Y0198591D01*
X0153521Y0199590D02*
X0026322Y0199590D01*
X0026322Y0200588D02*
X0153521Y0200588D01*
X0153521Y0201587D02*
X0026322Y0201587D01*
X0026322Y0202585D02*
X0153521Y0202585D01*
X0153521Y0203584D02*
X0026322Y0203584D01*
X0026322Y0204582D02*
X0153521Y0204582D01*
X0153521Y0205581D02*
X0026322Y0205581D01*
X0026322Y0206579D02*
X0153521Y0206579D01*
X0153521Y0207578D02*
X0026322Y0207578D01*
X0026322Y0208576D02*
X0153521Y0208576D01*
X0153521Y0209575D02*
X0026322Y0209575D01*
X0026322Y0210573D02*
X0153521Y0210573D01*
X0153521Y0211572D02*
X0026322Y0211572D01*
X0026322Y0212570D02*
X0154131Y0212570D01*
X0164211Y0212570D02*
X0183471Y0212570D01*
X0183471Y0211572D02*
X0184471Y0211572D01*
X0184471Y0212570D02*
X0276859Y0212570D01*
X0276859Y0211572D02*
X0189421Y0211572D01*
X0189421Y0210573D02*
X0276859Y0210573D01*
X0276859Y0209575D02*
X0189421Y0209575D01*
X0188913Y0208576D02*
X0276859Y0208576D01*
X0276859Y0207578D02*
X0189353Y0207578D01*
X0184471Y0208576D02*
X0183471Y0208576D01*
X0183471Y0209575D02*
X0184471Y0209575D01*
X0184471Y0210573D02*
X0183471Y0210573D01*
X0183471Y0213569D02*
X0184471Y0213569D01*
X0184471Y0214567D02*
X0183471Y0214567D01*
X0183471Y0215566D02*
X0184471Y0215566D01*
X0184471Y0216564D02*
X0183471Y0216564D01*
X0178858Y0216564D02*
X0026322Y0216564D01*
X0026322Y0215566D02*
X0178521Y0215566D01*
X0178521Y0214567D02*
X0026322Y0214567D01*
X0026322Y0213569D02*
X0178521Y0213569D01*
X0178521Y0211572D02*
X0164821Y0211572D01*
X0164821Y0210573D02*
X0178521Y0210573D01*
X0178521Y0209575D02*
X0164821Y0209575D01*
X0164821Y0208576D02*
X0179029Y0208576D01*
X0178589Y0207578D02*
X0164821Y0207578D01*
X0164821Y0206579D02*
X0173886Y0206579D01*
X0173059Y0205752D02*
X0173059Y0205752D01*
X0172888Y0205581D02*
X0164821Y0205581D01*
X0164821Y0204582D02*
X0171889Y0204582D01*
X0170891Y0203584D02*
X0164821Y0203584D01*
X0164821Y0202585D02*
X0169892Y0202585D01*
X0168893Y0201587D02*
X0164821Y0201587D01*
X0164821Y0200588D02*
X0168441Y0200588D01*
X0168265Y0199590D02*
X0164821Y0199590D01*
X0164821Y0198591D02*
X0168265Y0198591D01*
X0168265Y0197593D02*
X0164821Y0197593D01*
X0164821Y0196594D02*
X0168265Y0196594D01*
X0168265Y0195596D02*
X0164821Y0195596D01*
X0163866Y0194597D02*
X0168265Y0194597D01*
X0166586Y0191602D02*
X0153870Y0191602D01*
X0154868Y0190603D02*
X0165587Y0190603D01*
X0172058Y0186609D02*
X0190835Y0186609D01*
X0190835Y0185611D02*
X0171060Y0185611D01*
X0170061Y0184612D02*
X0191066Y0184612D01*
X0191278Y0183613D02*
X0169063Y0183613D01*
X0169294Y0183845D02*
X0169294Y0183845D01*
X0167796Y0182615D02*
X0191035Y0182615D01*
X0193823Y0180618D02*
X0194398Y0180618D01*
X0194398Y0180929D02*
X0194398Y0178142D01*
X0195883Y0178142D01*
X0196264Y0178244D01*
X0196606Y0178441D01*
X0196885Y0178721D01*
X0197083Y0179063D01*
X0197185Y0179444D01*
X0197185Y0180929D01*
X0194398Y0180929D01*
X0194398Y0179619D02*
X0193823Y0179619D01*
X0193823Y0178621D02*
X0194398Y0178621D01*
X0196786Y0178621D02*
X0208324Y0178621D01*
X0208324Y0179619D02*
X0197185Y0179619D01*
X0197185Y0180618D02*
X0208324Y0180618D01*
X0208324Y0181616D02*
X0197185Y0181616D01*
X0197185Y0182615D02*
X0207656Y0182615D01*
X0206658Y0183613D02*
X0196942Y0183613D01*
X0197154Y0184612D02*
X0205659Y0184612D01*
X0204661Y0185611D02*
X0197385Y0185611D01*
X0197385Y0186609D02*
X0203662Y0186609D01*
X0202664Y0187608D02*
X0197385Y0187608D01*
X0197385Y0188606D02*
X0201665Y0188606D01*
X0200667Y0189605D02*
X0197181Y0189605D01*
X0197010Y0190603D02*
X0199668Y0190603D01*
X0205141Y0195596D02*
X0276859Y0195596D01*
X0276859Y0196594D02*
X0204142Y0196594D01*
X0203144Y0197593D02*
X0276859Y0197593D01*
X0276859Y0198591D02*
X0189340Y0198591D01*
X0189209Y0199590D02*
X0276859Y0199590D01*
X0276859Y0200588D02*
X0197284Y0200588D01*
X0200516Y0201587D02*
X0201091Y0201587D01*
X0201091Y0200681D02*
X0202575Y0200681D01*
X0202957Y0200783D01*
X0203299Y0200981D01*
X0203578Y0201260D01*
X0203776Y0201602D01*
X0203878Y0201984D01*
X0203878Y0203468D01*
X0201091Y0203468D01*
X0201091Y0200681D01*
X0201091Y0202585D02*
X0200516Y0202585D01*
X0201091Y0203584D02*
X0276859Y0203584D01*
X0276859Y0204582D02*
X0203878Y0204582D01*
X0203864Y0205581D02*
X0276859Y0205581D01*
X0276859Y0206579D02*
X0203215Y0206579D01*
X0201091Y0206579D02*
X0200516Y0206579D01*
X0200516Y0205581D02*
X0201091Y0205581D01*
X0201091Y0204582D02*
X0200516Y0204582D01*
X0198391Y0206579D02*
X0197628Y0206579D01*
X0203878Y0202585D02*
X0276859Y0202585D01*
X0276859Y0201587D02*
X0203767Y0201587D01*
X0206139Y0194597D02*
X0276859Y0194597D01*
X0276859Y0193599D02*
X0207138Y0193599D01*
X0208136Y0192600D02*
X0276859Y0192600D01*
X0276859Y0191602D02*
X0209135Y0191602D01*
X0210133Y0190603D02*
X0276859Y0190603D01*
X0276859Y0189605D02*
X0211132Y0189605D01*
X0212130Y0188606D02*
X0276859Y0188606D01*
X0276859Y0187608D02*
X0213129Y0187608D01*
X0214127Y0186609D02*
X0276859Y0186609D01*
X0276859Y0185611D02*
X0215126Y0185611D01*
X0215560Y0184612D02*
X0276859Y0184612D01*
X0276859Y0183613D02*
X0215724Y0183613D01*
X0215724Y0182615D02*
X0276859Y0182615D01*
X0276859Y0181616D02*
X0215724Y0181616D01*
X0215724Y0180618D02*
X0276859Y0180618D01*
X0276859Y0179619D02*
X0215724Y0179619D01*
X0215724Y0178621D02*
X0276859Y0178621D01*
X0276859Y0177622D02*
X0215724Y0177622D01*
X0215724Y0176624D02*
X0276859Y0176624D01*
X0276859Y0175625D02*
X0215941Y0175625D01*
X0216283Y0174627D02*
X0276859Y0174627D01*
X0276859Y0173628D02*
X0216283Y0173628D01*
X0216102Y0172630D02*
X0276859Y0172630D01*
X0276859Y0171631D02*
X0215724Y0171631D01*
X0215724Y0170633D02*
X0276859Y0170633D01*
X0276859Y0169634D02*
X0215724Y0169634D01*
X0215724Y0168636D02*
X0276859Y0168636D01*
X0276859Y0167637D02*
X0216046Y0167637D01*
X0216381Y0166639D02*
X0276859Y0166639D01*
X0276859Y0165640D02*
X0216381Y0165640D01*
X0216194Y0164642D02*
X0276859Y0164642D01*
X0276859Y0163643D02*
X0215780Y0163643D01*
X0214870Y0162645D02*
X0276859Y0162645D01*
X0276859Y0161646D02*
X0212994Y0161646D01*
X0211053Y0161646D02*
X0189708Y0161646D01*
X0189708Y0160648D02*
X0276859Y0160648D01*
X0276859Y0159649D02*
X0189708Y0159649D01*
X0189708Y0158651D02*
X0276859Y0158651D01*
X0276859Y0157652D02*
X0189708Y0157652D01*
X0189708Y0156654D02*
X0276859Y0156654D01*
X0276859Y0155655D02*
X0189708Y0155655D01*
X0189708Y0154657D02*
X0276859Y0154657D01*
X0276859Y0153658D02*
X0189708Y0153658D01*
X0189708Y0152660D02*
X0276859Y0152660D01*
X0276859Y0151661D02*
X0189708Y0151661D01*
X0189708Y0150663D02*
X0276859Y0150663D01*
X0276859Y0149664D02*
X0189708Y0149664D01*
X0189708Y0148666D02*
X0276859Y0148666D01*
X0276859Y0147667D02*
X0189708Y0147667D01*
X0189708Y0146669D02*
X0276859Y0146669D01*
X0276859Y0145670D02*
X0189708Y0145670D01*
X0189708Y0144672D02*
X0276859Y0144672D01*
X0276859Y0143673D02*
X0189708Y0143673D01*
X0189708Y0142675D02*
X0276859Y0142675D01*
X0276859Y0141676D02*
X0189708Y0141676D01*
X0189708Y0140678D02*
X0276859Y0140678D01*
X0276859Y0139679D02*
X0189708Y0139679D01*
X0189708Y0138680D02*
X0276859Y0138680D01*
X0276859Y0137682D02*
X0189708Y0137682D01*
X0189708Y0136683D02*
X0276859Y0136683D01*
X0276859Y0135685D02*
X0189708Y0135685D01*
X0189708Y0134686D02*
X0276859Y0134686D01*
X0276859Y0133688D02*
X0189708Y0133688D01*
X0189708Y0132689D02*
X0276859Y0132689D01*
X0276859Y0131691D02*
X0189708Y0131691D01*
X0189708Y0130692D02*
X0276859Y0130692D01*
X0276859Y0129694D02*
X0189708Y0129694D01*
X0189708Y0128695D02*
X0276859Y0128695D01*
X0276859Y0127697D02*
X0189708Y0127697D01*
X0189708Y0126698D02*
X0276859Y0126698D01*
X0276859Y0125700D02*
X0189708Y0125700D01*
X0189708Y0124701D02*
X0276859Y0124701D01*
X0276859Y0123703D02*
X0189708Y0123703D01*
X0189708Y0122704D02*
X0276859Y0122704D01*
X0276859Y0121706D02*
X0189708Y0121706D01*
X0189708Y0120707D02*
X0276859Y0120707D01*
X0276859Y0119709D02*
X0189708Y0119709D01*
X0189708Y0118710D02*
X0276859Y0118710D01*
X0276859Y0117712D02*
X0189708Y0117712D01*
X0189708Y0116713D02*
X0276859Y0116713D01*
X0276859Y0115715D02*
X0189708Y0115715D01*
X0189708Y0114716D02*
X0276859Y0114716D01*
X0276859Y0113718D02*
X0189708Y0113718D01*
X0189708Y0112719D02*
X0276859Y0112719D01*
X0276859Y0111721D02*
X0189708Y0111721D01*
X0189708Y0110722D02*
X0276859Y0110722D01*
X0276859Y0109724D02*
X0189708Y0109724D01*
X0189708Y0108725D02*
X0276859Y0108725D01*
X0276859Y0107727D02*
X0189708Y0107727D01*
X0189708Y0106728D02*
X0276859Y0106728D01*
X0276859Y0105730D02*
X0189708Y0105730D01*
X0189708Y0104731D02*
X0276859Y0104731D01*
X0276859Y0103733D02*
X0189708Y0103733D01*
X0189708Y0102734D02*
X0276859Y0102734D01*
X0276859Y0101736D02*
X0189708Y0101736D01*
X0189708Y0100737D02*
X0276859Y0100737D01*
X0276859Y0099739D02*
X0189708Y0099739D01*
X0189708Y0098740D02*
X0276859Y0098740D01*
X0276859Y0097742D02*
X0189708Y0097742D01*
X0189708Y0096743D02*
X0276859Y0096743D01*
X0276859Y0095745D02*
X0189708Y0095745D01*
X0189708Y0094746D02*
X0276859Y0094746D01*
X0276859Y0093747D02*
X0189708Y0093747D01*
X0189708Y0092749D02*
X0276859Y0092749D01*
X0276859Y0091750D02*
X0189708Y0091750D01*
X0189708Y0090752D02*
X0276859Y0090752D01*
X0276859Y0089753D02*
X0189708Y0089753D01*
X0189708Y0088755D02*
X0276859Y0088755D01*
X0276859Y0087756D02*
X0189708Y0087756D01*
X0189708Y0086758D02*
X0276859Y0086758D01*
X0276859Y0085759D02*
X0189708Y0085759D01*
X0189708Y0084761D02*
X0276859Y0084761D01*
X0276859Y0083762D02*
X0189708Y0083762D01*
X0189708Y0082764D02*
X0276859Y0082764D01*
X0276859Y0081765D02*
X0189708Y0081765D01*
X0189708Y0080767D02*
X0276859Y0080767D01*
X0276859Y0079768D02*
X0189708Y0079768D01*
X0189708Y0078770D02*
X0276859Y0078770D01*
X0276859Y0077771D02*
X0189708Y0077771D01*
X0189708Y0076773D02*
X0276859Y0076773D01*
X0276859Y0075774D02*
X0189708Y0075774D01*
X0189708Y0074776D02*
X0276859Y0074776D01*
X0276859Y0073777D02*
X0189708Y0073777D01*
X0189708Y0072779D02*
X0276859Y0072779D01*
X0276859Y0071780D02*
X0189708Y0071780D01*
X0189708Y0070782D02*
X0276859Y0070782D01*
X0276859Y0069783D02*
X0189708Y0069783D01*
X0189708Y0068785D02*
X0276859Y0068785D01*
X0276859Y0067786D02*
X0189708Y0067786D01*
X0189271Y0066788D02*
X0276859Y0066788D01*
X0237936Y0030745D02*
X0236220Y0031456D01*
X0234363Y0031456D01*
X0232647Y0030745D01*
X0231334Y0029432D01*
X0230623Y0027716D01*
X0230623Y0025859D01*
X0231334Y0024143D01*
X0232647Y0022830D01*
X0234363Y0022119D01*
X0236220Y0022119D01*
X0237936Y0022830D01*
X0239249Y0024143D01*
X0239960Y0025859D01*
X0239960Y0027716D01*
X0239249Y0029432D01*
X0237936Y0030745D01*
X0237704Y0030841D02*
X0242879Y0030841D01*
X0241744Y0029843D02*
X0238838Y0029843D01*
X0239493Y0028844D02*
X0241090Y0028844D01*
X0240677Y0027846D02*
X0239906Y0027846D01*
X0239960Y0026847D02*
X0240623Y0026847D01*
X0240627Y0025849D02*
X0239956Y0025849D01*
X0239542Y0024850D02*
X0241041Y0024850D01*
X0241625Y0023852D02*
X0238958Y0023852D01*
X0237959Y0022853D02*
X0242623Y0022853D01*
X0242915Y0020856D02*
X0237668Y0020856D01*
X0237936Y0020745D02*
X0236220Y0021456D01*
X0234363Y0021456D01*
X0232647Y0020745D01*
X0231334Y0019432D01*
X0230623Y0017716D01*
X0230623Y0015859D01*
X0231334Y0014143D01*
X0232647Y0012830D01*
X0234363Y0012119D01*
X0236220Y0012119D01*
X0237936Y0012830D01*
X0239249Y0014143D01*
X0239960Y0015859D01*
X0239960Y0017716D01*
X0239249Y0019432D01*
X0237936Y0020745D01*
X0238823Y0019858D02*
X0241759Y0019858D01*
X0241096Y0018859D02*
X0239486Y0018859D01*
X0239900Y0017861D02*
X0240683Y0017861D01*
X0240623Y0016862D02*
X0239960Y0016862D01*
X0239960Y0015864D02*
X0240623Y0015864D01*
X0241034Y0014865D02*
X0239548Y0014865D01*
X0238973Y0013867D02*
X0241610Y0013867D01*
X0242608Y0012868D02*
X0237974Y0012868D01*
X0232608Y0012868D02*
X0227442Y0012868D01*
X0227633Y0012966D02*
X0228202Y0013379D01*
X0228700Y0013876D01*
X0229113Y0014445D01*
X0229432Y0015072D01*
X0229650Y0015741D01*
X0229739Y0016303D01*
X0225776Y0016303D01*
X0225776Y0017272D01*
X0229739Y0017272D01*
X0229650Y0017834D01*
X0229432Y0018503D01*
X0229113Y0019129D01*
X0228700Y0019698D01*
X0228202Y0020196D01*
X0227633Y0020609D01*
X0227007Y0020929D01*
X0226338Y0021146D01*
X0225776Y0021235D01*
X0225776Y0017272D01*
X0224807Y0017272D01*
X0224807Y0021235D01*
X0224245Y0021146D01*
X0223576Y0020929D01*
X0222949Y0020609D01*
X0222380Y0020196D01*
X0221883Y0019698D01*
X0221470Y0019129D01*
X0221150Y0018503D01*
X0220933Y0017834D01*
X0220844Y0017272D01*
X0224807Y0017272D01*
X0224807Y0016303D01*
X0225776Y0016303D01*
X0225776Y0012340D01*
X0226338Y0012429D01*
X0227007Y0012646D01*
X0227633Y0012966D01*
X0228690Y0013867D02*
X0231610Y0013867D01*
X0231034Y0014865D02*
X0229327Y0014865D01*
X0229669Y0015864D02*
X0230623Y0015864D01*
X0230623Y0016862D02*
X0225776Y0016862D01*
X0224807Y0016862D02*
X0219960Y0016862D01*
X0219960Y0017716D02*
X0219249Y0019432D01*
X0217936Y0020745D01*
X0216220Y0021456D01*
X0214363Y0021456D01*
X0212647Y0020745D01*
X0211334Y0019432D01*
X0210623Y0017716D01*
X0210623Y0015859D01*
X0211334Y0014143D01*
X0212647Y0012830D01*
X0214363Y0012119D01*
X0216220Y0012119D01*
X0217936Y0012830D01*
X0219249Y0014143D01*
X0219960Y0015859D01*
X0219960Y0017716D01*
X0219900Y0017861D02*
X0220942Y0017861D01*
X0221332Y0018859D02*
X0219486Y0018859D01*
X0218823Y0019858D02*
X0222042Y0019858D01*
X0223434Y0020856D02*
X0217668Y0020856D01*
X0216220Y0022119D02*
X0214363Y0022119D01*
X0212647Y0022830D01*
X0211334Y0024143D01*
X0210623Y0025859D01*
X0210623Y0027716D01*
X0211334Y0029432D01*
X0212647Y0030745D01*
X0214363Y0031456D01*
X0216220Y0031456D01*
X0217936Y0030745D01*
X0219249Y0029432D01*
X0219960Y0027716D01*
X0219960Y0025859D01*
X0219249Y0024143D01*
X0217936Y0022830D01*
X0216220Y0022119D01*
X0217959Y0022853D02*
X0222623Y0022853D01*
X0222647Y0022830D02*
X0224363Y0022119D01*
X0226220Y0022119D01*
X0227936Y0022830D01*
X0229249Y0024143D01*
X0229960Y0025859D01*
X0229960Y0027716D01*
X0229249Y0029432D01*
X0227936Y0030745D01*
X0226220Y0031456D01*
X0224363Y0031456D01*
X0222647Y0030745D01*
X0221334Y0029432D01*
X0220623Y0027716D01*
X0220623Y0025859D01*
X0221334Y0024143D01*
X0222647Y0022830D01*
X0221625Y0023852D02*
X0218958Y0023852D01*
X0219542Y0024850D02*
X0221041Y0024850D01*
X0220627Y0025849D02*
X0219956Y0025849D01*
X0219960Y0026847D02*
X0220623Y0026847D01*
X0220677Y0027846D02*
X0219906Y0027846D01*
X0219493Y0028844D02*
X0221090Y0028844D01*
X0221744Y0029843D02*
X0218838Y0029843D01*
X0217704Y0030841D02*
X0222879Y0030841D01*
X0225213Y0026866D02*
X0225291Y0026787D01*
X0229542Y0024850D02*
X0231041Y0024850D01*
X0230627Y0025849D02*
X0229956Y0025849D01*
X0229960Y0026847D02*
X0230623Y0026847D01*
X0230677Y0027846D02*
X0229906Y0027846D01*
X0229493Y0028844D02*
X0231090Y0028844D01*
X0231744Y0029843D02*
X0228838Y0029843D01*
X0227704Y0030841D02*
X0232879Y0030841D01*
X0231625Y0023852D02*
X0228958Y0023852D01*
X0227959Y0022853D02*
X0232623Y0022853D01*
X0232915Y0020856D02*
X0227149Y0020856D01*
X0225776Y0020856D02*
X0224807Y0020856D01*
X0224807Y0019858D02*
X0225776Y0019858D01*
X0225776Y0018859D02*
X0224807Y0018859D01*
X0224807Y0017861D02*
X0225776Y0017861D01*
X0224807Y0016303D02*
X0220844Y0016303D01*
X0220933Y0015741D01*
X0221150Y0015072D01*
X0221470Y0014445D01*
X0221883Y0013876D01*
X0222380Y0013379D01*
X0222949Y0012966D01*
X0223576Y0012646D01*
X0224245Y0012429D01*
X0224807Y0012340D01*
X0224807Y0016303D01*
X0224807Y0015864D02*
X0225776Y0015864D01*
X0225776Y0014865D02*
X0224807Y0014865D01*
X0224807Y0013867D02*
X0225776Y0013867D01*
X0225776Y0012868D02*
X0224807Y0012868D01*
X0223141Y0012868D02*
X0217974Y0012868D01*
X0218973Y0013867D02*
X0221893Y0013867D01*
X0221256Y0014865D02*
X0219548Y0014865D01*
X0219960Y0015864D02*
X0220913Y0015864D01*
X0212915Y0020856D02*
X0207668Y0020856D01*
X0207936Y0020745D02*
X0206220Y0021456D01*
X0204363Y0021456D01*
X0202647Y0020745D01*
X0201334Y0019432D01*
X0200623Y0017716D01*
X0200623Y0015859D01*
X0201334Y0014143D01*
X0202647Y0012830D01*
X0204363Y0012119D01*
X0206220Y0012119D01*
X0207936Y0012830D01*
X0209249Y0014143D01*
X0209960Y0015859D01*
X0209960Y0017716D01*
X0209249Y0019432D01*
X0207936Y0020745D01*
X0208823Y0019858D02*
X0211759Y0019858D01*
X0211096Y0018859D02*
X0209486Y0018859D01*
X0209900Y0017861D02*
X0210683Y0017861D01*
X0210623Y0016862D02*
X0209960Y0016862D01*
X0209960Y0015864D02*
X0210623Y0015864D01*
X0211034Y0014865D02*
X0209548Y0014865D01*
X0208973Y0013867D02*
X0211610Y0013867D01*
X0212608Y0012868D02*
X0207974Y0012868D01*
X0202608Y0012868D02*
X0197974Y0012868D01*
X0197936Y0012830D02*
X0199249Y0014143D01*
X0199960Y0015859D01*
X0199960Y0017716D01*
X0199249Y0019432D01*
X0197936Y0020745D01*
X0196220Y0021456D01*
X0194363Y0021456D01*
X0192647Y0020745D01*
X0191334Y0019432D01*
X0190623Y0017716D01*
X0190623Y0015859D01*
X0191334Y0014143D01*
X0192647Y0012830D01*
X0194363Y0012119D01*
X0196220Y0012119D01*
X0197936Y0012830D01*
X0198973Y0013867D02*
X0201610Y0013867D01*
X0201034Y0014865D02*
X0199548Y0014865D01*
X0199960Y0015864D02*
X0200623Y0015864D01*
X0200623Y0016862D02*
X0199960Y0016862D01*
X0199900Y0017861D02*
X0200683Y0017861D01*
X0201096Y0018859D02*
X0199486Y0018859D01*
X0198823Y0019858D02*
X0201759Y0019858D01*
X0202915Y0020856D02*
X0197668Y0020856D01*
X0196220Y0022119D02*
X0194363Y0022119D01*
X0192647Y0022830D01*
X0191334Y0024143D01*
X0190623Y0025859D01*
X0190623Y0027716D01*
X0191334Y0029432D01*
X0192647Y0030745D01*
X0194363Y0031456D01*
X0196220Y0031456D01*
X0197936Y0030745D01*
X0199249Y0029432D01*
X0199960Y0027716D01*
X0199960Y0025859D01*
X0199249Y0024143D01*
X0197936Y0022830D01*
X0196220Y0022119D01*
X0197959Y0022853D02*
X0203170Y0022853D01*
X0202949Y0022966D02*
X0203576Y0022646D01*
X0204245Y0022429D01*
X0204807Y0022340D01*
X0204807Y0026303D01*
X0205776Y0026303D01*
X0205776Y0027272D01*
X0209739Y0027272D01*
X0209650Y0027834D01*
X0209432Y0028503D01*
X0209113Y0029129D01*
X0208700Y0029698D01*
X0208202Y0030196D01*
X0207633Y0030609D01*
X0207007Y0030929D01*
X0206338Y0031146D01*
X0205776Y0031235D01*
X0205776Y0027272D01*
X0204807Y0027272D01*
X0204807Y0031235D01*
X0204245Y0031146D01*
X0203576Y0030929D01*
X0202949Y0030609D01*
X0202380Y0030196D01*
X0201883Y0029698D01*
X0201470Y0029129D01*
X0201150Y0028503D01*
X0200933Y0027834D01*
X0200844Y0027272D01*
X0204807Y0027272D01*
X0204807Y0026303D01*
X0200844Y0026303D01*
X0200933Y0025741D01*
X0201150Y0025072D01*
X0201470Y0024445D01*
X0201883Y0023876D01*
X0202380Y0023379D01*
X0202949Y0022966D01*
X0201908Y0023852D02*
X0198958Y0023852D01*
X0199542Y0024850D02*
X0201263Y0024850D01*
X0200916Y0025849D02*
X0199956Y0025849D01*
X0199960Y0026847D02*
X0204807Y0026847D01*
X0205776Y0026847D02*
X0210623Y0026847D01*
X0210627Y0025849D02*
X0209667Y0025849D01*
X0209650Y0025741D02*
X0209739Y0026303D01*
X0205776Y0026303D01*
X0205776Y0022340D01*
X0206338Y0022429D01*
X0207007Y0022646D01*
X0207633Y0022966D01*
X0208202Y0023379D01*
X0208700Y0023876D01*
X0209113Y0024445D01*
X0209432Y0025072D01*
X0209650Y0025741D01*
X0209319Y0024850D02*
X0211041Y0024850D01*
X0211625Y0023852D02*
X0208675Y0023852D01*
X0207413Y0022853D02*
X0212623Y0022853D01*
X0210677Y0027846D02*
X0209646Y0027846D01*
X0209258Y0028844D02*
X0211090Y0028844D01*
X0211744Y0029843D02*
X0208555Y0029843D01*
X0207178Y0030841D02*
X0212879Y0030841D01*
X0205776Y0030841D02*
X0204807Y0030841D01*
X0204807Y0029843D02*
X0205776Y0029843D01*
X0205776Y0028844D02*
X0204807Y0028844D01*
X0204807Y0027846D02*
X0205776Y0027846D01*
X0205776Y0025849D02*
X0204807Y0025849D01*
X0204807Y0024850D02*
X0205776Y0024850D01*
X0205776Y0023852D02*
X0204807Y0023852D01*
X0204807Y0022853D02*
X0205776Y0022853D01*
X0200937Y0027846D02*
X0199906Y0027846D01*
X0199493Y0028844D02*
X0201324Y0028844D01*
X0202027Y0029843D02*
X0198838Y0029843D01*
X0197704Y0030841D02*
X0203405Y0030841D01*
X0192879Y0030841D02*
X0187704Y0030841D01*
X0187936Y0030745D02*
X0186220Y0031456D01*
X0184363Y0031456D01*
X0182647Y0030745D01*
X0181334Y0029432D01*
X0180623Y0027716D01*
X0180623Y0025859D01*
X0181334Y0024143D01*
X0182647Y0022830D01*
X0184363Y0022119D01*
X0186220Y0022119D01*
X0187936Y0022830D01*
X0189249Y0024143D01*
X0189960Y0025859D01*
X0189960Y0027716D01*
X0189249Y0029432D01*
X0187936Y0030745D01*
X0188838Y0029843D02*
X0191744Y0029843D01*
X0191090Y0028844D02*
X0189493Y0028844D01*
X0189906Y0027846D02*
X0190677Y0027846D01*
X0190623Y0026847D02*
X0189960Y0026847D01*
X0189956Y0025849D02*
X0190627Y0025849D01*
X0191041Y0024850D02*
X0189542Y0024850D01*
X0188958Y0023852D02*
X0191625Y0023852D01*
X0192623Y0022853D02*
X0187959Y0022853D01*
X0187007Y0020929D02*
X0186338Y0021146D01*
X0185776Y0021235D01*
X0185776Y0017272D01*
X0189739Y0017272D01*
X0189650Y0017834D01*
X0189432Y0018503D01*
X0189113Y0019129D01*
X0188700Y0019698D01*
X0188202Y0020196D01*
X0187633Y0020609D01*
X0187007Y0020929D01*
X0187149Y0020856D02*
X0192915Y0020856D01*
X0191759Y0019858D02*
X0188541Y0019858D01*
X0189251Y0018859D02*
X0191096Y0018859D01*
X0190683Y0017861D02*
X0189641Y0017861D01*
X0190623Y0016862D02*
X0185776Y0016862D01*
X0185776Y0017272D02*
X0185776Y0016303D01*
X0189739Y0016303D01*
X0189650Y0015741D01*
X0189432Y0015072D01*
X0189113Y0014445D01*
X0188700Y0013876D01*
X0188202Y0013379D01*
X0187633Y0012966D01*
X0187007Y0012646D01*
X0186338Y0012429D01*
X0185776Y0012340D01*
X0185776Y0016303D01*
X0184807Y0016303D01*
X0184807Y0012340D01*
X0184245Y0012429D01*
X0183576Y0012646D01*
X0182949Y0012966D01*
X0182380Y0013379D01*
X0181883Y0013876D01*
X0181470Y0014445D01*
X0181150Y0015072D01*
X0180933Y0015741D01*
X0180844Y0016303D01*
X0184807Y0016303D01*
X0184807Y0017272D01*
X0184807Y0021235D01*
X0184245Y0021146D01*
X0183576Y0020929D01*
X0182949Y0020609D01*
X0182380Y0020196D01*
X0181883Y0019698D01*
X0181470Y0019129D01*
X0181150Y0018503D01*
X0180933Y0017834D01*
X0180844Y0017272D01*
X0184807Y0017272D01*
X0185776Y0017272D01*
X0185776Y0017861D02*
X0184807Y0017861D01*
X0184807Y0018859D02*
X0185776Y0018859D01*
X0185776Y0019858D02*
X0184807Y0019858D01*
X0184807Y0020856D02*
X0185776Y0020856D01*
X0183434Y0020856D02*
X0177668Y0020856D01*
X0177936Y0020745D02*
X0176220Y0021456D01*
X0174363Y0021456D01*
X0172647Y0020745D01*
X0171334Y0019432D01*
X0170623Y0017716D01*
X0170623Y0015859D01*
X0171334Y0014143D01*
X0172647Y0012830D01*
X0174363Y0012119D01*
X0176220Y0012119D01*
X0177936Y0012830D01*
X0179249Y0014143D01*
X0179960Y0015859D01*
X0179960Y0017716D01*
X0179249Y0019432D01*
X0177936Y0020745D01*
X0178823Y0019858D02*
X0182042Y0019858D01*
X0181332Y0018859D02*
X0179486Y0018859D01*
X0179900Y0017861D02*
X0180942Y0017861D01*
X0179960Y0016862D02*
X0184807Y0016862D01*
X0184807Y0015864D02*
X0185776Y0015864D01*
X0185776Y0014865D02*
X0184807Y0014865D01*
X0184807Y0013867D02*
X0185776Y0013867D01*
X0185776Y0012868D02*
X0184807Y0012868D01*
X0183141Y0012868D02*
X0177974Y0012868D01*
X0178973Y0013867D02*
X0181893Y0013867D01*
X0181256Y0014865D02*
X0179548Y0014865D01*
X0179960Y0015864D02*
X0180913Y0015864D01*
X0172608Y0012868D02*
X0167974Y0012868D01*
X0168973Y0013867D02*
X0171610Y0013867D01*
X0171034Y0014865D02*
X0169548Y0014865D01*
X0169960Y0015864D02*
X0170623Y0015864D01*
X0170623Y0016862D02*
X0169960Y0016862D01*
X0169900Y0017861D02*
X0170683Y0017861D01*
X0171096Y0018859D02*
X0169486Y0018859D01*
X0168823Y0019858D02*
X0171759Y0019858D01*
X0172915Y0020856D02*
X0167668Y0020856D01*
X0167959Y0022853D02*
X0172623Y0022853D01*
X0172647Y0022830D02*
X0174363Y0022119D01*
X0176220Y0022119D01*
X0177936Y0022830D01*
X0179249Y0024143D01*
X0179960Y0025859D01*
X0179960Y0027716D01*
X0179249Y0029432D01*
X0177936Y0030745D01*
X0176220Y0031456D01*
X0174363Y0031456D01*
X0172647Y0030745D01*
X0171334Y0029432D01*
X0170623Y0027716D01*
X0170623Y0025859D01*
X0171334Y0024143D01*
X0172647Y0022830D01*
X0171625Y0023852D02*
X0168958Y0023852D01*
X0169542Y0024850D02*
X0171041Y0024850D01*
X0170627Y0025849D02*
X0169956Y0025849D01*
X0169960Y0026847D02*
X0170623Y0026847D01*
X0170677Y0027846D02*
X0169906Y0027846D01*
X0169493Y0028844D02*
X0171090Y0028844D01*
X0171744Y0029843D02*
X0168838Y0029843D01*
X0167704Y0030841D02*
X0172879Y0030841D01*
X0177704Y0030841D02*
X0182879Y0030841D01*
X0181744Y0029843D02*
X0178838Y0029843D01*
X0179493Y0028844D02*
X0181090Y0028844D01*
X0180677Y0027846D02*
X0179906Y0027846D01*
X0179960Y0026847D02*
X0180623Y0026847D01*
X0180627Y0025849D02*
X0179956Y0025849D01*
X0179542Y0024850D02*
X0181041Y0024850D01*
X0181625Y0023852D02*
X0178958Y0023852D01*
X0177959Y0022853D02*
X0182623Y0022853D01*
X0189669Y0015864D02*
X0190623Y0015864D01*
X0191034Y0014865D02*
X0189327Y0014865D01*
X0188690Y0013867D02*
X0191610Y0013867D01*
X0192608Y0012868D02*
X0187442Y0012868D01*
X0228541Y0019858D02*
X0231759Y0019858D01*
X0231096Y0018859D02*
X0229251Y0018859D01*
X0229641Y0017861D02*
X0230683Y0017861D01*
X0245291Y0016945D02*
X0245291Y0016787D01*
X0209177Y0162645D02*
X0189708Y0162645D01*
X0189708Y0163643D02*
X0208267Y0163643D01*
X0207853Y0164642D02*
X0189708Y0164642D01*
X0189708Y0165640D02*
X0207666Y0165640D01*
X0207666Y0166639D02*
X0189708Y0166639D01*
X0189708Y0167637D02*
X0208002Y0167637D01*
X0208324Y0168636D02*
X0189708Y0168636D01*
X0189708Y0169634D02*
X0208324Y0169634D01*
X0208324Y0170633D02*
X0189708Y0170633D01*
X0189708Y0171631D02*
X0208162Y0171631D01*
X0207748Y0172630D02*
X0189708Y0172630D01*
X0189708Y0173628D02*
X0207568Y0173628D01*
X0207568Y0174627D02*
X0189708Y0174627D01*
X0189212Y0175625D02*
X0207910Y0175625D01*
X0190835Y0187608D02*
X0173057Y0187608D01*
X0174055Y0188606D02*
X0190835Y0188606D01*
X0191039Y0189605D02*
X0175054Y0189605D01*
X0175495Y0190603D02*
X0178720Y0190603D01*
X0178321Y0191602D02*
X0175665Y0191602D01*
X0175665Y0192600D02*
X0178321Y0192600D01*
X0178321Y0193599D02*
X0175665Y0193599D01*
X0175665Y0194597D02*
X0178321Y0194597D01*
X0178321Y0195596D02*
X0175665Y0195596D01*
X0175665Y0196594D02*
X0178321Y0196594D01*
X0178321Y0197593D02*
X0175665Y0197593D01*
X0176363Y0198591D02*
X0178602Y0198591D01*
X0178733Y0199590D02*
X0177362Y0199590D01*
X0189621Y0200588D02*
X0192512Y0200588D01*
X0191210Y0190603D02*
X0189222Y0190603D01*
X0189421Y0213569D02*
X0276859Y0213569D01*
X0276859Y0214567D02*
X0189421Y0214567D01*
X0189421Y0215566D02*
X0276859Y0215566D01*
X0276845Y0216564D02*
X0189084Y0216564D01*
X0267048Y0227548D02*
X0027993Y0227548D01*
X0026658Y0226549D02*
X0270299Y0226549D01*
X0272029Y0225551D02*
X0026336Y0225551D01*
X0026322Y0224552D02*
X0273202Y0224552D01*
X0274200Y0223554D02*
X0026322Y0223554D01*
X0026322Y0222555D02*
X0274914Y0222555D01*
X0275491Y0221557D02*
X0026322Y0221557D01*
X0026322Y0220558D02*
X0276031Y0220558D01*
X0276298Y0219560D02*
X0026322Y0219560D01*
X0026322Y0218561D02*
X0276566Y0218561D01*
X0276780Y0217563D02*
X0026322Y0217563D01*
D22*
X0097063Y0169406D02*
X0106217Y0160252D01*
X0106217Y0159071D01*
X0110744Y0154543D01*
X0117339Y0154543D01*
X0117339Y0152575D02*
X0105921Y0152575D01*
X0097063Y0161433D01*
X0097063Y0153461D02*
X0099524Y0153461D01*
X0102378Y0150606D01*
X0117339Y0150606D01*
X0117339Y0148638D02*
X0100114Y0148638D01*
X0097063Y0145587D01*
X0102673Y0143618D02*
X0102673Y0140469D01*
X0099720Y0137614D01*
X0097063Y0137614D01*
X0102673Y0143618D02*
X0105724Y0146669D01*
X0117339Y0146669D01*
X0117339Y0144701D02*
X0124819Y0144701D01*
X0124622Y0142732D01*
X0117339Y0142732D01*
X0108480Y0142732D01*
X0108480Y0140764D01*
X0117339Y0140764D01*
X0124622Y0140764D01*
X0124622Y0138795D01*
X0117339Y0138795D01*
X0108480Y0138795D01*
X0108480Y0136827D01*
X0117339Y0136827D01*
X0124622Y0136827D01*
X0124622Y0134858D01*
X0117339Y0134858D01*
X0108480Y0134858D01*
X0108480Y0132890D01*
X0117339Y0132890D01*
X0124622Y0132890D01*
X0124622Y0130921D01*
X0117339Y0130921D01*
X0108480Y0130921D01*
X0108480Y0128953D01*
X0117339Y0128953D01*
X0124622Y0128953D01*
X0124622Y0126984D01*
X0117339Y0126984D01*
X0108480Y0126984D01*
X0108480Y0125016D01*
X0108480Y0123047D01*
X0108480Y0121079D01*
X0117339Y0121079D01*
X0124622Y0121079D01*
X0124622Y0119110D01*
X0117339Y0119110D01*
X0108480Y0119110D01*
X0108480Y0117142D01*
X0117339Y0117142D01*
X0124622Y0117142D01*
X0124622Y0115173D01*
X0117339Y0115173D01*
X0108480Y0115173D01*
X0108480Y0113205D01*
X0117339Y0113205D01*
X0124622Y0113205D01*
X0124622Y0111236D01*
X0117339Y0111236D01*
X0108480Y0111236D01*
X0110449Y0109268D01*
X0117142Y0109268D01*
X0117339Y0109268D01*
X0117339Y0107299D02*
X0137319Y0107299D01*
X0148835Y0095783D01*
X0148835Y0050902D01*
X0154445Y0045291D01*
X0155823Y0045291D01*
X0149917Y0046177D02*
X0146276Y0049819D01*
X0146276Y0094799D01*
X0135744Y0105331D01*
X0117339Y0105331D01*
X0106807Y0105331D01*
X0106807Y0107299D02*
X0117339Y0107299D01*
X0117634Y0107299D01*
X0117437Y0105331D02*
X0117339Y0105331D01*
X0117339Y0103362D02*
X0133677Y0103362D01*
X0136039Y0101394D02*
X0117339Y0101394D01*
X0106807Y0101394D01*
X0106807Y0099425D02*
X0117339Y0099425D01*
X0134563Y0099425D01*
X0141354Y0092634D01*
X0141354Y0053362D01*
X0136630Y0048638D01*
X0136630Y0038697D01*
X0140370Y0034957D01*
X0142043Y0044701D02*
X0143717Y0046276D01*
X0143815Y0093618D01*
X0136039Y0101394D01*
X0132988Y0097457D02*
X0138697Y0091748D01*
X0138795Y0054642D01*
X0129248Y0044602D01*
X0149917Y0046177D02*
X0149917Y0039780D01*
X0153953Y0035744D01*
X0125016Y0073835D02*
X0117339Y0073835D01*
X0110547Y0073835D01*
X0109071Y0075803D02*
X0104248Y0070980D01*
X0104248Y0053264D01*
X0099622Y0058972D02*
X0094799Y0054150D01*
X0091945Y0054150D01*
X0091945Y0061925D02*
X0095094Y0061925D01*
X0096965Y0063795D01*
X0096965Y0070783D01*
X0105921Y0079740D01*
X0117339Y0079740D01*
X0117535Y0079740D02*
X0125902Y0079740D01*
X0125902Y0081709D02*
X0117339Y0081709D01*
X0104051Y0081709D01*
X0091945Y0069602D01*
X0099622Y0069898D02*
X0099622Y0058972D01*
X0099622Y0069898D02*
X0107496Y0077772D01*
X0116945Y0077772D01*
X0117339Y0077772D01*
X0126000Y0077772D01*
X0125902Y0075803D02*
X0117339Y0075803D01*
X0109071Y0075803D01*
X0117339Y0083677D02*
X0098244Y0083677D01*
X0091945Y0077378D01*
X0091945Y0085154D02*
X0092437Y0085646D01*
X0117339Y0085646D01*
X0117437Y0085646D02*
X0125902Y0085646D01*
X0125902Y0083677D02*
X0117437Y0083677D01*
X0117339Y0087614D02*
X0132791Y0087614D01*
X0125705Y0089583D02*
X0117437Y0089583D01*
X0117339Y0089583D02*
X0095587Y0089583D01*
X0094307Y0090862D01*
X0072161Y0090862D01*
X0066354Y0085055D01*
X0066354Y0078981D01*
X0066354Y0066059D01*
X0061531Y0061236D01*
X0055429Y0061236D02*
X0063795Y0069602D01*
X0063795Y0078981D01*
X0063795Y0086925D01*
X0070587Y0093717D01*
X0095488Y0093717D01*
X0097654Y0091551D01*
X0117339Y0091551D01*
X0117535Y0091551D02*
X0125803Y0091551D01*
X0125803Y0093520D02*
X0117142Y0093520D01*
X0099622Y0093520D01*
X0096669Y0096472D01*
X0068815Y0096472D01*
X0061236Y0088894D01*
X0061236Y0078981D01*
X0061236Y0073244D01*
X0049228Y0061236D01*
X0067634Y0061236D02*
X0068913Y0062516D01*
X0068913Y0078981D01*
X0068913Y0081413D01*
X0072752Y0085350D01*
X0077575Y0085350D01*
X0071472Y0078981D02*
X0071472Y0056512D01*
X0070291Y0055331D01*
X0067634Y0055331D01*
X0105232Y0087614D02*
X0117339Y0087614D01*
X0117339Y0095488D02*
X0101492Y0095488D01*
X0096571Y0100409D01*
X0079543Y0100409D01*
X0077575Y0102378D01*
X0081610Y0106118D02*
X0089189Y0106118D01*
X0102378Y0103362D02*
X0117339Y0103362D01*
X0117339Y0101394D02*
X0117634Y0101394D01*
X0117732Y0099425D02*
X0117339Y0099425D01*
X0117339Y0097457D02*
X0132988Y0097457D01*
X0125803Y0095488D02*
X0117535Y0095488D01*
X0117339Y0097457D02*
X0106807Y0097457D01*
X0108480Y0111236D02*
X0108480Y0113205D01*
X0108480Y0115173D02*
X0108480Y0117142D01*
X0108480Y0119110D02*
X0108480Y0121079D01*
X0108480Y0123047D02*
X0117339Y0123047D01*
X0124622Y0123047D01*
X0124622Y0121079D01*
X0124622Y0123047D02*
X0124622Y0125016D01*
X0117339Y0125016D01*
X0108480Y0125016D01*
X0108480Y0126984D02*
X0108480Y0128953D01*
X0108480Y0130921D02*
X0108480Y0132890D01*
X0108480Y0134858D02*
X0108480Y0136827D01*
X0108480Y0138795D02*
X0108480Y0140764D01*
X0108480Y0142732D02*
X0108283Y0144701D01*
X0117339Y0144701D01*
X0124622Y0142732D02*
X0124622Y0140764D01*
X0124622Y0138795D02*
X0124622Y0136827D01*
X0124622Y0134858D02*
X0124622Y0132890D01*
X0124622Y0130921D02*
X0124622Y0128953D01*
X0124622Y0126984D02*
X0124622Y0125016D01*
X0124622Y0119110D02*
X0124622Y0117142D01*
X0124622Y0115173D02*
X0124622Y0113205D01*
X0127969Y0156512D02*
X0117043Y0156512D01*
X0117339Y0156512D02*
X0117437Y0156512D01*
X0117142Y0158480D02*
X0130035Y0158480D01*
X0132004Y0160449D01*
X0131906Y0160449D02*
X0127969Y0156512D01*
X0131906Y0160449D02*
X0136630Y0165173D01*
X0135252Y0165665D02*
X0133972Y0164386D01*
X0117339Y0164386D01*
X0111925Y0164386D01*
X0111728Y0166354D02*
X0117339Y0166354D01*
X0135646Y0166354D01*
X0136728Y0167437D01*
X0138303Y0168323D02*
X0139583Y0169602D01*
X0138303Y0168323D02*
X0117634Y0168323D01*
X0117339Y0168323D02*
X0111433Y0168323D01*
X0111630Y0162417D02*
X0117339Y0162417D01*
X0131906Y0162417D01*
X0131906Y0160449D02*
X0117339Y0160449D01*
X0112319Y0160449D01*
X0111827Y0160449D01*
X0065961Y0120783D02*
X0061236Y0116059D01*
X0061236Y0101956D01*
X0058677Y0101956D02*
X0058677Y0119799D01*
X0057693Y0120783D01*
X0053657Y0109563D02*
X0048441Y0109563D01*
X0053657Y0109563D02*
X0056118Y0107102D01*
X0056118Y0101956D01*
X0056118Y0101886D01*
X0063795Y0101956D02*
X0063795Y0097654D01*
X0063402Y0095882D02*
X0066354Y0098835D01*
X0066354Y0101956D01*
X0066354Y0106610D01*
X0071472Y0106610D01*
X0071472Y0101956D01*
X0071472Y0105331D01*
X0063795Y0105232D02*
X0063795Y0101956D01*
D23*
X0068815Y0110843D03*
X0077575Y0102378D03*
X0077575Y0085350D03*
X0048441Y0109563D03*
X0049819Y0121079D03*
X0081807Y0138106D03*
X0087024Y0117929D03*
X0044799Y0088106D03*
X0028067Y0042929D03*
X0105331Y0034661D03*
X0129248Y0044602D03*
X0140370Y0034957D03*
X0142043Y0044701D03*
X0153953Y0035744D03*
X0163598Y0036039D03*
X0155823Y0045291D03*
X0111236Y0061925D03*
X0132791Y0087614D03*
X0199130Y0135744D03*
X0212024Y0165961D03*
X0211925Y0173933D03*
X0243815Y0191354D03*
X0129642Y0203067D03*
X0106217Y0160252D03*
X0264287Y0086138D03*
D24*
X0194110Y0187122D02*
X0194110Y0194656D01*
X0194898Y0203756D02*
X0184071Y0203756D01*
X0183971Y0203656D01*
X0155429Y0185941D02*
X0151492Y0189878D01*
X0147457Y0189878D01*
X0090370Y0173933D02*
X0090370Y0169406D01*
X0090370Y0153461D02*
X0085449Y0153461D01*
X0073933Y0141945D01*
X0073933Y0127476D01*
X0091846Y0127476D01*
X0097555Y0121768D01*
X0097555Y0107299D01*
X0102378Y0103362D01*
X0087024Y0117929D02*
X0084169Y0120783D01*
X0065961Y0120783D01*
X0057693Y0120783D02*
X0057398Y0121079D01*
X0049819Y0121079D01*
X0045685Y0127476D02*
X0035744Y0117535D01*
X0035744Y0054740D01*
X0050902Y0039583D01*
X0067732Y0039583D01*
X0067732Y0047063D01*
X0067634Y0047161D01*
X0067634Y0055331D01*
X0085252Y0054150D02*
X0085252Y0049917D01*
X0088598Y0046571D01*
X0104248Y0046571D01*
X0112713Y0046571D01*
X0120193Y0046571D02*
X0120094Y0039583D01*
X0113402Y0039583D02*
X0105331Y0039583D01*
X0105331Y0034661D01*
X0098638Y0039583D02*
X0067732Y0039583D01*
X0085252Y0054150D02*
X0085252Y0061925D01*
X0085252Y0069602D01*
X0085252Y0077378D01*
X0085252Y0085154D01*
X0073933Y0127476D02*
X0065961Y0127476D01*
X0057693Y0127476D01*
X0045685Y0127476D01*
X0105331Y0026827D02*
X0105291Y0026787D01*
D25*
X0225213Y0026866D03*
D26*
X0131906Y0162417D02*
X0155429Y0185941D01*
X0166157Y0185941D01*
X0171965Y0191748D01*
X0171965Y0199425D01*
X0176195Y0203656D01*
X0183971Y0203656D01*
X0183971Y0194656D02*
X0194110Y0194656D01*
X0200848Y0194656D01*
X0212024Y0183480D01*
X0212024Y0165961D01*
D27*
X0113329Y0168323D02*
X0112980Y0168323D01*
X0113329Y0168323D01*
X0113329Y0168323D01*
X0112980Y0168323D02*
X0112980Y0167495D01*
X0113022Y0167339D01*
X0112980Y0167182D01*
X0112980Y0166989D01*
X0112583Y0166592D01*
X0112583Y0157143D01*
X0111821Y0157143D01*
X0110512Y0158452D01*
X0110874Y0159326D01*
X0110874Y0161178D01*
X0110165Y0162890D01*
X0108855Y0164200D01*
X0107143Y0164909D01*
X0105290Y0164909D01*
X0105252Y0164894D01*
X0101031Y0169114D01*
X0101031Y0172399D01*
X0099860Y0173571D01*
X0094266Y0173571D01*
X0093575Y0172880D01*
X0093444Y0173011D01*
X0093033Y0173248D01*
X0092576Y0173371D01*
X0090554Y0173371D01*
X0090554Y0169590D01*
X0090186Y0169590D01*
X0090186Y0173371D01*
X0088795Y0173371D01*
X0088795Y0173933D01*
X0090469Y0175606D01*
X0102575Y0175606D01*
X0103683Y0174499D01*
X0103514Y0174330D01*
X0105900Y0171944D01*
X0105900Y0171944D01*
X0103514Y0174330D01*
X0102233Y0173049D01*
X0101996Y0172638D01*
X0101873Y0172181D01*
X0101873Y0171707D01*
X0101996Y0171249D01*
X0102233Y0170838D01*
X0103514Y0169557D01*
X0104795Y0168276D01*
X0105205Y0168039D01*
X0105663Y0167916D01*
X0106137Y0167916D01*
X0106595Y0168039D01*
X0107005Y0168276D01*
X0108287Y0169557D01*
X0108455Y0169726D01*
X0109661Y0168520D01*
X0112980Y0168520D01*
X0112980Y0168323D01*
X0112980Y0167127D02*
X0103019Y0167127D01*
X0104346Y0168725D02*
X0101420Y0168725D01*
X0101031Y0170324D02*
X0102747Y0170324D01*
X0103514Y0169557D02*
X0105900Y0171944D01*
X0105900Y0171943D01*
X0103514Y0169557D01*
X0104280Y0170324D02*
X0104280Y0170324D01*
X0105879Y0171922D02*
X0105879Y0171922D01*
X0105900Y0171943D02*
X0105900Y0171944D01*
X0103222Y0174622D01*
X0103165Y0174622D01*
X0103062Y0175119D02*
X0089981Y0175119D01*
X0088795Y0173521D02*
X0094216Y0173521D01*
X0090554Y0171922D02*
X0090186Y0171922D01*
X0090186Y0170324D02*
X0090554Y0170324D01*
X0090554Y0169221D02*
X0090554Y0165440D01*
X0092576Y0165440D01*
X0093033Y0165563D01*
X0093444Y0165800D01*
X0093575Y0165931D01*
X0094087Y0165419D01*
X0093575Y0164907D01*
X0093444Y0165039D01*
X0093033Y0165276D01*
X0092576Y0165398D01*
X0090554Y0165398D01*
X0090554Y0161617D01*
X0090186Y0161617D01*
X0090186Y0165398D01*
X0088795Y0165398D01*
X0088795Y0165440D01*
X0090186Y0165440D01*
X0090186Y0169221D01*
X0090554Y0169221D01*
X0090554Y0168725D02*
X0090186Y0168725D01*
X0090186Y0167127D02*
X0090554Y0167127D01*
X0090554Y0165528D02*
X0090186Y0165528D01*
X0090186Y0163930D02*
X0090554Y0163930D01*
X0090554Y0162331D02*
X0090186Y0162331D01*
X0090186Y0161249D02*
X0090554Y0161249D01*
X0090554Y0157468D01*
X0092576Y0157468D01*
X0093033Y0157590D01*
X0093444Y0157827D01*
X0093575Y0157959D01*
X0094087Y0157447D01*
X0093575Y0156935D01*
X0093444Y0157066D01*
X0093033Y0157303D01*
X0092576Y0157426D01*
X0090554Y0157426D01*
X0090554Y0153645D01*
X0090186Y0153645D01*
X0090186Y0157426D01*
X0088795Y0157426D01*
X0088795Y0157468D01*
X0090186Y0157468D01*
X0090186Y0161249D01*
X0090186Y0160733D02*
X0090554Y0160733D01*
X0090554Y0159134D02*
X0090186Y0159134D01*
X0090186Y0157536D02*
X0090554Y0157536D01*
X0090554Y0155937D02*
X0090186Y0155937D01*
X0090186Y0154339D02*
X0090554Y0154339D01*
X0092829Y0157536D02*
X0093998Y0157536D01*
X0093978Y0165528D02*
X0092904Y0165528D01*
X0101031Y0171922D02*
X0101873Y0171922D01*
X0102705Y0173521D02*
X0099910Y0173521D01*
X0104323Y0173521D02*
X0104323Y0173521D01*
X0105900Y0171944D02*
X0108287Y0169557D01*
X0105900Y0171943D01*
X0105922Y0171922D02*
X0105922Y0171922D01*
X0107520Y0170324D02*
X0107520Y0170324D01*
X0107455Y0168725D02*
X0109456Y0168725D01*
X0112583Y0165528D02*
X0104617Y0165528D01*
X0109126Y0163930D02*
X0112583Y0163930D01*
X0112583Y0162331D02*
X0110397Y0162331D01*
X0110874Y0160733D02*
X0112583Y0160733D01*
X0112583Y0159134D02*
X0110795Y0159134D01*
X0111429Y0157536D02*
X0112583Y0157536D01*
X0067634Y0055331D02*
X0061531Y0055331D01*
X0164878Y0027201D02*
X0165291Y0026787D01*
M02*
