G75*
%MOIN*%
%OFA0B0*%
%FSLAX25Y25*%
%IPPOS*%
%LPD*%
%AMOC8*
5,1,8,0,0,1.08239X$1,22.5*
%
%ADD10R,0.03150X0.03150*%
%ADD11R,0.03937X0.04331*%
%ADD12R,0.05118X0.01181*%
%ADD13R,0.09449X0.09449*%
%ADD14R,0.15748X0.07480*%
%ADD15R,0.01575X0.05512*%
%ADD16R,0.04528X0.05709*%
%ADD17C,0.05315*%
%ADD18R,0.05900X0.07900*%
%ADD19R,0.15000X0.07900*%
%ADD20R,0.03543X0.03150*%
%ADD21R,0.01200X0.03900*%
%ADD22C,0.05937*%
%ADD23C,0.01200*%
%ADD24C,0.01000*%
%ADD25C,0.02400*%
%ADD26C,0.05315*%
%ADD27C,0.01600*%
%ADD28C,0.16598*%
%ADD29C,0.04000*%
D10*
X0056020Y0092732D03*
X0061925Y0092732D03*
X0046669Y0142142D03*
X0046669Y0148047D03*
X0040272Y0148047D03*
X0033874Y0148047D03*
X0027575Y0148047D03*
X0027575Y0142142D03*
X0033874Y0142142D03*
X0040272Y0142142D03*
X0033972Y0159858D03*
X0028067Y0159858D03*
X0183776Y0213008D03*
X0189681Y0213008D03*
X0225409Y0194898D03*
X0231315Y0194898D03*
D11*
X0069898Y0167437D03*
X0063205Y0167437D03*
X0063106Y0159169D03*
X0069799Y0159169D03*
X0069799Y0151098D03*
X0063106Y0151098D03*
X0063106Y0143028D03*
X0069799Y0143028D03*
X0069799Y0134858D03*
X0063106Y0134858D03*
X0037614Y0089976D03*
X0030921Y0089976D03*
X0030921Y0081709D03*
X0037614Y0081709D03*
X0034957Y0067437D03*
X0041650Y0067437D03*
X0041650Y0059563D03*
X0034957Y0059563D03*
X0055724Y0061728D03*
X0062417Y0061728D03*
X0062417Y0053657D03*
X0055724Y0053657D03*
X0055724Y0045390D03*
X0062417Y0045390D03*
X0062516Y0069898D03*
X0055823Y0069898D03*
X0055823Y0077772D03*
X0062516Y0077772D03*
X0062516Y0085646D03*
X0055823Y0085646D03*
D12*
X0101591Y0085646D03*
X0101591Y0087614D03*
X0101591Y0089583D03*
X0101591Y0091551D03*
X0101591Y0093520D03*
X0101591Y0095488D03*
X0101591Y0097457D03*
X0101591Y0099425D03*
X0101591Y0101394D03*
X0101591Y0103362D03*
X0101591Y0105331D03*
X0101591Y0107299D03*
X0101591Y0109268D03*
X0101591Y0111236D03*
X0101591Y0113205D03*
X0101591Y0115173D03*
X0101591Y0117142D03*
X0101591Y0119110D03*
X0101591Y0121079D03*
X0101591Y0123047D03*
X0101591Y0125016D03*
X0101591Y0126984D03*
X0101591Y0128953D03*
X0101591Y0130921D03*
X0101591Y0132890D03*
X0101591Y0134858D03*
X0101591Y0136827D03*
X0101591Y0138795D03*
X0101591Y0140764D03*
X0101591Y0142732D03*
X0101591Y0144701D03*
X0101591Y0146669D03*
X0101591Y0148638D03*
X0101591Y0150606D03*
X0101591Y0152575D03*
X0101591Y0154543D03*
X0101591Y0156512D03*
X0101591Y0158480D03*
X0101591Y0160449D03*
X0101591Y0162417D03*
X0101591Y0164386D03*
X0101591Y0166354D03*
X0101591Y0168323D03*
X0101591Y0170291D03*
X0101591Y0083677D03*
X0101591Y0081709D03*
X0101591Y0079740D03*
X0101591Y0077772D03*
X0101591Y0075803D03*
X0101591Y0073835D03*
D13*
X0114386Y0065567D03*
X0114386Y0178559D03*
D14*
X0219504Y0224228D03*
D15*
X0219504Y0213795D03*
X0222063Y0213795D03*
X0224622Y0213795D03*
X0216945Y0213795D03*
X0214386Y0213795D03*
D16*
X0210055Y0215370D03*
X0228953Y0215370D03*
D17*
X0233480Y0223145D02*
X0233480Y0225311D01*
X0233480Y0225311D01*
X0233480Y0223145D01*
X0233480Y0223145D01*
X0205528Y0223145D02*
X0205528Y0225311D01*
X0205528Y0225311D01*
X0205528Y0223145D01*
X0205528Y0223145D01*
D18*
X0205431Y0197750D03*
X0214431Y0197750D03*
X0196431Y0197750D03*
D19*
X0205331Y0172950D03*
D20*
X0041650Y0052772D03*
X0041650Y0045291D03*
X0033776Y0049031D03*
D21*
X0033087Y0102997D03*
X0035646Y0102997D03*
X0038205Y0102997D03*
X0040764Y0102997D03*
X0043323Y0102997D03*
X0045882Y0102997D03*
X0048441Y0102997D03*
X0030528Y0102997D03*
X0030528Y0125972D03*
X0033087Y0125972D03*
X0035646Y0125972D03*
X0038205Y0125972D03*
X0040764Y0125972D03*
X0043323Y0125972D03*
X0045882Y0125972D03*
X0048441Y0125972D03*
D22*
X0049543Y0026787D03*
X0059543Y0026787D03*
X0059543Y0016787D03*
X0049543Y0016787D03*
X0039543Y0016787D03*
X0039543Y0026787D03*
X0069543Y0026787D03*
X0069543Y0016787D03*
X0079543Y0016787D03*
X0089543Y0016787D03*
X0099543Y0016787D03*
X0109543Y0016787D03*
X0119543Y0016787D03*
X0129543Y0016787D03*
X0139543Y0016787D03*
X0149543Y0016787D03*
X0159543Y0016787D03*
X0169543Y0016787D03*
X0179543Y0016787D03*
X0189543Y0016787D03*
X0199543Y0016787D03*
X0209543Y0016787D03*
X0219543Y0016787D03*
X0229543Y0016787D03*
X0229543Y0026787D03*
X0219543Y0026787D03*
X0209543Y0026787D03*
X0199543Y0026787D03*
X0189543Y0026787D03*
X0179543Y0026787D03*
X0169543Y0026787D03*
X0159543Y0026787D03*
X0149543Y0026787D03*
X0139543Y0026787D03*
X0129543Y0026787D03*
X0119543Y0026787D03*
X0109543Y0026787D03*
X0099543Y0026787D03*
X0089543Y0026787D03*
X0079543Y0026787D03*
D23*
X0011074Y0011074D02*
X0011074Y0225405D01*
X0011107Y0225744D01*
X0011368Y0226372D01*
X0011848Y0226853D01*
X0012476Y0227113D01*
X0012816Y0227146D01*
X0201684Y0227146D01*
X0201582Y0226945D01*
X0201375Y0226308D01*
X0201270Y0225646D01*
X0201270Y0224828D01*
X0204928Y0224828D01*
X0204928Y0223628D01*
X0206128Y0223628D01*
X0206128Y0224828D01*
X0209785Y0224828D01*
X0209785Y0225646D01*
X0209680Y0226308D01*
X0209473Y0226945D01*
X0209371Y0227146D01*
X0210030Y0227146D01*
X0210030Y0224828D01*
X0218904Y0224828D01*
X0218904Y0223628D01*
X0220104Y0223628D01*
X0220104Y0218888D01*
X0225225Y0218888D01*
X0225198Y0218842D01*
X0225089Y0218435D01*
X0225089Y0218151D01*
X0224622Y0218151D01*
X0224362Y0218151D01*
X0223762Y0218751D01*
X0213834Y0218751D01*
X0213810Y0218842D01*
X0213783Y0218888D01*
X0218904Y0218888D01*
X0218904Y0223628D01*
X0210030Y0223628D01*
X0210030Y0220278D01*
X0210139Y0219871D01*
X0210350Y0219506D01*
X0210587Y0219268D01*
X0210587Y0215902D01*
X0209523Y0215902D01*
X0209523Y0214838D01*
X0206191Y0214838D01*
X0206191Y0212305D01*
X0206300Y0211898D01*
X0206511Y0211533D01*
X0206809Y0211235D01*
X0207174Y0211025D01*
X0207581Y0210916D01*
X0209523Y0210916D01*
X0209523Y0214838D01*
X0210587Y0214838D01*
X0210587Y0210916D01*
X0211386Y0210916D01*
X0211386Y0209335D01*
X0210986Y0208369D01*
X0210986Y0203900D01*
X0210569Y0203900D01*
X0209931Y0203262D01*
X0209292Y0203900D01*
X0208831Y0203900D01*
X0208831Y0204332D01*
X0208313Y0205582D01*
X0205556Y0208339D01*
X0204599Y0209296D01*
X0203350Y0209813D01*
X0187176Y0209813D01*
X0187176Y0210123D01*
X0187489Y0209942D01*
X0187896Y0209833D01*
X0189494Y0209833D01*
X0189494Y0212820D01*
X0189869Y0212820D01*
X0189869Y0213195D01*
X0192856Y0213195D01*
X0192856Y0214793D01*
X0192747Y0215200D01*
X0192536Y0215565D01*
X0192238Y0215863D01*
X0191873Y0216074D01*
X0191467Y0216183D01*
X0189869Y0216183D01*
X0189869Y0213195D01*
X0189494Y0213195D01*
X0189494Y0216183D01*
X0187896Y0216183D01*
X0187489Y0216074D01*
X0187160Y0215884D01*
X0186262Y0216783D01*
X0181290Y0216783D01*
X0180001Y0215494D01*
X0180001Y0210522D01*
X0180376Y0210147D01*
X0180376Y0209813D01*
X0086150Y0209813D01*
X0084901Y0209296D01*
X0061279Y0185674D01*
X0060322Y0184717D01*
X0059805Y0183468D01*
X0059805Y0177825D01*
X0041367Y0177825D01*
X0040117Y0177308D01*
X0039161Y0176351D01*
X0030992Y0168182D01*
X0030474Y0166932D01*
X0030474Y0162800D01*
X0030259Y0162924D01*
X0029852Y0163033D01*
X0028254Y0163033D01*
X0028254Y0160046D01*
X0027880Y0160046D01*
X0027880Y0163033D01*
X0026281Y0163033D01*
X0025875Y0162924D01*
X0025510Y0162713D01*
X0025212Y0162415D01*
X0025001Y0162051D01*
X0024892Y0161644D01*
X0024892Y0160046D01*
X0027879Y0160046D01*
X0027879Y0159671D01*
X0024892Y0159671D01*
X0024892Y0158073D01*
X0025001Y0157666D01*
X0025212Y0157301D01*
X0025510Y0157003D01*
X0025875Y0156792D01*
X0026281Y0156683D01*
X0027880Y0156683D01*
X0027880Y0159671D01*
X0028254Y0159671D01*
X0028254Y0156683D01*
X0029852Y0156683D01*
X0030259Y0156792D01*
X0030588Y0156982D01*
X0030874Y0156696D01*
X0030874Y0151308D01*
X0030724Y0151159D01*
X0030061Y0151822D01*
X0025089Y0151822D01*
X0024114Y0150847D01*
X0024065Y0150847D01*
X0023036Y0150421D01*
X0021264Y0148649D01*
X0020838Y0147620D01*
X0020838Y0139352D01*
X0012630Y0131144D01*
X0012173Y0130042D01*
X0012173Y0104537D01*
X0012630Y0103434D01*
X0013474Y0102591D01*
X0022805Y0093259D01*
X0021687Y0093259D01*
X0019902Y0092520D01*
X0018536Y0091153D01*
X0017796Y0089368D01*
X0017796Y0087435D01*
X0018536Y0085650D01*
X0019902Y0084284D01*
X0021687Y0083544D01*
X0023495Y0083544D01*
X0023495Y0078002D01*
X0023922Y0076973D01*
X0024709Y0076185D01*
X0026284Y0074611D01*
X0027313Y0074184D01*
X0045061Y0074184D01*
X0046090Y0074611D01*
X0046878Y0075398D01*
X0051012Y0079532D01*
X0051438Y0080561D01*
X0051438Y0086104D01*
X0051012Y0087133D01*
X0050224Y0087921D01*
X0048682Y0089463D01*
X0048682Y0098847D01*
X0049952Y0098847D01*
X0051162Y0100057D01*
X0051162Y0098951D01*
X0051902Y0097166D01*
X0053268Y0095799D01*
X0053595Y0095664D01*
X0053462Y0095587D01*
X0053165Y0095290D01*
X0052954Y0094925D01*
X0052845Y0094518D01*
X0052845Y0092920D01*
X0055832Y0092920D01*
X0055832Y0092545D01*
X0052845Y0092545D01*
X0052845Y0090947D01*
X0052954Y0090540D01*
X0053165Y0090175D01*
X0053329Y0090011D01*
X0052943Y0090011D01*
X0051654Y0088722D01*
X0051654Y0082569D01*
X0052423Y0081801D01*
X0052423Y0081617D01*
X0051654Y0080848D01*
X0051654Y0074695D01*
X0052423Y0073927D01*
X0052423Y0073743D01*
X0051654Y0072974D01*
X0051654Y0066821D01*
X0052324Y0066151D01*
X0052324Y0065573D01*
X0051556Y0064805D01*
X0051556Y0058652D01*
X0052324Y0057883D01*
X0052324Y0057503D01*
X0051556Y0056734D01*
X0051556Y0050581D01*
X0052324Y0049812D01*
X0052324Y0049235D01*
X0051879Y0048790D01*
X0044609Y0048790D01*
X0044367Y0049031D01*
X0045621Y0050286D01*
X0045621Y0055258D01*
X0045105Y0055774D01*
X0045818Y0056486D01*
X0045818Y0062640D01*
X0044529Y0063928D01*
X0044491Y0063928D01*
X0044601Y0063991D01*
X0044898Y0064289D01*
X0045109Y0064654D01*
X0045218Y0065061D01*
X0045218Y0067053D01*
X0042034Y0067053D01*
X0042034Y0067821D01*
X0045218Y0067821D01*
X0045218Y0069813D01*
X0045109Y0070220D01*
X0044898Y0070585D01*
X0044601Y0070883D01*
X0044236Y0071093D01*
X0043829Y0071202D01*
X0042034Y0071202D01*
X0042034Y0067821D01*
X0041265Y0067821D01*
X0041265Y0071202D01*
X0039470Y0071202D01*
X0039064Y0071093D01*
X0038735Y0070904D01*
X0037836Y0071802D01*
X0032077Y0071802D01*
X0030788Y0070514D01*
X0030788Y0064360D01*
X0031557Y0063592D01*
X0031557Y0063408D01*
X0030788Y0062640D01*
X0030788Y0062563D01*
X0027765Y0062563D01*
X0026663Y0062106D01*
X0025819Y0061262D01*
X0021488Y0056932D01*
X0021031Y0055829D01*
X0021031Y0042332D01*
X0021488Y0041230D01*
X0022332Y0040386D01*
X0028828Y0033890D01*
X0029931Y0033433D01*
X0080337Y0033433D01*
X0081440Y0033890D01*
X0082283Y0034734D01*
X0085818Y0038269D01*
X0087399Y0038269D01*
X0089185Y0039008D01*
X0090551Y0040374D01*
X0091291Y0042160D01*
X0091291Y0044092D01*
X0090551Y0045878D01*
X0089185Y0047244D01*
X0087399Y0047983D01*
X0085467Y0047983D01*
X0083682Y0047244D01*
X0082315Y0045878D01*
X0081576Y0044092D01*
X0081576Y0042511D01*
X0078498Y0039433D01*
X0031770Y0039433D01*
X0027031Y0044172D01*
X0027031Y0053990D01*
X0029605Y0056563D01*
X0030788Y0056563D01*
X0030788Y0056486D01*
X0032077Y0055198D01*
X0037678Y0055198D01*
X0037678Y0050286D01*
X0038932Y0049031D01*
X0037678Y0047777D01*
X0037678Y0042805D01*
X0038967Y0041517D01*
X0044333Y0041517D01*
X0044806Y0041990D01*
X0051879Y0041990D01*
X0052845Y0041024D01*
X0058604Y0041024D01*
X0059071Y0041491D01*
X0059538Y0041024D01*
X0065297Y0041024D01*
X0066586Y0042313D01*
X0066586Y0045598D01*
X0093991Y0073003D01*
X0097440Y0073003D01*
X0097541Y0072627D01*
X0097751Y0072262D01*
X0098049Y0071964D01*
X0098414Y0071753D01*
X0098821Y0071644D01*
X0101590Y0071644D01*
X0101590Y0073003D01*
X0101591Y0073003D01*
X0101591Y0071644D01*
X0104360Y0071644D01*
X0104767Y0071753D01*
X0105132Y0071964D01*
X0105430Y0072262D01*
X0105641Y0072627D01*
X0105750Y0073033D01*
X0105750Y0073701D01*
X0106350Y0074301D01*
X0106350Y0094657D01*
X0113423Y0094657D01*
X0121330Y0086750D01*
X0121330Y0059246D01*
X0113331Y0051247D01*
X0113299Y0051279D01*
X0111513Y0052019D01*
X0109581Y0052019D01*
X0107796Y0051279D01*
X0106429Y0049913D01*
X0105690Y0048128D01*
X0105690Y0046195D01*
X0106429Y0044410D01*
X0107796Y0043043D01*
X0109581Y0042304D01*
X0111513Y0042304D01*
X0113299Y0043043D01*
X0114665Y0044410D01*
X0114844Y0044840D01*
X0115578Y0045575D01*
X0115578Y0045575D01*
X0124086Y0054083D01*
X0124086Y0044538D01*
X0122768Y0043220D01*
X0122028Y0041435D01*
X0122028Y0039502D01*
X0122768Y0037717D01*
X0124134Y0036351D01*
X0125920Y0035611D01*
X0127852Y0035611D01*
X0129637Y0036351D01*
X0131004Y0037717D01*
X0131743Y0039502D01*
X0131743Y0041435D01*
X0131004Y0043220D01*
X0129686Y0044538D01*
X0129686Y0047925D01*
X0130335Y0047276D01*
X0132120Y0046536D01*
X0134053Y0046536D01*
X0135838Y0047276D01*
X0136684Y0048122D01*
X0136684Y0038928D01*
X0135366Y0037610D01*
X0134627Y0035824D01*
X0134627Y0033892D01*
X0135366Y0032107D01*
X0136460Y0031013D01*
X0135162Y0029715D01*
X0134543Y0028222D01*
X0133925Y0029715D01*
X0132471Y0031169D01*
X0130571Y0031956D01*
X0128515Y0031956D01*
X0126616Y0031169D01*
X0125162Y0029715D01*
X0124543Y0028222D01*
X0123925Y0029715D01*
X0122471Y0031169D01*
X0120571Y0031956D01*
X0118515Y0031956D01*
X0116616Y0031169D01*
X0115162Y0029715D01*
X0114375Y0027815D01*
X0114375Y0025759D01*
X0115162Y0023860D01*
X0116616Y0022406D01*
X0118108Y0021787D01*
X0116616Y0021169D01*
X0115162Y0019715D01*
X0114543Y0018222D01*
X0113925Y0019715D01*
X0112471Y0021169D01*
X0110571Y0021956D01*
X0108515Y0021956D01*
X0106616Y0021169D01*
X0105162Y0019715D01*
X0104543Y0018222D01*
X0103925Y0019715D01*
X0102471Y0021169D01*
X0100978Y0021787D01*
X0102471Y0022406D01*
X0103925Y0023860D01*
X0104712Y0025759D01*
X0104712Y0027815D01*
X0103925Y0029715D01*
X0102471Y0031169D01*
X0100571Y0031956D01*
X0098515Y0031956D01*
X0096616Y0031169D01*
X0095162Y0029715D01*
X0094543Y0028222D01*
X0093925Y0029715D01*
X0092471Y0031169D01*
X0090571Y0031956D01*
X0088515Y0031956D01*
X0086616Y0031169D01*
X0085162Y0029715D01*
X0084543Y0028222D01*
X0083925Y0029715D01*
X0082471Y0031169D01*
X0080571Y0031956D01*
X0078515Y0031956D01*
X0076616Y0031169D01*
X0075162Y0029715D01*
X0074543Y0028222D01*
X0073925Y0029715D01*
X0072471Y0031169D01*
X0070571Y0031956D01*
X0068515Y0031956D01*
X0066616Y0031169D01*
X0065162Y0029715D01*
X0064543Y0028222D01*
X0063925Y0029715D01*
X0062471Y0031169D01*
X0060571Y0031956D01*
X0058515Y0031956D01*
X0056616Y0031169D01*
X0055162Y0029715D01*
X0054543Y0028222D01*
X0053925Y0029715D01*
X0052471Y0031169D01*
X0050571Y0031956D01*
X0048515Y0031956D01*
X0046616Y0031169D01*
X0045162Y0029715D01*
X0044375Y0027815D01*
X0044375Y0025759D01*
X0045162Y0023860D01*
X0046616Y0022406D01*
X0048108Y0021787D01*
X0046616Y0021169D01*
X0045162Y0019715D01*
X0044543Y0018222D01*
X0043925Y0019715D01*
X0042471Y0021169D01*
X0040571Y0021956D01*
X0038515Y0021956D01*
X0036616Y0021169D01*
X0035162Y0019715D01*
X0034375Y0017815D01*
X0034375Y0015759D01*
X0035162Y0013860D01*
X0036616Y0012406D01*
X0038515Y0011619D01*
X0040571Y0011619D01*
X0042471Y0012406D01*
X0043925Y0013860D01*
X0044543Y0015353D01*
X0045162Y0013860D01*
X0046616Y0012406D01*
X0048515Y0011619D01*
X0050571Y0011619D01*
X0052471Y0012406D01*
X0053925Y0013860D01*
X0054543Y0015353D01*
X0055162Y0013860D01*
X0056616Y0012406D01*
X0058515Y0011619D01*
X0060571Y0011619D01*
X0062471Y0012406D01*
X0063925Y0013860D01*
X0064712Y0015759D01*
X0064712Y0017815D01*
X0063925Y0019715D01*
X0062471Y0021169D01*
X0060978Y0021787D01*
X0062471Y0022406D01*
X0063925Y0023860D01*
X0064543Y0025353D01*
X0065162Y0023860D01*
X0066616Y0022406D01*
X0068515Y0021619D01*
X0070571Y0021619D01*
X0072471Y0022406D01*
X0073925Y0023860D01*
X0074543Y0025353D01*
X0075162Y0023860D01*
X0076616Y0022406D01*
X0078108Y0021787D01*
X0076616Y0021169D01*
X0075162Y0019715D01*
X0074375Y0017815D01*
X0074375Y0015759D01*
X0075162Y0013860D01*
X0076616Y0012406D01*
X0078515Y0011619D01*
X0080571Y0011619D01*
X0082471Y0012406D01*
X0083925Y0013860D01*
X0084712Y0015759D01*
X0084712Y0017815D01*
X0083925Y0019715D01*
X0082471Y0021169D01*
X0080978Y0021787D01*
X0082471Y0022406D01*
X0083925Y0023860D01*
X0084543Y0025353D01*
X0085162Y0023860D01*
X0086616Y0022406D01*
X0088515Y0021619D01*
X0090571Y0021619D01*
X0092471Y0022406D01*
X0093925Y0023860D01*
X0094543Y0025353D01*
X0095162Y0023860D01*
X0096616Y0022406D01*
X0098108Y0021787D01*
X0096616Y0021169D01*
X0095162Y0019715D01*
X0094375Y0017815D01*
X0094375Y0015759D01*
X0095162Y0013860D01*
X0096616Y0012406D01*
X0098515Y0011619D01*
X0100571Y0011619D01*
X0102471Y0012406D01*
X0103925Y0013860D01*
X0104543Y0015353D01*
X0105162Y0013860D01*
X0106616Y0012406D01*
X0108515Y0011619D01*
X0110571Y0011619D01*
X0112471Y0012406D01*
X0113925Y0013860D01*
X0114543Y0015353D01*
X0115162Y0013860D01*
X0116616Y0012406D01*
X0118515Y0011619D01*
X0120571Y0011619D01*
X0122471Y0012406D01*
X0123925Y0013860D01*
X0124543Y0015353D01*
X0125162Y0013860D01*
X0126616Y0012406D01*
X0128515Y0011619D01*
X0130571Y0011619D01*
X0132471Y0012406D01*
X0133925Y0013860D01*
X0134712Y0015759D01*
X0134712Y0017815D01*
X0133925Y0019715D01*
X0132471Y0021169D01*
X0130978Y0021787D01*
X0132471Y0022406D01*
X0133925Y0023860D01*
X0134543Y0025353D01*
X0135162Y0023860D01*
X0136616Y0022406D01*
X0138515Y0021619D01*
X0140571Y0021619D01*
X0142471Y0022406D01*
X0143925Y0023860D01*
X0144543Y0025353D01*
X0145162Y0023860D01*
X0146616Y0022406D01*
X0148108Y0021787D01*
X0146616Y0021169D01*
X0145162Y0019715D01*
X0144375Y0017815D01*
X0144375Y0015759D01*
X0145162Y0013860D01*
X0146616Y0012406D01*
X0148515Y0011619D01*
X0150571Y0011619D01*
X0152471Y0012406D01*
X0153925Y0013860D01*
X0154543Y0015353D01*
X0155162Y0013860D01*
X0156616Y0012406D01*
X0158515Y0011619D01*
X0160571Y0011619D01*
X0162471Y0012406D01*
X0163925Y0013860D01*
X0164712Y0015759D01*
X0164712Y0017815D01*
X0163925Y0019715D01*
X0162471Y0021169D01*
X0160978Y0021787D01*
X0162471Y0022406D01*
X0163925Y0023860D01*
X0164543Y0025353D01*
X0165162Y0023860D01*
X0166616Y0022406D01*
X0168515Y0021619D01*
X0170571Y0021619D01*
X0172471Y0022406D01*
X0173925Y0023860D01*
X0174543Y0025353D01*
X0175162Y0023860D01*
X0176616Y0022406D01*
X0178108Y0021787D01*
X0176616Y0021169D01*
X0175162Y0019715D01*
X0174375Y0017815D01*
X0174375Y0015759D01*
X0175162Y0013860D01*
X0176616Y0012406D01*
X0178515Y0011619D01*
X0180571Y0011619D01*
X0182471Y0012406D01*
X0183925Y0013860D01*
X0184543Y0015353D01*
X0185162Y0013860D01*
X0186616Y0012406D01*
X0188515Y0011619D01*
X0190571Y0011619D01*
X0192471Y0012406D01*
X0193925Y0013860D01*
X0194543Y0015353D01*
X0195162Y0013860D01*
X0196616Y0012406D01*
X0198515Y0011619D01*
X0200571Y0011619D01*
X0202471Y0012406D01*
X0203925Y0013860D01*
X0204712Y0015759D01*
X0204712Y0017815D01*
X0203925Y0019715D01*
X0202471Y0021169D01*
X0200978Y0021787D01*
X0202471Y0022406D01*
X0203925Y0023860D01*
X0204543Y0025353D01*
X0205162Y0023860D01*
X0206616Y0022406D01*
X0208515Y0021619D01*
X0210571Y0021619D01*
X0212471Y0022406D01*
X0213925Y0023860D01*
X0214543Y0025353D01*
X0215162Y0023860D01*
X0216616Y0022406D01*
X0218108Y0021787D01*
X0216616Y0021169D01*
X0215162Y0019715D01*
X0214375Y0017815D01*
X0214375Y0015759D01*
X0215162Y0013860D01*
X0216616Y0012406D01*
X0218515Y0011619D01*
X0220571Y0011619D01*
X0222471Y0012406D01*
X0223925Y0013860D01*
X0224543Y0015353D01*
X0225162Y0013860D01*
X0226616Y0012406D01*
X0228515Y0011619D01*
X0230571Y0011619D01*
X0232471Y0012406D01*
X0233925Y0013860D01*
X0234712Y0015759D01*
X0234712Y0017815D01*
X0233925Y0019715D01*
X0232471Y0021169D01*
X0230978Y0021787D01*
X0232471Y0022406D01*
X0233925Y0023860D01*
X0234712Y0025759D01*
X0234712Y0027815D01*
X0233925Y0029715D01*
X0232471Y0031169D01*
X0230571Y0031956D01*
X0228515Y0031956D01*
X0226616Y0031169D01*
X0225162Y0029715D01*
X0224543Y0028222D01*
X0223925Y0029715D01*
X0222471Y0031169D01*
X0220571Y0031956D01*
X0218515Y0031956D01*
X0216616Y0031169D01*
X0216611Y0031165D01*
X0216556Y0031142D01*
X0215189Y0029775D01*
X0215166Y0029720D01*
X0215162Y0029715D01*
X0214543Y0028222D01*
X0213925Y0029715D01*
X0212471Y0031169D01*
X0210571Y0031956D01*
X0208515Y0031956D01*
X0206616Y0031169D01*
X0205162Y0029715D01*
X0204543Y0028222D01*
X0203925Y0029715D01*
X0202471Y0031169D01*
X0200571Y0031956D01*
X0198515Y0031956D01*
X0196616Y0031169D01*
X0195162Y0029715D01*
X0194375Y0027815D01*
X0194375Y0025759D01*
X0195162Y0023860D01*
X0196616Y0022406D01*
X0198108Y0021787D01*
X0196616Y0021169D01*
X0195162Y0019715D01*
X0194543Y0018222D01*
X0193925Y0019715D01*
X0192471Y0021169D01*
X0190571Y0021956D01*
X0188515Y0021956D01*
X0186616Y0021169D01*
X0185162Y0019715D01*
X0184543Y0018222D01*
X0183925Y0019715D01*
X0182471Y0021169D01*
X0180978Y0021787D01*
X0182471Y0022406D01*
X0183925Y0023860D01*
X0184712Y0025759D01*
X0184712Y0027815D01*
X0183925Y0029715D01*
X0182471Y0031169D01*
X0180571Y0031956D01*
X0178515Y0031956D01*
X0176616Y0031169D01*
X0175162Y0029715D01*
X0174543Y0028222D01*
X0173925Y0029715D01*
X0172471Y0031169D01*
X0170571Y0031956D01*
X0168515Y0031956D01*
X0166616Y0031169D01*
X0165162Y0029715D01*
X0164543Y0028222D01*
X0163925Y0029715D01*
X0162471Y0031169D01*
X0160571Y0031956D01*
X0158515Y0031956D01*
X0156616Y0031169D01*
X0155162Y0029715D01*
X0154543Y0028222D01*
X0153925Y0029715D01*
X0152471Y0031169D01*
X0150571Y0031956D01*
X0148515Y0031956D01*
X0146616Y0031169D01*
X0145162Y0029715D01*
X0144543Y0028222D01*
X0143925Y0029715D01*
X0142568Y0031072D01*
X0143602Y0032107D01*
X0144342Y0033892D01*
X0144342Y0035824D01*
X0143602Y0037610D01*
X0143073Y0038139D01*
X0144424Y0037580D01*
X0146356Y0037580D01*
X0148141Y0038319D01*
X0149508Y0039685D01*
X0150247Y0041471D01*
X0150247Y0043403D01*
X0149508Y0045189D01*
X0148190Y0046507D01*
X0148190Y0083250D01*
X0147763Y0084279D01*
X0146976Y0085067D01*
X0123157Y0108885D01*
X0123157Y0108885D01*
X0122370Y0109673D01*
X0121340Y0110099D01*
X0109105Y0110099D01*
X0109105Y0144825D01*
X0107817Y0146113D01*
X0106350Y0146113D01*
X0106350Y0169825D01*
X0105750Y0170425D01*
X0105750Y0171093D01*
X0105641Y0171499D01*
X0105430Y0171864D01*
X0105132Y0172162D01*
X0104767Y0172373D01*
X0104360Y0172482D01*
X0101591Y0172482D01*
X0101591Y0171123D01*
X0101590Y0171123D01*
X0101590Y0172482D01*
X0098821Y0172482D01*
X0098414Y0172373D01*
X0098049Y0172162D01*
X0097751Y0171864D01*
X0097541Y0171499D01*
X0097440Y0171123D01*
X0079583Y0171123D01*
X0073398Y0177308D01*
X0072149Y0177825D01*
X0066605Y0177825D01*
X0066605Y0181383D01*
X0088235Y0203013D01*
X0192555Y0203013D01*
X0192498Y0202981D01*
X0192200Y0202683D01*
X0191990Y0202318D01*
X0191881Y0201911D01*
X0191881Y0198350D01*
X0195831Y0198350D01*
X0195831Y0197150D01*
X0197031Y0197150D01*
X0197031Y0192200D01*
X0199591Y0192200D01*
X0199998Y0192309D01*
X0200363Y0192520D01*
X0200506Y0192663D01*
X0201569Y0191600D01*
X0209292Y0191600D01*
X0209931Y0192239D01*
X0210284Y0191886D01*
X0210284Y0188846D01*
X0210924Y0187302D01*
X0212105Y0186121D01*
X0222251Y0175975D01*
X0222014Y0175838D01*
X0220059Y0173884D01*
X0218677Y0171490D01*
X0217961Y0168819D01*
X0217961Y0166055D01*
X0218677Y0163384D01*
X0220059Y0160990D01*
X0222014Y0159036D01*
X0224408Y0157653D01*
X0227078Y0156938D01*
X0229843Y0156938D01*
X0232513Y0157653D01*
X0234907Y0159036D01*
X0236862Y0160990D01*
X0238244Y0163384D01*
X0238960Y0166055D01*
X0238960Y0168819D01*
X0238244Y0171490D01*
X0236862Y0173884D01*
X0234907Y0175838D01*
X0232513Y0177221D01*
X0232362Y0177261D01*
X0232021Y0178084D01*
X0218684Y0191421D01*
X0218684Y0191498D01*
X0222549Y0191498D01*
X0222923Y0191123D01*
X0227896Y0191123D01*
X0228794Y0192021D01*
X0229123Y0191832D01*
X0229530Y0191723D01*
X0231128Y0191723D01*
X0231128Y0194710D01*
X0231502Y0194710D01*
X0231502Y0191723D01*
X0233100Y0191723D01*
X0233507Y0191832D01*
X0233872Y0192043D01*
X0234170Y0192340D01*
X0234381Y0192705D01*
X0234490Y0193112D01*
X0234490Y0194710D01*
X0231502Y0194710D01*
X0231502Y0195085D01*
X0231128Y0195085D01*
X0231128Y0198072D01*
X0229530Y0198072D01*
X0229123Y0197963D01*
X0228794Y0197774D01*
X0227896Y0198672D01*
X0222923Y0198672D01*
X0222549Y0198298D01*
X0219581Y0198298D01*
X0219581Y0202612D01*
X0218292Y0203900D01*
X0217786Y0203900D01*
X0217786Y0208369D01*
X0217591Y0208839D01*
X0223762Y0208839D01*
X0224362Y0209439D01*
X0224622Y0209439D01*
X0224622Y0209700D01*
X0224622Y0209439D01*
X0225620Y0209439D01*
X0226027Y0209548D01*
X0226392Y0209759D01*
X0226690Y0210057D01*
X0226900Y0210422D01*
X0227009Y0210829D01*
X0227009Y0210916D01*
X0228421Y0210916D01*
X0228421Y0214838D01*
X0229485Y0214838D01*
X0229485Y0215902D01*
X0232817Y0215902D01*
X0232817Y0218435D01*
X0232707Y0218842D01*
X0232634Y0218969D01*
X0232880Y0218930D01*
X0232880Y0223628D01*
X0229223Y0223628D01*
X0229223Y0222811D01*
X0229328Y0222149D01*
X0229535Y0221511D01*
X0229839Y0220914D01*
X0230233Y0220372D01*
X0230707Y0219898D01*
X0230808Y0219824D01*
X0229485Y0219824D01*
X0229485Y0215902D01*
X0228421Y0215902D01*
X0228421Y0219268D01*
X0228658Y0219506D01*
X0228869Y0219871D01*
X0228978Y0220278D01*
X0228978Y0223628D01*
X0220104Y0223628D01*
X0220104Y0224828D01*
X0228978Y0224828D01*
X0228978Y0227146D01*
X0229637Y0227146D01*
X0229535Y0226945D01*
X0229328Y0226308D01*
X0229223Y0225646D01*
X0229223Y0224828D01*
X0232880Y0224828D01*
X0232880Y0223628D01*
X0234080Y0223628D01*
X0234080Y0218930D01*
X0234477Y0218993D01*
X0235115Y0219200D01*
X0235712Y0219504D01*
X0236254Y0219898D01*
X0236728Y0220372D01*
X0237122Y0220914D01*
X0237426Y0221511D01*
X0237633Y0222149D01*
X0237738Y0222811D01*
X0237738Y0223628D01*
X0234080Y0223628D01*
X0234080Y0224828D01*
X0237738Y0224828D01*
X0237738Y0225646D01*
X0237633Y0226308D01*
X0237426Y0226945D01*
X0237323Y0227146D01*
X0249819Y0227146D01*
X0251228Y0227054D01*
X0253949Y0226325D01*
X0256389Y0224916D01*
X0258381Y0222924D01*
X0259790Y0220484D01*
X0260519Y0217763D01*
X0260611Y0216354D01*
X0260611Y0011269D01*
X0025710Y0011074D01*
X0011074Y0011074D01*
X0011074Y0011271D02*
X0260611Y0011271D01*
X0260611Y0012470D02*
X0232535Y0012470D01*
X0233733Y0013668D02*
X0260611Y0013668D01*
X0260611Y0014867D02*
X0234342Y0014867D01*
X0234712Y0016065D02*
X0260611Y0016065D01*
X0260611Y0017264D02*
X0234712Y0017264D01*
X0234444Y0018462D02*
X0260611Y0018462D01*
X0260611Y0019661D02*
X0233948Y0019661D01*
X0232781Y0020859D02*
X0260611Y0020859D01*
X0260611Y0022058D02*
X0231631Y0022058D01*
X0233321Y0023256D02*
X0260611Y0023256D01*
X0260611Y0024455D02*
X0234171Y0024455D01*
X0234668Y0025653D02*
X0260611Y0025653D01*
X0260611Y0026852D02*
X0234712Y0026852D01*
X0234615Y0028050D02*
X0260611Y0028050D01*
X0260611Y0029249D02*
X0234118Y0029249D01*
X0233193Y0030447D02*
X0260611Y0030447D01*
X0260611Y0031646D02*
X0231320Y0031646D01*
X0227766Y0031646D02*
X0221320Y0031646D01*
X0223193Y0030447D02*
X0225894Y0030447D01*
X0224968Y0029249D02*
X0224118Y0029249D01*
X0217766Y0031646D02*
X0211320Y0031646D01*
X0213193Y0030447D02*
X0215861Y0030447D01*
X0214968Y0029249D02*
X0214118Y0029249D01*
X0214171Y0024455D02*
X0214915Y0024455D01*
X0215765Y0023256D02*
X0213321Y0023256D01*
X0211631Y0022058D02*
X0217456Y0022058D01*
X0216306Y0020859D02*
X0211615Y0020859D01*
X0211297Y0021021D02*
X0210613Y0021243D01*
X0209928Y0021352D01*
X0209928Y0017172D01*
X0214108Y0017172D01*
X0213999Y0017857D01*
X0213777Y0018541D01*
X0213451Y0019182D01*
X0213028Y0019764D01*
X0212519Y0020272D01*
X0211938Y0020695D01*
X0211297Y0021021D01*
X0209928Y0020859D02*
X0209159Y0020859D01*
X0209159Y0021352D02*
X0208473Y0021243D01*
X0207790Y0021021D01*
X0207149Y0020695D01*
X0206567Y0020272D01*
X0206059Y0019764D01*
X0205636Y0019182D01*
X0205310Y0018541D01*
X0205087Y0017857D01*
X0204979Y0017172D01*
X0209159Y0017172D01*
X0209159Y0021352D01*
X0209159Y0019661D02*
X0209928Y0019661D01*
X0209928Y0018462D02*
X0209159Y0018462D01*
X0209159Y0017264D02*
X0209928Y0017264D01*
X0209928Y0017172D02*
X0209159Y0017172D01*
X0209159Y0016403D01*
X0209928Y0016403D01*
X0209928Y0017172D01*
X0209928Y0016403D02*
X0214108Y0016403D01*
X0213999Y0015718D01*
X0213777Y0015034D01*
X0213451Y0014393D01*
X0213028Y0013811D01*
X0212519Y0013303D01*
X0211938Y0012880D01*
X0211297Y0012554D01*
X0210613Y0012331D01*
X0209928Y0012223D01*
X0209928Y0016403D01*
X0209928Y0016065D02*
X0209159Y0016065D01*
X0209159Y0016403D02*
X0209159Y0012223D01*
X0208473Y0012331D01*
X0207790Y0012554D01*
X0207149Y0012880D01*
X0206567Y0013303D01*
X0206059Y0013811D01*
X0205636Y0014393D01*
X0205310Y0015034D01*
X0205087Y0015718D01*
X0204979Y0016403D01*
X0209159Y0016403D01*
X0209159Y0014867D02*
X0209928Y0014867D01*
X0209928Y0013668D02*
X0209159Y0013668D01*
X0209159Y0012470D02*
X0209928Y0012470D01*
X0211038Y0012470D02*
X0216552Y0012470D01*
X0215353Y0013668D02*
X0212885Y0013668D01*
X0213692Y0014867D02*
X0214745Y0014867D01*
X0214375Y0016065D02*
X0214054Y0016065D01*
X0214093Y0017264D02*
X0214375Y0017264D01*
X0214643Y0018462D02*
X0213803Y0018462D01*
X0213103Y0019661D02*
X0215139Y0019661D01*
X0207472Y0020859D02*
X0202781Y0020859D01*
X0201631Y0022058D02*
X0207456Y0022058D01*
X0205765Y0023256D02*
X0203321Y0023256D01*
X0204171Y0024455D02*
X0204915Y0024455D01*
X0204968Y0029249D02*
X0204118Y0029249D01*
X0203193Y0030447D02*
X0205894Y0030447D01*
X0207766Y0031646D02*
X0201320Y0031646D01*
X0197766Y0031646D02*
X0181320Y0031646D01*
X0183193Y0030447D02*
X0186808Y0030447D01*
X0186567Y0030272D02*
X0186059Y0029764D01*
X0185636Y0029182D01*
X0185310Y0028541D01*
X0185087Y0027857D01*
X0184979Y0027172D01*
X0189159Y0027172D01*
X0189159Y0031352D01*
X0188473Y0031243D01*
X0187790Y0031021D01*
X0187149Y0030695D01*
X0186567Y0030272D01*
X0185685Y0029249D02*
X0184118Y0029249D01*
X0184615Y0028050D02*
X0185150Y0028050D01*
X0184712Y0026852D02*
X0189159Y0026852D01*
X0189159Y0027172D02*
X0189159Y0026403D01*
X0189928Y0026403D01*
X0189928Y0027172D01*
X0194108Y0027172D01*
X0193999Y0027857D01*
X0193777Y0028541D01*
X0193451Y0029182D01*
X0193028Y0029764D01*
X0192519Y0030272D01*
X0191938Y0030695D01*
X0191297Y0031021D01*
X0190613Y0031243D01*
X0189928Y0031352D01*
X0189928Y0027172D01*
X0189159Y0027172D01*
X0189159Y0026403D02*
X0184979Y0026403D01*
X0185087Y0025718D01*
X0185310Y0025034D01*
X0185636Y0024393D01*
X0186059Y0023811D01*
X0186567Y0023303D01*
X0187149Y0022880D01*
X0187790Y0022554D01*
X0188473Y0022331D01*
X0189159Y0022223D01*
X0189159Y0026403D01*
X0189159Y0025653D02*
X0189928Y0025653D01*
X0189928Y0026403D02*
X0189928Y0022223D01*
X0190613Y0022331D01*
X0191297Y0022554D01*
X0191938Y0022880D01*
X0192519Y0023303D01*
X0193028Y0023811D01*
X0193451Y0024393D01*
X0193777Y0025034D01*
X0193999Y0025718D01*
X0194108Y0026403D01*
X0189928Y0026403D01*
X0189928Y0026852D02*
X0194375Y0026852D01*
X0194419Y0025653D02*
X0193978Y0025653D01*
X0193482Y0024455D02*
X0194915Y0024455D01*
X0195765Y0023256D02*
X0192455Y0023256D01*
X0192781Y0020859D02*
X0196306Y0020859D01*
X0197456Y0022058D02*
X0181631Y0022058D01*
X0182781Y0020859D02*
X0186306Y0020859D01*
X0185139Y0019661D02*
X0183948Y0019661D01*
X0184444Y0018462D02*
X0184643Y0018462D01*
X0184745Y0014867D02*
X0184342Y0014867D01*
X0183733Y0013668D02*
X0185353Y0013668D01*
X0186552Y0012470D02*
X0182535Y0012470D01*
X0176552Y0012470D02*
X0171038Y0012470D01*
X0171297Y0012554D02*
X0170613Y0012331D01*
X0169928Y0012223D01*
X0169928Y0016403D01*
X0169928Y0017172D01*
X0174108Y0017172D01*
X0173999Y0017857D01*
X0173777Y0018541D01*
X0173451Y0019182D01*
X0173028Y0019764D01*
X0172519Y0020272D01*
X0171938Y0020695D01*
X0171297Y0021021D01*
X0170613Y0021243D01*
X0169928Y0021352D01*
X0169928Y0017172D01*
X0169159Y0017172D01*
X0169159Y0021352D01*
X0168473Y0021243D01*
X0167790Y0021021D01*
X0167149Y0020695D01*
X0166567Y0020272D01*
X0166059Y0019764D01*
X0165636Y0019182D01*
X0165310Y0018541D01*
X0165087Y0017857D01*
X0164979Y0017172D01*
X0169159Y0017172D01*
X0169159Y0016403D01*
X0169928Y0016403D01*
X0174108Y0016403D01*
X0173999Y0015718D01*
X0173777Y0015034D01*
X0173451Y0014393D01*
X0173028Y0013811D01*
X0172519Y0013303D01*
X0171938Y0012880D01*
X0171297Y0012554D01*
X0169928Y0012470D02*
X0169159Y0012470D01*
X0169159Y0012223D02*
X0169159Y0016403D01*
X0164979Y0016403D01*
X0165087Y0015718D01*
X0165310Y0015034D01*
X0165636Y0014393D01*
X0166059Y0013811D01*
X0166567Y0013303D01*
X0167149Y0012880D01*
X0167790Y0012554D01*
X0168473Y0012331D01*
X0169159Y0012223D01*
X0168048Y0012470D02*
X0162535Y0012470D01*
X0163733Y0013668D02*
X0166202Y0013668D01*
X0165395Y0014867D02*
X0164342Y0014867D01*
X0164712Y0016065D02*
X0165032Y0016065D01*
X0164993Y0017264D02*
X0164712Y0017264D01*
X0164444Y0018462D02*
X0165284Y0018462D01*
X0165984Y0019661D02*
X0163948Y0019661D01*
X0162781Y0020859D02*
X0167472Y0020859D01*
X0167456Y0022058D02*
X0161631Y0022058D01*
X0163321Y0023256D02*
X0165765Y0023256D01*
X0164915Y0024455D02*
X0164171Y0024455D01*
X0164118Y0029249D02*
X0164968Y0029249D01*
X0165894Y0030447D02*
X0163193Y0030447D01*
X0161320Y0031646D02*
X0167766Y0031646D01*
X0171320Y0031646D02*
X0177766Y0031646D01*
X0175894Y0030447D02*
X0173193Y0030447D01*
X0174118Y0029249D02*
X0174968Y0029249D01*
X0174915Y0024455D02*
X0174171Y0024455D01*
X0173321Y0023256D02*
X0175765Y0023256D01*
X0177456Y0022058D02*
X0171631Y0022058D01*
X0171615Y0020859D02*
X0176306Y0020859D01*
X0175139Y0019661D02*
X0173103Y0019661D01*
X0173803Y0018462D02*
X0174643Y0018462D01*
X0174375Y0017264D02*
X0174093Y0017264D01*
X0174054Y0016065D02*
X0174375Y0016065D01*
X0174745Y0014867D02*
X0173692Y0014867D01*
X0172885Y0013668D02*
X0175353Y0013668D01*
X0169928Y0013668D02*
X0169159Y0013668D01*
X0169159Y0014867D02*
X0169928Y0014867D01*
X0169928Y0016065D02*
X0169159Y0016065D01*
X0169159Y0017264D02*
X0169928Y0017264D01*
X0169928Y0018462D02*
X0169159Y0018462D01*
X0169159Y0019661D02*
X0169928Y0019661D01*
X0169928Y0020859D02*
X0169159Y0020859D01*
X0183321Y0023256D02*
X0186631Y0023256D01*
X0185605Y0024455D02*
X0184171Y0024455D01*
X0184668Y0025653D02*
X0185108Y0025653D01*
X0189159Y0024455D02*
X0189928Y0024455D01*
X0189928Y0023256D02*
X0189159Y0023256D01*
X0189159Y0028050D02*
X0189928Y0028050D01*
X0189928Y0029249D02*
X0189159Y0029249D01*
X0189159Y0030447D02*
X0189928Y0030447D01*
X0192278Y0030447D02*
X0195894Y0030447D01*
X0194968Y0029249D02*
X0193402Y0029249D01*
X0193937Y0028050D02*
X0194472Y0028050D01*
X0193948Y0019661D02*
X0195139Y0019661D01*
X0194643Y0018462D02*
X0194444Y0018462D01*
X0194342Y0014867D02*
X0194745Y0014867D01*
X0195353Y0013668D02*
X0193733Y0013668D01*
X0192535Y0012470D02*
X0196552Y0012470D01*
X0202535Y0012470D02*
X0208048Y0012470D01*
X0206202Y0013668D02*
X0203733Y0013668D01*
X0204342Y0014867D02*
X0205395Y0014867D01*
X0205032Y0016065D02*
X0204712Y0016065D01*
X0204712Y0017264D02*
X0204993Y0017264D01*
X0205284Y0018462D02*
X0204444Y0018462D01*
X0203948Y0019661D02*
X0205984Y0019661D01*
X0222535Y0012470D02*
X0226552Y0012470D01*
X0225353Y0013668D02*
X0223733Y0013668D01*
X0224342Y0014867D02*
X0224745Y0014867D01*
X0260611Y0032844D02*
X0143908Y0032844D01*
X0144342Y0034043D02*
X0260611Y0034043D01*
X0260611Y0035241D02*
X0144342Y0035241D01*
X0144087Y0036440D02*
X0260611Y0036440D01*
X0260611Y0037638D02*
X0146498Y0037638D01*
X0144282Y0037638D02*
X0143574Y0037638D01*
X0139484Y0034858D02*
X0139484Y0084661D01*
X0118815Y0105331D01*
X0101591Y0105331D01*
X0101591Y0107299D02*
X0120783Y0107299D01*
X0145390Y0082693D01*
X0145390Y0042437D01*
X0148659Y0038837D02*
X0260611Y0038837D01*
X0260611Y0040035D02*
X0149653Y0040035D01*
X0150149Y0041234D02*
X0260611Y0041234D01*
X0260611Y0042432D02*
X0150247Y0042432D01*
X0150153Y0043631D02*
X0260611Y0043631D01*
X0260611Y0044829D02*
X0149657Y0044829D01*
X0148668Y0046028D02*
X0260611Y0046028D01*
X0260611Y0047226D02*
X0148190Y0047226D01*
X0148190Y0048425D02*
X0260611Y0048425D01*
X0260611Y0049623D02*
X0148190Y0049623D01*
X0148190Y0050822D02*
X0260611Y0050822D01*
X0260611Y0052020D02*
X0148190Y0052020D01*
X0148190Y0053219D02*
X0260611Y0053219D01*
X0260611Y0054417D02*
X0193355Y0054417D01*
X0192856Y0053918D02*
X0194145Y0055207D01*
X0194145Y0186951D01*
X0192856Y0188239D01*
X0163475Y0188239D01*
X0162186Y0186951D01*
X0162186Y0055207D01*
X0163475Y0053918D01*
X0165297Y0053918D01*
X0192856Y0053918D01*
X0194145Y0055616D02*
X0260611Y0055616D01*
X0260611Y0056814D02*
X0194145Y0056814D01*
X0194145Y0058013D02*
X0260611Y0058013D01*
X0260611Y0059211D02*
X0194145Y0059211D01*
X0194145Y0060410D02*
X0260611Y0060410D01*
X0260611Y0061609D02*
X0194145Y0061609D01*
X0194145Y0062807D02*
X0260611Y0062807D01*
X0260611Y0064006D02*
X0194145Y0064006D01*
X0194145Y0065204D02*
X0260611Y0065204D01*
X0260611Y0066403D02*
X0194145Y0066403D01*
X0194145Y0067601D02*
X0260611Y0067601D01*
X0260611Y0068800D02*
X0194145Y0068800D01*
X0194145Y0069998D02*
X0260611Y0069998D01*
X0260611Y0071197D02*
X0194145Y0071197D01*
X0194145Y0072395D02*
X0260611Y0072395D01*
X0260611Y0073594D02*
X0194145Y0073594D01*
X0194145Y0074792D02*
X0260611Y0074792D01*
X0260611Y0075991D02*
X0194145Y0075991D01*
X0194145Y0077189D02*
X0260611Y0077189D01*
X0260611Y0078388D02*
X0194145Y0078388D01*
X0194145Y0079586D02*
X0260611Y0079586D01*
X0260611Y0080785D02*
X0194145Y0080785D01*
X0194145Y0081983D02*
X0260611Y0081983D01*
X0260611Y0083182D02*
X0194145Y0083182D01*
X0194145Y0084380D02*
X0260611Y0084380D01*
X0260611Y0085579D02*
X0194145Y0085579D01*
X0194145Y0086777D02*
X0260611Y0086777D01*
X0260611Y0087976D02*
X0194145Y0087976D01*
X0194145Y0089174D02*
X0260611Y0089174D01*
X0260611Y0090373D02*
X0194145Y0090373D01*
X0194145Y0091571D02*
X0260611Y0091571D01*
X0260611Y0092770D02*
X0194145Y0092770D01*
X0194145Y0093968D02*
X0260611Y0093968D01*
X0260611Y0095167D02*
X0194145Y0095167D01*
X0194145Y0096365D02*
X0260611Y0096365D01*
X0260611Y0097564D02*
X0194145Y0097564D01*
X0194145Y0098762D02*
X0260611Y0098762D01*
X0260611Y0099961D02*
X0194145Y0099961D01*
X0194145Y0101159D02*
X0260611Y0101159D01*
X0260611Y0102358D02*
X0194145Y0102358D01*
X0194145Y0103556D02*
X0260611Y0103556D01*
X0260611Y0104755D02*
X0194145Y0104755D01*
X0194145Y0105953D02*
X0260611Y0105953D01*
X0260611Y0107152D02*
X0194145Y0107152D01*
X0194145Y0108350D02*
X0260611Y0108350D01*
X0260611Y0109549D02*
X0194145Y0109549D01*
X0194145Y0110747D02*
X0260611Y0110747D01*
X0260611Y0111946D02*
X0194145Y0111946D01*
X0194145Y0113145D02*
X0260611Y0113145D01*
X0260611Y0114343D02*
X0194145Y0114343D01*
X0194145Y0115542D02*
X0260611Y0115542D01*
X0260611Y0116740D02*
X0194145Y0116740D01*
X0194145Y0117939D02*
X0260611Y0117939D01*
X0260611Y0119137D02*
X0194145Y0119137D01*
X0194145Y0120336D02*
X0260611Y0120336D01*
X0260611Y0121534D02*
X0194145Y0121534D01*
X0194145Y0122733D02*
X0260611Y0122733D01*
X0260611Y0123931D02*
X0194145Y0123931D01*
X0194145Y0125130D02*
X0260611Y0125130D01*
X0260611Y0126328D02*
X0194145Y0126328D01*
X0194145Y0127527D02*
X0260611Y0127527D01*
X0260611Y0128725D02*
X0194145Y0128725D01*
X0194145Y0129924D02*
X0260611Y0129924D01*
X0260611Y0131122D02*
X0194145Y0131122D01*
X0194145Y0132321D02*
X0260611Y0132321D01*
X0260611Y0133519D02*
X0194145Y0133519D01*
X0194145Y0134718D02*
X0260611Y0134718D01*
X0260611Y0135916D02*
X0194145Y0135916D01*
X0194145Y0137115D02*
X0260611Y0137115D01*
X0260611Y0138313D02*
X0194145Y0138313D01*
X0194145Y0139512D02*
X0260611Y0139512D01*
X0260611Y0140710D02*
X0194145Y0140710D01*
X0194145Y0141909D02*
X0260611Y0141909D01*
X0260611Y0143107D02*
X0194145Y0143107D01*
X0194145Y0144306D02*
X0260611Y0144306D01*
X0260611Y0145504D02*
X0194145Y0145504D01*
X0194145Y0146703D02*
X0260611Y0146703D01*
X0260611Y0147901D02*
X0194145Y0147901D01*
X0194145Y0149100D02*
X0260611Y0149100D01*
X0260611Y0150298D02*
X0194145Y0150298D01*
X0194145Y0151497D02*
X0260611Y0151497D01*
X0260611Y0152695D02*
X0194145Y0152695D01*
X0194145Y0153894D02*
X0260611Y0153894D01*
X0260611Y0155092D02*
X0194145Y0155092D01*
X0194145Y0156291D02*
X0260611Y0156291D01*
X0260611Y0157489D02*
X0231902Y0157489D01*
X0234305Y0158688D02*
X0260611Y0158688D01*
X0260611Y0159886D02*
X0235758Y0159886D01*
X0236917Y0161085D02*
X0260611Y0161085D01*
X0260611Y0162283D02*
X0237609Y0162283D01*
X0238270Y0163482D02*
X0260611Y0163482D01*
X0260611Y0164680D02*
X0238592Y0164680D01*
X0238913Y0165879D02*
X0260611Y0165879D01*
X0260611Y0167078D02*
X0238960Y0167078D01*
X0238960Y0168276D02*
X0260611Y0168276D01*
X0260611Y0169475D02*
X0238784Y0169475D01*
X0238463Y0170673D02*
X0260611Y0170673D01*
X0260611Y0171872D02*
X0238024Y0171872D01*
X0237332Y0173070D02*
X0260611Y0173070D01*
X0260611Y0174269D02*
X0236477Y0174269D01*
X0235279Y0175467D02*
X0260611Y0175467D01*
X0260611Y0176666D02*
X0233475Y0176666D01*
X0232112Y0177864D02*
X0260611Y0177864D01*
X0260611Y0179063D02*
X0231042Y0179063D01*
X0229844Y0180261D02*
X0260611Y0180261D01*
X0260611Y0181460D02*
X0228645Y0181460D01*
X0227447Y0182658D02*
X0260611Y0182658D01*
X0260611Y0183857D02*
X0226248Y0183857D01*
X0225050Y0185055D02*
X0260611Y0185055D01*
X0260611Y0186254D02*
X0223851Y0186254D01*
X0222653Y0187452D02*
X0260611Y0187452D01*
X0260611Y0188651D02*
X0221454Y0188651D01*
X0220256Y0189849D02*
X0260611Y0189849D01*
X0260611Y0191048D02*
X0219057Y0191048D01*
X0211972Y0186254D02*
X0194145Y0186254D01*
X0194145Y0185055D02*
X0213170Y0185055D01*
X0214369Y0183857D02*
X0194145Y0183857D01*
X0194145Y0182658D02*
X0215567Y0182658D01*
X0216766Y0181460D02*
X0194145Y0181460D01*
X0194145Y0180261D02*
X0217965Y0180261D01*
X0219163Y0179063D02*
X0213780Y0179063D01*
X0213742Y0179100D02*
X0196919Y0179100D01*
X0195631Y0177812D01*
X0195631Y0168089D01*
X0196919Y0166800D01*
X0213742Y0166800D01*
X0215031Y0168089D01*
X0215031Y0177812D01*
X0213742Y0179100D01*
X0214978Y0177864D02*
X0220362Y0177864D01*
X0221560Y0176666D02*
X0215031Y0176666D01*
X0215031Y0175467D02*
X0221643Y0175467D01*
X0220444Y0174269D02*
X0215031Y0174269D01*
X0215031Y0173070D02*
X0219589Y0173070D01*
X0218897Y0171872D02*
X0215031Y0171872D01*
X0215031Y0170673D02*
X0218458Y0170673D01*
X0218137Y0169475D02*
X0215031Y0169475D01*
X0215031Y0168276D02*
X0217961Y0168276D01*
X0217961Y0167078D02*
X0214019Y0167078D01*
X0218009Y0165879D02*
X0194145Y0165879D01*
X0194145Y0164680D02*
X0218330Y0164680D01*
X0218651Y0163482D02*
X0194145Y0163482D01*
X0194145Y0162283D02*
X0219313Y0162283D01*
X0220005Y0161085D02*
X0194145Y0161085D01*
X0194145Y0159886D02*
X0221163Y0159886D01*
X0222616Y0158688D02*
X0194145Y0158688D01*
X0194145Y0157489D02*
X0225020Y0157489D01*
X0196642Y0167078D02*
X0194145Y0167078D01*
X0194145Y0168276D02*
X0195631Y0168276D01*
X0195631Y0169475D02*
X0194145Y0169475D01*
X0194145Y0170673D02*
X0195631Y0170673D01*
X0195631Y0171872D02*
X0194145Y0171872D01*
X0194145Y0173070D02*
X0195631Y0173070D01*
X0195631Y0174269D02*
X0194145Y0174269D01*
X0194145Y0175467D02*
X0195631Y0175467D01*
X0195631Y0176666D02*
X0194145Y0176666D01*
X0194145Y0177864D02*
X0195683Y0177864D01*
X0196882Y0179063D02*
X0194145Y0179063D01*
X0193643Y0187452D02*
X0210861Y0187452D01*
X0210365Y0188651D02*
X0073872Y0188651D01*
X0072674Y0187452D02*
X0162687Y0187452D01*
X0162186Y0186254D02*
X0071475Y0186254D01*
X0070277Y0185055D02*
X0108322Y0185055D01*
X0108750Y0185483D02*
X0107461Y0184195D01*
X0107461Y0172923D01*
X0108750Y0171635D01*
X0120022Y0171635D01*
X0121310Y0172923D01*
X0121310Y0184195D01*
X0120022Y0185483D01*
X0108750Y0185483D01*
X0107461Y0183857D02*
X0069078Y0183857D01*
X0067880Y0182658D02*
X0107461Y0182658D01*
X0107461Y0181460D02*
X0066681Y0181460D01*
X0066605Y0180261D02*
X0107461Y0180261D01*
X0107461Y0179063D02*
X0066605Y0179063D01*
X0066605Y0177864D02*
X0107461Y0177864D01*
X0107461Y0176666D02*
X0074040Y0176666D01*
X0075239Y0175467D02*
X0107461Y0175467D01*
X0107461Y0174269D02*
X0076437Y0174269D01*
X0077636Y0173070D02*
X0107461Y0173070D01*
X0108513Y0171872D02*
X0105423Y0171872D01*
X0105750Y0170673D02*
X0162186Y0170673D01*
X0162186Y0169475D02*
X0106350Y0169475D01*
X0106350Y0168276D02*
X0162186Y0168276D01*
X0162186Y0167078D02*
X0106350Y0167078D01*
X0106350Y0165879D02*
X0162186Y0165879D01*
X0162186Y0164680D02*
X0106350Y0164680D01*
X0106350Y0163482D02*
X0162186Y0163482D01*
X0162186Y0162283D02*
X0106350Y0162283D01*
X0106350Y0161085D02*
X0162186Y0161085D01*
X0162186Y0159886D02*
X0106350Y0159886D01*
X0106350Y0158688D02*
X0162186Y0158688D01*
X0162186Y0157489D02*
X0106350Y0157489D01*
X0106350Y0156291D02*
X0162186Y0156291D01*
X0162186Y0155092D02*
X0106350Y0155092D01*
X0106350Y0153894D02*
X0162186Y0153894D01*
X0162186Y0152695D02*
X0106350Y0152695D01*
X0106350Y0151497D02*
X0162186Y0151497D01*
X0162186Y0150298D02*
X0106350Y0150298D01*
X0106350Y0149100D02*
X0162186Y0149100D01*
X0162186Y0147901D02*
X0106350Y0147901D01*
X0106350Y0146703D02*
X0162186Y0146703D01*
X0162186Y0145504D02*
X0108426Y0145504D01*
X0109071Y0144701D02*
X0108874Y0142732D01*
X0101591Y0142732D01*
X0092732Y0142732D01*
X0092732Y0140764D01*
X0101591Y0140764D01*
X0108874Y0140764D01*
X0108874Y0138795D01*
X0101591Y0138795D01*
X0092732Y0138795D01*
X0092732Y0136827D01*
X0101591Y0136827D01*
X0108874Y0136827D01*
X0108874Y0134858D01*
X0101591Y0134858D01*
X0092732Y0134858D01*
X0092732Y0132890D01*
X0101591Y0132890D01*
X0108874Y0132890D01*
X0108874Y0130921D01*
X0101591Y0130921D01*
X0092732Y0130921D01*
X0092732Y0128953D01*
X0101591Y0128953D01*
X0108874Y0128953D01*
X0108874Y0126984D01*
X0101591Y0126984D01*
X0092732Y0126984D01*
X0092732Y0125016D01*
X0092732Y0123047D01*
X0092732Y0121079D01*
X0101591Y0121079D01*
X0108874Y0121079D01*
X0108874Y0119110D01*
X0101591Y0119110D01*
X0092732Y0119110D01*
X0092732Y0117142D01*
X0101591Y0117142D01*
X0108874Y0117142D01*
X0108874Y0115173D01*
X0101591Y0115173D01*
X0092732Y0115173D01*
X0092732Y0113205D01*
X0101591Y0113205D01*
X0108874Y0113205D01*
X0108874Y0111236D01*
X0101591Y0111236D01*
X0092732Y0111236D01*
X0094110Y0109268D01*
X0101394Y0109268D01*
X0101591Y0109268D01*
X0096831Y0107855D02*
X0096831Y0106162D01*
X0087199Y0106162D01*
X0080473Y0112888D01*
X0080473Y0121833D01*
X0080047Y0122862D01*
X0074732Y0128177D01*
X0073944Y0128964D01*
X0072915Y0129391D01*
X0061187Y0129391D01*
X0057245Y0133685D01*
X0057245Y0147891D01*
X0057693Y0148298D01*
X0058938Y0148298D01*
X0058938Y0148022D01*
X0060227Y0146733D01*
X0060704Y0146733D01*
X0060520Y0146684D01*
X0060155Y0146473D01*
X0059857Y0146175D01*
X0059647Y0145810D01*
X0059538Y0145404D01*
X0059538Y0143412D01*
X0062722Y0143412D01*
X0062722Y0142643D01*
X0063491Y0142643D01*
X0063491Y0139262D01*
X0065285Y0139262D01*
X0065692Y0139371D01*
X0066021Y0139561D01*
X0066639Y0138943D01*
X0066021Y0138325D01*
X0065692Y0138515D01*
X0065285Y0138624D01*
X0063491Y0138624D01*
X0063491Y0135243D01*
X0062722Y0135243D01*
X0062722Y0138624D01*
X0060927Y0138624D01*
X0060520Y0138515D01*
X0060155Y0138304D01*
X0059857Y0138006D01*
X0059647Y0137641D01*
X0059538Y0137234D01*
X0059538Y0135243D01*
X0062722Y0135243D01*
X0062722Y0134474D01*
X0059538Y0134474D01*
X0059538Y0132482D01*
X0059647Y0132075D01*
X0059857Y0131710D01*
X0060155Y0131413D01*
X0060520Y0131202D01*
X0060927Y0131093D01*
X0062722Y0131093D01*
X0062722Y0134474D01*
X0063491Y0134474D01*
X0063491Y0131093D01*
X0065285Y0131093D01*
X0065692Y0131202D01*
X0066021Y0131392D01*
X0066919Y0130493D01*
X0072679Y0130493D01*
X0073968Y0131782D01*
X0073968Y0132058D01*
X0076655Y0132058D01*
X0077684Y0132485D01*
X0078472Y0133272D01*
X0089069Y0143869D01*
X0093288Y0143869D01*
X0093288Y0109144D01*
X0094577Y0107855D01*
X0096831Y0107855D01*
X0096831Y0107152D02*
X0086209Y0107152D01*
X0085011Y0108350D02*
X0094082Y0108350D01*
X0093288Y0109549D02*
X0083812Y0109549D01*
X0082614Y0110747D02*
X0093288Y0110747D01*
X0092732Y0111236D02*
X0092732Y0113205D01*
X0093288Y0113145D02*
X0080473Y0113145D01*
X0080473Y0114343D02*
X0093288Y0114343D01*
X0092732Y0115173D02*
X0092732Y0117142D01*
X0093288Y0116740D02*
X0080473Y0116740D01*
X0080473Y0115542D02*
X0093288Y0115542D01*
X0093288Y0117939D02*
X0080473Y0117939D01*
X0080473Y0119137D02*
X0093288Y0119137D01*
X0092732Y0119110D02*
X0092732Y0121079D01*
X0093288Y0121534D02*
X0080473Y0121534D01*
X0080473Y0120336D02*
X0093288Y0120336D01*
X0093288Y0122733D02*
X0080100Y0122733D01*
X0078977Y0123931D02*
X0093288Y0123931D01*
X0092732Y0123047D02*
X0101591Y0123047D01*
X0108874Y0123047D01*
X0108874Y0121079D01*
X0109105Y0121534D02*
X0162186Y0121534D01*
X0162186Y0120336D02*
X0109105Y0120336D01*
X0109105Y0119137D02*
X0162186Y0119137D01*
X0162186Y0117939D02*
X0109105Y0117939D01*
X0108874Y0117142D02*
X0108874Y0119110D01*
X0109105Y0116740D02*
X0162186Y0116740D01*
X0162186Y0115542D02*
X0109105Y0115542D01*
X0108874Y0115173D02*
X0108874Y0113205D01*
X0109105Y0113145D02*
X0162186Y0113145D01*
X0162186Y0114343D02*
X0109105Y0114343D01*
X0109105Y0111946D02*
X0162186Y0111946D01*
X0162186Y0110747D02*
X0109105Y0110747D01*
X0101591Y0103362D02*
X0086039Y0103362D01*
X0077673Y0111728D01*
X0077673Y0121276D01*
X0072358Y0126591D01*
X0059957Y0126591D01*
X0054445Y0132594D01*
X0054445Y0149130D01*
X0056610Y0151098D01*
X0063106Y0151098D01*
X0058938Y0153898D02*
X0056677Y0153898D01*
X0056187Y0153922D01*
X0056122Y0153898D01*
X0056053Y0153898D01*
X0055600Y0153711D01*
X0055139Y0153545D01*
X0055088Y0153499D01*
X0055024Y0153472D01*
X0054677Y0153125D01*
X0052923Y0151530D01*
X0052859Y0151504D01*
X0052512Y0151157D01*
X0052149Y0150827D01*
X0052120Y0150765D01*
X0052071Y0150716D01*
X0051884Y0150263D01*
X0051675Y0149819D01*
X0051671Y0149751D01*
X0051645Y0149687D01*
X0051645Y0149197D01*
X0051622Y0148707D01*
X0051645Y0148642D01*
X0051645Y0132654D01*
X0051624Y0132158D01*
X0051645Y0132099D01*
X0051645Y0132038D01*
X0051835Y0131578D01*
X0052006Y0131111D01*
X0052047Y0131066D01*
X0052071Y0131008D01*
X0052423Y0130657D01*
X0057559Y0125062D01*
X0057583Y0125004D01*
X0057935Y0124653D01*
X0058271Y0124287D01*
X0058327Y0124261D01*
X0058371Y0124217D01*
X0058830Y0124027D01*
X0059281Y0123817D01*
X0059343Y0123814D01*
X0059400Y0123791D01*
X0059897Y0123791D01*
X0060394Y0123769D01*
X0060452Y0123791D01*
X0071198Y0123791D01*
X0074873Y0120116D01*
X0074873Y0111171D01*
X0075299Y0110142D01*
X0076087Y0109355D01*
X0084453Y0100988D01*
X0085482Y0100562D01*
X0096831Y0100562D01*
X0096831Y0098288D01*
X0084542Y0098288D01*
X0070040Y0112790D01*
X0070040Y0114155D01*
X0071358Y0115473D01*
X0072098Y0117258D01*
X0072098Y0119191D01*
X0071358Y0120976D01*
X0069992Y0122342D01*
X0068206Y0123082D01*
X0066274Y0123082D01*
X0064489Y0122342D01*
X0063122Y0120976D01*
X0062383Y0119191D01*
X0062383Y0117258D01*
X0063120Y0115477D01*
X0062232Y0116366D01*
X0061444Y0117153D01*
X0060415Y0117580D01*
X0044581Y0117580D01*
X0043564Y0118597D01*
X0043564Y0122422D01*
X0043771Y0122422D01*
X0044371Y0121822D01*
X0049952Y0121822D01*
X0051241Y0123110D01*
X0051241Y0128833D01*
X0049952Y0130122D01*
X0044371Y0130122D01*
X0043771Y0129522D01*
X0043564Y0129522D01*
X0043564Y0135076D01*
X0046854Y0138367D01*
X0049155Y0138367D01*
X0050444Y0139656D01*
X0050444Y0144628D01*
X0049545Y0145526D01*
X0049735Y0145855D01*
X0049844Y0146262D01*
X0049844Y0147860D01*
X0046857Y0147860D01*
X0046857Y0148235D01*
X0046482Y0148235D01*
X0046482Y0151222D01*
X0044884Y0151222D01*
X0044477Y0151113D01*
X0044112Y0150902D01*
X0043814Y0150604D01*
X0043604Y0150240D01*
X0043494Y0149833D01*
X0043494Y0148235D01*
X0046482Y0148235D01*
X0046482Y0147860D01*
X0043494Y0147860D01*
X0043494Y0146262D01*
X0043604Y0145855D01*
X0043793Y0145526D01*
X0043470Y0145204D01*
X0043148Y0145526D01*
X0043337Y0145855D01*
X0043446Y0146262D01*
X0043446Y0147860D01*
X0040459Y0147860D01*
X0040459Y0148235D01*
X0040084Y0148235D01*
X0040084Y0151222D01*
X0038486Y0151222D01*
X0038079Y0151113D01*
X0037714Y0150902D01*
X0037497Y0150685D01*
X0036874Y0151308D01*
X0036874Y0156499D01*
X0037747Y0157372D01*
X0037747Y0162344D01*
X0037274Y0162818D01*
X0037274Y0164848D01*
X0043452Y0171025D01*
X0059548Y0171025D01*
X0059036Y0170514D01*
X0059036Y0164360D01*
X0059805Y0163592D01*
X0059805Y0163113D01*
X0058938Y0162246D01*
X0058938Y0156093D01*
X0059706Y0155324D01*
X0059706Y0154944D01*
X0058938Y0154175D01*
X0058938Y0153898D01*
X0059706Y0155092D02*
X0036874Y0155092D01*
X0036874Y0153894D02*
X0056042Y0153894D01*
X0054204Y0152695D02*
X0036874Y0152695D01*
X0036874Y0151497D02*
X0052852Y0151497D01*
X0051898Y0150298D02*
X0049701Y0150298D01*
X0049735Y0150240D02*
X0049524Y0150604D01*
X0049227Y0150902D01*
X0048862Y0151113D01*
X0048455Y0151222D01*
X0046857Y0151222D01*
X0046857Y0148235D01*
X0049844Y0148235D01*
X0049844Y0149833D01*
X0049735Y0150240D01*
X0049844Y0149100D02*
X0051640Y0149100D01*
X0051645Y0147901D02*
X0046857Y0147901D01*
X0046482Y0147901D02*
X0040459Y0147901D01*
X0040459Y0148235D02*
X0043446Y0148235D01*
X0043446Y0149833D01*
X0043337Y0150240D01*
X0043127Y0150604D01*
X0042829Y0150902D01*
X0042464Y0151113D01*
X0042057Y0151222D01*
X0040459Y0151222D01*
X0040459Y0148235D01*
X0040459Y0149100D02*
X0040084Y0149100D01*
X0040084Y0150298D02*
X0040459Y0150298D01*
X0043304Y0150298D02*
X0043637Y0150298D01*
X0043494Y0149100D02*
X0043446Y0149100D01*
X0043446Y0146703D02*
X0043494Y0146703D01*
X0043771Y0145504D02*
X0043170Y0145504D01*
X0040272Y0142142D02*
X0038205Y0140075D01*
X0038205Y0125972D01*
X0038205Y0115961D01*
X0042437Y0111728D01*
X0058579Y0111728D01*
X0078756Y0091551D01*
X0101591Y0091551D01*
X0101591Y0089583D02*
X0076394Y0089583D01*
X0057299Y0108677D01*
X0041354Y0108677D01*
X0035646Y0114386D01*
X0035646Y0125972D01*
X0035646Y0140370D01*
X0033874Y0142142D01*
X0033087Y0136630D02*
X0027575Y0142142D01*
X0023638Y0137909D02*
X0023638Y0147063D01*
X0024622Y0148047D01*
X0027575Y0148047D01*
X0030386Y0151497D02*
X0030874Y0151497D01*
X0030874Y0152695D02*
X0011074Y0152695D01*
X0011074Y0151497D02*
X0024764Y0151497D01*
X0022913Y0150298D02*
X0011074Y0150298D01*
X0011074Y0149100D02*
X0021715Y0149100D01*
X0020954Y0147901D02*
X0011074Y0147901D01*
X0011074Y0146703D02*
X0020838Y0146703D01*
X0020838Y0145504D02*
X0011074Y0145504D01*
X0011074Y0144306D02*
X0020838Y0144306D01*
X0020838Y0143107D02*
X0011074Y0143107D01*
X0011074Y0141909D02*
X0020838Y0141909D01*
X0020838Y0140710D02*
X0011074Y0140710D01*
X0011074Y0139512D02*
X0020838Y0139512D01*
X0019799Y0138313D02*
X0011074Y0138313D01*
X0011074Y0137115D02*
X0018600Y0137115D01*
X0017402Y0135916D02*
X0011074Y0135916D01*
X0011074Y0134718D02*
X0016203Y0134718D01*
X0015005Y0133519D02*
X0011074Y0133519D01*
X0011074Y0132321D02*
X0013806Y0132321D01*
X0012621Y0131122D02*
X0011074Y0131122D01*
X0011074Y0129924D02*
X0012173Y0129924D01*
X0012173Y0128725D02*
X0011074Y0128725D01*
X0011074Y0127527D02*
X0012173Y0127527D01*
X0012173Y0126328D02*
X0011074Y0126328D01*
X0011074Y0125130D02*
X0012173Y0125130D01*
X0012173Y0123931D02*
X0011074Y0123931D01*
X0011074Y0122733D02*
X0012173Y0122733D01*
X0012173Y0121534D02*
X0011074Y0121534D01*
X0011074Y0120336D02*
X0012173Y0120336D01*
X0012173Y0119137D02*
X0011074Y0119137D01*
X0011074Y0117939D02*
X0012173Y0117939D01*
X0012173Y0116740D02*
X0011074Y0116740D01*
X0011074Y0115542D02*
X0012173Y0115542D01*
X0012173Y0114343D02*
X0011074Y0114343D01*
X0011074Y0113145D02*
X0012173Y0113145D01*
X0012173Y0111946D02*
X0011074Y0111946D01*
X0011074Y0110747D02*
X0012173Y0110747D01*
X0012173Y0109549D02*
X0011074Y0109549D01*
X0011074Y0108350D02*
X0012173Y0108350D01*
X0012173Y0107152D02*
X0011074Y0107152D01*
X0011074Y0105953D02*
X0012173Y0105953D01*
X0012173Y0104755D02*
X0011074Y0104755D01*
X0011074Y0103556D02*
X0012579Y0103556D01*
X0013707Y0102358D02*
X0011074Y0102358D01*
X0011074Y0101159D02*
X0014905Y0101159D01*
X0016104Y0099961D02*
X0011074Y0099961D01*
X0011074Y0098762D02*
X0017302Y0098762D01*
X0018501Y0097564D02*
X0011074Y0097564D01*
X0011074Y0096365D02*
X0019699Y0096365D01*
X0020898Y0095167D02*
X0011074Y0095167D01*
X0011074Y0093968D02*
X0022096Y0093968D01*
X0020506Y0092770D02*
X0011074Y0092770D01*
X0011074Y0091571D02*
X0018954Y0091571D01*
X0018212Y0090373D02*
X0011074Y0090373D01*
X0011074Y0089174D02*
X0017796Y0089174D01*
X0017796Y0087976D02*
X0011074Y0087976D01*
X0011074Y0086777D02*
X0018069Y0086777D01*
X0018607Y0085579D02*
X0011074Y0085579D01*
X0011074Y0084380D02*
X0019805Y0084380D01*
X0023495Y0083182D02*
X0011074Y0083182D01*
X0011074Y0081983D02*
X0023495Y0081983D01*
X0023495Y0080785D02*
X0011074Y0080785D01*
X0011074Y0079586D02*
X0023495Y0079586D01*
X0023495Y0078388D02*
X0011074Y0078388D01*
X0011074Y0077189D02*
X0023832Y0077189D01*
X0024904Y0075991D02*
X0011074Y0075991D01*
X0011074Y0074792D02*
X0026102Y0074792D01*
X0027870Y0076984D02*
X0026295Y0078559D01*
X0026295Y0084760D01*
X0022654Y0088402D01*
X0029383Y0095167D02*
X0031601Y0095167D01*
X0031379Y0095703D02*
X0031943Y0094342D01*
X0030208Y0094342D01*
X0018173Y0106377D01*
X0018173Y0128202D01*
X0023779Y0133808D01*
X0027728Y0129860D01*
X0027728Y0123110D01*
X0029016Y0121822D01*
X0030287Y0121822D01*
X0030287Y0118825D01*
X0029300Y0117875D01*
X0027117Y0117875D01*
X0025799Y0119193D01*
X0024013Y0119932D01*
X0022081Y0119932D01*
X0020296Y0119193D01*
X0018929Y0117826D01*
X0018190Y0116041D01*
X0018190Y0114109D01*
X0018929Y0112323D01*
X0020296Y0110957D01*
X0022081Y0110217D01*
X0024013Y0110217D01*
X0025799Y0110957D01*
X0027117Y0112275D01*
X0030403Y0112275D01*
X0030933Y0112265D01*
X0030959Y0112275D01*
X0030986Y0112275D01*
X0031476Y0112478D01*
X0031970Y0112672D01*
X0031990Y0112691D01*
X0032015Y0112701D01*
X0032390Y0113076D01*
X0032939Y0113604D01*
X0033272Y0112800D01*
X0034060Y0112012D01*
X0039089Y0106983D01*
X0038652Y0106547D01*
X0038205Y0106547D01*
X0038205Y0106099D01*
X0038205Y0106099D01*
X0038205Y0106547D01*
X0037394Y0106547D01*
X0036987Y0106438D01*
X0036925Y0106402D01*
X0036863Y0106438D01*
X0036456Y0106547D01*
X0035646Y0106547D01*
X0035646Y0106099D01*
X0035646Y0106099D01*
X0035646Y0106547D01*
X0035198Y0106547D01*
X0034598Y0107147D01*
X0031575Y0107147D01*
X0030975Y0106547D01*
X0030528Y0106547D01*
X0030528Y0106099D01*
X0030527Y0106099D01*
X0030527Y0106547D01*
X0029717Y0106547D01*
X0029310Y0106438D01*
X0028945Y0106227D01*
X0028647Y0105929D01*
X0028437Y0105564D01*
X0028328Y0105157D01*
X0028328Y0102997D01*
X0030287Y0102997D01*
X0030287Y0102997D01*
X0028328Y0102997D01*
X0028328Y0100836D01*
X0028437Y0100429D01*
X0028647Y0100064D01*
X0028945Y0099767D01*
X0029310Y0099556D01*
X0029717Y0099447D01*
X0030527Y0099447D01*
X0030527Y0099895D01*
X0030528Y0099895D01*
X0030528Y0099447D01*
X0030975Y0099447D01*
X0031575Y0098847D01*
X0031880Y0098847D01*
X0031379Y0097636D01*
X0031379Y0095703D01*
X0031379Y0096365D02*
X0028184Y0096365D01*
X0026986Y0097564D02*
X0031379Y0097564D01*
X0031846Y0098762D02*
X0025787Y0098762D01*
X0024589Y0099961D02*
X0028751Y0099961D01*
X0028328Y0101159D02*
X0023390Y0101159D01*
X0022192Y0102358D02*
X0028328Y0102358D01*
X0028328Y0103556D02*
X0020993Y0103556D01*
X0019795Y0104755D02*
X0028328Y0104755D01*
X0028671Y0105953D02*
X0018596Y0105953D01*
X0018173Y0107152D02*
X0038920Y0107152D01*
X0037721Y0108350D02*
X0018173Y0108350D01*
X0018173Y0109549D02*
X0036523Y0109549D01*
X0035324Y0110747D02*
X0025293Y0110747D01*
X0026788Y0111946D02*
X0034126Y0111946D01*
X0033129Y0113145D02*
X0032461Y0113145D01*
X0030429Y0115075D02*
X0033087Y0117634D01*
X0033087Y0125972D01*
X0033087Y0136630D01*
X0030528Y0131020D02*
X0023638Y0137909D01*
X0023490Y0133519D02*
X0024068Y0133519D01*
X0025267Y0132321D02*
X0022292Y0132321D01*
X0021093Y0131122D02*
X0026465Y0131122D01*
X0027664Y0129924D02*
X0019895Y0129924D01*
X0018696Y0128725D02*
X0027728Y0128725D01*
X0027728Y0127527D02*
X0018173Y0127527D01*
X0018173Y0126328D02*
X0027728Y0126328D01*
X0027728Y0125130D02*
X0018173Y0125130D01*
X0018173Y0123931D02*
X0027728Y0123931D01*
X0028105Y0122733D02*
X0018173Y0122733D01*
X0018173Y0121534D02*
X0030287Y0121534D01*
X0030287Y0120336D02*
X0018173Y0120336D01*
X0018173Y0119137D02*
X0020240Y0119137D01*
X0019041Y0117939D02*
X0018173Y0117939D01*
X0018173Y0116740D02*
X0018479Y0116740D01*
X0018190Y0115542D02*
X0018173Y0115542D01*
X0018173Y0114343D02*
X0018190Y0114343D01*
X0018173Y0113145D02*
X0018589Y0113145D01*
X0018173Y0111946D02*
X0019307Y0111946D01*
X0018173Y0110747D02*
X0020801Y0110747D01*
X0023047Y0115075D02*
X0030429Y0115075D01*
X0029366Y0117939D02*
X0027053Y0117939D01*
X0025854Y0119137D02*
X0030287Y0119137D01*
X0030528Y0125972D02*
X0030528Y0131020D01*
X0040764Y0125972D02*
X0040764Y0136236D01*
X0046669Y0142142D01*
X0050444Y0141909D02*
X0051645Y0141909D01*
X0051645Y0143107D02*
X0050444Y0143107D01*
X0050444Y0144306D02*
X0051645Y0144306D01*
X0051645Y0145504D02*
X0049568Y0145504D01*
X0049844Y0146703D02*
X0051645Y0146703D01*
X0046857Y0149100D02*
X0046482Y0149100D01*
X0046482Y0150298D02*
X0046857Y0150298D01*
X0050444Y0140710D02*
X0051645Y0140710D01*
X0051645Y0139512D02*
X0050300Y0139512D01*
X0051645Y0138313D02*
X0046801Y0138313D01*
X0045602Y0137115D02*
X0051645Y0137115D01*
X0051645Y0135916D02*
X0044404Y0135916D01*
X0043564Y0134718D02*
X0051645Y0134718D01*
X0051645Y0133519D02*
X0043564Y0133519D01*
X0043564Y0132321D02*
X0051631Y0132321D01*
X0052002Y0131122D02*
X0043564Y0131122D01*
X0043323Y0130134D02*
X0045390Y0132201D01*
X0044173Y0129924D02*
X0043564Y0129924D01*
X0043323Y0130134D02*
X0043323Y0125972D01*
X0043323Y0121669D01*
X0045291Y0119701D01*
X0043564Y0119137D02*
X0062383Y0119137D01*
X0062383Y0117939D02*
X0044222Y0117939D01*
X0043564Y0120336D02*
X0062857Y0120336D01*
X0063680Y0121534D02*
X0043564Y0121534D01*
X0040764Y0117437D02*
X0040764Y0125972D01*
X0040764Y0117437D02*
X0043421Y0114780D01*
X0059858Y0114780D01*
X0081118Y0093520D01*
X0101591Y0093520D01*
X0101591Y0095488D02*
X0083382Y0095488D01*
X0067240Y0111630D01*
X0067240Y0118224D01*
X0062597Y0116740D02*
X0061858Y0116740D01*
X0063056Y0115542D02*
X0063094Y0115542D01*
X0070228Y0114343D02*
X0074873Y0114343D01*
X0074873Y0113145D02*
X0070040Y0113145D01*
X0070884Y0111946D02*
X0074873Y0111946D01*
X0075049Y0110747D02*
X0072082Y0110747D01*
X0073281Y0109549D02*
X0075893Y0109549D01*
X0077091Y0108350D02*
X0074479Y0108350D01*
X0075678Y0107152D02*
X0078290Y0107152D01*
X0079488Y0105953D02*
X0076876Y0105953D01*
X0078075Y0104755D02*
X0080687Y0104755D01*
X0081885Y0103556D02*
X0079273Y0103556D01*
X0080472Y0102358D02*
X0083084Y0102358D01*
X0084282Y0101159D02*
X0081670Y0101159D01*
X0082869Y0099961D02*
X0096831Y0099961D01*
X0096831Y0098762D02*
X0084067Y0098762D01*
X0081415Y0111946D02*
X0093288Y0111946D01*
X0101591Y0101394D02*
X0118717Y0101394D01*
X0133087Y0087024D01*
X0133087Y0051394D01*
X0135719Y0047226D02*
X0136684Y0047226D01*
X0136684Y0046028D02*
X0129686Y0046028D01*
X0129686Y0047226D02*
X0130454Y0047226D01*
X0129686Y0044829D02*
X0136684Y0044829D01*
X0136684Y0043631D02*
X0130593Y0043631D01*
X0131330Y0042432D02*
X0136684Y0042432D01*
X0136684Y0041234D02*
X0131743Y0041234D01*
X0131743Y0040035D02*
X0136684Y0040035D01*
X0136593Y0038837D02*
X0131468Y0038837D01*
X0130925Y0037638D02*
X0135395Y0037638D01*
X0134882Y0036440D02*
X0129727Y0036440D01*
X0126886Y0040469D02*
X0126886Y0089091D01*
X0126984Y0089189D01*
X0116748Y0099425D01*
X0101591Y0099425D01*
X0101591Y0097457D02*
X0114583Y0097457D01*
X0124130Y0087909D01*
X0124130Y0058087D01*
X0113205Y0047161D01*
X0110547Y0047161D01*
X0107208Y0043631D02*
X0091291Y0043631D01*
X0091291Y0042432D02*
X0109271Y0042432D01*
X0111823Y0042432D02*
X0122442Y0042432D01*
X0122028Y0041234D02*
X0090907Y0041234D01*
X0090212Y0040035D02*
X0122028Y0040035D01*
X0122304Y0038837D02*
X0088771Y0038837D01*
X0085188Y0037638D02*
X0122847Y0037638D01*
X0124045Y0036440D02*
X0083990Y0036440D01*
X0082791Y0035241D02*
X0134627Y0035241D01*
X0134627Y0034043D02*
X0081592Y0034043D01*
X0081320Y0031646D02*
X0087766Y0031646D01*
X0085894Y0030447D02*
X0083193Y0030447D01*
X0084118Y0029249D02*
X0084968Y0029249D01*
X0084915Y0024455D02*
X0084171Y0024455D01*
X0083321Y0023256D02*
X0085765Y0023256D01*
X0087456Y0022058D02*
X0081631Y0022058D01*
X0082781Y0020859D02*
X0087472Y0020859D01*
X0087790Y0021021D02*
X0087149Y0020695D01*
X0086567Y0020272D01*
X0086059Y0019764D01*
X0085636Y0019182D01*
X0085310Y0018541D01*
X0085087Y0017857D01*
X0084979Y0017172D01*
X0089159Y0017172D01*
X0089159Y0021352D01*
X0088473Y0021243D01*
X0087790Y0021021D01*
X0089159Y0020859D02*
X0089928Y0020859D01*
X0089928Y0021352D02*
X0090613Y0021243D01*
X0091297Y0021021D01*
X0091938Y0020695D01*
X0092519Y0020272D01*
X0093028Y0019764D01*
X0093451Y0019182D01*
X0093777Y0018541D01*
X0093999Y0017857D01*
X0094108Y0017172D01*
X0089928Y0017172D01*
X0089928Y0016403D01*
X0094108Y0016403D01*
X0093999Y0015718D01*
X0093777Y0015034D01*
X0093451Y0014393D01*
X0093028Y0013811D01*
X0092519Y0013303D01*
X0091938Y0012880D01*
X0091297Y0012554D01*
X0090613Y0012331D01*
X0089928Y0012223D01*
X0089928Y0016403D01*
X0089159Y0016403D01*
X0089159Y0012223D01*
X0088473Y0012331D01*
X0087790Y0012554D01*
X0087149Y0012880D01*
X0086567Y0013303D01*
X0086059Y0013811D01*
X0085636Y0014393D01*
X0085310Y0015034D01*
X0085087Y0015718D01*
X0084979Y0016403D01*
X0089159Y0016403D01*
X0089159Y0017172D01*
X0089928Y0017172D01*
X0089928Y0021352D01*
X0089928Y0019661D02*
X0089159Y0019661D01*
X0089159Y0018462D02*
X0089928Y0018462D01*
X0089928Y0017264D02*
X0089159Y0017264D01*
X0089159Y0016065D02*
X0089928Y0016065D01*
X0089928Y0014867D02*
X0089159Y0014867D01*
X0089159Y0013668D02*
X0089928Y0013668D01*
X0089928Y0012470D02*
X0089159Y0012470D01*
X0088048Y0012470D02*
X0082535Y0012470D01*
X0083733Y0013668D02*
X0086202Y0013668D01*
X0085395Y0014867D02*
X0084342Y0014867D01*
X0084712Y0016065D02*
X0085032Y0016065D01*
X0084993Y0017264D02*
X0084712Y0017264D01*
X0084444Y0018462D02*
X0085284Y0018462D01*
X0085984Y0019661D02*
X0083948Y0019661D01*
X0077456Y0022058D02*
X0071631Y0022058D01*
X0071297Y0021021D02*
X0070613Y0021243D01*
X0069928Y0021352D01*
X0069928Y0017172D01*
X0074108Y0017172D01*
X0073999Y0017857D01*
X0073777Y0018541D01*
X0073451Y0019182D01*
X0073028Y0019764D01*
X0072519Y0020272D01*
X0071938Y0020695D01*
X0071297Y0021021D01*
X0071615Y0020859D02*
X0076306Y0020859D01*
X0075139Y0019661D02*
X0073103Y0019661D01*
X0073803Y0018462D02*
X0074643Y0018462D01*
X0074375Y0017264D02*
X0074093Y0017264D01*
X0074108Y0016403D02*
X0069928Y0016403D01*
X0069928Y0017172D01*
X0069159Y0017172D01*
X0069159Y0021352D01*
X0068473Y0021243D01*
X0067790Y0021021D01*
X0067149Y0020695D01*
X0066567Y0020272D01*
X0066059Y0019764D01*
X0065636Y0019182D01*
X0065310Y0018541D01*
X0065087Y0017857D01*
X0064979Y0017172D01*
X0069159Y0017172D01*
X0069159Y0016403D01*
X0069928Y0016403D01*
X0069928Y0012223D01*
X0070613Y0012331D01*
X0071297Y0012554D01*
X0071938Y0012880D01*
X0072519Y0013303D01*
X0073028Y0013811D01*
X0073451Y0014393D01*
X0073777Y0015034D01*
X0073999Y0015718D01*
X0074108Y0016403D01*
X0074054Y0016065D02*
X0074375Y0016065D01*
X0074745Y0014867D02*
X0073692Y0014867D01*
X0072885Y0013668D02*
X0075353Y0013668D01*
X0076552Y0012470D02*
X0071038Y0012470D01*
X0069928Y0012470D02*
X0069159Y0012470D01*
X0069159Y0012223D02*
X0069159Y0016403D01*
X0064979Y0016403D01*
X0065087Y0015718D01*
X0065310Y0015034D01*
X0065636Y0014393D01*
X0066059Y0013811D01*
X0066567Y0013303D01*
X0067149Y0012880D01*
X0067790Y0012554D01*
X0068473Y0012331D01*
X0069159Y0012223D01*
X0068048Y0012470D02*
X0062535Y0012470D01*
X0063733Y0013668D02*
X0066202Y0013668D01*
X0065395Y0014867D02*
X0064342Y0014867D01*
X0064712Y0016065D02*
X0065032Y0016065D01*
X0064993Y0017264D02*
X0064712Y0017264D01*
X0064444Y0018462D02*
X0065284Y0018462D01*
X0065984Y0019661D02*
X0063948Y0019661D01*
X0062781Y0020859D02*
X0067472Y0020859D01*
X0067456Y0022058D02*
X0061631Y0022058D01*
X0063321Y0023256D02*
X0065765Y0023256D01*
X0064915Y0024455D02*
X0064171Y0024455D01*
X0064118Y0029249D02*
X0064968Y0029249D01*
X0065894Y0030447D02*
X0063193Y0030447D01*
X0061320Y0031646D02*
X0067766Y0031646D01*
X0071320Y0031646D02*
X0077766Y0031646D01*
X0075894Y0030447D02*
X0073193Y0030447D01*
X0074118Y0029249D02*
X0074968Y0029249D01*
X0074915Y0024455D02*
X0074171Y0024455D01*
X0073321Y0023256D02*
X0075765Y0023256D01*
X0069928Y0020859D02*
X0069159Y0020859D01*
X0069159Y0019661D02*
X0069928Y0019661D01*
X0069928Y0018462D02*
X0069159Y0018462D01*
X0069159Y0017264D02*
X0069928Y0017264D01*
X0069928Y0016065D02*
X0069159Y0016065D01*
X0069159Y0014867D02*
X0069928Y0014867D01*
X0069928Y0013668D02*
X0069159Y0013668D01*
X0056552Y0012470D02*
X0052535Y0012470D01*
X0053733Y0013668D02*
X0055353Y0013668D01*
X0054745Y0014867D02*
X0054342Y0014867D01*
X0046552Y0012470D02*
X0042535Y0012470D01*
X0043733Y0013668D02*
X0045353Y0013668D01*
X0044745Y0014867D02*
X0044342Y0014867D01*
X0044444Y0018462D02*
X0044643Y0018462D01*
X0045139Y0019661D02*
X0043948Y0019661D01*
X0042781Y0020859D02*
X0046306Y0020859D01*
X0047456Y0022058D02*
X0011074Y0022058D01*
X0011074Y0023256D02*
X0036631Y0023256D01*
X0036567Y0023303D02*
X0037149Y0022880D01*
X0037790Y0022554D01*
X0038473Y0022331D01*
X0039159Y0022223D01*
X0039159Y0026403D01*
X0039928Y0026403D01*
X0039928Y0027172D01*
X0044108Y0027172D01*
X0043999Y0027857D01*
X0043777Y0028541D01*
X0043451Y0029182D01*
X0043028Y0029764D01*
X0042519Y0030272D01*
X0041938Y0030695D01*
X0041297Y0031021D01*
X0040613Y0031243D01*
X0039928Y0031352D01*
X0039928Y0027172D01*
X0039159Y0027172D01*
X0039159Y0031352D01*
X0038473Y0031243D01*
X0037790Y0031021D01*
X0037149Y0030695D01*
X0036567Y0030272D01*
X0036059Y0029764D01*
X0035636Y0029182D01*
X0035310Y0028541D01*
X0035087Y0027857D01*
X0034979Y0027172D01*
X0039159Y0027172D01*
X0039159Y0026403D01*
X0034979Y0026403D01*
X0035087Y0025718D01*
X0035310Y0025034D01*
X0035636Y0024393D01*
X0036059Y0023811D01*
X0036567Y0023303D01*
X0035605Y0024455D02*
X0011074Y0024455D01*
X0011074Y0025653D02*
X0035108Y0025653D01*
X0035150Y0028050D02*
X0011074Y0028050D01*
X0011074Y0026852D02*
X0039159Y0026852D01*
X0039928Y0026852D02*
X0044375Y0026852D01*
X0044108Y0026403D02*
X0039928Y0026403D01*
X0039928Y0022223D01*
X0040613Y0022331D01*
X0041297Y0022554D01*
X0041938Y0022880D01*
X0042519Y0023303D01*
X0043028Y0023811D01*
X0043451Y0024393D01*
X0043777Y0025034D01*
X0043999Y0025718D01*
X0044108Y0026403D01*
X0043978Y0025653D02*
X0044419Y0025653D01*
X0044915Y0024455D02*
X0043482Y0024455D01*
X0042455Y0023256D02*
X0045765Y0023256D01*
X0044472Y0028050D02*
X0043937Y0028050D01*
X0043402Y0029249D02*
X0044968Y0029249D01*
X0045894Y0030447D02*
X0042278Y0030447D01*
X0039928Y0030447D02*
X0039159Y0030447D01*
X0039159Y0029249D02*
X0039928Y0029249D01*
X0039928Y0028050D02*
X0039159Y0028050D01*
X0039159Y0025653D02*
X0039928Y0025653D01*
X0039928Y0024455D02*
X0039159Y0024455D01*
X0039159Y0023256D02*
X0039928Y0023256D01*
X0036306Y0020859D02*
X0011074Y0020859D01*
X0011074Y0019661D02*
X0035139Y0019661D01*
X0034643Y0018462D02*
X0011074Y0018462D01*
X0011074Y0017264D02*
X0034375Y0017264D01*
X0034375Y0016065D02*
X0011074Y0016065D01*
X0011074Y0014867D02*
X0034745Y0014867D01*
X0035353Y0013668D02*
X0011074Y0013668D01*
X0011074Y0012470D02*
X0036552Y0012470D01*
X0035685Y0029249D02*
X0011074Y0029249D01*
X0011074Y0030447D02*
X0036808Y0030447D01*
X0028675Y0034043D02*
X0011074Y0034043D01*
X0011074Y0035241D02*
X0027477Y0035241D01*
X0026278Y0036440D02*
X0011074Y0036440D01*
X0011074Y0037638D02*
X0025080Y0037638D01*
X0023881Y0038837D02*
X0011074Y0038837D01*
X0011074Y0040035D02*
X0022683Y0040035D01*
X0021487Y0041234D02*
X0011074Y0041234D01*
X0011074Y0042432D02*
X0021031Y0042432D01*
X0021031Y0043631D02*
X0011074Y0043631D01*
X0011074Y0044829D02*
X0021031Y0044829D01*
X0021031Y0046028D02*
X0011074Y0046028D01*
X0011074Y0047226D02*
X0021031Y0047226D01*
X0021031Y0048425D02*
X0011074Y0048425D01*
X0011074Y0049623D02*
X0021031Y0049623D01*
X0021031Y0050822D02*
X0011074Y0050822D01*
X0011074Y0052020D02*
X0021031Y0052020D01*
X0021031Y0053219D02*
X0011074Y0053219D01*
X0011074Y0054417D02*
X0021031Y0054417D01*
X0021031Y0055616D02*
X0011074Y0055616D01*
X0011074Y0056814D02*
X0021440Y0056814D01*
X0022570Y0058013D02*
X0011074Y0058013D01*
X0011074Y0059211D02*
X0023768Y0059211D01*
X0024967Y0060410D02*
X0011074Y0060410D01*
X0011074Y0061609D02*
X0026165Y0061609D01*
X0030956Y0062807D02*
X0011074Y0062807D01*
X0011074Y0064006D02*
X0031143Y0064006D01*
X0030788Y0065204D02*
X0011074Y0065204D01*
X0011074Y0066403D02*
X0030788Y0066403D01*
X0030788Y0067601D02*
X0011074Y0067601D01*
X0011074Y0068800D02*
X0030788Y0068800D01*
X0030788Y0069998D02*
X0011074Y0069998D01*
X0011074Y0071197D02*
X0031471Y0071197D01*
X0027870Y0076984D02*
X0044504Y0076984D01*
X0048638Y0081118D01*
X0048638Y0085547D01*
X0045882Y0088303D01*
X0045882Y0102997D01*
X0043323Y0102997D02*
X0043323Y0087417D01*
X0041354Y0085449D01*
X0043717Y0083087D01*
X0041354Y0085449D02*
X0037614Y0081709D01*
X0037614Y0089976D02*
X0040764Y0093126D01*
X0040764Y0096669D01*
X0036236Y0096669D01*
X0035744Y0099130D02*
X0035744Y0102898D01*
X0035646Y0102997D01*
X0035646Y0106315D01*
X0031709Y0110252D01*
X0031610Y0110252D01*
X0030528Y0109169D01*
X0030528Y0102997D01*
X0030528Y0099228D01*
X0035887Y0102997D02*
X0035887Y0102997D01*
X0037846Y0102997D01*
X0037964Y0102997D01*
X0037964Y0102997D01*
X0035887Y0102997D01*
X0040764Y0102997D02*
X0040764Y0096669D01*
X0048682Y0096365D02*
X0052702Y0096365D01*
X0053094Y0095167D02*
X0048682Y0095167D01*
X0048682Y0093968D02*
X0052845Y0093968D01*
X0052845Y0091571D02*
X0048682Y0091571D01*
X0048682Y0090373D02*
X0053050Y0090373D01*
X0052106Y0089174D02*
X0048971Y0089174D01*
X0050169Y0087976D02*
X0051654Y0087976D01*
X0051654Y0086777D02*
X0051159Y0086777D01*
X0051438Y0085579D02*
X0051654Y0085579D01*
X0051654Y0084380D02*
X0051438Y0084380D01*
X0051438Y0083182D02*
X0051654Y0083182D01*
X0051438Y0081983D02*
X0052240Y0081983D01*
X0051654Y0080785D02*
X0051438Y0080785D01*
X0051654Y0079586D02*
X0051034Y0079586D01*
X0051654Y0078388D02*
X0049867Y0078388D01*
X0048669Y0077189D02*
X0051654Y0077189D01*
X0051654Y0075991D02*
X0047470Y0075991D01*
X0046272Y0074792D02*
X0051654Y0074792D01*
X0052274Y0073594D02*
X0011074Y0073594D01*
X0011074Y0072395D02*
X0051654Y0072395D01*
X0051654Y0071197D02*
X0043850Y0071197D01*
X0045169Y0069998D02*
X0051654Y0069998D01*
X0051654Y0068800D02*
X0045218Y0068800D01*
X0045218Y0066403D02*
X0052073Y0066403D01*
X0051955Y0065204D02*
X0045218Y0065204D01*
X0044615Y0064006D02*
X0051556Y0064006D01*
X0051556Y0062807D02*
X0045651Y0062807D01*
X0045818Y0061609D02*
X0051556Y0061609D01*
X0051556Y0060410D02*
X0045818Y0060410D01*
X0045818Y0059211D02*
X0051556Y0059211D01*
X0052195Y0058013D02*
X0045818Y0058013D01*
X0045818Y0056814D02*
X0051636Y0056814D01*
X0051556Y0055616D02*
X0045263Y0055616D01*
X0045621Y0054417D02*
X0051556Y0054417D01*
X0051556Y0053219D02*
X0045621Y0053219D01*
X0045621Y0052020D02*
X0051556Y0052020D01*
X0051556Y0050822D02*
X0045621Y0050822D01*
X0044959Y0049623D02*
X0052324Y0049623D01*
X0052635Y0041234D02*
X0029969Y0041234D01*
X0028771Y0042432D02*
X0038051Y0042432D01*
X0037678Y0043631D02*
X0027572Y0043631D01*
X0027031Y0044829D02*
X0037678Y0044829D01*
X0037678Y0046028D02*
X0036272Y0046028D01*
X0036165Y0045966D02*
X0036530Y0046176D01*
X0036828Y0046474D01*
X0037038Y0046839D01*
X0037147Y0047246D01*
X0037147Y0048844D01*
X0033963Y0048844D01*
X0033963Y0045857D01*
X0035758Y0045857D01*
X0036165Y0045966D01*
X0037142Y0047226D02*
X0037678Y0047226D01*
X0037147Y0048425D02*
X0038325Y0048425D01*
X0038340Y0049623D02*
X0037147Y0049623D01*
X0037147Y0049219D02*
X0037147Y0050817D01*
X0037038Y0051224D01*
X0036828Y0051589D01*
X0036530Y0051887D01*
X0036165Y0052097D01*
X0035758Y0052206D01*
X0033963Y0052206D01*
X0033963Y0049219D01*
X0033588Y0049219D01*
X0033588Y0048844D01*
X0030404Y0048844D01*
X0030404Y0047246D01*
X0030513Y0046839D01*
X0030724Y0046474D01*
X0031022Y0046176D01*
X0031386Y0045966D01*
X0031793Y0045857D01*
X0033588Y0045857D01*
X0033588Y0048844D01*
X0033963Y0048844D01*
X0033963Y0049219D01*
X0037147Y0049219D01*
X0037146Y0050822D02*
X0037678Y0050822D01*
X0037678Y0052020D02*
X0036298Y0052020D01*
X0037678Y0053219D02*
X0027031Y0053219D01*
X0027031Y0052020D02*
X0031253Y0052020D01*
X0031386Y0052097D02*
X0031022Y0051887D01*
X0030724Y0051589D01*
X0030513Y0051224D01*
X0030404Y0050817D01*
X0030404Y0049219D01*
X0033588Y0049219D01*
X0033588Y0052206D01*
X0031793Y0052206D01*
X0031386Y0052097D01*
X0030405Y0050822D02*
X0027031Y0050822D01*
X0027031Y0049623D02*
X0030404Y0049623D01*
X0030404Y0048425D02*
X0027031Y0048425D01*
X0027031Y0047226D02*
X0030409Y0047226D01*
X0031279Y0046028D02*
X0027031Y0046028D01*
X0033588Y0046028D02*
X0033963Y0046028D01*
X0033963Y0047226D02*
X0033588Y0047226D01*
X0033588Y0048425D02*
X0033963Y0048425D01*
X0033963Y0049623D02*
X0033588Y0049623D01*
X0033588Y0050822D02*
X0033963Y0050822D01*
X0033963Y0052020D02*
X0033588Y0052020D01*
X0037678Y0054417D02*
X0027459Y0054417D01*
X0028658Y0055616D02*
X0031659Y0055616D01*
X0042034Y0067601D02*
X0051654Y0067601D01*
X0062417Y0061728D02*
X0080429Y0079740D01*
X0101591Y0079740D01*
X0101591Y0077772D02*
X0086531Y0077772D01*
X0062417Y0053657D01*
X0062417Y0045390D02*
X0092831Y0075803D01*
X0101591Y0075803D01*
X0101590Y0072395D02*
X0101591Y0072395D01*
X0105507Y0072395D02*
X0108654Y0072395D01*
X0108750Y0072491D02*
X0107461Y0071203D01*
X0107461Y0059931D01*
X0108750Y0058643D01*
X0120022Y0058643D01*
X0121310Y0059931D01*
X0121310Y0071203D01*
X0120022Y0072491D01*
X0108750Y0072491D01*
X0107461Y0071197D02*
X0092184Y0071197D01*
X0093382Y0072395D02*
X0097674Y0072395D01*
X0090985Y0069998D02*
X0107461Y0069998D01*
X0107461Y0068800D02*
X0089787Y0068800D01*
X0088588Y0067601D02*
X0107461Y0067601D01*
X0107461Y0066403D02*
X0087390Y0066403D01*
X0086191Y0065204D02*
X0107461Y0065204D01*
X0107461Y0064006D02*
X0084993Y0064006D01*
X0083794Y0062807D02*
X0107461Y0062807D01*
X0107461Y0061609D02*
X0082596Y0061609D01*
X0081397Y0060410D02*
X0107461Y0060410D01*
X0108181Y0059211D02*
X0080199Y0059211D01*
X0079000Y0058013D02*
X0120096Y0058013D01*
X0120590Y0059211D02*
X0121295Y0059211D01*
X0121310Y0060410D02*
X0121330Y0060410D01*
X0121310Y0061609D02*
X0121330Y0061609D01*
X0121310Y0062807D02*
X0121330Y0062807D01*
X0121310Y0064006D02*
X0121330Y0064006D01*
X0121310Y0065204D02*
X0121330Y0065204D01*
X0121310Y0066403D02*
X0121330Y0066403D01*
X0121310Y0067601D02*
X0121330Y0067601D01*
X0121310Y0068800D02*
X0121330Y0068800D01*
X0121310Y0069998D02*
X0121330Y0069998D01*
X0121310Y0071197D02*
X0121330Y0071197D01*
X0121330Y0072395D02*
X0120118Y0072395D01*
X0121330Y0073594D02*
X0105750Y0073594D01*
X0106350Y0074792D02*
X0121330Y0074792D01*
X0121330Y0075991D02*
X0106350Y0075991D01*
X0106350Y0077189D02*
X0121330Y0077189D01*
X0121330Y0078388D02*
X0106350Y0078388D01*
X0106350Y0079586D02*
X0121330Y0079586D01*
X0121330Y0080785D02*
X0106350Y0080785D01*
X0106350Y0081983D02*
X0121330Y0081983D01*
X0121330Y0083182D02*
X0106350Y0083182D01*
X0106350Y0084380D02*
X0121330Y0084380D01*
X0121330Y0085579D02*
X0106350Y0085579D01*
X0106350Y0086777D02*
X0121302Y0086777D01*
X0120104Y0087976D02*
X0106350Y0087976D01*
X0106350Y0089174D02*
X0118905Y0089174D01*
X0117707Y0090373D02*
X0106350Y0090373D01*
X0106350Y0091571D02*
X0116508Y0091571D01*
X0115310Y0092770D02*
X0106350Y0092770D01*
X0106350Y0093968D02*
X0114111Y0093968D01*
X0127288Y0104755D02*
X0162186Y0104755D01*
X0162186Y0105953D02*
X0126089Y0105953D01*
X0124891Y0107152D02*
X0162186Y0107152D01*
X0162186Y0108350D02*
X0123692Y0108350D01*
X0122493Y0109549D02*
X0162186Y0109549D01*
X0162186Y0103556D02*
X0128486Y0103556D01*
X0129685Y0102358D02*
X0162186Y0102358D01*
X0162186Y0101159D02*
X0130883Y0101159D01*
X0132082Y0099961D02*
X0162186Y0099961D01*
X0162186Y0098762D02*
X0133280Y0098762D01*
X0134479Y0097564D02*
X0162186Y0097564D01*
X0162186Y0096365D02*
X0135677Y0096365D01*
X0136876Y0095167D02*
X0162186Y0095167D01*
X0162186Y0093968D02*
X0138074Y0093968D01*
X0139273Y0092770D02*
X0162186Y0092770D01*
X0162186Y0091571D02*
X0140471Y0091571D01*
X0141670Y0090373D02*
X0162186Y0090373D01*
X0162186Y0089174D02*
X0142868Y0089174D01*
X0144067Y0087976D02*
X0162186Y0087976D01*
X0162186Y0086777D02*
X0145265Y0086777D01*
X0146464Y0085579D02*
X0162186Y0085579D01*
X0162186Y0084380D02*
X0147662Y0084380D01*
X0146976Y0085067D02*
X0146976Y0085067D01*
X0148190Y0083182D02*
X0162186Y0083182D01*
X0162186Y0081983D02*
X0148190Y0081983D01*
X0148190Y0080785D02*
X0162186Y0080785D01*
X0162186Y0079586D02*
X0148190Y0079586D01*
X0148190Y0078388D02*
X0162186Y0078388D01*
X0162186Y0077189D02*
X0148190Y0077189D01*
X0148190Y0075991D02*
X0162186Y0075991D01*
X0162186Y0074792D02*
X0148190Y0074792D01*
X0148190Y0073594D02*
X0162186Y0073594D01*
X0162186Y0072395D02*
X0148190Y0072395D01*
X0148190Y0071197D02*
X0162186Y0071197D01*
X0162186Y0069998D02*
X0148190Y0069998D01*
X0148190Y0068800D02*
X0162186Y0068800D01*
X0162186Y0067601D02*
X0148190Y0067601D01*
X0148190Y0066403D02*
X0162186Y0066403D01*
X0162186Y0065204D02*
X0148190Y0065204D01*
X0148190Y0064006D02*
X0162186Y0064006D01*
X0162186Y0062807D02*
X0148190Y0062807D01*
X0148190Y0061609D02*
X0162186Y0061609D01*
X0162186Y0060410D02*
X0148190Y0060410D01*
X0148190Y0059211D02*
X0162186Y0059211D01*
X0162186Y0058013D02*
X0148190Y0058013D01*
X0148190Y0056814D02*
X0162186Y0056814D01*
X0162186Y0055616D02*
X0148190Y0055616D01*
X0148190Y0054417D02*
X0162975Y0054417D01*
X0157766Y0031646D02*
X0151320Y0031646D01*
X0153193Y0030447D02*
X0155894Y0030447D01*
X0154968Y0029249D02*
X0154118Y0029249D01*
X0147766Y0031646D02*
X0143141Y0031646D01*
X0143193Y0030447D02*
X0145894Y0030447D01*
X0144968Y0029249D02*
X0144118Y0029249D01*
X0144171Y0024455D02*
X0144915Y0024455D01*
X0145765Y0023256D02*
X0143321Y0023256D01*
X0141631Y0022058D02*
X0147456Y0022058D01*
X0146306Y0020859D02*
X0141615Y0020859D01*
X0141297Y0021021D02*
X0140613Y0021243D01*
X0139928Y0021352D01*
X0139928Y0017172D01*
X0144108Y0017172D01*
X0143999Y0017857D01*
X0143777Y0018541D01*
X0143451Y0019182D01*
X0143028Y0019764D01*
X0142519Y0020272D01*
X0141938Y0020695D01*
X0141297Y0021021D01*
X0139928Y0020859D02*
X0139159Y0020859D01*
X0139159Y0021352D02*
X0138473Y0021243D01*
X0137790Y0021021D01*
X0137149Y0020695D01*
X0136567Y0020272D01*
X0136059Y0019764D01*
X0135636Y0019182D01*
X0135310Y0018541D01*
X0135087Y0017857D01*
X0134979Y0017172D01*
X0139159Y0017172D01*
X0139159Y0021352D01*
X0139159Y0019661D02*
X0139928Y0019661D01*
X0139928Y0018462D02*
X0139159Y0018462D01*
X0139159Y0017264D02*
X0139928Y0017264D01*
X0139928Y0017172D02*
X0139159Y0017172D01*
X0139159Y0016403D01*
X0139928Y0016403D01*
X0139928Y0017172D01*
X0139928Y0016403D02*
X0144108Y0016403D01*
X0143999Y0015718D01*
X0143777Y0015034D01*
X0143451Y0014393D01*
X0143028Y0013811D01*
X0142519Y0013303D01*
X0141938Y0012880D01*
X0141297Y0012554D01*
X0140613Y0012331D01*
X0139928Y0012223D01*
X0139928Y0016403D01*
X0139928Y0016065D02*
X0139159Y0016065D01*
X0139159Y0016403D02*
X0139159Y0012223D01*
X0138473Y0012331D01*
X0137790Y0012554D01*
X0137149Y0012880D01*
X0136567Y0013303D01*
X0136059Y0013811D01*
X0135636Y0014393D01*
X0135310Y0015034D01*
X0135087Y0015718D01*
X0134979Y0016403D01*
X0139159Y0016403D01*
X0139159Y0014867D02*
X0139928Y0014867D01*
X0139928Y0013668D02*
X0139159Y0013668D01*
X0139159Y0012470D02*
X0139928Y0012470D01*
X0141038Y0012470D02*
X0146552Y0012470D01*
X0145353Y0013668D02*
X0142885Y0013668D01*
X0143692Y0014867D02*
X0144745Y0014867D01*
X0144375Y0016065D02*
X0144054Y0016065D01*
X0144093Y0017264D02*
X0144375Y0017264D01*
X0144643Y0018462D02*
X0143803Y0018462D01*
X0143103Y0019661D02*
X0145139Y0019661D01*
X0137472Y0020859D02*
X0132781Y0020859D01*
X0131631Y0022058D02*
X0137456Y0022058D01*
X0135765Y0023256D02*
X0133321Y0023256D01*
X0134171Y0024455D02*
X0134915Y0024455D01*
X0134968Y0029249D02*
X0134118Y0029249D01*
X0133193Y0030447D02*
X0135894Y0030447D01*
X0135827Y0031646D02*
X0131320Y0031646D01*
X0127766Y0031646D02*
X0121320Y0031646D01*
X0123193Y0030447D02*
X0125894Y0030447D01*
X0124968Y0029249D02*
X0124118Y0029249D01*
X0117766Y0031646D02*
X0101320Y0031646D01*
X0103193Y0030447D02*
X0106808Y0030447D01*
X0106567Y0030272D02*
X0106059Y0029764D01*
X0105636Y0029182D01*
X0105310Y0028541D01*
X0105087Y0027857D01*
X0104979Y0027172D01*
X0109159Y0027172D01*
X0109159Y0031352D01*
X0108473Y0031243D01*
X0107790Y0031021D01*
X0107149Y0030695D01*
X0106567Y0030272D01*
X0105685Y0029249D02*
X0104118Y0029249D01*
X0104615Y0028050D02*
X0105150Y0028050D01*
X0104712Y0026852D02*
X0109159Y0026852D01*
X0109159Y0027172D02*
X0109159Y0026403D01*
X0109928Y0026403D01*
X0109928Y0027172D01*
X0114108Y0027172D01*
X0113999Y0027857D01*
X0113777Y0028541D01*
X0113451Y0029182D01*
X0113028Y0029764D01*
X0112519Y0030272D01*
X0111938Y0030695D01*
X0111297Y0031021D01*
X0110613Y0031243D01*
X0109928Y0031352D01*
X0109928Y0027172D01*
X0109159Y0027172D01*
X0109159Y0026403D02*
X0104979Y0026403D01*
X0105087Y0025718D01*
X0105310Y0025034D01*
X0105636Y0024393D01*
X0106059Y0023811D01*
X0106567Y0023303D01*
X0107149Y0022880D01*
X0107790Y0022554D01*
X0108473Y0022331D01*
X0109159Y0022223D01*
X0109159Y0026403D01*
X0109159Y0025653D02*
X0109928Y0025653D01*
X0109928Y0026403D02*
X0109928Y0022223D01*
X0110613Y0022331D01*
X0111297Y0022554D01*
X0111938Y0022880D01*
X0112519Y0023303D01*
X0113028Y0023811D01*
X0113451Y0024393D01*
X0113777Y0025034D01*
X0113999Y0025718D01*
X0114108Y0026403D01*
X0109928Y0026403D01*
X0109928Y0026852D02*
X0114375Y0026852D01*
X0114419Y0025653D02*
X0113978Y0025653D01*
X0113482Y0024455D02*
X0114915Y0024455D01*
X0115765Y0023256D02*
X0112455Y0023256D01*
X0112781Y0020859D02*
X0116306Y0020859D01*
X0117456Y0022058D02*
X0101631Y0022058D01*
X0102781Y0020859D02*
X0106306Y0020859D01*
X0105139Y0019661D02*
X0103948Y0019661D01*
X0104444Y0018462D02*
X0104643Y0018462D01*
X0104745Y0014867D02*
X0104342Y0014867D01*
X0103733Y0013668D02*
X0105353Y0013668D01*
X0106552Y0012470D02*
X0102535Y0012470D01*
X0096552Y0012470D02*
X0091038Y0012470D01*
X0092885Y0013668D02*
X0095353Y0013668D01*
X0094745Y0014867D02*
X0093692Y0014867D01*
X0094054Y0016065D02*
X0094375Y0016065D01*
X0094375Y0017264D02*
X0094093Y0017264D01*
X0093803Y0018462D02*
X0094643Y0018462D01*
X0095139Y0019661D02*
X0093103Y0019661D01*
X0091615Y0020859D02*
X0096306Y0020859D01*
X0097456Y0022058D02*
X0091631Y0022058D01*
X0093321Y0023256D02*
X0095765Y0023256D01*
X0094915Y0024455D02*
X0094171Y0024455D01*
X0094118Y0029249D02*
X0094968Y0029249D01*
X0095894Y0030447D02*
X0093193Y0030447D01*
X0091320Y0031646D02*
X0097766Y0031646D01*
X0104668Y0025653D02*
X0105108Y0025653D01*
X0105605Y0024455D02*
X0104171Y0024455D01*
X0103321Y0023256D02*
X0106631Y0023256D01*
X0109159Y0023256D02*
X0109928Y0023256D01*
X0109928Y0024455D02*
X0109159Y0024455D01*
X0109159Y0028050D02*
X0109928Y0028050D01*
X0109928Y0029249D02*
X0109159Y0029249D01*
X0109159Y0030447D02*
X0109928Y0030447D01*
X0112278Y0030447D02*
X0115894Y0030447D01*
X0114968Y0029249D02*
X0113402Y0029249D01*
X0113937Y0028050D02*
X0114472Y0028050D01*
X0113948Y0019661D02*
X0115139Y0019661D01*
X0114643Y0018462D02*
X0114444Y0018462D01*
X0114342Y0014867D02*
X0114745Y0014867D01*
X0115353Y0013668D02*
X0113733Y0013668D01*
X0112535Y0012470D02*
X0116552Y0012470D01*
X0122535Y0012470D02*
X0126552Y0012470D01*
X0125353Y0013668D02*
X0123733Y0013668D01*
X0124342Y0014867D02*
X0124745Y0014867D01*
X0132535Y0012470D02*
X0138048Y0012470D01*
X0136202Y0013668D02*
X0133733Y0013668D01*
X0134342Y0014867D02*
X0135395Y0014867D01*
X0135032Y0016065D02*
X0134712Y0016065D01*
X0134712Y0017264D02*
X0134993Y0017264D01*
X0135284Y0018462D02*
X0134444Y0018462D01*
X0133948Y0019661D02*
X0135984Y0019661D01*
X0135061Y0032844D02*
X0011074Y0032844D01*
X0011074Y0031646D02*
X0047766Y0031646D01*
X0051320Y0031646D02*
X0057766Y0031646D01*
X0055894Y0030447D02*
X0053193Y0030447D01*
X0054118Y0029249D02*
X0054968Y0029249D01*
X0058814Y0041234D02*
X0059328Y0041234D01*
X0065507Y0041234D02*
X0080298Y0041234D01*
X0079100Y0040035D02*
X0031168Y0040035D01*
X0041265Y0068800D02*
X0042034Y0068800D01*
X0042034Y0069998D02*
X0041265Y0069998D01*
X0041265Y0071197D02*
X0042034Y0071197D01*
X0039449Y0071197D02*
X0038442Y0071197D01*
X0048682Y0092770D02*
X0055832Y0092770D01*
X0061925Y0092732D02*
X0067043Y0087614D01*
X0101591Y0087614D01*
X0101591Y0085646D02*
X0062516Y0085646D01*
X0062516Y0084661D01*
X0068421Y0083677D02*
X0101591Y0083677D01*
X0101591Y0081709D02*
X0074327Y0081709D01*
X0062516Y0069898D01*
X0062516Y0077772D02*
X0068421Y0083677D01*
X0061925Y0092732D02*
X0061925Y0094012D01*
X0056020Y0099917D01*
X0051737Y0097564D02*
X0048682Y0097564D01*
X0048682Y0098762D02*
X0051240Y0098762D01*
X0051162Y0099961D02*
X0051066Y0099961D01*
X0071387Y0115542D02*
X0074873Y0115542D01*
X0074873Y0116740D02*
X0071883Y0116740D01*
X0072098Y0117939D02*
X0074873Y0117939D01*
X0074873Y0119137D02*
X0072098Y0119137D01*
X0071623Y0120336D02*
X0074653Y0120336D01*
X0073455Y0121534D02*
X0070800Y0121534D01*
X0072256Y0122733D02*
X0069050Y0122733D01*
X0065431Y0122733D02*
X0050863Y0122733D01*
X0051241Y0123931D02*
X0059035Y0123931D01*
X0057497Y0125130D02*
X0051241Y0125130D01*
X0051241Y0126328D02*
X0056397Y0126328D01*
X0055296Y0127527D02*
X0051241Y0127527D01*
X0051241Y0128725D02*
X0054196Y0128725D01*
X0053096Y0129924D02*
X0050150Y0129924D01*
X0057397Y0133519D02*
X0059538Y0133519D01*
X0059581Y0132321D02*
X0058497Y0132321D01*
X0059597Y0131122D02*
X0060818Y0131122D01*
X0060698Y0129924D02*
X0093288Y0129924D01*
X0092732Y0128953D02*
X0092732Y0126984D01*
X0093288Y0127527D02*
X0075382Y0127527D01*
X0074183Y0128725D02*
X0093288Y0128725D01*
X0092732Y0130921D02*
X0092732Y0132890D01*
X0093288Y0132321D02*
X0077289Y0132321D01*
X0078719Y0133519D02*
X0093288Y0133519D01*
X0093288Y0134718D02*
X0079918Y0134718D01*
X0081116Y0135916D02*
X0093288Y0135916D01*
X0092732Y0136827D02*
X0092732Y0134858D01*
X0093288Y0137115D02*
X0082315Y0137115D01*
X0083513Y0138313D02*
X0093288Y0138313D01*
X0092732Y0138795D02*
X0092732Y0140764D01*
X0093288Y0140710D02*
X0085910Y0140710D01*
X0084712Y0139512D02*
X0093288Y0139512D01*
X0093288Y0141909D02*
X0087109Y0141909D01*
X0088307Y0143107D02*
X0093288Y0143107D01*
X0092732Y0142732D02*
X0092535Y0144701D01*
X0101591Y0144701D01*
X0109071Y0144701D01*
X0109105Y0144306D02*
X0162186Y0144306D01*
X0162186Y0143107D02*
X0109105Y0143107D01*
X0108874Y0142732D02*
X0108874Y0140764D01*
X0109105Y0140710D02*
X0162186Y0140710D01*
X0162186Y0139512D02*
X0109105Y0139512D01*
X0108874Y0138795D02*
X0108874Y0136827D01*
X0109105Y0137115D02*
X0162186Y0137115D01*
X0162186Y0138313D02*
X0109105Y0138313D01*
X0109105Y0135916D02*
X0162186Y0135916D01*
X0162186Y0134718D02*
X0109105Y0134718D01*
X0108874Y0134858D02*
X0108874Y0132890D01*
X0109105Y0132321D02*
X0162186Y0132321D01*
X0162186Y0133519D02*
X0109105Y0133519D01*
X0109105Y0131122D02*
X0162186Y0131122D01*
X0162186Y0129924D02*
X0109105Y0129924D01*
X0108874Y0128953D02*
X0108874Y0130921D01*
X0109105Y0128725D02*
X0162186Y0128725D01*
X0162186Y0127527D02*
X0109105Y0127527D01*
X0108874Y0126984D02*
X0108874Y0125016D01*
X0101591Y0125016D01*
X0092732Y0125016D01*
X0093288Y0125130D02*
X0077779Y0125130D01*
X0076580Y0126328D02*
X0093288Y0126328D01*
X0093288Y0131122D02*
X0073308Y0131122D01*
X0076098Y0134858D02*
X0069799Y0134858D01*
X0066290Y0131122D02*
X0065395Y0131122D01*
X0063491Y0131122D02*
X0062722Y0131122D01*
X0062722Y0132321D02*
X0063491Y0132321D01*
X0063491Y0133519D02*
X0062722Y0133519D01*
X0062722Y0134718D02*
X0057245Y0134718D01*
X0057245Y0135916D02*
X0059538Y0135916D01*
X0059538Y0137115D02*
X0057245Y0137115D01*
X0057245Y0138313D02*
X0060172Y0138313D01*
X0060520Y0139371D02*
X0060927Y0139262D01*
X0062722Y0139262D01*
X0062722Y0142643D01*
X0059538Y0142643D01*
X0059538Y0140652D01*
X0059647Y0140245D01*
X0059857Y0139880D01*
X0060155Y0139582D01*
X0060520Y0139371D01*
X0060277Y0139512D02*
X0057245Y0139512D01*
X0057245Y0140710D02*
X0059538Y0140710D01*
X0059538Y0141909D02*
X0057245Y0141909D01*
X0057245Y0143107D02*
X0062722Y0143107D01*
X0062722Y0141909D02*
X0063491Y0141909D01*
X0063491Y0140710D02*
X0062722Y0140710D01*
X0062722Y0139512D02*
X0063491Y0139512D01*
X0063491Y0138313D02*
X0062722Y0138313D01*
X0062722Y0137115D02*
X0063491Y0137115D01*
X0063491Y0135916D02*
X0062722Y0135916D01*
X0065936Y0139512D02*
X0066070Y0139512D01*
X0069799Y0143028D02*
X0080528Y0143028D01*
X0086138Y0148638D01*
X0101591Y0148638D01*
X0101591Y0150606D02*
X0070291Y0150606D01*
X0069799Y0151098D01*
X0076394Y0152575D02*
X0069799Y0159169D01*
X0077673Y0159661D02*
X0069898Y0167437D01*
X0077575Y0168323D02*
X0101591Y0168323D01*
X0101591Y0166354D02*
X0079543Y0166354D01*
X0077575Y0168323D01*
X0079543Y0166354D02*
X0081512Y0164386D01*
X0101591Y0164386D01*
X0101591Y0162417D02*
X0083480Y0162417D01*
X0081512Y0164386D01*
X0083480Y0162417D02*
X0087417Y0158480D01*
X0101591Y0158480D01*
X0101591Y0156512D02*
X0089386Y0156512D01*
X0087417Y0158480D01*
X0085449Y0160449D02*
X0085350Y0160547D01*
X0085449Y0160449D02*
X0101591Y0160449D01*
X0101591Y0154543D02*
X0082791Y0154543D01*
X0077673Y0159661D01*
X0076394Y0152575D02*
X0101591Y0152575D01*
X0101591Y0146669D02*
X0087909Y0146669D01*
X0076098Y0134858D01*
X0060591Y0146703D02*
X0057245Y0146703D01*
X0057256Y0147901D02*
X0059058Y0147901D01*
X0059565Y0145504D02*
X0057245Y0145504D01*
X0057245Y0144306D02*
X0059538Y0144306D01*
X0058938Y0156291D02*
X0036874Y0156291D01*
X0037747Y0157489D02*
X0058938Y0157489D01*
X0058938Y0158688D02*
X0037747Y0158688D01*
X0037747Y0159886D02*
X0058938Y0159886D01*
X0058938Y0161085D02*
X0037747Y0161085D01*
X0037747Y0162283D02*
X0058975Y0162283D01*
X0059805Y0163482D02*
X0037274Y0163482D01*
X0037274Y0164680D02*
X0059036Y0164680D01*
X0059036Y0165879D02*
X0038305Y0165879D01*
X0039504Y0167078D02*
X0059036Y0167078D01*
X0059036Y0168276D02*
X0040702Y0168276D01*
X0041901Y0169475D02*
X0059036Y0169475D01*
X0059196Y0170673D02*
X0043099Y0170673D01*
X0038277Y0175467D02*
X0011074Y0175467D01*
X0011074Y0174269D02*
X0037078Y0174269D01*
X0035880Y0173070D02*
X0011074Y0173070D01*
X0011074Y0171872D02*
X0034681Y0171872D01*
X0033483Y0170673D02*
X0011074Y0170673D01*
X0011074Y0169475D02*
X0032284Y0169475D01*
X0031086Y0168276D02*
X0011074Y0168276D01*
X0011074Y0167078D02*
X0030534Y0167078D01*
X0030474Y0165879D02*
X0011074Y0165879D01*
X0011074Y0164680D02*
X0030474Y0164680D01*
X0030474Y0163482D02*
X0011074Y0163482D01*
X0011074Y0162283D02*
X0025136Y0162283D01*
X0024892Y0161085D02*
X0011074Y0161085D01*
X0011074Y0159886D02*
X0027879Y0159886D01*
X0028067Y0159858D02*
X0027280Y0165665D01*
X0028165Y0167634D01*
X0028254Y0162283D02*
X0027880Y0162283D01*
X0027880Y0161085D02*
X0028254Y0161085D01*
X0028254Y0158688D02*
X0027880Y0158688D01*
X0027880Y0157489D02*
X0028254Y0157489D01*
X0030874Y0156291D02*
X0011074Y0156291D01*
X0011074Y0157489D02*
X0025103Y0157489D01*
X0024892Y0158688D02*
X0011074Y0158688D01*
X0011074Y0155092D02*
X0030874Y0155092D01*
X0030874Y0153894D02*
X0011074Y0153894D01*
X0011074Y0176666D02*
X0039475Y0176666D01*
X0059805Y0177864D02*
X0011074Y0177864D01*
X0011074Y0179063D02*
X0059805Y0179063D01*
X0059805Y0180261D02*
X0011074Y0180261D01*
X0011074Y0181460D02*
X0059805Y0181460D01*
X0059805Y0182658D02*
X0011074Y0182658D01*
X0011074Y0183857D02*
X0059966Y0183857D01*
X0060660Y0185055D02*
X0011074Y0185055D01*
X0011074Y0186254D02*
X0061859Y0186254D01*
X0063057Y0187452D02*
X0011074Y0187452D01*
X0011074Y0188651D02*
X0064256Y0188651D01*
X0065454Y0189849D02*
X0011074Y0189849D01*
X0011074Y0191048D02*
X0066653Y0191048D01*
X0067851Y0192246D02*
X0011074Y0192246D01*
X0011074Y0193445D02*
X0069050Y0193445D01*
X0070248Y0194643D02*
X0011074Y0194643D01*
X0011074Y0195842D02*
X0071447Y0195842D01*
X0072645Y0197040D02*
X0011074Y0197040D01*
X0011074Y0198239D02*
X0073844Y0198239D01*
X0075042Y0199437D02*
X0011074Y0199437D01*
X0011074Y0200636D02*
X0076241Y0200636D01*
X0077439Y0201834D02*
X0011074Y0201834D01*
X0011074Y0203033D02*
X0078638Y0203033D01*
X0079836Y0204231D02*
X0011074Y0204231D01*
X0011074Y0205430D02*
X0081035Y0205430D01*
X0082233Y0206628D02*
X0011074Y0206628D01*
X0011074Y0207827D02*
X0083432Y0207827D01*
X0084630Y0209025D02*
X0011074Y0209025D01*
X0011074Y0210224D02*
X0180299Y0210224D01*
X0180001Y0211422D02*
X0011074Y0211422D01*
X0011074Y0212621D02*
X0180001Y0212621D01*
X0180001Y0213819D02*
X0011074Y0213819D01*
X0011074Y0215018D02*
X0180001Y0215018D01*
X0180723Y0216216D02*
X0011074Y0216216D01*
X0011074Y0217415D02*
X0206191Y0217415D01*
X0206191Y0218435D02*
X0206191Y0215902D01*
X0209523Y0215902D01*
X0209523Y0219824D01*
X0208199Y0219824D01*
X0208301Y0219898D01*
X0208775Y0220372D01*
X0209169Y0220914D01*
X0209473Y0221511D01*
X0209680Y0222149D01*
X0209785Y0222811D01*
X0209785Y0223628D01*
X0206128Y0223628D01*
X0206128Y0218930D01*
X0206374Y0218969D01*
X0206300Y0218842D01*
X0206191Y0218435D01*
X0206239Y0218613D02*
X0011074Y0218613D01*
X0011074Y0219812D02*
X0202873Y0219812D01*
X0202754Y0219898D02*
X0203296Y0219504D01*
X0203893Y0219200D01*
X0204531Y0218993D01*
X0204928Y0218930D01*
X0204928Y0223628D01*
X0201270Y0223628D01*
X0201270Y0222811D01*
X0201375Y0222149D01*
X0201582Y0221511D01*
X0201886Y0220914D01*
X0202280Y0220372D01*
X0202754Y0219898D01*
X0201837Y0221011D02*
X0011074Y0221011D01*
X0011074Y0222209D02*
X0201365Y0222209D01*
X0201270Y0223408D02*
X0011074Y0223408D01*
X0011074Y0224606D02*
X0204928Y0224606D01*
X0204928Y0223408D02*
X0206128Y0223408D01*
X0206128Y0224606D02*
X0218904Y0224606D01*
X0218904Y0223408D02*
X0220104Y0223408D01*
X0220104Y0224606D02*
X0232880Y0224606D01*
X0232880Y0223408D02*
X0234080Y0223408D01*
X0234080Y0224606D02*
X0256699Y0224606D01*
X0257897Y0223408D02*
X0237738Y0223408D01*
X0237642Y0222209D02*
X0258794Y0222209D01*
X0259486Y0221011D02*
X0237171Y0221011D01*
X0236135Y0219812D02*
X0259970Y0219812D01*
X0260291Y0218613D02*
X0232769Y0218613D01*
X0232817Y0217415D02*
X0260541Y0217415D01*
X0260611Y0216216D02*
X0232817Y0216216D01*
X0232817Y0214838D02*
X0229485Y0214838D01*
X0229485Y0210916D01*
X0231427Y0210916D01*
X0231834Y0211025D01*
X0232199Y0211235D01*
X0232497Y0211533D01*
X0232707Y0211898D01*
X0232817Y0212305D01*
X0232817Y0214838D01*
X0232817Y0213819D02*
X0260611Y0213819D01*
X0260611Y0212621D02*
X0232817Y0212621D01*
X0232386Y0211422D02*
X0260611Y0211422D01*
X0260611Y0210224D02*
X0226786Y0210224D01*
X0228421Y0211422D02*
X0229485Y0211422D01*
X0229485Y0212621D02*
X0228421Y0212621D01*
X0228421Y0213819D02*
X0229485Y0213819D01*
X0229485Y0215018D02*
X0260611Y0215018D01*
X0260611Y0209025D02*
X0223948Y0209025D01*
X0224622Y0209700D02*
X0224622Y0209700D01*
X0217786Y0207827D02*
X0260611Y0207827D01*
X0260611Y0206628D02*
X0217786Y0206628D01*
X0217786Y0205430D02*
X0260611Y0205430D01*
X0260611Y0204231D02*
X0217786Y0204231D01*
X0219160Y0203033D02*
X0260611Y0203033D01*
X0260611Y0201834D02*
X0219581Y0201834D01*
X0219581Y0200636D02*
X0260611Y0200636D01*
X0260611Y0199437D02*
X0219581Y0199437D01*
X0210986Y0204231D02*
X0208831Y0204231D01*
X0208376Y0205430D02*
X0210986Y0205430D01*
X0210986Y0206628D02*
X0207267Y0206628D01*
X0206068Y0207827D02*
X0210986Y0207827D01*
X0211258Y0209025D02*
X0204870Y0209025D01*
X0206622Y0211422D02*
X0192856Y0211422D01*
X0192856Y0211222D02*
X0192856Y0212820D01*
X0189869Y0212820D01*
X0189869Y0209833D01*
X0191467Y0209833D01*
X0191873Y0209942D01*
X0192238Y0210153D01*
X0192536Y0210451D01*
X0192747Y0210815D01*
X0192856Y0211222D01*
X0192309Y0210224D02*
X0211386Y0210224D01*
X0210587Y0211422D02*
X0209523Y0211422D01*
X0209523Y0212621D02*
X0210587Y0212621D01*
X0210587Y0213819D02*
X0209523Y0213819D01*
X0209523Y0215018D02*
X0192796Y0215018D01*
X0192856Y0213819D02*
X0206191Y0213819D01*
X0206191Y0212621D02*
X0192856Y0212621D01*
X0189869Y0212621D02*
X0189494Y0212621D01*
X0189494Y0213819D02*
X0189869Y0213819D01*
X0189869Y0215018D02*
X0189494Y0215018D01*
X0186828Y0216216D02*
X0206191Y0216216D01*
X0209523Y0216216D02*
X0210587Y0216216D01*
X0210587Y0217415D02*
X0209523Y0217415D01*
X0209523Y0218613D02*
X0210587Y0218613D01*
X0210173Y0219812D02*
X0209523Y0219812D01*
X0209218Y0221011D02*
X0210030Y0221011D01*
X0210030Y0222209D02*
X0209690Y0222209D01*
X0209785Y0223408D02*
X0210030Y0223408D01*
X0210030Y0225805D02*
X0209760Y0225805D01*
X0210030Y0227003D02*
X0209444Y0227003D01*
X0206128Y0222209D02*
X0204928Y0222209D01*
X0204928Y0221011D02*
X0206128Y0221011D01*
X0206128Y0219812D02*
X0204928Y0219812D01*
X0201295Y0225805D02*
X0011132Y0225805D01*
X0012211Y0227003D02*
X0201611Y0227003D01*
X0218904Y0222209D02*
X0220104Y0222209D01*
X0220104Y0221011D02*
X0218904Y0221011D01*
X0218904Y0219812D02*
X0220104Y0219812D01*
X0223899Y0218613D02*
X0225137Y0218613D01*
X0224622Y0218151D02*
X0224622Y0217891D01*
X0224622Y0218151D01*
X0224622Y0217891D02*
X0224622Y0217891D01*
X0228421Y0217415D02*
X0229485Y0217415D01*
X0229485Y0218613D02*
X0228421Y0218613D01*
X0228835Y0219812D02*
X0229485Y0219812D01*
X0229790Y0221011D02*
X0228978Y0221011D01*
X0228978Y0222209D02*
X0229318Y0222209D01*
X0229223Y0223408D02*
X0228978Y0223408D01*
X0228978Y0225805D02*
X0229248Y0225805D01*
X0228978Y0227003D02*
X0229564Y0227003D01*
X0232880Y0222209D02*
X0234080Y0222209D01*
X0234080Y0221011D02*
X0232880Y0221011D01*
X0232880Y0219812D02*
X0234080Y0219812D01*
X0229485Y0216216D02*
X0228421Y0216216D01*
X0237713Y0225805D02*
X0254850Y0225805D01*
X0251418Y0227003D02*
X0237396Y0227003D01*
X0233100Y0198072D02*
X0231502Y0198072D01*
X0231502Y0195085D01*
X0234490Y0195085D01*
X0234490Y0196683D01*
X0234381Y0197090D01*
X0234170Y0197455D01*
X0233872Y0197753D01*
X0233507Y0197963D01*
X0233100Y0198072D01*
X0234394Y0197040D02*
X0260611Y0197040D01*
X0260611Y0195842D02*
X0234490Y0195842D01*
X0234490Y0194643D02*
X0260611Y0194643D01*
X0260611Y0193445D02*
X0234490Y0193445D01*
X0234076Y0192246D02*
X0260611Y0192246D01*
X0260611Y0198239D02*
X0228329Y0198239D01*
X0231128Y0197040D02*
X0231502Y0197040D01*
X0231502Y0195842D02*
X0231128Y0195842D01*
X0231128Y0194643D02*
X0231502Y0194643D01*
X0231502Y0193445D02*
X0231128Y0193445D01*
X0231128Y0192246D02*
X0231502Y0192246D01*
X0210284Y0191048D02*
X0076269Y0191048D01*
X0075071Y0189849D02*
X0210284Y0189849D01*
X0200924Y0192246D02*
X0199762Y0192246D01*
X0197031Y0192246D02*
X0195831Y0192246D01*
X0195831Y0192200D02*
X0195831Y0197150D01*
X0191881Y0197150D01*
X0191881Y0193590D01*
X0191990Y0193183D01*
X0192200Y0192818D01*
X0192498Y0192520D01*
X0192863Y0192309D01*
X0193270Y0192200D01*
X0195831Y0192200D01*
X0195831Y0193445D02*
X0197031Y0193445D01*
X0197031Y0194643D02*
X0195831Y0194643D01*
X0195831Y0195842D02*
X0197031Y0195842D01*
X0197031Y0197040D02*
X0195831Y0197040D01*
X0195831Y0198239D02*
X0083461Y0198239D01*
X0084659Y0199437D02*
X0191881Y0199437D01*
X0191881Y0200636D02*
X0085858Y0200636D01*
X0087056Y0201834D02*
X0191881Y0201834D01*
X0195831Y0201834D02*
X0197031Y0201834D01*
X0197031Y0203013D02*
X0197031Y0198350D01*
X0200281Y0198350D01*
X0200281Y0197150D01*
X0197031Y0197150D01*
X0197031Y0198350D01*
X0195831Y0198350D01*
X0195831Y0203013D01*
X0197031Y0203013D01*
X0197031Y0200636D02*
X0195831Y0200636D01*
X0195831Y0199437D02*
X0197031Y0199437D01*
X0197031Y0198239D02*
X0200281Y0198239D01*
X0191881Y0197040D02*
X0082262Y0197040D01*
X0081063Y0195842D02*
X0191881Y0195842D01*
X0191881Y0194643D02*
X0079865Y0194643D01*
X0078666Y0193445D02*
X0191920Y0193445D01*
X0193099Y0192246D02*
X0077468Y0192246D01*
X0078834Y0171872D02*
X0097758Y0171872D01*
X0101590Y0171872D02*
X0101591Y0171872D01*
X0120258Y0171872D02*
X0162186Y0171872D01*
X0162186Y0173070D02*
X0121310Y0173070D01*
X0121310Y0174269D02*
X0162186Y0174269D01*
X0162186Y0175467D02*
X0121310Y0175467D01*
X0121310Y0176666D02*
X0162186Y0176666D01*
X0162186Y0177864D02*
X0121310Y0177864D01*
X0121310Y0179063D02*
X0162186Y0179063D01*
X0162186Y0180261D02*
X0121310Y0180261D01*
X0121310Y0181460D02*
X0162186Y0181460D01*
X0162186Y0182658D02*
X0121310Y0182658D01*
X0121310Y0183857D02*
X0162186Y0183857D01*
X0162186Y0185055D02*
X0120450Y0185055D01*
X0109105Y0141909D02*
X0162186Y0141909D01*
X0162186Y0126328D02*
X0109105Y0126328D01*
X0109105Y0125130D02*
X0162186Y0125130D01*
X0162186Y0123931D02*
X0109105Y0123931D01*
X0108874Y0123047D02*
X0108874Y0125016D01*
X0109105Y0122733D02*
X0162186Y0122733D01*
X0118898Y0056814D02*
X0077802Y0056814D01*
X0076603Y0055616D02*
X0117699Y0055616D01*
X0116501Y0054417D02*
X0075405Y0054417D01*
X0074206Y0053219D02*
X0115302Y0053219D01*
X0114104Y0052020D02*
X0073008Y0052020D01*
X0071809Y0050822D02*
X0107338Y0050822D01*
X0106309Y0049623D02*
X0070611Y0049623D01*
X0069412Y0048425D02*
X0105813Y0048425D01*
X0105690Y0047226D02*
X0089202Y0047226D01*
X0090401Y0046028D02*
X0105759Y0046028D01*
X0106255Y0044829D02*
X0090985Y0044829D01*
X0083664Y0047226D02*
X0068214Y0047226D01*
X0067015Y0046028D02*
X0082465Y0046028D01*
X0081881Y0044829D02*
X0066586Y0044829D01*
X0066586Y0043631D02*
X0081576Y0043631D01*
X0081497Y0042432D02*
X0066586Y0042432D01*
X0113886Y0043631D02*
X0123179Y0043631D01*
X0124086Y0044829D02*
X0114839Y0044829D01*
X0116031Y0046028D02*
X0124086Y0046028D01*
X0124086Y0047226D02*
X0117229Y0047226D01*
X0118428Y0048425D02*
X0124086Y0048425D01*
X0124086Y0049623D02*
X0119626Y0049623D01*
X0120825Y0050822D02*
X0124086Y0050822D01*
X0124086Y0052020D02*
X0122024Y0052020D01*
X0123222Y0053219D02*
X0124086Y0053219D01*
X0154342Y0014867D02*
X0154745Y0014867D01*
X0155353Y0013668D02*
X0153733Y0013668D01*
X0152535Y0012470D02*
X0156552Y0012470D01*
X0189494Y0210224D02*
X0189869Y0210224D01*
X0189869Y0211422D02*
X0189494Y0211422D01*
D24*
X0224622Y0213795D02*
X0224622Y0215370D01*
X0228953Y0215370D01*
X0108874Y0111236D02*
X0108874Y0109957D01*
X0108185Y0109268D01*
X0101394Y0109268D01*
X0101591Y0073835D02*
X0101591Y0064091D01*
X0094504Y0064091D01*
X0059465Y0026866D02*
X0059543Y0026787D01*
X0049543Y0026787D02*
X0049425Y0026906D01*
X0199543Y0026787D02*
X0199622Y0026866D01*
X0229543Y0016945D02*
X0229543Y0016787D01*
X0085449Y0160449D02*
X0083480Y0162417D01*
X0096079Y0170291D02*
X0096079Y0184268D01*
X0096079Y0170291D02*
X0101591Y0170291D01*
D25*
X0077575Y0168323D02*
X0071472Y0174425D01*
X0063205Y0174425D01*
X0042043Y0174425D01*
X0033874Y0166256D01*
X0033874Y0159169D01*
X0063106Y0159169D02*
X0063106Y0151098D01*
X0063106Y0159169D02*
X0063205Y0159268D01*
X0063205Y0167437D01*
X0063205Y0174425D01*
X0063205Y0182791D01*
X0086827Y0206413D01*
X0183776Y0206413D01*
X0183776Y0213008D01*
X0183776Y0206413D02*
X0202673Y0206413D01*
X0205431Y0203656D01*
X0205431Y0197750D01*
X0214431Y0197750D02*
X0214484Y0194547D01*
X0214386Y0194646D02*
X0214431Y0197750D01*
X0214728Y0194898D01*
X0225409Y0194898D01*
X0214386Y0194646D02*
X0214386Y0207693D01*
X0228854Y0215272D02*
X0228953Y0215370D01*
X0055823Y0085646D02*
X0055823Y0077772D01*
X0055823Y0069898D01*
X0055724Y0069799D01*
X0055724Y0061728D01*
X0055724Y0053657D01*
X0055724Y0045390D01*
X0041748Y0045390D01*
X0041650Y0045291D01*
X0041650Y0052772D02*
X0041650Y0059563D01*
X0034957Y0059563D02*
X0034957Y0067437D01*
X0030921Y0081709D02*
X0030921Y0089976D01*
D26*
X0022654Y0088402D03*
X0036236Y0096669D03*
X0023933Y0106020D03*
X0023047Y0115075D03*
X0056020Y0099917D03*
X0043717Y0083087D03*
X0067240Y0118224D03*
X0083185Y0128559D03*
X0077673Y0159661D03*
X0049327Y0167240D03*
X0043717Y0204248D03*
X0090272Y0189681D03*
X0244701Y0195291D03*
X0133087Y0051394D03*
X0126886Y0040469D03*
X0139484Y0034858D03*
X0145390Y0042437D03*
X0110547Y0047161D03*
X0086433Y0043126D03*
X0059465Y0026866D03*
X0219307Y0027024D03*
D27*
X0219543Y0026787D01*
X0086433Y0043126D02*
X0079740Y0036433D01*
X0030528Y0036433D01*
X0024031Y0042929D01*
X0024031Y0055232D01*
X0028362Y0059563D01*
X0034957Y0059563D01*
X0030921Y0089976D02*
X0030331Y0089976D01*
X0015173Y0105134D01*
X0015173Y0129445D01*
X0023638Y0137909D01*
X0027575Y0148047D02*
X0033874Y0148047D01*
X0033874Y0159169D01*
X0033972Y0159858D01*
X0214386Y0207693D02*
X0214386Y0213795D01*
D28*
X0228461Y0167437D03*
D29*
X0228461Y0175705D01*
X0214484Y0189681D01*
X0214484Y0197697D01*
X0214431Y0197750D01*
M02*
