%
M48
M72
T01C0.0157
T02C0.0354
T03C0.0394
%
T01
X30346Y12551
X30740Y12551
X31133Y12551
X30740Y12944
X30740Y12157
T02
X4490Y2797
X5946Y5494
X6025Y8191
X5937Y10878
X6911Y13486
X5956Y14126
X3870Y13506
X3063Y14126
X3033Y10878
X2994Y8191
X3033Y5494
X8840Y5494
X9352Y2797
X11754Y5494
X13269Y2797
X14687Y5494
X14805Y8191
X14746Y10878
X13338Y11960
X12767Y13624
X11783Y14135
X9726Y13555
X8870Y14096
X8870Y10868
X8939Y8191
X11832Y8191
X11793Y10887
X14746Y14135
X16202Y13712
X17620Y14126
X19106Y13742
X20563Y14126
X23456Y14126
X24972Y15031
X26389Y14135
X27826Y14795
X29244Y14126
X30691Y14490
X30848Y15198
X30671Y15966
X31370Y16222
X31645Y15356
X32177Y14194
X33860Y13240
X32836Y12226
X32157Y10887
X32698Y9519
X32147Y8191
X32147Y5494
X30691Y2797
X29234Y5494
X29254Y8191
X29303Y10887
X27846Y11084
X26380Y10878
X24972Y11281
X23456Y10878
X23407Y8191
X23407Y5494
X21970Y2797
X20454Y5494
X20612Y8191
X20563Y10887
X17679Y8191
X17600Y10878
X17541Y5494
X17108Y2817
X26340Y2797
X26301Y5494
X26419Y8191
X29854Y16261
X28820Y16675
X25622Y16744
X31261Y20376
T03
X31025Y18427
X31025Y17427
X30025Y17427
X30025Y18427
X29025Y18427
X29025Y17427
X28025Y17427
X28025Y18427
X27025Y18427
X27025Y17427
X26025Y17427
X26025Y18427
X25025Y18427
X25025Y17427
X24025Y17427
X24025Y18427
X23025Y18427
X23025Y17427
X22025Y17427
X22025Y18427
X21025Y18427
X21025Y17427
X20025Y17427
X20025Y18427
X19025Y18427
X18025Y18427
X18025Y17427
X19025Y17427
X17025Y17427
X17025Y18427
X16025Y18427
X16025Y17427
X15025Y17427
X15025Y18427
X14025Y18427
X14025Y17427
X13025Y17427
X13025Y18427
X12025Y18427
X12025Y17427
M30
