%
M48
M72
T01C0.0394
%
T01
X5529Y1679
X6529Y1679
X7529Y1679
X8529Y1679
X9529Y1679
X10529Y1679
X11529Y1679
X12529Y1679
X13529Y1679
X14529Y1679
X15529Y1679
X16529Y1679
X17529Y1679
X18529Y1679
X19529Y1679
X20529Y1679
X21529Y1679
X22529Y1679
X23529Y1679
X24529Y1679
X24529Y2679
X23529Y2679
X22529Y2679
X21529Y2679
X20529Y2679
X19529Y2679
X18529Y2679
X17529Y2679
X16529Y2679
X15529Y2679
X14529Y2679
X13529Y2679
X12529Y2679
X11529Y2679
X10529Y2679
X9529Y2679
X8529Y2679
X7529Y2679
X6529Y2679
X5529Y2679
M30
