G75*
%MOIN*%
%OFA0B0*%
%FSLAX25Y25*%
%IPPOS*%
%LPD*%
%AMOC8*
5,1,8,0,0,1.08239X$1,22.5*
%
%ADD10R,0.15748X0.07480*%
%ADD11R,0.01575X0.05512*%
%ADD12R,0.04528X0.05709*%
%ADD13C,0.05315*%
%ADD14R,0.02756X0.00984*%
%ADD15R,0.06496X0.08661*%
%ADD16R,0.03543X0.03543*%
%ADD17R,0.03150X0.03150*%
%ADD18R,0.04331X0.03937*%
%ADD19R,0.03937X0.04331*%
%ADD20R,0.10630X0.07087*%
%ADD21R,0.06299X0.07087*%
%ADD22R,0.03150X0.03543*%
%ADD23R,0.05512X0.03937*%
%ADD24R,0.05512X0.05512*%
D10*
X0111638Y0225024D03*
D11*
X0111638Y0214591D03*
X0114197Y0214591D03*
X0116756Y0214591D03*
X0109079Y0214591D03*
X0106520Y0214591D03*
D12*
X0102189Y0216165D03*
X0121087Y0216165D03*
D13*
X0125614Y0223941D02*
X0125614Y0226107D01*
X0125614Y0226107D01*
X0125614Y0223941D01*
X0125614Y0223941D01*
X0097661Y0223941D02*
X0097661Y0226107D01*
X0097661Y0226107D01*
X0097661Y0223941D01*
X0097661Y0223941D01*
D14*
X0155831Y0142839D03*
X0155831Y0140870D03*
X0155831Y0138902D03*
X0155831Y0136933D03*
X0155831Y0134965D03*
X0155831Y0132996D03*
X0155831Y0131028D03*
X0155831Y0129059D03*
X0155831Y0127091D03*
X0155831Y0125122D03*
X0155831Y0123154D03*
X0167248Y0123154D03*
X0167248Y0125122D03*
X0167248Y0127091D03*
X0167248Y0129059D03*
X0167248Y0131028D03*
X0167248Y0132996D03*
X0167248Y0134965D03*
X0167248Y0136933D03*
X0167248Y0138902D03*
X0167248Y0140870D03*
X0167248Y0142839D03*
D15*
X0161539Y0138902D03*
X0161539Y0126992D03*
D16*
X0161539Y0132996D03*
D17*
X0124335Y0114984D03*
X0124335Y0120890D03*
X0140378Y0154453D03*
X0140378Y0160358D03*
X0179256Y0161539D03*
X0179256Y0167445D03*
X0177287Y0144020D03*
X0183193Y0144020D03*
X0109472Y0194906D03*
X0103567Y0194906D03*
X0103567Y0201205D03*
X0109472Y0201205D03*
D18*
X0147563Y0160752D03*
X0147563Y0154059D03*
X0145693Y0146776D03*
X0145693Y0140083D03*
X0155929Y0154059D03*
X0155929Y0160752D03*
X0187524Y0161539D03*
X0187524Y0168232D03*
X0112327Y0136933D03*
X0112327Y0130240D03*
D19*
X0129551Y0128665D03*
X0136244Y0128665D03*
D20*
X0201106Y0127583D03*
X0201106Y0144906D03*
D21*
X0202189Y0117051D03*
X0213213Y0117051D03*
D22*
X0150713Y0123843D03*
X0143232Y0123843D03*
X0146972Y0115969D03*
D23*
X0178567Y0112819D03*
X0187228Y0116559D03*
X0178567Y0120299D03*
D24*
X0212917Y0127583D03*
X0212917Y0142543D03*
M02*
