G75*
%MOIN*%
%OFA0B0*%
%FSLAX25Y25*%
%IPPOS*%
%LPD*%
%AMOC8*
5,1,8,0,0,1.08239X$1,22.5*
%
%ADD10C,0.00000*%
D10*
X0013311Y0001500D02*
X0324335Y0001500D01*
X0324620Y0001503D01*
X0324906Y0001514D01*
X0325191Y0001531D01*
X0325475Y0001555D01*
X0325759Y0001586D01*
X0326042Y0001624D01*
X0326323Y0001669D01*
X0326604Y0001720D01*
X0326884Y0001778D01*
X0327162Y0001843D01*
X0327438Y0001915D01*
X0327712Y0001993D01*
X0327985Y0002078D01*
X0328255Y0002170D01*
X0328523Y0002268D01*
X0328789Y0002372D01*
X0329052Y0002483D01*
X0329312Y0002600D01*
X0329570Y0002723D01*
X0329824Y0002853D01*
X0330075Y0002989D01*
X0330323Y0003130D01*
X0330567Y0003278D01*
X0330808Y0003431D01*
X0331044Y0003591D01*
X0331277Y0003756D01*
X0331506Y0003926D01*
X0331731Y0004102D01*
X0331951Y0004284D01*
X0332167Y0004470D01*
X0332378Y0004662D01*
X0332585Y0004859D01*
X0332787Y0005061D01*
X0332984Y0005268D01*
X0333176Y0005479D01*
X0333362Y0005695D01*
X0333544Y0005915D01*
X0333720Y0006140D01*
X0333890Y0006369D01*
X0334055Y0006602D01*
X0334215Y0006838D01*
X0334368Y0007079D01*
X0334516Y0007323D01*
X0334657Y0007571D01*
X0334793Y0007822D01*
X0334923Y0008076D01*
X0335046Y0008334D01*
X0335163Y0008594D01*
X0335274Y0008857D01*
X0335378Y0009123D01*
X0335476Y0009391D01*
X0335568Y0009661D01*
X0335653Y0009934D01*
X0335731Y0010208D01*
X0335803Y0010484D01*
X0335868Y0010762D01*
X0335926Y0011042D01*
X0335977Y0011323D01*
X0336022Y0011604D01*
X0336060Y0011887D01*
X0336091Y0012171D01*
X0336115Y0012455D01*
X0336132Y0012740D01*
X0336143Y0013026D01*
X0336146Y0013311D01*
X0336146Y0366461D01*
X0336142Y0366775D01*
X0336131Y0367089D01*
X0336112Y0367402D01*
X0336085Y0367715D01*
X0336051Y0368027D01*
X0336010Y0368338D01*
X0335961Y0368648D01*
X0335904Y0368957D01*
X0335840Y0369264D01*
X0335768Y0369570D01*
X0335690Y0369874D01*
X0335604Y0370176D01*
X0335510Y0370476D01*
X0335410Y0370773D01*
X0335302Y0371068D01*
X0335187Y0371360D01*
X0335065Y0371650D01*
X0334936Y0371936D01*
X0334800Y0372219D01*
X0334658Y0372499D01*
X0334509Y0372775D01*
X0334353Y0373047D01*
X0334190Y0373316D01*
X0334021Y0373581D01*
X0333846Y0373841D01*
X0333665Y0374098D01*
X0333477Y0374349D01*
X0333284Y0374596D01*
X0333084Y0374839D01*
X0332879Y0375076D01*
X0332668Y0375309D01*
X0332451Y0375536D01*
X0332229Y0375758D01*
X0332002Y0375975D01*
X0331769Y0376186D01*
X0331532Y0376391D01*
X0331289Y0376591D01*
X0331042Y0376784D01*
X0330791Y0376972D01*
X0330534Y0377153D01*
X0330274Y0377328D01*
X0330009Y0377497D01*
X0329740Y0377660D01*
X0329468Y0377816D01*
X0329192Y0377965D01*
X0328912Y0378107D01*
X0328629Y0378243D01*
X0328343Y0378372D01*
X0328053Y0378494D01*
X0327761Y0378609D01*
X0327466Y0378717D01*
X0327169Y0378817D01*
X0326869Y0378911D01*
X0326567Y0378997D01*
X0326263Y0379075D01*
X0325957Y0379147D01*
X0325650Y0379211D01*
X0325341Y0379268D01*
X0325031Y0379317D01*
X0324720Y0379358D01*
X0324408Y0379392D01*
X0324095Y0379419D01*
X0323782Y0379438D01*
X0323468Y0379449D01*
X0323154Y0379453D01*
X0086151Y0379453D01*
X0086027Y0379451D01*
X0085903Y0379445D01*
X0085780Y0379436D01*
X0085657Y0379422D01*
X0085534Y0379404D01*
X0085412Y0379383D01*
X0085291Y0379358D01*
X0085171Y0379329D01*
X0085051Y0379296D01*
X0084933Y0379260D01*
X0084816Y0379220D01*
X0084700Y0379176D01*
X0084585Y0379129D01*
X0084473Y0379078D01*
X0084361Y0379023D01*
X0084252Y0378965D01*
X0084144Y0378904D01*
X0084039Y0378839D01*
X0083935Y0378771D01*
X0083834Y0378700D01*
X0083735Y0378626D01*
X0083638Y0378548D01*
X0083544Y0378468D01*
X0083453Y0378385D01*
X0083364Y0378298D01*
X0083277Y0378209D01*
X0083194Y0378118D01*
X0083114Y0378024D01*
X0083036Y0377927D01*
X0082962Y0377828D01*
X0082891Y0377727D01*
X0082823Y0377623D01*
X0082758Y0377518D01*
X0082697Y0377410D01*
X0082639Y0377301D01*
X0082584Y0377189D01*
X0082533Y0377077D01*
X0082486Y0376962D01*
X0082442Y0376846D01*
X0082402Y0376729D01*
X0082366Y0376611D01*
X0082333Y0376491D01*
X0082304Y0376371D01*
X0082279Y0376250D01*
X0082258Y0376128D01*
X0082240Y0376005D01*
X0082226Y0375882D01*
X0082217Y0375759D01*
X0082211Y0375635D01*
X0082209Y0375511D01*
X0082209Y0300713D01*
X0082207Y0300589D01*
X0082201Y0300466D01*
X0082192Y0300342D01*
X0082178Y0300220D01*
X0082161Y0300097D01*
X0082139Y0299975D01*
X0082114Y0299854D01*
X0082085Y0299734D01*
X0082053Y0299615D01*
X0082016Y0299496D01*
X0081976Y0299379D01*
X0081933Y0299264D01*
X0081885Y0299149D01*
X0081834Y0299037D01*
X0081780Y0298926D01*
X0081722Y0298816D01*
X0081661Y0298709D01*
X0081596Y0298603D01*
X0081528Y0298500D01*
X0081457Y0298399D01*
X0081383Y0298300D01*
X0081306Y0298203D01*
X0081225Y0298109D01*
X0081142Y0298018D01*
X0081056Y0297929D01*
X0080967Y0297843D01*
X0080876Y0297760D01*
X0080782Y0297679D01*
X0080685Y0297602D01*
X0080586Y0297528D01*
X0080485Y0297457D01*
X0080382Y0297389D01*
X0080276Y0297324D01*
X0080169Y0297263D01*
X0080059Y0297205D01*
X0079948Y0297151D01*
X0079836Y0297100D01*
X0079721Y0297052D01*
X0079606Y0297009D01*
X0079489Y0296969D01*
X0079370Y0296932D01*
X0079251Y0296900D01*
X0079131Y0296871D01*
X0079010Y0296846D01*
X0078888Y0296824D01*
X0078765Y0296807D01*
X0078643Y0296793D01*
X0078519Y0296784D01*
X0078396Y0296778D01*
X0078272Y0296776D01*
X0070403Y0296776D01*
X0070279Y0296774D01*
X0070155Y0296768D01*
X0070032Y0296759D01*
X0069909Y0296745D01*
X0069786Y0296727D01*
X0069664Y0296706D01*
X0069543Y0296681D01*
X0069423Y0296652D01*
X0069303Y0296619D01*
X0069185Y0296583D01*
X0069068Y0296543D01*
X0068952Y0296499D01*
X0068837Y0296452D01*
X0068725Y0296401D01*
X0068613Y0296346D01*
X0068504Y0296288D01*
X0068396Y0296227D01*
X0068291Y0296162D01*
X0068187Y0296094D01*
X0068086Y0296023D01*
X0067987Y0295949D01*
X0067890Y0295871D01*
X0067796Y0295791D01*
X0067705Y0295708D01*
X0067616Y0295621D01*
X0067529Y0295532D01*
X0067446Y0295441D01*
X0067366Y0295347D01*
X0067288Y0295250D01*
X0067214Y0295151D01*
X0067143Y0295050D01*
X0067075Y0294946D01*
X0067010Y0294841D01*
X0066949Y0294733D01*
X0066891Y0294624D01*
X0066836Y0294512D01*
X0066785Y0294400D01*
X0066738Y0294285D01*
X0066694Y0294169D01*
X0066654Y0294052D01*
X0066618Y0293934D01*
X0066585Y0293814D01*
X0066556Y0293694D01*
X0066531Y0293573D01*
X0066510Y0293451D01*
X0066492Y0293328D01*
X0066478Y0293205D01*
X0066469Y0293082D01*
X0066463Y0292958D01*
X0066461Y0292834D01*
X0066461Y0164886D01*
X0005442Y0164886D01*
X0005318Y0164884D01*
X0005194Y0164878D01*
X0005071Y0164869D01*
X0004948Y0164855D01*
X0004825Y0164837D01*
X0004703Y0164816D01*
X0004582Y0164791D01*
X0004462Y0164762D01*
X0004342Y0164729D01*
X0004224Y0164693D01*
X0004107Y0164653D01*
X0003991Y0164609D01*
X0003876Y0164562D01*
X0003764Y0164511D01*
X0003652Y0164456D01*
X0003543Y0164398D01*
X0003435Y0164337D01*
X0003330Y0164272D01*
X0003226Y0164204D01*
X0003125Y0164133D01*
X0003026Y0164059D01*
X0002929Y0163981D01*
X0002835Y0163901D01*
X0002744Y0163818D01*
X0002655Y0163731D01*
X0002568Y0163642D01*
X0002485Y0163551D01*
X0002405Y0163457D01*
X0002327Y0163360D01*
X0002253Y0163261D01*
X0002182Y0163160D01*
X0002114Y0163056D01*
X0002049Y0162951D01*
X0001988Y0162843D01*
X0001930Y0162734D01*
X0001875Y0162622D01*
X0001824Y0162510D01*
X0001777Y0162395D01*
X0001733Y0162279D01*
X0001693Y0162162D01*
X0001657Y0162044D01*
X0001624Y0161924D01*
X0001595Y0161804D01*
X0001570Y0161683D01*
X0001549Y0161561D01*
X0001531Y0161438D01*
X0001517Y0161315D01*
X0001508Y0161192D01*
X0001502Y0161068D01*
X0001500Y0160944D01*
X0001500Y0013311D01*
X0001503Y0013026D01*
X0001514Y0012740D01*
X0001531Y0012455D01*
X0001555Y0012171D01*
X0001586Y0011887D01*
X0001624Y0011604D01*
X0001669Y0011323D01*
X0001720Y0011042D01*
X0001778Y0010762D01*
X0001843Y0010484D01*
X0001915Y0010208D01*
X0001993Y0009934D01*
X0002078Y0009661D01*
X0002170Y0009391D01*
X0002268Y0009123D01*
X0002372Y0008857D01*
X0002483Y0008594D01*
X0002600Y0008334D01*
X0002723Y0008076D01*
X0002853Y0007822D01*
X0002989Y0007571D01*
X0003130Y0007323D01*
X0003278Y0007079D01*
X0003431Y0006838D01*
X0003591Y0006602D01*
X0003756Y0006369D01*
X0003926Y0006140D01*
X0004102Y0005915D01*
X0004284Y0005695D01*
X0004470Y0005479D01*
X0004662Y0005268D01*
X0004859Y0005061D01*
X0005061Y0004859D01*
X0005268Y0004662D01*
X0005479Y0004470D01*
X0005695Y0004284D01*
X0005915Y0004102D01*
X0006140Y0003926D01*
X0006369Y0003756D01*
X0006602Y0003591D01*
X0006838Y0003431D01*
X0007079Y0003278D01*
X0007323Y0003130D01*
X0007571Y0002989D01*
X0007822Y0002853D01*
X0008076Y0002723D01*
X0008334Y0002600D01*
X0008594Y0002483D01*
X0008857Y0002372D01*
X0009123Y0002268D01*
X0009391Y0002170D01*
X0009661Y0002078D01*
X0009934Y0001993D01*
X0010208Y0001915D01*
X0010484Y0001843D01*
X0010762Y0001778D01*
X0011042Y0001720D01*
X0011323Y0001669D01*
X0011604Y0001624D01*
X0011887Y0001586D01*
X0012171Y0001555D01*
X0012455Y0001531D01*
X0012740Y0001514D01*
X0013026Y0001503D01*
X0013311Y0001500D01*
X0218035Y0218036D02*
X0218035Y0324532D01*
X0245594Y0324532D01*
X0245594Y0218036D01*
X0218035Y0218036D01*
X0249728Y0364985D02*
X0249730Y0365069D01*
X0249736Y0365152D01*
X0249746Y0365235D01*
X0249760Y0365318D01*
X0249777Y0365400D01*
X0249799Y0365481D01*
X0249824Y0365560D01*
X0249853Y0365639D01*
X0249886Y0365716D01*
X0249922Y0365791D01*
X0249962Y0365865D01*
X0250005Y0365937D01*
X0250052Y0366006D01*
X0250102Y0366073D01*
X0250155Y0366138D01*
X0250211Y0366200D01*
X0250269Y0366260D01*
X0250331Y0366317D01*
X0250395Y0366370D01*
X0250462Y0366421D01*
X0250531Y0366468D01*
X0250602Y0366513D01*
X0250675Y0366553D01*
X0250750Y0366590D01*
X0250827Y0366624D01*
X0250905Y0366654D01*
X0250984Y0366680D01*
X0251065Y0366703D01*
X0251147Y0366721D01*
X0251229Y0366736D01*
X0251312Y0366747D01*
X0251395Y0366754D01*
X0251479Y0366757D01*
X0251563Y0366756D01*
X0251646Y0366751D01*
X0251730Y0366742D01*
X0251812Y0366729D01*
X0251894Y0366713D01*
X0251975Y0366692D01*
X0252056Y0366668D01*
X0252134Y0366640D01*
X0252212Y0366608D01*
X0252288Y0366572D01*
X0252362Y0366533D01*
X0252434Y0366491D01*
X0252504Y0366445D01*
X0252572Y0366396D01*
X0252637Y0366344D01*
X0252700Y0366289D01*
X0252760Y0366231D01*
X0252818Y0366170D01*
X0252872Y0366106D01*
X0252924Y0366040D01*
X0252972Y0365972D01*
X0253017Y0365901D01*
X0253058Y0365828D01*
X0253097Y0365754D01*
X0253131Y0365678D01*
X0253162Y0365600D01*
X0253189Y0365521D01*
X0253213Y0365440D01*
X0253232Y0365359D01*
X0253248Y0365277D01*
X0253260Y0365194D01*
X0253268Y0365110D01*
X0253272Y0365027D01*
X0253272Y0364943D01*
X0253268Y0364860D01*
X0253260Y0364776D01*
X0253248Y0364693D01*
X0253232Y0364611D01*
X0253213Y0364530D01*
X0253189Y0364449D01*
X0253162Y0364370D01*
X0253131Y0364292D01*
X0253097Y0364216D01*
X0253058Y0364142D01*
X0253017Y0364069D01*
X0252972Y0363998D01*
X0252924Y0363930D01*
X0252872Y0363864D01*
X0252818Y0363800D01*
X0252760Y0363739D01*
X0252700Y0363681D01*
X0252637Y0363626D01*
X0252572Y0363574D01*
X0252504Y0363525D01*
X0252434Y0363479D01*
X0252362Y0363437D01*
X0252288Y0363398D01*
X0252212Y0363362D01*
X0252134Y0363330D01*
X0252056Y0363302D01*
X0251975Y0363278D01*
X0251894Y0363257D01*
X0251812Y0363241D01*
X0251730Y0363228D01*
X0251646Y0363219D01*
X0251563Y0363214D01*
X0251479Y0363213D01*
X0251395Y0363216D01*
X0251312Y0363223D01*
X0251229Y0363234D01*
X0251147Y0363249D01*
X0251065Y0363267D01*
X0250984Y0363290D01*
X0250905Y0363316D01*
X0250827Y0363346D01*
X0250750Y0363380D01*
X0250675Y0363417D01*
X0250602Y0363457D01*
X0250531Y0363502D01*
X0250462Y0363549D01*
X0250395Y0363600D01*
X0250331Y0363653D01*
X0250269Y0363710D01*
X0250211Y0363770D01*
X0250155Y0363832D01*
X0250102Y0363897D01*
X0250052Y0363964D01*
X0250005Y0364033D01*
X0249962Y0364105D01*
X0249922Y0364179D01*
X0249886Y0364254D01*
X0249853Y0364331D01*
X0249824Y0364410D01*
X0249799Y0364489D01*
X0249777Y0364570D01*
X0249760Y0364652D01*
X0249746Y0364735D01*
X0249736Y0364818D01*
X0249730Y0364901D01*
X0249728Y0364985D01*
X0261539Y0364985D02*
X0261541Y0365069D01*
X0261547Y0365152D01*
X0261557Y0365235D01*
X0261571Y0365318D01*
X0261588Y0365400D01*
X0261610Y0365481D01*
X0261635Y0365560D01*
X0261664Y0365639D01*
X0261697Y0365716D01*
X0261733Y0365791D01*
X0261773Y0365865D01*
X0261816Y0365937D01*
X0261863Y0366006D01*
X0261913Y0366073D01*
X0261966Y0366138D01*
X0262022Y0366200D01*
X0262080Y0366260D01*
X0262142Y0366317D01*
X0262206Y0366370D01*
X0262273Y0366421D01*
X0262342Y0366468D01*
X0262413Y0366513D01*
X0262486Y0366553D01*
X0262561Y0366590D01*
X0262638Y0366624D01*
X0262716Y0366654D01*
X0262795Y0366680D01*
X0262876Y0366703D01*
X0262958Y0366721D01*
X0263040Y0366736D01*
X0263123Y0366747D01*
X0263206Y0366754D01*
X0263290Y0366757D01*
X0263374Y0366756D01*
X0263457Y0366751D01*
X0263541Y0366742D01*
X0263623Y0366729D01*
X0263705Y0366713D01*
X0263786Y0366692D01*
X0263867Y0366668D01*
X0263945Y0366640D01*
X0264023Y0366608D01*
X0264099Y0366572D01*
X0264173Y0366533D01*
X0264245Y0366491D01*
X0264315Y0366445D01*
X0264383Y0366396D01*
X0264448Y0366344D01*
X0264511Y0366289D01*
X0264571Y0366231D01*
X0264629Y0366170D01*
X0264683Y0366106D01*
X0264735Y0366040D01*
X0264783Y0365972D01*
X0264828Y0365901D01*
X0264869Y0365828D01*
X0264908Y0365754D01*
X0264942Y0365678D01*
X0264973Y0365600D01*
X0265000Y0365521D01*
X0265024Y0365440D01*
X0265043Y0365359D01*
X0265059Y0365277D01*
X0265071Y0365194D01*
X0265079Y0365110D01*
X0265083Y0365027D01*
X0265083Y0364943D01*
X0265079Y0364860D01*
X0265071Y0364776D01*
X0265059Y0364693D01*
X0265043Y0364611D01*
X0265024Y0364530D01*
X0265000Y0364449D01*
X0264973Y0364370D01*
X0264942Y0364292D01*
X0264908Y0364216D01*
X0264869Y0364142D01*
X0264828Y0364069D01*
X0264783Y0363998D01*
X0264735Y0363930D01*
X0264683Y0363864D01*
X0264629Y0363800D01*
X0264571Y0363739D01*
X0264511Y0363681D01*
X0264448Y0363626D01*
X0264383Y0363574D01*
X0264315Y0363525D01*
X0264245Y0363479D01*
X0264173Y0363437D01*
X0264099Y0363398D01*
X0264023Y0363362D01*
X0263945Y0363330D01*
X0263867Y0363302D01*
X0263786Y0363278D01*
X0263705Y0363257D01*
X0263623Y0363241D01*
X0263541Y0363228D01*
X0263457Y0363219D01*
X0263374Y0363214D01*
X0263290Y0363213D01*
X0263206Y0363216D01*
X0263123Y0363223D01*
X0263040Y0363234D01*
X0262958Y0363249D01*
X0262876Y0363267D01*
X0262795Y0363290D01*
X0262716Y0363316D01*
X0262638Y0363346D01*
X0262561Y0363380D01*
X0262486Y0363417D01*
X0262413Y0363457D01*
X0262342Y0363502D01*
X0262273Y0363549D01*
X0262206Y0363600D01*
X0262142Y0363653D01*
X0262080Y0363710D01*
X0262022Y0363770D01*
X0261966Y0363832D01*
X0261913Y0363897D01*
X0261863Y0363964D01*
X0261816Y0364033D01*
X0261773Y0364105D01*
X0261733Y0364179D01*
X0261697Y0364254D01*
X0261664Y0364331D01*
X0261635Y0364410D01*
X0261610Y0364489D01*
X0261588Y0364570D01*
X0261571Y0364652D01*
X0261557Y0364735D01*
X0261547Y0364818D01*
X0261541Y0364901D01*
X0261539Y0364985D01*
M02*
