G75*
%MOIN*%
%OFA0B0*%
%FSLAX25Y25*%
%IPPOS*%
%LPD*%
%AMOC8*
5,1,8,0,0,1.08239X$1,22.5*
%
%ADD10R,0.04724X0.02165*%
%ADD11R,0.03150X0.03150*%
%ADD12R,0.10630X0.06299*%
%ADD13R,0.03937X0.04331*%
%ADD14R,0.04331X0.03937*%
%ADD15R,0.05512X0.05512*%
%ADD16R,0.03937X0.05512*%
%ADD17R,0.05512X0.03937*%
%ADD18R,0.06299X0.10630*%
D10*
X0143028Y0090862D03*
X0143028Y0094602D03*
X0143028Y0098343D03*
X0153264Y0098343D03*
X0153264Y0090862D03*
D11*
X0124622Y0083480D03*
X0118717Y0083480D03*
X0119307Y0063303D03*
X0125213Y0063303D03*
X0192732Y0088303D03*
X0192732Y0094209D03*
X0052575Y0078165D03*
X0052575Y0072260D03*
D12*
X0091748Y0051886D03*
X0091748Y0040862D03*
X0102673Y0066256D03*
X0102673Y0077280D03*
X0143028Y0082693D03*
X0143028Y0071669D03*
D13*
X0125508Y0093323D03*
X0118815Y0093323D03*
X0068224Y0070193D03*
X0061531Y0070193D03*
D14*
X0078854Y0059071D03*
X0078854Y0052378D03*
X0088795Y0071669D03*
X0088795Y0078362D03*
X0132988Y0086925D03*
X0132988Y0093618D03*
D15*
X0133874Y0071669D03*
X0118913Y0071669D03*
D16*
X0066059Y0090173D03*
X0058579Y0090173D03*
X0062319Y0081512D03*
D17*
X0056610Y0048638D03*
X0065272Y0052378D03*
X0056610Y0056118D03*
X0076197Y0082693D03*
X0084858Y0086433D03*
X0076197Y0090173D03*
D18*
X0163008Y0082693D03*
X0174031Y0082693D03*
M02*
