G75*
%MOIN*%
%OFA0B0*%
%FSLAX25Y25*%
%IPPOS*%
%LPD*%
%AMOC8*
5,1,8,0,0,1.08239X$1,22.5*
%
%ADD10C,0.00000*%
%ADD11C,0.00500*%
%ADD12C,0.01000*%
%ADD13C,0.00700*%
%ADD14C,0.00600*%
D10*
X0013311Y0001500D02*
X0324335Y0001500D01*
X0324620Y0001503D01*
X0324906Y0001514D01*
X0325191Y0001531D01*
X0325475Y0001555D01*
X0325759Y0001586D01*
X0326042Y0001624D01*
X0326323Y0001669D01*
X0326604Y0001720D01*
X0326884Y0001778D01*
X0327162Y0001843D01*
X0327438Y0001915D01*
X0327712Y0001993D01*
X0327985Y0002078D01*
X0328255Y0002170D01*
X0328523Y0002268D01*
X0328789Y0002372D01*
X0329052Y0002483D01*
X0329312Y0002600D01*
X0329570Y0002723D01*
X0329824Y0002853D01*
X0330075Y0002989D01*
X0330323Y0003130D01*
X0330567Y0003278D01*
X0330808Y0003431D01*
X0331044Y0003591D01*
X0331277Y0003756D01*
X0331506Y0003926D01*
X0331731Y0004102D01*
X0331951Y0004284D01*
X0332167Y0004470D01*
X0332378Y0004662D01*
X0332585Y0004859D01*
X0332787Y0005061D01*
X0332984Y0005268D01*
X0333176Y0005479D01*
X0333362Y0005695D01*
X0333544Y0005915D01*
X0333720Y0006140D01*
X0333890Y0006369D01*
X0334055Y0006602D01*
X0334215Y0006838D01*
X0334368Y0007079D01*
X0334516Y0007323D01*
X0334657Y0007571D01*
X0334793Y0007822D01*
X0334923Y0008076D01*
X0335046Y0008334D01*
X0335163Y0008594D01*
X0335274Y0008857D01*
X0335378Y0009123D01*
X0335476Y0009391D01*
X0335568Y0009661D01*
X0335653Y0009934D01*
X0335731Y0010208D01*
X0335803Y0010484D01*
X0335868Y0010762D01*
X0335926Y0011042D01*
X0335977Y0011323D01*
X0336022Y0011604D01*
X0336060Y0011887D01*
X0336091Y0012171D01*
X0336115Y0012455D01*
X0336132Y0012740D01*
X0336143Y0013026D01*
X0336146Y0013311D01*
X0336146Y0366461D01*
X0336142Y0366775D01*
X0336131Y0367089D01*
X0336112Y0367402D01*
X0336085Y0367715D01*
X0336051Y0368027D01*
X0336010Y0368338D01*
X0335961Y0368648D01*
X0335904Y0368957D01*
X0335840Y0369264D01*
X0335768Y0369570D01*
X0335690Y0369874D01*
X0335604Y0370176D01*
X0335510Y0370476D01*
X0335410Y0370773D01*
X0335302Y0371068D01*
X0335187Y0371360D01*
X0335065Y0371650D01*
X0334936Y0371936D01*
X0334800Y0372219D01*
X0334658Y0372499D01*
X0334509Y0372775D01*
X0334353Y0373047D01*
X0334190Y0373316D01*
X0334021Y0373581D01*
X0333846Y0373841D01*
X0333665Y0374098D01*
X0333477Y0374349D01*
X0333284Y0374596D01*
X0333084Y0374839D01*
X0332879Y0375076D01*
X0332668Y0375309D01*
X0332451Y0375536D01*
X0332229Y0375758D01*
X0332002Y0375975D01*
X0331769Y0376186D01*
X0331532Y0376391D01*
X0331289Y0376591D01*
X0331042Y0376784D01*
X0330791Y0376972D01*
X0330534Y0377153D01*
X0330274Y0377328D01*
X0330009Y0377497D01*
X0329740Y0377660D01*
X0329468Y0377816D01*
X0329192Y0377965D01*
X0328912Y0378107D01*
X0328629Y0378243D01*
X0328343Y0378372D01*
X0328053Y0378494D01*
X0327761Y0378609D01*
X0327466Y0378717D01*
X0327169Y0378817D01*
X0326869Y0378911D01*
X0326567Y0378997D01*
X0326263Y0379075D01*
X0325957Y0379147D01*
X0325650Y0379211D01*
X0325341Y0379268D01*
X0325031Y0379317D01*
X0324720Y0379358D01*
X0324408Y0379392D01*
X0324095Y0379419D01*
X0323782Y0379438D01*
X0323468Y0379449D01*
X0323154Y0379453D01*
X0086151Y0379453D01*
X0086027Y0379451D01*
X0085903Y0379445D01*
X0085780Y0379436D01*
X0085657Y0379422D01*
X0085534Y0379404D01*
X0085412Y0379383D01*
X0085291Y0379358D01*
X0085171Y0379329D01*
X0085051Y0379296D01*
X0084933Y0379260D01*
X0084816Y0379220D01*
X0084700Y0379176D01*
X0084585Y0379129D01*
X0084473Y0379078D01*
X0084361Y0379023D01*
X0084252Y0378965D01*
X0084144Y0378904D01*
X0084039Y0378839D01*
X0083935Y0378771D01*
X0083834Y0378700D01*
X0083735Y0378626D01*
X0083638Y0378548D01*
X0083544Y0378468D01*
X0083453Y0378385D01*
X0083364Y0378298D01*
X0083277Y0378209D01*
X0083194Y0378118D01*
X0083114Y0378024D01*
X0083036Y0377927D01*
X0082962Y0377828D01*
X0082891Y0377727D01*
X0082823Y0377623D01*
X0082758Y0377518D01*
X0082697Y0377410D01*
X0082639Y0377301D01*
X0082584Y0377189D01*
X0082533Y0377077D01*
X0082486Y0376962D01*
X0082442Y0376846D01*
X0082402Y0376729D01*
X0082366Y0376611D01*
X0082333Y0376491D01*
X0082304Y0376371D01*
X0082279Y0376250D01*
X0082258Y0376128D01*
X0082240Y0376005D01*
X0082226Y0375882D01*
X0082217Y0375759D01*
X0082211Y0375635D01*
X0082209Y0375511D01*
X0082209Y0300713D01*
X0082207Y0300589D01*
X0082201Y0300466D01*
X0082192Y0300342D01*
X0082178Y0300220D01*
X0082161Y0300097D01*
X0082139Y0299975D01*
X0082114Y0299854D01*
X0082085Y0299734D01*
X0082053Y0299615D01*
X0082016Y0299496D01*
X0081976Y0299379D01*
X0081933Y0299264D01*
X0081885Y0299149D01*
X0081834Y0299037D01*
X0081780Y0298926D01*
X0081722Y0298816D01*
X0081661Y0298709D01*
X0081596Y0298603D01*
X0081528Y0298500D01*
X0081457Y0298399D01*
X0081383Y0298300D01*
X0081306Y0298203D01*
X0081225Y0298109D01*
X0081142Y0298018D01*
X0081056Y0297929D01*
X0080967Y0297843D01*
X0080876Y0297760D01*
X0080782Y0297679D01*
X0080685Y0297602D01*
X0080586Y0297528D01*
X0080485Y0297457D01*
X0080382Y0297389D01*
X0080276Y0297324D01*
X0080169Y0297263D01*
X0080059Y0297205D01*
X0079948Y0297151D01*
X0079836Y0297100D01*
X0079721Y0297052D01*
X0079606Y0297009D01*
X0079489Y0296969D01*
X0079370Y0296932D01*
X0079251Y0296900D01*
X0079131Y0296871D01*
X0079010Y0296846D01*
X0078888Y0296824D01*
X0078765Y0296807D01*
X0078643Y0296793D01*
X0078519Y0296784D01*
X0078396Y0296778D01*
X0078272Y0296776D01*
X0070403Y0296776D01*
X0070279Y0296774D01*
X0070155Y0296768D01*
X0070032Y0296759D01*
X0069909Y0296745D01*
X0069786Y0296727D01*
X0069664Y0296706D01*
X0069543Y0296681D01*
X0069423Y0296652D01*
X0069303Y0296619D01*
X0069185Y0296583D01*
X0069068Y0296543D01*
X0068952Y0296499D01*
X0068837Y0296452D01*
X0068725Y0296401D01*
X0068613Y0296346D01*
X0068504Y0296288D01*
X0068396Y0296227D01*
X0068291Y0296162D01*
X0068187Y0296094D01*
X0068086Y0296023D01*
X0067987Y0295949D01*
X0067890Y0295871D01*
X0067796Y0295791D01*
X0067705Y0295708D01*
X0067616Y0295621D01*
X0067529Y0295532D01*
X0067446Y0295441D01*
X0067366Y0295347D01*
X0067288Y0295250D01*
X0067214Y0295151D01*
X0067143Y0295050D01*
X0067075Y0294946D01*
X0067010Y0294841D01*
X0066949Y0294733D01*
X0066891Y0294624D01*
X0066836Y0294512D01*
X0066785Y0294400D01*
X0066738Y0294285D01*
X0066694Y0294169D01*
X0066654Y0294052D01*
X0066618Y0293934D01*
X0066585Y0293814D01*
X0066556Y0293694D01*
X0066531Y0293573D01*
X0066510Y0293451D01*
X0066492Y0293328D01*
X0066478Y0293205D01*
X0066469Y0293082D01*
X0066463Y0292958D01*
X0066461Y0292834D01*
X0066461Y0164886D01*
X0005442Y0164886D01*
X0005318Y0164884D01*
X0005194Y0164878D01*
X0005071Y0164869D01*
X0004948Y0164855D01*
X0004825Y0164837D01*
X0004703Y0164816D01*
X0004582Y0164791D01*
X0004462Y0164762D01*
X0004342Y0164729D01*
X0004224Y0164693D01*
X0004107Y0164653D01*
X0003991Y0164609D01*
X0003876Y0164562D01*
X0003764Y0164511D01*
X0003652Y0164456D01*
X0003543Y0164398D01*
X0003435Y0164337D01*
X0003330Y0164272D01*
X0003226Y0164204D01*
X0003125Y0164133D01*
X0003026Y0164059D01*
X0002929Y0163981D01*
X0002835Y0163901D01*
X0002744Y0163818D01*
X0002655Y0163731D01*
X0002568Y0163642D01*
X0002485Y0163551D01*
X0002405Y0163457D01*
X0002327Y0163360D01*
X0002253Y0163261D01*
X0002182Y0163160D01*
X0002114Y0163056D01*
X0002049Y0162951D01*
X0001988Y0162843D01*
X0001930Y0162734D01*
X0001875Y0162622D01*
X0001824Y0162510D01*
X0001777Y0162395D01*
X0001733Y0162279D01*
X0001693Y0162162D01*
X0001657Y0162044D01*
X0001624Y0161924D01*
X0001595Y0161804D01*
X0001570Y0161683D01*
X0001549Y0161561D01*
X0001531Y0161438D01*
X0001517Y0161315D01*
X0001508Y0161192D01*
X0001502Y0161068D01*
X0001500Y0160944D01*
X0001500Y0013311D01*
X0001503Y0013026D01*
X0001514Y0012740D01*
X0001531Y0012455D01*
X0001555Y0012171D01*
X0001586Y0011887D01*
X0001624Y0011604D01*
X0001669Y0011323D01*
X0001720Y0011042D01*
X0001778Y0010762D01*
X0001843Y0010484D01*
X0001915Y0010208D01*
X0001993Y0009934D01*
X0002078Y0009661D01*
X0002170Y0009391D01*
X0002268Y0009123D01*
X0002372Y0008857D01*
X0002483Y0008594D01*
X0002600Y0008334D01*
X0002723Y0008076D01*
X0002853Y0007822D01*
X0002989Y0007571D01*
X0003130Y0007323D01*
X0003278Y0007079D01*
X0003431Y0006838D01*
X0003591Y0006602D01*
X0003756Y0006369D01*
X0003926Y0006140D01*
X0004102Y0005915D01*
X0004284Y0005695D01*
X0004470Y0005479D01*
X0004662Y0005268D01*
X0004859Y0005061D01*
X0005061Y0004859D01*
X0005268Y0004662D01*
X0005479Y0004470D01*
X0005695Y0004284D01*
X0005915Y0004102D01*
X0006140Y0003926D01*
X0006369Y0003756D01*
X0006602Y0003591D01*
X0006838Y0003431D01*
X0007079Y0003278D01*
X0007323Y0003130D01*
X0007571Y0002989D01*
X0007822Y0002853D01*
X0008076Y0002723D01*
X0008334Y0002600D01*
X0008594Y0002483D01*
X0008857Y0002372D01*
X0009123Y0002268D01*
X0009391Y0002170D01*
X0009661Y0002078D01*
X0009934Y0001993D01*
X0010208Y0001915D01*
X0010484Y0001843D01*
X0010762Y0001778D01*
X0011042Y0001720D01*
X0011323Y0001669D01*
X0011604Y0001624D01*
X0011887Y0001586D01*
X0012171Y0001555D01*
X0012455Y0001531D01*
X0012740Y0001514D01*
X0013026Y0001503D01*
X0013311Y0001500D01*
X0218035Y0218036D02*
X0218035Y0324532D01*
X0245594Y0324532D01*
X0245594Y0218036D01*
X0218035Y0218036D01*
X0249728Y0364985D02*
X0249730Y0365069D01*
X0249736Y0365152D01*
X0249746Y0365235D01*
X0249760Y0365318D01*
X0249777Y0365400D01*
X0249799Y0365481D01*
X0249824Y0365560D01*
X0249853Y0365639D01*
X0249886Y0365716D01*
X0249922Y0365791D01*
X0249962Y0365865D01*
X0250005Y0365937D01*
X0250052Y0366006D01*
X0250102Y0366073D01*
X0250155Y0366138D01*
X0250211Y0366200D01*
X0250269Y0366260D01*
X0250331Y0366317D01*
X0250395Y0366370D01*
X0250462Y0366421D01*
X0250531Y0366468D01*
X0250602Y0366513D01*
X0250675Y0366553D01*
X0250750Y0366590D01*
X0250827Y0366624D01*
X0250905Y0366654D01*
X0250984Y0366680D01*
X0251065Y0366703D01*
X0251147Y0366721D01*
X0251229Y0366736D01*
X0251312Y0366747D01*
X0251395Y0366754D01*
X0251479Y0366757D01*
X0251563Y0366756D01*
X0251646Y0366751D01*
X0251730Y0366742D01*
X0251812Y0366729D01*
X0251894Y0366713D01*
X0251975Y0366692D01*
X0252056Y0366668D01*
X0252134Y0366640D01*
X0252212Y0366608D01*
X0252288Y0366572D01*
X0252362Y0366533D01*
X0252434Y0366491D01*
X0252504Y0366445D01*
X0252572Y0366396D01*
X0252637Y0366344D01*
X0252700Y0366289D01*
X0252760Y0366231D01*
X0252818Y0366170D01*
X0252872Y0366106D01*
X0252924Y0366040D01*
X0252972Y0365972D01*
X0253017Y0365901D01*
X0253058Y0365828D01*
X0253097Y0365754D01*
X0253131Y0365678D01*
X0253162Y0365600D01*
X0253189Y0365521D01*
X0253213Y0365440D01*
X0253232Y0365359D01*
X0253248Y0365277D01*
X0253260Y0365194D01*
X0253268Y0365110D01*
X0253272Y0365027D01*
X0253272Y0364943D01*
X0253268Y0364860D01*
X0253260Y0364776D01*
X0253248Y0364693D01*
X0253232Y0364611D01*
X0253213Y0364530D01*
X0253189Y0364449D01*
X0253162Y0364370D01*
X0253131Y0364292D01*
X0253097Y0364216D01*
X0253058Y0364142D01*
X0253017Y0364069D01*
X0252972Y0363998D01*
X0252924Y0363930D01*
X0252872Y0363864D01*
X0252818Y0363800D01*
X0252760Y0363739D01*
X0252700Y0363681D01*
X0252637Y0363626D01*
X0252572Y0363574D01*
X0252504Y0363525D01*
X0252434Y0363479D01*
X0252362Y0363437D01*
X0252288Y0363398D01*
X0252212Y0363362D01*
X0252134Y0363330D01*
X0252056Y0363302D01*
X0251975Y0363278D01*
X0251894Y0363257D01*
X0251812Y0363241D01*
X0251730Y0363228D01*
X0251646Y0363219D01*
X0251563Y0363214D01*
X0251479Y0363213D01*
X0251395Y0363216D01*
X0251312Y0363223D01*
X0251229Y0363234D01*
X0251147Y0363249D01*
X0251065Y0363267D01*
X0250984Y0363290D01*
X0250905Y0363316D01*
X0250827Y0363346D01*
X0250750Y0363380D01*
X0250675Y0363417D01*
X0250602Y0363457D01*
X0250531Y0363502D01*
X0250462Y0363549D01*
X0250395Y0363600D01*
X0250331Y0363653D01*
X0250269Y0363710D01*
X0250211Y0363770D01*
X0250155Y0363832D01*
X0250102Y0363897D01*
X0250052Y0363964D01*
X0250005Y0364033D01*
X0249962Y0364105D01*
X0249922Y0364179D01*
X0249886Y0364254D01*
X0249853Y0364331D01*
X0249824Y0364410D01*
X0249799Y0364489D01*
X0249777Y0364570D01*
X0249760Y0364652D01*
X0249746Y0364735D01*
X0249736Y0364818D01*
X0249730Y0364901D01*
X0249728Y0364985D01*
X0261539Y0364985D02*
X0261541Y0365069D01*
X0261547Y0365152D01*
X0261557Y0365235D01*
X0261571Y0365318D01*
X0261588Y0365400D01*
X0261610Y0365481D01*
X0261635Y0365560D01*
X0261664Y0365639D01*
X0261697Y0365716D01*
X0261733Y0365791D01*
X0261773Y0365865D01*
X0261816Y0365937D01*
X0261863Y0366006D01*
X0261913Y0366073D01*
X0261966Y0366138D01*
X0262022Y0366200D01*
X0262080Y0366260D01*
X0262142Y0366317D01*
X0262206Y0366370D01*
X0262273Y0366421D01*
X0262342Y0366468D01*
X0262413Y0366513D01*
X0262486Y0366553D01*
X0262561Y0366590D01*
X0262638Y0366624D01*
X0262716Y0366654D01*
X0262795Y0366680D01*
X0262876Y0366703D01*
X0262958Y0366721D01*
X0263040Y0366736D01*
X0263123Y0366747D01*
X0263206Y0366754D01*
X0263290Y0366757D01*
X0263374Y0366756D01*
X0263457Y0366751D01*
X0263541Y0366742D01*
X0263623Y0366729D01*
X0263705Y0366713D01*
X0263786Y0366692D01*
X0263867Y0366668D01*
X0263945Y0366640D01*
X0264023Y0366608D01*
X0264099Y0366572D01*
X0264173Y0366533D01*
X0264245Y0366491D01*
X0264315Y0366445D01*
X0264383Y0366396D01*
X0264448Y0366344D01*
X0264511Y0366289D01*
X0264571Y0366231D01*
X0264629Y0366170D01*
X0264683Y0366106D01*
X0264735Y0366040D01*
X0264783Y0365972D01*
X0264828Y0365901D01*
X0264869Y0365828D01*
X0264908Y0365754D01*
X0264942Y0365678D01*
X0264973Y0365600D01*
X0265000Y0365521D01*
X0265024Y0365440D01*
X0265043Y0365359D01*
X0265059Y0365277D01*
X0265071Y0365194D01*
X0265079Y0365110D01*
X0265083Y0365027D01*
X0265083Y0364943D01*
X0265079Y0364860D01*
X0265071Y0364776D01*
X0265059Y0364693D01*
X0265043Y0364611D01*
X0265024Y0364530D01*
X0265000Y0364449D01*
X0264973Y0364370D01*
X0264942Y0364292D01*
X0264908Y0364216D01*
X0264869Y0364142D01*
X0264828Y0364069D01*
X0264783Y0363998D01*
X0264735Y0363930D01*
X0264683Y0363864D01*
X0264629Y0363800D01*
X0264571Y0363739D01*
X0264511Y0363681D01*
X0264448Y0363626D01*
X0264383Y0363574D01*
X0264315Y0363525D01*
X0264245Y0363479D01*
X0264173Y0363437D01*
X0264099Y0363398D01*
X0264023Y0363362D01*
X0263945Y0363330D01*
X0263867Y0363302D01*
X0263786Y0363278D01*
X0263705Y0363257D01*
X0263623Y0363241D01*
X0263541Y0363228D01*
X0263457Y0363219D01*
X0263374Y0363214D01*
X0263290Y0363213D01*
X0263206Y0363216D01*
X0263123Y0363223D01*
X0263040Y0363234D01*
X0262958Y0363249D01*
X0262876Y0363267D01*
X0262795Y0363290D01*
X0262716Y0363316D01*
X0262638Y0363346D01*
X0262561Y0363380D01*
X0262486Y0363417D01*
X0262413Y0363457D01*
X0262342Y0363502D01*
X0262273Y0363549D01*
X0262206Y0363600D01*
X0262142Y0363653D01*
X0262080Y0363710D01*
X0262022Y0363770D01*
X0261966Y0363832D01*
X0261913Y0363897D01*
X0261863Y0363964D01*
X0261816Y0364033D01*
X0261773Y0364105D01*
X0261733Y0364179D01*
X0261697Y0364254D01*
X0261664Y0364331D01*
X0261635Y0364410D01*
X0261610Y0364489D01*
X0261588Y0364570D01*
X0261571Y0364652D01*
X0261557Y0364735D01*
X0261547Y0364818D01*
X0261541Y0364901D01*
X0261539Y0364985D01*
D11*
X0272055Y0317701D02*
X0272055Y0315201D01*
X0272055Y0310201D02*
X0272055Y0307701D01*
X0272055Y0300201D02*
X0272055Y0298701D01*
X0250555Y0302701D02*
X0249055Y0302701D01*
X0249055Y0303701D01*
X0249055Y0307701D02*
X0249055Y0317701D01*
D12*
X0260555Y0317701D01*
X0272055Y0317701D01*
X0272055Y0315201D01*
X0269555Y0315201D01*
X0269555Y0310201D01*
X0272055Y0310201D01*
X0272055Y0305201D01*
X0269555Y0305201D01*
X0269555Y0300201D01*
X0272055Y0300201D01*
X0272055Y0297701D01*
X0272055Y0307701D01*
X0272055Y0310201D02*
X0272055Y0315201D01*
X0272055Y0297701D02*
X0260555Y0297701D01*
X0249055Y0297701D01*
X0249055Y0302701D01*
X0253055Y0302701D01*
X0255055Y0303701D01*
X0255055Y0311701D01*
X0253055Y0312701D01*
X0249055Y0312701D01*
X0249055Y0311701D02*
X0253055Y0311701D01*
X0253055Y0312701D01*
X0253055Y0311701D02*
X0253055Y0303701D01*
X0249055Y0303701D01*
X0249055Y0302701D02*
X0249055Y0307701D01*
X0253055Y0303701D02*
X0253055Y0302701D01*
X0086488Y0359768D02*
X0086491Y0360001D01*
X0086499Y0360234D01*
X0086514Y0360467D01*
X0086534Y0360699D01*
X0086559Y0360931D01*
X0086591Y0361162D01*
X0086628Y0361392D01*
X0086671Y0361621D01*
X0086719Y0361849D01*
X0086773Y0362076D01*
X0086832Y0362302D01*
X0086897Y0362526D01*
X0086967Y0362748D01*
X0087043Y0362968D01*
X0087125Y0363187D01*
X0087211Y0363403D01*
X0087303Y0363618D01*
X0087400Y0363830D01*
X0087502Y0364039D01*
X0087610Y0364246D01*
X0087722Y0364451D01*
X0087840Y0364652D01*
X0087962Y0364850D01*
X0088089Y0365046D01*
X0088221Y0365238D01*
X0088358Y0365427D01*
X0088499Y0365613D01*
X0088644Y0365795D01*
X0088795Y0365973D01*
X0088949Y0366148D01*
X0089108Y0366319D01*
X0089270Y0366486D01*
X0089437Y0366648D01*
X0089608Y0366807D01*
X0089783Y0366961D01*
X0089961Y0367112D01*
X0090143Y0367257D01*
X0090329Y0367398D01*
X0090518Y0367535D01*
X0090710Y0367667D01*
X0090906Y0367794D01*
X0091104Y0367916D01*
X0091305Y0368034D01*
X0091510Y0368146D01*
X0091717Y0368254D01*
X0091926Y0368356D01*
X0092138Y0368453D01*
X0092353Y0368545D01*
X0092569Y0368631D01*
X0092788Y0368713D01*
X0093008Y0368789D01*
X0093230Y0368859D01*
X0093454Y0368924D01*
X0093680Y0368983D01*
X0093907Y0369037D01*
X0094135Y0369085D01*
X0094364Y0369128D01*
X0094594Y0369165D01*
X0094825Y0369197D01*
X0095057Y0369222D01*
X0095289Y0369242D01*
X0095522Y0369257D01*
X0095755Y0369265D01*
X0095988Y0369268D01*
X0096221Y0369265D01*
X0096454Y0369257D01*
X0096687Y0369242D01*
X0096919Y0369222D01*
X0097151Y0369197D01*
X0097382Y0369165D01*
X0097612Y0369128D01*
X0097841Y0369085D01*
X0098069Y0369037D01*
X0098296Y0368983D01*
X0098522Y0368924D01*
X0098746Y0368859D01*
X0098968Y0368789D01*
X0099188Y0368713D01*
X0099407Y0368631D01*
X0099623Y0368545D01*
X0099838Y0368453D01*
X0100050Y0368356D01*
X0100259Y0368254D01*
X0100466Y0368146D01*
X0100671Y0368034D01*
X0100872Y0367916D01*
X0101070Y0367794D01*
X0101266Y0367667D01*
X0101458Y0367535D01*
X0101647Y0367398D01*
X0101833Y0367257D01*
X0102015Y0367112D01*
X0102193Y0366961D01*
X0102368Y0366807D01*
X0102539Y0366648D01*
X0102706Y0366486D01*
X0102868Y0366319D01*
X0103027Y0366148D01*
X0103181Y0365973D01*
X0103332Y0365795D01*
X0103477Y0365613D01*
X0103618Y0365427D01*
X0103755Y0365238D01*
X0103887Y0365046D01*
X0104014Y0364850D01*
X0104136Y0364652D01*
X0104254Y0364451D01*
X0104366Y0364246D01*
X0104474Y0364039D01*
X0104576Y0363830D01*
X0104673Y0363618D01*
X0104765Y0363403D01*
X0104851Y0363187D01*
X0104933Y0362968D01*
X0105009Y0362748D01*
X0105079Y0362526D01*
X0105144Y0362302D01*
X0105203Y0362076D01*
X0105257Y0361849D01*
X0105305Y0361621D01*
X0105348Y0361392D01*
X0105385Y0361162D01*
X0105417Y0360931D01*
X0105442Y0360699D01*
X0105462Y0360467D01*
X0105477Y0360234D01*
X0105485Y0360001D01*
X0105488Y0359768D01*
X0105485Y0359535D01*
X0105477Y0359302D01*
X0105462Y0359069D01*
X0105442Y0358837D01*
X0105417Y0358605D01*
X0105385Y0358374D01*
X0105348Y0358144D01*
X0105305Y0357915D01*
X0105257Y0357687D01*
X0105203Y0357460D01*
X0105144Y0357234D01*
X0105079Y0357010D01*
X0105009Y0356788D01*
X0104933Y0356568D01*
X0104851Y0356349D01*
X0104765Y0356133D01*
X0104673Y0355918D01*
X0104576Y0355706D01*
X0104474Y0355497D01*
X0104366Y0355290D01*
X0104254Y0355085D01*
X0104136Y0354884D01*
X0104014Y0354686D01*
X0103887Y0354490D01*
X0103755Y0354298D01*
X0103618Y0354109D01*
X0103477Y0353923D01*
X0103332Y0353741D01*
X0103181Y0353563D01*
X0103027Y0353388D01*
X0102868Y0353217D01*
X0102706Y0353050D01*
X0102539Y0352888D01*
X0102368Y0352729D01*
X0102193Y0352575D01*
X0102015Y0352424D01*
X0101833Y0352279D01*
X0101647Y0352138D01*
X0101458Y0352001D01*
X0101266Y0351869D01*
X0101070Y0351742D01*
X0100872Y0351620D01*
X0100671Y0351502D01*
X0100466Y0351390D01*
X0100259Y0351282D01*
X0100050Y0351180D01*
X0099838Y0351083D01*
X0099623Y0350991D01*
X0099407Y0350905D01*
X0099188Y0350823D01*
X0098968Y0350747D01*
X0098746Y0350677D01*
X0098522Y0350612D01*
X0098296Y0350553D01*
X0098069Y0350499D01*
X0097841Y0350451D01*
X0097612Y0350408D01*
X0097382Y0350371D01*
X0097151Y0350339D01*
X0096919Y0350314D01*
X0096687Y0350294D01*
X0096454Y0350279D01*
X0096221Y0350271D01*
X0095988Y0350268D01*
X0095755Y0350271D01*
X0095522Y0350279D01*
X0095289Y0350294D01*
X0095057Y0350314D01*
X0094825Y0350339D01*
X0094594Y0350371D01*
X0094364Y0350408D01*
X0094135Y0350451D01*
X0093907Y0350499D01*
X0093680Y0350553D01*
X0093454Y0350612D01*
X0093230Y0350677D01*
X0093008Y0350747D01*
X0092788Y0350823D01*
X0092569Y0350905D01*
X0092353Y0350991D01*
X0092138Y0351083D01*
X0091926Y0351180D01*
X0091717Y0351282D01*
X0091510Y0351390D01*
X0091305Y0351502D01*
X0091104Y0351620D01*
X0090906Y0351742D01*
X0090710Y0351869D01*
X0090518Y0352001D01*
X0090329Y0352138D01*
X0090143Y0352279D01*
X0089961Y0352424D01*
X0089783Y0352575D01*
X0089608Y0352729D01*
X0089437Y0352888D01*
X0089270Y0353050D01*
X0089108Y0353217D01*
X0088949Y0353388D01*
X0088795Y0353563D01*
X0088644Y0353741D01*
X0088499Y0353923D01*
X0088358Y0354109D01*
X0088221Y0354298D01*
X0088089Y0354490D01*
X0087962Y0354686D01*
X0087840Y0354884D01*
X0087722Y0355085D01*
X0087610Y0355290D01*
X0087502Y0355497D01*
X0087400Y0355706D01*
X0087303Y0355918D01*
X0087211Y0356133D01*
X0087125Y0356349D01*
X0087043Y0356568D01*
X0086967Y0356788D01*
X0086897Y0357010D01*
X0086832Y0357234D01*
X0086773Y0357460D01*
X0086719Y0357687D01*
X0086671Y0357915D01*
X0086628Y0358144D01*
X0086591Y0358374D01*
X0086559Y0358605D01*
X0086534Y0358837D01*
X0086514Y0359069D01*
X0086499Y0359302D01*
X0086491Y0359535D01*
X0086488Y0359768D01*
D13*
X0258307Y0322380D02*
X0262611Y0322380D01*
X0262611Y0323814D02*
X0262611Y0320945D01*
X0259742Y0320945D02*
X0258307Y0322380D01*
X0259325Y0296314D02*
X0258607Y0295597D01*
X0258607Y0294163D01*
X0259325Y0293445D01*
X0259325Y0296314D02*
X0260042Y0296314D01*
X0262911Y0293445D01*
X0262911Y0296314D01*
D14*
X0262240Y0321221D02*
X0273240Y0321221D01*
X0273300Y0321223D01*
X0273361Y0321228D01*
X0273420Y0321237D01*
X0273479Y0321250D01*
X0273538Y0321266D01*
X0273595Y0321286D01*
X0273650Y0321309D01*
X0273705Y0321336D01*
X0273757Y0321365D01*
X0273808Y0321398D01*
X0273857Y0321434D01*
X0273903Y0321472D01*
X0273947Y0321514D01*
X0273989Y0321558D01*
X0274027Y0321604D01*
X0274063Y0321653D01*
X0274096Y0321704D01*
X0274125Y0321756D01*
X0274152Y0321811D01*
X0274175Y0321866D01*
X0274195Y0321923D01*
X0274211Y0321982D01*
X0274224Y0322041D01*
X0274233Y0322100D01*
X0274238Y0322161D01*
X0274240Y0322221D01*
X0274240Y0328221D01*
X0274238Y0328281D01*
X0274233Y0328342D01*
X0274224Y0328401D01*
X0274211Y0328460D01*
X0274195Y0328519D01*
X0274175Y0328576D01*
X0274152Y0328631D01*
X0274125Y0328686D01*
X0274096Y0328738D01*
X0274063Y0328789D01*
X0274027Y0328838D01*
X0273989Y0328884D01*
X0273947Y0328928D01*
X0273903Y0328970D01*
X0273857Y0329008D01*
X0273808Y0329044D01*
X0273757Y0329077D01*
X0273705Y0329106D01*
X0273650Y0329133D01*
X0273595Y0329156D01*
X0273538Y0329176D01*
X0273479Y0329192D01*
X0273420Y0329205D01*
X0273361Y0329214D01*
X0273300Y0329219D01*
X0273240Y0329221D01*
X0262240Y0329221D01*
X0262180Y0329219D01*
X0262119Y0329214D01*
X0262060Y0329205D01*
X0262001Y0329192D01*
X0261942Y0329176D01*
X0261885Y0329156D01*
X0261830Y0329133D01*
X0261775Y0329106D01*
X0261723Y0329077D01*
X0261672Y0329044D01*
X0261623Y0329008D01*
X0261577Y0328970D01*
X0261533Y0328928D01*
X0261491Y0328884D01*
X0261453Y0328838D01*
X0261417Y0328789D01*
X0261384Y0328738D01*
X0261355Y0328686D01*
X0261328Y0328631D01*
X0261305Y0328576D01*
X0261285Y0328519D01*
X0261269Y0328460D01*
X0261256Y0328401D01*
X0261247Y0328342D01*
X0261242Y0328281D01*
X0261240Y0328221D01*
X0261240Y0322221D01*
X0261242Y0322161D01*
X0261247Y0322100D01*
X0261256Y0322041D01*
X0261269Y0321982D01*
X0261285Y0321923D01*
X0261305Y0321866D01*
X0261328Y0321811D01*
X0261355Y0321756D01*
X0261384Y0321704D01*
X0261417Y0321653D01*
X0261453Y0321604D01*
X0261491Y0321558D01*
X0261533Y0321514D01*
X0261577Y0321472D01*
X0261623Y0321434D01*
X0261672Y0321398D01*
X0261723Y0321365D01*
X0261775Y0321336D01*
X0261830Y0321309D01*
X0261885Y0321286D01*
X0261942Y0321266D01*
X0262001Y0321250D01*
X0262060Y0321237D01*
X0262119Y0321228D01*
X0262180Y0321223D01*
X0262240Y0321221D01*
X0305728Y0354603D02*
X0305728Y0360603D01*
X0305730Y0360663D01*
X0305735Y0360724D01*
X0305744Y0360783D01*
X0305757Y0360842D01*
X0305773Y0360901D01*
X0305793Y0360958D01*
X0305816Y0361013D01*
X0305843Y0361068D01*
X0305872Y0361120D01*
X0305905Y0361171D01*
X0305941Y0361220D01*
X0305979Y0361266D01*
X0306021Y0361310D01*
X0306065Y0361352D01*
X0306111Y0361390D01*
X0306160Y0361426D01*
X0306211Y0361459D01*
X0306263Y0361488D01*
X0306318Y0361515D01*
X0306373Y0361538D01*
X0306430Y0361558D01*
X0306489Y0361574D01*
X0306548Y0361587D01*
X0306607Y0361596D01*
X0306668Y0361601D01*
X0306728Y0361603D01*
X0317728Y0361603D01*
X0317788Y0361601D01*
X0317849Y0361596D01*
X0317908Y0361587D01*
X0317967Y0361574D01*
X0318026Y0361558D01*
X0318083Y0361538D01*
X0318138Y0361515D01*
X0318193Y0361488D01*
X0318245Y0361459D01*
X0318296Y0361426D01*
X0318345Y0361390D01*
X0318391Y0361352D01*
X0318435Y0361310D01*
X0318477Y0361266D01*
X0318515Y0361220D01*
X0318551Y0361171D01*
X0318584Y0361120D01*
X0318613Y0361068D01*
X0318640Y0361013D01*
X0318663Y0360958D01*
X0318683Y0360901D01*
X0318699Y0360842D01*
X0318712Y0360783D01*
X0318721Y0360724D01*
X0318726Y0360663D01*
X0318728Y0360603D01*
X0318728Y0354603D01*
X0318726Y0354543D01*
X0318721Y0354482D01*
X0318712Y0354423D01*
X0318699Y0354364D01*
X0318683Y0354305D01*
X0318663Y0354248D01*
X0318640Y0354193D01*
X0318613Y0354138D01*
X0318584Y0354086D01*
X0318551Y0354035D01*
X0318515Y0353986D01*
X0318477Y0353940D01*
X0318435Y0353896D01*
X0318391Y0353854D01*
X0318345Y0353816D01*
X0318296Y0353780D01*
X0318245Y0353747D01*
X0318193Y0353718D01*
X0318138Y0353691D01*
X0318083Y0353668D01*
X0318026Y0353648D01*
X0317967Y0353632D01*
X0317908Y0353619D01*
X0317849Y0353610D01*
X0317788Y0353605D01*
X0317728Y0353603D01*
X0306728Y0353603D01*
X0306668Y0353605D01*
X0306607Y0353610D01*
X0306548Y0353619D01*
X0306489Y0353632D01*
X0306430Y0353648D01*
X0306373Y0353668D01*
X0306318Y0353691D01*
X0306263Y0353718D01*
X0306211Y0353747D01*
X0306160Y0353780D01*
X0306111Y0353816D01*
X0306065Y0353854D01*
X0306021Y0353896D01*
X0305979Y0353940D01*
X0305941Y0353986D01*
X0305905Y0354035D01*
X0305872Y0354086D01*
X0305843Y0354138D01*
X0305816Y0354193D01*
X0305793Y0354248D01*
X0305773Y0354305D01*
X0305757Y0354364D01*
X0305744Y0354423D01*
X0305735Y0354482D01*
X0305730Y0354543D01*
X0305728Y0354603D01*
X0323894Y0184772D02*
X0329894Y0184772D01*
X0329954Y0184770D01*
X0330015Y0184765D01*
X0330074Y0184756D01*
X0330133Y0184743D01*
X0330192Y0184727D01*
X0330249Y0184707D01*
X0330304Y0184684D01*
X0330359Y0184657D01*
X0330411Y0184628D01*
X0330462Y0184595D01*
X0330511Y0184559D01*
X0330557Y0184521D01*
X0330601Y0184479D01*
X0330643Y0184435D01*
X0330681Y0184389D01*
X0330717Y0184340D01*
X0330750Y0184289D01*
X0330779Y0184237D01*
X0330806Y0184182D01*
X0330829Y0184127D01*
X0330849Y0184070D01*
X0330865Y0184011D01*
X0330878Y0183952D01*
X0330887Y0183893D01*
X0330892Y0183832D01*
X0330894Y0183772D01*
X0330894Y0172772D01*
X0330892Y0172712D01*
X0330887Y0172651D01*
X0330878Y0172592D01*
X0330865Y0172533D01*
X0330849Y0172474D01*
X0330829Y0172417D01*
X0330806Y0172362D01*
X0330779Y0172307D01*
X0330750Y0172255D01*
X0330717Y0172204D01*
X0330681Y0172155D01*
X0330643Y0172109D01*
X0330601Y0172065D01*
X0330557Y0172023D01*
X0330511Y0171985D01*
X0330462Y0171949D01*
X0330411Y0171916D01*
X0330359Y0171887D01*
X0330304Y0171860D01*
X0330249Y0171837D01*
X0330192Y0171817D01*
X0330133Y0171801D01*
X0330074Y0171788D01*
X0330015Y0171779D01*
X0329954Y0171774D01*
X0329894Y0171772D01*
X0323894Y0171772D01*
X0323834Y0171774D01*
X0323773Y0171779D01*
X0323714Y0171788D01*
X0323655Y0171801D01*
X0323596Y0171817D01*
X0323539Y0171837D01*
X0323484Y0171860D01*
X0323429Y0171887D01*
X0323377Y0171916D01*
X0323326Y0171949D01*
X0323277Y0171985D01*
X0323231Y0172023D01*
X0323187Y0172065D01*
X0323145Y0172109D01*
X0323107Y0172155D01*
X0323071Y0172204D01*
X0323038Y0172255D01*
X0323009Y0172307D01*
X0322982Y0172362D01*
X0322959Y0172417D01*
X0322939Y0172474D01*
X0322923Y0172533D01*
X0322910Y0172592D01*
X0322901Y0172651D01*
X0322896Y0172712D01*
X0322894Y0172772D01*
X0322894Y0183772D01*
X0322896Y0183832D01*
X0322901Y0183893D01*
X0322910Y0183952D01*
X0322923Y0184011D01*
X0322939Y0184070D01*
X0322959Y0184127D01*
X0322982Y0184182D01*
X0323009Y0184237D01*
X0323038Y0184289D01*
X0323071Y0184340D01*
X0323107Y0184389D01*
X0323145Y0184435D01*
X0323187Y0184479D01*
X0323231Y0184521D01*
X0323277Y0184559D01*
X0323326Y0184595D01*
X0323377Y0184628D01*
X0323429Y0184657D01*
X0323484Y0184684D01*
X0323539Y0184707D01*
X0323596Y0184727D01*
X0323655Y0184743D01*
X0323714Y0184756D01*
X0323773Y0184765D01*
X0323834Y0184770D01*
X0323894Y0184772D01*
X0102034Y0356241D02*
X0101947Y0356095D01*
X0101856Y0355952D01*
X0101762Y0355811D01*
X0101664Y0355672D01*
X0101563Y0355535D01*
X0101459Y0355401D01*
X0101352Y0355270D01*
X0101241Y0355141D01*
X0101127Y0355015D01*
X0101011Y0354892D01*
X0100891Y0354772D01*
X0100768Y0354654D01*
X0100643Y0354540D01*
X0100515Y0354429D01*
X0100384Y0354320D01*
X0100251Y0354215D01*
X0100115Y0354114D01*
X0099976Y0354015D01*
X0099836Y0353920D01*
X0099693Y0353829D01*
X0099548Y0353741D01*
X0099401Y0353656D01*
X0099251Y0353575D01*
X0099100Y0353498D01*
X0098947Y0353424D01*
X0098793Y0353354D01*
X0098636Y0353288D01*
X0098478Y0353226D01*
X0098319Y0353168D01*
X0098158Y0353113D01*
X0097996Y0353062D01*
X0097833Y0353016D01*
X0097669Y0352973D01*
X0097504Y0352934D01*
X0097337Y0352899D01*
X0097170Y0352869D01*
X0097003Y0352842D01*
X0096835Y0352819D01*
X0096666Y0352801D01*
X0096497Y0352787D01*
X0096327Y0352776D01*
X0096158Y0352770D01*
X0095988Y0352768D01*
X0089942Y0363295D02*
X0090029Y0363441D01*
X0090120Y0363584D01*
X0090214Y0363725D01*
X0090312Y0363864D01*
X0090413Y0364001D01*
X0090517Y0364135D01*
X0090624Y0364266D01*
X0090735Y0364395D01*
X0090849Y0364521D01*
X0090965Y0364644D01*
X0091085Y0364764D01*
X0091208Y0364882D01*
X0091333Y0364996D01*
X0091461Y0365107D01*
X0091592Y0365216D01*
X0091725Y0365321D01*
X0091861Y0365422D01*
X0092000Y0365521D01*
X0092140Y0365616D01*
X0092283Y0365707D01*
X0092428Y0365795D01*
X0092575Y0365880D01*
X0092725Y0365961D01*
X0092876Y0366038D01*
X0093029Y0366112D01*
X0093183Y0366182D01*
X0093340Y0366248D01*
X0093498Y0366310D01*
X0093657Y0366368D01*
X0093818Y0366423D01*
X0093980Y0366474D01*
X0094143Y0366520D01*
X0094307Y0366563D01*
X0094472Y0366602D01*
X0094639Y0366637D01*
X0094806Y0366667D01*
X0094973Y0366694D01*
X0095141Y0366717D01*
X0095310Y0366735D01*
X0095479Y0366749D01*
X0095649Y0366760D01*
X0095818Y0366766D01*
X0095988Y0366768D01*
X0089988Y0368268D02*
X0087488Y0370768D01*
X0084988Y0368268D01*
X0087488Y0365768D01*
X0089942Y0356241D02*
X0090029Y0356095D01*
X0090120Y0355952D01*
X0090214Y0355811D01*
X0090312Y0355672D01*
X0090413Y0355535D01*
X0090517Y0355401D01*
X0090624Y0355270D01*
X0090735Y0355141D01*
X0090849Y0355015D01*
X0090965Y0354892D01*
X0091085Y0354772D01*
X0091208Y0354654D01*
X0091333Y0354540D01*
X0091461Y0354429D01*
X0091592Y0354320D01*
X0091725Y0354215D01*
X0091861Y0354114D01*
X0092000Y0354015D01*
X0092140Y0353920D01*
X0092283Y0353829D01*
X0092428Y0353741D01*
X0092575Y0353656D01*
X0092725Y0353575D01*
X0092876Y0353498D01*
X0093029Y0353424D01*
X0093183Y0353354D01*
X0093340Y0353288D01*
X0093498Y0353226D01*
X0093657Y0353168D01*
X0093818Y0353113D01*
X0093980Y0353062D01*
X0094143Y0353016D01*
X0094307Y0352973D01*
X0094472Y0352934D01*
X0094639Y0352899D01*
X0094806Y0352869D01*
X0094973Y0352842D01*
X0095141Y0352819D01*
X0095310Y0352801D01*
X0095479Y0352787D01*
X0095649Y0352776D01*
X0095818Y0352770D01*
X0095988Y0352768D01*
X0102034Y0363295D02*
X0101947Y0363441D01*
X0101856Y0363584D01*
X0101762Y0363725D01*
X0101664Y0363864D01*
X0101563Y0364001D01*
X0101459Y0364135D01*
X0101352Y0364266D01*
X0101241Y0364395D01*
X0101127Y0364521D01*
X0101011Y0364644D01*
X0100891Y0364764D01*
X0100768Y0364882D01*
X0100643Y0364996D01*
X0100515Y0365107D01*
X0100384Y0365216D01*
X0100251Y0365321D01*
X0100115Y0365422D01*
X0099976Y0365521D01*
X0099836Y0365616D01*
X0099693Y0365707D01*
X0099548Y0365795D01*
X0099401Y0365880D01*
X0099251Y0365961D01*
X0099100Y0366038D01*
X0098947Y0366112D01*
X0098793Y0366182D01*
X0098636Y0366248D01*
X0098478Y0366310D01*
X0098319Y0366368D01*
X0098158Y0366423D01*
X0097996Y0366474D01*
X0097833Y0366520D01*
X0097669Y0366563D01*
X0097504Y0366602D01*
X0097337Y0366637D01*
X0097170Y0366667D01*
X0097003Y0366694D01*
X0096835Y0366717D01*
X0096666Y0366735D01*
X0096497Y0366749D01*
X0096327Y0366760D01*
X0096158Y0366766D01*
X0095988Y0366768D01*
X0085488Y0359768D02*
X0085491Y0360026D01*
X0085501Y0360283D01*
X0085516Y0360540D01*
X0085539Y0360797D01*
X0085567Y0361053D01*
X0085602Y0361309D01*
X0085643Y0361563D01*
X0085690Y0361816D01*
X0085743Y0362069D01*
X0085803Y0362319D01*
X0085868Y0362568D01*
X0085940Y0362816D01*
X0086018Y0363062D01*
X0086102Y0363305D01*
X0086192Y0363547D01*
X0086287Y0363786D01*
X0086389Y0364023D01*
X0086496Y0364257D01*
X0086609Y0364489D01*
X0086728Y0364718D01*
X0086852Y0364943D01*
X0086982Y0365166D01*
X0087117Y0365385D01*
X0087258Y0365601D01*
X0087403Y0365814D01*
X0087554Y0366023D01*
X0087710Y0366228D01*
X0087871Y0366429D01*
X0088037Y0366626D01*
X0088208Y0366819D01*
X0088383Y0367008D01*
X0088563Y0367193D01*
X0088748Y0367373D01*
X0088937Y0367548D01*
X0089130Y0367719D01*
X0089327Y0367885D01*
X0089528Y0368046D01*
X0089733Y0368202D01*
X0089942Y0368353D01*
X0090155Y0368498D01*
X0090371Y0368639D01*
X0090590Y0368774D01*
X0090813Y0368904D01*
X0091038Y0369028D01*
X0091267Y0369147D01*
X0091499Y0369260D01*
X0091733Y0369367D01*
X0091970Y0369469D01*
X0092209Y0369564D01*
X0092451Y0369654D01*
X0092694Y0369738D01*
X0092940Y0369816D01*
X0093188Y0369888D01*
X0093437Y0369953D01*
X0093687Y0370013D01*
X0093940Y0370066D01*
X0094193Y0370113D01*
X0094447Y0370154D01*
X0094703Y0370189D01*
X0094959Y0370217D01*
X0095216Y0370240D01*
X0095473Y0370255D01*
X0095730Y0370265D01*
X0095988Y0370268D01*
X0096246Y0370265D01*
X0096503Y0370255D01*
X0096760Y0370240D01*
X0097017Y0370217D01*
X0097273Y0370189D01*
X0097529Y0370154D01*
X0097783Y0370113D01*
X0098036Y0370066D01*
X0098289Y0370013D01*
X0098539Y0369953D01*
X0098788Y0369888D01*
X0099036Y0369816D01*
X0099282Y0369738D01*
X0099525Y0369654D01*
X0099767Y0369564D01*
X0100006Y0369469D01*
X0100243Y0369367D01*
X0100477Y0369260D01*
X0100709Y0369147D01*
X0100938Y0369028D01*
X0101163Y0368904D01*
X0101386Y0368774D01*
X0101605Y0368639D01*
X0101821Y0368498D01*
X0102034Y0368353D01*
X0102243Y0368202D01*
X0102448Y0368046D01*
X0102649Y0367885D01*
X0102846Y0367719D01*
X0103039Y0367548D01*
X0103228Y0367373D01*
X0103413Y0367193D01*
X0103593Y0367008D01*
X0103768Y0366819D01*
X0103939Y0366626D01*
X0104105Y0366429D01*
X0104266Y0366228D01*
X0104422Y0366023D01*
X0104573Y0365814D01*
X0104718Y0365601D01*
X0104859Y0365385D01*
X0104994Y0365166D01*
X0105124Y0364943D01*
X0105248Y0364718D01*
X0105367Y0364489D01*
X0105480Y0364257D01*
X0105587Y0364023D01*
X0105689Y0363786D01*
X0105784Y0363547D01*
X0105874Y0363305D01*
X0105958Y0363062D01*
X0106036Y0362816D01*
X0106108Y0362568D01*
X0106173Y0362319D01*
X0106233Y0362069D01*
X0106286Y0361816D01*
X0106333Y0361563D01*
X0106374Y0361309D01*
X0106409Y0361053D01*
X0106437Y0360797D01*
X0106460Y0360540D01*
X0106475Y0360283D01*
X0106485Y0360026D01*
X0106488Y0359768D01*
X0106485Y0359510D01*
X0106475Y0359253D01*
X0106460Y0358996D01*
X0106437Y0358739D01*
X0106409Y0358483D01*
X0106374Y0358227D01*
X0106333Y0357973D01*
X0106286Y0357720D01*
X0106233Y0357467D01*
X0106173Y0357217D01*
X0106108Y0356968D01*
X0106036Y0356720D01*
X0105958Y0356474D01*
X0105874Y0356231D01*
X0105784Y0355989D01*
X0105689Y0355750D01*
X0105587Y0355513D01*
X0105480Y0355279D01*
X0105367Y0355047D01*
X0105248Y0354818D01*
X0105124Y0354593D01*
X0104994Y0354370D01*
X0104859Y0354151D01*
X0104718Y0353935D01*
X0104573Y0353722D01*
X0104422Y0353513D01*
X0104266Y0353308D01*
X0104105Y0353107D01*
X0103939Y0352910D01*
X0103768Y0352717D01*
X0103593Y0352528D01*
X0103413Y0352343D01*
X0103228Y0352163D01*
X0103039Y0351988D01*
X0102846Y0351817D01*
X0102649Y0351651D01*
X0102448Y0351490D01*
X0102243Y0351334D01*
X0102034Y0351183D01*
X0101821Y0351038D01*
X0101605Y0350897D01*
X0101386Y0350762D01*
X0101163Y0350632D01*
X0100938Y0350508D01*
X0100709Y0350389D01*
X0100477Y0350276D01*
X0100243Y0350169D01*
X0100006Y0350067D01*
X0099767Y0349972D01*
X0099525Y0349882D01*
X0099282Y0349798D01*
X0099036Y0349720D01*
X0098788Y0349648D01*
X0098539Y0349583D01*
X0098289Y0349523D01*
X0098036Y0349470D01*
X0097783Y0349423D01*
X0097529Y0349382D01*
X0097273Y0349347D01*
X0097017Y0349319D01*
X0096760Y0349296D01*
X0096503Y0349281D01*
X0096246Y0349271D01*
X0095988Y0349268D01*
X0095730Y0349271D01*
X0095473Y0349281D01*
X0095216Y0349296D01*
X0094959Y0349319D01*
X0094703Y0349347D01*
X0094447Y0349382D01*
X0094193Y0349423D01*
X0093940Y0349470D01*
X0093687Y0349523D01*
X0093437Y0349583D01*
X0093188Y0349648D01*
X0092940Y0349720D01*
X0092694Y0349798D01*
X0092451Y0349882D01*
X0092209Y0349972D01*
X0091970Y0350067D01*
X0091733Y0350169D01*
X0091499Y0350276D01*
X0091267Y0350389D01*
X0091038Y0350508D01*
X0090813Y0350632D01*
X0090590Y0350762D01*
X0090371Y0350897D01*
X0090155Y0351038D01*
X0089942Y0351183D01*
X0089733Y0351334D01*
X0089528Y0351490D01*
X0089327Y0351651D01*
X0089130Y0351817D01*
X0088937Y0351988D01*
X0088748Y0352163D01*
X0088563Y0352343D01*
X0088383Y0352528D01*
X0088208Y0352717D01*
X0088037Y0352910D01*
X0087871Y0353107D01*
X0087710Y0353308D01*
X0087554Y0353513D01*
X0087403Y0353722D01*
X0087258Y0353935D01*
X0087117Y0354151D01*
X0086982Y0354370D01*
X0086852Y0354593D01*
X0086728Y0354818D01*
X0086609Y0355047D01*
X0086496Y0355279D01*
X0086389Y0355513D01*
X0086287Y0355750D01*
X0086192Y0355989D01*
X0086102Y0356231D01*
X0086018Y0356474D01*
X0085940Y0356720D01*
X0085868Y0356968D01*
X0085803Y0357217D01*
X0085743Y0357467D01*
X0085690Y0357720D01*
X0085643Y0357973D01*
X0085602Y0358227D01*
X0085567Y0358483D01*
X0085539Y0358739D01*
X0085516Y0358996D01*
X0085501Y0359253D01*
X0085491Y0359510D01*
X0085488Y0359768D01*
X0083736Y0286839D02*
X0089736Y0286839D01*
X0089796Y0286837D01*
X0089857Y0286832D01*
X0089916Y0286823D01*
X0089975Y0286810D01*
X0090034Y0286794D01*
X0090091Y0286774D01*
X0090146Y0286751D01*
X0090201Y0286724D01*
X0090253Y0286695D01*
X0090304Y0286662D01*
X0090353Y0286626D01*
X0090399Y0286588D01*
X0090443Y0286546D01*
X0090485Y0286502D01*
X0090523Y0286456D01*
X0090559Y0286407D01*
X0090592Y0286356D01*
X0090621Y0286304D01*
X0090648Y0286249D01*
X0090671Y0286194D01*
X0090691Y0286137D01*
X0090707Y0286078D01*
X0090720Y0286019D01*
X0090729Y0285960D01*
X0090734Y0285899D01*
X0090736Y0285839D01*
X0090736Y0274839D01*
X0090734Y0274779D01*
X0090729Y0274718D01*
X0090720Y0274659D01*
X0090707Y0274600D01*
X0090691Y0274541D01*
X0090671Y0274484D01*
X0090648Y0274429D01*
X0090621Y0274374D01*
X0090592Y0274322D01*
X0090559Y0274271D01*
X0090523Y0274222D01*
X0090485Y0274176D01*
X0090443Y0274132D01*
X0090399Y0274090D01*
X0090353Y0274052D01*
X0090304Y0274016D01*
X0090253Y0273983D01*
X0090201Y0273954D01*
X0090146Y0273927D01*
X0090091Y0273904D01*
X0090034Y0273884D01*
X0089975Y0273868D01*
X0089916Y0273855D01*
X0089857Y0273846D01*
X0089796Y0273841D01*
X0089736Y0273839D01*
X0083736Y0273839D01*
X0083676Y0273841D01*
X0083615Y0273846D01*
X0083556Y0273855D01*
X0083497Y0273868D01*
X0083438Y0273884D01*
X0083381Y0273904D01*
X0083326Y0273927D01*
X0083271Y0273954D01*
X0083219Y0273983D01*
X0083168Y0274016D01*
X0083119Y0274052D01*
X0083073Y0274090D01*
X0083029Y0274132D01*
X0082987Y0274176D01*
X0082949Y0274222D01*
X0082913Y0274271D01*
X0082880Y0274322D01*
X0082851Y0274374D01*
X0082824Y0274429D01*
X0082801Y0274484D01*
X0082781Y0274541D01*
X0082765Y0274600D01*
X0082752Y0274659D01*
X0082743Y0274718D01*
X0082738Y0274779D01*
X0082736Y0274839D01*
X0082736Y0285839D01*
X0082738Y0285899D01*
X0082743Y0285960D01*
X0082752Y0286019D01*
X0082765Y0286078D01*
X0082781Y0286137D01*
X0082801Y0286194D01*
X0082824Y0286249D01*
X0082851Y0286304D01*
X0082880Y0286356D01*
X0082913Y0286407D01*
X0082949Y0286456D01*
X0082987Y0286502D01*
X0083029Y0286546D01*
X0083073Y0286588D01*
X0083119Y0286626D01*
X0083168Y0286662D01*
X0083219Y0286695D01*
X0083271Y0286724D01*
X0083326Y0286751D01*
X0083381Y0286774D01*
X0083438Y0286794D01*
X0083497Y0286810D01*
X0083556Y0286823D01*
X0083615Y0286832D01*
X0083676Y0286837D01*
X0083736Y0286839D01*
M02*
