%
M48
M72
T01C0.0236
T02C0.0354
T03C0.0394
%
T01
X22521Y2687
T02
X2807Y4293
X7757Y8535
X7757Y10238
X6881Y11084
X4982Y12108
X4844Y10956
X4480Y8811
X8702Y11793
X8181Y13811
X10622Y16025
X12964Y20307
X21193Y17393
X21202Y16596
X24381Y19135
X19913Y13574
X26429Y8614
X16360Y3604
X15395Y3574
X15582Y4529
X14204Y4470
X14037Y3496
X12925Y4460
X11124Y6193
X10533Y3466
X13279Y8761
T03
X13529Y2679
X14529Y2679
X15529Y2679
X16529Y2679
X17529Y2679
X18529Y2679
X19529Y2679
X20529Y2679
X21529Y2679
X22529Y2679
X23529Y2679
X24529Y2679
X24529Y1679
X23529Y1679
X22529Y1679
X21529Y1679
X20529Y1679
X19529Y1679
X18529Y1679
X17529Y1679
X16529Y1679
X15529Y1679
X14529Y1679
X13529Y1679
X12529Y1679
X11529Y1679
X11529Y2679
X12529Y2679
X10529Y2679
X9529Y2679
X8529Y2679
X7529Y2679
X6529Y2679
X5529Y2679
X5529Y1679
X6529Y1679
X7529Y1679
X8529Y1679
X9529Y1679
X10529Y1679
M30
