G75*
%MOIN*%
%OFA0B0*%
%FSLAX25Y25*%
%IPPOS*%
%LPD*%
%AMOC8*
5,1,8,0,0,1.08239X$1,22.5*
%
%ADD10C,0.05937*%
%ADD11C,0.06000*%
%ADD12C,0.01000*%
%ADD13C,0.05315*%
%ADD14C,0.06600*%
%ADD15C,0.02400*%
D10*
X0047917Y0013350D03*
X0057917Y0013350D03*
X0067917Y0013350D03*
X0077917Y0013350D03*
X0087917Y0013350D03*
X0097917Y0013350D03*
X0107917Y0013350D03*
X0117917Y0013350D03*
X0127917Y0013350D03*
X0137917Y0013350D03*
X0147917Y0013350D03*
X0157917Y0013350D03*
X0167917Y0013350D03*
X0177917Y0013350D03*
X0187917Y0013350D03*
X0197917Y0013350D03*
X0207917Y0013350D03*
X0217917Y0013350D03*
X0227917Y0013350D03*
X0237917Y0013350D03*
X0237917Y0023350D03*
X0227917Y0023350D03*
X0217917Y0023350D03*
X0207917Y0023350D03*
X0197917Y0023350D03*
X0187917Y0023350D03*
X0177917Y0023350D03*
X0167917Y0023350D03*
X0157917Y0023350D03*
X0147917Y0023350D03*
X0137917Y0023350D03*
X0127917Y0023350D03*
X0117917Y0023350D03*
X0107917Y0023350D03*
X0097917Y0023350D03*
X0087917Y0023350D03*
X0077917Y0023350D03*
X0067917Y0023350D03*
X0057917Y0023350D03*
X0047917Y0023350D03*
D11*
X0147189Y0090331D02*
X0147189Y0096331D01*
X0157189Y0096331D02*
X0157189Y0090331D01*
D12*
X0003000Y0139290D02*
X0003000Y0003000D01*
X0273622Y0003000D01*
X0273622Y0214098D01*
X0273500Y0215958D01*
X0272537Y0219551D01*
X0270678Y0222772D01*
X0268048Y0225402D01*
X0264827Y0227262D01*
X0261234Y0228225D01*
X0259374Y0228346D01*
X0023154Y0228346D01*
X0022294Y0228262D01*
X0020706Y0227604D01*
X0019490Y0226389D01*
X0018833Y0224800D01*
X0018748Y0223941D01*
X0018748Y0146088D01*
X0017920Y0144089D01*
X0017920Y0144089D01*
X0016391Y0142560D01*
X0016391Y0142560D01*
X0014393Y0141732D01*
X0005442Y0141732D01*
X0004966Y0141685D01*
X0004085Y0141321D01*
X0003412Y0140647D01*
X0003047Y0139767D01*
X0003000Y0139290D01*
X0003000Y0139295D02*
X0124852Y0139295D01*
X0124846Y0139288D02*
X0124213Y0137760D01*
X0124213Y0136106D01*
X0124846Y0134578D01*
X0125670Y0133753D01*
X0125670Y0131868D01*
X0126081Y0130876D01*
X0126841Y0130117D01*
X0150687Y0106270D01*
X0151447Y0105510D01*
X0152439Y0105099D01*
X0179346Y0105099D01*
X0179876Y0105096D01*
X0179883Y0105099D01*
X0179891Y0105099D01*
X0180380Y0105302D01*
X0180870Y0105501D01*
X0180876Y0105507D01*
X0180884Y0105510D01*
X0181258Y0105884D01*
X0189439Y0113972D01*
X0189447Y0113975D01*
X0189821Y0114349D01*
X0190197Y0114721D01*
X0190201Y0114729D01*
X0190206Y0114734D01*
X0190409Y0115223D01*
X0190614Y0115711D01*
X0190614Y0115719D01*
X0190617Y0115727D01*
X0190617Y0116256D01*
X0190620Y0116785D01*
X0190617Y0116793D01*
X0190617Y0118891D01*
X0191442Y0119716D01*
X0192075Y0121244D01*
X0192075Y0122898D01*
X0191442Y0124426D01*
X0190277Y0125591D01*
X0190418Y0125591D01*
X0191946Y0126223D01*
X0193115Y0127393D01*
X0193748Y0128921D01*
X0193748Y0130575D01*
X0193604Y0130922D01*
X0195924Y0134429D01*
X0196112Y0134616D01*
X0196218Y0134873D01*
X0196371Y0135104D01*
X0196421Y0135364D01*
X0196523Y0135609D01*
X0196523Y0135886D01*
X0196576Y0136158D01*
X0196523Y0136418D01*
X0196523Y0150167D01*
X0196112Y0151159D01*
X0191976Y0155295D01*
X0191976Y0156461D01*
X0191343Y0157989D01*
X0190174Y0159158D01*
X0188646Y0159791D01*
X0186992Y0159791D01*
X0185464Y0159158D01*
X0184294Y0157989D01*
X0183661Y0156461D01*
X0183661Y0154807D01*
X0184294Y0153279D01*
X0185464Y0152109D01*
X0186992Y0151476D01*
X0188158Y0151476D01*
X0191123Y0148512D01*
X0191123Y0136958D01*
X0189104Y0133905D01*
X0188764Y0133905D01*
X0187236Y0133273D01*
X0186258Y0132295D01*
X0186858Y0133744D01*
X0186858Y0135398D01*
X0186225Y0136926D01*
X0185056Y0138095D01*
X0183528Y0138728D01*
X0181874Y0138728D01*
X0181780Y0138690D01*
X0180676Y0139540D01*
X0180676Y0151427D01*
X0181611Y0151814D01*
X0182780Y0152984D01*
X0183413Y0154512D01*
X0183413Y0156166D01*
X0182780Y0157694D01*
X0181611Y0158863D01*
X0180083Y0159496D01*
X0178429Y0159496D01*
X0176901Y0158863D01*
X0175731Y0157694D01*
X0175098Y0156166D01*
X0175098Y0154512D01*
X0175276Y0154082D01*
X0175276Y0138571D01*
X0175230Y0138399D01*
X0175276Y0138039D01*
X0175276Y0137676D01*
X0175345Y0137511D01*
X0175368Y0137333D01*
X0175548Y0137019D01*
X0175687Y0136683D01*
X0175814Y0136557D01*
X0175903Y0136402D01*
X0176190Y0136180D01*
X0176447Y0135924D01*
X0176612Y0135855D01*
X0178503Y0134398D01*
X0176854Y0134398D01*
X0175326Y0133765D01*
X0174157Y0132595D01*
X0173524Y0131067D01*
X0173524Y0129918D01*
X0173120Y0129514D01*
X0172389Y0127750D01*
X0172389Y0126323D01*
X0168114Y0122048D01*
X0164964Y0122048D01*
X0121837Y0163975D01*
X0121549Y0205539D01*
X0120806Y0207298D01*
X0119447Y0208639D01*
X0117677Y0209358D01*
X0115768Y0209344D01*
X0114009Y0208601D01*
X0112668Y0207242D01*
X0111949Y0205473D01*
X0112245Y0162837D01*
X0112238Y0162820D01*
X0112251Y0161883D01*
X0112258Y0160945D01*
X0112265Y0160929D01*
X0112265Y0160911D01*
X0112636Y0160049D01*
X0113001Y0159186D01*
X0113014Y0159173D01*
X0113021Y0159157D01*
X0113693Y0158503D01*
X0114360Y0157845D01*
X0114377Y0157838D01*
X0159646Y0113830D01*
X0160297Y0113179D01*
X0160329Y0113165D01*
X0160354Y0113141D01*
X0161210Y0112801D01*
X0162061Y0112448D01*
X0162096Y0112448D01*
X0162129Y0112435D01*
X0163049Y0112448D01*
X0169238Y0112448D01*
X0169714Y0112354D01*
X0170184Y0112448D01*
X0170663Y0112448D01*
X0170901Y0112546D01*
X0171156Y0112546D01*
X0171603Y0112732D01*
X0172078Y0112827D01*
X0172477Y0113094D01*
X0172920Y0113277D01*
X0173262Y0113620D01*
X0173665Y0113889D01*
X0173931Y0114288D01*
X0179908Y0120265D01*
X0181258Y0121616D01*
X0181989Y0123380D01*
X0181989Y0127750D01*
X0181569Y0128763D01*
X0181839Y0129413D01*
X0181839Y0130428D01*
X0181874Y0130413D01*
X0183528Y0130413D01*
X0185056Y0131046D01*
X0186033Y0132024D01*
X0185433Y0130575D01*
X0185433Y0128921D01*
X0186066Y0127393D01*
X0187231Y0126228D01*
X0187090Y0126228D01*
X0185562Y0125595D01*
X0184393Y0124426D01*
X0183760Y0122898D01*
X0183760Y0121244D01*
X0184393Y0119716D01*
X0185217Y0118891D01*
X0185217Y0117391D01*
X0178245Y0110499D01*
X0154095Y0110499D01*
X0131070Y0133524D01*
X0131070Y0133753D01*
X0131895Y0134578D01*
X0132528Y0136106D01*
X0132528Y0137760D01*
X0131895Y0139288D01*
X0130725Y0140458D01*
X0129197Y0141091D01*
X0127543Y0141091D01*
X0126015Y0140458D01*
X0124846Y0139288D01*
X0124435Y0138296D02*
X0003000Y0138296D01*
X0003000Y0137298D02*
X0124213Y0137298D01*
X0124213Y0136299D02*
X0003000Y0136299D01*
X0003000Y0135301D02*
X0124546Y0135301D01*
X0125122Y0134302D02*
X0003000Y0134302D01*
X0003000Y0133303D02*
X0125670Y0133303D01*
X0125670Y0132305D02*
X0003000Y0132305D01*
X0003000Y0131306D02*
X0125903Y0131306D01*
X0126649Y0130308D02*
X0003000Y0130308D01*
X0003000Y0129309D02*
X0127648Y0129309D01*
X0128646Y0128311D02*
X0003000Y0128311D01*
X0003000Y0127312D02*
X0129645Y0127312D01*
X0130643Y0126314D02*
X0003000Y0126314D01*
X0003000Y0125315D02*
X0131642Y0125315D01*
X0132640Y0124317D02*
X0003000Y0124317D01*
X0003000Y0123318D02*
X0133639Y0123318D01*
X0134637Y0122320D02*
X0003000Y0122320D01*
X0003000Y0121321D02*
X0135636Y0121321D01*
X0136634Y0120323D02*
X0003000Y0120323D01*
X0003000Y0119324D02*
X0137633Y0119324D01*
X0138631Y0118326D02*
X0003000Y0118326D01*
X0003000Y0117327D02*
X0139630Y0117327D01*
X0140628Y0116329D02*
X0003000Y0116329D01*
X0003000Y0115330D02*
X0141627Y0115330D01*
X0142625Y0114332D02*
X0003000Y0114332D01*
X0003000Y0113333D02*
X0143624Y0113333D01*
X0144622Y0112335D02*
X0003000Y0112335D01*
X0003000Y0111336D02*
X0145621Y0111336D01*
X0146619Y0110338D02*
X0003000Y0110338D01*
X0003000Y0109339D02*
X0147618Y0109339D01*
X0148616Y0108341D02*
X0003000Y0108341D01*
X0003000Y0107342D02*
X0149615Y0107342D01*
X0150614Y0106344D02*
X0003000Y0106344D01*
X0003000Y0105345D02*
X0151845Y0105345D01*
X0149738Y0100146D02*
X0148084Y0100831D01*
X0146294Y0100831D01*
X0144640Y0100146D01*
X0143374Y0098880D01*
X0142689Y0097226D01*
X0142689Y0089436D01*
X0143374Y0087782D01*
X0144640Y0086516D01*
X0146294Y0085831D01*
X0148084Y0085831D01*
X0149738Y0086516D01*
X0151004Y0087782D01*
X0151689Y0089436D01*
X0151689Y0097226D01*
X0151004Y0098880D01*
X0149738Y0100146D01*
X0149238Y0100353D02*
X0155170Y0100353D01*
X0155462Y0100501D02*
X0154830Y0100179D01*
X0154257Y0099763D01*
X0153757Y0099262D01*
X0153340Y0098689D01*
X0153019Y0098058D01*
X0152800Y0097384D01*
X0152689Y0096685D01*
X0152689Y0093831D01*
X0156689Y0093831D01*
X0156689Y0100808D01*
X0156135Y0100720D01*
X0155462Y0100501D01*
X0156689Y0100353D02*
X0157689Y0100353D01*
X0157689Y0100808D02*
X0157689Y0093831D01*
X0156689Y0093831D01*
X0156689Y0092831D01*
X0152689Y0092831D01*
X0152689Y0089977D01*
X0152800Y0089277D01*
X0153019Y0088603D01*
X0153340Y0087972D01*
X0153757Y0087399D01*
X0154257Y0086898D01*
X0154830Y0086482D01*
X0155462Y0086160D01*
X0156135Y0085942D01*
X0156689Y0085854D01*
X0156689Y0092831D01*
X0157689Y0092831D01*
X0157689Y0093831D01*
X0161689Y0093831D01*
X0161689Y0096685D01*
X0161578Y0097384D01*
X0161359Y0098058D01*
X0161038Y0098689D01*
X0160621Y0099262D01*
X0160121Y0099763D01*
X0159547Y0100179D01*
X0158916Y0100501D01*
X0158243Y0100720D01*
X0157689Y0100808D01*
X0157689Y0099354D02*
X0156689Y0099354D01*
X0156689Y0098356D02*
X0157689Y0098356D01*
X0157689Y0097357D02*
X0156689Y0097357D01*
X0156689Y0096359D02*
X0157689Y0096359D01*
X0157689Y0095360D02*
X0156689Y0095360D01*
X0156689Y0094362D02*
X0157689Y0094362D01*
X0157689Y0093363D02*
X0273622Y0093363D01*
X0273622Y0092365D02*
X0161689Y0092365D01*
X0161689Y0092831D02*
X0157689Y0092831D01*
X0157689Y0085854D01*
X0158243Y0085942D01*
X0158916Y0086160D01*
X0159547Y0086482D01*
X0160121Y0086898D01*
X0160621Y0087399D01*
X0161038Y0087972D01*
X0161359Y0088603D01*
X0161578Y0089277D01*
X0161689Y0089977D01*
X0161689Y0092831D01*
X0161689Y0091366D02*
X0273622Y0091366D01*
X0273622Y0090368D02*
X0161689Y0090368D01*
X0161593Y0089369D02*
X0273622Y0089369D01*
X0273622Y0088370D02*
X0161241Y0088370D01*
X0160594Y0087372D02*
X0273622Y0087372D01*
X0273622Y0086373D02*
X0159335Y0086373D01*
X0157689Y0086373D02*
X0156689Y0086373D01*
X0156689Y0087372D02*
X0157689Y0087372D01*
X0157689Y0088370D02*
X0156689Y0088370D01*
X0156689Y0089369D02*
X0157689Y0089369D01*
X0157689Y0090368D02*
X0156689Y0090368D01*
X0156689Y0091366D02*
X0157689Y0091366D01*
X0157689Y0092365D02*
X0156689Y0092365D01*
X0156689Y0093363D02*
X0151689Y0093363D01*
X0151689Y0092365D02*
X0152689Y0092365D01*
X0152689Y0091366D02*
X0151689Y0091366D01*
X0151689Y0090368D02*
X0152689Y0090368D01*
X0152785Y0089369D02*
X0151661Y0089369D01*
X0151248Y0088370D02*
X0153137Y0088370D01*
X0153784Y0087372D02*
X0150594Y0087372D01*
X0149394Y0086373D02*
X0155043Y0086373D01*
X0152689Y0094362D02*
X0151689Y0094362D01*
X0151689Y0095360D02*
X0152689Y0095360D01*
X0152689Y0096359D02*
X0151689Y0096359D01*
X0151635Y0097357D02*
X0152795Y0097357D01*
X0153170Y0098356D02*
X0151221Y0098356D01*
X0150530Y0099354D02*
X0153848Y0099354D01*
X0159208Y0100353D02*
X0273622Y0100353D01*
X0273622Y0101351D02*
X0003000Y0101351D01*
X0003000Y0100353D02*
X0145140Y0100353D01*
X0143848Y0099354D02*
X0003000Y0099354D01*
X0003000Y0098356D02*
X0143157Y0098356D01*
X0142743Y0097357D02*
X0003000Y0097357D01*
X0003000Y0096359D02*
X0142689Y0096359D01*
X0142689Y0095360D02*
X0003000Y0095360D01*
X0003000Y0094362D02*
X0142689Y0094362D01*
X0142689Y0093363D02*
X0003000Y0093363D01*
X0003000Y0092365D02*
X0142689Y0092365D01*
X0142689Y0091366D02*
X0003000Y0091366D01*
X0003000Y0090368D02*
X0142689Y0090368D01*
X0142717Y0089369D02*
X0003000Y0089369D01*
X0003000Y0088370D02*
X0143130Y0088370D01*
X0143784Y0087372D02*
X0003000Y0087372D01*
X0003000Y0086373D02*
X0144984Y0086373D01*
X0161689Y0094362D02*
X0273622Y0094362D01*
X0273622Y0095360D02*
X0161689Y0095360D01*
X0161689Y0096359D02*
X0273622Y0096359D01*
X0273622Y0097357D02*
X0161583Y0097357D01*
X0161208Y0098356D02*
X0273622Y0098356D01*
X0273622Y0099354D02*
X0160530Y0099354D01*
X0153258Y0111336D02*
X0179092Y0111336D01*
X0180102Y0112335D02*
X0152259Y0112335D01*
X0151261Y0113333D02*
X0160142Y0113333D01*
X0159129Y0114332D02*
X0150262Y0114332D01*
X0149264Y0115330D02*
X0158102Y0115330D01*
X0157075Y0116329D02*
X0148265Y0116329D01*
X0147267Y0117327D02*
X0156048Y0117327D01*
X0155021Y0118326D02*
X0146268Y0118326D01*
X0145270Y0119324D02*
X0153994Y0119324D01*
X0152967Y0120323D02*
X0144271Y0120323D01*
X0143273Y0121321D02*
X0151940Y0121321D01*
X0150913Y0122320D02*
X0142274Y0122320D01*
X0141276Y0123318D02*
X0149885Y0123318D01*
X0148858Y0124317D02*
X0140277Y0124317D01*
X0139279Y0125315D02*
X0147831Y0125315D01*
X0146804Y0126314D02*
X0138280Y0126314D01*
X0137282Y0127312D02*
X0145777Y0127312D01*
X0144750Y0128311D02*
X0136283Y0128311D01*
X0135284Y0129309D02*
X0143723Y0129309D01*
X0142696Y0130308D02*
X0134286Y0130308D01*
X0133287Y0131306D02*
X0141669Y0131306D01*
X0140642Y0132305D02*
X0132289Y0132305D01*
X0131290Y0133303D02*
X0139614Y0133303D01*
X0138587Y0134302D02*
X0131619Y0134302D01*
X0132194Y0135301D02*
X0137560Y0135301D01*
X0136533Y0136299D02*
X0132528Y0136299D01*
X0132528Y0137298D02*
X0135506Y0137298D01*
X0134479Y0138296D02*
X0132306Y0138296D01*
X0131888Y0139295D02*
X0133452Y0139295D01*
X0132425Y0140293D02*
X0130890Y0140293D01*
X0131398Y0141292D02*
X0004056Y0141292D01*
X0003265Y0140293D02*
X0125851Y0140293D01*
X0129343Y0143289D02*
X0017119Y0143289D01*
X0018002Y0144287D02*
X0128316Y0144287D01*
X0127289Y0145286D02*
X0018416Y0145286D01*
X0018748Y0146284D02*
X0126262Y0146284D01*
X0125235Y0147283D02*
X0018748Y0147283D01*
X0018748Y0148281D02*
X0124208Y0148281D01*
X0123181Y0149280D02*
X0018748Y0149280D01*
X0018748Y0150278D02*
X0122154Y0150278D01*
X0121127Y0151277D02*
X0018748Y0151277D01*
X0018748Y0152275D02*
X0120099Y0152275D01*
X0119072Y0153274D02*
X0018748Y0153274D01*
X0018748Y0154272D02*
X0118045Y0154272D01*
X0117018Y0155271D02*
X0018748Y0155271D01*
X0018748Y0156269D02*
X0115991Y0156269D01*
X0114964Y0157268D02*
X0018748Y0157268D01*
X0018748Y0158266D02*
X0113933Y0158266D01*
X0112968Y0159265D02*
X0018748Y0159265D01*
X0018748Y0160263D02*
X0112544Y0160263D01*
X0112256Y0161262D02*
X0018748Y0161262D01*
X0018748Y0162260D02*
X0112246Y0162260D01*
X0112242Y0163259D02*
X0018748Y0163259D01*
X0018748Y0164257D02*
X0112235Y0164257D01*
X0112228Y0165256D02*
X0018748Y0165256D01*
X0018748Y0166254D02*
X0112221Y0166254D01*
X0112214Y0167253D02*
X0018748Y0167253D01*
X0018748Y0168251D02*
X0112207Y0168251D01*
X0112200Y0169250D02*
X0018748Y0169250D01*
X0018748Y0170248D02*
X0112193Y0170248D01*
X0112187Y0171247D02*
X0018748Y0171247D01*
X0018748Y0172245D02*
X0112180Y0172245D01*
X0112173Y0173244D02*
X0018748Y0173244D01*
X0018748Y0174242D02*
X0112166Y0174242D01*
X0112159Y0175241D02*
X0018748Y0175241D01*
X0018748Y0176239D02*
X0112152Y0176239D01*
X0112145Y0177238D02*
X0018748Y0177238D01*
X0018748Y0178237D02*
X0112138Y0178237D01*
X0112131Y0179235D02*
X0018748Y0179235D01*
X0018748Y0180234D02*
X0112124Y0180234D01*
X0112117Y0181232D02*
X0018748Y0181232D01*
X0018748Y0182231D02*
X0112110Y0182231D01*
X0112104Y0183229D02*
X0018748Y0183229D01*
X0018748Y0184228D02*
X0112097Y0184228D01*
X0112090Y0185226D02*
X0018748Y0185226D01*
X0018748Y0186225D02*
X0112083Y0186225D01*
X0112076Y0187223D02*
X0018748Y0187223D01*
X0018748Y0188222D02*
X0112069Y0188222D01*
X0112062Y0189220D02*
X0018748Y0189220D01*
X0018748Y0190219D02*
X0112055Y0190219D01*
X0112048Y0191217D02*
X0018748Y0191217D01*
X0018748Y0192216D02*
X0112041Y0192216D01*
X0112034Y0193214D02*
X0018748Y0193214D01*
X0018748Y0194213D02*
X0112027Y0194213D01*
X0112020Y0195211D02*
X0018748Y0195211D01*
X0018748Y0196210D02*
X0112014Y0196210D01*
X0112007Y0197208D02*
X0018748Y0197208D01*
X0018748Y0198207D02*
X0112000Y0198207D01*
X0111993Y0199205D02*
X0018748Y0199205D01*
X0018748Y0200204D02*
X0111986Y0200204D01*
X0111979Y0201202D02*
X0018748Y0201202D01*
X0018748Y0202201D02*
X0111972Y0202201D01*
X0111965Y0203199D02*
X0018748Y0203199D01*
X0018748Y0204198D02*
X0111958Y0204198D01*
X0111951Y0205196D02*
X0018748Y0205196D01*
X0018748Y0206195D02*
X0112243Y0206195D01*
X0112648Y0207193D02*
X0018748Y0207193D01*
X0018748Y0208192D02*
X0113605Y0208192D01*
X0115403Y0209190D02*
X0018748Y0209190D01*
X0018748Y0210189D02*
X0273622Y0210189D01*
X0273622Y0211187D02*
X0018748Y0211187D01*
X0018748Y0212186D02*
X0273622Y0212186D01*
X0273622Y0213184D02*
X0018748Y0213184D01*
X0018748Y0214183D02*
X0273616Y0214183D01*
X0273551Y0215181D02*
X0018748Y0215181D01*
X0018748Y0216180D02*
X0273441Y0216180D01*
X0273173Y0217178D02*
X0018748Y0217178D01*
X0018748Y0218177D02*
X0272906Y0218177D01*
X0272638Y0219175D02*
X0018748Y0219175D01*
X0018748Y0220174D02*
X0272178Y0220174D01*
X0271601Y0221172D02*
X0018748Y0221172D01*
X0018748Y0222171D02*
X0271025Y0222171D01*
X0270280Y0223170D02*
X0018748Y0223170D01*
X0018770Y0224168D02*
X0269282Y0224168D01*
X0268283Y0225167D02*
X0018984Y0225167D01*
X0019398Y0226165D02*
X0266726Y0226165D01*
X0264997Y0227164D02*
X0020266Y0227164D01*
X0022053Y0228162D02*
X0261467Y0228162D01*
X0273622Y0209190D02*
X0118089Y0209190D01*
X0119900Y0208192D02*
X0273622Y0208192D01*
X0273622Y0207193D02*
X0120851Y0207193D01*
X0121272Y0206195D02*
X0273622Y0206195D01*
X0273622Y0205196D02*
X0121552Y0205196D01*
X0121558Y0204198D02*
X0273622Y0204198D01*
X0273622Y0203199D02*
X0121565Y0203199D01*
X0121572Y0202201D02*
X0273622Y0202201D01*
X0273622Y0201202D02*
X0121579Y0201202D01*
X0121586Y0200204D02*
X0273622Y0200204D01*
X0273622Y0199205D02*
X0121593Y0199205D01*
X0121600Y0198207D02*
X0273622Y0198207D01*
X0273622Y0197208D02*
X0121607Y0197208D01*
X0121614Y0196210D02*
X0273622Y0196210D01*
X0273622Y0195211D02*
X0121621Y0195211D01*
X0121628Y0194213D02*
X0273622Y0194213D01*
X0273622Y0193214D02*
X0121635Y0193214D01*
X0121641Y0192216D02*
X0273622Y0192216D01*
X0273622Y0191217D02*
X0121648Y0191217D01*
X0121655Y0190219D02*
X0273622Y0190219D01*
X0273622Y0189220D02*
X0121662Y0189220D01*
X0121669Y0188222D02*
X0273622Y0188222D01*
X0273622Y0187223D02*
X0121676Y0187223D01*
X0121683Y0186225D02*
X0273622Y0186225D01*
X0273622Y0185226D02*
X0121690Y0185226D01*
X0121697Y0184228D02*
X0273622Y0184228D01*
X0273622Y0183229D02*
X0121704Y0183229D01*
X0121711Y0182231D02*
X0273622Y0182231D01*
X0273622Y0181232D02*
X0121718Y0181232D01*
X0121724Y0180234D02*
X0273622Y0180234D01*
X0273622Y0179235D02*
X0121731Y0179235D01*
X0121738Y0178237D02*
X0273622Y0178237D01*
X0273622Y0177238D02*
X0121745Y0177238D01*
X0121752Y0176239D02*
X0273622Y0176239D01*
X0273622Y0175241D02*
X0121759Y0175241D01*
X0121766Y0174242D02*
X0273622Y0174242D01*
X0273622Y0173244D02*
X0121773Y0173244D01*
X0121780Y0172245D02*
X0273622Y0172245D01*
X0273622Y0171247D02*
X0121787Y0171247D01*
X0121794Y0170248D02*
X0273622Y0170248D01*
X0273622Y0169250D02*
X0121801Y0169250D01*
X0121808Y0168251D02*
X0273622Y0168251D01*
X0273622Y0167253D02*
X0121814Y0167253D01*
X0121821Y0166254D02*
X0273622Y0166254D01*
X0273622Y0165256D02*
X0121828Y0165256D01*
X0121835Y0164257D02*
X0273622Y0164257D01*
X0273622Y0163259D02*
X0122574Y0163259D01*
X0123601Y0162260D02*
X0273622Y0162260D01*
X0273622Y0161262D02*
X0124628Y0161262D01*
X0125655Y0160263D02*
X0273622Y0160263D01*
X0273622Y0159265D02*
X0189917Y0159265D01*
X0191066Y0158266D02*
X0273622Y0158266D01*
X0273622Y0157268D02*
X0191642Y0157268D01*
X0191976Y0156269D02*
X0273622Y0156269D01*
X0273622Y0155271D02*
X0192000Y0155271D01*
X0192999Y0154272D02*
X0273622Y0154272D01*
X0273622Y0153274D02*
X0193997Y0153274D01*
X0194996Y0152275D02*
X0273622Y0152275D01*
X0273622Y0151277D02*
X0195994Y0151277D01*
X0196477Y0150278D02*
X0273622Y0150278D01*
X0273622Y0149280D02*
X0196523Y0149280D01*
X0196523Y0148281D02*
X0273622Y0148281D01*
X0273622Y0147283D02*
X0196523Y0147283D01*
X0196523Y0146284D02*
X0273622Y0146284D01*
X0273622Y0145286D02*
X0196523Y0145286D01*
X0196523Y0144287D02*
X0273622Y0144287D01*
X0273622Y0143289D02*
X0196523Y0143289D01*
X0196523Y0142290D02*
X0273622Y0142290D01*
X0273622Y0141292D02*
X0196523Y0141292D01*
X0196523Y0140293D02*
X0273622Y0140293D01*
X0273622Y0139295D02*
X0196523Y0139295D01*
X0196523Y0138296D02*
X0273622Y0138296D01*
X0273622Y0137298D02*
X0196523Y0137298D01*
X0196547Y0136299D02*
X0273622Y0136299D01*
X0273622Y0135301D02*
X0196409Y0135301D01*
X0195841Y0134302D02*
X0273622Y0134302D01*
X0273622Y0133303D02*
X0195180Y0133303D01*
X0194519Y0132305D02*
X0273622Y0132305D01*
X0273622Y0131306D02*
X0193859Y0131306D01*
X0193748Y0130308D02*
X0273622Y0130308D01*
X0273622Y0129309D02*
X0193748Y0129309D01*
X0193495Y0128311D02*
X0273622Y0128311D01*
X0273622Y0127312D02*
X0193035Y0127312D01*
X0192036Y0126314D02*
X0273622Y0126314D01*
X0273622Y0125315D02*
X0190552Y0125315D01*
X0191487Y0124317D02*
X0273622Y0124317D01*
X0273622Y0123318D02*
X0191901Y0123318D01*
X0192075Y0122320D02*
X0273622Y0122320D01*
X0273622Y0121321D02*
X0192075Y0121321D01*
X0191693Y0120323D02*
X0273622Y0120323D01*
X0273622Y0119324D02*
X0191050Y0119324D01*
X0190617Y0118326D02*
X0273622Y0118326D01*
X0273622Y0117327D02*
X0190617Y0117327D01*
X0190618Y0116329D02*
X0273622Y0116329D01*
X0273622Y0115330D02*
X0190454Y0115330D01*
X0189804Y0114332D02*
X0273622Y0114332D01*
X0273622Y0113333D02*
X0188793Y0113333D01*
X0187783Y0112335D02*
X0273622Y0112335D01*
X0273622Y0111336D02*
X0186773Y0111336D01*
X0185763Y0110338D02*
X0273622Y0110338D01*
X0273622Y0109339D02*
X0184753Y0109339D01*
X0183743Y0108341D02*
X0273622Y0108341D01*
X0273622Y0107342D02*
X0182733Y0107342D01*
X0181723Y0106344D02*
X0273622Y0106344D01*
X0273622Y0105345D02*
X0180487Y0105345D01*
X0181112Y0113333D02*
X0172976Y0113333D01*
X0173974Y0114332D02*
X0182122Y0114332D01*
X0183132Y0115330D02*
X0174973Y0115330D01*
X0175971Y0116329D02*
X0184142Y0116329D01*
X0185153Y0117327D02*
X0176970Y0117327D01*
X0177968Y0118326D02*
X0185217Y0118326D01*
X0184784Y0119324D02*
X0178967Y0119324D01*
X0179965Y0120323D02*
X0184141Y0120323D01*
X0183760Y0121321D02*
X0180964Y0121321D01*
X0181550Y0122320D02*
X0183760Y0122320D01*
X0183934Y0123318D02*
X0181963Y0123318D01*
X0181989Y0124317D02*
X0184348Y0124317D01*
X0185282Y0125315D02*
X0181989Y0125315D01*
X0181989Y0126314D02*
X0187145Y0126314D01*
X0186147Y0127312D02*
X0181989Y0127312D01*
X0181757Y0128311D02*
X0185686Y0128311D01*
X0185433Y0129309D02*
X0181796Y0129309D01*
X0181839Y0130308D02*
X0185433Y0130308D01*
X0185316Y0131306D02*
X0185736Y0131306D01*
X0186262Y0132305D02*
X0186268Y0132305D01*
X0186676Y0133303D02*
X0187310Y0133303D01*
X0186858Y0134302D02*
X0189366Y0134302D01*
X0190026Y0135301D02*
X0186858Y0135301D01*
X0186485Y0136299D02*
X0190687Y0136299D01*
X0191123Y0137298D02*
X0185854Y0137298D01*
X0184571Y0138296D02*
X0191123Y0138296D01*
X0191123Y0139295D02*
X0180995Y0139295D01*
X0180676Y0140293D02*
X0191123Y0140293D01*
X0191123Y0141292D02*
X0180676Y0141292D01*
X0180676Y0142290D02*
X0191123Y0142290D01*
X0191123Y0143289D02*
X0180676Y0143289D01*
X0180676Y0144287D02*
X0191123Y0144287D01*
X0191123Y0145286D02*
X0180676Y0145286D01*
X0180676Y0146284D02*
X0191123Y0146284D01*
X0191123Y0147283D02*
X0180676Y0147283D01*
X0180676Y0148281D02*
X0191123Y0148281D01*
X0190355Y0149280D02*
X0180676Y0149280D01*
X0180676Y0150278D02*
X0189356Y0150278D01*
X0188358Y0151277D02*
X0180676Y0151277D01*
X0182072Y0152275D02*
X0185298Y0152275D01*
X0184299Y0153274D02*
X0182901Y0153274D01*
X0183314Y0154272D02*
X0183883Y0154272D01*
X0183661Y0155271D02*
X0183413Y0155271D01*
X0183370Y0156269D02*
X0183661Y0156269D01*
X0183996Y0157268D02*
X0182957Y0157268D01*
X0182208Y0158266D02*
X0184572Y0158266D01*
X0185721Y0159265D02*
X0180641Y0159265D01*
X0177871Y0159265D02*
X0126682Y0159265D01*
X0127709Y0158266D02*
X0176304Y0158266D01*
X0175555Y0157268D02*
X0128736Y0157268D01*
X0129763Y0156269D02*
X0175141Y0156269D01*
X0175098Y0155271D02*
X0130790Y0155271D01*
X0131817Y0154272D02*
X0175198Y0154272D01*
X0175276Y0153274D02*
X0132845Y0153274D01*
X0133872Y0152275D02*
X0175276Y0152275D01*
X0175276Y0151277D02*
X0134899Y0151277D01*
X0135926Y0150278D02*
X0175276Y0150278D01*
X0175276Y0149280D02*
X0136953Y0149280D01*
X0137980Y0148281D02*
X0175276Y0148281D01*
X0175276Y0147283D02*
X0139007Y0147283D01*
X0140034Y0146284D02*
X0175276Y0146284D01*
X0175276Y0145286D02*
X0141061Y0145286D01*
X0142088Y0144287D02*
X0175276Y0144287D01*
X0175276Y0143289D02*
X0143116Y0143289D01*
X0144143Y0142290D02*
X0175276Y0142290D01*
X0175276Y0141292D02*
X0145170Y0141292D01*
X0146197Y0140293D02*
X0175276Y0140293D01*
X0175276Y0139295D02*
X0147224Y0139295D01*
X0148251Y0138296D02*
X0175243Y0138296D01*
X0175388Y0137298D02*
X0149278Y0137298D01*
X0150305Y0136299D02*
X0176036Y0136299D01*
X0177332Y0135301D02*
X0151332Y0135301D01*
X0152360Y0134302D02*
X0176623Y0134302D01*
X0174865Y0133303D02*
X0153387Y0133303D01*
X0154414Y0132305D02*
X0174036Y0132305D01*
X0173623Y0131306D02*
X0155441Y0131306D01*
X0156468Y0130308D02*
X0173524Y0130308D01*
X0173035Y0129309D02*
X0157495Y0129309D01*
X0158522Y0128311D02*
X0172621Y0128311D01*
X0172389Y0127312D02*
X0159549Y0127312D01*
X0160576Y0126314D02*
X0172380Y0126314D01*
X0171382Y0125315D02*
X0161603Y0125315D01*
X0162631Y0124317D02*
X0170383Y0124317D01*
X0169384Y0123318D02*
X0163658Y0123318D01*
X0164685Y0122320D02*
X0168386Y0122320D01*
X0130371Y0142290D02*
X0015739Y0142290D01*
X0003000Y0104347D02*
X0273622Y0104347D01*
X0273622Y0103348D02*
X0003000Y0103348D01*
X0003000Y0102350D02*
X0273622Y0102350D01*
X0273622Y0085375D02*
X0003000Y0085375D01*
X0003000Y0084376D02*
X0273622Y0084376D01*
X0273622Y0083378D02*
X0003000Y0083378D01*
X0003000Y0082379D02*
X0273622Y0082379D01*
X0273622Y0081381D02*
X0003000Y0081381D01*
X0003000Y0080382D02*
X0273622Y0080382D01*
X0273622Y0079384D02*
X0003000Y0079384D01*
X0003000Y0078385D02*
X0273622Y0078385D01*
X0273622Y0077387D02*
X0003000Y0077387D01*
X0003000Y0076388D02*
X0273622Y0076388D01*
X0273622Y0075390D02*
X0003000Y0075390D01*
X0003000Y0074391D02*
X0273622Y0074391D01*
X0273622Y0073393D02*
X0003000Y0073393D01*
X0003000Y0072394D02*
X0273622Y0072394D01*
X0273622Y0071396D02*
X0003000Y0071396D01*
X0003000Y0070397D02*
X0273622Y0070397D01*
X0273622Y0069399D02*
X0003000Y0069399D01*
X0003000Y0068400D02*
X0273622Y0068400D01*
X0273622Y0067402D02*
X0003000Y0067402D01*
X0003000Y0066403D02*
X0273622Y0066403D01*
X0273622Y0065405D02*
X0003000Y0065405D01*
X0003000Y0064406D02*
X0273622Y0064406D01*
X0273622Y0063408D02*
X0003000Y0063408D01*
X0003000Y0062409D02*
X0273622Y0062409D01*
X0273622Y0061411D02*
X0003000Y0061411D01*
X0003000Y0060412D02*
X0273622Y0060412D01*
X0273622Y0059414D02*
X0003000Y0059414D01*
X0003000Y0058415D02*
X0273622Y0058415D01*
X0273622Y0057417D02*
X0003000Y0057417D01*
X0003000Y0056418D02*
X0273622Y0056418D01*
X0273622Y0055420D02*
X0003000Y0055420D01*
X0003000Y0054421D02*
X0273622Y0054421D01*
X0273622Y0053423D02*
X0003000Y0053423D01*
X0003000Y0052424D02*
X0273622Y0052424D01*
X0273622Y0051426D02*
X0003000Y0051426D01*
X0003000Y0050427D02*
X0273622Y0050427D01*
X0273622Y0049429D02*
X0003000Y0049429D01*
X0003000Y0048430D02*
X0273622Y0048430D01*
X0273622Y0047432D02*
X0003000Y0047432D01*
X0003000Y0046433D02*
X0273622Y0046433D01*
X0273622Y0045434D02*
X0003000Y0045434D01*
X0003000Y0044436D02*
X0273622Y0044436D01*
X0273622Y0043437D02*
X0003000Y0043437D01*
X0003000Y0042439D02*
X0273622Y0042439D01*
X0273622Y0041440D02*
X0003000Y0041440D01*
X0003000Y0040442D02*
X0273622Y0040442D01*
X0273622Y0039443D02*
X0003000Y0039443D01*
X0003000Y0038445D02*
X0273622Y0038445D01*
X0273622Y0037446D02*
X0003000Y0037446D01*
X0003000Y0036448D02*
X0273622Y0036448D01*
X0273622Y0035449D02*
X0003000Y0035449D01*
X0003000Y0034451D02*
X0273622Y0034451D01*
X0273622Y0033452D02*
X0003000Y0033452D01*
X0003000Y0032454D02*
X0273622Y0032454D01*
X0273622Y0031455D02*
X0003000Y0031455D01*
X0003000Y0030457D02*
X0273622Y0030457D01*
X0273622Y0029458D02*
X0003000Y0029458D01*
X0003000Y0028460D02*
X0273622Y0028460D01*
X0273622Y0027461D02*
X0239669Y0027461D01*
X0240449Y0027139D02*
X0238806Y0027819D01*
X0237028Y0027819D01*
X0235386Y0027139D01*
X0234129Y0025882D01*
X0233449Y0024239D01*
X0233449Y0022462D01*
X0234129Y0020819D01*
X0235386Y0019562D01*
X0237028Y0018882D01*
X0238806Y0018882D01*
X0240449Y0019562D01*
X0241706Y0020819D01*
X0242386Y0022462D01*
X0242386Y0024239D01*
X0241706Y0025882D01*
X0240449Y0027139D01*
X0241124Y0026463D02*
X0273622Y0026463D01*
X0273622Y0025464D02*
X0241878Y0025464D01*
X0242292Y0024466D02*
X0273622Y0024466D01*
X0273622Y0023467D02*
X0242386Y0023467D01*
X0242386Y0022469D02*
X0273622Y0022469D01*
X0273622Y0021470D02*
X0241975Y0021470D01*
X0241358Y0020472D02*
X0273622Y0020472D01*
X0273622Y0019473D02*
X0240234Y0019473D01*
X0239634Y0017476D02*
X0273622Y0017476D01*
X0273622Y0016478D02*
X0241109Y0016478D01*
X0241706Y0015882D02*
X0240449Y0017139D01*
X0238806Y0017819D01*
X0237028Y0017819D01*
X0235386Y0017139D01*
X0234129Y0015882D01*
X0233449Y0014239D01*
X0233449Y0012462D01*
X0234129Y0010819D01*
X0235386Y0009562D01*
X0237028Y0008882D01*
X0238806Y0008882D01*
X0240449Y0009562D01*
X0241706Y0010819D01*
X0242386Y0012462D01*
X0242386Y0014239D01*
X0241706Y0015882D01*
X0241872Y0015479D02*
X0273622Y0015479D01*
X0273622Y0014481D02*
X0242286Y0014481D01*
X0242386Y0013482D02*
X0273622Y0013482D01*
X0273622Y0012484D02*
X0242386Y0012484D01*
X0241981Y0011485D02*
X0273622Y0011485D01*
X0273622Y0010487D02*
X0241373Y0010487D01*
X0240270Y0009488D02*
X0273622Y0009488D01*
X0273622Y0008490D02*
X0003000Y0008490D01*
X0003000Y0009488D02*
X0045565Y0009488D01*
X0045386Y0009562D02*
X0047028Y0008882D01*
X0048806Y0008882D01*
X0050449Y0009562D01*
X0051706Y0010819D01*
X0052386Y0012462D01*
X0052386Y0014239D01*
X0051706Y0015882D01*
X0050449Y0017139D01*
X0048806Y0017819D01*
X0047028Y0017819D01*
X0045386Y0017139D01*
X0044129Y0015882D01*
X0043449Y0014239D01*
X0043449Y0012462D01*
X0044129Y0010819D01*
X0045386Y0009562D01*
X0044462Y0010487D02*
X0003000Y0010487D01*
X0003000Y0011485D02*
X0043853Y0011485D01*
X0043449Y0012484D02*
X0003000Y0012484D01*
X0003000Y0013482D02*
X0043449Y0013482D01*
X0043549Y0014481D02*
X0003000Y0014481D01*
X0003000Y0015479D02*
X0043962Y0015479D01*
X0044725Y0016478D02*
X0003000Y0016478D01*
X0003000Y0017476D02*
X0046201Y0017476D01*
X0046871Y0018992D02*
X0047433Y0018903D01*
X0047433Y0022866D01*
X0048402Y0022866D01*
X0048402Y0023835D01*
X0052365Y0023835D01*
X0052276Y0024397D01*
X0052058Y0025066D01*
X0051739Y0025692D01*
X0051326Y0026261D01*
X0050828Y0026759D01*
X0050259Y0027172D01*
X0049633Y0027492D01*
X0048964Y0027709D01*
X0048402Y0027798D01*
X0048402Y0023835D01*
X0047433Y0023835D01*
X0047433Y0027798D01*
X0046871Y0027709D01*
X0046202Y0027492D01*
X0045575Y0027172D01*
X0045006Y0026759D01*
X0044509Y0026261D01*
X0044096Y0025692D01*
X0043776Y0025066D01*
X0043559Y0024397D01*
X0043470Y0023835D01*
X0047433Y0023835D01*
X0047433Y0022866D01*
X0043470Y0022866D01*
X0043559Y0022304D01*
X0043776Y0021635D01*
X0044096Y0021008D01*
X0044509Y0020439D01*
X0045006Y0019942D01*
X0045575Y0019529D01*
X0046202Y0019209D01*
X0046871Y0018992D01*
X0047433Y0019473D02*
X0048402Y0019473D01*
X0048402Y0018903D02*
X0048964Y0018992D01*
X0049633Y0019209D01*
X0050259Y0019529D01*
X0050828Y0019942D01*
X0051326Y0020439D01*
X0051739Y0021008D01*
X0052058Y0021635D01*
X0052276Y0022304D01*
X0052365Y0022866D01*
X0048402Y0022866D01*
X0048402Y0018903D01*
X0048402Y0020472D02*
X0047433Y0020472D01*
X0047433Y0021470D02*
X0048402Y0021470D01*
X0048402Y0022469D02*
X0047433Y0022469D01*
X0047433Y0023467D02*
X0003000Y0023467D01*
X0003000Y0022469D02*
X0043533Y0022469D01*
X0043860Y0021470D02*
X0003000Y0021470D01*
X0003000Y0020472D02*
X0044485Y0020472D01*
X0045684Y0019473D02*
X0003000Y0019473D01*
X0003000Y0018475D02*
X0273622Y0018475D01*
X0273622Y0007491D02*
X0003000Y0007491D01*
X0003000Y0006493D02*
X0273622Y0006493D01*
X0273622Y0005494D02*
X0003000Y0005494D01*
X0003000Y0004496D02*
X0273622Y0004496D01*
X0273622Y0003497D02*
X0003000Y0003497D01*
X0003000Y0024466D02*
X0043581Y0024466D01*
X0043979Y0025464D02*
X0003000Y0025464D01*
X0003000Y0026463D02*
X0044710Y0026463D01*
X0046143Y0027461D02*
X0003000Y0027461D01*
X0047433Y0027461D02*
X0048402Y0027461D01*
X0048402Y0026463D02*
X0047433Y0026463D01*
X0047433Y0025464D02*
X0048402Y0025464D01*
X0048402Y0024466D02*
X0047433Y0024466D01*
X0048402Y0023467D02*
X0053449Y0023467D01*
X0053449Y0024239D02*
X0053449Y0022462D01*
X0054129Y0020819D01*
X0055386Y0019562D01*
X0057028Y0018882D01*
X0058806Y0018882D01*
X0060449Y0019562D01*
X0061706Y0020819D01*
X0062386Y0022462D01*
X0062386Y0024239D01*
X0061706Y0025882D01*
X0060449Y0027139D01*
X0058806Y0027819D01*
X0057028Y0027819D01*
X0055386Y0027139D01*
X0054129Y0025882D01*
X0053449Y0024239D01*
X0053543Y0024466D02*
X0052253Y0024466D01*
X0051855Y0025464D02*
X0053956Y0025464D01*
X0054710Y0026463D02*
X0051124Y0026463D01*
X0049692Y0027461D02*
X0056165Y0027461D01*
X0059669Y0027461D02*
X0066165Y0027461D01*
X0065386Y0027139D02*
X0064129Y0025882D01*
X0063449Y0024239D01*
X0063449Y0022462D01*
X0064129Y0020819D01*
X0065386Y0019562D01*
X0067028Y0018882D01*
X0068806Y0018882D01*
X0070449Y0019562D01*
X0071706Y0020819D01*
X0072386Y0022462D01*
X0072386Y0024239D01*
X0071706Y0025882D01*
X0070449Y0027139D01*
X0068806Y0027819D01*
X0067028Y0027819D01*
X0065386Y0027139D01*
X0064710Y0026463D02*
X0061124Y0026463D01*
X0061878Y0025464D02*
X0063956Y0025464D01*
X0063543Y0024466D02*
X0062292Y0024466D01*
X0062386Y0023467D02*
X0063449Y0023467D01*
X0063449Y0022469D02*
X0062386Y0022469D01*
X0061975Y0021470D02*
X0063859Y0021470D01*
X0064477Y0020472D02*
X0061358Y0020472D01*
X0060234Y0019473D02*
X0065601Y0019473D01*
X0066201Y0017476D02*
X0059634Y0017476D01*
X0060449Y0017139D02*
X0058806Y0017819D01*
X0057028Y0017819D01*
X0055386Y0017139D01*
X0054129Y0015882D01*
X0053449Y0014239D01*
X0053449Y0012462D01*
X0054129Y0010819D01*
X0055386Y0009562D01*
X0057028Y0008882D01*
X0058806Y0008882D01*
X0060449Y0009562D01*
X0061706Y0010819D01*
X0062386Y0012462D01*
X0062386Y0014239D01*
X0061706Y0015882D01*
X0060449Y0017139D01*
X0061109Y0016478D02*
X0064725Y0016478D01*
X0064129Y0015882D02*
X0063449Y0014239D01*
X0063449Y0012462D01*
X0064129Y0010819D01*
X0065386Y0009562D01*
X0067028Y0008882D01*
X0068806Y0008882D01*
X0070449Y0009562D01*
X0071706Y0010819D01*
X0072386Y0012462D01*
X0072386Y0014239D01*
X0071706Y0015882D01*
X0070449Y0017139D01*
X0068806Y0017819D01*
X0067028Y0017819D01*
X0065386Y0017139D01*
X0064129Y0015882D01*
X0063962Y0015479D02*
X0061872Y0015479D01*
X0062286Y0014481D02*
X0063549Y0014481D01*
X0063449Y0013482D02*
X0062386Y0013482D01*
X0062386Y0012484D02*
X0063449Y0012484D01*
X0063853Y0011485D02*
X0061981Y0011485D01*
X0061373Y0010487D02*
X0064462Y0010487D01*
X0065565Y0009488D02*
X0060270Y0009488D01*
X0055565Y0009488D02*
X0050270Y0009488D01*
X0051373Y0010487D02*
X0054462Y0010487D01*
X0053853Y0011485D02*
X0051981Y0011485D01*
X0052386Y0012484D02*
X0053449Y0012484D01*
X0053449Y0013482D02*
X0052386Y0013482D01*
X0052286Y0014481D02*
X0053549Y0014481D01*
X0053962Y0015479D02*
X0051872Y0015479D01*
X0051109Y0016478D02*
X0054725Y0016478D01*
X0056201Y0017476D02*
X0049634Y0017476D01*
X0050151Y0019473D02*
X0055601Y0019473D01*
X0054477Y0020472D02*
X0051349Y0020472D01*
X0051974Y0021470D02*
X0053859Y0021470D01*
X0053449Y0022469D02*
X0052302Y0022469D01*
X0069634Y0017476D02*
X0076172Y0017476D01*
X0076202Y0017492D02*
X0075575Y0017172D01*
X0075006Y0016759D01*
X0074509Y0016261D01*
X0074096Y0015692D01*
X0073776Y0015066D01*
X0073559Y0014397D01*
X0073470Y0013835D01*
X0077433Y0013835D01*
X0077433Y0017798D01*
X0076871Y0017709D01*
X0076202Y0017492D01*
X0077433Y0017476D02*
X0078402Y0017476D01*
X0078402Y0017798D02*
X0078964Y0017709D01*
X0079633Y0017492D01*
X0080259Y0017172D01*
X0080828Y0016759D01*
X0081326Y0016261D01*
X0081739Y0015692D01*
X0082058Y0015066D01*
X0082276Y0014397D01*
X0082365Y0013835D01*
X0078402Y0013835D01*
X0078402Y0012866D01*
X0082365Y0012866D01*
X0082276Y0012304D01*
X0082058Y0011635D01*
X0081739Y0011008D01*
X0081326Y0010439D01*
X0080828Y0009942D01*
X0080259Y0009529D01*
X0079633Y0009209D01*
X0078964Y0008992D01*
X0078402Y0008903D01*
X0078402Y0012866D01*
X0077433Y0012866D01*
X0077433Y0008903D01*
X0076871Y0008992D01*
X0076202Y0009209D01*
X0075575Y0009529D01*
X0075006Y0009942D01*
X0074509Y0010439D01*
X0074096Y0011008D01*
X0073776Y0011635D01*
X0073559Y0012304D01*
X0073470Y0012866D01*
X0077433Y0012866D01*
X0077433Y0013835D01*
X0078402Y0013835D01*
X0078402Y0017798D01*
X0078806Y0018882D02*
X0077028Y0018882D01*
X0075386Y0019562D01*
X0074129Y0020819D01*
X0073449Y0022462D01*
X0073449Y0024239D01*
X0074129Y0025882D01*
X0075386Y0027139D01*
X0077028Y0027819D01*
X0078806Y0027819D01*
X0080449Y0027139D01*
X0081706Y0025882D01*
X0082386Y0024239D01*
X0082386Y0022462D01*
X0081706Y0020819D01*
X0080449Y0019562D01*
X0078806Y0018882D01*
X0080234Y0019473D02*
X0085601Y0019473D01*
X0085386Y0019562D02*
X0087028Y0018882D01*
X0088806Y0018882D01*
X0090449Y0019562D01*
X0091706Y0020819D01*
X0092386Y0022462D01*
X0092386Y0024239D01*
X0091706Y0025882D01*
X0090449Y0027139D01*
X0088806Y0027819D01*
X0087028Y0027819D01*
X0085386Y0027139D01*
X0084129Y0025882D01*
X0083449Y0024239D01*
X0083449Y0022462D01*
X0084129Y0020819D01*
X0085386Y0019562D01*
X0084477Y0020472D02*
X0081358Y0020472D01*
X0081975Y0021470D02*
X0083859Y0021470D01*
X0083449Y0022469D02*
X0082386Y0022469D01*
X0082386Y0023467D02*
X0083449Y0023467D01*
X0083543Y0024466D02*
X0082292Y0024466D01*
X0081878Y0025464D02*
X0083956Y0025464D01*
X0084710Y0026463D02*
X0081124Y0026463D01*
X0079669Y0027461D02*
X0086165Y0027461D01*
X0089669Y0027461D02*
X0096165Y0027461D01*
X0095386Y0027139D02*
X0094129Y0025882D01*
X0093449Y0024239D01*
X0093449Y0022462D01*
X0094129Y0020819D01*
X0095386Y0019562D01*
X0097028Y0018882D01*
X0098806Y0018882D01*
X0100449Y0019562D01*
X0101706Y0020819D01*
X0102386Y0022462D01*
X0102386Y0024239D01*
X0101706Y0025882D01*
X0100449Y0027139D01*
X0098806Y0027819D01*
X0097028Y0027819D01*
X0095386Y0027139D01*
X0094710Y0026463D02*
X0091124Y0026463D01*
X0091878Y0025464D02*
X0093956Y0025464D01*
X0093543Y0024466D02*
X0092292Y0024466D01*
X0092386Y0023467D02*
X0093449Y0023467D01*
X0093449Y0022469D02*
X0092386Y0022469D01*
X0091975Y0021470D02*
X0093859Y0021470D01*
X0094477Y0020472D02*
X0091358Y0020472D01*
X0090234Y0019473D02*
X0095601Y0019473D01*
X0096202Y0017492D02*
X0095575Y0017172D01*
X0095006Y0016759D01*
X0094509Y0016261D01*
X0094096Y0015692D01*
X0093776Y0015066D01*
X0093559Y0014397D01*
X0093470Y0013835D01*
X0097433Y0013835D01*
X0097433Y0017798D01*
X0096871Y0017709D01*
X0096202Y0017492D01*
X0096172Y0017476D02*
X0089634Y0017476D01*
X0090449Y0017139D02*
X0088806Y0017819D01*
X0087028Y0017819D01*
X0085386Y0017139D01*
X0084129Y0015882D01*
X0083449Y0014239D01*
X0083449Y0012462D01*
X0084129Y0010819D01*
X0085386Y0009562D01*
X0087028Y0008882D01*
X0088806Y0008882D01*
X0090449Y0009562D01*
X0091706Y0010819D01*
X0092386Y0012462D01*
X0092386Y0014239D01*
X0091706Y0015882D01*
X0090449Y0017139D01*
X0091109Y0016478D02*
X0094725Y0016478D01*
X0093987Y0015479D02*
X0091872Y0015479D01*
X0092286Y0014481D02*
X0093586Y0014481D01*
X0092386Y0013482D02*
X0097433Y0013482D01*
X0097433Y0013835D02*
X0097433Y0012866D01*
X0098402Y0012866D01*
X0098402Y0013835D01*
X0102365Y0013835D01*
X0102276Y0014397D01*
X0102058Y0015066D01*
X0101739Y0015692D01*
X0101326Y0016261D01*
X0100828Y0016759D01*
X0100259Y0017172D01*
X0099633Y0017492D01*
X0098964Y0017709D01*
X0098402Y0017798D01*
X0098402Y0013835D01*
X0097433Y0013835D01*
X0097433Y0014481D02*
X0098402Y0014481D01*
X0098402Y0015479D02*
X0097433Y0015479D01*
X0097433Y0016478D02*
X0098402Y0016478D01*
X0098402Y0017476D02*
X0097433Y0017476D01*
X0099663Y0017476D02*
X0106201Y0017476D01*
X0105386Y0017139D02*
X0104129Y0015882D01*
X0103449Y0014239D01*
X0103449Y0012462D01*
X0104129Y0010819D01*
X0105386Y0009562D01*
X0107028Y0008882D01*
X0108806Y0008882D01*
X0110449Y0009562D01*
X0111706Y0010819D01*
X0112386Y0012462D01*
X0112386Y0014239D01*
X0111706Y0015882D01*
X0110449Y0017139D01*
X0108806Y0017819D01*
X0107028Y0017819D01*
X0105386Y0017139D01*
X0104725Y0016478D02*
X0101109Y0016478D01*
X0101848Y0015479D02*
X0103962Y0015479D01*
X0103549Y0014481D02*
X0102249Y0014481D01*
X0103449Y0013482D02*
X0098402Y0013482D01*
X0098402Y0012866D02*
X0102365Y0012866D01*
X0102276Y0012304D01*
X0102058Y0011635D01*
X0101739Y0011008D01*
X0101326Y0010439D01*
X0100828Y0009942D01*
X0100259Y0009529D01*
X0099633Y0009209D01*
X0098964Y0008992D01*
X0098402Y0008903D01*
X0098402Y0012866D01*
X0098402Y0012484D02*
X0097433Y0012484D01*
X0097433Y0012866D02*
X0097433Y0008903D01*
X0096871Y0008992D01*
X0096202Y0009209D01*
X0095575Y0009529D01*
X0095006Y0009942D01*
X0094509Y0010439D01*
X0094096Y0011008D01*
X0093776Y0011635D01*
X0093559Y0012304D01*
X0093470Y0012866D01*
X0097433Y0012866D01*
X0097433Y0011485D02*
X0098402Y0011485D01*
X0098402Y0010487D02*
X0097433Y0010487D01*
X0097433Y0009488D02*
X0098402Y0009488D01*
X0100180Y0009488D02*
X0105565Y0009488D01*
X0104462Y0010487D02*
X0101360Y0010487D01*
X0101982Y0011485D02*
X0103853Y0011485D01*
X0103449Y0012484D02*
X0102304Y0012484D01*
X0095655Y0009488D02*
X0090270Y0009488D01*
X0091373Y0010487D02*
X0094475Y0010487D01*
X0093853Y0011485D02*
X0091981Y0011485D01*
X0092386Y0012484D02*
X0093530Y0012484D01*
X0086201Y0017476D02*
X0079663Y0017476D01*
X0078402Y0016478D02*
X0077433Y0016478D01*
X0077433Y0015479D02*
X0078402Y0015479D01*
X0078402Y0014481D02*
X0077433Y0014481D01*
X0077433Y0013482D02*
X0072386Y0013482D01*
X0072386Y0012484D02*
X0073530Y0012484D01*
X0073853Y0011485D02*
X0071981Y0011485D01*
X0071373Y0010487D02*
X0074475Y0010487D01*
X0075655Y0009488D02*
X0070270Y0009488D01*
X0072286Y0014481D02*
X0073586Y0014481D01*
X0073987Y0015479D02*
X0071872Y0015479D01*
X0071109Y0016478D02*
X0074725Y0016478D01*
X0078402Y0013482D02*
X0083449Y0013482D01*
X0083449Y0012484D02*
X0082304Y0012484D01*
X0081982Y0011485D02*
X0083853Y0011485D01*
X0084462Y0010487D02*
X0081360Y0010487D01*
X0080180Y0009488D02*
X0085565Y0009488D01*
X0083549Y0014481D02*
X0082249Y0014481D01*
X0081848Y0015479D02*
X0083962Y0015479D01*
X0084725Y0016478D02*
X0081109Y0016478D01*
X0078402Y0012484D02*
X0077433Y0012484D01*
X0077433Y0011485D02*
X0078402Y0011485D01*
X0078402Y0010487D02*
X0077433Y0010487D01*
X0077433Y0009488D02*
X0078402Y0009488D01*
X0075601Y0019473D02*
X0070234Y0019473D01*
X0071358Y0020472D02*
X0074477Y0020472D01*
X0073859Y0021470D02*
X0071975Y0021470D01*
X0072386Y0022469D02*
X0073449Y0022469D01*
X0073449Y0023467D02*
X0072386Y0023467D01*
X0072292Y0024466D02*
X0073543Y0024466D01*
X0073956Y0025464D02*
X0071878Y0025464D01*
X0071124Y0026463D02*
X0074710Y0026463D01*
X0076165Y0027461D02*
X0069669Y0027461D01*
X0099669Y0027461D02*
X0106165Y0027461D01*
X0105386Y0027139D02*
X0104129Y0025882D01*
X0103449Y0024239D01*
X0103449Y0022462D01*
X0104129Y0020819D01*
X0105386Y0019562D01*
X0107028Y0018882D01*
X0108806Y0018882D01*
X0110449Y0019562D01*
X0111706Y0020819D01*
X0112386Y0022462D01*
X0112386Y0024239D01*
X0111706Y0025882D01*
X0110449Y0027139D01*
X0108806Y0027819D01*
X0107028Y0027819D01*
X0105386Y0027139D01*
X0104710Y0026463D02*
X0101124Y0026463D01*
X0101878Y0025464D02*
X0103956Y0025464D01*
X0103543Y0024466D02*
X0102292Y0024466D01*
X0102386Y0023467D02*
X0103449Y0023467D01*
X0103449Y0022469D02*
X0102386Y0022469D01*
X0101975Y0021470D02*
X0103859Y0021470D01*
X0104477Y0020472D02*
X0101358Y0020472D01*
X0100234Y0019473D02*
X0105601Y0019473D01*
X0109634Y0017476D02*
X0116201Y0017476D01*
X0115386Y0017139D02*
X0117028Y0017819D01*
X0118806Y0017819D01*
X0120449Y0017139D01*
X0121706Y0015882D01*
X0122386Y0014239D01*
X0122386Y0012462D01*
X0121706Y0010819D01*
X0120449Y0009562D01*
X0118806Y0008882D01*
X0117028Y0008882D01*
X0115386Y0009562D01*
X0114129Y0010819D01*
X0113449Y0012462D01*
X0113449Y0014239D01*
X0114129Y0015882D01*
X0115386Y0017139D01*
X0114725Y0016478D02*
X0111109Y0016478D01*
X0111872Y0015479D02*
X0113962Y0015479D01*
X0113549Y0014481D02*
X0112286Y0014481D01*
X0112386Y0013482D02*
X0113449Y0013482D01*
X0113449Y0012484D02*
X0112386Y0012484D01*
X0111981Y0011485D02*
X0113853Y0011485D01*
X0114462Y0010487D02*
X0111373Y0010487D01*
X0110270Y0009488D02*
X0115565Y0009488D01*
X0120270Y0009488D02*
X0125565Y0009488D01*
X0125386Y0009562D02*
X0127028Y0008882D01*
X0128806Y0008882D01*
X0130449Y0009562D01*
X0131706Y0010819D01*
X0132386Y0012462D01*
X0132386Y0014239D01*
X0131706Y0015882D01*
X0130449Y0017139D01*
X0128806Y0017819D01*
X0127028Y0017819D01*
X0125386Y0017139D01*
X0124129Y0015882D01*
X0123449Y0014239D01*
X0123449Y0012462D01*
X0124129Y0010819D01*
X0125386Y0009562D01*
X0124462Y0010487D02*
X0121373Y0010487D01*
X0121981Y0011485D02*
X0123853Y0011485D01*
X0123449Y0012484D02*
X0122386Y0012484D01*
X0122386Y0013482D02*
X0123449Y0013482D01*
X0123549Y0014481D02*
X0122286Y0014481D01*
X0121872Y0015479D02*
X0123962Y0015479D01*
X0124725Y0016478D02*
X0121109Y0016478D01*
X0119634Y0017476D02*
X0126201Y0017476D01*
X0127028Y0018882D02*
X0128806Y0018882D01*
X0130449Y0019562D01*
X0131706Y0020819D01*
X0132386Y0022462D01*
X0132386Y0024239D01*
X0131706Y0025882D01*
X0130449Y0027139D01*
X0128806Y0027819D01*
X0127028Y0027819D01*
X0125386Y0027139D01*
X0124129Y0025882D01*
X0123449Y0024239D01*
X0123449Y0022462D01*
X0124129Y0020819D01*
X0125386Y0019562D01*
X0127028Y0018882D01*
X0125601Y0019473D02*
X0120151Y0019473D01*
X0120259Y0019529D02*
X0120828Y0019942D01*
X0121326Y0020439D01*
X0121739Y0021008D01*
X0122058Y0021635D01*
X0122276Y0022304D01*
X0122365Y0022866D01*
X0118402Y0022866D01*
X0118402Y0023835D01*
X0122365Y0023835D01*
X0122276Y0024397D01*
X0122058Y0025066D01*
X0121739Y0025692D01*
X0121326Y0026261D01*
X0120828Y0026759D01*
X0120259Y0027172D01*
X0119633Y0027492D01*
X0118964Y0027709D01*
X0118402Y0027798D01*
X0118402Y0023835D01*
X0117433Y0023835D01*
X0117433Y0027798D01*
X0116871Y0027709D01*
X0116202Y0027492D01*
X0115575Y0027172D01*
X0115006Y0026759D01*
X0114509Y0026261D01*
X0114096Y0025692D01*
X0113776Y0025066D01*
X0113559Y0024397D01*
X0113470Y0023835D01*
X0117433Y0023835D01*
X0117433Y0022866D01*
X0118402Y0022866D01*
X0118402Y0018903D01*
X0118964Y0018992D01*
X0119633Y0019209D01*
X0120259Y0019529D01*
X0121349Y0020472D02*
X0124477Y0020472D01*
X0123859Y0021470D02*
X0121974Y0021470D01*
X0122302Y0022469D02*
X0123449Y0022469D01*
X0123449Y0023467D02*
X0118402Y0023467D01*
X0117433Y0023467D02*
X0112386Y0023467D01*
X0112386Y0022469D02*
X0113533Y0022469D01*
X0113559Y0022304D02*
X0113776Y0021635D01*
X0114096Y0021008D01*
X0114509Y0020439D01*
X0115006Y0019942D01*
X0115575Y0019529D01*
X0116202Y0019209D01*
X0116871Y0018992D01*
X0117433Y0018903D01*
X0117433Y0022866D01*
X0113470Y0022866D01*
X0113559Y0022304D01*
X0113860Y0021470D02*
X0111975Y0021470D01*
X0111358Y0020472D02*
X0114485Y0020472D01*
X0115684Y0019473D02*
X0110234Y0019473D01*
X0112292Y0024466D02*
X0113581Y0024466D01*
X0113979Y0025464D02*
X0111878Y0025464D01*
X0111124Y0026463D02*
X0114710Y0026463D01*
X0116143Y0027461D02*
X0109669Y0027461D01*
X0117433Y0027461D02*
X0118402Y0027461D01*
X0118402Y0026463D02*
X0117433Y0026463D01*
X0117433Y0025464D02*
X0118402Y0025464D01*
X0118402Y0024466D02*
X0117433Y0024466D01*
X0117433Y0022469D02*
X0118402Y0022469D01*
X0118402Y0021470D02*
X0117433Y0021470D01*
X0117433Y0020472D02*
X0118402Y0020472D01*
X0118402Y0019473D02*
X0117433Y0019473D01*
X0122253Y0024466D02*
X0123543Y0024466D01*
X0123956Y0025464D02*
X0121855Y0025464D01*
X0121124Y0026463D02*
X0124710Y0026463D01*
X0126165Y0027461D02*
X0119692Y0027461D01*
X0129669Y0027461D02*
X0136165Y0027461D01*
X0135386Y0027139D02*
X0137028Y0027819D01*
X0138806Y0027819D01*
X0140449Y0027139D01*
X0141706Y0025882D01*
X0142386Y0024239D01*
X0142386Y0022462D01*
X0141706Y0020819D01*
X0140449Y0019562D01*
X0138806Y0018882D01*
X0137028Y0018882D01*
X0135386Y0019562D01*
X0134129Y0020819D01*
X0133449Y0022462D01*
X0133449Y0024239D01*
X0134129Y0025882D01*
X0135386Y0027139D01*
X0134710Y0026463D02*
X0131124Y0026463D01*
X0131878Y0025464D02*
X0133956Y0025464D01*
X0133543Y0024466D02*
X0132292Y0024466D01*
X0132386Y0023467D02*
X0133449Y0023467D01*
X0133449Y0022469D02*
X0132386Y0022469D01*
X0131975Y0021470D02*
X0133859Y0021470D01*
X0134477Y0020472D02*
X0131358Y0020472D01*
X0130234Y0019473D02*
X0135601Y0019473D01*
X0136201Y0017476D02*
X0129634Y0017476D01*
X0131109Y0016478D02*
X0134725Y0016478D01*
X0134129Y0015882D02*
X0133449Y0014239D01*
X0133449Y0012462D01*
X0134129Y0010819D01*
X0135386Y0009562D01*
X0137028Y0008882D01*
X0138806Y0008882D01*
X0140449Y0009562D01*
X0141706Y0010819D01*
X0142386Y0012462D01*
X0142386Y0014239D01*
X0141706Y0015882D01*
X0140449Y0017139D01*
X0138806Y0017819D01*
X0137028Y0017819D01*
X0135386Y0017139D01*
X0134129Y0015882D01*
X0133962Y0015479D02*
X0131872Y0015479D01*
X0132286Y0014481D02*
X0133549Y0014481D01*
X0133449Y0013482D02*
X0132386Y0013482D01*
X0132386Y0012484D02*
X0133449Y0012484D01*
X0133853Y0011485D02*
X0131981Y0011485D01*
X0131373Y0010487D02*
X0134462Y0010487D01*
X0135565Y0009488D02*
X0130270Y0009488D01*
X0140270Y0009488D02*
X0145655Y0009488D01*
X0145575Y0009529D02*
X0146202Y0009209D01*
X0146871Y0008992D01*
X0147433Y0008903D01*
X0147433Y0012866D01*
X0148402Y0012866D01*
X0148402Y0013835D01*
X0152365Y0013835D01*
X0152276Y0014397D01*
X0152058Y0015066D01*
X0151739Y0015692D01*
X0151326Y0016261D01*
X0150828Y0016759D01*
X0150259Y0017172D01*
X0149633Y0017492D01*
X0148964Y0017709D01*
X0148402Y0017798D01*
X0148402Y0013835D01*
X0147433Y0013835D01*
X0147433Y0017798D01*
X0146871Y0017709D01*
X0146202Y0017492D01*
X0145575Y0017172D01*
X0145006Y0016759D01*
X0144509Y0016261D01*
X0144096Y0015692D01*
X0143776Y0015066D01*
X0143559Y0014397D01*
X0143470Y0013835D01*
X0147433Y0013835D01*
X0147433Y0012866D01*
X0143470Y0012866D01*
X0143559Y0012304D01*
X0143776Y0011635D01*
X0144096Y0011008D01*
X0144509Y0010439D01*
X0145006Y0009942D01*
X0145575Y0009529D01*
X0144475Y0010487D02*
X0141373Y0010487D01*
X0141981Y0011485D02*
X0143853Y0011485D01*
X0143530Y0012484D02*
X0142386Y0012484D01*
X0142386Y0013482D02*
X0147433Y0013482D01*
X0148402Y0013482D02*
X0153449Y0013482D01*
X0153449Y0014239D02*
X0153449Y0012462D01*
X0154129Y0010819D01*
X0155386Y0009562D01*
X0157028Y0008882D01*
X0158806Y0008882D01*
X0160449Y0009562D01*
X0161706Y0010819D01*
X0162386Y0012462D01*
X0162386Y0014239D01*
X0161706Y0015882D01*
X0160449Y0017139D01*
X0158806Y0017819D01*
X0157028Y0017819D01*
X0155386Y0017139D01*
X0154129Y0015882D01*
X0153449Y0014239D01*
X0153549Y0014481D02*
X0152249Y0014481D01*
X0151848Y0015479D02*
X0153962Y0015479D01*
X0154725Y0016478D02*
X0151109Y0016478D01*
X0149663Y0017476D02*
X0156201Y0017476D01*
X0157028Y0018882D02*
X0158806Y0018882D01*
X0160449Y0019562D01*
X0161706Y0020819D01*
X0162386Y0022462D01*
X0162386Y0024239D01*
X0161706Y0025882D01*
X0160449Y0027139D01*
X0158806Y0027819D01*
X0157028Y0027819D01*
X0155386Y0027139D01*
X0154129Y0025882D01*
X0153449Y0024239D01*
X0153449Y0022462D01*
X0154129Y0020819D01*
X0155386Y0019562D01*
X0157028Y0018882D01*
X0155601Y0019473D02*
X0150234Y0019473D01*
X0150449Y0019562D02*
X0151706Y0020819D01*
X0152386Y0022462D01*
X0152386Y0024239D01*
X0151706Y0025882D01*
X0150449Y0027139D01*
X0148806Y0027819D01*
X0147028Y0027819D01*
X0145386Y0027139D01*
X0144129Y0025882D01*
X0143449Y0024239D01*
X0143449Y0022462D01*
X0144129Y0020819D01*
X0145386Y0019562D01*
X0147028Y0018882D01*
X0148806Y0018882D01*
X0150449Y0019562D01*
X0151358Y0020472D02*
X0154477Y0020472D01*
X0153859Y0021470D02*
X0151975Y0021470D01*
X0152386Y0022469D02*
X0153449Y0022469D01*
X0153449Y0023467D02*
X0152386Y0023467D01*
X0152292Y0024466D02*
X0153543Y0024466D01*
X0153956Y0025464D02*
X0151878Y0025464D01*
X0151124Y0026463D02*
X0154710Y0026463D01*
X0156165Y0027461D02*
X0149669Y0027461D01*
X0146165Y0027461D02*
X0139669Y0027461D01*
X0141124Y0026463D02*
X0144710Y0026463D01*
X0143956Y0025464D02*
X0141878Y0025464D01*
X0142292Y0024466D02*
X0143543Y0024466D01*
X0143449Y0023467D02*
X0142386Y0023467D01*
X0142386Y0022469D02*
X0143449Y0022469D01*
X0143859Y0021470D02*
X0141975Y0021470D01*
X0141358Y0020472D02*
X0144477Y0020472D01*
X0145601Y0019473D02*
X0140234Y0019473D01*
X0139634Y0017476D02*
X0146172Y0017476D01*
X0147433Y0017476D02*
X0148402Y0017476D01*
X0148402Y0016478D02*
X0147433Y0016478D01*
X0147433Y0015479D02*
X0148402Y0015479D01*
X0148402Y0014481D02*
X0147433Y0014481D01*
X0148402Y0012866D02*
X0152365Y0012866D01*
X0152276Y0012304D01*
X0152058Y0011635D01*
X0151739Y0011008D01*
X0151326Y0010439D01*
X0150828Y0009942D01*
X0150259Y0009529D01*
X0149633Y0009209D01*
X0148964Y0008992D01*
X0148402Y0008903D01*
X0148402Y0012866D01*
X0148402Y0012484D02*
X0147433Y0012484D01*
X0147433Y0011485D02*
X0148402Y0011485D01*
X0148402Y0010487D02*
X0147433Y0010487D01*
X0147433Y0009488D02*
X0148402Y0009488D01*
X0150180Y0009488D02*
X0155565Y0009488D01*
X0154462Y0010487D02*
X0151360Y0010487D01*
X0151982Y0011485D02*
X0153853Y0011485D01*
X0153449Y0012484D02*
X0152304Y0012484D01*
X0160270Y0009488D02*
X0165565Y0009488D01*
X0165386Y0009562D02*
X0167028Y0008882D01*
X0168806Y0008882D01*
X0170449Y0009562D01*
X0171706Y0010819D01*
X0172386Y0012462D01*
X0172386Y0014239D01*
X0171706Y0015882D01*
X0170449Y0017139D01*
X0168806Y0017819D01*
X0167028Y0017819D01*
X0165386Y0017139D01*
X0164129Y0015882D01*
X0163449Y0014239D01*
X0163449Y0012462D01*
X0164129Y0010819D01*
X0165386Y0009562D01*
X0164462Y0010487D02*
X0161373Y0010487D01*
X0161981Y0011485D02*
X0163853Y0011485D01*
X0163449Y0012484D02*
X0162386Y0012484D01*
X0162386Y0013482D02*
X0163449Y0013482D01*
X0163549Y0014481D02*
X0162286Y0014481D01*
X0161872Y0015479D02*
X0163962Y0015479D01*
X0164725Y0016478D02*
X0161109Y0016478D01*
X0159634Y0017476D02*
X0166201Y0017476D01*
X0167028Y0018882D02*
X0165386Y0019562D01*
X0164129Y0020819D01*
X0163449Y0022462D01*
X0163449Y0024239D01*
X0164129Y0025882D01*
X0165386Y0027139D01*
X0167028Y0027819D01*
X0168806Y0027819D01*
X0170449Y0027139D01*
X0171706Y0025882D01*
X0172386Y0024239D01*
X0172386Y0022462D01*
X0171706Y0020819D01*
X0170449Y0019562D01*
X0168806Y0018882D01*
X0167028Y0018882D01*
X0165601Y0019473D02*
X0160234Y0019473D01*
X0161358Y0020472D02*
X0164477Y0020472D01*
X0163859Y0021470D02*
X0161975Y0021470D01*
X0162386Y0022469D02*
X0163449Y0022469D01*
X0163449Y0023467D02*
X0162386Y0023467D01*
X0162292Y0024466D02*
X0163543Y0024466D01*
X0163956Y0025464D02*
X0161878Y0025464D01*
X0161124Y0026463D02*
X0164710Y0026463D01*
X0166165Y0027461D02*
X0159669Y0027461D01*
X0169669Y0027461D02*
X0176165Y0027461D01*
X0175386Y0027139D02*
X0174129Y0025882D01*
X0173449Y0024239D01*
X0173449Y0022462D01*
X0174129Y0020819D01*
X0175386Y0019562D01*
X0177028Y0018882D01*
X0178806Y0018882D01*
X0180449Y0019562D01*
X0181706Y0020819D01*
X0182386Y0022462D01*
X0182386Y0024239D01*
X0181706Y0025882D01*
X0180449Y0027139D01*
X0178806Y0027819D01*
X0177028Y0027819D01*
X0175386Y0027139D01*
X0174710Y0026463D02*
X0171124Y0026463D01*
X0171878Y0025464D02*
X0173956Y0025464D01*
X0173543Y0024466D02*
X0172292Y0024466D01*
X0172386Y0023467D02*
X0173449Y0023467D01*
X0173449Y0022469D02*
X0172386Y0022469D01*
X0171975Y0021470D02*
X0173859Y0021470D01*
X0174477Y0020472D02*
X0171358Y0020472D01*
X0170234Y0019473D02*
X0175601Y0019473D01*
X0176202Y0017492D02*
X0175575Y0017172D01*
X0175006Y0016759D01*
X0174509Y0016261D01*
X0174096Y0015692D01*
X0173776Y0015066D01*
X0173559Y0014397D01*
X0173470Y0013835D01*
X0177433Y0013835D01*
X0177433Y0017798D01*
X0176871Y0017709D01*
X0176202Y0017492D01*
X0176172Y0017476D02*
X0169634Y0017476D01*
X0171109Y0016478D02*
X0174725Y0016478D01*
X0173987Y0015479D02*
X0171872Y0015479D01*
X0172286Y0014481D02*
X0173586Y0014481D01*
X0172386Y0013482D02*
X0177433Y0013482D01*
X0177433Y0013835D02*
X0177433Y0012866D01*
X0178402Y0012866D01*
X0178402Y0013835D01*
X0182365Y0013835D01*
X0182276Y0014397D01*
X0182058Y0015066D01*
X0181739Y0015692D01*
X0181326Y0016261D01*
X0180828Y0016759D01*
X0180259Y0017172D01*
X0179633Y0017492D01*
X0178964Y0017709D01*
X0178402Y0017798D01*
X0178402Y0013835D01*
X0177433Y0013835D01*
X0177433Y0014481D02*
X0178402Y0014481D01*
X0178402Y0015479D02*
X0177433Y0015479D01*
X0177433Y0016478D02*
X0178402Y0016478D01*
X0178402Y0017476D02*
X0177433Y0017476D01*
X0179663Y0017476D02*
X0186201Y0017476D01*
X0185386Y0017139D02*
X0184129Y0015882D01*
X0183449Y0014239D01*
X0183449Y0012462D01*
X0184129Y0010819D01*
X0185386Y0009562D01*
X0187028Y0008882D01*
X0188806Y0008882D01*
X0190449Y0009562D01*
X0191706Y0010819D01*
X0192386Y0012462D01*
X0192386Y0014239D01*
X0191706Y0015882D01*
X0190449Y0017139D01*
X0188806Y0017819D01*
X0187028Y0017819D01*
X0185386Y0017139D01*
X0184725Y0016478D02*
X0181109Y0016478D01*
X0181848Y0015479D02*
X0183962Y0015479D01*
X0183549Y0014481D02*
X0182249Y0014481D01*
X0183449Y0013482D02*
X0178402Y0013482D01*
X0178402Y0012866D02*
X0182365Y0012866D01*
X0182276Y0012304D01*
X0182058Y0011635D01*
X0181739Y0011008D01*
X0181326Y0010439D01*
X0180828Y0009942D01*
X0180259Y0009529D01*
X0179633Y0009209D01*
X0178964Y0008992D01*
X0178402Y0008903D01*
X0178402Y0012866D01*
X0178402Y0012484D02*
X0177433Y0012484D01*
X0177433Y0012866D02*
X0177433Y0008903D01*
X0176871Y0008992D01*
X0176202Y0009209D01*
X0175575Y0009529D01*
X0175006Y0009942D01*
X0174509Y0010439D01*
X0174096Y0011008D01*
X0173776Y0011635D01*
X0173559Y0012304D01*
X0173470Y0012866D01*
X0177433Y0012866D01*
X0177433Y0011485D02*
X0178402Y0011485D01*
X0178402Y0010487D02*
X0177433Y0010487D01*
X0177433Y0009488D02*
X0178402Y0009488D01*
X0180180Y0009488D02*
X0185565Y0009488D01*
X0184462Y0010487D02*
X0181360Y0010487D01*
X0181982Y0011485D02*
X0183853Y0011485D01*
X0183449Y0012484D02*
X0182304Y0012484D01*
X0175655Y0009488D02*
X0170270Y0009488D01*
X0171373Y0010487D02*
X0174475Y0010487D01*
X0173853Y0011485D02*
X0171981Y0011485D01*
X0172386Y0012484D02*
X0173530Y0012484D01*
X0180234Y0019473D02*
X0185601Y0019473D01*
X0185386Y0019562D02*
X0187028Y0018882D01*
X0188806Y0018882D01*
X0190449Y0019562D01*
X0191706Y0020819D01*
X0192386Y0022462D01*
X0192386Y0024239D01*
X0191706Y0025882D01*
X0190449Y0027139D01*
X0188806Y0027819D01*
X0187028Y0027819D01*
X0185386Y0027139D01*
X0184129Y0025882D01*
X0183449Y0024239D01*
X0183449Y0022462D01*
X0184129Y0020819D01*
X0185386Y0019562D01*
X0184477Y0020472D02*
X0181358Y0020472D01*
X0181975Y0021470D02*
X0183859Y0021470D01*
X0183449Y0022469D02*
X0182386Y0022469D01*
X0182386Y0023467D02*
X0183449Y0023467D01*
X0183543Y0024466D02*
X0182292Y0024466D01*
X0181878Y0025464D02*
X0183956Y0025464D01*
X0184710Y0026463D02*
X0181124Y0026463D01*
X0179669Y0027461D02*
X0186165Y0027461D01*
X0189669Y0027461D02*
X0196143Y0027461D01*
X0196202Y0027492D02*
X0195575Y0027172D01*
X0195006Y0026759D01*
X0194509Y0026261D01*
X0194096Y0025692D01*
X0193776Y0025066D01*
X0193559Y0024397D01*
X0193470Y0023835D01*
X0197433Y0023835D01*
X0197433Y0027798D01*
X0196871Y0027709D01*
X0196202Y0027492D01*
X0197433Y0027461D02*
X0198402Y0027461D01*
X0198402Y0027798D02*
X0198964Y0027709D01*
X0199633Y0027492D01*
X0200259Y0027172D01*
X0200828Y0026759D01*
X0201326Y0026261D01*
X0201739Y0025692D01*
X0202058Y0025066D01*
X0202276Y0024397D01*
X0202365Y0023835D01*
X0198402Y0023835D01*
X0198402Y0022866D01*
X0202365Y0022866D01*
X0202276Y0022304D01*
X0202058Y0021635D01*
X0201739Y0021008D01*
X0201326Y0020439D01*
X0200828Y0019942D01*
X0200259Y0019529D01*
X0199633Y0019209D01*
X0198964Y0018992D01*
X0198402Y0018903D01*
X0198402Y0022866D01*
X0197433Y0022866D01*
X0197433Y0018903D01*
X0196871Y0018992D01*
X0196202Y0019209D01*
X0195575Y0019529D01*
X0195006Y0019942D01*
X0194509Y0020439D01*
X0194096Y0021008D01*
X0193776Y0021635D01*
X0193559Y0022304D01*
X0193470Y0022866D01*
X0197433Y0022866D01*
X0197433Y0023835D01*
X0198402Y0023835D01*
X0198402Y0027798D01*
X0199692Y0027461D02*
X0206165Y0027461D01*
X0205386Y0027139D02*
X0204129Y0025882D01*
X0203449Y0024239D01*
X0203449Y0022462D01*
X0204129Y0020819D01*
X0205386Y0019562D01*
X0207028Y0018882D01*
X0208806Y0018882D01*
X0210449Y0019562D01*
X0211706Y0020819D01*
X0212386Y0022462D01*
X0212386Y0024239D01*
X0211706Y0025882D01*
X0210449Y0027139D01*
X0208806Y0027819D01*
X0207028Y0027819D01*
X0205386Y0027139D01*
X0204710Y0026463D02*
X0201124Y0026463D01*
X0201855Y0025464D02*
X0203956Y0025464D01*
X0203543Y0024466D02*
X0202253Y0024466D01*
X0203449Y0023467D02*
X0198402Y0023467D01*
X0197433Y0023467D02*
X0192386Y0023467D01*
X0192386Y0022469D02*
X0193533Y0022469D01*
X0193860Y0021470D02*
X0191975Y0021470D01*
X0191358Y0020472D02*
X0194485Y0020472D01*
X0195684Y0019473D02*
X0190234Y0019473D01*
X0189634Y0017476D02*
X0196201Y0017476D01*
X0195386Y0017139D02*
X0194129Y0015882D01*
X0193449Y0014239D01*
X0193449Y0012462D01*
X0194129Y0010819D01*
X0195386Y0009562D01*
X0197028Y0008882D01*
X0198806Y0008882D01*
X0200449Y0009562D01*
X0201706Y0010819D01*
X0202386Y0012462D01*
X0202386Y0014239D01*
X0201706Y0015882D01*
X0200449Y0017139D01*
X0198806Y0017819D01*
X0197028Y0017819D01*
X0195386Y0017139D01*
X0194725Y0016478D02*
X0191109Y0016478D01*
X0191872Y0015479D02*
X0193962Y0015479D01*
X0193549Y0014481D02*
X0192286Y0014481D01*
X0192386Y0013482D02*
X0193449Y0013482D01*
X0193449Y0012484D02*
X0192386Y0012484D01*
X0191981Y0011485D02*
X0193853Y0011485D01*
X0194462Y0010487D02*
X0191373Y0010487D01*
X0190270Y0009488D02*
X0195565Y0009488D01*
X0200270Y0009488D02*
X0205565Y0009488D01*
X0205386Y0009562D02*
X0207028Y0008882D01*
X0208806Y0008882D01*
X0210449Y0009562D01*
X0211706Y0010819D01*
X0212386Y0012462D01*
X0212386Y0014239D01*
X0211706Y0015882D01*
X0210449Y0017139D01*
X0208806Y0017819D01*
X0207028Y0017819D01*
X0205386Y0017139D01*
X0204129Y0015882D01*
X0203449Y0014239D01*
X0203449Y0012462D01*
X0204129Y0010819D01*
X0205386Y0009562D01*
X0204462Y0010487D02*
X0201373Y0010487D01*
X0201981Y0011485D02*
X0203853Y0011485D01*
X0203449Y0012484D02*
X0202386Y0012484D01*
X0202386Y0013482D02*
X0203449Y0013482D01*
X0203549Y0014481D02*
X0202286Y0014481D01*
X0201872Y0015479D02*
X0203962Y0015479D01*
X0204725Y0016478D02*
X0201109Y0016478D01*
X0199634Y0017476D02*
X0206201Y0017476D01*
X0205601Y0019473D02*
X0200151Y0019473D01*
X0201349Y0020472D02*
X0204477Y0020472D01*
X0203859Y0021470D02*
X0201974Y0021470D01*
X0202302Y0022469D02*
X0203449Y0022469D01*
X0198402Y0022469D02*
X0197433Y0022469D01*
X0197433Y0021470D02*
X0198402Y0021470D01*
X0198402Y0020472D02*
X0197433Y0020472D01*
X0197433Y0019473D02*
X0198402Y0019473D01*
X0198402Y0024466D02*
X0197433Y0024466D01*
X0197433Y0025464D02*
X0198402Y0025464D01*
X0198402Y0026463D02*
X0197433Y0026463D01*
X0194710Y0026463D02*
X0191124Y0026463D01*
X0191878Y0025464D02*
X0193979Y0025464D01*
X0193581Y0024466D02*
X0192292Y0024466D01*
X0209669Y0027461D02*
X0216165Y0027461D01*
X0215386Y0027139D02*
X0217028Y0027819D01*
X0218806Y0027819D01*
X0220449Y0027139D01*
X0221706Y0025882D01*
X0222386Y0024239D01*
X0222386Y0022462D01*
X0221706Y0020819D01*
X0220449Y0019562D01*
X0218806Y0018882D01*
X0217028Y0018882D01*
X0215386Y0019562D01*
X0214129Y0020819D01*
X0213449Y0022462D01*
X0213449Y0024239D01*
X0214129Y0025882D01*
X0215386Y0027139D01*
X0214710Y0026463D02*
X0211124Y0026463D01*
X0211878Y0025464D02*
X0213956Y0025464D01*
X0213543Y0024466D02*
X0212292Y0024466D01*
X0212386Y0023467D02*
X0213449Y0023467D01*
X0213449Y0022469D02*
X0212386Y0022469D01*
X0211975Y0021470D02*
X0213859Y0021470D01*
X0214477Y0020472D02*
X0211358Y0020472D01*
X0210234Y0019473D02*
X0215601Y0019473D01*
X0216202Y0017492D02*
X0215575Y0017172D01*
X0215006Y0016759D01*
X0214509Y0016261D01*
X0214096Y0015692D01*
X0213776Y0015066D01*
X0213559Y0014397D01*
X0213470Y0013835D01*
X0217433Y0013835D01*
X0217433Y0017798D01*
X0216871Y0017709D01*
X0216202Y0017492D01*
X0216172Y0017476D02*
X0209634Y0017476D01*
X0211109Y0016478D02*
X0214725Y0016478D01*
X0213987Y0015479D02*
X0211872Y0015479D01*
X0212286Y0014481D02*
X0213586Y0014481D01*
X0212386Y0013482D02*
X0217433Y0013482D01*
X0217433Y0013835D02*
X0217433Y0012866D01*
X0218402Y0012866D01*
X0218402Y0013835D01*
X0222365Y0013835D01*
X0222276Y0014397D01*
X0222058Y0015066D01*
X0221739Y0015692D01*
X0221326Y0016261D01*
X0220828Y0016759D01*
X0220259Y0017172D01*
X0219633Y0017492D01*
X0218964Y0017709D01*
X0218402Y0017798D01*
X0218402Y0013835D01*
X0217433Y0013835D01*
X0217433Y0014481D02*
X0218402Y0014481D01*
X0218402Y0015479D02*
X0217433Y0015479D01*
X0217433Y0016478D02*
X0218402Y0016478D01*
X0218402Y0017476D02*
X0217433Y0017476D01*
X0219663Y0017476D02*
X0226201Y0017476D01*
X0225386Y0017139D02*
X0224129Y0015882D01*
X0223449Y0014239D01*
X0223449Y0012462D01*
X0224129Y0010819D01*
X0225386Y0009562D01*
X0227028Y0008882D01*
X0228806Y0008882D01*
X0230449Y0009562D01*
X0231706Y0010819D01*
X0232386Y0012462D01*
X0232386Y0014239D01*
X0231706Y0015882D01*
X0230449Y0017139D01*
X0228806Y0017819D01*
X0227028Y0017819D01*
X0225386Y0017139D01*
X0224725Y0016478D02*
X0221109Y0016478D01*
X0221848Y0015479D02*
X0223962Y0015479D01*
X0223549Y0014481D02*
X0222249Y0014481D01*
X0223449Y0013482D02*
X0218402Y0013482D01*
X0218402Y0012866D02*
X0222365Y0012866D01*
X0222276Y0012304D01*
X0222058Y0011635D01*
X0221739Y0011008D01*
X0221326Y0010439D01*
X0220828Y0009942D01*
X0220259Y0009529D01*
X0219633Y0009209D01*
X0218964Y0008992D01*
X0218402Y0008903D01*
X0218402Y0012866D01*
X0218402Y0012484D02*
X0217433Y0012484D01*
X0217433Y0012866D02*
X0217433Y0008903D01*
X0216871Y0008992D01*
X0216202Y0009209D01*
X0215575Y0009529D01*
X0215006Y0009942D01*
X0214509Y0010439D01*
X0214096Y0011008D01*
X0213776Y0011635D01*
X0213559Y0012304D01*
X0213470Y0012866D01*
X0217433Y0012866D01*
X0217433Y0011485D02*
X0218402Y0011485D01*
X0218402Y0010487D02*
X0217433Y0010487D01*
X0217433Y0009488D02*
X0218402Y0009488D01*
X0220180Y0009488D02*
X0225565Y0009488D01*
X0224462Y0010487D02*
X0221360Y0010487D01*
X0221982Y0011485D02*
X0223853Y0011485D01*
X0223449Y0012484D02*
X0222304Y0012484D01*
X0220234Y0019473D02*
X0225601Y0019473D01*
X0225386Y0019562D02*
X0227028Y0018882D01*
X0228806Y0018882D01*
X0230449Y0019562D01*
X0231706Y0020819D01*
X0232386Y0022462D01*
X0232386Y0024239D01*
X0231706Y0025882D01*
X0230449Y0027139D01*
X0228806Y0027819D01*
X0227028Y0027819D01*
X0225386Y0027139D01*
X0224129Y0025882D01*
X0223449Y0024239D01*
X0223449Y0022462D01*
X0224129Y0020819D01*
X0225386Y0019562D01*
X0224477Y0020472D02*
X0221358Y0020472D01*
X0221975Y0021470D02*
X0223859Y0021470D01*
X0223449Y0022469D02*
X0222386Y0022469D01*
X0222386Y0023467D02*
X0223449Y0023467D01*
X0223543Y0024466D02*
X0222292Y0024466D01*
X0221878Y0025464D02*
X0223956Y0025464D01*
X0224710Y0026463D02*
X0221124Y0026463D01*
X0219669Y0027461D02*
X0226165Y0027461D01*
X0229669Y0027461D02*
X0236165Y0027461D01*
X0234710Y0026463D02*
X0231124Y0026463D01*
X0231878Y0025464D02*
X0233956Y0025464D01*
X0233543Y0024466D02*
X0232292Y0024466D01*
X0232386Y0023467D02*
X0233449Y0023467D01*
X0233449Y0022469D02*
X0232386Y0022469D01*
X0231975Y0021470D02*
X0233859Y0021470D01*
X0234477Y0020472D02*
X0231358Y0020472D01*
X0230234Y0019473D02*
X0235601Y0019473D01*
X0236201Y0017476D02*
X0229634Y0017476D01*
X0231109Y0016478D02*
X0234725Y0016478D01*
X0233962Y0015479D02*
X0231872Y0015479D01*
X0232286Y0014481D02*
X0233549Y0014481D01*
X0233449Y0013482D02*
X0232386Y0013482D01*
X0232386Y0012484D02*
X0233449Y0012484D01*
X0233853Y0011485D02*
X0231981Y0011485D01*
X0231373Y0010487D02*
X0234462Y0010487D01*
X0235565Y0009488D02*
X0230270Y0009488D01*
X0217917Y0023350D02*
X0217839Y0023429D01*
X0213530Y0012484D02*
X0212386Y0012484D01*
X0211981Y0011485D02*
X0213853Y0011485D01*
X0214475Y0010487D02*
X0211373Y0010487D01*
X0210270Y0009488D02*
X0215655Y0009488D01*
X0144725Y0016478D02*
X0141109Y0016478D01*
X0141872Y0015479D02*
X0143987Y0015479D01*
X0143586Y0014481D02*
X0142286Y0014481D01*
D13*
X0163016Y0117248D03*
X0168823Y0117248D03*
X0177681Y0130240D03*
X0182701Y0134571D03*
X0189591Y0129748D03*
X0187917Y0122071D03*
X0179256Y0155339D03*
X0187819Y0155634D03*
X0128370Y0136933D03*
X0120988Y0128961D03*
X0116657Y0194906D03*
X0116756Y0204551D03*
D14*
X0117051Y0161933D01*
X0163016Y0117248D01*
X0169709Y0117248D01*
X0170201Y0117346D01*
X0177189Y0124335D01*
X0177189Y0126795D01*
D15*
X0177681Y0130240D01*
X0182701Y0134571D02*
X0177976Y0138213D01*
X0177976Y0154059D01*
X0179256Y0155339D01*
X0187819Y0155634D02*
X0193823Y0149630D01*
X0193823Y0136146D01*
X0189591Y0129748D01*
X0187917Y0122071D02*
X0187917Y0116264D01*
X0179354Y0107799D01*
X0152976Y0107799D01*
X0128370Y0132406D01*
X0128370Y0136933D01*
M02*
