%
M48
M72
T01C0.0354
T02C0.0394
T03C0.0400
%
T01
X12099Y12896
X12837Y13693
X16302Y11725
X16882Y11725
X17768Y13024
X18270Y13457
X18959Y12975
X18792Y12207
X17926Y15534
X18782Y15563
X11666Y19491
X11676Y20455
T02
X4792Y1335
X5792Y1335
X6792Y1335
X7792Y1335
X8792Y1335
X9792Y1335
X10792Y1335
X11792Y1335
X12792Y1335
X13792Y1335
X14792Y1335
X15792Y1335
X16792Y1335
X17792Y1335
X18792Y1335
X19792Y1335
X20792Y1335
X21792Y1335
X22792Y1335
X23792Y1335
X23792Y2335
X22792Y2335
X21792Y2335
X20792Y2335
X19792Y2335
X18792Y2335
X17792Y2335
X16792Y2335
X15792Y2335
X14792Y2335
X13792Y2335
X12792Y2335
X11792Y2335
X10792Y2335
X9792Y2335
X8792Y2335
X7792Y2335
X6792Y2335
X5792Y2335
X4792Y2335
T03
X14719Y9333
X15719Y9333
M30
