%
M48
M72
T01C0.0276
T02C0.0354
T03C0.0394
T04C0.1260
%
T01
X661Y18880
X26517Y4943
T02
X21931Y2702
X14539Y4244
X13948Y3486
X12689Y4047
X13309Y5139
X11055Y4716
X8643Y4313
X5946Y2687
X4372Y8309
X3624Y9667
X2393Y10602
X2305Y11507
X2265Y8840
X5602Y9992
X6724Y11822
X8319Y12856
X7767Y15966
X4933Y16724
X4372Y20425
X9027Y18968
X24470Y19529
T03
X3954Y1679
X3954Y2679
X4954Y2679
X5954Y2679
X5954Y1679
X4954Y1679
X6954Y1679
X6954Y2679
X7954Y2679
X8954Y2679
X8954Y1679
X7954Y1679
X9954Y1679
X9954Y2679
X10954Y2679
X10954Y1679
X11954Y1679
X11954Y2679
X12954Y2679
X12954Y1679
X13954Y1679
X13954Y2679
X14954Y2679
X15954Y2679
X15954Y1679
X14954Y1679
X16954Y1679
X16954Y2679
X17954Y2679
X18954Y2679
X18954Y1679
X17954Y1679
X19954Y1679
X19954Y2679
X20954Y2679
X21954Y2679
X21954Y1679
X20954Y1679
X22954Y1679
X22954Y2679
T04
X22846Y16744
M30
