G75*
%MOIN*%
%OFA0B0*%
%FSLAX25Y25*%
%IPPOS*%
%LPD*%
%AMOC8*
5,1,8,0,0,1.08239X$1,22.5*
%
%ADD10C,0.00000*%
%ADD11R,0.04331X0.03937*%
%ADD12R,0.08661X0.02362*%
%ADD13R,0.03937X0.04331*%
%ADD14R,0.03150X0.03150*%
%ADD15R,0.02362X0.08661*%
%ADD16R,0.07400X0.05000*%
%ADD17R,0.04921X0.00984*%
%ADD18R,0.09449X0.09449*%
%ADD19R,0.15748X0.07480*%
%ADD20R,0.01575X0.05512*%
%ADD21R,0.04528X0.05709*%
%ADD22C,0.05315*%
%ADD23R,0.07900X0.05900*%
%ADD24R,0.07900X0.15000*%
%ADD25R,0.02165X0.04724*%
%ADD26R,0.05118X0.05906*%
%ADD27R,0.05512X0.05512*%
%ADD28R,0.05709X0.04724*%
%ADD29R,0.05709X0.03937*%
%ADD30R,0.04724X0.05709*%
%ADD31R,0.03937X0.05709*%
%ADD32R,0.05512X0.07087*%
%ADD33C,0.40157*%
%ADD34R,0.20079X0.09843*%
%ADD35R,0.03150X0.03543*%
%ADD36R,0.01200X0.03900*%
%ADD37R,0.03937X0.05906*%
%ADD38R,0.03346X0.01102*%
%ADD39R,0.00984X0.02756*%
%ADD40R,0.08661X0.06496*%
%ADD41R,0.03543X0.03543*%
%ADD42R,0.07087X0.10630*%
%ADD43R,0.07087X0.06299*%
%ADD44R,0.05512X0.03937*%
%ADD45R,0.03150X0.03150*%
%ADD46R,0.03543X0.03150*%
%ADD47R,0.03937X0.05512*%
%ADD48R,0.06299X0.07087*%
%ADD49R,0.05512X0.04724*%
%ADD50R,0.06693X0.06693*%
%ADD51R,0.01339X0.01339*%
%ADD52R,0.01102X0.02402*%
%ADD53R,0.02402X0.01102*%
%ADD54R,0.03937X0.03937*%
%ADD55R,0.02362X0.00886*%
D10*
X0013311Y0001500D02*
X0324335Y0001500D01*
X0324620Y0001503D01*
X0324906Y0001514D01*
X0325191Y0001531D01*
X0325475Y0001555D01*
X0325759Y0001586D01*
X0326042Y0001624D01*
X0326323Y0001669D01*
X0326604Y0001720D01*
X0326884Y0001778D01*
X0327162Y0001843D01*
X0327438Y0001915D01*
X0327712Y0001993D01*
X0327985Y0002078D01*
X0328255Y0002170D01*
X0328523Y0002268D01*
X0328789Y0002372D01*
X0329052Y0002483D01*
X0329312Y0002600D01*
X0329570Y0002723D01*
X0329824Y0002853D01*
X0330075Y0002989D01*
X0330323Y0003130D01*
X0330567Y0003278D01*
X0330808Y0003431D01*
X0331044Y0003591D01*
X0331277Y0003756D01*
X0331506Y0003926D01*
X0331731Y0004102D01*
X0331951Y0004284D01*
X0332167Y0004470D01*
X0332378Y0004662D01*
X0332585Y0004859D01*
X0332787Y0005061D01*
X0332984Y0005268D01*
X0333176Y0005479D01*
X0333362Y0005695D01*
X0333544Y0005915D01*
X0333720Y0006140D01*
X0333890Y0006369D01*
X0334055Y0006602D01*
X0334215Y0006838D01*
X0334368Y0007079D01*
X0334516Y0007323D01*
X0334657Y0007571D01*
X0334793Y0007822D01*
X0334923Y0008076D01*
X0335046Y0008334D01*
X0335163Y0008594D01*
X0335274Y0008857D01*
X0335378Y0009123D01*
X0335476Y0009391D01*
X0335568Y0009661D01*
X0335653Y0009934D01*
X0335731Y0010208D01*
X0335803Y0010484D01*
X0335868Y0010762D01*
X0335926Y0011042D01*
X0335977Y0011323D01*
X0336022Y0011604D01*
X0336060Y0011887D01*
X0336091Y0012171D01*
X0336115Y0012455D01*
X0336132Y0012740D01*
X0336143Y0013026D01*
X0336146Y0013311D01*
X0336146Y0366461D01*
X0336142Y0366775D01*
X0336131Y0367089D01*
X0336112Y0367402D01*
X0336085Y0367715D01*
X0336051Y0368027D01*
X0336010Y0368338D01*
X0335961Y0368648D01*
X0335904Y0368957D01*
X0335840Y0369264D01*
X0335768Y0369570D01*
X0335690Y0369874D01*
X0335604Y0370176D01*
X0335510Y0370476D01*
X0335410Y0370773D01*
X0335302Y0371068D01*
X0335187Y0371360D01*
X0335065Y0371650D01*
X0334936Y0371936D01*
X0334800Y0372219D01*
X0334658Y0372499D01*
X0334509Y0372775D01*
X0334353Y0373047D01*
X0334190Y0373316D01*
X0334021Y0373581D01*
X0333846Y0373841D01*
X0333665Y0374098D01*
X0333477Y0374349D01*
X0333284Y0374596D01*
X0333084Y0374839D01*
X0332879Y0375076D01*
X0332668Y0375309D01*
X0332451Y0375536D01*
X0332229Y0375758D01*
X0332002Y0375975D01*
X0331769Y0376186D01*
X0331532Y0376391D01*
X0331289Y0376591D01*
X0331042Y0376784D01*
X0330791Y0376972D01*
X0330534Y0377153D01*
X0330274Y0377328D01*
X0330009Y0377497D01*
X0329740Y0377660D01*
X0329468Y0377816D01*
X0329192Y0377965D01*
X0328912Y0378107D01*
X0328629Y0378243D01*
X0328343Y0378372D01*
X0328053Y0378494D01*
X0327761Y0378609D01*
X0327466Y0378717D01*
X0327169Y0378817D01*
X0326869Y0378911D01*
X0326567Y0378997D01*
X0326263Y0379075D01*
X0325957Y0379147D01*
X0325650Y0379211D01*
X0325341Y0379268D01*
X0325031Y0379317D01*
X0324720Y0379358D01*
X0324408Y0379392D01*
X0324095Y0379419D01*
X0323782Y0379438D01*
X0323468Y0379449D01*
X0323154Y0379453D01*
X0086151Y0379453D01*
X0086027Y0379451D01*
X0085903Y0379445D01*
X0085780Y0379436D01*
X0085657Y0379422D01*
X0085534Y0379404D01*
X0085412Y0379383D01*
X0085291Y0379358D01*
X0085171Y0379329D01*
X0085051Y0379296D01*
X0084933Y0379260D01*
X0084816Y0379220D01*
X0084700Y0379176D01*
X0084585Y0379129D01*
X0084473Y0379078D01*
X0084361Y0379023D01*
X0084252Y0378965D01*
X0084144Y0378904D01*
X0084039Y0378839D01*
X0083935Y0378771D01*
X0083834Y0378700D01*
X0083735Y0378626D01*
X0083638Y0378548D01*
X0083544Y0378468D01*
X0083453Y0378385D01*
X0083364Y0378298D01*
X0083277Y0378209D01*
X0083194Y0378118D01*
X0083114Y0378024D01*
X0083036Y0377927D01*
X0082962Y0377828D01*
X0082891Y0377727D01*
X0082823Y0377623D01*
X0082758Y0377518D01*
X0082697Y0377410D01*
X0082639Y0377301D01*
X0082584Y0377189D01*
X0082533Y0377077D01*
X0082486Y0376962D01*
X0082442Y0376846D01*
X0082402Y0376729D01*
X0082366Y0376611D01*
X0082333Y0376491D01*
X0082304Y0376371D01*
X0082279Y0376250D01*
X0082258Y0376128D01*
X0082240Y0376005D01*
X0082226Y0375882D01*
X0082217Y0375759D01*
X0082211Y0375635D01*
X0082209Y0375511D01*
X0082209Y0300713D01*
X0082207Y0300589D01*
X0082201Y0300466D01*
X0082192Y0300342D01*
X0082178Y0300220D01*
X0082161Y0300097D01*
X0082139Y0299975D01*
X0082114Y0299854D01*
X0082085Y0299734D01*
X0082053Y0299615D01*
X0082016Y0299496D01*
X0081976Y0299379D01*
X0081933Y0299264D01*
X0081885Y0299149D01*
X0081834Y0299037D01*
X0081780Y0298926D01*
X0081722Y0298816D01*
X0081661Y0298709D01*
X0081596Y0298603D01*
X0081528Y0298500D01*
X0081457Y0298399D01*
X0081383Y0298300D01*
X0081306Y0298203D01*
X0081225Y0298109D01*
X0081142Y0298018D01*
X0081056Y0297929D01*
X0080967Y0297843D01*
X0080876Y0297760D01*
X0080782Y0297679D01*
X0080685Y0297602D01*
X0080586Y0297528D01*
X0080485Y0297457D01*
X0080382Y0297389D01*
X0080276Y0297324D01*
X0080169Y0297263D01*
X0080059Y0297205D01*
X0079948Y0297151D01*
X0079836Y0297100D01*
X0079721Y0297052D01*
X0079606Y0297009D01*
X0079489Y0296969D01*
X0079370Y0296932D01*
X0079251Y0296900D01*
X0079131Y0296871D01*
X0079010Y0296846D01*
X0078888Y0296824D01*
X0078765Y0296807D01*
X0078643Y0296793D01*
X0078519Y0296784D01*
X0078396Y0296778D01*
X0078272Y0296776D01*
X0070403Y0296776D01*
X0070279Y0296774D01*
X0070155Y0296768D01*
X0070032Y0296759D01*
X0069909Y0296745D01*
X0069786Y0296727D01*
X0069664Y0296706D01*
X0069543Y0296681D01*
X0069423Y0296652D01*
X0069303Y0296619D01*
X0069185Y0296583D01*
X0069068Y0296543D01*
X0068952Y0296499D01*
X0068837Y0296452D01*
X0068725Y0296401D01*
X0068613Y0296346D01*
X0068504Y0296288D01*
X0068396Y0296227D01*
X0068291Y0296162D01*
X0068187Y0296094D01*
X0068086Y0296023D01*
X0067987Y0295949D01*
X0067890Y0295871D01*
X0067796Y0295791D01*
X0067705Y0295708D01*
X0067616Y0295621D01*
X0067529Y0295532D01*
X0067446Y0295441D01*
X0067366Y0295347D01*
X0067288Y0295250D01*
X0067214Y0295151D01*
X0067143Y0295050D01*
X0067075Y0294946D01*
X0067010Y0294841D01*
X0066949Y0294733D01*
X0066891Y0294624D01*
X0066836Y0294512D01*
X0066785Y0294400D01*
X0066738Y0294285D01*
X0066694Y0294169D01*
X0066654Y0294052D01*
X0066618Y0293934D01*
X0066585Y0293814D01*
X0066556Y0293694D01*
X0066531Y0293573D01*
X0066510Y0293451D01*
X0066492Y0293328D01*
X0066478Y0293205D01*
X0066469Y0293082D01*
X0066463Y0292958D01*
X0066461Y0292834D01*
X0066461Y0164886D01*
X0005442Y0164886D01*
X0005318Y0164884D01*
X0005194Y0164878D01*
X0005071Y0164869D01*
X0004948Y0164855D01*
X0004825Y0164837D01*
X0004703Y0164816D01*
X0004582Y0164791D01*
X0004462Y0164762D01*
X0004342Y0164729D01*
X0004224Y0164693D01*
X0004107Y0164653D01*
X0003991Y0164609D01*
X0003876Y0164562D01*
X0003764Y0164511D01*
X0003652Y0164456D01*
X0003543Y0164398D01*
X0003435Y0164337D01*
X0003330Y0164272D01*
X0003226Y0164204D01*
X0003125Y0164133D01*
X0003026Y0164059D01*
X0002929Y0163981D01*
X0002835Y0163901D01*
X0002744Y0163818D01*
X0002655Y0163731D01*
X0002568Y0163642D01*
X0002485Y0163551D01*
X0002405Y0163457D01*
X0002327Y0163360D01*
X0002253Y0163261D01*
X0002182Y0163160D01*
X0002114Y0163056D01*
X0002049Y0162951D01*
X0001988Y0162843D01*
X0001930Y0162734D01*
X0001875Y0162622D01*
X0001824Y0162510D01*
X0001777Y0162395D01*
X0001733Y0162279D01*
X0001693Y0162162D01*
X0001657Y0162044D01*
X0001624Y0161924D01*
X0001595Y0161804D01*
X0001570Y0161683D01*
X0001549Y0161561D01*
X0001531Y0161438D01*
X0001517Y0161315D01*
X0001508Y0161192D01*
X0001502Y0161068D01*
X0001500Y0160944D01*
X0001500Y0013311D01*
X0001503Y0013026D01*
X0001514Y0012740D01*
X0001531Y0012455D01*
X0001555Y0012171D01*
X0001586Y0011887D01*
X0001624Y0011604D01*
X0001669Y0011323D01*
X0001720Y0011042D01*
X0001778Y0010762D01*
X0001843Y0010484D01*
X0001915Y0010208D01*
X0001993Y0009934D01*
X0002078Y0009661D01*
X0002170Y0009391D01*
X0002268Y0009123D01*
X0002372Y0008857D01*
X0002483Y0008594D01*
X0002600Y0008334D01*
X0002723Y0008076D01*
X0002853Y0007822D01*
X0002989Y0007571D01*
X0003130Y0007323D01*
X0003278Y0007079D01*
X0003431Y0006838D01*
X0003591Y0006602D01*
X0003756Y0006369D01*
X0003926Y0006140D01*
X0004102Y0005915D01*
X0004284Y0005695D01*
X0004470Y0005479D01*
X0004662Y0005268D01*
X0004859Y0005061D01*
X0005061Y0004859D01*
X0005268Y0004662D01*
X0005479Y0004470D01*
X0005695Y0004284D01*
X0005915Y0004102D01*
X0006140Y0003926D01*
X0006369Y0003756D01*
X0006602Y0003591D01*
X0006838Y0003431D01*
X0007079Y0003278D01*
X0007323Y0003130D01*
X0007571Y0002989D01*
X0007822Y0002853D01*
X0008076Y0002723D01*
X0008334Y0002600D01*
X0008594Y0002483D01*
X0008857Y0002372D01*
X0009123Y0002268D01*
X0009391Y0002170D01*
X0009661Y0002078D01*
X0009934Y0001993D01*
X0010208Y0001915D01*
X0010484Y0001843D01*
X0010762Y0001778D01*
X0011042Y0001720D01*
X0011323Y0001669D01*
X0011604Y0001624D01*
X0011887Y0001586D01*
X0012171Y0001555D01*
X0012455Y0001531D01*
X0012740Y0001514D01*
X0013026Y0001503D01*
X0013311Y0001500D01*
X0218035Y0218036D02*
X0218035Y0324532D01*
X0245594Y0324532D01*
X0245594Y0218036D01*
X0218035Y0218036D01*
X0249728Y0364985D02*
X0249730Y0365069D01*
X0249736Y0365152D01*
X0249746Y0365235D01*
X0249760Y0365318D01*
X0249777Y0365400D01*
X0249799Y0365481D01*
X0249824Y0365560D01*
X0249853Y0365639D01*
X0249886Y0365716D01*
X0249922Y0365791D01*
X0249962Y0365865D01*
X0250005Y0365937D01*
X0250052Y0366006D01*
X0250102Y0366073D01*
X0250155Y0366138D01*
X0250211Y0366200D01*
X0250269Y0366260D01*
X0250331Y0366317D01*
X0250395Y0366370D01*
X0250462Y0366421D01*
X0250531Y0366468D01*
X0250602Y0366513D01*
X0250675Y0366553D01*
X0250750Y0366590D01*
X0250827Y0366624D01*
X0250905Y0366654D01*
X0250984Y0366680D01*
X0251065Y0366703D01*
X0251147Y0366721D01*
X0251229Y0366736D01*
X0251312Y0366747D01*
X0251395Y0366754D01*
X0251479Y0366757D01*
X0251563Y0366756D01*
X0251646Y0366751D01*
X0251730Y0366742D01*
X0251812Y0366729D01*
X0251894Y0366713D01*
X0251975Y0366692D01*
X0252056Y0366668D01*
X0252134Y0366640D01*
X0252212Y0366608D01*
X0252288Y0366572D01*
X0252362Y0366533D01*
X0252434Y0366491D01*
X0252504Y0366445D01*
X0252572Y0366396D01*
X0252637Y0366344D01*
X0252700Y0366289D01*
X0252760Y0366231D01*
X0252818Y0366170D01*
X0252872Y0366106D01*
X0252924Y0366040D01*
X0252972Y0365972D01*
X0253017Y0365901D01*
X0253058Y0365828D01*
X0253097Y0365754D01*
X0253131Y0365678D01*
X0253162Y0365600D01*
X0253189Y0365521D01*
X0253213Y0365440D01*
X0253232Y0365359D01*
X0253248Y0365277D01*
X0253260Y0365194D01*
X0253268Y0365110D01*
X0253272Y0365027D01*
X0253272Y0364943D01*
X0253268Y0364860D01*
X0253260Y0364776D01*
X0253248Y0364693D01*
X0253232Y0364611D01*
X0253213Y0364530D01*
X0253189Y0364449D01*
X0253162Y0364370D01*
X0253131Y0364292D01*
X0253097Y0364216D01*
X0253058Y0364142D01*
X0253017Y0364069D01*
X0252972Y0363998D01*
X0252924Y0363930D01*
X0252872Y0363864D01*
X0252818Y0363800D01*
X0252760Y0363739D01*
X0252700Y0363681D01*
X0252637Y0363626D01*
X0252572Y0363574D01*
X0252504Y0363525D01*
X0252434Y0363479D01*
X0252362Y0363437D01*
X0252288Y0363398D01*
X0252212Y0363362D01*
X0252134Y0363330D01*
X0252056Y0363302D01*
X0251975Y0363278D01*
X0251894Y0363257D01*
X0251812Y0363241D01*
X0251730Y0363228D01*
X0251646Y0363219D01*
X0251563Y0363214D01*
X0251479Y0363213D01*
X0251395Y0363216D01*
X0251312Y0363223D01*
X0251229Y0363234D01*
X0251147Y0363249D01*
X0251065Y0363267D01*
X0250984Y0363290D01*
X0250905Y0363316D01*
X0250827Y0363346D01*
X0250750Y0363380D01*
X0250675Y0363417D01*
X0250602Y0363457D01*
X0250531Y0363502D01*
X0250462Y0363549D01*
X0250395Y0363600D01*
X0250331Y0363653D01*
X0250269Y0363710D01*
X0250211Y0363770D01*
X0250155Y0363832D01*
X0250102Y0363897D01*
X0250052Y0363964D01*
X0250005Y0364033D01*
X0249962Y0364105D01*
X0249922Y0364179D01*
X0249886Y0364254D01*
X0249853Y0364331D01*
X0249824Y0364410D01*
X0249799Y0364489D01*
X0249777Y0364570D01*
X0249760Y0364652D01*
X0249746Y0364735D01*
X0249736Y0364818D01*
X0249730Y0364901D01*
X0249728Y0364985D01*
X0261539Y0364985D02*
X0261541Y0365069D01*
X0261547Y0365152D01*
X0261557Y0365235D01*
X0261571Y0365318D01*
X0261588Y0365400D01*
X0261610Y0365481D01*
X0261635Y0365560D01*
X0261664Y0365639D01*
X0261697Y0365716D01*
X0261733Y0365791D01*
X0261773Y0365865D01*
X0261816Y0365937D01*
X0261863Y0366006D01*
X0261913Y0366073D01*
X0261966Y0366138D01*
X0262022Y0366200D01*
X0262080Y0366260D01*
X0262142Y0366317D01*
X0262206Y0366370D01*
X0262273Y0366421D01*
X0262342Y0366468D01*
X0262413Y0366513D01*
X0262486Y0366553D01*
X0262561Y0366590D01*
X0262638Y0366624D01*
X0262716Y0366654D01*
X0262795Y0366680D01*
X0262876Y0366703D01*
X0262958Y0366721D01*
X0263040Y0366736D01*
X0263123Y0366747D01*
X0263206Y0366754D01*
X0263290Y0366757D01*
X0263374Y0366756D01*
X0263457Y0366751D01*
X0263541Y0366742D01*
X0263623Y0366729D01*
X0263705Y0366713D01*
X0263786Y0366692D01*
X0263867Y0366668D01*
X0263945Y0366640D01*
X0264023Y0366608D01*
X0264099Y0366572D01*
X0264173Y0366533D01*
X0264245Y0366491D01*
X0264315Y0366445D01*
X0264383Y0366396D01*
X0264448Y0366344D01*
X0264511Y0366289D01*
X0264571Y0366231D01*
X0264629Y0366170D01*
X0264683Y0366106D01*
X0264735Y0366040D01*
X0264783Y0365972D01*
X0264828Y0365901D01*
X0264869Y0365828D01*
X0264908Y0365754D01*
X0264942Y0365678D01*
X0264973Y0365600D01*
X0265000Y0365521D01*
X0265024Y0365440D01*
X0265043Y0365359D01*
X0265059Y0365277D01*
X0265071Y0365194D01*
X0265079Y0365110D01*
X0265083Y0365027D01*
X0265083Y0364943D01*
X0265079Y0364860D01*
X0265071Y0364776D01*
X0265059Y0364693D01*
X0265043Y0364611D01*
X0265024Y0364530D01*
X0265000Y0364449D01*
X0264973Y0364370D01*
X0264942Y0364292D01*
X0264908Y0364216D01*
X0264869Y0364142D01*
X0264828Y0364069D01*
X0264783Y0363998D01*
X0264735Y0363930D01*
X0264683Y0363864D01*
X0264629Y0363800D01*
X0264571Y0363739D01*
X0264511Y0363681D01*
X0264448Y0363626D01*
X0264383Y0363574D01*
X0264315Y0363525D01*
X0264245Y0363479D01*
X0264173Y0363437D01*
X0264099Y0363398D01*
X0264023Y0363362D01*
X0263945Y0363330D01*
X0263867Y0363302D01*
X0263786Y0363278D01*
X0263705Y0363257D01*
X0263623Y0363241D01*
X0263541Y0363228D01*
X0263457Y0363219D01*
X0263374Y0363214D01*
X0263290Y0363213D01*
X0263206Y0363216D01*
X0263123Y0363223D01*
X0263040Y0363234D01*
X0262958Y0363249D01*
X0262876Y0363267D01*
X0262795Y0363290D01*
X0262716Y0363316D01*
X0262638Y0363346D01*
X0262561Y0363380D01*
X0262486Y0363417D01*
X0262413Y0363457D01*
X0262342Y0363502D01*
X0262273Y0363549D01*
X0262206Y0363600D01*
X0262142Y0363653D01*
X0262080Y0363710D01*
X0262022Y0363770D01*
X0261966Y0363832D01*
X0261913Y0363897D01*
X0261863Y0363964D01*
X0261816Y0364033D01*
X0261773Y0364105D01*
X0261733Y0364179D01*
X0261697Y0364254D01*
X0261664Y0364331D01*
X0261635Y0364410D01*
X0261610Y0364489D01*
X0261588Y0364570D01*
X0261571Y0364652D01*
X0261557Y0364735D01*
X0261547Y0364818D01*
X0261541Y0364901D01*
X0261539Y0364985D01*
D11*
X0239886Y0347563D03*
X0239886Y0340870D03*
X0282110Y0297957D03*
X0282110Y0291264D03*
X0297071Y0333292D03*
X0297071Y0339985D03*
X0304354Y0338115D03*
X0304354Y0344807D03*
X0312130Y0344807D03*
X0312130Y0338115D03*
X0320693Y0364591D03*
X0320693Y0371284D03*
X0319512Y0259768D03*
X0319512Y0253075D03*
X0307307Y0192150D03*
X0307307Y0185457D03*
X0299335Y0185457D03*
X0299335Y0192150D03*
X0169807Y0190870D03*
X0169807Y0197563D03*
X0170201Y0207209D03*
X0170201Y0213902D03*
X0162327Y0213902D03*
X0162327Y0207209D03*
X0154551Y0207209D03*
X0154551Y0213902D03*
X0138508Y0260654D03*
X0138508Y0267347D03*
X0130535Y0267347D03*
X0130535Y0260654D03*
X0097563Y0245792D03*
X0097563Y0239099D03*
X0104354Y0218922D03*
X0104354Y0212229D03*
X0089984Y0340280D03*
X0089984Y0346973D03*
D12*
X0236913Y0202603D03*
X0236913Y0197603D03*
X0236913Y0192603D03*
X0236913Y0187603D03*
X0263134Y0187603D03*
X0263134Y0192603D03*
X0263134Y0197603D03*
X0263134Y0202603D03*
D13*
X0227583Y0195595D03*
X0220890Y0195595D03*
X0220791Y0187524D03*
X0227484Y0187524D03*
X0184374Y0190870D03*
X0177681Y0190870D03*
X0159276Y0222662D03*
X0152583Y0222662D03*
X0152583Y0230437D03*
X0159276Y0230437D03*
X0159276Y0238213D03*
X0152583Y0238213D03*
X0154650Y0287721D03*
X0147957Y0287721D03*
X0147957Y0295693D03*
X0154650Y0295693D03*
X0154650Y0303567D03*
X0147957Y0303567D03*
X0147957Y0311540D03*
X0154650Y0311540D03*
X0154650Y0319512D03*
X0147957Y0319512D03*
X0168823Y0343626D03*
X0175516Y0343626D03*
X0175516Y0350811D03*
X0168823Y0350811D03*
X0211736Y0360949D03*
X0218429Y0360949D03*
X0228665Y0368528D03*
X0235358Y0368528D03*
X0225614Y0334768D03*
X0218921Y0334768D03*
X0282701Y0338016D03*
X0289394Y0338016D03*
X0289394Y0330142D03*
X0282701Y0330142D03*
X0298941Y0255733D03*
X0305634Y0255733D03*
X0104650Y0330437D03*
X0097957Y0330437D03*
X0097760Y0253075D03*
X0091067Y0253075D03*
D14*
X0089886Y0245103D03*
X0089886Y0239197D03*
X0084866Y0226304D03*
X0078961Y0226304D03*
X0097366Y0218922D03*
X0097366Y0213016D03*
X0096776Y0206028D03*
X0102681Y0206028D03*
X0102681Y0200122D03*
X0096776Y0200122D03*
X0094610Y0187918D03*
X0100516Y0187918D03*
X0124827Y0211343D03*
X0130437Y0211343D03*
X0136047Y0211343D03*
X0141657Y0211343D03*
X0141657Y0217248D03*
X0136047Y0217248D03*
X0130437Y0217248D03*
X0124827Y0217248D03*
X0138016Y0201107D03*
X0143921Y0201107D03*
X0131815Y0296579D03*
X0131815Y0302485D03*
X0125909Y0302485D03*
X0125909Y0296579D03*
X0126894Y0316264D03*
X0126894Y0322170D03*
X0136047Y0347465D03*
X0136047Y0353075D03*
X0136047Y0358685D03*
X0136047Y0364296D03*
X0141953Y0364296D03*
X0141953Y0358685D03*
X0141953Y0353075D03*
X0141953Y0347465D03*
X0151106Y0343725D03*
X0151106Y0337819D03*
X0151106Y0370201D03*
X0145201Y0370201D03*
X0282307Y0345792D03*
X0288213Y0345792D03*
X0293134Y0345792D03*
X0299039Y0345792D03*
X0313311Y0363115D03*
X0313311Y0369020D03*
X0327386Y0371284D03*
X0327386Y0365378D03*
X0321087Y0319020D03*
X0321087Y0313115D03*
X0292346Y0306028D03*
X0292346Y0300122D03*
X0282110Y0302780D03*
X0282110Y0308685D03*
X0298941Y0261244D03*
X0304846Y0261244D03*
X0312720Y0259670D03*
X0312720Y0253764D03*
X0320299Y0247367D03*
X0326205Y0247367D03*
D15*
X0291087Y0212622D03*
X0286087Y0212622D03*
X0281087Y0212622D03*
X0276087Y0212622D03*
X0276087Y0192150D03*
X0281087Y0192150D03*
X0286087Y0192150D03*
X0291087Y0192150D03*
D16*
X0298472Y0211268D03*
X0310472Y0211268D03*
X0310472Y0233268D03*
X0298472Y0233268D03*
X0195689Y0343552D03*
X0183689Y0343552D03*
X0183689Y0365552D03*
X0195689Y0365552D03*
D17*
X0174925Y0320398D03*
X0174925Y0318430D03*
X0174925Y0316461D03*
X0174925Y0314493D03*
X0174925Y0312524D03*
X0174925Y0310555D03*
X0174925Y0308587D03*
X0174925Y0306618D03*
X0174925Y0304650D03*
X0174925Y0302681D03*
X0174925Y0300713D03*
X0174925Y0298744D03*
X0174925Y0296776D03*
X0174925Y0294807D03*
X0174925Y0292839D03*
X0174925Y0290870D03*
X0174925Y0288902D03*
X0174925Y0286933D03*
X0174925Y0284965D03*
X0174925Y0282996D03*
X0174925Y0281028D03*
X0174925Y0279059D03*
X0174925Y0277091D03*
X0174925Y0275122D03*
X0174925Y0273154D03*
X0174925Y0271185D03*
X0174925Y0269217D03*
X0174925Y0267248D03*
X0174925Y0265280D03*
X0174925Y0263311D03*
X0174925Y0261343D03*
X0174925Y0259374D03*
X0174925Y0257406D03*
X0174925Y0255437D03*
X0174925Y0253469D03*
X0174925Y0251500D03*
X0174925Y0249532D03*
X0174925Y0247563D03*
X0174925Y0245595D03*
X0174925Y0243626D03*
X0174925Y0241658D03*
X0174925Y0239689D03*
X0174925Y0237721D03*
X0174925Y0235752D03*
X0174925Y0233784D03*
X0174925Y0231815D03*
X0174925Y0229847D03*
X0174925Y0227878D03*
X0174925Y0225910D03*
X0174925Y0223941D03*
D18*
X0187720Y0215674D03*
X0187720Y0328666D03*
D19*
X0292839Y0374335D03*
D20*
X0292839Y0363902D03*
X0295398Y0363902D03*
X0297957Y0363902D03*
X0290280Y0363902D03*
X0287720Y0363902D03*
D21*
X0283390Y0365477D03*
X0302287Y0365477D03*
D22*
X0306815Y0373252D02*
X0306815Y0375418D01*
X0306815Y0375418D01*
X0306815Y0373252D01*
X0306815Y0373252D01*
X0278862Y0373252D02*
X0278862Y0375418D01*
X0278862Y0375418D01*
X0278862Y0373252D01*
X0278862Y0373252D01*
D23*
X0116853Y0320440D03*
X0116853Y0311440D03*
X0116853Y0302440D03*
D24*
X0092053Y0311540D03*
D25*
X0095299Y0273449D03*
X0102780Y0273449D03*
X0102780Y0263213D03*
X0099039Y0263213D03*
X0095299Y0263213D03*
D26*
X0088606Y0263213D03*
X0081126Y0263213D03*
D27*
X0081126Y0254158D03*
X0081126Y0239197D03*
X0292445Y0272268D03*
X0307406Y0272268D03*
D28*
X0090772Y0215083D03*
X0080535Y0215083D03*
X0080535Y0206422D03*
D29*
X0090772Y0206028D03*
D30*
X0081028Y0199335D03*
X0081028Y0189099D03*
X0089689Y0189099D03*
D31*
X0090083Y0199335D03*
D32*
X0091067Y0226304D03*
X0104453Y0226304D03*
D33*
X0267642Y0254453D03*
D34*
X0267642Y0284571D03*
X0267642Y0224335D03*
D35*
X0184374Y0197465D03*
X0176894Y0197465D03*
X0180634Y0205339D03*
G36*
X0317432Y0331128D02*
X0315205Y0328901D01*
X0312702Y0331404D01*
X0314929Y0333631D01*
X0317432Y0331128D01*
G37*
G36*
X0322722Y0336417D02*
X0320495Y0334190D01*
X0317992Y0336693D01*
X0320219Y0338920D01*
X0322722Y0336417D01*
G37*
G36*
X0325645Y0328204D02*
X0323418Y0325977D01*
X0320915Y0328480D01*
X0323142Y0330707D01*
X0325645Y0328204D01*
G37*
D36*
X0145988Y0252063D03*
X0143429Y0252063D03*
X0140870Y0252063D03*
X0138311Y0252063D03*
X0135752Y0252063D03*
X0133193Y0252063D03*
X0130634Y0252063D03*
X0128075Y0252063D03*
X0128075Y0229088D03*
X0130634Y0229088D03*
X0133193Y0229088D03*
X0135752Y0229088D03*
X0138311Y0229088D03*
X0140870Y0229088D03*
X0143429Y0229088D03*
X0145988Y0229088D03*
D37*
G36*
X0084768Y0158143D02*
X0081985Y0160926D01*
X0086160Y0165101D01*
X0088943Y0162318D01*
X0084768Y0158143D01*
G37*
G36*
X0088387Y0154524D02*
X0085604Y0157307D01*
X0089779Y0161482D01*
X0092562Y0158699D01*
X0088387Y0154524D01*
G37*
G36*
X0083376Y0149513D02*
X0080593Y0152296D01*
X0084768Y0156471D01*
X0087551Y0153688D01*
X0083376Y0149513D01*
G37*
G36*
X0079757Y0153132D02*
X0076974Y0155915D01*
X0081149Y0160090D01*
X0083932Y0157307D01*
X0079757Y0153132D01*
G37*
D38*
G36*
X0077292Y0150445D02*
X0074927Y0148080D01*
X0074148Y0148859D01*
X0076513Y0151224D01*
X0077292Y0150445D01*
G37*
G36*
X0078684Y0149053D02*
X0076319Y0146688D01*
X0075540Y0147467D01*
X0077905Y0149832D01*
X0078684Y0149053D01*
G37*
G36*
X0080076Y0147661D02*
X0077711Y0145296D01*
X0076932Y0146075D01*
X0079297Y0148440D01*
X0080076Y0147661D01*
G37*
G36*
X0081468Y0146269D02*
X0079103Y0143904D01*
X0078324Y0144683D01*
X0080689Y0147048D01*
X0081468Y0146269D01*
G37*
G36*
X0082860Y0144877D02*
X0080495Y0142512D01*
X0079716Y0143291D01*
X0082081Y0145656D01*
X0082860Y0144877D01*
G37*
G36*
X0084252Y0143485D02*
X0081887Y0141120D01*
X0081108Y0141899D01*
X0083473Y0144264D01*
X0084252Y0143485D01*
G37*
G36*
X0087649Y0141120D02*
X0085284Y0143485D01*
X0086063Y0144264D01*
X0088428Y0141899D01*
X0087649Y0141120D01*
G37*
G36*
X0089041Y0142512D02*
X0086676Y0144877D01*
X0087455Y0145656D01*
X0089820Y0143291D01*
X0089041Y0142512D01*
G37*
G36*
X0090433Y0143904D02*
X0088068Y0146269D01*
X0088847Y0147048D01*
X0091212Y0144683D01*
X0090433Y0143904D01*
G37*
G36*
X0091824Y0145296D02*
X0089459Y0147661D01*
X0090238Y0148440D01*
X0092603Y0146075D01*
X0091824Y0145296D01*
G37*
G36*
X0093216Y0146688D02*
X0090851Y0149053D01*
X0091630Y0149832D01*
X0093995Y0147467D01*
X0093216Y0146688D01*
G37*
G36*
X0094608Y0148080D02*
X0092243Y0150445D01*
X0093022Y0151224D01*
X0095387Y0148859D01*
X0094608Y0148080D01*
G37*
G36*
X0096000Y0149472D02*
X0093635Y0151837D01*
X0094414Y0152616D01*
X0096779Y0150251D01*
X0096000Y0149472D01*
G37*
G36*
X0097392Y0150864D02*
X0095027Y0153229D01*
X0095806Y0154008D01*
X0098171Y0151643D01*
X0097392Y0150864D01*
G37*
G36*
X0098784Y0152256D02*
X0096419Y0154621D01*
X0097198Y0155400D01*
X0099563Y0153035D01*
X0098784Y0152256D01*
G37*
G36*
X0100176Y0153648D02*
X0097811Y0156013D01*
X0098590Y0156792D01*
X0100955Y0154427D01*
X0100176Y0153648D01*
G37*
G36*
X0097811Y0158602D02*
X0100176Y0160967D01*
X0100955Y0160188D01*
X0098590Y0157823D01*
X0097811Y0158602D01*
G37*
G36*
X0096419Y0159994D02*
X0098784Y0162359D01*
X0099563Y0161580D01*
X0097198Y0159215D01*
X0096419Y0159994D01*
G37*
G36*
X0095027Y0161386D02*
X0097392Y0163751D01*
X0098171Y0162972D01*
X0095806Y0160607D01*
X0095027Y0161386D01*
G37*
G36*
X0093635Y0162778D02*
X0096000Y0165143D01*
X0096779Y0164364D01*
X0094414Y0161999D01*
X0093635Y0162778D01*
G37*
G36*
X0092243Y0164170D02*
X0094608Y0166535D01*
X0095387Y0165756D01*
X0093022Y0163391D01*
X0092243Y0164170D01*
G37*
G36*
X0090851Y0165562D02*
X0093216Y0167927D01*
X0093995Y0167148D01*
X0091630Y0164783D01*
X0090851Y0165562D01*
G37*
G36*
X0089459Y0166954D02*
X0091824Y0169319D01*
X0092603Y0168540D01*
X0090238Y0166175D01*
X0089459Y0166954D01*
G37*
G36*
X0088068Y0168346D02*
X0090433Y0170711D01*
X0091212Y0169932D01*
X0088847Y0167567D01*
X0088068Y0168346D01*
G37*
G36*
X0086676Y0169738D02*
X0089041Y0172103D01*
X0089820Y0171324D01*
X0087455Y0168959D01*
X0086676Y0169738D01*
G37*
G36*
X0085284Y0171130D02*
X0087649Y0173495D01*
X0088428Y0172716D01*
X0086063Y0170351D01*
X0085284Y0171130D01*
G37*
G36*
X0081887Y0173495D02*
X0084252Y0171130D01*
X0083473Y0170351D01*
X0081108Y0172716D01*
X0081887Y0173495D01*
G37*
G36*
X0080495Y0172103D02*
X0082860Y0169738D01*
X0082081Y0168959D01*
X0079716Y0171324D01*
X0080495Y0172103D01*
G37*
G36*
X0079103Y0170711D02*
X0081468Y0168346D01*
X0080689Y0167567D01*
X0078324Y0169932D01*
X0079103Y0170711D01*
G37*
G36*
X0077711Y0169319D02*
X0080076Y0166954D01*
X0079297Y0166175D01*
X0076932Y0168540D01*
X0077711Y0169319D01*
G37*
G36*
X0076319Y0167927D02*
X0078684Y0165562D01*
X0077905Y0164783D01*
X0075540Y0167148D01*
X0076319Y0167927D01*
G37*
G36*
X0074927Y0166535D02*
X0077292Y0164170D01*
X0076513Y0163391D01*
X0074148Y0165756D01*
X0074927Y0166535D01*
G37*
G36*
X0073535Y0165143D02*
X0075900Y0162778D01*
X0075121Y0161999D01*
X0072756Y0164364D01*
X0073535Y0165143D01*
G37*
G36*
X0072143Y0163751D02*
X0074508Y0161386D01*
X0073729Y0160607D01*
X0071364Y0162972D01*
X0072143Y0163751D01*
G37*
G36*
X0070751Y0162359D02*
X0073116Y0159994D01*
X0072337Y0159215D01*
X0069972Y0161580D01*
X0070751Y0162359D01*
G37*
G36*
X0069359Y0160967D02*
X0071724Y0158602D01*
X0070945Y0157823D01*
X0068580Y0160188D01*
X0069359Y0160967D01*
G37*
G36*
X0071724Y0156013D02*
X0069359Y0153648D01*
X0068580Y0154427D01*
X0070945Y0156792D01*
X0071724Y0156013D01*
G37*
G36*
X0073116Y0154621D02*
X0070751Y0152256D01*
X0069972Y0153035D01*
X0072337Y0155400D01*
X0073116Y0154621D01*
G37*
G36*
X0074508Y0153229D02*
X0072143Y0150864D01*
X0071364Y0151643D01*
X0073729Y0154008D01*
X0074508Y0153229D01*
G37*
G36*
X0075900Y0151837D02*
X0073535Y0149472D01*
X0072756Y0150251D01*
X0075121Y0152616D01*
X0075900Y0151837D01*
G37*
D39*
X0290870Y0313115D03*
X0292839Y0313115D03*
X0294807Y0313115D03*
X0296776Y0313115D03*
X0298744Y0313115D03*
X0300713Y0313115D03*
X0302681Y0313115D03*
X0304650Y0313115D03*
X0306618Y0313115D03*
X0308587Y0313115D03*
X0310555Y0313115D03*
X0310555Y0324532D03*
X0308587Y0324532D03*
X0306618Y0324532D03*
X0304650Y0324532D03*
X0302681Y0324532D03*
X0300713Y0324532D03*
X0298744Y0324532D03*
X0296776Y0324532D03*
X0294807Y0324532D03*
X0292839Y0324532D03*
X0290870Y0324532D03*
D40*
X0294807Y0318823D03*
X0306717Y0318823D03*
D41*
X0300713Y0318823D03*
D42*
X0308783Y0283981D03*
X0291461Y0283981D03*
D43*
X0319512Y0279748D03*
X0319512Y0268725D03*
D44*
X0318626Y0291953D03*
X0318626Y0299433D03*
X0309965Y0295693D03*
X0239689Y0354748D03*
X0239689Y0362229D03*
X0231028Y0358489D03*
X0106618Y0343430D03*
X0097957Y0347170D03*
X0097957Y0339689D03*
D45*
G36*
X0165714Y0322050D02*
X0163487Y0319823D01*
X0161260Y0322050D01*
X0163487Y0324277D01*
X0165714Y0322050D01*
G37*
G36*
X0169890Y0326226D02*
X0167663Y0323999D01*
X0165436Y0326226D01*
X0167663Y0328453D01*
X0169890Y0326226D01*
G37*
D46*
X0225319Y0344807D03*
X0233193Y0341067D03*
X0233193Y0348548D03*
D47*
X0214689Y0351500D03*
X0207209Y0351500D03*
X0210949Y0342839D03*
D48*
X0209768Y0369611D03*
X0220791Y0369611D03*
D49*
X0250713Y0375910D03*
X0264098Y0375910D03*
X0264098Y0354059D03*
X0250713Y0354059D03*
D50*
X0154059Y0354453D03*
D51*
X0149059Y0359453D03*
X0149059Y0349453D03*
X0159059Y0349453D03*
X0159059Y0359453D03*
D52*
X0157012Y0359768D03*
X0155043Y0359768D03*
X0153075Y0359768D03*
X0151106Y0359768D03*
X0151106Y0349138D03*
X0153075Y0349138D03*
X0155043Y0349138D03*
X0157012Y0349138D03*
D53*
X0159374Y0351500D03*
X0159374Y0353469D03*
X0159374Y0355437D03*
X0159374Y0357406D03*
X0148744Y0357406D03*
X0148744Y0355437D03*
X0148744Y0353469D03*
X0148744Y0351500D03*
D54*
X0157701Y0366756D03*
X0165575Y0366756D03*
D55*
X0305634Y0250122D03*
X0305634Y0248548D03*
X0305634Y0246973D03*
X0305634Y0245398D03*
X0305634Y0243823D03*
X0312720Y0243823D03*
X0312720Y0245398D03*
X0312720Y0246973D03*
X0312720Y0248548D03*
X0312720Y0250122D03*
M02*
