%
M48
M72
T01C0.01575
T02C0.02362
T03C0.03150
T04C0.03200
T05C0.03543
T06C0.03937
T07C0.04000
%
T01
X84768Y157307
X81984Y154524
X81984Y160091
X87552Y154524
X87552Y160091
T02
X304846Y318823
X296579Y318823
X309079Y318823
X292248Y318823
X188311Y304158
X188311Y266363
X199630Y335260
X179354Y335260
X127287Y346382
X112228Y360851
X94906Y373941
X98941Y297268
X116756Y287229
X111047Y267347
X137228Y320300
X124827Y329158
X72858Y288311
X73843Y264296
X121972Y256126
X71185Y224729
X183094Y228370
X73055Y180536
X111047Y220201
X155142Y157111
X325713Y158685
X257307Y209079
X326598Y235162
X329354Y219118
X291854Y224335
X298646Y240674
X292642Y265280
X310358Y265280
X280929Y283292
X250024Y284178
X251205Y224335
X216953Y204847
X247760Y342642
X243921Y367937
X272366Y365477
X273646Y341067
X293232Y351697
X314197Y375122
X279453Y317347
X220594Y341166
X251008Y324926
X200614Y352288
X144413Y279748
X123055Y192544
X190083Y205930
X127386Y239394
X141657Y260654
X158390Y188311
X159177Y331323
X130240Y274040
X291480Y184276
X163016Y194217
X151795Y331126
X162130Y265772
X152091Y274827
X302287Y251304
X327386Y360162
X326894Y167052
X231323Y188213
X151008Y252878
X146087Y237426
X201697Y184768
X159817Y258243
X164787Y201107
X110457Y198055
X62917Y154453
X114984Y192248
X163803Y309178
X106224Y255536
X314787Y146678
X285555Y146185
X255732Y146973
X227189Y148941
X198154Y150024
X139984Y153272
X119315Y155142
X112917Y159178
X98252Y171776
X314098Y74532
X285161Y74532
X256815Y74532
X226697Y74532
X198744Y74532
X169413Y74532
X140673Y74532
X110949Y74532
X82012Y74532
X52878Y74532
X22563Y74532
X110457Y133981
X140083Y133981
X168823Y133882
X198252Y133882
X227189Y133882
X255535Y133981
X285063Y133882
X314295Y133882
X81323Y133587
X23252Y133882
X52189Y133882
X51992Y101402
X110555Y101500
X140083Y101402
X81323Y101304
X168626Y101402
X198252Y101500
X227189Y101402
X256421Y101402
X285654Y101500
X22957Y101402
X95693Y132406
X95693Y105536
X314197Y101500
X22957Y47563
X52091Y47563
X81028Y47563
X110161Y47563
X139492Y47563
X168035Y47563
X197169Y47563
X226697Y47563
X255634Y47563
X284965Y47563
X314098Y47563
X37425Y47563
X37425Y139886
X37524Y20595
X86146Y20595
X125319Y20595
X163705Y20792
X212327Y20595
X256028Y20595
X299531Y20595
X66461Y133882
X66559Y20595
X168823Y151993
X104059Y169906
X262917Y214591
X294709Y246973
X304748Y306815
X313902Y313115
X309472Y301697
X277878Y295693
X301598Y301894
X278075Y301894
X319217Y287819
X304157Y331914
X225319Y349532
X220496Y349532
X214689Y185063
X188311Y316363
X110161Y328764
X262228Y358489
X206913Y342248
X238508Y334670
X231913Y334670
X194906Y358981
X145594Y342937
X317248Y222563
X323154Y228075
T03
X97465Y194807
X316165Y350319
X299827Y354552
X313902Y324827
X319807Y324827
T04
X100988Y359768
X90988Y359768
T05
X251500Y364985
X263311Y364985
X189689Y239591
T06
X302878Y176894
X302878Y166894
X292878Y176894
X292878Y166894
X282878Y176894
X282878Y166894
X272878Y176894
X272878Y166894
X262878Y176894
X262878Y166894
X252878Y176894
X252878Y166894
X242878Y176894
X242878Y166894
X232878Y176894
X232878Y166894
X222878Y176894
X222878Y166894
X212878Y176894
X212878Y166894
X202878Y176894
X202878Y166894
X192878Y176894
X192878Y166894
X182878Y176894
X182878Y166894
X172878Y176894
X172878Y166894
X162878Y176894
X162878Y166894
X152878Y176894
X152878Y166894
X142878Y176894
X142878Y166894
X132878Y176894
X132878Y166894
X122878Y176894
X122878Y166894
X112878Y176894
X112878Y166894
X86638Y271284
X86638Y289591
X324827Y306126
X324827Y298843
T07
X260555Y302701
X260555Y312701
X326894Y190319
X326894Y200319
X326894Y210319
X173547Y359571
M30
