G75*
%MOIN*%
%OFA0B0*%
%FSLAX25Y25*%
%IPPOS*%
%LPD*%
%AMOC8*
5,1,8,0,0,1.08239X$1,22.5*
%
%ADD10C,0.03575*%
%ADD11R,0.05906X0.03937*%
%ADD12R,0.03346X0.01102*%
%ADD13R,0.01102X0.03346*%
%ADD14R,0.13780X0.10630*%
%ADD15C,0.05937*%
%ADD16C,0.01000*%
%ADD17C,0.05315*%
%ADD18C,0.01600*%
%ADD19C,0.01200*%
%ADD20C,0.02400*%
D10*
X0303461Y0125508D03*
X0307398Y0125508D03*
X0311335Y0125508D03*
X0307398Y0129445D03*
X0307398Y0121571D03*
D11*
X0310941Y0122949D03*
X0310941Y0128067D03*
X0303854Y0128067D03*
X0303854Y0122949D03*
D12*
X0295587Y0122555D03*
X0295587Y0120587D03*
X0295587Y0118618D03*
X0295587Y0116650D03*
X0295587Y0124524D03*
X0295587Y0126492D03*
X0295587Y0128461D03*
X0295587Y0130429D03*
X0295587Y0132398D03*
X0295587Y0134366D03*
X0319209Y0134366D03*
X0319209Y0132398D03*
X0319209Y0130429D03*
X0319209Y0128461D03*
X0319209Y0126492D03*
X0319209Y0124524D03*
X0319209Y0122555D03*
X0319209Y0120587D03*
X0319209Y0118618D03*
X0319209Y0116650D03*
D13*
X0316256Y0113697D03*
X0314287Y0113697D03*
X0312319Y0113697D03*
X0310350Y0113697D03*
X0308382Y0113697D03*
X0306413Y0113697D03*
X0304445Y0113697D03*
X0302476Y0113697D03*
X0300508Y0113697D03*
X0298539Y0113697D03*
X0298539Y0137319D03*
X0300508Y0137319D03*
X0302476Y0137319D03*
X0304445Y0137319D03*
X0306413Y0137319D03*
X0308382Y0137319D03*
X0310350Y0137319D03*
X0312319Y0137319D03*
X0314287Y0137319D03*
X0316256Y0137319D03*
D14*
X0307398Y0125508D03*
D15*
X0310252Y0174268D03*
X0310252Y0184268D03*
X0300252Y0184268D03*
X0300252Y0174268D03*
X0290252Y0174268D03*
X0290252Y0184268D03*
X0280252Y0184268D03*
X0280252Y0174268D03*
X0270252Y0174268D03*
X0270252Y0184268D03*
X0260252Y0184268D03*
X0250252Y0184268D03*
X0250252Y0174268D03*
X0260252Y0174268D03*
X0240252Y0174268D03*
X0240252Y0184268D03*
X0230252Y0184268D03*
X0230252Y0174268D03*
X0220252Y0174268D03*
X0220252Y0184268D03*
X0210252Y0184268D03*
X0210252Y0174268D03*
X0200252Y0174268D03*
X0200252Y0184268D03*
X0190252Y0184268D03*
X0180252Y0184268D03*
X0180252Y0174268D03*
X0190252Y0174268D03*
X0170252Y0174268D03*
X0170252Y0184268D03*
X0160252Y0184268D03*
X0160252Y0174268D03*
X0150252Y0174268D03*
X0150252Y0184268D03*
X0140252Y0184268D03*
X0140252Y0174268D03*
X0130252Y0174268D03*
X0130252Y0184268D03*
X0120252Y0184268D03*
X0120252Y0174268D03*
D16*
X0011498Y0016004D02*
X0013394Y0013394D01*
X0016004Y0011498D01*
X0019072Y0010501D01*
X0020685Y0010374D01*
X0331709Y0010374D01*
X0333322Y0010501D01*
X0336390Y0011498D01*
X0339000Y0013394D01*
X0340896Y0016004D01*
X0341893Y0019072D01*
X0342020Y0020685D01*
X0342020Y0129939D01*
X0340953Y0128873D01*
X0339425Y0128240D01*
X0338990Y0128240D01*
X0340402Y0126828D01*
X0340402Y0058105D01*
X0339230Y0056933D01*
X0339230Y0056933D01*
X0311063Y0028766D01*
X0311063Y0027142D01*
X0310430Y0025613D01*
X0309261Y0024444D01*
X0307732Y0023811D01*
X0306079Y0023811D01*
X0304550Y0024444D01*
X0303726Y0025269D01*
X0266581Y0025269D01*
X0265757Y0024444D01*
X0264229Y0023811D01*
X0262575Y0023811D01*
X0261047Y0024444D01*
X0260222Y0025269D01*
X0222880Y0025269D01*
X0222056Y0024444D01*
X0220528Y0023811D01*
X0218874Y0023811D01*
X0217346Y0024444D01*
X0216521Y0025269D01*
X0174061Y0025269D01*
X0173434Y0024641D01*
X0171906Y0024008D01*
X0170252Y0024008D01*
X0168724Y0024641D01*
X0168096Y0025269D01*
X0135872Y0025269D01*
X0135048Y0024444D01*
X0133520Y0023811D01*
X0131866Y0023811D01*
X0130338Y0024444D01*
X0129513Y0025269D01*
X0096699Y0025269D01*
X0095875Y0024444D01*
X0094347Y0023811D01*
X0092693Y0023811D01*
X0091165Y0024444D01*
X0090340Y0025269D01*
X0048077Y0025269D01*
X0047253Y0024444D01*
X0045725Y0023811D01*
X0044071Y0023811D01*
X0042543Y0024444D01*
X0041373Y0025613D01*
X0040740Y0027142D01*
X0040740Y0028795D01*
X0041373Y0030324D01*
X0042543Y0031493D01*
X0044071Y0032126D01*
X0045725Y0032126D01*
X0047253Y0031493D01*
X0048077Y0030668D01*
X0090340Y0030668D01*
X0091165Y0031493D01*
X0092693Y0032126D01*
X0094347Y0032126D01*
X0095875Y0031493D01*
X0096699Y0030668D01*
X0129513Y0030668D01*
X0130338Y0031493D01*
X0131866Y0032126D01*
X0133520Y0032126D01*
X0135048Y0031493D01*
X0135872Y0030668D01*
X0167702Y0030668D01*
X0168724Y0031690D01*
X0170252Y0032323D01*
X0171906Y0032323D01*
X0173434Y0031690D01*
X0174455Y0030668D01*
X0216521Y0030668D01*
X0217346Y0031493D01*
X0218874Y0032126D01*
X0220528Y0032126D01*
X0222056Y0031493D01*
X0222880Y0030668D01*
X0260222Y0030668D01*
X0261047Y0031493D01*
X0262575Y0032126D01*
X0264229Y0032126D01*
X0265757Y0031493D01*
X0266581Y0030668D01*
X0303726Y0030668D01*
X0304550Y0031493D01*
X0306079Y0032126D01*
X0307732Y0032126D01*
X0308463Y0031823D01*
X0336402Y0059761D01*
X0336402Y0067038D01*
X0325483Y0056119D01*
X0325630Y0055764D01*
X0325630Y0054110D01*
X0324997Y0052582D01*
X0323827Y0051412D01*
X0322299Y0050780D01*
X0320645Y0050780D01*
X0319117Y0051412D01*
X0318293Y0052237D01*
X0295518Y0052237D01*
X0294694Y0051412D01*
X0293166Y0050780D01*
X0291512Y0050780D01*
X0289984Y0051412D01*
X0289159Y0052237D01*
X0266187Y0052237D01*
X0265363Y0051412D01*
X0263835Y0050780D01*
X0262181Y0050780D01*
X0260653Y0051412D01*
X0259828Y0052237D01*
X0237250Y0052237D01*
X0236426Y0051412D01*
X0234898Y0050780D01*
X0233244Y0050780D01*
X0231716Y0051412D01*
X0230891Y0052237D01*
X0207723Y0052237D01*
X0206898Y0051412D01*
X0205370Y0050780D01*
X0203716Y0050780D01*
X0202188Y0051412D01*
X0201364Y0052237D01*
X0178589Y0052237D01*
X0177764Y0051412D01*
X0176236Y0050780D01*
X0174582Y0050780D01*
X0173054Y0051412D01*
X0172230Y0052237D01*
X0150046Y0052237D01*
X0149221Y0051412D01*
X0147693Y0050780D01*
X0146039Y0050780D01*
X0144511Y0051412D01*
X0143687Y0052237D01*
X0120715Y0052237D01*
X0119890Y0051412D01*
X0118362Y0050780D01*
X0116708Y0050780D01*
X0115180Y0051412D01*
X0114356Y0052237D01*
X0091581Y0052237D01*
X0090757Y0051412D01*
X0089229Y0050780D01*
X0087575Y0050780D01*
X0086047Y0051412D01*
X0085222Y0052237D01*
X0062644Y0052237D01*
X0061820Y0051412D01*
X0060292Y0050780D01*
X0058638Y0050780D01*
X0057110Y0051412D01*
X0056285Y0052237D01*
X0033510Y0052237D01*
X0032686Y0051412D01*
X0031158Y0050780D01*
X0029504Y0050780D01*
X0027976Y0051412D01*
X0026806Y0052582D01*
X0026173Y0054110D01*
X0026173Y0055764D01*
X0026806Y0057292D01*
X0027976Y0058462D01*
X0029504Y0059094D01*
X0031158Y0059094D01*
X0032686Y0058462D01*
X0033510Y0057637D01*
X0056285Y0057637D01*
X0057110Y0058462D01*
X0058638Y0059094D01*
X0060292Y0059094D01*
X0061820Y0058462D01*
X0062644Y0057637D01*
X0085222Y0057637D01*
X0086047Y0058462D01*
X0087575Y0059094D01*
X0089229Y0059094D01*
X0090757Y0058462D01*
X0091581Y0057637D01*
X0114356Y0057637D01*
X0115180Y0058462D01*
X0116708Y0059094D01*
X0118362Y0059094D01*
X0119890Y0058462D01*
X0120715Y0057637D01*
X0143687Y0057637D01*
X0144511Y0058462D01*
X0146039Y0059094D01*
X0147693Y0059094D01*
X0149221Y0058462D01*
X0150046Y0057637D01*
X0172230Y0057637D01*
X0173054Y0058462D01*
X0174582Y0059094D01*
X0176236Y0059094D01*
X0177764Y0058462D01*
X0178589Y0057637D01*
X0201364Y0057637D01*
X0202188Y0058462D01*
X0203716Y0059094D01*
X0205370Y0059094D01*
X0206898Y0058462D01*
X0207723Y0057637D01*
X0230891Y0057637D01*
X0231716Y0058462D01*
X0233244Y0059094D01*
X0234898Y0059094D01*
X0236426Y0058462D01*
X0237250Y0057637D01*
X0259828Y0057637D01*
X0260653Y0058462D01*
X0262181Y0059094D01*
X0263835Y0059094D01*
X0265363Y0058462D01*
X0266187Y0057637D01*
X0289159Y0057637D01*
X0289984Y0058462D01*
X0291512Y0059094D01*
X0293166Y0059094D01*
X0294694Y0058462D01*
X0295518Y0057637D01*
X0318293Y0057637D01*
X0319117Y0058462D01*
X0320645Y0059094D01*
X0322299Y0059094D01*
X0322654Y0058947D01*
X0334630Y0070923D01*
X0334630Y0085837D01*
X0329870Y0081077D01*
X0328698Y0079906D01*
X0325144Y0079906D01*
X0324997Y0079550D01*
X0323827Y0078381D01*
X0322299Y0077748D01*
X0320645Y0077748D01*
X0319117Y0078381D01*
X0318293Y0079206D01*
X0295715Y0079206D01*
X0294890Y0078381D01*
X0293362Y0077748D01*
X0291708Y0077748D01*
X0290180Y0078381D01*
X0289356Y0079206D01*
X0267369Y0079206D01*
X0266544Y0078381D01*
X0265016Y0077748D01*
X0263362Y0077748D01*
X0261834Y0078381D01*
X0261009Y0079206D01*
X0237250Y0079206D01*
X0236426Y0078381D01*
X0234898Y0077748D01*
X0233244Y0077748D01*
X0231716Y0078381D01*
X0230891Y0079206D01*
X0209298Y0079206D01*
X0208473Y0078381D01*
X0206945Y0077748D01*
X0205291Y0077748D01*
X0203763Y0078381D01*
X0202939Y0079206D01*
X0179967Y0079206D01*
X0179142Y0078381D01*
X0177614Y0077748D01*
X0175960Y0077748D01*
X0174432Y0078381D01*
X0173608Y0079206D01*
X0151227Y0079206D01*
X0150402Y0078381D01*
X0148874Y0077748D01*
X0147220Y0077748D01*
X0145692Y0078381D01*
X0144868Y0079206D01*
X0121502Y0079206D01*
X0120678Y0078381D01*
X0119150Y0077748D01*
X0117496Y0077748D01*
X0115968Y0078381D01*
X0115143Y0079206D01*
X0092565Y0079206D01*
X0091741Y0078381D01*
X0090213Y0077748D01*
X0088559Y0077748D01*
X0087031Y0078381D01*
X0086206Y0079206D01*
X0063432Y0079206D01*
X0062607Y0078381D01*
X0061079Y0077748D01*
X0059425Y0077748D01*
X0057897Y0078381D01*
X0057072Y0079206D01*
X0033117Y0079206D01*
X0032292Y0078381D01*
X0030764Y0077748D01*
X0029110Y0077748D01*
X0027582Y0078381D01*
X0026412Y0079550D01*
X0025780Y0081079D01*
X0025780Y0082732D01*
X0026412Y0084261D01*
X0027582Y0085430D01*
X0029110Y0086063D01*
X0030764Y0086063D01*
X0032292Y0085430D01*
X0033117Y0084605D01*
X0057072Y0084605D01*
X0057897Y0085430D01*
X0059425Y0086063D01*
X0061079Y0086063D01*
X0062607Y0085430D01*
X0063432Y0084605D01*
X0086206Y0084605D01*
X0087031Y0085430D01*
X0088559Y0086063D01*
X0090213Y0086063D01*
X0091741Y0085430D01*
X0092565Y0084605D01*
X0115143Y0084605D01*
X0115968Y0085430D01*
X0117496Y0086063D01*
X0119150Y0086063D01*
X0120678Y0085430D01*
X0121502Y0084605D01*
X0144868Y0084605D01*
X0145692Y0085430D01*
X0147220Y0086063D01*
X0148874Y0086063D01*
X0150402Y0085430D01*
X0151227Y0084605D01*
X0173608Y0084605D01*
X0174432Y0085430D01*
X0175960Y0086063D01*
X0177614Y0086063D01*
X0179142Y0085430D01*
X0179967Y0084605D01*
X0202939Y0084605D01*
X0203763Y0085430D01*
X0205291Y0086063D01*
X0206945Y0086063D01*
X0208473Y0085430D01*
X0209298Y0084605D01*
X0230891Y0084605D01*
X0231716Y0085430D01*
X0233244Y0086063D01*
X0234898Y0086063D01*
X0236426Y0085430D01*
X0237250Y0084605D01*
X0261009Y0084605D01*
X0261834Y0085430D01*
X0263362Y0086063D01*
X0265016Y0086063D01*
X0266544Y0085430D01*
X0267369Y0084605D01*
X0289356Y0084605D01*
X0290180Y0085430D01*
X0291708Y0086063D01*
X0293362Y0086063D01*
X0294890Y0085430D01*
X0295715Y0084605D01*
X0318293Y0084605D01*
X0319117Y0085430D01*
X0320645Y0086063D01*
X0322299Y0086063D01*
X0323827Y0085430D01*
X0324997Y0084261D01*
X0325144Y0083905D01*
X0327042Y0083905D01*
X0332858Y0089722D01*
X0332858Y0122809D01*
X0332476Y0123191D01*
X0332520Y0123087D01*
X0332520Y0121433D01*
X0331887Y0119905D01*
X0330717Y0118735D01*
X0329189Y0118102D01*
X0327535Y0118102D01*
X0327480Y0118125D01*
X0326657Y0117302D01*
X0325052Y0117302D01*
X0324368Y0116618D01*
X0322382Y0116618D01*
X0322382Y0115477D01*
X0321503Y0114598D01*
X0318307Y0114598D01*
X0318307Y0113697D01*
X0316339Y0113697D01*
X0316339Y0113697D01*
X0318307Y0113697D01*
X0318307Y0111826D01*
X0318205Y0111445D01*
X0318127Y0111310D01*
X0319216Y0112399D01*
X0320744Y0113031D01*
X0322398Y0113031D01*
X0323926Y0112399D01*
X0325095Y0111229D01*
X0325728Y0109701D01*
X0325728Y0108047D01*
X0325095Y0106519D01*
X0323926Y0105349D01*
X0323016Y0104973D01*
X0329223Y0098765D01*
X0329339Y0098717D01*
X0330509Y0097548D01*
X0331142Y0096020D01*
X0331142Y0094366D01*
X0330509Y0092838D01*
X0329339Y0091668D01*
X0327811Y0091035D01*
X0326157Y0091035D01*
X0324629Y0091668D01*
X0323460Y0092838D01*
X0322827Y0094366D01*
X0322827Y0096020D01*
X0323460Y0097548D01*
X0323698Y0097786D01*
X0318158Y0103326D01*
X0296602Y0103326D01*
X0295255Y0104673D01*
X0294814Y0105114D01*
X0293855Y0104717D01*
X0292201Y0104717D01*
X0292076Y0104768D01*
X0290702Y0103394D01*
X0289354Y0102046D01*
X0267272Y0102046D01*
X0264677Y0104641D01*
X0264622Y0104618D01*
X0262968Y0104618D01*
X0262913Y0104641D01*
X0259335Y0101062D01*
X0239024Y0101062D01*
X0237676Y0102410D01*
X0235445Y0104641D01*
X0235390Y0104618D01*
X0233736Y0104618D01*
X0232208Y0105251D01*
X0231038Y0106421D01*
X0231012Y0106485D01*
X0209168Y0106562D01*
X0209151Y0106519D01*
X0207981Y0105349D01*
X0206453Y0104717D01*
X0204799Y0104717D01*
X0203271Y0105349D01*
X0202101Y0106519D01*
X0202083Y0106563D01*
X0179552Y0106487D01*
X0179525Y0106421D01*
X0178355Y0105251D01*
X0176827Y0104618D01*
X0175173Y0104618D01*
X0173645Y0105251D01*
X0172475Y0106421D01*
X0172453Y0106476D01*
X0151004Y0106476D01*
X0150981Y0106421D01*
X0149812Y0105251D01*
X0148284Y0104618D01*
X0146630Y0104618D01*
X0145102Y0105251D01*
X0143932Y0106421D01*
X0143909Y0106476D01*
X0121410Y0106476D01*
X0120284Y0105349D01*
X0118756Y0104717D01*
X0117102Y0104717D01*
X0115574Y0105349D01*
X0114546Y0106377D01*
X0092244Y0106377D01*
X0092221Y0106322D01*
X0091052Y0105153D01*
X0089524Y0104520D01*
X0087870Y0104520D01*
X0086342Y0105153D01*
X0085172Y0106322D01*
X0085150Y0106377D01*
X0062847Y0106377D01*
X0061721Y0105251D01*
X0060193Y0104618D01*
X0058539Y0104618D01*
X0057011Y0105251D01*
X0055842Y0106421D01*
X0055819Y0106476D01*
X0033878Y0106476D01*
X0033855Y0106421D01*
X0032686Y0105251D01*
X0031158Y0104618D01*
X0029504Y0104618D01*
X0027976Y0105251D01*
X0026806Y0106421D01*
X0026173Y0107949D01*
X0026173Y0109603D01*
X0026806Y0111131D01*
X0027976Y0112300D01*
X0029504Y0112933D01*
X0031158Y0112933D01*
X0032686Y0112300D01*
X0033855Y0111131D01*
X0033878Y0111076D01*
X0055819Y0111076D01*
X0055842Y0111131D01*
X0057011Y0112300D01*
X0058539Y0112933D01*
X0060193Y0112933D01*
X0061721Y0112300D01*
X0062891Y0111131D01*
X0062954Y0110977D01*
X0085150Y0110977D01*
X0085172Y0111032D01*
X0086342Y0112202D01*
X0087870Y0112835D01*
X0089524Y0112835D01*
X0091052Y0112202D01*
X0092221Y0111032D01*
X0092244Y0110977D01*
X0114300Y0110977D01*
X0114405Y0111229D01*
X0115574Y0112399D01*
X0117102Y0113031D01*
X0118756Y0113031D01*
X0120284Y0112399D01*
X0121454Y0111229D01*
X0121517Y0111076D01*
X0143909Y0111076D01*
X0143932Y0111131D01*
X0145102Y0112300D01*
X0146630Y0112933D01*
X0148284Y0112933D01*
X0149812Y0112300D01*
X0150981Y0111131D01*
X0151004Y0111076D01*
X0172453Y0111076D01*
X0172475Y0111131D01*
X0173645Y0112300D01*
X0175173Y0112933D01*
X0176827Y0112933D01*
X0178355Y0112300D01*
X0179525Y0111131D01*
X0179542Y0111087D01*
X0202074Y0111163D01*
X0202101Y0111229D01*
X0203271Y0112399D01*
X0204799Y0113031D01*
X0206453Y0113031D01*
X0207981Y0112399D01*
X0209151Y0111229D01*
X0209178Y0111162D01*
X0231020Y0111085D01*
X0231038Y0111131D01*
X0232208Y0112300D01*
X0233736Y0112933D01*
X0235390Y0112933D01*
X0236918Y0112300D01*
X0238088Y0111131D01*
X0238720Y0109603D01*
X0238720Y0107949D01*
X0238698Y0107894D01*
X0240929Y0105662D01*
X0257429Y0105662D01*
X0259661Y0107894D01*
X0259638Y0107949D01*
X0259638Y0109603D01*
X0260271Y0111131D01*
X0261440Y0112300D01*
X0262968Y0112933D01*
X0264622Y0112933D01*
X0266150Y0112300D01*
X0267320Y0111131D01*
X0267953Y0109603D01*
X0267953Y0107949D01*
X0267930Y0107894D01*
X0269177Y0106646D01*
X0287449Y0106646D01*
X0288870Y0108068D01*
X0288870Y0109701D01*
X0289503Y0111229D01*
X0289871Y0111597D01*
X0282618Y0111597D01*
X0282618Y0110016D01*
X0281985Y0108487D01*
X0280816Y0107318D01*
X0279288Y0106685D01*
X0277634Y0106685D01*
X0276106Y0107318D01*
X0274936Y0108487D01*
X0274303Y0110016D01*
X0274303Y0111669D01*
X0274936Y0113198D01*
X0276106Y0114367D01*
X0276682Y0114606D01*
X0253963Y0114553D01*
X0253646Y0114199D01*
X0253878Y0113638D01*
X0253878Y0111984D01*
X0253245Y0110456D01*
X0252075Y0109286D01*
X0250547Y0108654D01*
X0248893Y0108654D01*
X0247365Y0109286D01*
X0246196Y0110456D01*
X0245563Y0111984D01*
X0245563Y0113638D01*
X0246196Y0115166D01*
X0247365Y0116336D01*
X0248048Y0116618D01*
X0136277Y0116618D01*
X0135737Y0116078D01*
X0134209Y0115445D01*
X0132555Y0115445D01*
X0131027Y0116078D01*
X0129857Y0117247D01*
X0129224Y0118775D01*
X0129224Y0120429D01*
X0129857Y0121957D01*
X0130358Y0122458D01*
X0050156Y0122426D01*
X0050155Y0122425D01*
X0049330Y0122425D01*
X0048499Y0122425D01*
X0048499Y0122425D01*
X0048498Y0122425D01*
X0047913Y0123011D01*
X0047327Y0123596D01*
X0047327Y0123596D01*
X0039879Y0131045D01*
X0039524Y0130898D01*
X0037870Y0130898D01*
X0036342Y0131531D01*
X0035172Y0132700D01*
X0034539Y0134228D01*
X0034539Y0135882D01*
X0035172Y0137410D01*
X0036318Y0138556D01*
X0033806Y0138556D01*
X0032981Y0137731D01*
X0031453Y0137098D01*
X0029799Y0137098D01*
X0028271Y0137731D01*
X0027101Y0138901D01*
X0026469Y0140429D01*
X0026469Y0142083D01*
X0027101Y0143611D01*
X0028271Y0144780D01*
X0029799Y0145413D01*
X0031453Y0145413D01*
X0032981Y0144780D01*
X0033806Y0143956D01*
X0056383Y0143956D01*
X0057208Y0144780D01*
X0058736Y0145413D01*
X0060390Y0145413D01*
X0061632Y0144899D01*
X0063427Y0146694D01*
X0064420Y0147105D01*
X0079293Y0147105D01*
X0080285Y0146694D01*
X0081045Y0145935D01*
X0083319Y0143661D01*
X0085517Y0143661D01*
X0086342Y0144485D01*
X0087870Y0145118D01*
X0089036Y0145118D01*
X0091990Y0148072D01*
X0092983Y0148483D01*
X0107836Y0148483D01*
X0108829Y0148072D01*
X0109588Y0147313D01*
X0112927Y0143974D01*
X0114599Y0144002D01*
X0115476Y0144879D01*
X0117004Y0145512D01*
X0118658Y0145512D01*
X0119774Y0145049D01*
X0122333Y0147608D01*
X0123093Y0148368D01*
X0124085Y0148779D01*
X0143171Y0148779D01*
X0144163Y0148368D01*
X0147019Y0145512D01*
X0147796Y0145512D01*
X0150652Y0148368D01*
X0151644Y0148779D01*
X0171025Y0148779D01*
X0172018Y0148368D01*
X0172777Y0147608D01*
X0175088Y0145297D01*
X0175370Y0145413D01*
X0176536Y0145413D01*
X0180179Y0149057D01*
X0181172Y0149468D01*
X0200651Y0149468D01*
X0201644Y0149057D01*
X0202403Y0148297D01*
X0205287Y0145413D01*
X0206453Y0145413D01*
X0207981Y0144780D01*
X0208786Y0143976D01*
X0231403Y0143976D01*
X0232208Y0144780D01*
X0233736Y0145413D01*
X0235390Y0145413D01*
X0236918Y0144780D01*
X0237723Y0143976D01*
X0260635Y0143976D01*
X0261539Y0144879D01*
X0263067Y0145512D01*
X0264721Y0145512D01*
X0266249Y0144879D01*
X0267073Y0144054D01*
X0276802Y0144054D01*
X0275909Y0144424D01*
X0274739Y0145594D01*
X0274106Y0147122D01*
X0274106Y0148776D01*
X0274739Y0150304D01*
X0275909Y0151473D01*
X0275964Y0151496D01*
X0275964Y0157760D01*
X0277311Y0159107D01*
X0284070Y0165866D01*
X0284047Y0165921D01*
X0284047Y0167575D01*
X0284680Y0169103D01*
X0285850Y0170273D01*
X0287319Y0170881D01*
X0286844Y0171357D01*
X0286430Y0171926D01*
X0286111Y0172552D01*
X0285893Y0173221D01*
X0285804Y0173783D01*
X0289768Y0173783D01*
X0289768Y0174752D01*
X0289768Y0178715D01*
X0289206Y0178626D01*
X0288537Y0178409D01*
X0287910Y0178090D01*
X0287341Y0177676D01*
X0286844Y0177179D01*
X0286430Y0176610D01*
X0286111Y0175983D01*
X0285893Y0175314D01*
X0285804Y0174752D01*
X0289768Y0174752D01*
X0290736Y0174752D01*
X0290736Y0178715D01*
X0291298Y0178626D01*
X0291967Y0178409D01*
X0292594Y0178090D01*
X0293163Y0177676D01*
X0293660Y0177179D01*
X0294074Y0176610D01*
X0294393Y0175983D01*
X0294610Y0175314D01*
X0294699Y0174752D01*
X0290736Y0174752D01*
X0290736Y0173783D01*
X0294699Y0173783D01*
X0294610Y0173221D01*
X0294393Y0172552D01*
X0294074Y0171926D01*
X0293660Y0171357D01*
X0293163Y0170859D01*
X0292594Y0170446D01*
X0291967Y0170127D01*
X0291298Y0169909D01*
X0290974Y0169858D01*
X0291729Y0169103D01*
X0291991Y0168472D01*
X0292401Y0168882D01*
X0293748Y0170229D01*
X0298325Y0170229D01*
X0297721Y0170480D01*
X0296464Y0171737D01*
X0295783Y0173379D01*
X0295783Y0175157D01*
X0296464Y0176799D01*
X0297721Y0178056D01*
X0299363Y0178736D01*
X0301141Y0178736D01*
X0302783Y0178056D01*
X0304040Y0176799D01*
X0304720Y0175157D01*
X0304720Y0173379D01*
X0304040Y0171737D01*
X0302783Y0170480D01*
X0302179Y0170229D01*
X0308325Y0170229D01*
X0307721Y0170480D01*
X0306464Y0171737D01*
X0305783Y0173379D01*
X0305783Y0175157D01*
X0306464Y0176799D01*
X0307721Y0178056D01*
X0309363Y0178736D01*
X0311141Y0178736D01*
X0312783Y0178056D01*
X0314040Y0176799D01*
X0314720Y0175157D01*
X0314720Y0173379D01*
X0314040Y0171737D01*
X0312783Y0170480D01*
X0312179Y0170229D01*
X0318488Y0170229D01*
X0322720Y0165997D01*
X0322720Y0165997D01*
X0324068Y0164650D01*
X0324068Y0145492D01*
X0324123Y0145469D01*
X0325292Y0144300D01*
X0325925Y0142772D01*
X0325925Y0141118D01*
X0325292Y0139590D01*
X0325021Y0139319D01*
X0332959Y0139319D01*
X0332967Y0139327D01*
X0333786Y0139319D01*
X0334604Y0139319D01*
X0334612Y0139311D01*
X0334624Y0139310D01*
X0335197Y0138725D01*
X0335776Y0138147D01*
X0335776Y0138136D01*
X0337453Y0136423D01*
X0337771Y0136555D01*
X0339425Y0136555D01*
X0340953Y0135922D01*
X0342020Y0134856D01*
X0342020Y0373835D01*
X0341921Y0375335D01*
X0341145Y0378232D01*
X0339645Y0380831D01*
X0337524Y0382952D01*
X0334925Y0384452D01*
X0332028Y0385228D01*
X0330528Y0385327D01*
X0093525Y0385327D01*
X0093048Y0385280D01*
X0092168Y0384915D01*
X0091494Y0384242D01*
X0091130Y0383361D01*
X0091083Y0382885D01*
X0091083Y0307005D01*
X0090255Y0305007D01*
X0090255Y0305007D01*
X0088725Y0303477D01*
X0088725Y0303477D01*
X0086727Y0302650D01*
X0077777Y0302650D01*
X0077300Y0302603D01*
X0076420Y0302238D01*
X0075746Y0301564D01*
X0075382Y0300684D01*
X0075335Y0300208D01*
X0075335Y0171639D01*
X0074456Y0170760D01*
X0012816Y0170760D01*
X0012340Y0170713D01*
X0011459Y0170348D01*
X0010786Y0169675D01*
X0010421Y0168794D01*
X0010374Y0168318D01*
X0010374Y0020685D01*
X0010501Y0019072D01*
X0011498Y0016004D01*
X0011600Y0015864D02*
X0340794Y0015864D01*
X0341175Y0016862D02*
X0011219Y0016862D01*
X0010895Y0017861D02*
X0341499Y0017861D01*
X0341824Y0018859D02*
X0010570Y0018859D01*
X0010439Y0019858D02*
X0341955Y0019858D01*
X0342020Y0020856D02*
X0010374Y0020856D01*
X0010374Y0021855D02*
X0342020Y0021855D01*
X0342020Y0022853D02*
X0010374Y0022853D01*
X0010374Y0023852D02*
X0043972Y0023852D01*
X0045823Y0023852D02*
X0092595Y0023852D01*
X0094445Y0023852D02*
X0131768Y0023852D01*
X0133618Y0023852D02*
X0218776Y0023852D01*
X0220626Y0023852D02*
X0262476Y0023852D01*
X0264327Y0023852D02*
X0305980Y0023852D01*
X0307831Y0023852D02*
X0342020Y0023852D01*
X0342020Y0024850D02*
X0309667Y0024850D01*
X0310527Y0025849D02*
X0342020Y0025849D01*
X0342020Y0026847D02*
X0310941Y0026847D01*
X0311063Y0027846D02*
X0342020Y0027846D01*
X0342020Y0028844D02*
X0311141Y0028844D01*
X0312140Y0029843D02*
X0342020Y0029843D01*
X0342020Y0030841D02*
X0313138Y0030841D01*
X0314137Y0031840D02*
X0342020Y0031840D01*
X0342020Y0032838D02*
X0315135Y0032838D01*
X0316134Y0033837D02*
X0342020Y0033837D01*
X0342020Y0034835D02*
X0317132Y0034835D01*
X0318131Y0035834D02*
X0342020Y0035834D01*
X0342020Y0036832D02*
X0319129Y0036832D01*
X0320128Y0037831D02*
X0342020Y0037831D01*
X0342020Y0038829D02*
X0321126Y0038829D01*
X0322125Y0039828D02*
X0342020Y0039828D01*
X0342020Y0040826D02*
X0323123Y0040826D01*
X0324122Y0041825D02*
X0342020Y0041825D01*
X0342020Y0042823D02*
X0325120Y0042823D01*
X0326119Y0043822D02*
X0342020Y0043822D01*
X0342020Y0044820D02*
X0327117Y0044820D01*
X0328116Y0045819D02*
X0342020Y0045819D01*
X0342020Y0046817D02*
X0329114Y0046817D01*
X0330113Y0047816D02*
X0342020Y0047816D01*
X0342020Y0048814D02*
X0331111Y0048814D01*
X0332110Y0049813D02*
X0342020Y0049813D01*
X0342020Y0050811D02*
X0333108Y0050811D01*
X0334107Y0051810D02*
X0342020Y0051810D01*
X0342020Y0052809D02*
X0335105Y0052809D01*
X0336104Y0053807D02*
X0342020Y0053807D01*
X0342020Y0054806D02*
X0337102Y0054806D01*
X0338101Y0055804D02*
X0342020Y0055804D01*
X0342020Y0056803D02*
X0339099Y0056803D01*
X0340098Y0057801D02*
X0342020Y0057801D01*
X0342020Y0058800D02*
X0340402Y0058800D01*
X0340402Y0059798D02*
X0342020Y0059798D01*
X0342020Y0060797D02*
X0340402Y0060797D01*
X0340402Y0061795D02*
X0342020Y0061795D01*
X0342020Y0062794D02*
X0340402Y0062794D01*
X0340402Y0063792D02*
X0342020Y0063792D01*
X0342020Y0064791D02*
X0340402Y0064791D01*
X0340402Y0065789D02*
X0342020Y0065789D01*
X0342020Y0066788D02*
X0340402Y0066788D01*
X0340402Y0067786D02*
X0342020Y0067786D01*
X0342020Y0068785D02*
X0340402Y0068785D01*
X0340402Y0069783D02*
X0342020Y0069783D01*
X0342020Y0070782D02*
X0340402Y0070782D01*
X0340402Y0071780D02*
X0342020Y0071780D01*
X0342020Y0072779D02*
X0340402Y0072779D01*
X0340402Y0073777D02*
X0342020Y0073777D01*
X0342020Y0074776D02*
X0340402Y0074776D01*
X0340402Y0075774D02*
X0342020Y0075774D01*
X0342020Y0076773D02*
X0340402Y0076773D01*
X0340402Y0077771D02*
X0342020Y0077771D01*
X0342020Y0078770D02*
X0340402Y0078770D01*
X0340402Y0079768D02*
X0342020Y0079768D01*
X0342020Y0080767D02*
X0340402Y0080767D01*
X0340402Y0081765D02*
X0342020Y0081765D01*
X0342020Y0082764D02*
X0340402Y0082764D01*
X0340402Y0083762D02*
X0342020Y0083762D01*
X0342020Y0084761D02*
X0340402Y0084761D01*
X0340402Y0085759D02*
X0342020Y0085759D01*
X0342020Y0086758D02*
X0340402Y0086758D01*
X0340402Y0087756D02*
X0342020Y0087756D01*
X0342020Y0088755D02*
X0340402Y0088755D01*
X0340402Y0089753D02*
X0342020Y0089753D01*
X0342020Y0090752D02*
X0340402Y0090752D01*
X0340402Y0091750D02*
X0342020Y0091750D01*
X0342020Y0092749D02*
X0340402Y0092749D01*
X0340402Y0093747D02*
X0342020Y0093747D01*
X0342020Y0094746D02*
X0340402Y0094746D01*
X0340402Y0095745D02*
X0342020Y0095745D01*
X0342020Y0096743D02*
X0340402Y0096743D01*
X0340402Y0097742D02*
X0342020Y0097742D01*
X0342020Y0098740D02*
X0340402Y0098740D01*
X0340402Y0099739D02*
X0342020Y0099739D01*
X0342020Y0100737D02*
X0340402Y0100737D01*
X0340402Y0101736D02*
X0342020Y0101736D01*
X0342020Y0102734D02*
X0340402Y0102734D01*
X0340402Y0103733D02*
X0342020Y0103733D01*
X0342020Y0104731D02*
X0340402Y0104731D01*
X0340402Y0105730D02*
X0342020Y0105730D01*
X0342020Y0106728D02*
X0340402Y0106728D01*
X0340402Y0107727D02*
X0342020Y0107727D01*
X0342020Y0108725D02*
X0340402Y0108725D01*
X0340402Y0109724D02*
X0342020Y0109724D01*
X0342020Y0110722D02*
X0340402Y0110722D01*
X0340402Y0111721D02*
X0342020Y0111721D01*
X0342020Y0112719D02*
X0340402Y0112719D01*
X0340402Y0113718D02*
X0342020Y0113718D01*
X0342020Y0114716D02*
X0340402Y0114716D01*
X0340402Y0115715D02*
X0342020Y0115715D01*
X0342020Y0116713D02*
X0340402Y0116713D01*
X0340402Y0117712D02*
X0342020Y0117712D01*
X0342020Y0118710D02*
X0340402Y0118710D01*
X0340402Y0119709D02*
X0342020Y0119709D01*
X0342020Y0120707D02*
X0340402Y0120707D01*
X0340402Y0121706D02*
X0342020Y0121706D01*
X0342020Y0122704D02*
X0340402Y0122704D01*
X0340402Y0123703D02*
X0342020Y0123703D01*
X0342020Y0124701D02*
X0340402Y0124701D01*
X0340402Y0125700D02*
X0342020Y0125700D01*
X0342020Y0126698D02*
X0340402Y0126698D01*
X0339533Y0127697D02*
X0342020Y0127697D01*
X0342020Y0128695D02*
X0340524Y0128695D01*
X0341774Y0129694D02*
X0342020Y0129694D01*
X0338598Y0132398D02*
X0333776Y0137319D01*
X0316256Y0137319D01*
X0314287Y0137319D02*
X0314287Y0140370D01*
X0316059Y0141945D01*
X0321768Y0141945D01*
X0325552Y0143673D02*
X0342020Y0143673D01*
X0342020Y0142675D02*
X0325925Y0142675D01*
X0325925Y0141676D02*
X0342020Y0141676D01*
X0342020Y0140678D02*
X0325743Y0140678D01*
X0325329Y0139679D02*
X0342020Y0139679D01*
X0342020Y0138680D02*
X0335242Y0138680D01*
X0336220Y0137682D02*
X0342020Y0137682D01*
X0342020Y0136683D02*
X0337199Y0136683D01*
X0341191Y0135685D02*
X0342020Y0135685D01*
X0342020Y0144672D02*
X0324921Y0144672D01*
X0324068Y0145670D02*
X0342020Y0145670D01*
X0342020Y0146669D02*
X0324068Y0146669D01*
X0324068Y0147667D02*
X0342020Y0147667D01*
X0342020Y0148666D02*
X0324068Y0148666D01*
X0324068Y0149664D02*
X0342020Y0149664D01*
X0342020Y0150663D02*
X0324068Y0150663D01*
X0324068Y0151661D02*
X0342020Y0151661D01*
X0342020Y0152660D02*
X0324068Y0152660D01*
X0324068Y0153658D02*
X0342020Y0153658D01*
X0342020Y0154657D02*
X0324068Y0154657D01*
X0324068Y0155655D02*
X0342020Y0155655D01*
X0342020Y0156654D02*
X0324068Y0156654D01*
X0324068Y0157652D02*
X0342020Y0157652D01*
X0342020Y0158651D02*
X0324068Y0158651D01*
X0324068Y0159649D02*
X0342020Y0159649D01*
X0342020Y0160648D02*
X0324068Y0160648D01*
X0324068Y0161646D02*
X0342020Y0161646D01*
X0342020Y0162645D02*
X0324068Y0162645D01*
X0324068Y0163643D02*
X0342020Y0163643D01*
X0342020Y0164642D02*
X0324068Y0164642D01*
X0323077Y0165640D02*
X0342020Y0165640D01*
X0342020Y0166639D02*
X0322078Y0166639D01*
X0321080Y0167637D02*
X0342020Y0167637D01*
X0342020Y0168636D02*
X0320081Y0168636D01*
X0319083Y0169634D02*
X0342020Y0169634D01*
X0342020Y0170633D02*
X0312937Y0170633D01*
X0313935Y0171631D02*
X0342020Y0171631D01*
X0342020Y0172630D02*
X0314410Y0172630D01*
X0314720Y0173628D02*
X0342020Y0173628D01*
X0342020Y0174627D02*
X0314720Y0174627D01*
X0314526Y0175625D02*
X0342020Y0175625D01*
X0342020Y0176624D02*
X0314113Y0176624D01*
X0313217Y0177622D02*
X0342020Y0177622D01*
X0342020Y0178621D02*
X0311419Y0178621D01*
X0311141Y0179799D02*
X0312783Y0180480D01*
X0314040Y0181737D01*
X0314720Y0183379D01*
X0314720Y0185157D01*
X0314040Y0186799D01*
X0312783Y0188056D01*
X0311141Y0188736D01*
X0309363Y0188736D01*
X0307721Y0188056D01*
X0306464Y0186799D01*
X0305783Y0185157D01*
X0305783Y0183379D01*
X0306464Y0181737D01*
X0307721Y0180480D01*
X0309363Y0179799D01*
X0311141Y0179799D01*
X0312922Y0180618D02*
X0342020Y0180618D01*
X0342020Y0181616D02*
X0313920Y0181616D01*
X0314404Y0182615D02*
X0342020Y0182615D01*
X0342020Y0183613D02*
X0314720Y0183613D01*
X0314720Y0184612D02*
X0342020Y0184612D01*
X0342020Y0185611D02*
X0314532Y0185611D01*
X0314119Y0186609D02*
X0342020Y0186609D01*
X0342020Y0187608D02*
X0313232Y0187608D01*
X0311455Y0188606D02*
X0342020Y0188606D01*
X0342020Y0189605D02*
X0075335Y0189605D01*
X0075335Y0190603D02*
X0342020Y0190603D01*
X0342020Y0191602D02*
X0075335Y0191602D01*
X0075335Y0192600D02*
X0342020Y0192600D01*
X0342020Y0193599D02*
X0075335Y0193599D01*
X0075335Y0194597D02*
X0342020Y0194597D01*
X0342020Y0195596D02*
X0075335Y0195596D01*
X0075335Y0196594D02*
X0342020Y0196594D01*
X0342020Y0197593D02*
X0075335Y0197593D01*
X0075335Y0198591D02*
X0342020Y0198591D01*
X0342020Y0199590D02*
X0075335Y0199590D01*
X0075335Y0200588D02*
X0342020Y0200588D01*
X0342020Y0201587D02*
X0075335Y0201587D01*
X0075335Y0202585D02*
X0342020Y0202585D01*
X0342020Y0203584D02*
X0075335Y0203584D01*
X0075335Y0204582D02*
X0342020Y0204582D01*
X0342020Y0205581D02*
X0075335Y0205581D01*
X0075335Y0206579D02*
X0342020Y0206579D01*
X0342020Y0207578D02*
X0075335Y0207578D01*
X0075335Y0208576D02*
X0342020Y0208576D01*
X0342020Y0209575D02*
X0075335Y0209575D01*
X0075335Y0210573D02*
X0342020Y0210573D01*
X0342020Y0211572D02*
X0075335Y0211572D01*
X0075335Y0212570D02*
X0342020Y0212570D01*
X0342020Y0213569D02*
X0075335Y0213569D01*
X0075335Y0214567D02*
X0342020Y0214567D01*
X0342020Y0215566D02*
X0075335Y0215566D01*
X0075335Y0216564D02*
X0342020Y0216564D01*
X0342020Y0217563D02*
X0075335Y0217563D01*
X0075335Y0218561D02*
X0342020Y0218561D01*
X0342020Y0219560D02*
X0075335Y0219560D01*
X0075335Y0220558D02*
X0342020Y0220558D01*
X0342020Y0221557D02*
X0075335Y0221557D01*
X0075335Y0222555D02*
X0342020Y0222555D01*
X0342020Y0223554D02*
X0075335Y0223554D01*
X0075335Y0224552D02*
X0342020Y0224552D01*
X0342020Y0225551D02*
X0075335Y0225551D01*
X0075335Y0226549D02*
X0342020Y0226549D01*
X0342020Y0227548D02*
X0075335Y0227548D01*
X0075335Y0228547D02*
X0342020Y0228547D01*
X0342020Y0229545D02*
X0075335Y0229545D01*
X0075335Y0230544D02*
X0342020Y0230544D01*
X0342020Y0231542D02*
X0075335Y0231542D01*
X0075335Y0232541D02*
X0342020Y0232541D01*
X0342020Y0233539D02*
X0075335Y0233539D01*
X0075335Y0234538D02*
X0342020Y0234538D01*
X0342020Y0235536D02*
X0075335Y0235536D01*
X0075335Y0236535D02*
X0342020Y0236535D01*
X0342020Y0237533D02*
X0075335Y0237533D01*
X0075335Y0238532D02*
X0342020Y0238532D01*
X0342020Y0239530D02*
X0075335Y0239530D01*
X0075335Y0240529D02*
X0342020Y0240529D01*
X0342020Y0241527D02*
X0075335Y0241527D01*
X0075335Y0242526D02*
X0342020Y0242526D01*
X0342020Y0243524D02*
X0075335Y0243524D01*
X0075335Y0244523D02*
X0342020Y0244523D01*
X0342020Y0245521D02*
X0075335Y0245521D01*
X0075335Y0246520D02*
X0342020Y0246520D01*
X0342020Y0247518D02*
X0075335Y0247518D01*
X0075335Y0248517D02*
X0342020Y0248517D01*
X0342020Y0249515D02*
X0075335Y0249515D01*
X0075335Y0250514D02*
X0342020Y0250514D01*
X0342020Y0251512D02*
X0075335Y0251512D01*
X0075335Y0252511D02*
X0342020Y0252511D01*
X0342020Y0253509D02*
X0075335Y0253509D01*
X0075335Y0254508D02*
X0342020Y0254508D01*
X0342020Y0255506D02*
X0075335Y0255506D01*
X0075335Y0256505D02*
X0342020Y0256505D01*
X0342020Y0257503D02*
X0075335Y0257503D01*
X0075335Y0258502D02*
X0342020Y0258502D01*
X0342020Y0259500D02*
X0075335Y0259500D01*
X0075335Y0260499D02*
X0342020Y0260499D01*
X0342020Y0261497D02*
X0075335Y0261497D01*
X0075335Y0262496D02*
X0342020Y0262496D01*
X0342020Y0263494D02*
X0075335Y0263494D01*
X0075335Y0264493D02*
X0342020Y0264493D01*
X0342020Y0265491D02*
X0075335Y0265491D01*
X0075335Y0266490D02*
X0342020Y0266490D01*
X0342020Y0267488D02*
X0075335Y0267488D01*
X0075335Y0268487D02*
X0342020Y0268487D01*
X0342020Y0269485D02*
X0075335Y0269485D01*
X0075335Y0270484D02*
X0342020Y0270484D01*
X0342020Y0271482D02*
X0075335Y0271482D01*
X0075335Y0272481D02*
X0342020Y0272481D01*
X0342020Y0273480D02*
X0075335Y0273480D01*
X0075335Y0274478D02*
X0342020Y0274478D01*
X0342020Y0275477D02*
X0075335Y0275477D01*
X0075335Y0276475D02*
X0342020Y0276475D01*
X0342020Y0277474D02*
X0075335Y0277474D01*
X0075335Y0278472D02*
X0342020Y0278472D01*
X0342020Y0279471D02*
X0075335Y0279471D01*
X0075335Y0280469D02*
X0342020Y0280469D01*
X0342020Y0281468D02*
X0075335Y0281468D01*
X0075335Y0282466D02*
X0342020Y0282466D01*
X0342020Y0283465D02*
X0075335Y0283465D01*
X0075335Y0284463D02*
X0342020Y0284463D01*
X0342020Y0285462D02*
X0075335Y0285462D01*
X0075335Y0286460D02*
X0342020Y0286460D01*
X0342020Y0287459D02*
X0075335Y0287459D01*
X0075335Y0288457D02*
X0342020Y0288457D01*
X0342020Y0289456D02*
X0075335Y0289456D01*
X0075335Y0290454D02*
X0342020Y0290454D01*
X0342020Y0291453D02*
X0075335Y0291453D01*
X0075335Y0292451D02*
X0342020Y0292451D01*
X0342020Y0293450D02*
X0075335Y0293450D01*
X0075335Y0294448D02*
X0342020Y0294448D01*
X0342020Y0295447D02*
X0075335Y0295447D01*
X0075335Y0296445D02*
X0342020Y0296445D01*
X0342020Y0297444D02*
X0075335Y0297444D01*
X0075335Y0298442D02*
X0342020Y0298442D01*
X0342020Y0299441D02*
X0075335Y0299441D01*
X0075357Y0300439D02*
X0342020Y0300439D01*
X0342020Y0301438D02*
X0075694Y0301438D01*
X0076899Y0302436D02*
X0342020Y0302436D01*
X0342020Y0303435D02*
X0088623Y0303435D01*
X0089682Y0304433D02*
X0342020Y0304433D01*
X0342020Y0305432D02*
X0090431Y0305432D01*
X0090845Y0306430D02*
X0342020Y0306430D01*
X0342020Y0307429D02*
X0091083Y0307429D01*
X0091083Y0308427D02*
X0342020Y0308427D01*
X0342020Y0309426D02*
X0091083Y0309426D01*
X0091083Y0310424D02*
X0342020Y0310424D01*
X0342020Y0311423D02*
X0091083Y0311423D01*
X0091083Y0312421D02*
X0342020Y0312421D01*
X0342020Y0313420D02*
X0091083Y0313420D01*
X0091083Y0314418D02*
X0342020Y0314418D01*
X0342020Y0315417D02*
X0091083Y0315417D01*
X0091083Y0316416D02*
X0342020Y0316416D01*
X0342020Y0317414D02*
X0091083Y0317414D01*
X0091083Y0318413D02*
X0342020Y0318413D01*
X0342020Y0319411D02*
X0091083Y0319411D01*
X0091083Y0320410D02*
X0342020Y0320410D01*
X0342020Y0321408D02*
X0091083Y0321408D01*
X0091083Y0322407D02*
X0342020Y0322407D01*
X0342020Y0323405D02*
X0091083Y0323405D01*
X0091083Y0324404D02*
X0342020Y0324404D01*
X0342020Y0325402D02*
X0091083Y0325402D01*
X0091083Y0326401D02*
X0342020Y0326401D01*
X0342020Y0327399D02*
X0091083Y0327399D01*
X0091083Y0328398D02*
X0342020Y0328398D01*
X0342020Y0329396D02*
X0091083Y0329396D01*
X0091083Y0330395D02*
X0342020Y0330395D01*
X0342020Y0331393D02*
X0091083Y0331393D01*
X0091083Y0332392D02*
X0342020Y0332392D01*
X0342020Y0333390D02*
X0091083Y0333390D01*
X0091083Y0334389D02*
X0342020Y0334389D01*
X0342020Y0335387D02*
X0091083Y0335387D01*
X0091083Y0336386D02*
X0342020Y0336386D01*
X0342020Y0337384D02*
X0091083Y0337384D01*
X0091083Y0338383D02*
X0342020Y0338383D01*
X0342020Y0339381D02*
X0091083Y0339381D01*
X0091083Y0340380D02*
X0342020Y0340380D01*
X0342020Y0341378D02*
X0091083Y0341378D01*
X0091083Y0342377D02*
X0342020Y0342377D01*
X0342020Y0343375D02*
X0091083Y0343375D01*
X0091083Y0344374D02*
X0342020Y0344374D01*
X0342020Y0345372D02*
X0091083Y0345372D01*
X0091083Y0346371D02*
X0342020Y0346371D01*
X0342020Y0347369D02*
X0091083Y0347369D01*
X0091083Y0348368D02*
X0342020Y0348368D01*
X0342020Y0349366D02*
X0091083Y0349366D01*
X0091083Y0350365D02*
X0342020Y0350365D01*
X0342020Y0351363D02*
X0091083Y0351363D01*
X0091083Y0352362D02*
X0342020Y0352362D01*
X0342020Y0353360D02*
X0091083Y0353360D01*
X0091083Y0354359D02*
X0342020Y0354359D01*
X0342020Y0355357D02*
X0091083Y0355357D01*
X0091083Y0356356D02*
X0342020Y0356356D01*
X0342020Y0357354D02*
X0091083Y0357354D01*
X0091083Y0358353D02*
X0342020Y0358353D01*
X0342020Y0359351D02*
X0091083Y0359351D01*
X0091083Y0360350D02*
X0342020Y0360350D01*
X0342020Y0361349D02*
X0091083Y0361349D01*
X0091083Y0362347D02*
X0342020Y0362347D01*
X0342020Y0363346D02*
X0091083Y0363346D01*
X0091083Y0364344D02*
X0342020Y0364344D01*
X0342020Y0365343D02*
X0091083Y0365343D01*
X0091083Y0366341D02*
X0342020Y0366341D01*
X0342020Y0367340D02*
X0091083Y0367340D01*
X0091083Y0368338D02*
X0342020Y0368338D01*
X0342020Y0369337D02*
X0091083Y0369337D01*
X0091083Y0370335D02*
X0342020Y0370335D01*
X0342020Y0371334D02*
X0091083Y0371334D01*
X0091083Y0372332D02*
X0342020Y0372332D01*
X0342020Y0373331D02*
X0091083Y0373331D01*
X0091083Y0374329D02*
X0341987Y0374329D01*
X0341922Y0375328D02*
X0091083Y0375328D01*
X0091083Y0376326D02*
X0341656Y0376326D01*
X0341388Y0377325D02*
X0091083Y0377325D01*
X0091083Y0378323D02*
X0341093Y0378323D01*
X0340516Y0379322D02*
X0091083Y0379322D01*
X0091083Y0380320D02*
X0339940Y0380320D01*
X0339157Y0381319D02*
X0091083Y0381319D01*
X0091083Y0382317D02*
X0338158Y0382317D01*
X0336893Y0383316D02*
X0091125Y0383316D01*
X0091567Y0384314D02*
X0335164Y0384314D01*
X0330741Y0385313D02*
X0093383Y0385313D01*
X0075335Y0188606D02*
X0119144Y0188606D01*
X0119206Y0188626D02*
X0118537Y0188409D01*
X0117910Y0188090D01*
X0117341Y0187676D01*
X0116844Y0187179D01*
X0116430Y0186610D01*
X0116111Y0185983D01*
X0115893Y0185314D01*
X0115804Y0184752D01*
X0119768Y0184752D01*
X0119768Y0188715D01*
X0119206Y0188626D01*
X0119768Y0188606D02*
X0120736Y0188606D01*
X0120736Y0188715D02*
X0121298Y0188626D01*
X0121967Y0188409D01*
X0122594Y0188090D01*
X0123163Y0187676D01*
X0123660Y0187179D01*
X0124074Y0186610D01*
X0124393Y0185983D01*
X0124610Y0185314D01*
X0124699Y0184752D01*
X0120736Y0184752D01*
X0119768Y0184752D01*
X0119768Y0183783D01*
X0120736Y0183783D01*
X0120736Y0179820D01*
X0121298Y0179909D01*
X0121967Y0180127D01*
X0122594Y0180446D01*
X0123163Y0180859D01*
X0123660Y0181357D01*
X0124074Y0181926D01*
X0124393Y0182552D01*
X0124610Y0183221D01*
X0124699Y0183783D01*
X0120736Y0183783D01*
X0120736Y0184752D01*
X0120736Y0188715D01*
X0121360Y0188606D02*
X0129049Y0188606D01*
X0129363Y0188736D02*
X0127721Y0188056D01*
X0126464Y0186799D01*
X0125783Y0185157D01*
X0125783Y0183379D01*
X0126464Y0181737D01*
X0127721Y0180480D01*
X0129363Y0179799D01*
X0131141Y0179799D01*
X0132783Y0180480D01*
X0134040Y0181737D01*
X0134720Y0183379D01*
X0134720Y0185157D01*
X0134040Y0186799D01*
X0132783Y0188056D01*
X0131141Y0188736D01*
X0129363Y0188736D01*
X0131455Y0188606D02*
X0139049Y0188606D01*
X0139363Y0188736D02*
X0137721Y0188056D01*
X0136464Y0186799D01*
X0135783Y0185157D01*
X0135783Y0183379D01*
X0136464Y0181737D01*
X0137721Y0180480D01*
X0139363Y0179799D01*
X0141141Y0179799D01*
X0142783Y0180480D01*
X0144040Y0181737D01*
X0144720Y0183379D01*
X0144720Y0185157D01*
X0144040Y0186799D01*
X0142783Y0188056D01*
X0141141Y0188736D01*
X0139363Y0188736D01*
X0141455Y0188606D02*
X0149049Y0188606D01*
X0149363Y0188736D02*
X0147721Y0188056D01*
X0146464Y0186799D01*
X0145783Y0185157D01*
X0145783Y0183379D01*
X0146464Y0181737D01*
X0147721Y0180480D01*
X0149363Y0179799D01*
X0151141Y0179799D01*
X0152783Y0180480D01*
X0154040Y0181737D01*
X0154720Y0183379D01*
X0154720Y0185157D01*
X0154040Y0186799D01*
X0152783Y0188056D01*
X0151141Y0188736D01*
X0149363Y0188736D01*
X0151455Y0188606D02*
X0159049Y0188606D01*
X0159363Y0188736D02*
X0157721Y0188056D01*
X0156464Y0186799D01*
X0155783Y0185157D01*
X0155783Y0183379D01*
X0156464Y0181737D01*
X0157721Y0180480D01*
X0159363Y0179799D01*
X0161141Y0179799D01*
X0162783Y0180480D01*
X0164040Y0181737D01*
X0164720Y0183379D01*
X0164720Y0185157D01*
X0164040Y0186799D01*
X0162783Y0188056D01*
X0161141Y0188736D01*
X0159363Y0188736D01*
X0161455Y0188606D02*
X0169049Y0188606D01*
X0169363Y0188736D02*
X0167721Y0188056D01*
X0166464Y0186799D01*
X0165783Y0185157D01*
X0165783Y0183379D01*
X0166464Y0181737D01*
X0167721Y0180480D01*
X0169363Y0179799D01*
X0171141Y0179799D01*
X0172783Y0180480D01*
X0174040Y0181737D01*
X0174720Y0183379D01*
X0174720Y0185157D01*
X0174040Y0186799D01*
X0172783Y0188056D01*
X0171141Y0188736D01*
X0169363Y0188736D01*
X0171455Y0188606D02*
X0179049Y0188606D01*
X0179363Y0188736D02*
X0177721Y0188056D01*
X0176464Y0186799D01*
X0175783Y0185157D01*
X0175783Y0183379D01*
X0176464Y0181737D01*
X0177721Y0180480D01*
X0179363Y0179799D01*
X0181141Y0179799D01*
X0182783Y0180480D01*
X0184040Y0181737D01*
X0184720Y0183379D01*
X0184720Y0185157D01*
X0184040Y0186799D01*
X0182783Y0188056D01*
X0181141Y0188736D01*
X0179363Y0188736D01*
X0181455Y0188606D02*
X0189144Y0188606D01*
X0189206Y0188626D02*
X0188537Y0188409D01*
X0187910Y0188090D01*
X0187341Y0187676D01*
X0186844Y0187179D01*
X0186430Y0186610D01*
X0186111Y0185983D01*
X0185893Y0185314D01*
X0185804Y0184752D01*
X0189768Y0184752D01*
X0189768Y0188715D01*
X0189206Y0188626D01*
X0189768Y0188606D02*
X0190736Y0188606D01*
X0190736Y0188715D02*
X0191298Y0188626D01*
X0191967Y0188409D01*
X0192594Y0188090D01*
X0193163Y0187676D01*
X0193660Y0187179D01*
X0194074Y0186610D01*
X0194393Y0185983D01*
X0194610Y0185314D01*
X0194699Y0184752D01*
X0190736Y0184752D01*
X0189768Y0184752D01*
X0189768Y0183783D01*
X0190736Y0183783D01*
X0190736Y0179820D01*
X0191298Y0179909D01*
X0191967Y0180127D01*
X0192594Y0180446D01*
X0193163Y0180859D01*
X0193660Y0181357D01*
X0194074Y0181926D01*
X0194393Y0182552D01*
X0194610Y0183221D01*
X0194699Y0183783D01*
X0190736Y0183783D01*
X0190736Y0184752D01*
X0190736Y0188715D01*
X0191360Y0188606D02*
X0199049Y0188606D01*
X0199363Y0188736D02*
X0197721Y0188056D01*
X0196464Y0186799D01*
X0195783Y0185157D01*
X0195783Y0183379D01*
X0196464Y0181737D01*
X0197721Y0180480D01*
X0199363Y0179799D01*
X0201141Y0179799D01*
X0202783Y0180480D01*
X0204040Y0181737D01*
X0204720Y0183379D01*
X0204720Y0185157D01*
X0204040Y0186799D01*
X0202783Y0188056D01*
X0201141Y0188736D01*
X0199363Y0188736D01*
X0201455Y0188606D02*
X0209049Y0188606D01*
X0209363Y0188736D02*
X0207721Y0188056D01*
X0206464Y0186799D01*
X0205783Y0185157D01*
X0205783Y0183379D01*
X0206464Y0181737D01*
X0207721Y0180480D01*
X0209363Y0179799D01*
X0211141Y0179799D01*
X0212783Y0180480D01*
X0214040Y0181737D01*
X0214720Y0183379D01*
X0214720Y0185157D01*
X0214040Y0186799D01*
X0212783Y0188056D01*
X0211141Y0188736D01*
X0209363Y0188736D01*
X0211455Y0188606D02*
X0219049Y0188606D01*
X0219363Y0188736D02*
X0217721Y0188056D01*
X0216464Y0186799D01*
X0215783Y0185157D01*
X0215783Y0183379D01*
X0216464Y0181737D01*
X0217721Y0180480D01*
X0219363Y0179799D01*
X0221141Y0179799D01*
X0222783Y0180480D01*
X0224040Y0181737D01*
X0224720Y0183379D01*
X0224720Y0185157D01*
X0224040Y0186799D01*
X0222783Y0188056D01*
X0221141Y0188736D01*
X0219363Y0188736D01*
X0221455Y0188606D02*
X0229049Y0188606D01*
X0229363Y0188736D02*
X0227721Y0188056D01*
X0226464Y0186799D01*
X0225783Y0185157D01*
X0225783Y0183379D01*
X0226464Y0181737D01*
X0227721Y0180480D01*
X0229363Y0179799D01*
X0231141Y0179799D01*
X0232783Y0180480D01*
X0234040Y0181737D01*
X0234720Y0183379D01*
X0234720Y0185157D01*
X0234040Y0186799D01*
X0232783Y0188056D01*
X0231141Y0188736D01*
X0229363Y0188736D01*
X0231455Y0188606D02*
X0239049Y0188606D01*
X0239363Y0188736D02*
X0237721Y0188056D01*
X0236464Y0186799D01*
X0235783Y0185157D01*
X0235783Y0183379D01*
X0236464Y0181737D01*
X0237721Y0180480D01*
X0239363Y0179799D01*
X0241141Y0179799D01*
X0242783Y0180480D01*
X0244040Y0181737D01*
X0244720Y0183379D01*
X0244720Y0185157D01*
X0244040Y0186799D01*
X0242783Y0188056D01*
X0241141Y0188736D01*
X0239363Y0188736D01*
X0241455Y0188606D02*
X0249049Y0188606D01*
X0249363Y0188736D02*
X0247721Y0188056D01*
X0246464Y0186799D01*
X0245783Y0185157D01*
X0245783Y0183379D01*
X0246464Y0181737D01*
X0247721Y0180480D01*
X0249363Y0179799D01*
X0251141Y0179799D01*
X0252783Y0180480D01*
X0254040Y0181737D01*
X0254720Y0183379D01*
X0254720Y0185157D01*
X0254040Y0186799D01*
X0252783Y0188056D01*
X0251141Y0188736D01*
X0249363Y0188736D01*
X0251455Y0188606D02*
X0259049Y0188606D01*
X0259363Y0188736D02*
X0257721Y0188056D01*
X0256464Y0186799D01*
X0255783Y0185157D01*
X0255783Y0183379D01*
X0256464Y0181737D01*
X0257721Y0180480D01*
X0259363Y0179799D01*
X0261141Y0179799D01*
X0262783Y0180480D01*
X0264040Y0181737D01*
X0264720Y0183379D01*
X0264720Y0185157D01*
X0264040Y0186799D01*
X0262783Y0188056D01*
X0261141Y0188736D01*
X0259363Y0188736D01*
X0261455Y0188606D02*
X0269144Y0188606D01*
X0269206Y0188626D02*
X0268537Y0188409D01*
X0267910Y0188090D01*
X0267341Y0187676D01*
X0266844Y0187179D01*
X0266430Y0186610D01*
X0266111Y0185983D01*
X0265893Y0185314D01*
X0265804Y0184752D01*
X0269768Y0184752D01*
X0269768Y0188715D01*
X0269206Y0188626D01*
X0269768Y0188606D02*
X0270736Y0188606D01*
X0270736Y0188715D02*
X0271298Y0188626D01*
X0271967Y0188409D01*
X0272594Y0188090D01*
X0273163Y0187676D01*
X0273660Y0187179D01*
X0274074Y0186610D01*
X0274393Y0185983D01*
X0274610Y0185314D01*
X0274699Y0184752D01*
X0270736Y0184752D01*
X0269768Y0184752D01*
X0269768Y0183783D01*
X0270736Y0183783D01*
X0270736Y0179820D01*
X0271298Y0179909D01*
X0271967Y0180127D01*
X0272594Y0180446D01*
X0273163Y0180859D01*
X0273660Y0181357D01*
X0274074Y0181926D01*
X0274393Y0182552D01*
X0274610Y0183221D01*
X0274699Y0183783D01*
X0270736Y0183783D01*
X0270736Y0184752D01*
X0270736Y0188715D01*
X0271360Y0188606D02*
X0279049Y0188606D01*
X0279363Y0188736D02*
X0277721Y0188056D01*
X0276464Y0186799D01*
X0275783Y0185157D01*
X0275783Y0183379D01*
X0276464Y0181737D01*
X0277721Y0180480D01*
X0279363Y0179799D01*
X0281141Y0179799D01*
X0282783Y0180480D01*
X0284040Y0181737D01*
X0284720Y0183379D01*
X0284720Y0185157D01*
X0284040Y0186799D01*
X0282783Y0188056D01*
X0281141Y0188736D01*
X0279363Y0188736D01*
X0281455Y0188606D02*
X0289049Y0188606D01*
X0289363Y0188736D02*
X0287721Y0188056D01*
X0286464Y0186799D01*
X0285783Y0185157D01*
X0285783Y0183379D01*
X0286464Y0181737D01*
X0287721Y0180480D01*
X0289363Y0179799D01*
X0291141Y0179799D01*
X0292783Y0180480D01*
X0294040Y0181737D01*
X0294720Y0183379D01*
X0294720Y0185157D01*
X0294040Y0186799D01*
X0292783Y0188056D01*
X0291141Y0188736D01*
X0289363Y0188736D01*
X0291455Y0188606D02*
X0299049Y0188606D01*
X0299363Y0188736D02*
X0297721Y0188056D01*
X0296464Y0186799D01*
X0295783Y0185157D01*
X0295783Y0183379D01*
X0296464Y0181737D01*
X0297721Y0180480D01*
X0299363Y0179799D01*
X0301141Y0179799D01*
X0302783Y0180480D01*
X0304040Y0181737D01*
X0304720Y0183379D01*
X0304720Y0185157D01*
X0304040Y0186799D01*
X0302783Y0188056D01*
X0301141Y0188736D01*
X0299363Y0188736D01*
X0301455Y0188606D02*
X0309049Y0188606D01*
X0307272Y0187608D02*
X0303232Y0187608D01*
X0304119Y0186609D02*
X0306385Y0186609D01*
X0305972Y0185611D02*
X0304532Y0185611D01*
X0304720Y0184612D02*
X0305783Y0184612D01*
X0305783Y0183613D02*
X0304720Y0183613D01*
X0304404Y0182615D02*
X0306100Y0182615D01*
X0306584Y0181616D02*
X0303920Y0181616D01*
X0302922Y0180618D02*
X0307582Y0180618D01*
X0309085Y0178621D02*
X0301419Y0178621D01*
X0303217Y0177622D02*
X0307287Y0177622D01*
X0306391Y0176624D02*
X0304113Y0176624D01*
X0304526Y0175625D02*
X0305978Y0175625D01*
X0305783Y0174627D02*
X0304720Y0174627D01*
X0304720Y0173628D02*
X0305783Y0173628D01*
X0306094Y0172630D02*
X0304410Y0172630D01*
X0303935Y0171631D02*
X0306569Y0171631D01*
X0307567Y0170633D02*
X0302937Y0170633D01*
X0301404Y0165629D02*
X0316583Y0165629D01*
X0319468Y0162744D01*
X0319468Y0156424D01*
X0318808Y0157084D01*
X0317280Y0157717D01*
X0315626Y0157717D01*
X0314098Y0157084D01*
X0312928Y0155914D01*
X0312295Y0154386D01*
X0312295Y0153638D01*
X0312005Y0154339D01*
X0310835Y0155509D01*
X0309307Y0156142D01*
X0309069Y0156142D01*
X0310233Y0157306D01*
X0310866Y0158834D01*
X0310866Y0160488D01*
X0310233Y0162016D01*
X0309064Y0163186D01*
X0307536Y0163819D01*
X0305882Y0163819D01*
X0304354Y0163186D01*
X0303184Y0162016D01*
X0302551Y0160488D01*
X0302551Y0158834D01*
X0302698Y0158479D01*
X0300539Y0156321D01*
X0300539Y0158943D01*
X0300894Y0159090D01*
X0302064Y0160259D01*
X0302697Y0161787D01*
X0302697Y0163441D01*
X0302064Y0164969D01*
X0301404Y0165629D01*
X0302200Y0164642D02*
X0317570Y0164642D01*
X0318569Y0163643D02*
X0307960Y0163643D01*
X0309605Y0162645D02*
X0319468Y0162645D01*
X0319468Y0161646D02*
X0310387Y0161646D01*
X0310800Y0160648D02*
X0319468Y0160648D01*
X0319468Y0159649D02*
X0310866Y0159649D01*
X0310790Y0158651D02*
X0319468Y0158651D01*
X0319468Y0157652D02*
X0317435Y0157652D01*
X0315470Y0157652D02*
X0310376Y0157652D01*
X0309580Y0156654D02*
X0313668Y0156654D01*
X0312821Y0155655D02*
X0310482Y0155655D01*
X0311687Y0154657D02*
X0312407Y0154657D01*
X0312295Y0153658D02*
X0312287Y0153658D01*
X0308480Y0151984D02*
X0305331Y0151984D01*
X0302476Y0149228D01*
X0302476Y0137319D01*
X0300508Y0137319D02*
X0300606Y0153559D01*
X0306709Y0159661D01*
X0303812Y0162645D02*
X0302697Y0162645D01*
X0302638Y0161646D02*
X0303031Y0161646D01*
X0302617Y0160648D02*
X0302225Y0160648D01*
X0302551Y0159649D02*
X0301454Y0159649D01*
X0300539Y0158651D02*
X0302627Y0158651D01*
X0301871Y0157652D02*
X0300539Y0157652D01*
X0300539Y0156654D02*
X0300873Y0156654D01*
X0298539Y0162614D02*
X0298539Y0137319D01*
X0295587Y0134366D02*
X0194110Y0134366D01*
X0191059Y0137417D01*
X0202035Y0148666D02*
X0245902Y0148666D01*
X0246196Y0147956D02*
X0247365Y0146786D01*
X0248893Y0146154D01*
X0250547Y0146154D01*
X0252075Y0146786D01*
X0253245Y0147956D01*
X0253878Y0149484D01*
X0253878Y0151138D01*
X0253245Y0152666D01*
X0252075Y0153836D01*
X0252020Y0153858D01*
X0252020Y0159988D01*
X0255335Y0163302D01*
X0255390Y0163280D01*
X0257044Y0163280D01*
X0258572Y0163912D01*
X0259741Y0165082D01*
X0260374Y0166610D01*
X0260374Y0168264D01*
X0259741Y0169792D01*
X0259734Y0169799D01*
X0261141Y0169799D01*
X0262783Y0170480D01*
X0264040Y0171737D01*
X0264720Y0173379D01*
X0264720Y0175157D01*
X0264040Y0176799D01*
X0262783Y0178056D01*
X0261141Y0178736D01*
X0259363Y0178736D01*
X0257721Y0178056D01*
X0256464Y0176799D01*
X0255783Y0175157D01*
X0255783Y0173379D01*
X0256464Y0171737D01*
X0256606Y0171594D01*
X0255390Y0171594D01*
X0253862Y0170962D01*
X0252692Y0169792D01*
X0252059Y0168264D01*
X0252059Y0166610D01*
X0252082Y0166555D01*
X0248768Y0163241D01*
X0247420Y0161894D01*
X0247420Y0153858D01*
X0247365Y0153836D01*
X0246196Y0152666D01*
X0245563Y0151138D01*
X0245563Y0149484D01*
X0246196Y0147956D01*
X0246485Y0147667D02*
X0203033Y0147667D01*
X0204032Y0146669D02*
X0247650Y0146669D01*
X0245563Y0149664D02*
X0010374Y0149664D01*
X0010374Y0148666D02*
X0123812Y0148666D01*
X0122392Y0147667D02*
X0109234Y0147667D01*
X0110232Y0146669D02*
X0121394Y0146669D01*
X0120395Y0145670D02*
X0111231Y0145670D01*
X0112229Y0144672D02*
X0115268Y0144672D01*
X0116827Y0141276D02*
X0117831Y0141354D01*
X0117909Y0141354D01*
X0117831Y0141276D01*
X0116827Y0141276D01*
X0117909Y0141354D02*
X0119898Y0141354D01*
X0127673Y0136236D02*
X0133480Y0130429D01*
X0295587Y0130429D01*
X0295587Y0128461D02*
X0104346Y0128461D01*
X0097260Y0135547D01*
X0089588Y0145670D02*
X0081310Y0145670D01*
X0082308Y0144672D02*
X0086792Y0144672D01*
X0085530Y0143673D02*
X0083307Y0143673D01*
X0080311Y0146669D02*
X0090586Y0146669D01*
X0091585Y0147667D02*
X0010374Y0147667D01*
X0010374Y0146669D02*
X0063401Y0146669D01*
X0062403Y0145670D02*
X0010374Y0145670D01*
X0010374Y0144672D02*
X0028162Y0144672D01*
X0027164Y0143673D02*
X0010374Y0143673D01*
X0010374Y0142675D02*
X0026714Y0142675D01*
X0026469Y0141676D02*
X0010374Y0141676D01*
X0010374Y0140678D02*
X0026469Y0140678D01*
X0026779Y0139679D02*
X0010374Y0139679D01*
X0010374Y0138680D02*
X0027322Y0138680D01*
X0028390Y0137682D02*
X0010374Y0137682D01*
X0010374Y0136683D02*
X0034871Y0136683D01*
X0034539Y0135685D02*
X0010374Y0135685D01*
X0010374Y0134686D02*
X0034539Y0134686D01*
X0034763Y0133688D02*
X0010374Y0133688D01*
X0010374Y0132689D02*
X0035183Y0132689D01*
X0036181Y0131691D02*
X0010374Y0131691D01*
X0010374Y0130692D02*
X0040231Y0130692D01*
X0041230Y0129694D02*
X0010374Y0129694D01*
X0010374Y0128695D02*
X0042228Y0128695D01*
X0043227Y0127697D02*
X0010374Y0127697D01*
X0010374Y0126698D02*
X0044225Y0126698D01*
X0045224Y0125700D02*
X0010374Y0125700D01*
X0010374Y0124701D02*
X0046222Y0124701D01*
X0047221Y0123703D02*
X0010374Y0123703D01*
X0010374Y0122704D02*
X0048219Y0122704D01*
X0049327Y0124425D02*
X0038697Y0135055D01*
X0035444Y0137682D02*
X0032862Y0137682D01*
X0033090Y0144672D02*
X0057099Y0144672D01*
X0069110Y0134858D02*
X0077476Y0126492D01*
X0295587Y0126492D01*
X0295587Y0124524D02*
X0049327Y0124425D01*
X0056432Y0111721D02*
X0033265Y0111721D01*
X0031674Y0112719D02*
X0058023Y0112719D01*
X0060709Y0112719D02*
X0087591Y0112719D01*
X0085861Y0111721D02*
X0062301Y0111721D01*
X0059484Y0108874D02*
X0059484Y0108835D01*
X0059484Y0108874D02*
X0059366Y0108776D01*
X0056533Y0105730D02*
X0033164Y0105730D01*
X0031430Y0104731D02*
X0058266Y0104731D01*
X0060466Y0104731D02*
X0087359Y0104731D01*
X0085765Y0105730D02*
X0062200Y0105730D01*
X0061812Y0085759D02*
X0087826Y0085759D01*
X0086362Y0084761D02*
X0063276Y0084761D01*
X0060252Y0081906D02*
X0089386Y0081906D01*
X0118323Y0081906D01*
X0148047Y0081906D01*
X0176787Y0081906D01*
X0206118Y0081906D01*
X0234071Y0081906D01*
X0264189Y0081906D01*
X0292535Y0081906D01*
X0321472Y0081906D01*
X0327870Y0081906D01*
X0334858Y0088894D01*
X0334858Y0123638D01*
X0328067Y0130429D01*
X0319209Y0130429D01*
X0319209Y0132398D02*
X0328953Y0132398D01*
X0336630Y0124720D01*
X0336630Y0070094D01*
X0321472Y0054937D01*
X0321512Y0054976D01*
X0322122Y0054976D01*
X0321472Y0054937D02*
X0292339Y0054937D01*
X0263008Y0054937D01*
X0264547Y0058800D02*
X0290800Y0058800D01*
X0289323Y0057801D02*
X0266023Y0057801D01*
X0261469Y0058800D02*
X0235610Y0058800D01*
X0237086Y0057801D02*
X0259992Y0057801D01*
X0260255Y0051810D02*
X0236823Y0051810D01*
X0234975Y0050811D02*
X0262104Y0050811D01*
X0263912Y0050811D02*
X0291434Y0050811D01*
X0293243Y0050811D02*
X0320568Y0050811D01*
X0322377Y0050811D02*
X0327452Y0050811D01*
X0326453Y0049813D02*
X0010374Y0049813D01*
X0010374Y0050811D02*
X0029427Y0050811D01*
X0031235Y0050811D02*
X0058560Y0050811D01*
X0060369Y0050811D02*
X0087497Y0050811D01*
X0089306Y0050811D02*
X0116631Y0050811D01*
X0118440Y0050811D02*
X0145962Y0050811D01*
X0147770Y0050811D02*
X0174505Y0050811D01*
X0176314Y0050811D02*
X0203639Y0050811D01*
X0205447Y0050811D02*
X0233167Y0050811D01*
X0231318Y0051810D02*
X0207296Y0051810D01*
X0204543Y0054937D02*
X0204504Y0054976D01*
X0202378Y0054976D01*
X0202378Y0054937D01*
X0234071Y0054937D01*
X0232532Y0058800D02*
X0206082Y0058800D01*
X0207559Y0057801D02*
X0231055Y0057801D01*
X0233188Y0077771D02*
X0207001Y0077771D01*
X0205235Y0077771D02*
X0177671Y0077771D01*
X0175904Y0077771D02*
X0148930Y0077771D01*
X0147164Y0077771D02*
X0119206Y0077771D01*
X0117440Y0077771D02*
X0090269Y0077771D01*
X0088503Y0077771D02*
X0061135Y0077771D01*
X0059369Y0077771D02*
X0030820Y0077771D01*
X0029054Y0077771D02*
X0010374Y0077771D01*
X0010374Y0076773D02*
X0334630Y0076773D01*
X0334630Y0077771D02*
X0322356Y0077771D01*
X0320589Y0077771D02*
X0293419Y0077771D01*
X0291652Y0077771D02*
X0265072Y0077771D01*
X0263306Y0077771D02*
X0234954Y0077771D01*
X0236815Y0078770D02*
X0261445Y0078770D01*
X0266933Y0078770D02*
X0289792Y0078770D01*
X0295279Y0078770D02*
X0318729Y0078770D01*
X0318448Y0084761D02*
X0295560Y0084761D01*
X0294095Y0085759D02*
X0319913Y0085759D01*
X0323032Y0085759D02*
X0328896Y0085759D01*
X0329894Y0086758D02*
X0010374Y0086758D01*
X0010374Y0087756D02*
X0330893Y0087756D01*
X0331891Y0088755D02*
X0010374Y0088755D01*
X0010374Y0089753D02*
X0332858Y0089753D01*
X0332858Y0090752D02*
X0010374Y0090752D01*
X0010374Y0091750D02*
X0324547Y0091750D01*
X0323549Y0092749D02*
X0010374Y0092749D01*
X0010374Y0093747D02*
X0323083Y0093747D01*
X0322827Y0094746D02*
X0010374Y0094746D01*
X0010374Y0095745D02*
X0322827Y0095745D01*
X0323126Y0096743D02*
X0010374Y0096743D01*
X0010374Y0097742D02*
X0323653Y0097742D01*
X0322744Y0098740D02*
X0010374Y0098740D01*
X0010374Y0099739D02*
X0321745Y0099739D01*
X0320746Y0100737D02*
X0010374Y0100737D01*
X0010374Y0101736D02*
X0238350Y0101736D01*
X0237352Y0102734D02*
X0010374Y0102734D01*
X0010374Y0103733D02*
X0236353Y0103733D01*
X0233463Y0104731D02*
X0206488Y0104731D01*
X0204764Y0104731D02*
X0177100Y0104731D01*
X0178834Y0105730D02*
X0202891Y0105730D01*
X0208361Y0105730D02*
X0231729Y0105730D01*
X0231629Y0111721D02*
X0208659Y0111721D01*
X0207207Y0112719D02*
X0233220Y0112719D01*
X0235906Y0112719D02*
X0245563Y0112719D01*
X0245596Y0113718D02*
X0010374Y0113718D01*
X0010374Y0114716D02*
X0246010Y0114716D01*
X0246745Y0115715D02*
X0134860Y0115715D01*
X0134366Y0118618D02*
X0133382Y0119602D01*
X0134366Y0118618D02*
X0295587Y0118618D01*
X0295587Y0116650D02*
X0253067Y0116551D01*
X0249720Y0112811D01*
X0246928Y0109724D02*
X0238670Y0109724D01*
X0238720Y0108725D02*
X0248721Y0108725D01*
X0250720Y0108725D02*
X0259638Y0108725D01*
X0259688Y0109724D02*
X0252513Y0109724D01*
X0253355Y0110722D02*
X0260102Y0110722D01*
X0260861Y0111721D02*
X0253769Y0111721D01*
X0253878Y0112719D02*
X0262452Y0112719D01*
X0265139Y0112719D02*
X0274738Y0112719D01*
X0274324Y0111721D02*
X0266730Y0111721D01*
X0267489Y0110722D02*
X0274303Y0110722D01*
X0274424Y0109724D02*
X0267903Y0109724D01*
X0267953Y0108725D02*
X0274838Y0108725D01*
X0275697Y0107727D02*
X0268097Y0107727D01*
X0269095Y0106728D02*
X0277530Y0106728D01*
X0279392Y0106728D02*
X0287531Y0106728D01*
X0288529Y0107727D02*
X0281224Y0107727D01*
X0282084Y0108725D02*
X0288870Y0108725D01*
X0288879Y0109724D02*
X0282497Y0109724D01*
X0282618Y0110722D02*
X0289293Y0110722D01*
X0292039Y0104731D02*
X0292165Y0104731D01*
X0291040Y0103733D02*
X0296196Y0103733D01*
X0295197Y0104731D02*
X0293890Y0104731D01*
X0290042Y0102734D02*
X0318749Y0102734D01*
X0319748Y0101736D02*
X0260008Y0101736D01*
X0261006Y0102734D02*
X0266584Y0102734D01*
X0265586Y0103733D02*
X0262005Y0103733D01*
X0258495Y0106728D02*
X0239863Y0106728D01*
X0240862Y0105730D02*
X0257497Y0105730D01*
X0259494Y0107727D02*
X0238865Y0107727D01*
X0238257Y0110722D02*
X0246086Y0110722D01*
X0245672Y0111721D02*
X0237497Y0111721D01*
X0253845Y0113718D02*
X0275456Y0113718D01*
X0295587Y0132398D02*
X0166748Y0132398D01*
X0162024Y0137122D01*
X0171298Y0148666D02*
X0179788Y0148666D01*
X0178790Y0147667D02*
X0172718Y0147667D01*
X0173717Y0146669D02*
X0177791Y0146669D01*
X0176793Y0145670D02*
X0174715Y0145670D01*
X0175291Y0141276D02*
X0176197Y0141256D01*
X0176217Y0141276D02*
X0175291Y0141276D01*
X0176217Y0141276D02*
X0176295Y0141354D01*
X0177343Y0112719D02*
X0204045Y0112719D01*
X0202593Y0111721D02*
X0178934Y0111721D01*
X0174657Y0112719D02*
X0148800Y0112719D01*
X0150391Y0111721D02*
X0173066Y0111721D01*
X0173166Y0105730D02*
X0150290Y0105730D01*
X0148556Y0104731D02*
X0174900Y0104731D01*
X0175227Y0085759D02*
X0149607Y0085759D01*
X0151071Y0084761D02*
X0173763Y0084761D01*
X0178347Y0085759D02*
X0204558Y0085759D01*
X0203094Y0084761D02*
X0179812Y0084761D01*
X0179531Y0078770D02*
X0203374Y0078770D01*
X0207678Y0085759D02*
X0232511Y0085759D01*
X0231047Y0084761D02*
X0209142Y0084761D01*
X0208862Y0078770D02*
X0231327Y0078770D01*
X0235631Y0085759D02*
X0262629Y0085759D01*
X0261165Y0084761D02*
X0237095Y0084761D01*
X0265749Y0085759D02*
X0290976Y0085759D01*
X0289511Y0084761D02*
X0267213Y0084761D01*
X0265760Y0051810D02*
X0289586Y0051810D01*
X0295091Y0051810D02*
X0318720Y0051810D01*
X0318457Y0057801D02*
X0295354Y0057801D01*
X0293877Y0058800D02*
X0319934Y0058800D01*
X0323505Y0059798D02*
X0010374Y0059798D01*
X0010374Y0058800D02*
X0028792Y0058800D01*
X0027315Y0057801D02*
X0010374Y0057801D01*
X0010374Y0056803D02*
X0026603Y0056803D01*
X0026190Y0055804D02*
X0010374Y0055804D01*
X0010374Y0054806D02*
X0026173Y0054806D01*
X0026299Y0053807D02*
X0010374Y0053807D01*
X0010374Y0052809D02*
X0026712Y0052809D01*
X0027578Y0051810D02*
X0010374Y0051810D01*
X0010374Y0048814D02*
X0325455Y0048814D01*
X0324456Y0047816D02*
X0010374Y0047816D01*
X0010374Y0046817D02*
X0323458Y0046817D01*
X0322459Y0045819D02*
X0010374Y0045819D01*
X0010374Y0044820D02*
X0321461Y0044820D01*
X0320462Y0043822D02*
X0010374Y0043822D01*
X0010374Y0042823D02*
X0319463Y0042823D01*
X0318465Y0041825D02*
X0010374Y0041825D01*
X0010374Y0040826D02*
X0317466Y0040826D01*
X0316468Y0039828D02*
X0010374Y0039828D01*
X0010374Y0038829D02*
X0315469Y0038829D01*
X0314471Y0037831D02*
X0010374Y0037831D01*
X0010374Y0036832D02*
X0313472Y0036832D01*
X0312474Y0035834D02*
X0010374Y0035834D01*
X0010374Y0034835D02*
X0311475Y0034835D01*
X0310477Y0033837D02*
X0010374Y0033837D01*
X0010374Y0032838D02*
X0309478Y0032838D01*
X0308480Y0031840D02*
X0308423Y0031840D01*
X0305388Y0031840D02*
X0264919Y0031840D01*
X0266408Y0030841D02*
X0303899Y0030841D01*
X0306906Y0027969D02*
X0306984Y0028047D01*
X0307516Y0028047D01*
X0338402Y0058933D01*
X0338402Y0126000D01*
X0330035Y0134366D01*
X0319209Y0134366D01*
X0308972Y0140862D02*
X0316453Y0148343D01*
X0316453Y0153559D01*
X0319238Y0156654D02*
X0319468Y0156654D01*
X0306906Y0144898D02*
X0304445Y0142929D01*
X0304445Y0137319D01*
X0306413Y0137319D02*
X0306413Y0140862D01*
X0308972Y0140862D01*
X0310350Y0125508D02*
X0307398Y0125508D01*
X0310350Y0125508D02*
X0310350Y0113697D01*
X0318307Y0113718D02*
X0332858Y0113718D01*
X0332858Y0114716D02*
X0321621Y0114716D01*
X0322382Y0115715D02*
X0332858Y0115715D01*
X0332858Y0116713D02*
X0324463Y0116713D01*
X0323539Y0118618D02*
X0319209Y0118618D01*
X0319209Y0120587D02*
X0323539Y0120587D01*
X0323539Y0119602D01*
X0323539Y0118618D01*
X0327067Y0117712D02*
X0332858Y0117712D01*
X0332858Y0118710D02*
X0330657Y0118710D01*
X0331691Y0119709D02*
X0332858Y0119709D01*
X0332858Y0120707D02*
X0332219Y0120707D01*
X0332520Y0121706D02*
X0332858Y0121706D01*
X0332858Y0122704D02*
X0332520Y0122704D01*
X0332858Y0112719D02*
X0323152Y0112719D01*
X0324604Y0111721D02*
X0332858Y0111721D01*
X0332858Y0110722D02*
X0325305Y0110722D01*
X0325719Y0109724D02*
X0332858Y0109724D01*
X0332858Y0108725D02*
X0325728Y0108725D01*
X0325596Y0107727D02*
X0332858Y0107727D01*
X0332858Y0106728D02*
X0325182Y0106728D01*
X0324306Y0105730D02*
X0332858Y0105730D01*
X0332858Y0104731D02*
X0323258Y0104731D01*
X0324256Y0103733D02*
X0332858Y0103733D01*
X0332858Y0102734D02*
X0325255Y0102734D01*
X0326253Y0101736D02*
X0332858Y0101736D01*
X0332858Y0100737D02*
X0327252Y0100737D01*
X0328250Y0099739D02*
X0332858Y0099739D01*
X0332858Y0098740D02*
X0329285Y0098740D01*
X0330315Y0097742D02*
X0332858Y0097742D01*
X0332858Y0096743D02*
X0330842Y0096743D01*
X0331142Y0095745D02*
X0332858Y0095745D01*
X0332858Y0094746D02*
X0331142Y0094746D01*
X0330886Y0093747D02*
X0332858Y0093747D01*
X0332858Y0092749D02*
X0330420Y0092749D01*
X0329421Y0091750D02*
X0332858Y0091750D01*
X0334552Y0085759D02*
X0334630Y0085759D01*
X0334630Y0084761D02*
X0333554Y0084761D01*
X0332555Y0083762D02*
X0334630Y0083762D01*
X0334630Y0082764D02*
X0331557Y0082764D01*
X0330558Y0081765D02*
X0334630Y0081765D01*
X0334630Y0080767D02*
X0329560Y0080767D01*
X0327897Y0084761D02*
X0324497Y0084761D01*
X0325087Y0079768D02*
X0334630Y0079768D01*
X0334630Y0078770D02*
X0324216Y0078770D01*
X0334630Y0075774D02*
X0010374Y0075774D01*
X0010374Y0074776D02*
X0334630Y0074776D01*
X0334630Y0073777D02*
X0010374Y0073777D01*
X0010374Y0072779D02*
X0334630Y0072779D01*
X0334630Y0071780D02*
X0010374Y0071780D01*
X0010374Y0070782D02*
X0334489Y0070782D01*
X0333490Y0069783D02*
X0010374Y0069783D01*
X0010374Y0068785D02*
X0332492Y0068785D01*
X0331493Y0067786D02*
X0010374Y0067786D01*
X0010374Y0066788D02*
X0330495Y0066788D01*
X0329496Y0065789D02*
X0010374Y0065789D01*
X0010374Y0064791D02*
X0328498Y0064791D01*
X0327499Y0063792D02*
X0010374Y0063792D01*
X0010374Y0062794D02*
X0326501Y0062794D01*
X0325502Y0061795D02*
X0010374Y0061795D01*
X0010374Y0060797D02*
X0324504Y0060797D01*
X0327165Y0057801D02*
X0334441Y0057801D01*
X0333443Y0056803D02*
X0326166Y0056803D01*
X0325613Y0055804D02*
X0332444Y0055804D01*
X0331446Y0054806D02*
X0325630Y0054806D01*
X0325504Y0053807D02*
X0330447Y0053807D01*
X0329449Y0052809D02*
X0325091Y0052809D01*
X0324225Y0051810D02*
X0328450Y0051810D01*
X0328163Y0058800D02*
X0335440Y0058800D01*
X0336402Y0059798D02*
X0329162Y0059798D01*
X0330160Y0060797D02*
X0336402Y0060797D01*
X0336402Y0061795D02*
X0331159Y0061795D01*
X0332157Y0062794D02*
X0336402Y0062794D01*
X0336402Y0063792D02*
X0333156Y0063792D01*
X0334154Y0064791D02*
X0336402Y0064791D01*
X0336402Y0065789D02*
X0335153Y0065789D01*
X0336152Y0066788D02*
X0336402Y0066788D01*
X0306906Y0027969D02*
X0263402Y0027969D01*
X0219701Y0027969D01*
X0171276Y0027969D01*
X0171079Y0028165D01*
X0132555Y0028165D01*
X0132437Y0028047D01*
X0132614Y0028047D01*
X0132693Y0027969D01*
X0093520Y0027969D01*
X0095038Y0031840D02*
X0131175Y0031840D01*
X0129686Y0030841D02*
X0096526Y0030841D01*
X0092002Y0031840D02*
X0046416Y0031840D01*
X0047904Y0030841D02*
X0090513Y0030841D01*
X0090758Y0024850D02*
X0047659Y0024850D01*
X0042136Y0024850D02*
X0010374Y0024850D01*
X0010374Y0025849D02*
X0041276Y0025849D01*
X0040862Y0026847D02*
X0010374Y0026847D01*
X0010374Y0027846D02*
X0040740Y0027846D01*
X0040760Y0028844D02*
X0010374Y0028844D01*
X0010374Y0029843D02*
X0041174Y0029843D01*
X0041891Y0030841D02*
X0010374Y0030841D01*
X0010374Y0031840D02*
X0043380Y0031840D01*
X0033083Y0051810D02*
X0056712Y0051810D01*
X0059465Y0054937D02*
X0088402Y0054937D01*
X0088618Y0054937D01*
X0088657Y0054976D01*
X0117496Y0054976D01*
X0117535Y0054937D01*
X0117791Y0054937D01*
X0117831Y0054976D01*
X0146827Y0054976D01*
X0146866Y0054937D01*
X0175409Y0054937D01*
X0176177Y0054937D01*
X0176217Y0054976D01*
X0202378Y0054976D01*
X0201528Y0057801D02*
X0178425Y0057801D01*
X0176948Y0058800D02*
X0203004Y0058800D01*
X0201791Y0051810D02*
X0178162Y0051810D01*
X0173871Y0058800D02*
X0148405Y0058800D01*
X0149882Y0057801D02*
X0172394Y0057801D01*
X0172657Y0051810D02*
X0149619Y0051810D01*
X0145327Y0058800D02*
X0119074Y0058800D01*
X0120551Y0057801D02*
X0143851Y0057801D01*
X0144114Y0051810D02*
X0120288Y0051810D01*
X0114783Y0051810D02*
X0091154Y0051810D01*
X0085649Y0051810D02*
X0062217Y0051810D01*
X0062480Y0057801D02*
X0085386Y0057801D01*
X0086863Y0058800D02*
X0061003Y0058800D01*
X0057926Y0058800D02*
X0031870Y0058800D01*
X0033346Y0057801D02*
X0056449Y0057801D01*
X0046374Y0054937D02*
X0044799Y0054937D01*
X0032681Y0078770D02*
X0057508Y0078770D01*
X0062996Y0078770D02*
X0086642Y0078770D01*
X0090946Y0085759D02*
X0116763Y0085759D01*
X0115299Y0084761D02*
X0092410Y0084761D01*
X0092130Y0078770D02*
X0115579Y0078770D01*
X0121067Y0078770D02*
X0145303Y0078770D01*
X0150791Y0078770D02*
X0174044Y0078770D01*
X0146487Y0085759D02*
X0119883Y0085759D01*
X0121347Y0084761D02*
X0145023Y0084761D01*
X0146357Y0104731D02*
X0118791Y0104731D01*
X0117067Y0104731D02*
X0090034Y0104731D01*
X0091629Y0105730D02*
X0115194Y0105730D01*
X0120664Y0105730D02*
X0144623Y0105730D01*
X0146866Y0108835D02*
X0147457Y0108776D01*
X0147437Y0108835D02*
X0146866Y0108835D01*
X0144522Y0111721D02*
X0120962Y0111721D01*
X0119510Y0112719D02*
X0146113Y0112719D01*
X0131903Y0115715D02*
X0010374Y0115715D01*
X0010374Y0116713D02*
X0130391Y0116713D01*
X0129665Y0117712D02*
X0010374Y0117712D01*
X0010374Y0118710D02*
X0129251Y0118710D01*
X0129224Y0119709D02*
X0010374Y0119709D01*
X0010374Y0120707D02*
X0129340Y0120707D01*
X0129753Y0121706D02*
X0010374Y0121706D01*
X0010374Y0112719D02*
X0028987Y0112719D01*
X0027396Y0111721D02*
X0010374Y0111721D01*
X0010374Y0110722D02*
X0026637Y0110722D01*
X0026223Y0109724D02*
X0010374Y0109724D01*
X0010374Y0108725D02*
X0026173Y0108725D01*
X0026265Y0107727D02*
X0010374Y0107727D01*
X0010374Y0106728D02*
X0026679Y0106728D01*
X0027497Y0105730D02*
X0010374Y0105730D01*
X0010374Y0104731D02*
X0029231Y0104731D01*
X0028377Y0085759D02*
X0010374Y0085759D01*
X0010374Y0084761D02*
X0026913Y0084761D01*
X0026206Y0083762D02*
X0010374Y0083762D01*
X0010374Y0082764D02*
X0025793Y0082764D01*
X0025780Y0081765D02*
X0010374Y0081765D01*
X0010374Y0080767D02*
X0025909Y0080767D01*
X0026322Y0079768D02*
X0010374Y0079768D01*
X0010374Y0078770D02*
X0027193Y0078770D01*
X0031497Y0085759D02*
X0058692Y0085759D01*
X0057228Y0084761D02*
X0032961Y0084761D01*
X0073933Y0028165D02*
X0074130Y0027969D01*
X0073933Y0027969D02*
X0073933Y0028165D01*
X0096281Y0024850D02*
X0129932Y0024850D01*
X0135454Y0024850D02*
X0168514Y0024850D01*
X0167875Y0030841D02*
X0135700Y0030841D01*
X0134211Y0031840D02*
X0169086Y0031840D01*
X0173072Y0031840D02*
X0218183Y0031840D01*
X0216694Y0030841D02*
X0174282Y0030841D01*
X0173643Y0024850D02*
X0216940Y0024850D01*
X0222462Y0024850D02*
X0260640Y0024850D01*
X0260395Y0030841D02*
X0222708Y0030841D01*
X0221219Y0031840D02*
X0261884Y0031840D01*
X0266163Y0024850D02*
X0304144Y0024850D01*
X0334461Y0010871D02*
X0017933Y0010871D01*
X0015492Y0011870D02*
X0336901Y0011870D01*
X0338276Y0012868D02*
X0014118Y0012868D01*
X0013051Y0013867D02*
X0339343Y0013867D01*
X0340068Y0014865D02*
X0012325Y0014865D01*
X0089940Y0058800D02*
X0115997Y0058800D01*
X0114520Y0057801D02*
X0091417Y0057801D01*
X0091533Y0111721D02*
X0114896Y0111721D01*
X0116348Y0112719D02*
X0089803Y0112719D01*
X0075327Y0171631D02*
X0116569Y0171631D01*
X0116464Y0171737D02*
X0117721Y0170480D01*
X0119363Y0169799D01*
X0121141Y0169799D01*
X0122783Y0170480D01*
X0124040Y0171737D01*
X0124720Y0173379D01*
X0124720Y0175157D01*
X0124040Y0176799D01*
X0122783Y0178056D01*
X0121141Y0178736D01*
X0119363Y0178736D01*
X0117721Y0178056D01*
X0116464Y0176799D01*
X0115783Y0175157D01*
X0115783Y0173379D01*
X0116464Y0171737D01*
X0116094Y0172630D02*
X0075335Y0172630D01*
X0075335Y0173628D02*
X0115783Y0173628D01*
X0115783Y0174627D02*
X0075335Y0174627D01*
X0075335Y0175625D02*
X0115978Y0175625D01*
X0116391Y0176624D02*
X0075335Y0176624D01*
X0075335Y0177622D02*
X0117287Y0177622D01*
X0119085Y0178621D02*
X0075335Y0178621D01*
X0075335Y0179619D02*
X0342020Y0179619D01*
X0305458Y0163643D02*
X0302613Y0163643D01*
X0297567Y0170633D02*
X0292851Y0170633D01*
X0293153Y0169634D02*
X0291198Y0169634D01*
X0291923Y0168636D02*
X0292155Y0168636D01*
X0293860Y0171631D02*
X0296569Y0171631D01*
X0296094Y0172630D02*
X0294418Y0172630D01*
X0294675Y0173628D02*
X0295783Y0173628D01*
X0295783Y0174627D02*
X0290736Y0174627D01*
X0289768Y0174627D02*
X0284720Y0174627D01*
X0284720Y0175157D02*
X0284040Y0176799D01*
X0282783Y0178056D01*
X0281141Y0178736D01*
X0279363Y0178736D01*
X0277721Y0178056D01*
X0276464Y0176799D01*
X0275783Y0175157D01*
X0275783Y0173379D01*
X0276464Y0171737D01*
X0277721Y0170480D01*
X0279363Y0169799D01*
X0281141Y0169799D01*
X0282783Y0170480D01*
X0284040Y0171737D01*
X0284720Y0173379D01*
X0284720Y0175157D01*
X0284526Y0175625D02*
X0285995Y0175625D01*
X0286440Y0176624D02*
X0284113Y0176624D01*
X0283217Y0177622D02*
X0287287Y0177622D01*
X0289189Y0178621D02*
X0281419Y0178621D01*
X0279085Y0178621D02*
X0271419Y0178621D01*
X0271141Y0178736D02*
X0272783Y0178056D01*
X0274040Y0176799D01*
X0274720Y0175157D01*
X0274720Y0173379D01*
X0274040Y0171737D01*
X0272783Y0170480D01*
X0271141Y0169799D01*
X0269363Y0169799D01*
X0267721Y0170480D01*
X0266464Y0171737D01*
X0265783Y0173379D01*
X0265783Y0175157D01*
X0266464Y0176799D01*
X0267721Y0178056D01*
X0269363Y0178736D01*
X0271141Y0178736D01*
X0269768Y0179820D02*
X0269768Y0183783D01*
X0265804Y0183783D01*
X0265893Y0183221D01*
X0266111Y0182552D01*
X0266430Y0181926D01*
X0266844Y0181357D01*
X0267341Y0180859D01*
X0267910Y0180446D01*
X0268537Y0180127D01*
X0269206Y0179909D01*
X0269768Y0179820D01*
X0269768Y0180618D02*
X0270736Y0180618D01*
X0270736Y0181616D02*
X0269768Y0181616D01*
X0269768Y0182615D02*
X0270736Y0182615D01*
X0270736Y0183613D02*
X0269768Y0183613D01*
X0269768Y0184612D02*
X0264720Y0184612D01*
X0264720Y0183613D02*
X0265831Y0183613D01*
X0266091Y0182615D02*
X0264404Y0182615D01*
X0263920Y0181616D02*
X0266655Y0181616D01*
X0267673Y0180618D02*
X0262922Y0180618D01*
X0261419Y0178621D02*
X0269085Y0178621D01*
X0267287Y0177622D02*
X0263217Y0177622D01*
X0264113Y0176624D02*
X0266391Y0176624D01*
X0265978Y0175625D02*
X0264526Y0175625D01*
X0264720Y0174627D02*
X0265783Y0174627D01*
X0265783Y0173628D02*
X0264720Y0173628D01*
X0264410Y0172630D02*
X0266094Y0172630D01*
X0266569Y0171631D02*
X0263935Y0171631D01*
X0262937Y0170633D02*
X0267567Y0170633D01*
X0272937Y0170633D02*
X0277567Y0170633D01*
X0276569Y0171631D02*
X0273935Y0171631D01*
X0274410Y0172630D02*
X0276094Y0172630D01*
X0275783Y0173628D02*
X0274720Y0173628D01*
X0274720Y0174627D02*
X0275783Y0174627D01*
X0275978Y0175625D02*
X0274526Y0175625D01*
X0274113Y0176624D02*
X0276391Y0176624D01*
X0277287Y0177622D02*
X0273217Y0177622D01*
X0272831Y0180618D02*
X0277582Y0180618D01*
X0276584Y0181616D02*
X0273849Y0181616D01*
X0274413Y0182615D02*
X0276100Y0182615D01*
X0275783Y0183613D02*
X0274673Y0183613D01*
X0275783Y0184612D02*
X0270736Y0184612D01*
X0270736Y0185611D02*
X0269768Y0185611D01*
X0269768Y0186609D02*
X0270736Y0186609D01*
X0270736Y0187608D02*
X0269768Y0187608D01*
X0267272Y0187608D02*
X0263232Y0187608D01*
X0264119Y0186609D02*
X0266430Y0186609D01*
X0265990Y0185611D02*
X0264532Y0185611D01*
X0257272Y0187608D02*
X0253232Y0187608D01*
X0254119Y0186609D02*
X0256385Y0186609D01*
X0255972Y0185611D02*
X0254532Y0185611D01*
X0254720Y0184612D02*
X0255783Y0184612D01*
X0255783Y0183613D02*
X0254720Y0183613D01*
X0254404Y0182615D02*
X0256100Y0182615D01*
X0256584Y0181616D02*
X0253920Y0181616D01*
X0252922Y0180618D02*
X0257582Y0180618D01*
X0259085Y0178621D02*
X0251314Y0178621D01*
X0251298Y0178626D02*
X0250736Y0178715D01*
X0250736Y0174752D01*
X0249768Y0174752D01*
X0249768Y0178715D01*
X0249206Y0178626D01*
X0248537Y0178409D01*
X0247910Y0178090D01*
X0247341Y0177676D01*
X0246844Y0177179D01*
X0246430Y0176610D01*
X0246111Y0175983D01*
X0245893Y0175314D01*
X0245804Y0174752D01*
X0249768Y0174752D01*
X0249768Y0173783D01*
X0250736Y0173783D01*
X0250736Y0169820D01*
X0251298Y0169909D01*
X0251967Y0170127D01*
X0252594Y0170446D01*
X0253163Y0170859D01*
X0253660Y0171357D01*
X0254074Y0171926D01*
X0254393Y0172552D01*
X0254610Y0173221D01*
X0254699Y0173783D01*
X0250736Y0173783D01*
X0250736Y0174752D01*
X0254699Y0174752D01*
X0254610Y0175314D01*
X0254393Y0175983D01*
X0254074Y0176610D01*
X0253660Y0177179D01*
X0253163Y0177676D01*
X0252594Y0178090D01*
X0251967Y0178409D01*
X0251298Y0178626D01*
X0250736Y0178621D02*
X0249768Y0178621D01*
X0249189Y0178621D02*
X0241419Y0178621D01*
X0241141Y0178736D02*
X0239363Y0178736D01*
X0237721Y0178056D01*
X0236464Y0176799D01*
X0235783Y0175157D01*
X0235783Y0173379D01*
X0236464Y0171737D01*
X0237721Y0170480D01*
X0239363Y0169799D01*
X0241141Y0169799D01*
X0242783Y0170480D01*
X0244040Y0171737D01*
X0244720Y0173379D01*
X0244720Y0175157D01*
X0244040Y0176799D01*
X0242783Y0178056D01*
X0241141Y0178736D01*
X0239085Y0178621D02*
X0231419Y0178621D01*
X0231141Y0178736D02*
X0229363Y0178736D01*
X0227721Y0178056D01*
X0226464Y0176799D01*
X0225783Y0175157D01*
X0225783Y0173379D01*
X0226464Y0171737D01*
X0227721Y0170480D01*
X0229363Y0169799D01*
X0231141Y0169799D01*
X0232783Y0170480D01*
X0234040Y0171737D01*
X0234720Y0173379D01*
X0234720Y0175157D01*
X0234040Y0176799D01*
X0232783Y0178056D01*
X0231141Y0178736D01*
X0229085Y0178621D02*
X0221314Y0178621D01*
X0221298Y0178626D02*
X0220736Y0178715D01*
X0220736Y0174752D01*
X0219768Y0174752D01*
X0219768Y0178715D01*
X0219206Y0178626D01*
X0218537Y0178409D01*
X0217910Y0178090D01*
X0217341Y0177676D01*
X0216844Y0177179D01*
X0216430Y0176610D01*
X0216111Y0175983D01*
X0215893Y0175314D01*
X0215804Y0174752D01*
X0219768Y0174752D01*
X0219768Y0173783D01*
X0220736Y0173783D01*
X0220736Y0169820D01*
X0221298Y0169909D01*
X0221967Y0170127D01*
X0222594Y0170446D01*
X0223163Y0170859D01*
X0223660Y0171357D01*
X0224074Y0171926D01*
X0224393Y0172552D01*
X0224610Y0173221D01*
X0224699Y0173783D01*
X0220736Y0173783D01*
X0220736Y0174752D01*
X0224699Y0174752D01*
X0224610Y0175314D01*
X0224393Y0175983D01*
X0224074Y0176610D01*
X0223660Y0177179D01*
X0223163Y0177676D01*
X0222594Y0178090D01*
X0221967Y0178409D01*
X0221298Y0178626D01*
X0220736Y0178621D02*
X0219768Y0178621D01*
X0219189Y0178621D02*
X0211419Y0178621D01*
X0211141Y0178736D02*
X0209363Y0178736D01*
X0207721Y0178056D01*
X0206464Y0176799D01*
X0205783Y0175157D01*
X0205783Y0173379D01*
X0206464Y0171737D01*
X0207721Y0170480D01*
X0209363Y0169799D01*
X0211141Y0169799D01*
X0212783Y0170480D01*
X0214040Y0171737D01*
X0214720Y0173379D01*
X0214720Y0175157D01*
X0214040Y0176799D01*
X0212783Y0178056D01*
X0211141Y0178736D01*
X0209085Y0178621D02*
X0201419Y0178621D01*
X0201141Y0178736D02*
X0199363Y0178736D01*
X0197721Y0178056D01*
X0196464Y0176799D01*
X0195783Y0175157D01*
X0195783Y0173379D01*
X0196464Y0171737D01*
X0197721Y0170480D01*
X0199363Y0169799D01*
X0201141Y0169799D01*
X0202783Y0170480D01*
X0204040Y0171737D01*
X0204720Y0173379D01*
X0204720Y0175157D01*
X0204040Y0176799D01*
X0202783Y0178056D01*
X0201141Y0178736D01*
X0199085Y0178621D02*
X0191419Y0178621D01*
X0191141Y0178736D02*
X0189363Y0178736D01*
X0187721Y0178056D01*
X0186464Y0176799D01*
X0185783Y0175157D01*
X0185783Y0173379D01*
X0186464Y0171737D01*
X0187721Y0170480D01*
X0189363Y0169799D01*
X0191141Y0169799D01*
X0192783Y0170480D01*
X0194040Y0171737D01*
X0194720Y0173379D01*
X0194720Y0175157D01*
X0194040Y0176799D01*
X0192783Y0178056D01*
X0191141Y0178736D01*
X0189768Y0179820D02*
X0189768Y0183783D01*
X0185804Y0183783D01*
X0185893Y0183221D01*
X0186111Y0182552D01*
X0186430Y0181926D01*
X0186844Y0181357D01*
X0187341Y0180859D01*
X0187910Y0180446D01*
X0188537Y0180127D01*
X0189206Y0179909D01*
X0189768Y0179820D01*
X0189768Y0180618D02*
X0190736Y0180618D01*
X0190736Y0181616D02*
X0189768Y0181616D01*
X0189768Y0182615D02*
X0190736Y0182615D01*
X0190736Y0183613D02*
X0189768Y0183613D01*
X0189768Y0184612D02*
X0184720Y0184612D01*
X0184720Y0183613D02*
X0185831Y0183613D01*
X0186091Y0182615D02*
X0184404Y0182615D01*
X0183920Y0181616D02*
X0186655Y0181616D01*
X0187673Y0180618D02*
X0182922Y0180618D01*
X0181419Y0178621D02*
X0189085Y0178621D01*
X0187287Y0177622D02*
X0183217Y0177622D01*
X0182783Y0178056D02*
X0181141Y0178736D01*
X0179363Y0178736D01*
X0177721Y0178056D01*
X0176464Y0176799D01*
X0175783Y0175157D01*
X0175783Y0173379D01*
X0176464Y0171737D01*
X0177721Y0170480D01*
X0179363Y0169799D01*
X0181141Y0169799D01*
X0182783Y0170480D01*
X0184040Y0171737D01*
X0184720Y0173379D01*
X0184720Y0175157D01*
X0184040Y0176799D01*
X0182783Y0178056D01*
X0184113Y0176624D02*
X0186391Y0176624D01*
X0185978Y0175625D02*
X0184526Y0175625D01*
X0184720Y0174627D02*
X0185783Y0174627D01*
X0185783Y0173628D02*
X0184720Y0173628D01*
X0184410Y0172630D02*
X0186094Y0172630D01*
X0186569Y0171631D02*
X0183935Y0171631D01*
X0182937Y0170633D02*
X0187567Y0170633D01*
X0192937Y0170633D02*
X0197567Y0170633D01*
X0196569Y0171631D02*
X0193935Y0171631D01*
X0194410Y0172630D02*
X0196094Y0172630D01*
X0195783Y0173628D02*
X0194720Y0173628D01*
X0194720Y0174627D02*
X0195783Y0174627D01*
X0195978Y0175625D02*
X0194526Y0175625D01*
X0194113Y0176624D02*
X0196391Y0176624D01*
X0197287Y0177622D02*
X0193217Y0177622D01*
X0192831Y0180618D02*
X0197582Y0180618D01*
X0196584Y0181616D02*
X0193849Y0181616D01*
X0194413Y0182615D02*
X0196100Y0182615D01*
X0195783Y0183613D02*
X0194673Y0183613D01*
X0195783Y0184612D02*
X0190736Y0184612D01*
X0190736Y0185611D02*
X0189768Y0185611D01*
X0189768Y0186609D02*
X0190736Y0186609D01*
X0190736Y0187608D02*
X0189768Y0187608D01*
X0187272Y0187608D02*
X0183232Y0187608D01*
X0184119Y0186609D02*
X0186430Y0186609D01*
X0185990Y0185611D02*
X0184532Y0185611D01*
X0177272Y0187608D02*
X0173232Y0187608D01*
X0174119Y0186609D02*
X0176385Y0186609D01*
X0175972Y0185611D02*
X0174532Y0185611D01*
X0174720Y0184612D02*
X0175783Y0184612D01*
X0175783Y0183613D02*
X0174720Y0183613D01*
X0174404Y0182615D02*
X0176100Y0182615D01*
X0176584Y0181616D02*
X0173920Y0181616D01*
X0172922Y0180618D02*
X0177582Y0180618D01*
X0179085Y0178621D02*
X0171314Y0178621D01*
X0171298Y0178626D02*
X0170736Y0178715D01*
X0170736Y0174752D01*
X0169768Y0174752D01*
X0169768Y0178715D01*
X0169206Y0178626D01*
X0168537Y0178409D01*
X0167910Y0178090D01*
X0167341Y0177676D01*
X0166844Y0177179D01*
X0166430Y0176610D01*
X0166111Y0175983D01*
X0165893Y0175314D01*
X0165804Y0174752D01*
X0169768Y0174752D01*
X0169768Y0173783D01*
X0170736Y0173783D01*
X0170736Y0169820D01*
X0171298Y0169909D01*
X0171967Y0170127D01*
X0172594Y0170446D01*
X0173163Y0170859D01*
X0173660Y0171357D01*
X0174074Y0171926D01*
X0174393Y0172552D01*
X0174610Y0173221D01*
X0174699Y0173783D01*
X0170736Y0173783D01*
X0170736Y0174752D01*
X0174699Y0174752D01*
X0174610Y0175314D01*
X0174393Y0175983D01*
X0174074Y0176610D01*
X0173660Y0177179D01*
X0173163Y0177676D01*
X0172594Y0178090D01*
X0171967Y0178409D01*
X0171298Y0178626D01*
X0170736Y0178621D02*
X0169768Y0178621D01*
X0169189Y0178621D02*
X0161419Y0178621D01*
X0161141Y0178736D02*
X0159363Y0178736D01*
X0157721Y0178056D01*
X0156464Y0176799D01*
X0155783Y0175157D01*
X0155783Y0173379D01*
X0156464Y0171737D01*
X0157721Y0170480D01*
X0159363Y0169799D01*
X0161141Y0169799D01*
X0162783Y0170480D01*
X0164040Y0171737D01*
X0164720Y0173379D01*
X0164720Y0175157D01*
X0164040Y0176799D01*
X0162783Y0178056D01*
X0161141Y0178736D01*
X0159085Y0178621D02*
X0151314Y0178621D01*
X0151298Y0178626D02*
X0150736Y0178715D01*
X0150736Y0174752D01*
X0149768Y0174752D01*
X0149768Y0178715D01*
X0149206Y0178626D01*
X0148537Y0178409D01*
X0147910Y0178090D01*
X0147341Y0177676D01*
X0146844Y0177179D01*
X0146430Y0176610D01*
X0146111Y0175983D01*
X0145893Y0175314D01*
X0145804Y0174752D01*
X0149768Y0174752D01*
X0149768Y0173783D01*
X0150736Y0173783D01*
X0150736Y0169820D01*
X0151298Y0169909D01*
X0151967Y0170127D01*
X0152594Y0170446D01*
X0153163Y0170859D01*
X0153660Y0171357D01*
X0154074Y0171926D01*
X0154393Y0172552D01*
X0154610Y0173221D01*
X0154699Y0173783D01*
X0150736Y0173783D01*
X0150736Y0174752D01*
X0154699Y0174752D01*
X0154610Y0175314D01*
X0154393Y0175983D01*
X0154074Y0176610D01*
X0153660Y0177179D01*
X0153163Y0177676D01*
X0152594Y0178090D01*
X0151967Y0178409D01*
X0151298Y0178626D01*
X0150736Y0178621D02*
X0149768Y0178621D01*
X0149189Y0178621D02*
X0141419Y0178621D01*
X0141141Y0178736D02*
X0139363Y0178736D01*
X0137721Y0178056D01*
X0136464Y0176799D01*
X0135783Y0175157D01*
X0135783Y0173379D01*
X0136464Y0171737D01*
X0137721Y0170480D01*
X0139363Y0169799D01*
X0141141Y0169799D01*
X0142783Y0170480D01*
X0144040Y0171737D01*
X0144720Y0173379D01*
X0144720Y0175157D01*
X0144040Y0176799D01*
X0142783Y0178056D01*
X0141141Y0178736D01*
X0139085Y0178621D02*
X0131419Y0178621D01*
X0131141Y0178736D02*
X0129363Y0178736D01*
X0127721Y0178056D01*
X0126464Y0176799D01*
X0125783Y0175157D01*
X0125783Y0173379D01*
X0126464Y0171737D01*
X0127721Y0170480D01*
X0129363Y0169799D01*
X0131141Y0169799D01*
X0132783Y0170480D01*
X0134040Y0171737D01*
X0134720Y0173379D01*
X0134720Y0175157D01*
X0134040Y0176799D01*
X0132783Y0178056D01*
X0131141Y0178736D01*
X0129085Y0178621D02*
X0121419Y0178621D01*
X0119768Y0179820D02*
X0119768Y0183783D01*
X0115804Y0183783D01*
X0115893Y0183221D01*
X0116111Y0182552D01*
X0116430Y0181926D01*
X0116844Y0181357D01*
X0117341Y0180859D01*
X0117910Y0180446D01*
X0118537Y0180127D01*
X0119206Y0179909D01*
X0119768Y0179820D01*
X0119768Y0180618D02*
X0120736Y0180618D01*
X0120736Y0181616D02*
X0119768Y0181616D01*
X0119768Y0182615D02*
X0120736Y0182615D01*
X0120736Y0183613D02*
X0119768Y0183613D01*
X0119768Y0184612D02*
X0075335Y0184612D01*
X0075335Y0183613D02*
X0115831Y0183613D01*
X0116091Y0182615D02*
X0075335Y0182615D01*
X0075335Y0181616D02*
X0116655Y0181616D01*
X0117673Y0180618D02*
X0075335Y0180618D01*
X0075335Y0185611D02*
X0115990Y0185611D01*
X0116430Y0186609D02*
X0075335Y0186609D01*
X0075335Y0187608D02*
X0117272Y0187608D01*
X0119768Y0187608D02*
X0120736Y0187608D01*
X0120736Y0186609D02*
X0119768Y0186609D01*
X0119768Y0185611D02*
X0120736Y0185611D01*
X0120736Y0184612D02*
X0125783Y0184612D01*
X0125783Y0183613D02*
X0124673Y0183613D01*
X0124413Y0182615D02*
X0126100Y0182615D01*
X0126584Y0181616D02*
X0123849Y0181616D01*
X0122831Y0180618D02*
X0127582Y0180618D01*
X0127287Y0177622D02*
X0123217Y0177622D01*
X0124113Y0176624D02*
X0126391Y0176624D01*
X0125978Y0175625D02*
X0124526Y0175625D01*
X0124720Y0174627D02*
X0125783Y0174627D01*
X0125783Y0173628D02*
X0124720Y0173628D01*
X0124410Y0172630D02*
X0126094Y0172630D01*
X0126569Y0171631D02*
X0123935Y0171631D01*
X0122937Y0170633D02*
X0127567Y0170633D01*
X0132937Y0170633D02*
X0137567Y0170633D01*
X0136569Y0171631D02*
X0133935Y0171631D01*
X0134410Y0172630D02*
X0136094Y0172630D01*
X0135783Y0173628D02*
X0134720Y0173628D01*
X0134720Y0174627D02*
X0135783Y0174627D01*
X0135978Y0175625D02*
X0134526Y0175625D01*
X0134113Y0176624D02*
X0136391Y0176624D01*
X0137287Y0177622D02*
X0133217Y0177622D01*
X0132922Y0180618D02*
X0137582Y0180618D01*
X0136584Y0181616D02*
X0133920Y0181616D01*
X0134404Y0182615D02*
X0136100Y0182615D01*
X0135783Y0183613D02*
X0134720Y0183613D01*
X0134720Y0184612D02*
X0135783Y0184612D01*
X0135972Y0185611D02*
X0134532Y0185611D01*
X0134119Y0186609D02*
X0136385Y0186609D01*
X0137272Y0187608D02*
X0133232Y0187608D01*
X0127272Y0187608D02*
X0123232Y0187608D01*
X0124074Y0186609D02*
X0126385Y0186609D01*
X0125972Y0185611D02*
X0124514Y0185611D01*
X0117567Y0170633D02*
X0012146Y0170633D01*
X0010769Y0169634D02*
X0252627Y0169634D01*
X0252851Y0170633D02*
X0253533Y0170633D01*
X0253860Y0171631D02*
X0256569Y0171631D01*
X0256094Y0172630D02*
X0254418Y0172630D01*
X0254675Y0173628D02*
X0255783Y0173628D01*
X0255783Y0174627D02*
X0250736Y0174627D01*
X0249768Y0174627D02*
X0244720Y0174627D01*
X0244720Y0173628D02*
X0245829Y0173628D01*
X0245804Y0173783D02*
X0245893Y0173221D01*
X0246111Y0172552D01*
X0246430Y0171926D01*
X0246844Y0171357D01*
X0247341Y0170859D01*
X0247910Y0170446D01*
X0248537Y0170127D01*
X0249206Y0169909D01*
X0249768Y0169820D01*
X0249768Y0173783D01*
X0245804Y0173783D01*
X0246086Y0172630D02*
X0244410Y0172630D01*
X0243935Y0171631D02*
X0246644Y0171631D01*
X0247653Y0170633D02*
X0242937Y0170633D01*
X0244526Y0175625D02*
X0245995Y0175625D01*
X0246440Y0176624D02*
X0244113Y0176624D01*
X0243217Y0177622D02*
X0247287Y0177622D01*
X0249768Y0177622D02*
X0250736Y0177622D01*
X0250736Y0176624D02*
X0249768Y0176624D01*
X0249768Y0175625D02*
X0250736Y0175625D01*
X0250736Y0173628D02*
X0249768Y0173628D01*
X0249768Y0172630D02*
X0250736Y0172630D01*
X0250736Y0171631D02*
X0249768Y0171631D01*
X0249768Y0170633D02*
X0250736Y0170633D01*
X0252213Y0168636D02*
X0010405Y0168636D01*
X0010374Y0167637D02*
X0252059Y0167637D01*
X0252059Y0166639D02*
X0010374Y0166639D01*
X0010374Y0165640D02*
X0251167Y0165640D01*
X0250169Y0164642D02*
X0010374Y0164642D01*
X0010374Y0163643D02*
X0249170Y0163643D01*
X0248172Y0162645D02*
X0010374Y0162645D01*
X0010374Y0161646D02*
X0247420Y0161646D01*
X0247420Y0160648D02*
X0010374Y0160648D01*
X0010374Y0159649D02*
X0247420Y0159649D01*
X0247420Y0158651D02*
X0010374Y0158651D01*
X0010374Y0157652D02*
X0247420Y0157652D01*
X0247420Y0156654D02*
X0010374Y0156654D01*
X0010374Y0155655D02*
X0247420Y0155655D01*
X0247420Y0154657D02*
X0010374Y0154657D01*
X0010374Y0153658D02*
X0247188Y0153658D01*
X0246193Y0152660D02*
X0010374Y0152660D01*
X0010374Y0151661D02*
X0245780Y0151661D01*
X0245563Y0150663D02*
X0010374Y0150663D01*
X0143444Y0148666D02*
X0151371Y0148666D01*
X0149951Y0147667D02*
X0144864Y0147667D01*
X0145862Y0146669D02*
X0148953Y0146669D01*
X0147954Y0145670D02*
X0146861Y0145670D01*
X0149768Y0169820D02*
X0149768Y0173783D01*
X0145804Y0173783D01*
X0145893Y0173221D01*
X0146111Y0172552D01*
X0146430Y0171926D01*
X0146844Y0171357D01*
X0147341Y0170859D01*
X0147910Y0170446D01*
X0148537Y0170127D01*
X0149206Y0169909D01*
X0149768Y0169820D01*
X0149768Y0170633D02*
X0150736Y0170633D01*
X0150736Y0171631D02*
X0149768Y0171631D01*
X0149768Y0172630D02*
X0150736Y0172630D01*
X0150736Y0173628D02*
X0149768Y0173628D01*
X0149768Y0174627D02*
X0144720Y0174627D01*
X0144720Y0173628D02*
X0145829Y0173628D01*
X0146086Y0172630D02*
X0144410Y0172630D01*
X0143935Y0171631D02*
X0146644Y0171631D01*
X0147653Y0170633D02*
X0142937Y0170633D01*
X0144526Y0175625D02*
X0145995Y0175625D01*
X0146440Y0176624D02*
X0144113Y0176624D01*
X0143217Y0177622D02*
X0147287Y0177622D01*
X0149768Y0177622D02*
X0150736Y0177622D01*
X0150736Y0176624D02*
X0149768Y0176624D01*
X0149768Y0175625D02*
X0150736Y0175625D01*
X0150736Y0174627D02*
X0155783Y0174627D01*
X0155783Y0173628D02*
X0154675Y0173628D01*
X0154418Y0172630D02*
X0156094Y0172630D01*
X0156569Y0171631D02*
X0153860Y0171631D01*
X0152851Y0170633D02*
X0157567Y0170633D01*
X0155978Y0175625D02*
X0154509Y0175625D01*
X0154063Y0176624D02*
X0156391Y0176624D01*
X0157287Y0177622D02*
X0153217Y0177622D01*
X0152922Y0180618D02*
X0157582Y0180618D01*
X0156584Y0181616D02*
X0153920Y0181616D01*
X0154404Y0182615D02*
X0156100Y0182615D01*
X0155783Y0183613D02*
X0154720Y0183613D01*
X0154720Y0184612D02*
X0155783Y0184612D01*
X0155972Y0185611D02*
X0154532Y0185611D01*
X0154119Y0186609D02*
X0156385Y0186609D01*
X0157272Y0187608D02*
X0153232Y0187608D01*
X0147272Y0187608D02*
X0143232Y0187608D01*
X0144119Y0186609D02*
X0146385Y0186609D01*
X0145972Y0185611D02*
X0144532Y0185611D01*
X0144720Y0184612D02*
X0145783Y0184612D01*
X0145783Y0183613D02*
X0144720Y0183613D01*
X0144404Y0182615D02*
X0146100Y0182615D01*
X0146584Y0181616D02*
X0143920Y0181616D01*
X0142922Y0180618D02*
X0147582Y0180618D01*
X0162922Y0180618D02*
X0167582Y0180618D01*
X0166584Y0181616D02*
X0163920Y0181616D01*
X0164404Y0182615D02*
X0166100Y0182615D01*
X0165783Y0183613D02*
X0164720Y0183613D01*
X0164720Y0184612D02*
X0165783Y0184612D01*
X0165972Y0185611D02*
X0164532Y0185611D01*
X0164119Y0186609D02*
X0166385Y0186609D01*
X0167272Y0187608D02*
X0163232Y0187608D01*
X0163217Y0177622D02*
X0167287Y0177622D01*
X0166440Y0176624D02*
X0164113Y0176624D01*
X0164526Y0175625D02*
X0165995Y0175625D01*
X0164720Y0174627D02*
X0169768Y0174627D01*
X0169768Y0173783D02*
X0165804Y0173783D01*
X0165893Y0173221D01*
X0166111Y0172552D01*
X0166430Y0171926D01*
X0166844Y0171357D01*
X0167341Y0170859D01*
X0167910Y0170446D01*
X0168537Y0170127D01*
X0169206Y0169909D01*
X0169768Y0169820D01*
X0169768Y0173783D01*
X0169768Y0173628D02*
X0170736Y0173628D01*
X0170736Y0172630D02*
X0169768Y0172630D01*
X0169768Y0171631D02*
X0170736Y0171631D01*
X0170736Y0170633D02*
X0169768Y0170633D01*
X0167653Y0170633D02*
X0162937Y0170633D01*
X0163935Y0171631D02*
X0166644Y0171631D01*
X0166086Y0172630D02*
X0164410Y0172630D01*
X0164720Y0173628D02*
X0165829Y0173628D01*
X0169768Y0175625D02*
X0170736Y0175625D01*
X0170736Y0174627D02*
X0175783Y0174627D01*
X0175783Y0173628D02*
X0174675Y0173628D01*
X0174418Y0172630D02*
X0176094Y0172630D01*
X0176569Y0171631D02*
X0173860Y0171631D01*
X0172851Y0170633D02*
X0177567Y0170633D01*
X0175978Y0175625D02*
X0174509Y0175625D01*
X0174063Y0176624D02*
X0176391Y0176624D01*
X0177287Y0177622D02*
X0173217Y0177622D01*
X0170736Y0177622D02*
X0169768Y0177622D01*
X0169768Y0176624D02*
X0170736Y0176624D01*
X0193232Y0187608D02*
X0197272Y0187608D01*
X0196385Y0186609D02*
X0194074Y0186609D01*
X0194514Y0185611D02*
X0195972Y0185611D01*
X0203232Y0187608D02*
X0207272Y0187608D01*
X0206385Y0186609D02*
X0204119Y0186609D01*
X0204532Y0185611D02*
X0205972Y0185611D01*
X0205783Y0184612D02*
X0204720Y0184612D01*
X0204720Y0183613D02*
X0205783Y0183613D01*
X0206100Y0182615D02*
X0204404Y0182615D01*
X0203920Y0181616D02*
X0206584Y0181616D01*
X0207582Y0180618D02*
X0202922Y0180618D01*
X0203217Y0177622D02*
X0207287Y0177622D01*
X0206391Y0176624D02*
X0204113Y0176624D01*
X0204526Y0175625D02*
X0205978Y0175625D01*
X0205783Y0174627D02*
X0204720Y0174627D01*
X0204720Y0173628D02*
X0205783Y0173628D01*
X0206094Y0172630D02*
X0204410Y0172630D01*
X0203935Y0171631D02*
X0206569Y0171631D01*
X0207567Y0170633D02*
X0202937Y0170633D01*
X0212937Y0170633D02*
X0217653Y0170633D01*
X0217910Y0170446D02*
X0218537Y0170127D01*
X0219206Y0169909D01*
X0219768Y0169820D01*
X0219768Y0173783D01*
X0215804Y0173783D01*
X0215893Y0173221D01*
X0216111Y0172552D01*
X0216430Y0171926D01*
X0216844Y0171357D01*
X0217341Y0170859D01*
X0217910Y0170446D01*
X0216644Y0171631D02*
X0213935Y0171631D01*
X0214410Y0172630D02*
X0216086Y0172630D01*
X0215829Y0173628D02*
X0214720Y0173628D01*
X0214720Y0174627D02*
X0219768Y0174627D01*
X0220736Y0174627D02*
X0225783Y0174627D01*
X0225783Y0173628D02*
X0224675Y0173628D01*
X0224418Y0172630D02*
X0226094Y0172630D01*
X0226569Y0171631D02*
X0223860Y0171631D01*
X0222851Y0170633D02*
X0227567Y0170633D01*
X0225978Y0175625D02*
X0224509Y0175625D01*
X0224063Y0176624D02*
X0226391Y0176624D01*
X0227287Y0177622D02*
X0223217Y0177622D01*
X0220736Y0177622D02*
X0219768Y0177622D01*
X0219768Y0176624D02*
X0220736Y0176624D01*
X0220736Y0175625D02*
X0219768Y0175625D01*
X0219768Y0173628D02*
X0220736Y0173628D01*
X0220736Y0172630D02*
X0219768Y0172630D01*
X0219768Y0171631D02*
X0220736Y0171631D01*
X0220736Y0170633D02*
X0219768Y0170633D01*
X0215995Y0175625D02*
X0214526Y0175625D01*
X0214113Y0176624D02*
X0216440Y0176624D01*
X0217287Y0177622D02*
X0213217Y0177622D01*
X0212922Y0180618D02*
X0217582Y0180618D01*
X0216584Y0181616D02*
X0213920Y0181616D01*
X0214404Y0182615D02*
X0216100Y0182615D01*
X0215783Y0183613D02*
X0214720Y0183613D01*
X0214720Y0184612D02*
X0215783Y0184612D01*
X0215972Y0185611D02*
X0214532Y0185611D01*
X0214119Y0186609D02*
X0216385Y0186609D01*
X0217272Y0187608D02*
X0213232Y0187608D01*
X0223232Y0187608D02*
X0227272Y0187608D01*
X0226385Y0186609D02*
X0224119Y0186609D01*
X0224532Y0185611D02*
X0225972Y0185611D01*
X0225783Y0184612D02*
X0224720Y0184612D01*
X0224720Y0183613D02*
X0225783Y0183613D01*
X0226100Y0182615D02*
X0224404Y0182615D01*
X0223920Y0181616D02*
X0226584Y0181616D01*
X0227582Y0180618D02*
X0222922Y0180618D01*
X0232922Y0180618D02*
X0237582Y0180618D01*
X0236584Y0181616D02*
X0233920Y0181616D01*
X0234404Y0182615D02*
X0236100Y0182615D01*
X0235783Y0183613D02*
X0234720Y0183613D01*
X0234720Y0184612D02*
X0235783Y0184612D01*
X0235972Y0185611D02*
X0234532Y0185611D01*
X0234119Y0186609D02*
X0236385Y0186609D01*
X0237272Y0187608D02*
X0233232Y0187608D01*
X0233217Y0177622D02*
X0237287Y0177622D01*
X0236391Y0176624D02*
X0234113Y0176624D01*
X0234526Y0175625D02*
X0235978Y0175625D01*
X0235783Y0174627D02*
X0234720Y0174627D01*
X0234720Y0173628D02*
X0235783Y0173628D01*
X0236094Y0172630D02*
X0234410Y0172630D01*
X0233935Y0171631D02*
X0236569Y0171631D01*
X0237567Y0170633D02*
X0232937Y0170633D01*
X0242922Y0180618D02*
X0247582Y0180618D01*
X0246584Y0181616D02*
X0243920Y0181616D01*
X0244404Y0182615D02*
X0246100Y0182615D01*
X0245783Y0183613D02*
X0244720Y0183613D01*
X0244720Y0184612D02*
X0245783Y0184612D01*
X0245972Y0185611D02*
X0244532Y0185611D01*
X0244119Y0186609D02*
X0246385Y0186609D01*
X0247272Y0187608D02*
X0243232Y0187608D01*
X0253217Y0177622D02*
X0257287Y0177622D01*
X0256391Y0176624D02*
X0254063Y0176624D01*
X0254509Y0175625D02*
X0255978Y0175625D01*
X0259806Y0169634D02*
X0285211Y0169634D01*
X0284487Y0168636D02*
X0260220Y0168636D01*
X0260374Y0167637D02*
X0284073Y0167637D01*
X0284047Y0166639D02*
X0260374Y0166639D01*
X0259972Y0165640D02*
X0283844Y0165640D01*
X0282846Y0164642D02*
X0259301Y0164642D01*
X0257922Y0163643D02*
X0281847Y0163643D01*
X0280849Y0162645D02*
X0254677Y0162645D01*
X0253678Y0161646D02*
X0279850Y0161646D01*
X0278852Y0160648D02*
X0252680Y0160648D01*
X0252020Y0159649D02*
X0277853Y0159649D01*
X0276855Y0158651D02*
X0252020Y0158651D01*
X0252020Y0157652D02*
X0275964Y0157652D01*
X0275964Y0156654D02*
X0252020Y0156654D01*
X0252020Y0155655D02*
X0275964Y0155655D01*
X0275964Y0154657D02*
X0252020Y0154657D01*
X0252253Y0153658D02*
X0275964Y0153658D01*
X0275964Y0152660D02*
X0253248Y0152660D01*
X0253661Y0151661D02*
X0275964Y0151661D01*
X0275098Y0150663D02*
X0253878Y0150663D01*
X0253878Y0149664D02*
X0274474Y0149664D01*
X0274106Y0148666D02*
X0253539Y0148666D01*
X0252956Y0147667D02*
X0274106Y0147667D01*
X0274294Y0146669D02*
X0251791Y0146669D01*
X0261331Y0144672D02*
X0237027Y0144672D01*
X0234642Y0141354D02*
X0234563Y0141276D01*
X0233992Y0141276D01*
X0234563Y0141256D01*
X0232099Y0144672D02*
X0208090Y0144672D01*
X0205030Y0145670D02*
X0274708Y0145670D01*
X0275661Y0144672D02*
X0266456Y0144672D01*
X0263894Y0141354D02*
X0262988Y0141276D01*
X0263736Y0141276D01*
X0263894Y0141354D02*
X0262890Y0141276D01*
X0263539Y0141276D01*
X0282937Y0170633D02*
X0286720Y0170633D01*
X0286644Y0171631D02*
X0283935Y0171631D01*
X0284410Y0172630D02*
X0286086Y0172630D01*
X0285829Y0173628D02*
X0284720Y0173628D01*
X0282922Y0180618D02*
X0287582Y0180618D01*
X0286584Y0181616D02*
X0283920Y0181616D01*
X0284404Y0182615D02*
X0286100Y0182615D01*
X0285783Y0183613D02*
X0284720Y0183613D01*
X0284720Y0184612D02*
X0285783Y0184612D01*
X0285972Y0185611D02*
X0284532Y0185611D01*
X0284119Y0186609D02*
X0286385Y0186609D01*
X0287272Y0187608D02*
X0283232Y0187608D01*
X0277272Y0187608D02*
X0273232Y0187608D01*
X0274074Y0186609D02*
X0276385Y0186609D01*
X0275972Y0185611D02*
X0274514Y0185611D01*
X0290173Y0184346D02*
X0290252Y0184268D01*
X0294404Y0182615D02*
X0296100Y0182615D01*
X0295783Y0183613D02*
X0294720Y0183613D01*
X0294720Y0184612D02*
X0295783Y0184612D01*
X0295972Y0185611D02*
X0294532Y0185611D01*
X0294119Y0186609D02*
X0296385Y0186609D01*
X0297272Y0187608D02*
X0293232Y0187608D01*
X0293920Y0181616D02*
X0296584Y0181616D01*
X0297582Y0180618D02*
X0292922Y0180618D01*
X0291314Y0178621D02*
X0299085Y0178621D01*
X0297287Y0177622D02*
X0293217Y0177622D01*
X0294063Y0176624D02*
X0296391Y0176624D01*
X0295978Y0175625D02*
X0294509Y0175625D01*
X0290736Y0175625D02*
X0289768Y0175625D01*
X0289768Y0176624D02*
X0290736Y0176624D01*
X0290736Y0177622D02*
X0289768Y0177622D01*
X0289768Y0178621D02*
X0290736Y0178621D01*
X0318307Y0112719D02*
X0319990Y0112719D01*
X0318538Y0111721D02*
X0318279Y0111721D01*
D17*
X0321571Y0108874D03*
X0326984Y0095193D03*
X0321472Y0081906D03*
X0321472Y0054937D03*
X0306906Y0027969D03*
X0292339Y0054937D03*
X0292535Y0081906D03*
X0293028Y0108874D03*
X0278461Y0110843D03*
X0263795Y0108776D03*
X0249720Y0112811D03*
X0234563Y0108776D03*
X0234071Y0081906D03*
X0234071Y0054937D03*
X0219701Y0027969D03*
X0204543Y0054937D03*
X0206118Y0081906D03*
X0205626Y0108874D03*
X0191059Y0137417D03*
X0205626Y0141256D03*
X0234563Y0141256D03*
X0249720Y0150311D03*
X0263894Y0141354D03*
X0278264Y0147949D03*
X0292437Y0141256D03*
X0306906Y0144898D03*
X0308480Y0151984D03*
X0306709Y0159661D03*
X0313697Y0162220D03*
X0316453Y0153559D03*
X0321768Y0141945D03*
X0338598Y0132398D03*
X0328362Y0122260D03*
X0298539Y0162614D03*
X0288205Y0166748D03*
X0256217Y0167437D03*
X0312614Y0203756D03*
X0264189Y0081906D03*
X0263008Y0054937D03*
X0263402Y0027969D03*
X0176787Y0081906D03*
X0176000Y0108776D03*
X0162024Y0137122D03*
X0147457Y0141354D03*
X0127673Y0136236D03*
X0117831Y0141354D03*
X0133382Y0119602D03*
X0147457Y0108776D03*
X0148047Y0081906D03*
X0146866Y0054937D03*
X0132693Y0027969D03*
X0117535Y0054937D03*
X0118323Y0081906D03*
X0117929Y0108874D03*
X0097260Y0135547D03*
X0088697Y0140961D03*
X0069110Y0134858D03*
X0059563Y0141256D03*
X0038697Y0135055D03*
X0030626Y0141256D03*
X0030331Y0108776D03*
X0029937Y0081906D03*
X0030331Y0054937D03*
X0044898Y0027969D03*
X0059465Y0054937D03*
X0060252Y0081906D03*
X0059366Y0108776D03*
X0088697Y0108677D03*
X0089386Y0081906D03*
X0088402Y0054937D03*
X0093520Y0027969D03*
X0171079Y0028165D03*
X0175409Y0054937D03*
X0176197Y0141256D03*
D18*
X0176000Y0108776D02*
X0147457Y0108776D01*
X0118028Y0108776D01*
X0117929Y0108874D01*
X0117378Y0108874D01*
X0117181Y0108677D01*
X0088697Y0108677D01*
X0059465Y0108677D01*
X0059366Y0108776D01*
X0030331Y0108776D01*
X0176000Y0108776D02*
X0205331Y0108874D01*
X0205626Y0108874D01*
X0233776Y0108776D01*
X0234563Y0108776D01*
X0239976Y0103362D01*
X0258382Y0103362D01*
X0263795Y0108776D01*
X0268224Y0104346D01*
X0288402Y0104346D01*
X0292831Y0108776D01*
X0292949Y0108835D01*
X0292988Y0108874D01*
X0294307Y0108874D01*
X0297555Y0105626D01*
X0318323Y0105626D01*
X0318717Y0106020D01*
X0326984Y0097752D01*
X0326984Y0095193D01*
X0318717Y0106020D02*
X0321571Y0108874D01*
X0323539Y0119602D02*
X0325705Y0119602D01*
X0328362Y0122260D01*
X0321768Y0141945D02*
X0321768Y0163697D01*
X0317535Y0167929D01*
X0294701Y0167929D01*
X0292929Y0166157D01*
X0292949Y0166138D01*
X0292949Y0141276D01*
X0278264Y0147949D02*
X0278264Y0156807D01*
X0288205Y0166748D01*
X0300252Y0184268D02*
X0300035Y0184484D01*
X0256217Y0167437D02*
X0249720Y0160941D01*
X0249720Y0150311D01*
X0292949Y0108835D02*
X0293028Y0108874D01*
D19*
X0298539Y0113697D02*
X0281020Y0113697D01*
X0278461Y0110843D01*
D20*
X0292437Y0141256D02*
X0292436Y0141273D01*
X0292431Y0141290D01*
X0292424Y0141305D01*
X0292414Y0141319D01*
X0292402Y0141331D01*
X0292388Y0141341D01*
X0292373Y0141348D01*
X0292356Y0141353D01*
X0292339Y0141354D01*
X0292870Y0141354D01*
X0292870Y0141355D02*
X0292885Y0141353D01*
X0292900Y0141349D01*
X0292914Y0141342D01*
X0292926Y0141332D01*
X0292936Y0141320D01*
X0292943Y0141306D01*
X0292947Y0141291D01*
X0292949Y0141276D01*
X0292339Y0141354D02*
X0263894Y0141354D01*
X0263736Y0141276D02*
X0234642Y0141276D01*
X0234642Y0141354D01*
X0233992Y0141276D02*
X0205646Y0141276D01*
X0205638Y0141274D01*
X0205632Y0141270D01*
X0205628Y0141264D01*
X0205626Y0141256D01*
X0200114Y0146768D01*
X0181709Y0146768D01*
X0176197Y0141256D01*
X0175291Y0141276D02*
X0170488Y0146079D01*
X0152181Y0146079D01*
X0147457Y0141354D01*
X0147437Y0141335D01*
X0147437Y0141276D01*
X0142634Y0146079D01*
X0124622Y0146079D01*
X0119898Y0141354D01*
X0117831Y0141354D01*
X0111827Y0141256D01*
X0107299Y0145783D01*
X0093520Y0145783D01*
X0088697Y0140961D01*
X0082201Y0140961D01*
X0078756Y0144406D01*
X0064957Y0144406D01*
X0061768Y0141217D01*
X0059563Y0141256D01*
X0030626Y0141256D01*
X0029937Y0081906D02*
X0321472Y0081906D01*
X0321472Y0054937D02*
X0046374Y0054937D01*
X0030331Y0054937D01*
X0044898Y0027969D02*
X0074130Y0027969D01*
X0306906Y0027969D01*
X0263008Y0054937D02*
X0234071Y0054937D01*
X0321649Y0141275D02*
X0321626Y0141311D01*
X0321607Y0141348D01*
X0321591Y0141387D01*
X0321578Y0141427D01*
X0321569Y0141468D01*
X0321564Y0141509D01*
X0321562Y0141551D01*
X0321564Y0141593D01*
X0321569Y0141635D01*
X0321578Y0141676D01*
X0321591Y0141716D01*
X0321607Y0141754D01*
X0321626Y0141792D01*
X0321649Y0141827D01*
X0321675Y0141860D01*
X0321703Y0141891D01*
X0321734Y0141920D01*
X0321767Y0141945D01*
X0117831Y0141354D02*
X0117732Y0141354D01*
M02*
