%
M48
M72
T01C0.0157
T02C0.0236
T03C0.0320
T04C0.0360
T05C0.0400
T06C0.1102
%
T01
X30373Y12282
X30651Y12561
X30373Y12839
X30930Y12839
X30930Y12282
T02
X4490Y2797
X6675Y3939
X5946Y5494
X6025Y8191
X4529Y9411
X3112Y8191
X2974Y10730
X3880Y13328
X3151Y14135
X5966Y10730
X6734Y13269
X6045Y14135
X8761Y14135
X9726Y13309
X11675Y14135
X12639Y13328
X14647Y14135
X15572Y13348
X17521Y14135
X18506Y13328
X20435Y14135
X21478Y13466
X23387Y14116
X24391Y13525
X24982Y15257
X26281Y14135
X26990Y13604
X28584Y13781
X29116Y14135
X31202Y14746
X31635Y15336
X32265Y14293
X32305Y10710
X31124Y9332
X32147Y8191
X30572Y6990
X29254Y8191
X29293Y10730
X26360Y10730
X26419Y8191
X26301Y5494
X24332Y4017
X23407Y5494
X21970Y2797
X20454Y5494
X20612Y8191
X22029Y9529
X23466Y10730
X23407Y8191
X20553Y10730
X17679Y8191
X16084Y9687
X14726Y10730
X14805Y8191
X14687Y5494
X15061Y4057
X13269Y2797
X11754Y5494
X11832Y8191
X10336Y9588
X11793Y10730
X8860Y10730
X8939Y8191
X8840Y5494
X9352Y2797
X3033Y5494
X10494Y17423
X10494Y18230
X10080Y21596
X10848Y21694
X10080Y22679
X12246Y23053
X12679Y22620
X13407Y24017
X13368Y24765
X14726Y24293
X15474Y24588
X15454Y25415
X15887Y26616
X15730Y27206
X15159Y27738
X14057Y27935
X14588Y31124
X15297Y33446
X15297Y34470
X15631Y34864
X14135Y35277
X13584Y36380
X13131Y35927
X13053Y35159
X14273Y34076
X16163Y36714
X15730Y36852
X16380Y37817
X14254Y37344
X13348Y37423
X11498Y34313
X11084Y33387
X11458Y31045
X9962Y29746
X9962Y29313
X10572Y26242
X13998Y22423
X14805Y22403
X15553Y22698
X16498Y22364
X18427Y21911
X20198Y23584
X19017Y24175
X20041Y24962
X20671Y25513
X21734Y26557
X19569Y29726
X18919Y30710
X20317Y31832
X17757Y33033
X17482Y32009
X16911Y32009
X19470Y35631
X19923Y35631
X21202Y36380
X21202Y36872
X22285Y36616
X24116Y38053
X25238Y38230
X26006Y38131
X28486Y37246
X29765Y35946
X29726Y35257
X30494Y35946
X30966Y35395
X31222Y34785
X31773Y34254
X32246Y34746
X32501Y35773
X33506Y36045
X30887Y36557
X30710Y33269
X30750Y32226
X30277Y31478
X29135Y32502
X27994Y32659
X25887Y30927
X24569Y33939
X24116Y33939
X29824Y27344
X29155Y25907
X30435Y23683
X30218Y21025
X28624Y19726
X32226Y19273
X33131Y23368
X33131Y23919
X24982Y19293
X22659Y21419
X22364Y22187
X22029Y20887
X20691Y19273
X17580Y19273
X17561Y10730
X17541Y5494
X17108Y2817
X26340Y2797
X29234Y5494
X30691Y2797
X32265Y2895
X32147Y5494
X33683Y5769
T03
X33506Y16549
X33506Y17549
X26781Y36320
X25781Y36320
T04
X31313Y31482
X31313Y30482
X32313Y30482
X32313Y31482
X32313Y29482
X32313Y28482
X32313Y27482
X32313Y26482
X32313Y25482
X32313Y24482
X32313Y23482
X31313Y23482
X31313Y24482
X31313Y25482
X31313Y26482
X31313Y27482
X31313Y28482
X31313Y29482
X31017Y18435
X31017Y17435
X30017Y17435
X30017Y18435
X29017Y18435
X29017Y17435
X28017Y17435
X28017Y18435
X27017Y18435
X27017Y17435
X26017Y17435
X26017Y18435
X25017Y18435
X24017Y18435
X24017Y17435
X25017Y17435
X23017Y17435
X23017Y18435
X22017Y18435
X22017Y17435
X21017Y17435
X21017Y18435
X20017Y18435
X20017Y17435
X19017Y17435
X19017Y18435
X18017Y18435
X18017Y17435
X17017Y17435
X17017Y18435
X16017Y18435
X16017Y17435
X15017Y17435
X15017Y18435
X14017Y18435
X14017Y17435
X13017Y17435
X13017Y18435
X12017Y18435
X12017Y17435
T05
X11990Y37698
X33348Y21769
X33348Y20769
X33348Y19769
T06
X33013Y37383
X10100Y37383
M30
