G75*
%MOIN*%
%OFA0B0*%
%FSLAX25Y25*%
%IPPOS*%
%LPD*%
%AMOC8*
5,1,8,0,0,1.08239X$1,22.5*
%
%ADD10C,0.00000*%
%ADD11C,0.05937*%
%ADD12C,0.01600*%
%ADD13C,0.05315*%
%ADD14C,0.01200*%
%ADD15C,0.04000*%
%ADD16C,0.16598*%
%ADD17C,0.02400*%
%ADD18C,0.01000*%
D10*
X0008874Y0008874D02*
X0008874Y0225405D01*
X0008876Y0225529D01*
X0008882Y0225653D01*
X0008891Y0225776D01*
X0008905Y0225899D01*
X0008923Y0226022D01*
X0008944Y0226144D01*
X0008969Y0226265D01*
X0008998Y0226385D01*
X0009031Y0226505D01*
X0009067Y0226623D01*
X0009107Y0226740D01*
X0009151Y0226856D01*
X0009198Y0226971D01*
X0009249Y0227083D01*
X0009304Y0227195D01*
X0009362Y0227304D01*
X0009423Y0227412D01*
X0009488Y0227517D01*
X0009556Y0227621D01*
X0009627Y0227722D01*
X0009701Y0227821D01*
X0009779Y0227918D01*
X0009859Y0228012D01*
X0009942Y0228103D01*
X0010029Y0228192D01*
X0010118Y0228279D01*
X0010209Y0228362D01*
X0010303Y0228442D01*
X0010400Y0228520D01*
X0010499Y0228594D01*
X0010600Y0228665D01*
X0010704Y0228733D01*
X0010809Y0228798D01*
X0010917Y0228859D01*
X0011026Y0228917D01*
X0011138Y0228972D01*
X0011250Y0229023D01*
X0011365Y0229070D01*
X0011481Y0229114D01*
X0011598Y0229154D01*
X0011716Y0229190D01*
X0011836Y0229223D01*
X0011956Y0229252D01*
X0012077Y0229277D01*
X0012199Y0229298D01*
X0012322Y0229316D01*
X0012445Y0229330D01*
X0012568Y0229339D01*
X0012692Y0229345D01*
X0012816Y0229347D01*
X0012816Y0229346D02*
X0249819Y0229346D01*
X0250133Y0229342D01*
X0250447Y0229331D01*
X0250760Y0229312D01*
X0251073Y0229285D01*
X0251385Y0229251D01*
X0251696Y0229210D01*
X0252006Y0229161D01*
X0252315Y0229104D01*
X0252622Y0229040D01*
X0252928Y0228968D01*
X0253232Y0228890D01*
X0253534Y0228804D01*
X0253834Y0228710D01*
X0254131Y0228610D01*
X0254426Y0228502D01*
X0254718Y0228387D01*
X0255008Y0228265D01*
X0255294Y0228136D01*
X0255577Y0228000D01*
X0255857Y0227858D01*
X0256133Y0227709D01*
X0256405Y0227553D01*
X0256674Y0227390D01*
X0256939Y0227221D01*
X0257199Y0227046D01*
X0257456Y0226865D01*
X0257707Y0226677D01*
X0257954Y0226484D01*
X0258197Y0226284D01*
X0258434Y0226079D01*
X0258667Y0225868D01*
X0258894Y0225651D01*
X0259116Y0225429D01*
X0259333Y0225202D01*
X0259544Y0224969D01*
X0259749Y0224732D01*
X0259949Y0224489D01*
X0260142Y0224242D01*
X0260330Y0223991D01*
X0260511Y0223734D01*
X0260686Y0223474D01*
X0260855Y0223209D01*
X0261018Y0222940D01*
X0261174Y0222668D01*
X0261323Y0222392D01*
X0261465Y0222112D01*
X0261601Y0221829D01*
X0261730Y0221543D01*
X0261852Y0221253D01*
X0261967Y0220961D01*
X0262075Y0220666D01*
X0262175Y0220369D01*
X0262269Y0220069D01*
X0262355Y0219767D01*
X0262433Y0219463D01*
X0262505Y0219157D01*
X0262569Y0218850D01*
X0262626Y0218541D01*
X0262675Y0218231D01*
X0262716Y0217920D01*
X0262750Y0217608D01*
X0262777Y0217295D01*
X0262796Y0216982D01*
X0262807Y0216668D01*
X0262811Y0216354D01*
X0262811Y0009071D01*
X0025705Y0008874D01*
X0008874Y0008874D01*
X0164386Y0056118D02*
X0164386Y0186039D01*
X0191945Y0186039D01*
X0191945Y0056118D01*
X0164386Y0056118D01*
X0263795Y0049425D02*
X0263797Y0049499D01*
X0263803Y0049573D01*
X0263813Y0049646D01*
X0263827Y0049719D01*
X0263844Y0049791D01*
X0263866Y0049861D01*
X0263891Y0049931D01*
X0263920Y0049999D01*
X0263953Y0050065D01*
X0263989Y0050130D01*
X0264029Y0050192D01*
X0264071Y0050253D01*
X0264117Y0050311D01*
X0264166Y0050366D01*
X0264218Y0050419D01*
X0264273Y0050469D01*
X0264330Y0050515D01*
X0264390Y0050559D01*
X0264452Y0050599D01*
X0264516Y0050636D01*
X0264582Y0050670D01*
X0264650Y0050700D01*
X0264719Y0050726D01*
X0264790Y0050749D01*
X0264861Y0050767D01*
X0264934Y0050782D01*
X0265007Y0050793D01*
X0265081Y0050800D01*
X0265155Y0050803D01*
X0265228Y0050802D01*
X0265302Y0050797D01*
X0265376Y0050788D01*
X0265449Y0050775D01*
X0265521Y0050758D01*
X0265592Y0050738D01*
X0265662Y0050713D01*
X0265730Y0050685D01*
X0265797Y0050654D01*
X0265862Y0050618D01*
X0265925Y0050580D01*
X0265986Y0050538D01*
X0266045Y0050492D01*
X0266101Y0050444D01*
X0266154Y0050393D01*
X0266204Y0050339D01*
X0266252Y0050282D01*
X0266296Y0050223D01*
X0266338Y0050161D01*
X0266376Y0050098D01*
X0266410Y0050032D01*
X0266441Y0049965D01*
X0266468Y0049896D01*
X0266491Y0049826D01*
X0266511Y0049755D01*
X0266527Y0049682D01*
X0266539Y0049609D01*
X0266547Y0049536D01*
X0266551Y0049462D01*
X0266551Y0049388D01*
X0266547Y0049314D01*
X0266539Y0049241D01*
X0266527Y0049168D01*
X0266511Y0049095D01*
X0266491Y0049024D01*
X0266468Y0048954D01*
X0266441Y0048885D01*
X0266410Y0048818D01*
X0266376Y0048752D01*
X0266338Y0048689D01*
X0266296Y0048627D01*
X0266252Y0048568D01*
X0266204Y0048511D01*
X0266154Y0048457D01*
X0266101Y0048406D01*
X0266045Y0048358D01*
X0265986Y0048312D01*
X0265925Y0048270D01*
X0265862Y0048232D01*
X0265797Y0048196D01*
X0265730Y0048165D01*
X0265662Y0048137D01*
X0265592Y0048112D01*
X0265521Y0048092D01*
X0265449Y0048075D01*
X0265376Y0048062D01*
X0265302Y0048053D01*
X0265228Y0048048D01*
X0265155Y0048047D01*
X0265081Y0048050D01*
X0265007Y0048057D01*
X0264934Y0048068D01*
X0264861Y0048083D01*
X0264790Y0048101D01*
X0264719Y0048124D01*
X0264650Y0048150D01*
X0264582Y0048180D01*
X0264516Y0048214D01*
X0264452Y0048251D01*
X0264390Y0048291D01*
X0264330Y0048335D01*
X0264273Y0048381D01*
X0264218Y0048431D01*
X0264166Y0048484D01*
X0264117Y0048539D01*
X0264071Y0048597D01*
X0264029Y0048658D01*
X0263989Y0048720D01*
X0263953Y0048785D01*
X0263920Y0048851D01*
X0263891Y0048919D01*
X0263866Y0048989D01*
X0263844Y0049059D01*
X0263827Y0049131D01*
X0263813Y0049204D01*
X0263803Y0049277D01*
X0263797Y0049351D01*
X0263795Y0049425D01*
X0005232Y0188795D02*
X0005234Y0188869D01*
X0005240Y0188943D01*
X0005250Y0189016D01*
X0005264Y0189089D01*
X0005281Y0189161D01*
X0005303Y0189231D01*
X0005328Y0189301D01*
X0005357Y0189369D01*
X0005390Y0189435D01*
X0005426Y0189500D01*
X0005466Y0189562D01*
X0005508Y0189623D01*
X0005554Y0189681D01*
X0005603Y0189736D01*
X0005655Y0189789D01*
X0005710Y0189839D01*
X0005767Y0189885D01*
X0005827Y0189929D01*
X0005889Y0189969D01*
X0005953Y0190006D01*
X0006019Y0190040D01*
X0006087Y0190070D01*
X0006156Y0190096D01*
X0006227Y0190119D01*
X0006298Y0190137D01*
X0006371Y0190152D01*
X0006444Y0190163D01*
X0006518Y0190170D01*
X0006592Y0190173D01*
X0006665Y0190172D01*
X0006739Y0190167D01*
X0006813Y0190158D01*
X0006886Y0190145D01*
X0006958Y0190128D01*
X0007029Y0190108D01*
X0007099Y0190083D01*
X0007167Y0190055D01*
X0007234Y0190024D01*
X0007299Y0189988D01*
X0007362Y0189950D01*
X0007423Y0189908D01*
X0007482Y0189862D01*
X0007538Y0189814D01*
X0007591Y0189763D01*
X0007641Y0189709D01*
X0007689Y0189652D01*
X0007733Y0189593D01*
X0007775Y0189531D01*
X0007813Y0189468D01*
X0007847Y0189402D01*
X0007878Y0189335D01*
X0007905Y0189266D01*
X0007928Y0189196D01*
X0007948Y0189125D01*
X0007964Y0189052D01*
X0007976Y0188979D01*
X0007984Y0188906D01*
X0007988Y0188832D01*
X0007988Y0188758D01*
X0007984Y0188684D01*
X0007976Y0188611D01*
X0007964Y0188538D01*
X0007948Y0188465D01*
X0007928Y0188394D01*
X0007905Y0188324D01*
X0007878Y0188255D01*
X0007847Y0188188D01*
X0007813Y0188122D01*
X0007775Y0188059D01*
X0007733Y0187997D01*
X0007689Y0187938D01*
X0007641Y0187881D01*
X0007591Y0187827D01*
X0007538Y0187776D01*
X0007482Y0187728D01*
X0007423Y0187682D01*
X0007362Y0187640D01*
X0007299Y0187602D01*
X0007234Y0187566D01*
X0007167Y0187535D01*
X0007099Y0187507D01*
X0007029Y0187482D01*
X0006958Y0187462D01*
X0006886Y0187445D01*
X0006813Y0187432D01*
X0006739Y0187423D01*
X0006665Y0187418D01*
X0006592Y0187417D01*
X0006518Y0187420D01*
X0006444Y0187427D01*
X0006371Y0187438D01*
X0006298Y0187453D01*
X0006227Y0187471D01*
X0006156Y0187494D01*
X0006087Y0187520D01*
X0006019Y0187550D01*
X0005953Y0187584D01*
X0005889Y0187621D01*
X0005827Y0187661D01*
X0005767Y0187705D01*
X0005710Y0187751D01*
X0005655Y0187801D01*
X0005603Y0187854D01*
X0005554Y0187909D01*
X0005508Y0187967D01*
X0005466Y0188028D01*
X0005426Y0188090D01*
X0005390Y0188155D01*
X0005357Y0188221D01*
X0005328Y0188289D01*
X0005303Y0188359D01*
X0005281Y0188429D01*
X0005264Y0188501D01*
X0005250Y0188574D01*
X0005240Y0188647D01*
X0005234Y0188721D01*
X0005232Y0188795D01*
D11*
X0039543Y0026787D03*
X0039543Y0016787D03*
X0049543Y0016787D03*
X0059543Y0016787D03*
X0069543Y0016787D03*
X0079543Y0016787D03*
X0089543Y0016787D03*
X0099543Y0016787D03*
X0109543Y0016787D03*
X0119543Y0016787D03*
X0129543Y0016787D03*
X0139543Y0016787D03*
X0149543Y0016787D03*
X0159543Y0016787D03*
X0169543Y0016787D03*
X0179543Y0016787D03*
X0189543Y0016787D03*
X0199543Y0016787D03*
X0209543Y0016787D03*
X0219543Y0016787D03*
X0229543Y0016787D03*
X0229543Y0026787D03*
X0219543Y0026787D03*
X0209543Y0026787D03*
X0199543Y0026787D03*
X0189543Y0026787D03*
X0179543Y0026787D03*
X0169543Y0026787D03*
X0159543Y0026787D03*
X0149543Y0026787D03*
X0139543Y0026787D03*
X0129543Y0026787D03*
X0119543Y0026787D03*
X0109543Y0026787D03*
X0099543Y0026787D03*
X0089543Y0026787D03*
X0079543Y0026787D03*
X0069543Y0026787D03*
X0059543Y0026787D03*
X0049543Y0026787D03*
D12*
X0054122Y0024859D02*
X0054964Y0024859D01*
X0055331Y0023973D02*
X0056729Y0022575D01*
X0058555Y0021819D01*
X0060532Y0021819D01*
X0062358Y0022575D01*
X0063755Y0023973D01*
X0064512Y0025799D01*
X0064512Y0027776D01*
X0063755Y0029602D01*
X0062358Y0030999D01*
X0062265Y0031038D01*
X0062265Y0038368D01*
X0061838Y0039397D01*
X0017580Y0083656D01*
X0017580Y0138718D01*
X0035723Y0156861D01*
X0073887Y0156861D01*
X0075035Y0155713D01*
X0076747Y0155004D01*
X0078600Y0155004D01*
X0080311Y0155713D01*
X0081622Y0157023D01*
X0082331Y0158735D01*
X0082331Y0160588D01*
X0081622Y0162300D01*
X0080311Y0163610D01*
X0078600Y0164319D01*
X0076747Y0164319D01*
X0075035Y0163610D01*
X0073887Y0162461D01*
X0034006Y0162461D01*
X0032977Y0162035D01*
X0032189Y0161247D01*
X0012406Y0141464D01*
X0011980Y0140435D01*
X0011980Y0081939D01*
X0012406Y0080910D01*
X0013193Y0080122D01*
X0056665Y0036651D01*
X0056665Y0030935D01*
X0055331Y0029602D01*
X0054575Y0027776D01*
X0054575Y0025799D01*
X0055331Y0023973D01*
X0056044Y0023261D02*
X0053043Y0023261D01*
X0052358Y0022575D02*
X0053755Y0023973D01*
X0054512Y0025799D01*
X0054512Y0027776D01*
X0053755Y0029602D01*
X0052358Y0030999D01*
X0050532Y0031756D01*
X0048555Y0031756D01*
X0046729Y0030999D01*
X0045331Y0029602D01*
X0044575Y0027776D01*
X0044575Y0025799D01*
X0045331Y0023973D01*
X0046729Y0022575D01*
X0048555Y0021819D01*
X0050532Y0021819D01*
X0052358Y0022575D01*
X0052358Y0020999D02*
X0050532Y0021756D01*
X0048555Y0021756D01*
X0046729Y0020999D01*
X0045331Y0019602D01*
X0044575Y0017776D01*
X0044575Y0015799D01*
X0045331Y0013973D01*
X0046729Y0012575D01*
X0048555Y0011819D01*
X0050532Y0011819D01*
X0052358Y0012575D01*
X0053755Y0013973D01*
X0054512Y0015799D01*
X0054512Y0017776D01*
X0053755Y0019602D01*
X0052358Y0020999D01*
X0053294Y0020064D02*
X0055793Y0020064D01*
X0055331Y0019602D02*
X0054575Y0017776D01*
X0054575Y0015799D01*
X0055331Y0013973D01*
X0056729Y0012575D01*
X0058555Y0011819D01*
X0060532Y0011819D01*
X0062358Y0012575D01*
X0063755Y0013973D01*
X0064512Y0015799D01*
X0064512Y0017776D01*
X0063755Y0019602D01*
X0062358Y0020999D01*
X0060532Y0021756D01*
X0058555Y0021756D01*
X0056729Y0020999D01*
X0055331Y0019602D01*
X0054860Y0018465D02*
X0054226Y0018465D01*
X0054512Y0016867D02*
X0054575Y0016867D01*
X0054795Y0015268D02*
X0054292Y0015268D01*
X0053452Y0013670D02*
X0055635Y0013670D01*
X0057946Y0012071D02*
X0051140Y0012071D01*
X0047946Y0012071D02*
X0041140Y0012071D01*
X0040532Y0011819D02*
X0042358Y0012575D01*
X0043755Y0013973D01*
X0044512Y0015799D01*
X0044512Y0017776D01*
X0043755Y0019602D01*
X0042358Y0020999D01*
X0040532Y0021756D01*
X0038555Y0021756D01*
X0036729Y0020999D01*
X0035331Y0019602D01*
X0034575Y0017776D01*
X0034575Y0015799D01*
X0035331Y0013973D01*
X0036729Y0012575D01*
X0038555Y0011819D01*
X0040532Y0011819D01*
X0037946Y0012071D02*
X0010874Y0012071D01*
X0010874Y0010874D02*
X0010874Y0225405D01*
X0010911Y0225783D01*
X0011201Y0226483D01*
X0011737Y0227019D01*
X0012437Y0227309D01*
X0012816Y0227346D01*
X0249819Y0227346D01*
X0251254Y0227252D01*
X0254025Y0226510D01*
X0256510Y0225075D01*
X0258540Y0223046D01*
X0259974Y0220561D01*
X0260717Y0217789D01*
X0260811Y0216354D01*
X0260811Y0011069D01*
X0025704Y0010874D01*
X0010874Y0010874D01*
X0010874Y0013670D02*
X0035635Y0013670D01*
X0034795Y0015268D02*
X0010874Y0015268D01*
X0010874Y0016867D02*
X0034575Y0016867D01*
X0034860Y0018465D02*
X0010874Y0018465D01*
X0010874Y0020064D02*
X0035793Y0020064D01*
X0037044Y0022709D02*
X0037713Y0022368D01*
X0038427Y0022136D01*
X0039168Y0022019D01*
X0039359Y0022019D01*
X0039359Y0026603D01*
X0039728Y0026603D01*
X0039728Y0026972D01*
X0044312Y0026972D01*
X0044312Y0027163D01*
X0044194Y0027904D01*
X0043962Y0028618D01*
X0043622Y0029287D01*
X0043181Y0029894D01*
X0042650Y0030425D01*
X0042043Y0030866D01*
X0041374Y0031207D01*
X0040660Y0031438D01*
X0039919Y0031556D01*
X0039728Y0031556D01*
X0039728Y0026972D01*
X0039359Y0026972D01*
X0039359Y0031556D01*
X0039168Y0031556D01*
X0038427Y0031438D01*
X0037713Y0031207D01*
X0037044Y0030866D01*
X0036437Y0030425D01*
X0035906Y0029894D01*
X0035465Y0029287D01*
X0035124Y0028618D01*
X0034892Y0027904D01*
X0034775Y0027163D01*
X0034775Y0026972D01*
X0039359Y0026972D01*
X0039359Y0026603D01*
X0034775Y0026603D01*
X0034775Y0026412D01*
X0034892Y0025671D01*
X0035124Y0024957D01*
X0035465Y0024288D01*
X0035906Y0023681D01*
X0036437Y0023150D01*
X0037044Y0022709D01*
X0036326Y0023261D02*
X0010874Y0023261D01*
X0010874Y0024859D02*
X0035174Y0024859D01*
X0034775Y0026458D02*
X0010874Y0026458D01*
X0010874Y0028056D02*
X0034942Y0028056D01*
X0035732Y0029655D02*
X0010874Y0029655D01*
X0010874Y0031253D02*
X0037856Y0031253D01*
X0039359Y0031253D02*
X0039728Y0031253D01*
X0041230Y0031253D02*
X0047341Y0031253D01*
X0045384Y0029655D02*
X0043354Y0029655D01*
X0044145Y0028056D02*
X0044691Y0028056D01*
X0044312Y0026603D02*
X0039728Y0026603D01*
X0039728Y0022019D01*
X0039919Y0022019D01*
X0040660Y0022136D01*
X0041374Y0022368D01*
X0042043Y0022709D01*
X0042650Y0023150D01*
X0043181Y0023681D01*
X0043622Y0024288D01*
X0043962Y0024957D01*
X0044194Y0025671D01*
X0044312Y0026412D01*
X0044312Y0026603D01*
X0044312Y0026458D02*
X0044575Y0026458D01*
X0044964Y0024859D02*
X0043913Y0024859D01*
X0042760Y0023261D02*
X0046044Y0023261D01*
X0048329Y0021662D02*
X0040758Y0021662D01*
X0039728Y0023261D02*
X0039359Y0023261D01*
X0039359Y0024859D02*
X0039728Y0024859D01*
X0039728Y0026458D02*
X0039359Y0026458D01*
X0039359Y0028056D02*
X0039728Y0028056D01*
X0039728Y0029655D02*
X0039359Y0029655D01*
X0038329Y0021662D02*
X0010874Y0021662D01*
X0010874Y0032852D02*
X0056665Y0032852D01*
X0056665Y0034450D02*
X0010874Y0034450D01*
X0010874Y0036049D02*
X0056665Y0036049D01*
X0055669Y0037647D02*
X0010874Y0037647D01*
X0010874Y0039246D02*
X0054070Y0039246D01*
X0052472Y0040844D02*
X0010874Y0040844D01*
X0010874Y0042443D02*
X0050873Y0042443D01*
X0049275Y0044041D02*
X0010874Y0044041D01*
X0010874Y0045640D02*
X0047676Y0045640D01*
X0046077Y0047238D02*
X0010874Y0047238D01*
X0010874Y0048837D02*
X0044479Y0048837D01*
X0042880Y0050435D02*
X0010874Y0050435D01*
X0010874Y0052034D02*
X0041282Y0052034D01*
X0039683Y0053632D02*
X0010874Y0053632D01*
X0010874Y0055231D02*
X0038085Y0055231D01*
X0036486Y0056829D02*
X0010874Y0056829D01*
X0010874Y0058428D02*
X0034888Y0058428D01*
X0033289Y0060026D02*
X0010874Y0060026D01*
X0010874Y0061625D02*
X0031691Y0061625D01*
X0030092Y0063223D02*
X0010874Y0063223D01*
X0010874Y0064822D02*
X0028494Y0064822D01*
X0026895Y0066420D02*
X0010874Y0066420D01*
X0010874Y0068019D02*
X0025297Y0068019D01*
X0023698Y0069617D02*
X0010874Y0069617D01*
X0010874Y0071216D02*
X0022100Y0071216D01*
X0020501Y0072814D02*
X0010874Y0072814D01*
X0010874Y0074413D02*
X0018903Y0074413D01*
X0017304Y0076011D02*
X0010874Y0076011D01*
X0010874Y0077610D02*
X0015706Y0077610D01*
X0014107Y0079209D02*
X0010874Y0079209D01*
X0010874Y0080807D02*
X0012509Y0080807D01*
X0011980Y0082406D02*
X0010874Y0082406D01*
X0010874Y0084004D02*
X0011980Y0084004D01*
X0011980Y0085603D02*
X0010874Y0085603D01*
X0010874Y0087201D02*
X0011980Y0087201D01*
X0011980Y0088800D02*
X0010874Y0088800D01*
X0010874Y0090398D02*
X0011980Y0090398D01*
X0011980Y0091997D02*
X0010874Y0091997D01*
X0010874Y0093595D02*
X0011980Y0093595D01*
X0011980Y0095194D02*
X0010874Y0095194D01*
X0010874Y0096792D02*
X0011980Y0096792D01*
X0011980Y0098391D02*
X0010874Y0098391D01*
X0010874Y0099989D02*
X0011980Y0099989D01*
X0011980Y0101588D02*
X0010874Y0101588D01*
X0010874Y0103186D02*
X0011980Y0103186D01*
X0011980Y0104785D02*
X0010874Y0104785D01*
X0010874Y0106383D02*
X0011980Y0106383D01*
X0011980Y0107982D02*
X0010874Y0107982D01*
X0010874Y0109580D02*
X0011980Y0109580D01*
X0011980Y0111179D02*
X0010874Y0111179D01*
X0010874Y0112777D02*
X0011980Y0112777D01*
X0011980Y0114376D02*
X0010874Y0114376D01*
X0010874Y0115974D02*
X0011980Y0115974D01*
X0011980Y0117573D02*
X0010874Y0117573D01*
X0010874Y0119171D02*
X0011980Y0119171D01*
X0011980Y0120770D02*
X0010874Y0120770D01*
X0010874Y0122368D02*
X0011980Y0122368D01*
X0011980Y0123967D02*
X0010874Y0123967D01*
X0010874Y0125565D02*
X0011980Y0125565D01*
X0011980Y0127164D02*
X0010874Y0127164D01*
X0010874Y0128762D02*
X0011980Y0128762D01*
X0011980Y0130361D02*
X0010874Y0130361D01*
X0010874Y0131959D02*
X0011980Y0131959D01*
X0011980Y0133558D02*
X0010874Y0133558D01*
X0010874Y0135156D02*
X0011980Y0135156D01*
X0011980Y0136755D02*
X0010874Y0136755D01*
X0010874Y0138353D02*
X0011980Y0138353D01*
X0011980Y0139952D02*
X0010874Y0139952D01*
X0010874Y0141550D02*
X0012492Y0141550D01*
X0014091Y0143149D02*
X0010874Y0143149D01*
X0010874Y0144747D02*
X0015689Y0144747D01*
X0017288Y0146346D02*
X0010874Y0146346D01*
X0010874Y0147945D02*
X0018886Y0147945D01*
X0020485Y0149543D02*
X0010874Y0149543D01*
X0010874Y0151142D02*
X0022083Y0151142D01*
X0023682Y0152740D02*
X0010874Y0152740D01*
X0010874Y0154339D02*
X0025280Y0154339D01*
X0026879Y0155937D02*
X0010874Y0155937D01*
X0010874Y0157536D02*
X0028477Y0157536D01*
X0030076Y0159134D02*
X0010874Y0159134D01*
X0010874Y0160733D02*
X0031674Y0160733D01*
X0033691Y0162331D02*
X0010874Y0162331D01*
X0010874Y0163930D02*
X0075807Y0163930D01*
X0077673Y0159661D02*
X0034563Y0159661D01*
X0014780Y0139878D01*
X0014780Y0082496D01*
X0059465Y0037811D01*
X0059465Y0026866D01*
X0054575Y0026458D02*
X0054512Y0026458D01*
X0054396Y0028056D02*
X0054691Y0028056D01*
X0055384Y0029655D02*
X0053703Y0029655D01*
X0051745Y0031253D02*
X0056665Y0031253D01*
X0062265Y0031253D02*
X0067341Y0031253D01*
X0066729Y0030999D02*
X0065331Y0029602D01*
X0064575Y0027776D01*
X0064575Y0025799D01*
X0065331Y0023973D01*
X0066729Y0022575D01*
X0068555Y0021819D01*
X0070532Y0021819D01*
X0072358Y0022575D01*
X0073755Y0023973D01*
X0074512Y0025799D01*
X0074512Y0027776D01*
X0073755Y0029602D01*
X0072358Y0030999D01*
X0070532Y0031756D01*
X0068555Y0031756D01*
X0066729Y0030999D01*
X0065384Y0029655D02*
X0063703Y0029655D01*
X0064396Y0028056D02*
X0064691Y0028056D01*
X0064575Y0026458D02*
X0064512Y0026458D01*
X0064122Y0024859D02*
X0064964Y0024859D01*
X0066044Y0023261D02*
X0063043Y0023261D01*
X0060758Y0021662D02*
X0078329Y0021662D01*
X0078555Y0021756D02*
X0076729Y0020999D01*
X0075331Y0019602D01*
X0074575Y0017776D01*
X0074575Y0015799D01*
X0075331Y0013973D01*
X0076729Y0012575D01*
X0078555Y0011819D01*
X0080532Y0011819D01*
X0082358Y0012575D01*
X0083755Y0013973D01*
X0084512Y0015799D01*
X0084512Y0017776D01*
X0083755Y0019602D01*
X0082358Y0020999D01*
X0080532Y0021756D01*
X0078555Y0021756D01*
X0078555Y0021819D02*
X0080532Y0021819D01*
X0082358Y0022575D01*
X0083755Y0023973D01*
X0084512Y0025799D01*
X0084512Y0027776D01*
X0083755Y0029602D01*
X0082358Y0030999D01*
X0080532Y0031756D01*
X0078555Y0031756D01*
X0076729Y0030999D01*
X0075331Y0029602D01*
X0074575Y0027776D01*
X0074575Y0025799D01*
X0075331Y0023973D01*
X0076729Y0022575D01*
X0078555Y0021819D01*
X0080758Y0021662D02*
X0098329Y0021662D01*
X0098555Y0021756D02*
X0096729Y0020999D01*
X0095331Y0019602D01*
X0094575Y0017776D01*
X0094575Y0015799D01*
X0095331Y0013973D01*
X0096729Y0012575D01*
X0098555Y0011819D01*
X0100532Y0011819D01*
X0102358Y0012575D01*
X0103755Y0013973D01*
X0104512Y0015799D01*
X0104512Y0017776D01*
X0103755Y0019602D01*
X0102358Y0020999D01*
X0100532Y0021756D01*
X0098555Y0021756D01*
X0098555Y0021819D02*
X0100532Y0021819D01*
X0102358Y0022575D01*
X0103755Y0023973D01*
X0104512Y0025799D01*
X0104512Y0027776D01*
X0103755Y0029602D01*
X0102358Y0030999D01*
X0100532Y0031756D01*
X0098555Y0031756D01*
X0096729Y0030999D01*
X0095331Y0029602D01*
X0094575Y0027776D01*
X0094575Y0025799D01*
X0095331Y0023973D01*
X0096729Y0022575D01*
X0098555Y0021819D01*
X0100758Y0021662D02*
X0108329Y0021662D01*
X0108555Y0021756D02*
X0106729Y0020999D01*
X0105331Y0019602D01*
X0104575Y0017776D01*
X0104575Y0015799D01*
X0105331Y0013973D01*
X0106729Y0012575D01*
X0108555Y0011819D01*
X0110532Y0011819D01*
X0112358Y0012575D01*
X0113755Y0013973D01*
X0114512Y0015799D01*
X0114512Y0017776D01*
X0114453Y0017918D01*
X0114581Y0017790D01*
X0114575Y0017776D01*
X0114575Y0015799D01*
X0115331Y0013973D01*
X0116729Y0012575D01*
X0118555Y0011819D01*
X0120532Y0011819D01*
X0122358Y0012575D01*
X0123755Y0013973D01*
X0124512Y0015799D01*
X0124512Y0017776D01*
X0124453Y0017918D01*
X0124581Y0017790D01*
X0124575Y0017776D01*
X0124575Y0015799D01*
X0125331Y0013973D01*
X0126729Y0012575D01*
X0128555Y0011819D01*
X0130532Y0011819D01*
X0132358Y0012575D01*
X0133755Y0013973D01*
X0134512Y0015799D01*
X0134512Y0017776D01*
X0133755Y0019602D01*
X0132358Y0020999D01*
X0130532Y0021756D01*
X0128555Y0021756D01*
X0128541Y0021750D01*
X0128413Y0021878D01*
X0128555Y0021819D01*
X0130532Y0021819D01*
X0132358Y0022575D01*
X0133755Y0023973D01*
X0134512Y0025799D01*
X0134512Y0027776D01*
X0133755Y0029602D01*
X0132358Y0030999D01*
X0132073Y0031118D01*
X0132045Y0032813D01*
X0132045Y0033412D01*
X0134251Y0035692D01*
X0134602Y0036043D01*
X0134610Y0036063D01*
X0134626Y0036079D01*
X0134808Y0036540D01*
X0134998Y0036999D01*
X0134998Y0037021D01*
X0135006Y0037041D01*
X0134998Y0037537D01*
X0134998Y0039161D01*
X0135705Y0039837D01*
X0141426Y0039837D01*
X0141441Y0039799D01*
X0142752Y0038489D01*
X0144463Y0037780D01*
X0146316Y0037780D01*
X0148028Y0038489D01*
X0149338Y0039799D01*
X0150047Y0041511D01*
X0150047Y0043363D01*
X0149338Y0045075D01*
X0148028Y0046385D01*
X0146316Y0047094D01*
X0144463Y0047094D01*
X0142752Y0046385D01*
X0141441Y0045075D01*
X0141426Y0045037D01*
X0134690Y0045037D01*
X0134202Y0045048D01*
X0134174Y0045037D01*
X0134144Y0045037D01*
X0133693Y0044850D01*
X0133238Y0044673D01*
X0133216Y0044653D01*
X0133189Y0044641D01*
X0132844Y0044296D01*
X0131052Y0042582D01*
X0130834Y0043107D01*
X0129524Y0044417D01*
X0127812Y0045126D01*
X0125959Y0045126D01*
X0124248Y0044417D01*
X0122937Y0043107D01*
X0122228Y0041395D01*
X0122228Y0039932D01*
X0122063Y0039539D01*
X0121850Y0039085D01*
X0121848Y0039028D01*
X0121825Y0038975D01*
X0121822Y0038473D01*
X0121800Y0037972D01*
X0121819Y0037919D01*
X0121780Y0031239D01*
X0121243Y0031461D01*
X0121312Y0042070D01*
X0125795Y0046625D01*
X0131698Y0046625D01*
X0132044Y0046574D01*
X0132250Y0046625D01*
X0132462Y0046625D01*
X0132730Y0046736D01*
X0134013Y0046736D01*
X0135725Y0047445D01*
X0137035Y0048755D01*
X0137744Y0050467D01*
X0137744Y0052320D01*
X0137035Y0054032D01*
X0135725Y0055342D01*
X0134013Y0056051D01*
X0132160Y0056051D01*
X0130448Y0055342D01*
X0129138Y0054032D01*
X0128429Y0052320D01*
X0128429Y0052225D01*
X0125167Y0052225D01*
X0125157Y0052230D01*
X0124610Y0052225D01*
X0124065Y0052225D01*
X0124054Y0052221D01*
X0124043Y0052221D01*
X0123540Y0052008D01*
X0123036Y0051799D01*
X0123028Y0051791D01*
X0123017Y0051786D01*
X0122634Y0051397D01*
X0122248Y0051011D01*
X0122244Y0051001D01*
X0116538Y0045203D01*
X0116502Y0045167D01*
X0115205Y0046464D01*
X0115205Y0048088D01*
X0114496Y0049800D01*
X0113185Y0051110D01*
X0111474Y0051819D01*
X0109621Y0051819D01*
X0107909Y0051110D01*
X0106599Y0049800D01*
X0105890Y0048088D01*
X0105890Y0046235D01*
X0106599Y0044523D01*
X0107909Y0043213D01*
X0109621Y0042504D01*
X0111245Y0042504D01*
X0111783Y0041966D01*
X0111783Y0030998D01*
X0111374Y0031207D01*
X0110660Y0031438D01*
X0109919Y0031556D01*
X0109728Y0031556D01*
X0109728Y0026972D01*
X0109359Y0026972D01*
X0109359Y0031556D01*
X0109168Y0031556D01*
X0108427Y0031438D01*
X0107713Y0031207D01*
X0107044Y0030866D01*
X0106437Y0030425D01*
X0105906Y0029894D01*
X0105465Y0029287D01*
X0105124Y0028618D01*
X0104892Y0027904D01*
X0104775Y0027163D01*
X0104775Y0026972D01*
X0109359Y0026972D01*
X0109359Y0026603D01*
X0109728Y0026603D01*
X0109728Y0022019D01*
X0109919Y0022019D01*
X0110660Y0022136D01*
X0111374Y0022368D01*
X0111783Y0022577D01*
X0111783Y0021238D01*
X0110532Y0021756D01*
X0108555Y0021756D01*
X0108427Y0022136D02*
X0109168Y0022019D01*
X0109359Y0022019D01*
X0109359Y0026603D01*
X0104775Y0026603D01*
X0104775Y0026412D01*
X0104892Y0025671D01*
X0105124Y0024957D01*
X0105465Y0024288D01*
X0105906Y0023681D01*
X0106437Y0023150D01*
X0107044Y0022709D01*
X0107713Y0022368D01*
X0108427Y0022136D01*
X0109359Y0023261D02*
X0109728Y0023261D01*
X0109728Y0024859D02*
X0109359Y0024859D01*
X0109359Y0026458D02*
X0109728Y0026458D01*
X0109728Y0028056D02*
X0109359Y0028056D01*
X0109359Y0029655D02*
X0109728Y0029655D01*
X0109728Y0031253D02*
X0109359Y0031253D01*
X0107856Y0031253D02*
X0101745Y0031253D01*
X0103703Y0029655D02*
X0105732Y0029655D01*
X0104942Y0028056D02*
X0104396Y0028056D01*
X0104512Y0026458D02*
X0104775Y0026458D01*
X0105174Y0024859D02*
X0104122Y0024859D01*
X0103043Y0023261D02*
X0106326Y0023261D01*
X0105793Y0020064D02*
X0103294Y0020064D01*
X0104226Y0018465D02*
X0104860Y0018465D01*
X0104575Y0016867D02*
X0104512Y0016867D01*
X0104292Y0015268D02*
X0104795Y0015268D01*
X0105635Y0013670D02*
X0103452Y0013670D01*
X0101140Y0012071D02*
X0107946Y0012071D01*
X0111140Y0012071D02*
X0117946Y0012071D01*
X0115635Y0013670D02*
X0113452Y0013670D01*
X0114292Y0015268D02*
X0114795Y0015268D01*
X0114575Y0016867D02*
X0114512Y0016867D01*
X0114583Y0021748D02*
X0119543Y0016787D01*
X0124512Y0016867D02*
X0124575Y0016867D01*
X0124795Y0015268D02*
X0124292Y0015268D01*
X0123452Y0013670D02*
X0125635Y0013670D01*
X0127946Y0012071D02*
X0121140Y0012071D01*
X0129543Y0016787D02*
X0124524Y0021807D01*
X0124622Y0038402D01*
X0126886Y0040469D01*
X0122662Y0042443D02*
X0121679Y0042443D01*
X0121304Y0040844D02*
X0122228Y0040844D01*
X0121925Y0039246D02*
X0121294Y0039246D01*
X0121283Y0037647D02*
X0121818Y0037647D01*
X0121808Y0036049D02*
X0121273Y0036049D01*
X0121263Y0034450D02*
X0121799Y0034450D01*
X0121789Y0032852D02*
X0121252Y0032852D01*
X0121745Y0031253D02*
X0121780Y0031253D01*
X0118421Y0028106D02*
X0119543Y0026787D01*
X0118421Y0028106D02*
X0118520Y0043224D01*
X0124622Y0049425D01*
X0131906Y0049425D01*
X0133087Y0051394D01*
X0128973Y0053632D02*
X0047603Y0053632D01*
X0049202Y0052034D02*
X0123602Y0052034D01*
X0121688Y0050435D02*
X0113860Y0050435D01*
X0114894Y0048837D02*
X0120115Y0048837D01*
X0118541Y0047238D02*
X0115205Y0047238D01*
X0116029Y0045640D02*
X0116968Y0045640D01*
X0114583Y0043126D02*
X0114583Y0021748D01*
X0111783Y0021662D02*
X0110758Y0021662D01*
X0111230Y0031253D02*
X0111783Y0031253D01*
X0111783Y0032852D02*
X0092343Y0032852D01*
X0092343Y0034450D02*
X0111783Y0034450D01*
X0111783Y0036049D02*
X0092343Y0036049D01*
X0092343Y0037647D02*
X0111783Y0037647D01*
X0111783Y0039246D02*
X0092343Y0039246D01*
X0092343Y0040573D02*
X0091917Y0041602D01*
X0091091Y0042428D01*
X0091091Y0044052D01*
X0090381Y0045764D01*
X0089071Y0047074D01*
X0087359Y0047783D01*
X0085507Y0047783D01*
X0083795Y0047074D01*
X0082485Y0045764D01*
X0081776Y0044052D01*
X0081776Y0042200D01*
X0082485Y0040488D01*
X0083795Y0039178D01*
X0085507Y0038469D01*
X0086743Y0038469D01*
X0086743Y0031005D01*
X0086729Y0030999D01*
X0085331Y0029602D01*
X0084575Y0027776D01*
X0084575Y0025799D01*
X0085331Y0023973D01*
X0086729Y0022575D01*
X0088555Y0021819D01*
X0090532Y0021819D01*
X0092358Y0022575D01*
X0093755Y0023973D01*
X0094512Y0025799D01*
X0094512Y0027776D01*
X0093755Y0029602D01*
X0092358Y0030999D01*
X0092343Y0031005D01*
X0092343Y0040573D01*
X0092231Y0040844D02*
X0111783Y0040844D01*
X0111306Y0042443D02*
X0091091Y0042443D01*
X0091091Y0044041D02*
X0107081Y0044041D01*
X0106136Y0045640D02*
X0090433Y0045640D01*
X0088676Y0047238D02*
X0105890Y0047238D01*
X0106200Y0048837D02*
X0052399Y0048837D01*
X0053997Y0047238D02*
X0084190Y0047238D01*
X0082433Y0045640D02*
X0055596Y0045640D01*
X0057194Y0044041D02*
X0081776Y0044041D01*
X0081776Y0042443D02*
X0058793Y0042443D01*
X0060391Y0040844D02*
X0082337Y0040844D01*
X0083727Y0039246D02*
X0061901Y0039246D01*
X0062265Y0037647D02*
X0086743Y0037647D01*
X0086743Y0036049D02*
X0062265Y0036049D01*
X0062265Y0034450D02*
X0086743Y0034450D01*
X0086743Y0032852D02*
X0062265Y0032852D01*
X0071745Y0031253D02*
X0077341Y0031253D01*
X0075384Y0029655D02*
X0073703Y0029655D01*
X0074396Y0028056D02*
X0074691Y0028056D01*
X0074575Y0026458D02*
X0074512Y0026458D01*
X0074122Y0024859D02*
X0074964Y0024859D01*
X0076044Y0023261D02*
X0073043Y0023261D01*
X0072043Y0020866D02*
X0071374Y0021207D01*
X0070660Y0021438D01*
X0069919Y0021556D01*
X0069728Y0021556D01*
X0069728Y0016972D01*
X0074312Y0016972D01*
X0074312Y0017163D01*
X0074194Y0017904D01*
X0073962Y0018618D01*
X0073622Y0019287D01*
X0073181Y0019894D01*
X0072650Y0020425D01*
X0072043Y0020866D01*
X0073011Y0020064D02*
X0075793Y0020064D01*
X0074860Y0018465D02*
X0074012Y0018465D01*
X0074575Y0016867D02*
X0069728Y0016867D01*
X0069728Y0016972D02*
X0069728Y0016603D01*
X0074312Y0016603D01*
X0074312Y0016412D01*
X0074194Y0015671D01*
X0073962Y0014957D01*
X0073622Y0014288D01*
X0073181Y0013681D01*
X0072650Y0013150D01*
X0072043Y0012709D01*
X0071374Y0012368D01*
X0070660Y0012136D01*
X0069919Y0012019D01*
X0069728Y0012019D01*
X0069728Y0016603D01*
X0069359Y0016603D01*
X0069359Y0012019D01*
X0069168Y0012019D01*
X0068427Y0012136D01*
X0067713Y0012368D01*
X0067044Y0012709D01*
X0066437Y0013150D01*
X0065906Y0013681D01*
X0065465Y0014288D01*
X0065124Y0014957D01*
X0064892Y0015671D01*
X0064775Y0016412D01*
X0064775Y0016603D01*
X0069359Y0016603D01*
X0069359Y0016972D01*
X0069359Y0021556D01*
X0069168Y0021556D01*
X0068427Y0021438D01*
X0067713Y0021207D01*
X0067044Y0020866D01*
X0066437Y0020425D01*
X0065906Y0019894D01*
X0065465Y0019287D01*
X0065124Y0018618D01*
X0064892Y0017904D01*
X0064775Y0017163D01*
X0064775Y0016972D01*
X0069359Y0016972D01*
X0069728Y0016972D01*
X0069359Y0016867D02*
X0064512Y0016867D01*
X0064292Y0015268D02*
X0065023Y0015268D01*
X0065917Y0013670D02*
X0063452Y0013670D01*
X0061140Y0012071D02*
X0068839Y0012071D01*
X0069359Y0012071D02*
X0069728Y0012071D01*
X0070248Y0012071D02*
X0077946Y0012071D01*
X0075635Y0013670D02*
X0073169Y0013670D01*
X0074064Y0015268D02*
X0074795Y0015268D01*
X0069728Y0015268D02*
X0069359Y0015268D01*
X0069359Y0013670D02*
X0069728Y0013670D01*
X0069728Y0018465D02*
X0069359Y0018465D01*
X0069359Y0020064D02*
X0069728Y0020064D01*
X0066076Y0020064D02*
X0063294Y0020064D01*
X0064226Y0018465D02*
X0065075Y0018465D01*
X0058329Y0021662D02*
X0050758Y0021662D01*
X0045793Y0020064D02*
X0043294Y0020064D01*
X0044226Y0018465D02*
X0044860Y0018465D01*
X0044575Y0016867D02*
X0044512Y0016867D01*
X0044292Y0015268D02*
X0044795Y0015268D01*
X0045635Y0013670D02*
X0043452Y0013670D01*
X0081140Y0012071D02*
X0088839Y0012071D01*
X0089168Y0012019D02*
X0089359Y0012019D01*
X0089359Y0016603D01*
X0089728Y0016603D01*
X0089728Y0016972D01*
X0094312Y0016972D01*
X0094312Y0017163D01*
X0094194Y0017904D01*
X0093962Y0018618D01*
X0093622Y0019287D01*
X0093181Y0019894D01*
X0092650Y0020425D01*
X0092043Y0020866D01*
X0091374Y0021207D01*
X0090660Y0021438D01*
X0089919Y0021556D01*
X0089728Y0021556D01*
X0089728Y0016972D01*
X0089359Y0016972D01*
X0089359Y0021556D01*
X0089168Y0021556D01*
X0088427Y0021438D01*
X0087713Y0021207D01*
X0087044Y0020866D01*
X0086437Y0020425D01*
X0085906Y0019894D01*
X0085465Y0019287D01*
X0085124Y0018618D01*
X0084892Y0017904D01*
X0084775Y0017163D01*
X0084775Y0016972D01*
X0089359Y0016972D01*
X0089359Y0016603D01*
X0084775Y0016603D01*
X0084775Y0016412D01*
X0084892Y0015671D01*
X0085124Y0014957D01*
X0085465Y0014288D01*
X0085906Y0013681D01*
X0086437Y0013150D01*
X0087044Y0012709D01*
X0087713Y0012368D01*
X0088427Y0012136D01*
X0089168Y0012019D01*
X0089359Y0012071D02*
X0089728Y0012071D01*
X0089728Y0012019D02*
X0089919Y0012019D01*
X0090660Y0012136D01*
X0091374Y0012368D01*
X0092043Y0012709D01*
X0092650Y0013150D01*
X0093181Y0013681D01*
X0093622Y0014288D01*
X0093962Y0014957D01*
X0094194Y0015671D01*
X0094312Y0016412D01*
X0094312Y0016603D01*
X0089728Y0016603D01*
X0089728Y0012019D01*
X0090248Y0012071D02*
X0097946Y0012071D01*
X0095635Y0013670D02*
X0093169Y0013670D01*
X0094064Y0015268D02*
X0094795Y0015268D01*
X0094575Y0016867D02*
X0089728Y0016867D01*
X0089359Y0016867D02*
X0084512Y0016867D01*
X0084292Y0015268D02*
X0085023Y0015268D01*
X0085917Y0013670D02*
X0083452Y0013670D01*
X0084226Y0018465D02*
X0085075Y0018465D01*
X0086076Y0020064D02*
X0083294Y0020064D01*
X0083043Y0023261D02*
X0086044Y0023261D01*
X0084964Y0024859D02*
X0084122Y0024859D01*
X0084512Y0026458D02*
X0084575Y0026458D01*
X0084691Y0028056D02*
X0084396Y0028056D01*
X0083703Y0029655D02*
X0085384Y0029655D01*
X0086743Y0031253D02*
X0081745Y0031253D01*
X0089543Y0026787D02*
X0089543Y0040016D01*
X0086433Y0043126D01*
X0092343Y0031253D02*
X0097341Y0031253D01*
X0095384Y0029655D02*
X0093703Y0029655D01*
X0094396Y0028056D02*
X0094691Y0028056D01*
X0094575Y0026458D02*
X0094512Y0026458D01*
X0094122Y0024859D02*
X0094964Y0024859D01*
X0096044Y0023261D02*
X0093043Y0023261D01*
X0093011Y0020064D02*
X0095793Y0020064D01*
X0094860Y0018465D02*
X0094012Y0018465D01*
X0089728Y0018465D02*
X0089359Y0018465D01*
X0089359Y0020064D02*
X0089728Y0020064D01*
X0089728Y0015268D02*
X0089359Y0015268D01*
X0089359Y0013670D02*
X0089728Y0013670D01*
X0114583Y0043126D02*
X0110547Y0047161D01*
X0107234Y0050435D02*
X0050800Y0050435D01*
X0046005Y0055231D02*
X0130337Y0055231D01*
X0135836Y0055231D02*
X0139450Y0055231D01*
X0137852Y0056829D02*
X0044406Y0056829D01*
X0044600Y0058243D02*
X0065044Y0058147D01*
X0065050Y0058144D01*
X0065561Y0058144D01*
X0066072Y0058142D01*
X0066078Y0058144D01*
X0136537Y0058144D01*
X0158343Y0036338D01*
X0159074Y0035607D01*
X0160030Y0035211D01*
X0195395Y0035211D01*
X0196943Y0033663D01*
X0196943Y0031088D01*
X0196729Y0030999D01*
X0195331Y0029602D01*
X0194575Y0027776D01*
X0194575Y0025799D01*
X0195331Y0023973D01*
X0196729Y0022575D01*
X0198555Y0021819D01*
X0200532Y0021819D01*
X0202358Y0022575D01*
X0203755Y0023973D01*
X0204512Y0025799D01*
X0204512Y0027776D01*
X0203755Y0029602D01*
X0202358Y0030999D01*
X0202143Y0031088D01*
X0202143Y0035257D01*
X0201747Y0036213D01*
X0201016Y0036944D01*
X0197945Y0040015D01*
X0196990Y0040411D01*
X0161624Y0040411D01*
X0139087Y0062948D01*
X0138131Y0063344D01*
X0065572Y0063344D01*
X0045681Y0063437D01*
X0025254Y0083773D01*
X0025254Y0084437D01*
X0025292Y0084453D01*
X0026602Y0085763D01*
X0027311Y0087475D01*
X0027311Y0089328D01*
X0026602Y0091040D01*
X0025292Y0092350D01*
X0023580Y0093059D01*
X0021727Y0093059D01*
X0020015Y0092350D01*
X0018705Y0091040D01*
X0017996Y0089328D01*
X0017996Y0087475D01*
X0018705Y0085763D01*
X0020015Y0084453D01*
X0020054Y0084437D01*
X0020054Y0083207D01*
X0020052Y0083204D01*
X0020054Y0082690D01*
X0020054Y0082176D01*
X0020055Y0082173D01*
X0020055Y0082170D01*
X0020253Y0081695D01*
X0020449Y0081220D01*
X0020452Y0081218D01*
X0020453Y0081215D01*
X0020818Y0080852D01*
X0021181Y0080489D01*
X0021184Y0080488D01*
X0042762Y0059006D01*
X0043119Y0058645D01*
X0043128Y0058642D01*
X0043135Y0058635D01*
X0043605Y0058441D01*
X0044073Y0058245D01*
X0044082Y0058245D01*
X0044091Y0058241D01*
X0044600Y0058243D01*
X0043637Y0058428D02*
X0042808Y0058428D01*
X0041737Y0060026D02*
X0041209Y0060026D01*
X0040131Y0061625D02*
X0039610Y0061625D01*
X0038526Y0063223D02*
X0038012Y0063223D01*
X0036920Y0064822D02*
X0036413Y0064822D01*
X0035314Y0066420D02*
X0034815Y0066420D01*
X0033708Y0068019D02*
X0033216Y0068019D01*
X0032103Y0069617D02*
X0031618Y0069617D01*
X0030497Y0071216D02*
X0030019Y0071216D01*
X0028891Y0072814D02*
X0028421Y0072814D01*
X0027286Y0074413D02*
X0026822Y0074413D01*
X0025680Y0076011D02*
X0025224Y0076011D01*
X0024074Y0077610D02*
X0023625Y0077610D01*
X0022468Y0079209D02*
X0022027Y0079209D01*
X0020862Y0080807D02*
X0020428Y0080807D01*
X0020054Y0082406D02*
X0018830Y0082406D01*
X0020054Y0084004D02*
X0017580Y0084004D01*
X0017580Y0085603D02*
X0018866Y0085603D01*
X0018110Y0087201D02*
X0017580Y0087201D01*
X0017580Y0088800D02*
X0017996Y0088800D01*
X0017580Y0090398D02*
X0018439Y0090398D01*
X0017580Y0091997D02*
X0019662Y0091997D01*
X0017580Y0093595D02*
X0032724Y0093595D01*
X0032288Y0094031D02*
X0031579Y0095743D01*
X0031579Y0097596D01*
X0032288Y0099308D01*
X0033598Y0100618D01*
X0035310Y0101327D01*
X0037163Y0101327D01*
X0038874Y0100618D01*
X0040185Y0099308D01*
X0040894Y0097596D01*
X0040894Y0095743D01*
X0040185Y0094031D01*
X0038874Y0092721D01*
X0038836Y0092705D01*
X0038836Y0078849D01*
X0048535Y0069150D01*
X0139291Y0069053D01*
X0139805Y0069053D01*
X0139806Y0069052D01*
X0139807Y0069052D01*
X0140286Y0068854D01*
X0140760Y0068657D01*
X0140761Y0068656D01*
X0140763Y0068655D01*
X0141131Y0068286D01*
X0162508Y0046910D01*
X0203531Y0047004D01*
X0203534Y0047005D01*
X0204046Y0047005D01*
X0204562Y0047007D01*
X0204565Y0047005D01*
X0204568Y0047005D01*
X0205043Y0046809D01*
X0205519Y0046613D01*
X0205521Y0046611D01*
X0205524Y0046610D01*
X0205887Y0046247D01*
X0206252Y0045883D01*
X0206253Y0045880D01*
X0211016Y0041118D01*
X0211747Y0040386D01*
X0212143Y0039431D01*
X0212143Y0031088D01*
X0212358Y0030999D01*
X0213755Y0029602D01*
X0214512Y0027776D01*
X0214512Y0025799D01*
X0213755Y0023973D01*
X0212358Y0022575D01*
X0210532Y0021819D01*
X0208555Y0021819D01*
X0206729Y0022575D01*
X0205331Y0023973D01*
X0204575Y0025799D01*
X0204575Y0027776D01*
X0205331Y0029602D01*
X0206729Y0030999D01*
X0206943Y0031088D01*
X0206943Y0037836D01*
X0202977Y0041803D01*
X0161953Y0041708D01*
X0161950Y0041707D01*
X0161439Y0041707D01*
X0160922Y0041706D01*
X0160919Y0041707D01*
X0160916Y0041707D01*
X0160441Y0041904D01*
X0159965Y0042100D01*
X0159963Y0042102D01*
X0159960Y0042103D01*
X0159598Y0042466D01*
X0159232Y0042829D01*
X0159231Y0042832D01*
X0138209Y0063854D01*
X0047454Y0063951D01*
X0046940Y0063951D01*
X0046938Y0063952D01*
X0046937Y0063952D01*
X0046459Y0064150D01*
X0045984Y0064347D01*
X0045983Y0064348D01*
X0045982Y0064349D01*
X0045614Y0064717D01*
X0034763Y0075567D01*
X0034032Y0076299D01*
X0033636Y0077254D01*
X0033636Y0092705D01*
X0033598Y0092721D01*
X0032288Y0094031D01*
X0031806Y0095194D02*
X0017580Y0095194D01*
X0017580Y0096792D02*
X0031579Y0096792D01*
X0031908Y0098391D02*
X0017580Y0098391D01*
X0017580Y0099989D02*
X0032969Y0099989D01*
X0039503Y0099989D02*
X0051362Y0099989D01*
X0051362Y0100844D02*
X0051362Y0098991D01*
X0052071Y0097279D01*
X0053381Y0095969D01*
X0055093Y0095260D01*
X0056946Y0095260D01*
X0058658Y0095969D01*
X0059406Y0096717D01*
X0089432Y0096717D01*
X0090608Y0097204D01*
X0129584Y0136181D01*
X0130484Y0137081D01*
X0130972Y0138257D01*
X0130972Y0187470D01*
X0138743Y0195241D01*
X0196131Y0195241D01*
X0219265Y0172108D01*
X0218863Y0171412D01*
X0218161Y0168793D01*
X0218161Y0166081D01*
X0218863Y0163462D01*
X0220219Y0161113D01*
X0222137Y0159196D01*
X0224485Y0157840D01*
X0227105Y0157138D01*
X0229817Y0157138D01*
X0232408Y0157832D01*
X0242965Y0147276D01*
X0242965Y0024803D01*
X0238949Y0020787D01*
X0232570Y0020787D01*
X0232358Y0020999D01*
X0230532Y0021756D01*
X0228555Y0021756D01*
X0226729Y0020999D01*
X0226517Y0020787D01*
X0222570Y0020787D01*
X0222358Y0020999D01*
X0220532Y0021756D01*
X0218555Y0021756D01*
X0216729Y0020999D01*
X0215331Y0019602D01*
X0214575Y0017776D01*
X0214575Y0015799D01*
X0215331Y0013973D01*
X0216729Y0012575D01*
X0218555Y0011819D01*
X0220532Y0011819D01*
X0222358Y0012575D01*
X0222570Y0012787D01*
X0226517Y0012787D01*
X0226729Y0012575D01*
X0228555Y0011819D01*
X0230532Y0011819D01*
X0232358Y0012575D01*
X0232570Y0012787D01*
X0241402Y0012787D01*
X0242872Y0013396D01*
X0249230Y0019755D01*
X0250356Y0020880D01*
X0250965Y0022350D01*
X0250965Y0149729D01*
X0250356Y0151199D01*
X0238065Y0163489D01*
X0238760Y0166081D01*
X0238760Y0168793D01*
X0238058Y0171412D01*
X0236702Y0173761D01*
X0234784Y0175678D01*
X0232436Y0177034D01*
X0229817Y0177736D01*
X0227105Y0177736D01*
X0224485Y0177034D01*
X0223790Y0176633D01*
X0199269Y0201154D01*
X0198093Y0201641D01*
X0136781Y0201641D01*
X0135605Y0201154D01*
X0134704Y0200254D01*
X0125059Y0190608D01*
X0124572Y0189432D01*
X0124572Y0140219D01*
X0087470Y0103117D01*
X0059406Y0103117D01*
X0058658Y0103866D01*
X0056946Y0104575D01*
X0055093Y0104575D01*
X0053381Y0103866D01*
X0052071Y0102556D01*
X0051362Y0100844D01*
X0051670Y0101588D02*
X0017580Y0101588D01*
X0017580Y0103186D02*
X0052702Y0103186D01*
X0051611Y0098391D02*
X0040564Y0098391D01*
X0040894Y0096792D02*
X0052558Y0096792D01*
X0059337Y0103186D02*
X0087539Y0103186D01*
X0089137Y0104785D02*
X0017580Y0104785D01*
X0017580Y0106383D02*
X0090736Y0106383D01*
X0092334Y0107982D02*
X0017580Y0107982D01*
X0017580Y0109580D02*
X0093933Y0109580D01*
X0095531Y0111179D02*
X0025738Y0111179D01*
X0025685Y0111126D02*
X0026996Y0112437D01*
X0027705Y0114148D01*
X0027705Y0115719D01*
X0063272Y0115634D01*
X0063292Y0115586D01*
X0064602Y0114276D01*
X0066314Y0113567D01*
X0068167Y0113567D01*
X0069878Y0114276D01*
X0071189Y0115586D01*
X0071898Y0117298D01*
X0071898Y0119151D01*
X0071189Y0120863D01*
X0069878Y0122173D01*
X0068167Y0122882D01*
X0066314Y0122882D01*
X0064602Y0122173D01*
X0063292Y0120863D01*
X0063280Y0120834D01*
X0026815Y0120922D01*
X0026812Y0120923D01*
X0026296Y0120923D01*
X0025784Y0120924D01*
X0025781Y0120923D01*
X0025778Y0120923D01*
X0025303Y0120726D01*
X0024828Y0120531D01*
X0024825Y0120528D01*
X0024822Y0120527D01*
X0024460Y0120164D01*
X0024095Y0119801D01*
X0024093Y0119798D01*
X0024012Y0119716D01*
X0023974Y0119732D01*
X0022121Y0119732D01*
X0020409Y0119023D01*
X0019099Y0117713D01*
X0018390Y0116001D01*
X0018390Y0114148D01*
X0019099Y0112437D01*
X0020409Y0111126D01*
X0022121Y0110417D01*
X0023974Y0110417D01*
X0025685Y0111126D01*
X0027137Y0112777D02*
X0097130Y0112777D01*
X0098728Y0114376D02*
X0069978Y0114376D01*
X0071349Y0115974D02*
X0100327Y0115974D01*
X0101925Y0117573D02*
X0071898Y0117573D01*
X0071889Y0119171D02*
X0103524Y0119171D01*
X0105122Y0120770D02*
X0071227Y0120770D01*
X0069406Y0122368D02*
X0106721Y0122368D01*
X0108319Y0123967D02*
X0017580Y0123967D01*
X0017580Y0125565D02*
X0109918Y0125565D01*
X0111516Y0127164D02*
X0017580Y0127164D01*
X0017580Y0128762D02*
X0113115Y0128762D01*
X0114713Y0130361D02*
X0017580Y0130361D01*
X0017580Y0131959D02*
X0116312Y0131959D01*
X0117910Y0133558D02*
X0017580Y0133558D01*
X0017580Y0135156D02*
X0119509Y0135156D01*
X0121107Y0136755D02*
X0017580Y0136755D01*
X0017580Y0138353D02*
X0122706Y0138353D01*
X0124304Y0139952D02*
X0018813Y0139952D01*
X0020412Y0141550D02*
X0124572Y0141550D01*
X0124572Y0143149D02*
X0022010Y0143149D01*
X0023609Y0144747D02*
X0124572Y0144747D01*
X0124572Y0146346D02*
X0025207Y0146346D01*
X0026806Y0147945D02*
X0124572Y0147945D01*
X0124572Y0149543D02*
X0028404Y0149543D01*
X0030003Y0151142D02*
X0124572Y0151142D01*
X0124572Y0152740D02*
X0031601Y0152740D01*
X0033200Y0154339D02*
X0124572Y0154339D01*
X0124572Y0155937D02*
X0080536Y0155937D01*
X0081834Y0157536D02*
X0124572Y0157536D01*
X0124572Y0159134D02*
X0082331Y0159134D01*
X0082271Y0160733D02*
X0124572Y0160733D01*
X0124572Y0162331D02*
X0081590Y0162331D01*
X0079539Y0163930D02*
X0124572Y0163930D01*
X0124572Y0165528D02*
X0010874Y0165528D01*
X0010874Y0167127D02*
X0124572Y0167127D01*
X0124572Y0168725D02*
X0010874Y0168725D01*
X0010874Y0170324D02*
X0124572Y0170324D01*
X0124572Y0171922D02*
X0010874Y0171922D01*
X0010874Y0173521D02*
X0124572Y0173521D01*
X0124572Y0175119D02*
X0010874Y0175119D01*
X0010874Y0176718D02*
X0124572Y0176718D01*
X0124572Y0178316D02*
X0010874Y0178316D01*
X0010874Y0179915D02*
X0124572Y0179915D01*
X0124572Y0181513D02*
X0010874Y0181513D01*
X0010874Y0183112D02*
X0124572Y0183112D01*
X0124572Y0184710D02*
X0010874Y0184710D01*
X0010874Y0186309D02*
X0124572Y0186309D01*
X0124572Y0187907D02*
X0010874Y0187907D01*
X0010874Y0189506D02*
X0124602Y0189506D01*
X0125555Y0191104D02*
X0010874Y0191104D01*
X0010874Y0192703D02*
X0127154Y0192703D01*
X0128752Y0194301D02*
X0010874Y0194301D01*
X0010874Y0195900D02*
X0130351Y0195900D01*
X0131949Y0197498D02*
X0010874Y0197498D01*
X0010874Y0199097D02*
X0133548Y0199097D01*
X0135146Y0200695D02*
X0010874Y0200695D01*
X0010874Y0202294D02*
X0260811Y0202294D01*
X0260811Y0203892D02*
X0010874Y0203892D01*
X0010874Y0205491D02*
X0260811Y0205491D01*
X0260811Y0207089D02*
X0010874Y0207089D01*
X0010874Y0208688D02*
X0260811Y0208688D01*
X0260811Y0210286D02*
X0010874Y0210286D01*
X0010874Y0211885D02*
X0260811Y0211885D01*
X0260811Y0213483D02*
X0010874Y0213483D01*
X0010874Y0215082D02*
X0260811Y0215082D01*
X0260790Y0216680D02*
X0010874Y0216680D01*
X0010874Y0218279D02*
X0260586Y0218279D01*
X0260157Y0219878D02*
X0010874Y0219878D01*
X0010874Y0221476D02*
X0259446Y0221476D01*
X0258511Y0223075D02*
X0010874Y0223075D01*
X0010874Y0224673D02*
X0256912Y0224673D01*
X0254438Y0226272D02*
X0011114Y0226272D01*
X0034798Y0155937D02*
X0074811Y0155937D01*
X0065074Y0122368D02*
X0017580Y0122368D01*
X0017580Y0120770D02*
X0025409Y0120770D01*
X0020766Y0119171D02*
X0017580Y0119171D01*
X0017580Y0117573D02*
X0019041Y0117573D01*
X0018390Y0115974D02*
X0017580Y0115974D01*
X0017580Y0114376D02*
X0018390Y0114376D01*
X0018958Y0112777D02*
X0017580Y0112777D01*
X0017580Y0111179D02*
X0020357Y0111179D01*
X0027705Y0114376D02*
X0064502Y0114376D01*
X0040666Y0095194D02*
X0162386Y0095194D01*
X0162386Y0096792D02*
X0089612Y0096792D01*
X0091794Y0098391D02*
X0162386Y0098391D01*
X0162386Y0099989D02*
X0093393Y0099989D01*
X0094991Y0101588D02*
X0162386Y0101588D01*
X0162386Y0103186D02*
X0096590Y0103186D01*
X0098188Y0104785D02*
X0162386Y0104785D01*
X0162386Y0106383D02*
X0099787Y0106383D01*
X0101385Y0107982D02*
X0162386Y0107982D01*
X0162386Y0109580D02*
X0102984Y0109580D01*
X0104582Y0111179D02*
X0162386Y0111179D01*
X0162386Y0112777D02*
X0106181Y0112777D01*
X0107779Y0114376D02*
X0162386Y0114376D01*
X0162386Y0115974D02*
X0109378Y0115974D01*
X0110976Y0117573D02*
X0162386Y0117573D01*
X0162386Y0119171D02*
X0112575Y0119171D01*
X0114173Y0120770D02*
X0162386Y0120770D01*
X0162386Y0122368D02*
X0115772Y0122368D01*
X0117370Y0123967D02*
X0162386Y0123967D01*
X0162386Y0125565D02*
X0118969Y0125565D01*
X0120567Y0127164D02*
X0162386Y0127164D01*
X0162386Y0128762D02*
X0122166Y0128762D01*
X0123764Y0130361D02*
X0162386Y0130361D01*
X0162386Y0131959D02*
X0125363Y0131959D01*
X0126961Y0133558D02*
X0162386Y0133558D01*
X0162386Y0135156D02*
X0128560Y0135156D01*
X0130158Y0136755D02*
X0162386Y0136755D01*
X0162386Y0138353D02*
X0130972Y0138353D01*
X0130972Y0139952D02*
X0162386Y0139952D01*
X0162386Y0141550D02*
X0130972Y0141550D01*
X0130972Y0143149D02*
X0162386Y0143149D01*
X0162386Y0144747D02*
X0130972Y0144747D01*
X0130972Y0146346D02*
X0162386Y0146346D01*
X0162386Y0147945D02*
X0130972Y0147945D01*
X0130972Y0149543D02*
X0162386Y0149543D01*
X0162386Y0151142D02*
X0130972Y0151142D01*
X0130972Y0152740D02*
X0162386Y0152740D01*
X0162386Y0154339D02*
X0130972Y0154339D01*
X0130972Y0155937D02*
X0162386Y0155937D01*
X0162386Y0157536D02*
X0130972Y0157536D01*
X0130972Y0159134D02*
X0162386Y0159134D01*
X0162386Y0160733D02*
X0130972Y0160733D01*
X0130972Y0162331D02*
X0162386Y0162331D01*
X0162386Y0163930D02*
X0130972Y0163930D01*
X0130972Y0165528D02*
X0162386Y0165528D01*
X0162386Y0167127D02*
X0130972Y0167127D01*
X0130972Y0168725D02*
X0162386Y0168725D01*
X0162386Y0170324D02*
X0130972Y0170324D01*
X0130972Y0171922D02*
X0162386Y0171922D01*
X0162386Y0173521D02*
X0130972Y0173521D01*
X0130972Y0175119D02*
X0162386Y0175119D01*
X0162386Y0176718D02*
X0130972Y0176718D01*
X0130972Y0178316D02*
X0162386Y0178316D01*
X0162386Y0179915D02*
X0130972Y0179915D01*
X0130972Y0181513D02*
X0162386Y0181513D01*
X0162386Y0183112D02*
X0130972Y0183112D01*
X0130972Y0184710D02*
X0162386Y0184710D01*
X0162386Y0186309D02*
X0130972Y0186309D01*
X0131409Y0187907D02*
X0163425Y0187907D01*
X0163557Y0188039D02*
X0162386Y0186868D01*
X0162386Y0055290D01*
X0163557Y0054118D01*
X0165214Y0054118D01*
X0192773Y0054118D01*
X0193945Y0055290D01*
X0193945Y0186868D01*
X0192773Y0188039D01*
X0163557Y0188039D01*
X0137803Y0194301D02*
X0197071Y0194301D01*
X0198669Y0192703D02*
X0136205Y0192703D01*
X0134606Y0191104D02*
X0200268Y0191104D01*
X0201866Y0189506D02*
X0133008Y0189506D01*
X0192905Y0187907D02*
X0203465Y0187907D01*
X0205063Y0186309D02*
X0193945Y0186309D01*
X0193945Y0184710D02*
X0206662Y0184710D01*
X0208260Y0183112D02*
X0193945Y0183112D01*
X0193945Y0181513D02*
X0209859Y0181513D01*
X0211457Y0179915D02*
X0193945Y0179915D01*
X0193945Y0178316D02*
X0213056Y0178316D01*
X0214654Y0176718D02*
X0193945Y0176718D01*
X0193945Y0175119D02*
X0216253Y0175119D01*
X0217851Y0173521D02*
X0193945Y0173521D01*
X0193945Y0171922D02*
X0219158Y0171922D01*
X0218572Y0170324D02*
X0193945Y0170324D01*
X0193945Y0168725D02*
X0218161Y0168725D01*
X0218161Y0167127D02*
X0193945Y0167127D01*
X0193945Y0165528D02*
X0218310Y0165528D01*
X0218738Y0163930D02*
X0193945Y0163930D01*
X0193945Y0162331D02*
X0219516Y0162331D01*
X0220600Y0160733D02*
X0193945Y0160733D01*
X0193945Y0159134D02*
X0222243Y0159134D01*
X0225620Y0157536D02*
X0193945Y0157536D01*
X0193945Y0155937D02*
X0234304Y0155937D01*
X0235902Y0154339D02*
X0193945Y0154339D01*
X0193945Y0152740D02*
X0237501Y0152740D01*
X0239099Y0151142D02*
X0193945Y0151142D01*
X0193945Y0149543D02*
X0240698Y0149543D01*
X0242296Y0147945D02*
X0193945Y0147945D01*
X0193945Y0146346D02*
X0242965Y0146346D01*
X0242965Y0144747D02*
X0193945Y0144747D01*
X0193945Y0143149D02*
X0242965Y0143149D01*
X0242965Y0141550D02*
X0193945Y0141550D01*
X0193945Y0139952D02*
X0242965Y0139952D01*
X0242965Y0138353D02*
X0193945Y0138353D01*
X0193945Y0136755D02*
X0242965Y0136755D01*
X0242965Y0135156D02*
X0193945Y0135156D01*
X0193945Y0133558D02*
X0242965Y0133558D01*
X0242965Y0131959D02*
X0193945Y0131959D01*
X0193945Y0130361D02*
X0242965Y0130361D01*
X0242965Y0128762D02*
X0193945Y0128762D01*
X0193945Y0127164D02*
X0242965Y0127164D01*
X0242965Y0125565D02*
X0193945Y0125565D01*
X0193945Y0123967D02*
X0242965Y0123967D01*
X0242965Y0122368D02*
X0193945Y0122368D01*
X0193945Y0120770D02*
X0242965Y0120770D01*
X0242965Y0119171D02*
X0193945Y0119171D01*
X0193945Y0117573D02*
X0242965Y0117573D01*
X0242965Y0115974D02*
X0193945Y0115974D01*
X0193945Y0114376D02*
X0242965Y0114376D01*
X0242965Y0112777D02*
X0193945Y0112777D01*
X0193945Y0111179D02*
X0242965Y0111179D01*
X0242965Y0109580D02*
X0193945Y0109580D01*
X0193945Y0107982D02*
X0242965Y0107982D01*
X0242965Y0106383D02*
X0193945Y0106383D01*
X0193945Y0104785D02*
X0242965Y0104785D01*
X0242965Y0103186D02*
X0193945Y0103186D01*
X0193945Y0101588D02*
X0242965Y0101588D01*
X0242965Y0099989D02*
X0193945Y0099989D01*
X0193945Y0098391D02*
X0242965Y0098391D01*
X0242965Y0096792D02*
X0193945Y0096792D01*
X0193945Y0095194D02*
X0242965Y0095194D01*
X0242965Y0093595D02*
X0193945Y0093595D01*
X0193945Y0091997D02*
X0242965Y0091997D01*
X0242965Y0090398D02*
X0193945Y0090398D01*
X0193945Y0088800D02*
X0242965Y0088800D01*
X0242965Y0087201D02*
X0193945Y0087201D01*
X0193945Y0085603D02*
X0242965Y0085603D01*
X0242965Y0084004D02*
X0193945Y0084004D01*
X0193945Y0082406D02*
X0242965Y0082406D01*
X0242965Y0080807D02*
X0193945Y0080807D01*
X0193945Y0079209D02*
X0242965Y0079209D01*
X0242965Y0077610D02*
X0193945Y0077610D01*
X0193945Y0076011D02*
X0242965Y0076011D01*
X0242965Y0074413D02*
X0193945Y0074413D01*
X0193945Y0072814D02*
X0242965Y0072814D01*
X0242965Y0071216D02*
X0193945Y0071216D01*
X0193945Y0069617D02*
X0242965Y0069617D01*
X0242965Y0068019D02*
X0193945Y0068019D01*
X0193945Y0066420D02*
X0242965Y0066420D01*
X0242965Y0064822D02*
X0193945Y0064822D01*
X0193945Y0063223D02*
X0242965Y0063223D01*
X0242965Y0061625D02*
X0193945Y0061625D01*
X0193945Y0060026D02*
X0242965Y0060026D01*
X0242965Y0058428D02*
X0193945Y0058428D01*
X0193945Y0056829D02*
X0242965Y0056829D01*
X0242965Y0055231D02*
X0193886Y0055231D01*
X0206494Y0045640D02*
X0210373Y0045640D01*
X0208774Y0047238D02*
X0162179Y0047238D01*
X0162746Y0047511D02*
X0208502Y0047511D01*
X0216507Y0039506D01*
X0216507Y0030810D01*
X0215359Y0029662D01*
X0215336Y0029606D01*
X0215331Y0029602D01*
X0214575Y0027776D01*
X0214575Y0025799D01*
X0215331Y0023973D01*
X0216729Y0022575D01*
X0218555Y0021819D01*
X0220532Y0021819D01*
X0222358Y0022575D01*
X0223755Y0023973D01*
X0224512Y0025799D01*
X0224512Y0027776D01*
X0223755Y0029602D01*
X0222358Y0030999D01*
X0222107Y0031103D01*
X0222107Y0041222D01*
X0221681Y0042251D01*
X0212035Y0051897D01*
X0211247Y0052685D01*
X0210218Y0053111D01*
X0164463Y0053111D01*
X0143334Y0074240D01*
X0142547Y0075027D01*
X0141518Y0075454D01*
X0055309Y0075454D01*
X0048374Y0082389D01*
X0048374Y0084013D01*
X0047665Y0085725D01*
X0046355Y0087035D01*
X0044643Y0087744D01*
X0042790Y0087744D01*
X0041078Y0087035D01*
X0039768Y0085725D01*
X0039059Y0084013D01*
X0039059Y0082160D01*
X0039768Y0080448D01*
X0041078Y0079138D01*
X0042790Y0078429D01*
X0044414Y0078429D01*
X0052564Y0070280D01*
X0053593Y0069854D01*
X0139801Y0069854D01*
X0161717Y0047937D01*
X0162746Y0047511D01*
X0160818Y0048837D02*
X0160580Y0048837D01*
X0159219Y0050435D02*
X0158982Y0050435D01*
X0157621Y0052034D02*
X0157383Y0052034D01*
X0156022Y0053632D02*
X0155785Y0053632D01*
X0154424Y0055231D02*
X0154186Y0055231D01*
X0152825Y0056829D02*
X0152588Y0056829D01*
X0151227Y0058428D02*
X0150989Y0058428D01*
X0149628Y0060026D02*
X0149391Y0060026D01*
X0148029Y0061625D02*
X0147792Y0061625D01*
X0146431Y0063223D02*
X0146194Y0063223D01*
X0144832Y0064822D02*
X0144595Y0064822D01*
X0143234Y0066420D02*
X0142997Y0066420D01*
X0141635Y0068019D02*
X0141398Y0068019D01*
X0140037Y0069617D02*
X0048067Y0069617D01*
X0046469Y0071216D02*
X0051627Y0071216D01*
X0050029Y0072814D02*
X0044870Y0072814D01*
X0043272Y0074413D02*
X0048430Y0074413D01*
X0046832Y0076011D02*
X0041673Y0076011D01*
X0040075Y0077610D02*
X0045233Y0077610D01*
X0041008Y0079209D02*
X0038836Y0079209D01*
X0038836Y0080807D02*
X0039620Y0080807D01*
X0039059Y0082406D02*
X0038836Y0082406D01*
X0038836Y0084004D02*
X0039059Y0084004D01*
X0038836Y0085603D02*
X0039717Y0085603D01*
X0038836Y0087201D02*
X0041479Y0087201D01*
X0038836Y0088800D02*
X0162386Y0088800D01*
X0162386Y0090398D02*
X0038836Y0090398D01*
X0038836Y0091997D02*
X0162386Y0091997D01*
X0162386Y0093595D02*
X0039749Y0093595D01*
X0033636Y0091997D02*
X0025645Y0091997D01*
X0026868Y0090398D02*
X0033636Y0090398D01*
X0033636Y0088800D02*
X0027311Y0088800D01*
X0027197Y0087201D02*
X0033636Y0087201D01*
X0033636Y0085603D02*
X0026441Y0085603D01*
X0025254Y0084004D02*
X0033636Y0084004D01*
X0033636Y0082406D02*
X0026627Y0082406D01*
X0028233Y0080807D02*
X0033636Y0080807D01*
X0033636Y0079209D02*
X0029839Y0079209D01*
X0031445Y0077610D02*
X0033636Y0077610D01*
X0033050Y0076011D02*
X0034319Y0076011D01*
X0034656Y0074413D02*
X0035918Y0074413D01*
X0036262Y0072814D02*
X0037516Y0072814D01*
X0037867Y0071216D02*
X0039115Y0071216D01*
X0039473Y0069617D02*
X0040713Y0069617D01*
X0041079Y0068019D02*
X0042312Y0068019D01*
X0042685Y0066420D02*
X0043910Y0066420D01*
X0044290Y0064822D02*
X0045509Y0064822D01*
X0054150Y0072654D02*
X0043717Y0083087D01*
X0048374Y0082406D02*
X0162386Y0082406D01*
X0162386Y0084004D02*
X0048374Y0084004D01*
X0047716Y0085603D02*
X0162386Y0085603D01*
X0162386Y0087201D02*
X0045954Y0087201D01*
X0049956Y0080807D02*
X0162386Y0080807D01*
X0162386Y0079209D02*
X0051554Y0079209D01*
X0053153Y0077610D02*
X0162386Y0077610D01*
X0162386Y0076011D02*
X0054751Y0076011D01*
X0054150Y0072654D02*
X0140961Y0072654D01*
X0163303Y0050311D01*
X0209661Y0050311D01*
X0219307Y0040665D01*
X0219307Y0027024D01*
X0214691Y0028056D02*
X0214396Y0028056D01*
X0214512Y0026458D02*
X0214575Y0026458D01*
X0214964Y0024859D02*
X0214122Y0024859D01*
X0213043Y0023261D02*
X0216044Y0023261D01*
X0218329Y0021662D02*
X0200758Y0021662D01*
X0200532Y0021756D02*
X0198555Y0021756D01*
X0196729Y0020999D01*
X0195331Y0019602D01*
X0194575Y0017776D01*
X0194575Y0015799D01*
X0195331Y0013973D01*
X0196729Y0012575D01*
X0198555Y0011819D01*
X0200532Y0011819D01*
X0202358Y0012575D01*
X0203755Y0013973D01*
X0204512Y0015799D01*
X0204512Y0017776D01*
X0203755Y0019602D01*
X0202358Y0020999D01*
X0200532Y0021756D01*
X0198329Y0021662D02*
X0190758Y0021662D01*
X0190532Y0021756D02*
X0188555Y0021756D01*
X0186729Y0020999D01*
X0185331Y0019602D01*
X0184575Y0017776D01*
X0184575Y0015799D01*
X0185331Y0013973D01*
X0186729Y0012575D01*
X0188555Y0011819D01*
X0190532Y0011819D01*
X0192358Y0012575D01*
X0193755Y0013973D01*
X0194512Y0015799D01*
X0194512Y0017776D01*
X0193755Y0019602D01*
X0192358Y0020999D01*
X0190532Y0021756D01*
X0190660Y0022136D02*
X0191374Y0022368D01*
X0192043Y0022709D01*
X0192650Y0023150D01*
X0193181Y0023681D01*
X0193622Y0024288D01*
X0193962Y0024957D01*
X0194194Y0025671D01*
X0194312Y0026412D01*
X0194312Y0026603D01*
X0189728Y0026603D01*
X0189728Y0026972D01*
X0194312Y0026972D01*
X0194312Y0027163D01*
X0194194Y0027904D01*
X0193962Y0028618D01*
X0193622Y0029287D01*
X0193181Y0029894D01*
X0192650Y0030425D01*
X0192043Y0030866D01*
X0191374Y0031207D01*
X0190660Y0031438D01*
X0189919Y0031556D01*
X0189728Y0031556D01*
X0189728Y0026972D01*
X0189359Y0026972D01*
X0189359Y0031556D01*
X0189168Y0031556D01*
X0188427Y0031438D01*
X0187713Y0031207D01*
X0187044Y0030866D01*
X0186437Y0030425D01*
X0185906Y0029894D01*
X0185465Y0029287D01*
X0185124Y0028618D01*
X0184892Y0027904D01*
X0184775Y0027163D01*
X0184775Y0026972D01*
X0189359Y0026972D01*
X0189359Y0026603D01*
X0189728Y0026603D01*
X0189728Y0022019D01*
X0189919Y0022019D01*
X0190660Y0022136D01*
X0189359Y0022019D02*
X0189359Y0026603D01*
X0184775Y0026603D01*
X0184775Y0026412D01*
X0184892Y0025671D01*
X0185124Y0024957D01*
X0185465Y0024288D01*
X0185906Y0023681D01*
X0186437Y0023150D01*
X0187044Y0022709D01*
X0187713Y0022368D01*
X0188427Y0022136D01*
X0189168Y0022019D01*
X0189359Y0022019D01*
X0188329Y0021662D02*
X0180758Y0021662D01*
X0180532Y0021756D02*
X0178555Y0021756D01*
X0176729Y0020999D01*
X0175331Y0019602D01*
X0174575Y0017776D01*
X0174575Y0015799D01*
X0175331Y0013973D01*
X0176729Y0012575D01*
X0178555Y0011819D01*
X0180532Y0011819D01*
X0182358Y0012575D01*
X0183755Y0013973D01*
X0184512Y0015799D01*
X0184512Y0017776D01*
X0183755Y0019602D01*
X0182358Y0020999D01*
X0180532Y0021756D01*
X0180532Y0021819D02*
X0182358Y0022575D01*
X0183755Y0023973D01*
X0184512Y0025799D01*
X0184512Y0027776D01*
X0183755Y0029602D01*
X0182358Y0030999D01*
X0180532Y0031756D01*
X0178555Y0031756D01*
X0176729Y0030999D01*
X0175331Y0029602D01*
X0174575Y0027776D01*
X0174575Y0025799D01*
X0175331Y0023973D01*
X0176729Y0022575D01*
X0178555Y0021819D01*
X0180532Y0021819D01*
X0178329Y0021662D02*
X0160758Y0021662D01*
X0160532Y0021756D02*
X0158555Y0021756D01*
X0156729Y0020999D01*
X0155331Y0019602D01*
X0154575Y0017776D01*
X0154575Y0015799D01*
X0155331Y0013973D01*
X0156729Y0012575D01*
X0158555Y0011819D01*
X0160532Y0011819D01*
X0162358Y0012575D01*
X0163755Y0013973D01*
X0164512Y0015799D01*
X0164512Y0017776D01*
X0163755Y0019602D01*
X0162358Y0020999D01*
X0160532Y0021756D01*
X0160532Y0021819D02*
X0162358Y0022575D01*
X0163755Y0023973D01*
X0164512Y0025799D01*
X0164512Y0027776D01*
X0163755Y0029602D01*
X0162358Y0030999D01*
X0160532Y0031756D01*
X0158555Y0031756D01*
X0156729Y0030999D01*
X0155331Y0029602D01*
X0154575Y0027776D01*
X0154575Y0025799D01*
X0155331Y0023973D01*
X0156729Y0022575D01*
X0158555Y0021819D01*
X0160532Y0021819D01*
X0158329Y0021662D02*
X0150758Y0021662D01*
X0150532Y0021756D02*
X0148555Y0021756D01*
X0146729Y0020999D01*
X0145331Y0019602D01*
X0144575Y0017776D01*
X0144575Y0015799D01*
X0145331Y0013973D01*
X0146729Y0012575D01*
X0148555Y0011819D01*
X0150532Y0011819D01*
X0152358Y0012575D01*
X0153755Y0013973D01*
X0154512Y0015799D01*
X0154512Y0017776D01*
X0153755Y0019602D01*
X0152358Y0020999D01*
X0150532Y0021756D01*
X0150532Y0021819D02*
X0152358Y0022575D01*
X0153755Y0023973D01*
X0154512Y0025799D01*
X0154512Y0027776D01*
X0153755Y0029602D01*
X0152358Y0030999D01*
X0150532Y0031756D01*
X0148555Y0031756D01*
X0146729Y0030999D01*
X0145331Y0029602D01*
X0144575Y0027776D01*
X0144575Y0025799D01*
X0145331Y0023973D01*
X0146729Y0022575D01*
X0148555Y0021819D01*
X0150532Y0021819D01*
X0148329Y0021662D02*
X0130758Y0021662D01*
X0133043Y0023261D02*
X0136044Y0023261D01*
X0136729Y0022575D02*
X0138555Y0021819D01*
X0140532Y0021819D01*
X0142358Y0022575D01*
X0143755Y0023973D01*
X0144512Y0025799D01*
X0144512Y0027776D01*
X0143755Y0029602D01*
X0142358Y0030999D01*
X0142255Y0031042D01*
X0143433Y0032220D01*
X0144142Y0033932D01*
X0144142Y0035785D01*
X0143433Y0037497D01*
X0142122Y0038807D01*
X0140411Y0039516D01*
X0138558Y0039516D01*
X0136846Y0038807D01*
X0135536Y0037497D01*
X0134827Y0035785D01*
X0134827Y0033932D01*
X0135536Y0032220D01*
X0136748Y0031008D01*
X0136729Y0030999D01*
X0135331Y0029602D01*
X0134575Y0027776D01*
X0134575Y0025799D01*
X0135331Y0023973D01*
X0136729Y0022575D01*
X0137713Y0021207D02*
X0137044Y0020866D01*
X0136437Y0020425D01*
X0135906Y0019894D01*
X0135465Y0019287D01*
X0135124Y0018618D01*
X0134892Y0017904D01*
X0134775Y0017163D01*
X0134775Y0016972D01*
X0139359Y0016972D01*
X0139359Y0021556D01*
X0139168Y0021556D01*
X0138427Y0021438D01*
X0137713Y0021207D01*
X0136076Y0020064D02*
X0133294Y0020064D01*
X0134226Y0018465D02*
X0135075Y0018465D01*
X0134512Y0016867D02*
X0139359Y0016867D01*
X0139359Y0016972D02*
X0139359Y0016603D01*
X0139728Y0016603D01*
X0139728Y0016972D01*
X0144312Y0016972D01*
X0144312Y0017163D01*
X0144194Y0017904D01*
X0143962Y0018618D01*
X0143622Y0019287D01*
X0143181Y0019894D01*
X0142650Y0020425D01*
X0142043Y0020866D01*
X0141374Y0021207D01*
X0140660Y0021438D01*
X0139919Y0021556D01*
X0139728Y0021556D01*
X0139728Y0016972D01*
X0139359Y0016972D01*
X0139359Y0016603D02*
X0134775Y0016603D01*
X0134775Y0016412D01*
X0134892Y0015671D01*
X0135124Y0014957D01*
X0135465Y0014288D01*
X0135906Y0013681D01*
X0136437Y0013150D01*
X0137044Y0012709D01*
X0137713Y0012368D01*
X0138427Y0012136D01*
X0139168Y0012019D01*
X0139359Y0012019D01*
X0139359Y0016603D01*
X0139728Y0016603D02*
X0139728Y0012019D01*
X0139919Y0012019D01*
X0140660Y0012136D01*
X0141374Y0012368D01*
X0142043Y0012709D01*
X0142650Y0013150D01*
X0143181Y0013681D01*
X0143622Y0014288D01*
X0143962Y0014957D01*
X0144194Y0015671D01*
X0144312Y0016412D01*
X0144312Y0016603D01*
X0139728Y0016603D01*
X0139728Y0016867D02*
X0144575Y0016867D01*
X0144795Y0015268D02*
X0144064Y0015268D01*
X0143169Y0013670D02*
X0145635Y0013670D01*
X0147946Y0012071D02*
X0140248Y0012071D01*
X0139728Y0012071D02*
X0139359Y0012071D01*
X0138839Y0012071D02*
X0131140Y0012071D01*
X0133452Y0013670D02*
X0135917Y0013670D01*
X0135023Y0015268D02*
X0134292Y0015268D01*
X0139359Y0015268D02*
X0139728Y0015268D01*
X0139728Y0013670D02*
X0139359Y0013670D01*
X0139359Y0018465D02*
X0139728Y0018465D01*
X0139728Y0020064D02*
X0139359Y0020064D01*
X0143011Y0020064D02*
X0145793Y0020064D01*
X0144860Y0018465D02*
X0144012Y0018465D01*
X0143043Y0023261D02*
X0146044Y0023261D01*
X0144964Y0024859D02*
X0144122Y0024859D01*
X0144512Y0026458D02*
X0144575Y0026458D01*
X0144691Y0028056D02*
X0144396Y0028056D01*
X0143703Y0029655D02*
X0145384Y0029655D01*
X0147341Y0031253D02*
X0142466Y0031253D01*
X0143694Y0032852D02*
X0196943Y0032852D01*
X0196943Y0031253D02*
X0191230Y0031253D01*
X0189728Y0031253D02*
X0189359Y0031253D01*
X0187856Y0031253D02*
X0181745Y0031253D01*
X0183703Y0029655D02*
X0185732Y0029655D01*
X0184942Y0028056D02*
X0184396Y0028056D01*
X0184512Y0026458D02*
X0184775Y0026458D01*
X0185174Y0024859D02*
X0184122Y0024859D01*
X0183043Y0023261D02*
X0186326Y0023261D01*
X0189359Y0023261D02*
X0189728Y0023261D01*
X0189728Y0024859D02*
X0189359Y0024859D01*
X0189359Y0026458D02*
X0189728Y0026458D01*
X0189728Y0028056D02*
X0189359Y0028056D01*
X0189359Y0029655D02*
X0189728Y0029655D01*
X0193354Y0029655D02*
X0195384Y0029655D01*
X0194691Y0028056D02*
X0194145Y0028056D01*
X0194312Y0026458D02*
X0194575Y0026458D01*
X0194964Y0024859D02*
X0193913Y0024859D01*
X0192760Y0023261D02*
X0196044Y0023261D01*
X0195793Y0020064D02*
X0193294Y0020064D01*
X0194226Y0018465D02*
X0194860Y0018465D01*
X0194575Y0016867D02*
X0194512Y0016867D01*
X0194292Y0015268D02*
X0194795Y0015268D01*
X0195635Y0013670D02*
X0193452Y0013670D01*
X0191140Y0012071D02*
X0197946Y0012071D01*
X0201140Y0012071D02*
X0208839Y0012071D01*
X0209168Y0012019D02*
X0209359Y0012019D01*
X0209359Y0016603D01*
X0209728Y0016603D01*
X0209728Y0016972D01*
X0214312Y0016972D01*
X0214312Y0017163D01*
X0214194Y0017904D01*
X0213962Y0018618D01*
X0213622Y0019287D01*
X0213181Y0019894D01*
X0212650Y0020425D01*
X0212043Y0020866D01*
X0211374Y0021207D01*
X0210660Y0021438D01*
X0209919Y0021556D01*
X0209728Y0021556D01*
X0209728Y0016972D01*
X0209359Y0016972D01*
X0209359Y0021556D01*
X0209168Y0021556D01*
X0208427Y0021438D01*
X0207713Y0021207D01*
X0207044Y0020866D01*
X0206437Y0020425D01*
X0205906Y0019894D01*
X0205465Y0019287D01*
X0205124Y0018618D01*
X0204892Y0017904D01*
X0204775Y0017163D01*
X0204775Y0016972D01*
X0209359Y0016972D01*
X0209359Y0016603D01*
X0204775Y0016603D01*
X0204775Y0016412D01*
X0204892Y0015671D01*
X0205124Y0014957D01*
X0205465Y0014288D01*
X0205906Y0013681D01*
X0206437Y0013150D01*
X0207044Y0012709D01*
X0207713Y0012368D01*
X0208427Y0012136D01*
X0209168Y0012019D01*
X0209359Y0012071D02*
X0209728Y0012071D01*
X0209728Y0012019D02*
X0209919Y0012019D01*
X0210660Y0012136D01*
X0211374Y0012368D01*
X0212043Y0012709D01*
X0212650Y0013150D01*
X0213181Y0013681D01*
X0213622Y0014288D01*
X0213962Y0014957D01*
X0214194Y0015671D01*
X0214312Y0016412D01*
X0214312Y0016603D01*
X0209728Y0016603D01*
X0209728Y0012019D01*
X0210248Y0012071D02*
X0217946Y0012071D01*
X0215635Y0013670D02*
X0213169Y0013670D01*
X0214064Y0015268D02*
X0214795Y0015268D01*
X0214575Y0016867D02*
X0209728Y0016867D01*
X0209359Y0016867D02*
X0204512Y0016867D01*
X0204292Y0015268D02*
X0205023Y0015268D01*
X0205917Y0013670D02*
X0203452Y0013670D01*
X0204226Y0018465D02*
X0205075Y0018465D01*
X0206076Y0020064D02*
X0203294Y0020064D01*
X0203043Y0023261D02*
X0206044Y0023261D01*
X0204964Y0024859D02*
X0204122Y0024859D01*
X0204512Y0026458D02*
X0204575Y0026458D01*
X0204691Y0028056D02*
X0204396Y0028056D01*
X0203703Y0029655D02*
X0205384Y0029655D01*
X0206943Y0031253D02*
X0202143Y0031253D01*
X0202143Y0032852D02*
X0206943Y0032852D01*
X0206943Y0034450D02*
X0202143Y0034450D01*
X0201816Y0036049D02*
X0206943Y0036049D01*
X0206943Y0037647D02*
X0200313Y0037647D01*
X0198715Y0039246D02*
X0205534Y0039246D01*
X0203935Y0040844D02*
X0161191Y0040844D01*
X0159620Y0042443D02*
X0159592Y0042443D01*
X0158022Y0044041D02*
X0157994Y0044041D01*
X0156423Y0045640D02*
X0156395Y0045640D01*
X0154825Y0047238D02*
X0154797Y0047238D01*
X0153226Y0048837D02*
X0153198Y0048837D01*
X0151628Y0050435D02*
X0151600Y0050435D01*
X0150029Y0052034D02*
X0150001Y0052034D01*
X0148431Y0053632D02*
X0148403Y0053632D01*
X0146832Y0055231D02*
X0146804Y0055231D01*
X0145234Y0056829D02*
X0145206Y0056829D01*
X0143635Y0058428D02*
X0143607Y0058428D01*
X0142037Y0060026D02*
X0142009Y0060026D01*
X0140438Y0061625D02*
X0140410Y0061625D01*
X0138840Y0063223D02*
X0138423Y0063223D01*
X0146358Y0071216D02*
X0162386Y0071216D01*
X0162386Y0072814D02*
X0144759Y0072814D01*
X0143161Y0074413D02*
X0162386Y0074413D01*
X0162386Y0069617D02*
X0147957Y0069617D01*
X0149555Y0068019D02*
X0162386Y0068019D01*
X0162386Y0066420D02*
X0151154Y0066420D01*
X0152752Y0064822D02*
X0162386Y0064822D01*
X0162386Y0063223D02*
X0154351Y0063223D01*
X0155949Y0061625D02*
X0162386Y0061625D01*
X0162386Y0060026D02*
X0157548Y0060026D01*
X0159146Y0058428D02*
X0162386Y0058428D01*
X0162386Y0056829D02*
X0160745Y0056829D01*
X0162343Y0055231D02*
X0162445Y0055231D01*
X0163942Y0053632D02*
X0242965Y0053632D01*
X0242965Y0052034D02*
X0211898Y0052034D01*
X0213497Y0050435D02*
X0242965Y0050435D01*
X0242965Y0048837D02*
X0215095Y0048837D01*
X0216694Y0047238D02*
X0242965Y0047238D01*
X0242965Y0045640D02*
X0218292Y0045640D01*
X0219891Y0044041D02*
X0242965Y0044041D01*
X0242965Y0042443D02*
X0221489Y0042443D01*
X0222107Y0040844D02*
X0242965Y0040844D01*
X0242965Y0039246D02*
X0222107Y0039246D01*
X0222107Y0037647D02*
X0242965Y0037647D01*
X0242965Y0036049D02*
X0222107Y0036049D01*
X0222107Y0034450D02*
X0242965Y0034450D01*
X0242965Y0032852D02*
X0222107Y0032852D01*
X0222107Y0031253D02*
X0227341Y0031253D01*
X0226729Y0030999D02*
X0225331Y0029602D01*
X0224575Y0027776D01*
X0224575Y0025799D01*
X0225331Y0023973D01*
X0226729Y0022575D01*
X0228555Y0021819D01*
X0230532Y0021819D01*
X0232358Y0022575D01*
X0233755Y0023973D01*
X0234512Y0025799D01*
X0234512Y0027776D01*
X0233755Y0029602D01*
X0232358Y0030999D01*
X0230532Y0031756D01*
X0228555Y0031756D01*
X0226729Y0030999D01*
X0225384Y0029655D02*
X0223703Y0029655D01*
X0224396Y0028056D02*
X0224691Y0028056D01*
X0224575Y0026458D02*
X0224512Y0026458D01*
X0224122Y0024859D02*
X0224964Y0024859D01*
X0226044Y0023261D02*
X0223043Y0023261D01*
X0220758Y0021662D02*
X0228329Y0021662D01*
X0230758Y0021662D02*
X0239824Y0021662D01*
X0241423Y0023261D02*
X0233043Y0023261D01*
X0234122Y0024859D02*
X0242965Y0024859D01*
X0242965Y0026458D02*
X0234512Y0026458D01*
X0234396Y0028056D02*
X0242965Y0028056D01*
X0242965Y0029655D02*
X0233703Y0029655D01*
X0231745Y0031253D02*
X0242965Y0031253D01*
X0250965Y0031253D02*
X0260811Y0031253D01*
X0260811Y0029655D02*
X0250965Y0029655D01*
X0250965Y0028056D02*
X0260811Y0028056D01*
X0260811Y0026458D02*
X0250965Y0026458D01*
X0250965Y0024859D02*
X0260811Y0024859D01*
X0260811Y0023261D02*
X0250965Y0023261D01*
X0250680Y0021662D02*
X0260811Y0021662D01*
X0260811Y0020064D02*
X0249539Y0020064D01*
X0247941Y0018465D02*
X0260811Y0018465D01*
X0260811Y0016867D02*
X0246342Y0016867D01*
X0244744Y0015268D02*
X0260811Y0015268D01*
X0260811Y0013670D02*
X0243145Y0013670D01*
X0231140Y0012071D02*
X0260811Y0012071D01*
X0260811Y0032852D02*
X0250965Y0032852D01*
X0250965Y0034450D02*
X0260811Y0034450D01*
X0260811Y0036049D02*
X0250965Y0036049D01*
X0250965Y0037647D02*
X0260811Y0037647D01*
X0260811Y0039246D02*
X0250965Y0039246D01*
X0250965Y0040844D02*
X0260811Y0040844D01*
X0260811Y0042443D02*
X0250965Y0042443D01*
X0250965Y0044041D02*
X0260811Y0044041D01*
X0260811Y0045640D02*
X0250965Y0045640D01*
X0250965Y0047238D02*
X0260811Y0047238D01*
X0260811Y0048837D02*
X0250965Y0048837D01*
X0250965Y0050435D02*
X0260811Y0050435D01*
X0260811Y0052034D02*
X0250965Y0052034D01*
X0250965Y0053632D02*
X0260811Y0053632D01*
X0260811Y0055231D02*
X0250965Y0055231D01*
X0250965Y0056829D02*
X0260811Y0056829D01*
X0260811Y0058428D02*
X0250965Y0058428D01*
X0250965Y0060026D02*
X0260811Y0060026D01*
X0260811Y0061625D02*
X0250965Y0061625D01*
X0250965Y0063223D02*
X0260811Y0063223D01*
X0260811Y0064822D02*
X0250965Y0064822D01*
X0250965Y0066420D02*
X0260811Y0066420D01*
X0260811Y0068019D02*
X0250965Y0068019D01*
X0250965Y0069617D02*
X0260811Y0069617D01*
X0260811Y0071216D02*
X0250965Y0071216D01*
X0250965Y0072814D02*
X0260811Y0072814D01*
X0260811Y0074413D02*
X0250965Y0074413D01*
X0250965Y0076011D02*
X0260811Y0076011D01*
X0260811Y0077610D02*
X0250965Y0077610D01*
X0250965Y0079209D02*
X0260811Y0079209D01*
X0260811Y0080807D02*
X0250965Y0080807D01*
X0250965Y0082406D02*
X0260811Y0082406D01*
X0260811Y0084004D02*
X0250965Y0084004D01*
X0250965Y0085603D02*
X0260811Y0085603D01*
X0260811Y0087201D02*
X0250965Y0087201D01*
X0250965Y0088800D02*
X0260811Y0088800D01*
X0260811Y0090398D02*
X0250965Y0090398D01*
X0250965Y0091997D02*
X0260811Y0091997D01*
X0260811Y0093595D02*
X0250965Y0093595D01*
X0250965Y0095194D02*
X0260811Y0095194D01*
X0260811Y0096792D02*
X0250965Y0096792D01*
X0250965Y0098391D02*
X0260811Y0098391D01*
X0260811Y0099989D02*
X0250965Y0099989D01*
X0250965Y0101588D02*
X0260811Y0101588D01*
X0260811Y0103186D02*
X0250965Y0103186D01*
X0250965Y0104785D02*
X0260811Y0104785D01*
X0260811Y0106383D02*
X0250965Y0106383D01*
X0250965Y0107982D02*
X0260811Y0107982D01*
X0260811Y0109580D02*
X0250965Y0109580D01*
X0250965Y0111179D02*
X0260811Y0111179D01*
X0260811Y0112777D02*
X0250965Y0112777D01*
X0250965Y0114376D02*
X0260811Y0114376D01*
X0260811Y0115974D02*
X0250965Y0115974D01*
X0250965Y0117573D02*
X0260811Y0117573D01*
X0260811Y0119171D02*
X0250965Y0119171D01*
X0250965Y0120770D02*
X0260811Y0120770D01*
X0260811Y0122368D02*
X0250965Y0122368D01*
X0250965Y0123967D02*
X0260811Y0123967D01*
X0260811Y0125565D02*
X0250965Y0125565D01*
X0250965Y0127164D02*
X0260811Y0127164D01*
X0260811Y0128762D02*
X0250965Y0128762D01*
X0250965Y0130361D02*
X0260811Y0130361D01*
X0260811Y0131959D02*
X0250965Y0131959D01*
X0250965Y0133558D02*
X0260811Y0133558D01*
X0260811Y0135156D02*
X0250965Y0135156D01*
X0250965Y0136755D02*
X0260811Y0136755D01*
X0260811Y0138353D02*
X0250965Y0138353D01*
X0250965Y0139952D02*
X0260811Y0139952D01*
X0260811Y0141550D02*
X0250965Y0141550D01*
X0250965Y0143149D02*
X0260811Y0143149D01*
X0260811Y0144747D02*
X0250965Y0144747D01*
X0250965Y0146346D02*
X0260811Y0146346D01*
X0260811Y0147945D02*
X0250965Y0147945D01*
X0250965Y0149543D02*
X0260811Y0149543D01*
X0260811Y0151142D02*
X0250379Y0151142D01*
X0248814Y0152740D02*
X0260811Y0152740D01*
X0260811Y0154339D02*
X0247216Y0154339D01*
X0245617Y0155937D02*
X0260811Y0155937D01*
X0260811Y0157536D02*
X0244019Y0157536D01*
X0242420Y0159134D02*
X0260811Y0159134D01*
X0260811Y0160733D02*
X0240822Y0160733D01*
X0239223Y0162331D02*
X0260811Y0162331D01*
X0260811Y0163930D02*
X0238183Y0163930D01*
X0238612Y0165528D02*
X0260811Y0165528D01*
X0260811Y0167127D02*
X0238760Y0167127D01*
X0238760Y0168725D02*
X0260811Y0168725D01*
X0260811Y0170324D02*
X0238350Y0170324D01*
X0237764Y0171922D02*
X0260811Y0171922D01*
X0260811Y0173521D02*
X0236841Y0173521D01*
X0235344Y0175119D02*
X0260811Y0175119D01*
X0260811Y0176718D02*
X0232984Y0176718D01*
X0223937Y0176718D02*
X0223705Y0176718D01*
X0222107Y0178316D02*
X0260811Y0178316D01*
X0260811Y0179915D02*
X0220508Y0179915D01*
X0218910Y0181513D02*
X0260811Y0181513D01*
X0260811Y0183112D02*
X0217311Y0183112D01*
X0215713Y0184710D02*
X0260811Y0184710D01*
X0260811Y0186309D02*
X0214114Y0186309D01*
X0212516Y0187907D02*
X0260811Y0187907D01*
X0260811Y0189506D02*
X0210917Y0189506D01*
X0209319Y0191104D02*
X0260811Y0191104D01*
X0260811Y0192703D02*
X0207720Y0192703D01*
X0206122Y0194301D02*
X0260811Y0194301D01*
X0260811Y0195900D02*
X0204523Y0195900D01*
X0202925Y0197498D02*
X0260811Y0197498D01*
X0260811Y0199097D02*
X0201326Y0199097D01*
X0199728Y0200695D02*
X0260811Y0200695D01*
X0232705Y0157536D02*
X0231301Y0157536D01*
X0141049Y0053632D02*
X0137201Y0053632D01*
X0137744Y0052034D02*
X0142647Y0052034D01*
X0144246Y0050435D02*
X0137731Y0050435D01*
X0137069Y0048837D02*
X0145845Y0048837D01*
X0147443Y0047238D02*
X0135225Y0047238D01*
X0132577Y0044041D02*
X0129900Y0044041D01*
X0124825Y0045640D02*
X0142006Y0045640D01*
X0148774Y0045640D02*
X0149042Y0045640D01*
X0149766Y0044041D02*
X0150640Y0044041D01*
X0150047Y0042443D02*
X0152239Y0042443D01*
X0153837Y0040844D02*
X0149771Y0040844D01*
X0148785Y0039246D02*
X0155436Y0039246D01*
X0157034Y0037647D02*
X0143282Y0037647D01*
X0144032Y0036049D02*
X0158633Y0036049D01*
X0157341Y0031253D02*
X0151745Y0031253D01*
X0153703Y0029655D02*
X0155384Y0029655D01*
X0154691Y0028056D02*
X0154396Y0028056D01*
X0154512Y0026458D02*
X0154575Y0026458D01*
X0154964Y0024859D02*
X0154122Y0024859D01*
X0153043Y0023261D02*
X0156044Y0023261D01*
X0155793Y0020064D02*
X0153294Y0020064D01*
X0154226Y0018465D02*
X0154860Y0018465D01*
X0154575Y0016867D02*
X0154512Y0016867D01*
X0154292Y0015268D02*
X0154795Y0015268D01*
X0155635Y0013670D02*
X0153452Y0013670D01*
X0151140Y0012071D02*
X0157946Y0012071D01*
X0161140Y0012071D02*
X0168839Y0012071D01*
X0169168Y0012019D02*
X0169359Y0012019D01*
X0169359Y0016603D01*
X0169728Y0016603D01*
X0169728Y0016972D01*
X0174312Y0016972D01*
X0174312Y0017163D01*
X0174194Y0017904D01*
X0173962Y0018618D01*
X0173622Y0019287D01*
X0173181Y0019894D01*
X0172650Y0020425D01*
X0172043Y0020866D01*
X0171374Y0021207D01*
X0170660Y0021438D01*
X0169919Y0021556D01*
X0169728Y0021556D01*
X0169728Y0016972D01*
X0169359Y0016972D01*
X0169359Y0021556D01*
X0169168Y0021556D01*
X0168427Y0021438D01*
X0167713Y0021207D01*
X0167044Y0020866D01*
X0166437Y0020425D01*
X0165906Y0019894D01*
X0165465Y0019287D01*
X0165124Y0018618D01*
X0164892Y0017904D01*
X0164775Y0017163D01*
X0164775Y0016972D01*
X0169359Y0016972D01*
X0169359Y0016603D01*
X0164775Y0016603D01*
X0164775Y0016412D01*
X0164892Y0015671D01*
X0165124Y0014957D01*
X0165465Y0014288D01*
X0165906Y0013681D01*
X0166437Y0013150D01*
X0167044Y0012709D01*
X0167713Y0012368D01*
X0168427Y0012136D01*
X0169168Y0012019D01*
X0169359Y0012071D02*
X0169728Y0012071D01*
X0169728Y0012019D02*
X0169919Y0012019D01*
X0170660Y0012136D01*
X0171374Y0012368D01*
X0172043Y0012709D01*
X0172650Y0013150D01*
X0173181Y0013681D01*
X0173622Y0014288D01*
X0173962Y0014957D01*
X0174194Y0015671D01*
X0174312Y0016412D01*
X0174312Y0016603D01*
X0169728Y0016603D01*
X0169728Y0012019D01*
X0170248Y0012071D02*
X0177946Y0012071D01*
X0175635Y0013670D02*
X0173169Y0013670D01*
X0174064Y0015268D02*
X0174795Y0015268D01*
X0174575Y0016867D02*
X0169728Y0016867D01*
X0169359Y0016867D02*
X0164512Y0016867D01*
X0164292Y0015268D02*
X0165023Y0015268D01*
X0165917Y0013670D02*
X0163452Y0013670D01*
X0164226Y0018465D02*
X0165075Y0018465D01*
X0166076Y0020064D02*
X0163294Y0020064D01*
X0163043Y0023261D02*
X0166044Y0023261D01*
X0166729Y0022575D02*
X0168555Y0021819D01*
X0170532Y0021819D01*
X0172358Y0022575D01*
X0173755Y0023973D01*
X0174512Y0025799D01*
X0174512Y0027776D01*
X0173755Y0029602D01*
X0172358Y0030999D01*
X0170532Y0031756D01*
X0168555Y0031756D01*
X0166729Y0030999D01*
X0165331Y0029602D01*
X0164575Y0027776D01*
X0164575Y0025799D01*
X0165331Y0023973D01*
X0166729Y0022575D01*
X0164964Y0024859D02*
X0164122Y0024859D01*
X0164512Y0026458D02*
X0164575Y0026458D01*
X0164691Y0028056D02*
X0164396Y0028056D01*
X0163703Y0029655D02*
X0165384Y0029655D01*
X0167341Y0031253D02*
X0161745Y0031253D01*
X0171745Y0031253D02*
X0177341Y0031253D01*
X0175384Y0029655D02*
X0173703Y0029655D01*
X0174396Y0028056D02*
X0174691Y0028056D01*
X0174575Y0026458D02*
X0174512Y0026458D01*
X0174122Y0024859D02*
X0174964Y0024859D01*
X0176044Y0023261D02*
X0173043Y0023261D01*
X0173011Y0020064D02*
X0175793Y0020064D01*
X0174860Y0018465D02*
X0174012Y0018465D01*
X0169728Y0018465D02*
X0169359Y0018465D01*
X0169359Y0020064D02*
X0169728Y0020064D01*
X0169728Y0015268D02*
X0169359Y0015268D01*
X0169359Y0013670D02*
X0169728Y0013670D01*
X0181140Y0012071D02*
X0187946Y0012071D01*
X0185635Y0013670D02*
X0183452Y0013670D01*
X0184292Y0015268D02*
X0184795Y0015268D01*
X0184575Y0016867D02*
X0184512Y0016867D01*
X0184226Y0018465D02*
X0184860Y0018465D01*
X0185793Y0020064D02*
X0183294Y0020064D01*
X0196156Y0034450D02*
X0144142Y0034450D01*
X0141994Y0039246D02*
X0141063Y0039246D01*
X0137906Y0039246D02*
X0135087Y0039246D01*
X0134998Y0037647D02*
X0135687Y0037647D01*
X0134936Y0036049D02*
X0134604Y0036049D01*
X0134827Y0034450D02*
X0133049Y0034450D01*
X0132045Y0032852D02*
X0135274Y0032852D01*
X0136503Y0031253D02*
X0132070Y0031253D01*
X0133703Y0029655D02*
X0135384Y0029655D01*
X0134691Y0028056D02*
X0134396Y0028056D01*
X0134512Y0026458D02*
X0134575Y0026458D01*
X0134964Y0024859D02*
X0134122Y0024859D01*
X0123872Y0044041D02*
X0123252Y0044041D01*
X0208092Y0044041D02*
X0211971Y0044041D01*
X0213570Y0042443D02*
X0209691Y0042443D01*
X0211289Y0040844D02*
X0215168Y0040844D01*
X0216507Y0039246D02*
X0212143Y0039246D01*
X0212143Y0037647D02*
X0216507Y0037647D01*
X0216507Y0036049D02*
X0212143Y0036049D01*
X0212143Y0034450D02*
X0216507Y0034450D01*
X0216507Y0032852D02*
X0212143Y0032852D01*
X0212143Y0031253D02*
X0216507Y0031253D01*
X0215356Y0029655D02*
X0213703Y0029655D01*
X0213011Y0020064D02*
X0215793Y0020064D01*
X0214860Y0018465D02*
X0214012Y0018465D01*
X0209728Y0018465D02*
X0209359Y0018465D01*
X0209359Y0020064D02*
X0209728Y0020064D01*
X0209728Y0015268D02*
X0209359Y0015268D01*
X0209359Y0013670D02*
X0209728Y0013670D01*
X0221140Y0012071D02*
X0227946Y0012071D01*
D13*
X0219307Y0027024D03*
X0145390Y0042437D03*
X0139484Y0034858D03*
X0126886Y0040469D03*
X0133087Y0051394D03*
X0110547Y0047161D03*
X0086433Y0043126D03*
X0059465Y0026866D03*
X0043717Y0083087D03*
X0036236Y0096669D03*
X0023933Y0106020D03*
X0023047Y0115075D03*
X0022654Y0088402D03*
X0056020Y0099917D03*
X0067240Y0118224D03*
X0083185Y0128559D03*
X0077673Y0159661D03*
X0049327Y0167240D03*
X0043717Y0204248D03*
X0090272Y0189681D03*
X0244701Y0195291D03*
D14*
X0139287Y0066453D02*
X0161433Y0044307D01*
X0204051Y0044406D01*
X0209543Y0038913D01*
X0209543Y0026787D01*
X0199543Y0026787D02*
X0199543Y0034740D01*
X0196472Y0037811D01*
X0160547Y0037811D01*
X0137614Y0060744D01*
X0065567Y0060744D01*
X0044602Y0060843D01*
X0022654Y0082693D01*
X0022654Y0088402D01*
X0036236Y0096669D02*
X0036236Y0077772D01*
X0047457Y0066551D01*
X0139287Y0066453D01*
X0134661Y0042437D02*
X0132398Y0040272D01*
X0132398Y0037516D01*
X0129445Y0034465D01*
X0129445Y0032791D01*
X0129543Y0026787D01*
X0139543Y0026787D02*
X0139543Y0030587D01*
X0139484Y0034858D01*
X0134661Y0042437D02*
X0145390Y0042437D01*
X0067240Y0118224D02*
X0026295Y0118323D01*
X0023047Y0115075D01*
D15*
X0219543Y0016787D02*
X0240606Y0016787D01*
X0246965Y0023146D01*
X0246965Y0148933D01*
X0228461Y0167437D01*
X0229543Y0016787D02*
X0219543Y0016787D01*
D16*
X0228461Y0167437D03*
D17*
X0197457Y0198441D01*
X0137417Y0198441D01*
X0127772Y0188795D01*
X0127772Y0138894D01*
X0088795Y0099917D01*
X0056020Y0099917D01*
D18*
X0149543Y0016945D02*
X0149543Y0016787D01*
X0159543Y0016787D02*
X0159543Y0016945D01*
M02*
