%
M48
M72
T01C0.0157
T02C0.0276
T03C0.0320
T04C0.0354
T05C0.0394
T06C0.0400
%
T01
X30373Y12282
X30651Y12561
X30373Y12839
X30930Y12839
X30930Y12282
T02
X34588Y20691
X19145Y641
X3515Y16842
X8732Y34628
T03
X25781Y36320
X26781Y36320
T04
X4490Y2797
X5946Y5494
X6025Y8191
X5966Y10730
X6734Y13269
X5946Y14135
X3880Y13328
X3033Y14135
X2974Y10730
X2994Y8191
X3033Y5494
X8840Y5494
X9352Y2797
X11754Y5494
X13269Y2797
X14687Y5494
X14805Y8191
X14726Y10730
X15572Y13348
X14746Y14135
X12639Y13328
X11783Y14135
X9726Y13309
X8870Y14135
X8860Y10730
X8939Y8191
X11832Y8191
X11793Y10730
X17610Y10838
X18506Y13328
X17620Y14126
X20563Y14126
X21478Y13466
X23456Y14126
X24391Y13525
X26370Y14135
X27000Y13663
X27364Y15248
X28210Y15218
X29283Y14135
X28574Y13801
X31015Y14559
X31635Y15336
X32196Y14204
X32748Y12452
X32305Y10710
X31232Y9263
X30415Y9608
X29283Y10868
X28427Y9569
X27482Y9529
X26360Y10858
X26419Y8191
X26301Y5494
X26340Y2797
X29234Y5494
X30691Y2797
X32147Y5494
X32147Y8191
X29254Y8191
X23407Y8191
X23446Y10848
X20553Y10858
X20612Y8191
X20454Y5494
X21970Y2797
X23407Y5494
X17679Y8191
X17541Y5494
X17108Y2817
X10317Y17580
X10907Y18466
X14628Y21360
X15267Y20454
X13131Y24254
X11439Y24588
X10494Y24313
X12561Y26222
X16340Y26025
X16399Y28604
X17128Y30612
X16320Y33309
X17679Y34175
X13486Y35966
X22108Y36458
X19175Y24706
X19214Y20966
X23820Y19923
X32797Y36458
T05
X31025Y18427
X31025Y17427
X30025Y17427
X30025Y18427
X29025Y18427
X29025Y17427
X28025Y17427
X28025Y18427
X27025Y18427
X27025Y17427
X26025Y17427
X26025Y18427
X25025Y18427
X25025Y17427
X24025Y17427
X24025Y18427
X23025Y18427
X23025Y17427
X22025Y17427
X22025Y18427
X21025Y18427
X21025Y17427
X20025Y17427
X20025Y18427
X19025Y18427
X18025Y18427
X18025Y17427
X19025Y17427
X17025Y17427
X17025Y18427
X16025Y18427
X16025Y17427
X15025Y17427
X15025Y18427
X14025Y18427
X14025Y17427
X13025Y17427
X13025Y18427
X12025Y18427
X12025Y17427
T06
X16458Y36872
X33348Y21769
X33348Y20769
X33348Y19769
M30
