  0
SECTION
  2
HEADER
  9
$ACADVER
  1
AC1009
  9
$FILLMODE
 70
0
  9
$EXTMIN
 10
-0.1270
 20
-0.1270
 30
0.0000
  9
$EXTMAX
 10
88.5321
 20
98.2135
 30
0.0000
  0
ENDSEC
  0
SECTION
  2
TABLES
  0
TABLE
  2
LTYPE
 70
1
  0
LTYPE
  2
CONTINUOUS
 70
64
  3
Solid line
 72
65
 73
0
 40
0
  0
ENDTAB
  0
TABLE
  2
LAYER
 70
255
  0
LAYER
  2
32
 70
64
 62
253
  6
CONTINUOUS
  0
ENDTAB
  0
ENDSEC
  0
SECTION
  2
BLOCKS
  0
BLOCK
  8
0
  2
RECT
 70
64
 10
0.0000
 20
0.0000
 30
0.0000
  3
RECT
  0
SOLID
  8
0
 10
-0.5000
 20
-0.5000
 30
0.0000
 11
0.5000
 21
-0.5000
 31
0.0000
 12
-0.5000
 22
0.5000
 32
0.0000
 13
0.5000
 23
0.5000
 33
0.0000
  0
ENDBLK
  8
0
  0
BLOCK
  8
0
  2
PIE
 70
64
 10
0.0000
 20
0.0000
 30
0.0000
  3
PIE
  0
CIRCLE
  8
0
 10
0.0000
 20
0.0000
 30
0.0000
 40
0.5000
  0
ENDBLK
  8
0
  0
BLOCK
  8
0
  2
OCTAGONP
 70
64
 10
0.0000
 20
0.0000
 30
0.0000
  3
OCTAGONP
  0
POLYLINE
  8
0
 66
1
 10
0.0000
 20
0.0000
 30
0.0000
 40
0.0000
 41
0.0000
 70
1
  0
VERTEX
  8
0
 10
-0.5000
 20
-0.2071
 30
0.0000
  0
VERTEX
  8
0
 10
-0.5000
 20
0.2071
 30
0.0000
  0
VERTEX
  8
0
 10
-0.2071
 20
0.5000
 30
0.0000
  0
VERTEX
  8
0
 10
0.2071
 20
0.5000
 30
0.0000
  0
VERTEX
  8
0
 10
0.5000
 20
0.2071
 30
0.0000
  0
VERTEX
  8
0
 10
0.5000
 20
-0.2071
 30
0.0000
  0
VERTEX
  8
0
 10
0.2071
 20
-0.5000
 30
0.0000
  0
VERTEX
  8
0
 10
-0.2071
 20
-0.5000
 30
0.0000
  0
SEQEND
  8
0
  0
ENDBLK
  8
0
  0
BLOCK
  8
0
  2
SQUAREP
 70
64
 10
0.0000
 20
0.0000
 30
0.0000
  3
SQUAREP
  0
SOLID
  8
0
 10
-0.5000
 20
-0.5000
 30
0.0000
 11
0.5000
 21
-0.5000
 31
0.0000
 12
-0.5000
 22
0.5000
 32
0.0000
 13
0.5000
 23
0.5000
 33
0.0000
  0
ENDBLK
  8
0
  0
BLOCK
  8
0
  2
ROUNDP
 70
64
 10
0.0000
 20
0.0000
 30
0.0000
  3
ROUNDP
  0
CIRCLE
  8
0
 10
0.0000
 20
0.0000
 30
0.0000
 40
0.5000
  0
ENDBLK
  8
0
  0
BLOCK
  8
0
  2
ANNULUSP
 70
64
 10
0.0000
 20
0.0000
 30
0.0000
  3
ANNULUSP
  0
CIRCLE
  8
0
 10
0.0000
 20
0.0000
 30
0.0000
 40
0.5000
  0
ENDBLK
  8
0
  0
BLOCK
  8
0
  2
THERMALP
 70
64
 10
0.0000
 20
0.0000
 30
0.0000
  3
THERMALP
  0
LINE
  8
0
 10
-0.2379
 20
0.4500
 30
0.0000
 11
0.2379
 21
0.4500
 31
0.0000
  0
LINE
  8
0
 10
0.4500
 20
0.2379
 30
0.0000
 11
0.4500
 21
-0.2379
 31
0.0000
  0
LINE
  8
0
 10
0.2379
 20
-0.4500
 30
0.0000
 11
-0.2379
 21
-0.4500
 31
0.0000
  0
LINE
  8
0
 10
-0.4500
 20
-0.2379
 30
0.0000
 11
-0.4500
 21
0.2379
 31
0.0000
  0
ENDBLK
  8
0
  0
BLOCK
  8
0
  2
OCTAGONV
 70
64
 10
0.0000
 20
0.0000
 30
0.0000
  3
OCTAGONV
  0
POLYLINE
  8
0
 66
1
 10
0.0000
 20
0.0000
 30
0.0000
 40
0.0000
 41
0.0000
 70
1
  0
VERTEX
  8
0
 10
-0.5000
 20
-0.2071
 30
0.0000
  0
VERTEX
  8
0
 10
-0.5000
 20
0.2071
 30
0.0000
  0
VERTEX
  8
0
 10
-0.2071
 20
0.5000
 30
0.0000
  0
VERTEX
  8
0
 10
0.2071
 20
0.5000
 30
0.0000
  0
VERTEX
  8
0
 10
0.5000
 20
0.2071
 30
0.0000
  0
VERTEX
  8
0
 10
0.5000
 20
-0.2071
 30
0.0000
  0
VERTEX
  8
0
 10
0.2071
 20
-0.5000
 30
0.0000
  0
VERTEX
  8
0
 10
-0.2071
 20
-0.5000
 30
0.0000
  0
SEQEND
  8
0
  0
ENDBLK
  8
0
  0
BLOCK
  8
0
  2
SQUAREV
 70
64
 10
0.0000
 20
0.0000
 30
0.0000
  3
SQUAREV
  0
SOLID
  8
0
 10
-0.5000
 20
-0.5000
 30
0.0000
 11
0.5000
 21
-0.5000
 31
0.0000
 12
-0.5000
 22
0.5000
 32
0.0000
 13
0.5000
 23
0.5000
 33
0.0000
  0
ENDBLK
  8
0
  0
BLOCK
  8
0
  2
ROUNDV
 70
64
 10
0.0000
 20
0.0000
 30
0.0000
  3
ROUNDV
  0
CIRCLE
  8
0
 10
0.0000
 20
0.0000
 30
0.0000
 40
0.5000
  0
ENDBLK
  8
0
  0
BLOCK
  8
0
  2
ANNULUSV
 70
64
 10
0.0000
 20
0.0000
 30
0.0000
  3
ANNULUSV
  0
CIRCLE
  8
0
 10
0.0000
 20
0.0000
 30
0.0000
 40
0.5000
  0
ENDBLK
  8
0
  0
BLOCK
  8
0
  2
THERMALV
 70
64
 10
0.0000
 20
0.0000
 30
0.0000
  3
THERMALV
  0
LINE
  8
0
 10
-0.2379
 20
0.4500
 30
0.0000
 11
0.2379
 21
0.4500
 31
0.0000
  0
LINE
  8
0
 10
0.4500
 20
0.2379
 30
0.0000
 11
0.4500
 21
-0.2379
 31
0.0000
  0
LINE
  8
0
 10
0.2379
 20
-0.4500
 30
0.0000
 11
-0.2379
 21
-0.4500
 31
0.0000
  0
LINE
  8
0
 10
-0.4500
 20
-0.2379
 30
0.0000
 11
-0.4500
 21
0.2379
 31
0.0000
  0
ENDBLK
  8
0
  0
BLOCK
  8
0
  2
RECT0X0R100
 70
64
 10
0.0000
 20
0.0000
 30
0.0000
  3
RECT0X0R100
  0
POLYLINE
  8
0
 66
1
 10
0.0000
 20
0.0000
 30
0.0000
 40
0.0000
 41
0.0000
 70
1
  0
VERTEX
  8
0
 10
0.0000
 20
0.0000
 30
0.0000
  0
VERTEX
  8
0
 10
0.0000
 20
0.0000
 30
0.0000
 42
0.4142
  0
VERTEX
  8
0
 10
0.0000
 20
0.0000
 30
0.0000
  0
VERTEX
  8
0
 10
0.0000
 20
0.0000
 30
0.0000
 42
0.4142
  0
VERTEX
  8
0
 10
0.0000
 20
0.0000
 30
0.0000
  0
VERTEX
  8
0
 10
0.0000
 20
0.0000
 30
0.0000
 42
0.4142
  0
VERTEX
  8
0
 10
0.0000
 20
0.0000
 30
0.0000
  0
VERTEX
  8
0
 10
0.0000
 20
0.0000
 30
0.0000
 42
0.4142
  0
SEQEND
  8
0
  0
ENDBLK
  8
0
  0
BLOCK
  8
0
  2
LONGP100
 70
64
 10
0.0000
 20
0.0000
 30
0.0000
  3
LONGP100
  0
POLYLINE
  8
0
 66
1
 10
0.0000
 20
0.0000
 30
0.0000
 40
0.0000
 41
0.0000
 70
1
  0
VERTEX
  8
0
 10
-0.5000
 20
-0.5000
 30
0.0000
  0
VERTEX
  8
0
 10
0.5000
 20
-0.5000
 30
0.0000
 42
1.0000
  0
VERTEX
  8
0
 10
0.5000
 20
0.5000
 30
0.0000
  0
VERTEX
  8
0
 10
-0.5000
 20
0.5000
 30
0.0000
 42
1.0000
  0
SEQEND
  8
0
  0
ENDBLK
  8
0
  0
BLOCK
  8
0
  2
RECT1632000X1632000R100
 70
64
 10
0.0000
 20
0.0000
 30
0.0000
  3
RECT1632000X1632000R100
  0
POLYLINE
  8
0
 66
1
 10
0.0000
 20
0.0000
 30
0.0000
 40
0.0000
 41
0.0000
 70
1
  0
VERTEX
  8
0
 10
5.1000
 20
0.0000
 30
0.0000
  0
VERTEX
  8
0
 10
5.1000
 20
0.0000
 30
0.0000
 42
0.4142
  0
VERTEX
  8
0
 10
0.0000
 20
5.1000
 30
0.0000
  0
VERTEX
  8
0
 10
0.0000
 20
5.1000
 30
0.0000
 42
0.4142
  0
VERTEX
  8
0
 10
-5.1000
 20
0.0000
 30
0.0000
  0
VERTEX
  8
0
 10
-5.1000
 20
0.0000
 30
0.0000
 42
0.4142
  0
VERTEX
  8
0
 10
0.0000
 20
-5.1000
 30
0.0000
  0
VERTEX
  8
0
 10
0.0000
 20
-5.1000
 30
0.0000
 42
0.4142
  0
SEQEND
  8
0
  0
ENDBLK
  8
0
  0
BLOCK
  8
0
  2
RECT304000X216000R100
 70
64
 10
0.0000
 20
0.0000
 30
0.0000
  3
RECT304000X216000R100
  0
POLYLINE
  8
0
 66
1
 10
0.0000
 20
0.0000
 30
0.0000
 40
0.0000
 41
0.0000
 70
1
  0
VERTEX
  8
0
 10
0.9500
 20
0.0000
 30
0.0000
  0
VERTEX
  8
0
 10
0.9500
 20
0.0000
 30
0.0000
 42
0.4142
  0
VERTEX
  8
0
 10
0.2750
 20
0.6750
 30
0.0000
  0
VERTEX
  8
0
 10
-0.2750
 20
0.6750
 30
0.0000
 42
0.4142
  0
VERTEX
  8
0
 10
-0.9500
 20
0.0000
 30
0.0000
  0
VERTEX
  8
0
 10
-0.9500
 20
0.0000
 30
0.0000
 42
0.4142
  0
VERTEX
  8
0
 10
-0.2750
 20
-0.6750
 30
0.0000
  0
VERTEX
  8
0
 10
0.2750
 20
-0.6750
 30
0.0000
 42
0.4142
  0
SEQEND
  8
0
  0
ENDBLK
  8
0
  0
ENDSEC
  0
SECTION
  2
ENTITIES
  0
INSERT
  8
32
  2
RECT
 10
64.1000
 20
82.5750
 30
0.0000
 41
0.8000
 42
0.8000
 43
1.0000
 50
270.0000
  0
INSERT
  8
32
  2
RECT
 10
64.1000
 20
81.0750
 30
0.0000
 41
0.8000
 42
0.8000
 43
1.0000
 50
270.0000
  0
INSERT
  8
32
  2
RECT
 10
36.6000
 20
55.2750
 30
0.0000
 41
0.8000
 42
0.8000
 43
1.0000
 50
90.0000
  0
INSERT
  8
32
  2
RECT
 10
36.6000
 20
56.7750
 30
0.0000
 41
0.8000
 42
0.8000
 43
1.0000
 50
90.0000
  0
INSERT
  8
32
  2
RECT
 10
35.1750
 20
55.2750
 30
0.0000
 41
0.8000
 42
0.8000
 43
1.0000
 50
90.0000
  0
INSERT
  8
32
  2
RECT
 10
35.1750
 20
56.7750
 30
0.0000
 41
0.8000
 42
0.8000
 43
1.0000
 50
90.0000
  0
INSERT
  8
32
  2
RECT
 10
32.3250
 20
55.2750
 30
0.0000
 41
0.8000
 42
0.8000
 43
1.0000
 50
90.0000
  0
INSERT
  8
32
  2
RECT
 10
32.3250
 20
56.7750
 30
0.0000
 41
0.8000
 42
0.8000
 43
1.0000
 50
90.0000
  0
INSERT
  8
32
  2
RECT
 10
77.2250
 20
89.4000
 30
0.0000
 41
0.8000
 42
0.8000
 43
1.0000
 50
0.0000
  0
INSERT
  8
32
  2
RECT
 10
78.7250
 20
89.4000
 30
0.0000
 41
0.8000
 42
0.8000
 43
1.0000
 50
0.0000
  0
INSERT
  8
32
  2
RECT
 10
21.7750
 20
71.9500
 30
0.0000
 41
0.8000
 42
0.8000
 43
1.0000
 50
0.0000
  0
INSERT
  8
32
  2
RECT
 10
23.2750
 20
71.9500
 30
0.0000
 41
0.8000
 42
0.8000
 43
1.0000
 50
0.0000
  0
INSERT
  8
32
  2
RECT
 10
32.6250
 20
52.2500
 30
0.0000
 41
0.8000
 42
0.8000
 43
1.0000
 50
270.0000
  0
INSERT
  8
32
  2
RECT
 10
32.6250
 20
50.7500
 30
0.0000
 41
0.8000
 42
0.8000
 43
1.0000
 50
270.0000
  0
INSERT
  8
32
  2
RECT
 10
39.6000
 20
88.8750
 30
0.0000
 41
0.8000
 42
0.8000
 43
1.0000
 50
270.0000
  0
INSERT
  8
32
  2
RECT
 10
39.6000
 20
87.3750
 30
0.0000
 41
0.8000
 42
0.8000
 43
1.0000
 50
270.0000
  0
INSERT
  8
32
  2
RECT
 10
46.4750
 20
52.1250
 30
0.0000
 41
0.8000
 42
0.8000
 43
1.0000
 50
270.0000
  0
INSERT
  8
32
  2
RECT
 10
46.4750
 20
50.6250
 30
0.0000
 41
0.8000
 42
0.8000
 43
1.0000
 50
270.0000
  0
INSERT
  8
32
  2
RECT
 10
63.4000
 20
95.4000
 30
0.0000
 41
0.8000
 42
0.8000
 43
1.0000
 50
180.0000
  0
INSERT
  8
32
  2
RECT
 10
61.9000
 20
95.4000
 30
0.0000
 41
0.8000
 42
0.8000
 43
1.0000
 50
180.0000
  0
INSERT
  8
32
  2
RECT
 10
70.6000
 20
94.7500
 30
0.0000
 41
0.8000
 42
0.8000
 43
1.0000
 50
90.0000
  0
INSERT
  8
32
  2
RECT
 10
70.6000
 20
96.2500
 30
0.0000
 41
0.8000
 42
0.8000
 43
1.0000
 50
90.0000
  0
INSERT
  8
32
  2
RECT
 10
61.8250
 20
92.3250
 30
0.0000
 41
0.8000
 42
0.8000
 43
1.0000
 50
180.0000
  0
INSERT
  8
32
  2
RECT
 10
60.3250
 20
92.3250
 30
0.0000
 41
0.8000
 42
0.8000
 43
1.0000
 50
180.0000
  0
INSERT
  8
32
  2
RECT
 10
71.8750
 20
80.7250
 30
0.0000
 41
0.8000
 42
0.8000
 43
1.0000
 50
0.0000
  0
INSERT
  8
32
  2
RECT
 10
73.3750
 20
80.7250
 30
0.0000
 41
0.8000
 42
0.8000
 43
1.0000
 50
0.0000
  0
INSERT
  8
32
  2
RECT
 10
65.7000
 20
82.5750
 30
0.0000
 41
0.8000
 42
0.8000
 43
1.0000
 50
270.0000
  0
INSERT
  8
32
  2
RECT
 10
65.7000
 20
81.0750
 30
0.0000
 41
0.8000
 42
0.8000
 43
1.0000
 50
270.0000
  0
INSERT
  8
32
  2
RECT
 10
54.3500
 20
85.9250
 30
0.0000
 41
1.6000
 42
1.8000
 43
1.0000
 50
0.0000
  0
INSERT
  8
32
  2
RECT
 10
57.1500
 20
85.9250
 30
0.0000
 41
1.6000
 42
1.8000
 43
1.0000
 50
0.0000
  0
INSERT
  8
32
  2
RECT
 10
71.5500
 20
87.0500
 30
0.0000
 41
0.8000
 42
0.8000
 43
1.0000
 50
270.0000
  0
INSERT
  8
32
  2
RECT
 10
71.5500
 20
85.5500
 30
0.0000
 41
0.8000
 42
0.8000
 43
1.0000
 50
270.0000
  0
INSERT
  8
32
  2
RECT
 10
77.2000
 20
87.9000
 30
0.0000
 41
0.8000
 42
0.8000
 43
1.0000
 50
0.0000
  0
INSERT
  8
32
  2
RECT
 10
78.7000
 20
87.9000
 30
0.0000
 41
0.8000
 42
0.8000
 43
1.0000
 50
0.0000
  0
INSERT
  8
32
  2
RECT
 10
33.7500
 20
55.2750
 30
0.0000
 41
0.8000
 42
0.8000
 43
1.0000
 50
90.0000
  0
INSERT
  8
32
  2
RECT
 10
33.7500
 20
56.7750
 30
0.0000
 41
0.8000
 42
0.8000
 43
1.0000
 50
90.0000
  0
INSERT
  8
32
  2
RECT
 10
26.9000
 20
62.4750
 30
0.0000
 41
0.8000
 42
0.8000
 43
1.0000
 50
90.0000
  0
INSERT
  8
32
  2
RECT
 10
26.9000
 20
63.9750
 30
0.0000
 41
0.8000
 42
0.8000
 43
1.0000
 50
90.0000
  0
INSERT
  8
32
  2
RECT
 10
23.1250
 20
63.4250
 30
0.0000
 41
0.8000
 42
0.8000
 43
1.0000
 50
180.0000
  0
INSERT
  8
32
  2
RECT
 10
21.6250
 20
63.4250
 30
0.0000
 41
0.8000
 42
0.8000
 43
1.0000
 50
180.0000
  0
INSERT
  8
32
  2
RECT
 10
18.5750
 20
54.2250
 30
0.0000
 41
0.8000
 42
0.8000
 43
1.0000
 50
270.0000
  0
INSERT
  8
32
  2
RECT
 10
18.5750
 20
52.7250
 30
0.0000
 41
0.8000
 42
0.8000
 43
1.0000
 50
270.0000
  0
INSERT
  8
32
  2
RECT
 10
44.4000
 20
86.6500
 30
0.0000
 41
0.8000
 42
0.8000
 43
1.0000
 50
180.0000
  0
INSERT
  8
32
  2
RECT
 10
42.9000
 20
86.6500
 30
0.0000
 41
0.8000
 42
0.8000
 43
1.0000
 50
180.0000
  0
INSERT
  8
32
  2
RECT
 10
48.1250
 20
52.1250
 30
0.0000
 41
0.8000
 42
0.8000
 43
1.0000
 50
270.0000
  0
INSERT
  8
32
  2
RECT
 10
48.1250
 20
50.6250
 30
0.0000
 41
0.8000
 42
0.8000
 43
1.0000
 50
270.0000
  0
INSERT
  8
32
  2
RECT
 10
38.1000
 20
95.6000
 30
0.0000
 41
0.8000
 42
0.8000
 43
1.0000
 50
0.0000
  0
INSERT
  8
32
  2
RECT
 10
39.6000
 20
95.6000
 30
0.0000
 41
0.8000
 42
0.8000
 43
1.0000
 50
0.0000
  0
INSERT
  8
32
  2
RECT
 10
35.7750
 20
94.1000
 30
0.0000
 41
0.8000
 42
0.8000
 43
1.0000
 50
0.0000
  0
INSERT
  8
32
  2
RECT
 10
37.2750
 20
94.1000
 30
0.0000
 41
0.8000
 42
0.8000
 43
1.0000
 50
0.0000
  0
INSERT
  8
32
  2
RECT
 10
35.7750
 20
92.6750
 30
0.0000
 41
0.8000
 42
0.8000
 43
1.0000
 50
0.0000
  0
INSERT
  8
32
  2
RECT
 10
37.2750
 20
92.6750
 30
0.0000
 41
0.8000
 42
0.8000
 43
1.0000
 50
0.0000
  0
INSERT
  8
32
  2
RECT
 10
37.2750
 20
91.2500
 30
0.0000
 41
0.8000
 42
0.8000
 43
1.0000
 50
180.0000
  0
INSERT
  8
32
  2
RECT
 10
35.7750
 20
91.2500
 30
0.0000
 41
0.8000
 42
0.8000
 43
1.0000
 50
180.0000
  0
INSERT
  8
32
  2
RECT
 10
37.2750
 20
89.8250
 30
0.0000
 41
0.8000
 42
0.8000
 43
1.0000
 50
180.0000
  0
INSERT
  8
32
  2
RECT
 10
35.7750
 20
89.8250
 30
0.0000
 41
0.8000
 42
0.8000
 43
1.0000
 50
180.0000
  0
INSERT
  8
32
  2
RECT
 10
33.3000
 20
75.8750
 30
0.0000
 41
0.8000
 42
0.8000
 43
1.0000
 50
270.0000
  0
INSERT
  8
32
  2
RECT
 10
33.3000
 20
74.3750
 30
0.0000
 41
0.8000
 42
0.8000
 43
1.0000
 50
270.0000
  0
INSERT
  8
32
  2
RECT
 10
26.6000
 20
77.5500
 30
0.0000
 41
0.8000
 42
0.8000
 43
1.0000
 50
270.0000
  0
INSERT
  8
32
  2
RECT
 10
26.6000
 20
76.0500
 30
0.0000
 41
0.8000
 42
0.8000
 43
1.0000
 50
270.0000
  0
INSERT
  8
32
  2
RECT
 10
26.6000
 20
74.2250
 30
0.0000
 41
0.8000
 42
0.8000
 43
1.0000
 50
270.0000
  0
INSERT
  8
32
  2
RECT
 10
26.6000
 20
72.7250
 30
0.0000
 41
0.8000
 42
0.8000
 43
1.0000
 50
270.0000
  0
INSERT
  8
32
  2
RECT
 10
24.9750
 20
66.2750
 30
0.0000
 41
1.4000
 42
1.4000
 43
1.0000
 50
90.0000
  0
INSERT
  8
32
  2
RECT
 10
24.9750
 20
62.4750
 30
0.0000
 41
1.4000
 42
1.4000
 43
1.0000
 50
90.0000
  0
INSERT
  8
32
  2
RECT
 10
54.5000
 20
88.8000
 30
0.0000
 41
1.4000
 42
1.4000
 43
1.0000
 50
270.0000
  0
INSERT
  8
32
  2
RECT
 10
54.5000
 20
92.6000
 30
0.0000
 41
1.4000
 42
1.4000
 43
1.0000
 50
270.0000
  0
INSERT
  8
32
  2
RECT
 10
65.2144
 20
79.0246
 30
0.0000
 41
1.4986
 42
2.0066
 43
1.0000
 50
0.0000
  0
INSERT
  8
32
  2
RECT
 10
67.5004
 20
79.0246
 30
0.0000
 41
1.4986
 42
2.0066
 43
1.0000
 50
0.0000
  0
INSERT
  8
32
  2
RECT
 10
69.7864
 20
79.0246
 30
0.0000
 41
1.4986
 42
2.0066
 43
1.0000
 50
0.0000
  0
INSERT
  8
32
  2
RECT
 10
67.4750
 20
72.7254
 30
0.0000
 41
3.8100
 42
2.0066
 43
1.0000
 50
0.0000
  0
INSERT
  8
32
  2
RECT
 10
67.6300
 20
53.8550
 30
0.0000
 41
0.6000
 42
2.2000
 43
1.0000
 50
270.0000
  0
INSERT
  8
32
  2
RECT
 10
67.6300
 20
52.5850
 30
0.0000
 41
0.6000
 42
2.2000
 43
1.0000
 50
270.0000
  0
INSERT
  8
32
  2
RECT
 10
67.6300
 20
51.3150
 30
0.0000
 41
0.6000
 42
2.2000
 43
1.0000
 50
270.0000
  0
INSERT
  8
32
  2
RECT
 10
67.6300
 20
50.0450
 30
0.0000
 41
0.6000
 42
2.2000
 43
1.0000
 50
270.0000
  0
INSERT
  8
32
  2
RECT
 10
60.9700
 20
50.0450
 30
0.0000
 41
0.6000
 42
2.2000
 43
1.0000
 50
270.0000
  0
INSERT
  8
32
  2
RECT
 10
60.9700
 20
51.3150
 30
0.0000
 41
0.6000
 42
2.2000
 43
1.0000
 50
270.0000
  0
INSERT
  8
32
  2
RECT
 10
60.9700
 20
52.5850
 30
0.0000
 41
0.6000
 42
2.2000
 43
1.0000
 50
270.0000
  0
INSERT
  8
32
  2
RECT
 10
60.9700
 20
53.8550
 30
0.0000
 41
0.6000
 42
2.2000
 43
1.0000
 50
270.0000
  0
INSERT
  8
32
  2
RECT
 10
24.9750
 20
70.0750
 30
0.0000
 41
1.3000
 42
1.5000
 43
1.0000
 50
270.0000
  0
INSERT
  8
32
  2
RECT
 10
24.9750
 20
68.1750
 30
0.0000
 41
1.3000
 42
1.5000
 43
1.0000
 50
270.0000
  0
INSERT
  8
32
  2
RECT
 10
57.5250
 20
93.2000
 30
0.0000
 41
1.8000
 42
2.7000
 43
1.0000
 50
270.0000
  0
INSERT
  8
32
  2
RECT
 10
57.5250
 20
88.8000
 30
0.0000
 41
1.8000
 42
2.7000
 43
1.0000
 50
270.0000
  0
INSERT
  8
32
  2
RECT
 10
45.1250
 20
92.4750
 30
0.0000
 41
1.0000
 42
1.0000
 43
1.0000
 50
90.0000
  0
INSERT
  8
32
  2
RECT
 10
45.1250
 20
94.4750
 30
0.0000
 41
1.0000
 42
1.0000
 43
1.0000
 50
90.0000
  0
INSERT
  8
32
  2
RECT
 10
38.2500
 20
52.2500
 30
0.0000
 41
0.8000
 42
0.9000
 43
1.0000
 50
0.0000
  0
INSERT
  8
32
  2
RECT
 10
40.1500
 20
52.2500
 30
0.0000
 41
0.8000
 42
0.9000
 43
1.0000
 50
0.0000
  0
INSERT
  8
32
  2
RECT
 10
39.2000
 20
50.2500
 30
0.0000
 41
0.8000
 42
0.9000
 43
1.0000
 50
0.0000
  0
INSERT
  8
32
  2
RECT
 10
70.2190
 20
56.1310
 30
0.0000
 41
1.2700
 42
1.8796
 43
1.0000
 50
180.0000
  0
INSERT
  8
32
  2
RECT
 10
64.6310
 20
56.1310
 30
0.0000
 41
1.2700
 42
1.8796
 43
1.0000
 50
180.0000
  0
INSERT
  8
32
  2
RECT
 10
64.6310
 20
59.1790
 30
0.0000
 41
1.2700
 42
1.8796
 43
1.0000
 50
180.0000
  0
INSERT
  8
32
  2
RECT
 10
70.2190
 20
59.1790
 30
0.0000
 41
1.2700
 42
1.8796
 43
1.0000
 50
180.0000
  0
INSERT
  8
32
  2
RECT
 10
67.9750
 20
87.8500
 30
0.0000
 41
0.8000
 42
0.9000
 43
1.0000
 50
0.0000
  0
INSERT
  8
32
  2
RECT
 10
69.8750
 20
87.8500
 30
0.0000
 41
0.8000
 42
0.9000
 43
1.0000
 50
0.0000
  0
INSERT
  8
32
  2
RECT
 10
68.9250
 20
85.8500
 30
0.0000
 41
0.8000
 42
0.9000
 43
1.0000
 50
0.0000
  0
INSERT
  8
32
  2
RECT
 10
50.3240
 20
94.8940
 30
0.0000
 41
1.2700
 42
1.8796
 43
1.0000
 50
270.0000
  0
INSERT
  8
32
  2
RECT
 10
50.3240
 20
89.3060
 30
0.0000
 41
1.2700
 42
1.8796
 43
1.0000
 50
270.0000
  0
INSERT
  8
32
  2
RECT
 10
47.2760
 20
89.3060
 30
0.0000
 41
1.2700
 42
1.8796
 43
1.0000
 50
270.0000
  0
INSERT
  8
32
  2
RECT
 10
47.2760
 20
94.8940
 30
0.0000
 41
1.2700
 42
1.8796
 43
1.0000
 50
270.0000
  0
INSERT
  8
32
  2
RECT
 10
78.1750
 20
52.5000
 30
0.0000
 41
1.0000
 42
1.1000
 43
1.0000
 50
0.0000
  0
INSERT
  8
32
  2
RECT
 10
79.8750
 20
52.5000
 30
0.0000
 41
1.0000
 42
1.1000
 43
1.0000
 50
0.0000
  0
INSERT
  8
32
  2
RECT
 10
36.1000
 20
67.3250
 30
0.0000
 41
1.0000
 42
1.1000
 43
1.0000
 50
90.0000
  0
INSERT
  8
32
  2
RECT
 10
36.1000
 20
69.0250
 30
0.0000
 41
1.0000
 42
1.1000
 43
1.0000
 50
90.0000
  0
INSERT
  8
32
  2
RECT
 10
78.1750
 20
50.4750
 30
0.0000
 41
1.0000
 42
1.1000
 43
1.0000
 50
0.0000
  0
INSERT
  8
32
  2
RECT
 10
79.8750
 20
50.4750
 30
0.0000
 41
1.0000
 42
1.1000
 43
1.0000
 50
0.0000
  0
INSERT
  8
32
  2
RECT
 10
58.6000
 20
51.6750
 30
0.0000
 41
1.0000
 42
1.1000
 43
1.0000
 50
180.0000
  0
INSERT
  8
32
  2
RECT
 10
56.9000
 20
51.6750
 30
0.0000
 41
1.0000
 42
1.1000
 43
1.0000
 50
180.0000
  0
INSERT
  8
32
  2
RECT
 10
58.6000
 20
49.7000
 30
0.0000
 41
1.0000
 42
1.1000
 43
1.0000
 50
180.0000
  0
INSERT
  8
32
  2
RECT
 10
56.9000
 20
49.7000
 30
0.0000
 41
1.0000
 42
1.1000
 43
1.0000
 50
180.0000
  0
INSERT
  8
32
  2
RECT
 10
38.1500
 20
67.3250
 30
0.0000
 41
1.0000
 42
1.1000
 43
1.0000
 50
90.0000
  0
INSERT
  8
32
  2
RECT
 10
38.1500
 20
69.0250
 30
0.0000
 41
1.0000
 42
1.1000
 43
1.0000
 50
90.0000
  0
INSERT
  8
32
  2
RECT
 10
68.7750
 20
94.6500
 30
0.0000
 41
1.0000
 42
1.1000
 43
1.0000
 50
90.0000
  0
INSERT
  8
32
  2
RECT
 10
68.7750
 20
96.3500
 30
0.0000
 41
1.0000
 42
1.1000
 43
1.0000
 50
90.0000
  0
INSERT
  8
32
  2
RECT
 10
58.1000
 20
95.5750
 30
0.0000
 41
1.0000
 42
1.1000
 43
1.0000
 50
180.0000
  0
INSERT
  8
32
  2
RECT
 10
56.4000
 20
95.5750
 30
0.0000
 41
1.0000
 42
1.1000
 43
1.0000
 50
180.0000
  0
INSERT
  8
32
  2
RECT
 10
71.3750
 20
89.1000
 30
0.0000
 41
1.0000
 42
1.1000
 43
1.0000
 50
0.0000
  0
INSERT
  8
32
  2
RECT
 10
73.0750
 20
89.1000
 30
0.0000
 41
1.0000
 42
1.1000
 43
1.0000
 50
0.0000
  0
INSERT
  8
32
  2
RECT
 10
67.1250
 20
95.0750
 30
0.0000
 41
1.0000
 42
1.1000
 43
1.0000
 50
180.0000
  0
INSERT
  8
32
  2
RECT
 10
65.4250
 20
95.0750
 30
0.0000
 41
1.0000
 42
1.1000
 43
1.0000
 50
180.0000
  0
INSERT
  8
32
  2
RECT
 10
40.3250
 20
79.9500
 30
0.0000
 41
1.0000
 42
1.1000
 43
1.0000
 50
180.0000
  0
INSERT
  8
32
  2
RECT
 10
38.6250
 20
79.9500
 30
0.0000
 41
1.0000
 42
1.1000
 43
1.0000
 50
180.0000
  0
INSERT
  8
32
  2
RECT
 10
40.3250
 20
77.9000
 30
0.0000
 41
1.0000
 42
1.1000
 43
1.0000
 50
180.0000
  0
INSERT
  8
32
  2
RECT
 10
38.6250
 20
77.9000
 30
0.0000
 41
1.0000
 42
1.1000
 43
1.0000
 50
180.0000
  0
INSERT
  8
32
  2
RECT
 10
40.3250
 20
75.8750
 30
0.0000
 41
1.0000
 42
1.1000
 43
1.0000
 50
180.0000
  0
INSERT
  8
32
  2
RECT
 10
38.6250
 20
75.8750
 30
0.0000
 41
1.0000
 42
1.1000
 43
1.0000
 50
180.0000
  0
INSERT
  8
32
  2
RECT
 10
38.6250
 20
73.8000
 30
0.0000
 41
1.0000
 42
1.1000
 43
1.0000
 50
0.0000
  0
INSERT
  8
32
  2
RECT
 10
40.3250
 20
73.8000
 30
0.0000
 41
1.0000
 42
1.1000
 43
1.0000
 50
0.0000
  0
INSERT
  8
32
  2
RECT
 10
38.6250
 20
71.7500
 30
0.0000
 41
1.0000
 42
1.1000
 43
1.0000
 50
0.0000
  0
INSERT
  8
32
  2
RECT
 10
40.3250
 20
71.7500
 30
0.0000
 41
1.0000
 42
1.1000
 43
1.0000
 50
0.0000
  0
INSERT
  8
32
  2
RECT
 10
39.4000
 20
61.3750
 30
0.0000
 41
1.0000
 42
1.1000
 43
1.0000
 50
0.0000
  0
INSERT
  8
32
  2
RECT
 10
41.1000
 20
61.3750
 30
0.0000
 41
1.0000
 42
1.1000
 43
1.0000
 50
0.0000
  0
INSERT
  8
32
  2
RECT
 10
39.4000
 20
59.4250
 30
0.0000
 41
1.0000
 42
1.1000
 43
1.0000
 50
0.0000
  0
INSERT
  8
32
  2
RECT
 10
41.1000
 20
59.4250
 30
0.0000
 41
1.0000
 42
1.1000
 43
1.0000
 50
0.0000
  0
INSERT
  8
32
  2
RECT
 10
39.4000
 20
57.4750
 30
0.0000
 41
1.0000
 42
1.1000
 43
1.0000
 50
0.0000
  0
INSERT
  8
32
  2
RECT
 10
41.1000
 20
57.4750
 30
0.0000
 41
1.0000
 42
1.1000
 43
1.0000
 50
0.0000
  0
INSERT
  8
32
  2
RECT
 10
39.4000
 20
55.4750
 30
0.0000
 41
1.0000
 42
1.1000
 43
1.0000
 50
0.0000
  0
INSERT
  8
32
  2
RECT
 10
41.1000
 20
55.4750
 30
0.0000
 41
1.0000
 42
1.1000
 43
1.0000
 50
0.0000
  0
INSERT
  8
32
  2
RECT
 10
42.6750
 20
50.5250
 30
0.0000
 41
1.0000
 42
1.1000
 43
1.0000
 50
90.0000
  0
INSERT
  8
32
  2
RECT
 10
42.6750
 20
52.2250
 30
0.0000
 41
1.0000
 42
1.1000
 43
1.0000
 50
90.0000
  0
INSERT
  8
32
  2
RECT
 10
44.7000
 20
50.5250
 30
0.0000
 41
1.0000
 42
1.1000
 43
1.0000
 50
90.0000
  0
INSERT
  8
32
  2
RECT
 10
44.7000
 20
52.2250
 30
0.0000
 41
1.0000
 42
1.1000
 43
1.0000
 50
90.0000
  0
INSERT
  8
32
  2
RECT
 10
36.4500
 20
52.2500
 30
0.0000
 41
1.0000
 42
1.1000
 43
1.0000
 50
270.0000
  0
INSERT
  8
32
  2
RECT
 10
36.4500
 20
50.5500
 30
0.0000
 41
1.0000
 42
1.1000
 43
1.0000
 50
270.0000
  0
INSERT
  8
32
  2
RECT
 10
34.3750
 20
52.2500
 30
0.0000
 41
1.0000
 42
1.1000
 43
1.0000
 50
270.0000
  0
INSERT
  8
32
  2
RECT
 10
34.3750
 20
50.5500
 30
0.0000
 41
1.0000
 42
1.1000
 43
1.0000
 50
270.0000
  0
INSERT
  8
32
  2
RECT
 10
68.9750
 20
93.3750
 30
0.0000
 41
1.0000
 42
1.1000
 43
1.0000
 50
270.0000
  0
INSERT
  8
32
  2
RECT
 10
68.9750
 20
91.6750
 30
0.0000
 41
1.0000
 42
1.1000
 43
1.0000
 50
270.0000
  0
INSERT
  8
32
  2
RECT
 10
71.3500
 20
91.4000
 30
0.0000
 41
1.0000
 42
1.1000
 43
1.0000
 50
0.0000
  0
INSERT
  8
32
  2
RECT
 10
73.0500
 20
91.4000
 30
0.0000
 41
1.0000
 42
1.1000
 43
1.0000
 50
0.0000
  0
INSERT
  8
32
  2
RECT
 10
45.2500
 20
90.8000
 30
0.0000
 41
1.0000
 42
1.1000
 43
1.0000
 50
180.0000
  0
INSERT
  8
32
  2
RECT
 10
43.5500
 20
90.8000
 30
0.0000
 41
1.0000
 42
1.1000
 43
1.0000
 50
180.0000
  0
INSERT
  8
32
  2
RECT
 10
45.2500
 20
88.8500
 30
0.0000
 41
1.0000
 42
1.1000
 43
1.0000
 50
180.0000
  0
INSERT
  8
32
  2
RECT
 10
43.5500
 20
88.8500
 30
0.0000
 41
1.0000
 42
1.1000
 43
1.0000
 50
180.0000
  0
INSERT
  8
32
  2
RECT
 10
30.3250
 20
77.5500
 30
0.0000
 41
1.0000
 42
1.1000
 43
1.0000
 50
180.0000
  0
INSERT
  8
32
  2
RECT
 10
28.6250
 20
77.5500
 30
0.0000
 41
1.0000
 42
1.1000
 43
1.0000
 50
180.0000
  0
INSERT
  8
32
  2
RECT
 10
31.5750
 20
74.1750
 30
0.0000
 41
1.0000
 42
1.1000
 43
1.0000
 50
90.0000
  0
INSERT
  8
32
  2
RECT
 10
31.5750
 20
75.8750
 30
0.0000
 41
1.0000
 42
1.1000
 43
1.0000
 50
90.0000
  0
INSERT
  8
32
  2
RECT
 10
18.5750
 20
57.3250
 30
0.0000
 41
1.0000
 42
1.1000
 43
1.0000
 50
90.0000
  0
INSERT
  8
32
  2
RECT
 10
18.5750
 20
59.0250
 30
0.0000
 41
1.0000
 42
1.1000
 43
1.0000
 50
90.0000
  0
INSERT
  8
32
  2
RECT
 10
21.4250
 20
65.1500
 30
0.0000
 41
1.0000
 42
1.1000
 43
1.0000
 50
0.0000
  0
INSERT
  8
32
  2
RECT
 10
23.1250
 20
65.1500
 30
0.0000
 41
1.0000
 42
1.1000
 43
1.0000
 50
0.0000
  0
INSERT
  8
32
  2
RECT
 10
19.7000
 20
63.6250
 30
0.0000
 41
1.0000
 42
1.1000
 43
1.0000
 50
90.0000
  0
INSERT
  8
32
  2
RECT
 10
19.7000
 20
65.3250
 30
0.0000
 41
1.0000
 42
1.1000
 43
1.0000
 50
90.0000
  0
INSERT
  8
32
  2
RECT
 10
18.6000
 20
48.8750
 30
0.0000
 41
1.0000
 42
1.1000
 43
1.0000
 50
0.0000
  0
INSERT
  8
32
  2
RECT
 10
20.3000
 20
48.8750
 30
0.0000
 41
1.0000
 42
1.1000
 43
1.0000
 50
0.0000
  0
INSERT
  8
32
  2
RECT
 10
23.4750
 20
88.7500
 30
0.0000
 41
1.0000
 42
1.1000
 43
1.0000
 50
270.0000
  0
INSERT
  8
32
  2
RECT
 10
23.4750
 20
87.0500
 30
0.0000
 41
1.0000
 42
1.1000
 43
1.0000
 50
270.0000
  0
INSERT
  8
32
  2
RECT
 10
25.5000
 20
85.0500
 30
0.0000
 41
1.0000
 42
1.1000
 43
1.0000
 50
0.0000
  0
INSERT
  8
32
  2
RECT
 10
27.2000
 20
85.0500
 30
0.0000
 41
1.0000
 42
1.1000
 43
1.0000
 50
0.0000
  0
INSERT
  8
32
  2
RECT
 10
24.7250
 20
50.5750
 30
0.0000
 41
1.0000
 42
1.1000
 43
1.0000
 50
270.0000
  0
INSERT
  8
32
  2
RECT
 10
24.7250
 20
48.8750
 30
0.0000
 41
1.0000
 42
1.1000
 43
1.0000
 50
270.0000
  0
INSERT
  8
32
  2
RECT
 10
76.0000
 20
86.1120
 30
0.0000
 41
1.1684
 42
1.6002
 43
1.0000
 50
270.0000
  0
INSERT
  8
32
  2
RECT
 10
76.0000
 20
84.5880
 30
0.0000
 41
1.1684
 42
1.6002
 43
1.0000
 50
270.0000
  0
INSERT
  8
32
  2
RECT
 10
25.5000
 20
86.9000
 30
0.0000
 41
1.0000
 42
1.4000
 43
1.0000
 50
90.0000
  0
INSERT
  8
32
  2
RECT
 10
25.5000
 20
88.8000
 30
0.0000
 41
1.0000
 42
1.4000
 43
1.0000
 50
90.0000
  0
INSERT
  8
32
  2
RECT
 10
27.7000
 20
87.8500
 30
0.0000
 41
1.0000
 42
1.4000
 43
1.0000
 50
90.0000
  0
INSERT
  8
32
  2
RECT
 10
61.7750
 20
87.4500
 30
0.0000
 41
1.0000
 42
1.4000
 43
1.0000
 50
270.0000
  0
INSERT
  8
32
  2
RECT
 10
61.7750
 20
85.5500
 30
0.0000
 41
1.0000
 42
1.4000
 43
1.0000
 50
270.0000
  0
INSERT
  8
32
  2
RECT
 10
59.5750
 20
86.5000
 30
0.0000
 41
1.0000
 42
1.4000
 43
1.0000
 50
270.0000
  0
INSERT
  8
32
  2
RECT
 10
21.9000
 20
55.1250
 30
0.0000
 41
1.0000
 42
1.4000
 43
1.0000
 50
180.0000
  0
INSERT
  8
32
  2
RECT
 10
20.0000
 20
55.1250
 30
0.0000
 41
1.0000
 42
1.4000
 43
1.0000
 50
180.0000
  0
INSERT
  8
32
  2
RECT
 10
20.9500
 20
57.3250
 30
0.0000
 41
1.0000
 42
1.4000
 43
1.0000
 50
180.0000
  0
INSERT
  8
32
  2
RECT
 10
20.5750
 20
50.6250
 30
0.0000
 41
1.0000
 42
1.4000
 43
1.0000
 50
90.0000
  0
INSERT
  8
32
  2
RECT
 10
20.5750
 20
52.5250
 30
0.0000
 41
1.0000
 42
1.4000
 43
1.0000
 50
90.0000
  0
INSERT
  8
32
  2
RECT
 10
22.7750
 20
51.5750
 30
0.0000
 41
1.0000
 42
1.4000
 43
1.0000
 50
90.0000
  0
INSERT
  8
32
  2
RECT
 10
23.4750
 20
55.1250
 30
0.0000
 41
1.0000
 42
1.4000
 43
1.0000
 50
90.0000
  0
INSERT
  8
32
  2
RECT
 10
23.4750
 20
57.0250
 30
0.0000
 41
1.0000
 42
1.4000
 43
1.0000
 50
90.0000
  0
INSERT
  8
32
  2
RECT
 10
25.6750
 20
56.0750
 30
0.0000
 41
1.0000
 42
1.4000
 43
1.0000
 50
90.0000
  0
INSERT
  8
32
  2
RECT
 10
66.6750
 20
92.6750
 30
0.0000
 41
0.2500
 42
0.7000
 43
1.0000
 50
270.0000
  0
INSERT
  8
32
  2
RECT
 10
66.6750
 20
92.1750
 30
0.0000
 41
0.2500
 42
0.7000
 43
1.0000
 50
270.0000
  0
INSERT
  8
32
  2
RECT
 10
66.6750
 20
91.6750
 30
0.0000
 41
0.2500
 42
0.7000
 43
1.0000
 50
270.0000
  0
INSERT
  8
32
  2
RECT
 10
66.6750
 20
91.1750
 30
0.0000
 41
0.2500
 42
0.7000
 43
1.0000
 50
270.0000
  0
INSERT
  8
32
  2
RECT
 10
66.6750
 20
90.6750
 30
0.0000
 41
0.2500
 42
0.7000
 43
1.0000
 50
270.0000
  0
INSERT
  8
32
  2
RECT
 10
66.6750
 20
90.1750
 30
0.0000
 41
0.2500
 42
0.7000
 43
1.0000
 50
270.0000
  0
INSERT
  8
32
  2
RECT
 10
66.6750
 20
89.6750
 30
0.0000
 41
0.2500
 42
0.7000
 43
1.0000
 50
270.0000
  0
INSERT
  8
32
  2
RECT
 10
66.6750
 20
89.1750
 30
0.0000
 41
0.2500
 42
0.7000
 43
1.0000
 50
270.0000
  0
INSERT
  8
32
  2
RECT
 10
66.6750
 20
88.6750
 30
0.0000
 41
0.2500
 42
0.7000
 43
1.0000
 50
270.0000
  0
INSERT
  8
32
  2
RECT
 10
66.6750
 20
88.1750
 30
0.0000
 41
0.2500
 42
0.7000
 43
1.0000
 50
270.0000
  0
INSERT
  8
32
  2
RECT
 10
66.6750
 20
87.6750
 30
0.0000
 41
0.2500
 42
0.7000
 43
1.0000
 50
270.0000
  0
INSERT
  8
32
  2
RECT
 10
63.7750
 20
87.6750
 30
0.0000
 41
0.2500
 42
0.7000
 43
1.0000
 50
270.0000
  0
INSERT
  8
32
  2
RECT
 10
63.7750
 20
88.1750
 30
0.0000
 41
0.2500
 42
0.7000
 43
1.0000
 50
270.0000
  0
INSERT
  8
32
  2
RECT
 10
63.7750
 20
88.6750
 30
0.0000
 41
0.2500
 42
0.7000
 43
1.0000
 50
270.0000
  0
INSERT
  8
32
  2
RECT
 10
63.7750
 20
89.1750
 30
0.0000
 41
0.2500
 42
0.7000
 43
1.0000
 50
270.0000
  0
INSERT
  8
32
  2
RECT
 10
63.7750
 20
89.6750
 30
0.0000
 41
0.2500
 42
0.7000
 43
1.0000
 50
270.0000
  0
INSERT
  8
32
  2
RECT
 10
63.7750
 20
90.1750
 30
0.0000
 41
0.2500
 42
0.7000
 43
1.0000
 50
270.0000
  0
INSERT
  8
32
  2
RECT
 10
63.7750
 20
90.6750
 30
0.0000
 41
0.2500
 42
0.7000
 43
1.0000
 50
270.0000
  0
INSERT
  8
32
  2
RECT
 10
63.7750
 20
91.1750
 30
0.0000
 41
0.2500
 42
0.7000
 43
1.0000
 50
270.0000
  0
INSERT
  8
32
  2
RECT
 10
63.7750
 20
91.6750
 30
0.0000
 41
0.2500
 42
0.7000
 43
1.0000
 50
270.0000
  0
INSERT
  8
32
  2
RECT
 10
63.7750
 20
92.1750
 30
0.0000
 41
0.2500
 42
0.7000
 43
1.0000
 50
270.0000
  0
INSERT
  8
32
  2
RECT
 10
63.7750
 20
92.6750
 30
0.0000
 41
0.2500
 42
0.7000
 43
1.0000
 50
270.0000
  0
INSERT
  8
32
  2
RECT
 10
65.2250
 20
88.6500
 30
0.0000
 41
2.2000
 42
1.6500
 43
1.0000
 50
270.0000
  0
INSERT
  8
32
  2
RECT
 10
65.2250
 20
91.6750
 30
0.0000
 41
2.2000
 42
1.6500
 43
1.0000
 50
270.0000
  0
INSERT
  8
32
  2
RECT
 10
65.2250
 20
90.1750
 30
0.0000
 41
0.9000
 42
0.9000
 43
1.0000
 50
270.0000
  0
INSERT
  8
32
  2
RECT
 10
20.2500
 20
67.2750
 30
0.0000
 41
0.5500
 42
1.2000
 43
1.0000
 50
90.0000
  0
INSERT
  8
32
  2
RECT
 10
20.2500
 20
68.2250
 30
0.0000
 41
0.5500
 42
1.2000
 43
1.0000
 50
90.0000
  0
INSERT
  8
32
  2
RECT
 10
20.2500
 20
69.1750
 30
0.0000
 41
0.5500
 42
1.2000
 43
1.0000
 50
90.0000
  0
INSERT
  8
32
  2
RECT
 10
22.8500
 20
69.1750
 30
0.0000
 41
0.5500
 42
1.2000
 43
1.0000
 50
90.0000
  0
INSERT
  8
32
  2
RECT
 10
22.8500
 20
67.2750
 30
0.0000
 41
0.5500
 42
1.2000
 43
1.0000
 50
90.0000
  0
INSERT
  8
32
  2
RECT
 10
40.3250
 20
83.4250
 30
0.0000
 41
1.0000
 42
1.4000
 43
1.0000
 50
270.0000
  0
INSERT
  8
32
  2
RECT
 10
40.3250
 20
81.5250
 30
0.0000
 41
1.0000
 42
1.4000
 43
1.0000
 50
270.0000
  0
INSERT
  8
32
  2
RECT
 10
38.1250
 20
82.4750
 30
0.0000
 41
1.0000
 42
1.4000
 43
1.0000
 50
270.0000
  0
INSERT
  8
32
  2
RECT
 10
79.1000
 20
59.3250
 30
0.0000
 41
2.5000
 42
5.1000
 43
1.0000
 50
90.0000
  0
INSERT
  8
32
  2
PIE
 10
79.1000
 20
66.9750
 30
0.0000
 41
10.2000
 42
10.2000
 43
1.0000
 50
0.0000
  0
INSERT
  8
32
  2
RECT
 10
79.1000
 20
74.6250
 30
0.0000
 41
2.5000
 42
5.1000
 43
1.0000
 50
90.0000
  0
INSERT
  8
32
  2
RECT
 10
72.4700
 20
56.1500
 30
0.0000
 41
0.6000
 42
2.2000
 43
1.0000
 50
0.0000
  0
INSERT
  8
32
  2
RECT
 10
73.7400
 20
56.1500
 30
0.0000
 41
0.6000
 42
2.2000
 43
1.0000
 50
0.0000
  0
INSERT
  8
32
  2
RECT
 10
75.0100
 20
56.1500
 30
0.0000
 41
0.6000
 42
2.2000
 43
1.0000
 50
0.0000
  0
INSERT
  8
32
  2
RECT
 10
76.2800
 20
56.1500
 30
0.0000
 41
0.6000
 42
2.2000
 43
1.0000
 50
0.0000
  0
INSERT
  8
32
  2
RECT
 10
76.2800
 20
50.9500
 30
0.0000
 41
0.6000
 42
2.2000
 43
1.0000
 50
0.0000
  0
INSERT
  8
32
  2
RECT
 10
75.0100
 20
50.9500
 30
0.0000
 41
0.6000
 42
2.2000
 43
1.0000
 50
0.0000
  0
INSERT
  8
32
  2
RECT
 10
73.7400
 20
50.9500
 30
0.0000
 41
0.6000
 42
2.2000
 43
1.0000
 50
0.0000
  0
INSERT
  8
32
  2
RECT
 10
72.4700
 20
50.9500
 30
0.0000
 41
0.6000
 42
2.2000
 43
1.0000
 50
0.0000
  0
INSERT
  8
32
  2
RECT
 10
37.1250
 20
59.0822
 30
0.0000
 41
0.3048
 42
0.9906
 43
1.0000
 50
180.0000
  0
INSERT
  8
32
  2
RECT
 10
36.4750
 20
59.0822
 30
0.0000
 41
0.3048
 42
0.9906
 43
1.0000
 50
180.0000
  0
INSERT
  8
32
  2
RECT
 10
35.8250
 20
59.0822
 30
0.0000
 41
0.3048
 42
0.9906
 43
1.0000
 50
180.0000
  0
INSERT
  8
32
  2
RECT
 10
35.1750
 20
59.0822
 30
0.0000
 41
0.3048
 42
0.9906
 43
1.0000
 50
180.0000
  0
INSERT
  8
32
  2
RECT
 10
34.5250
 20
59.0822
 30
0.0000
 41
0.3048
 42
0.9906
 43
1.0000
 50
180.0000
  0
INSERT
  8
32
  2
RECT
 10
33.8750
 20
59.0822
 30
0.0000
 41
0.3048
 42
0.9906
 43
1.0000
 50
180.0000
  0
INSERT
  8
32
  2
RECT
 10
33.2250
 20
59.0822
 30
0.0000
 41
0.3048
 42
0.9906
 43
1.0000
 50
180.0000
  0
INSERT
  8
32
  2
RECT
 10
32.5750
 20
59.0822
 30
0.0000
 41
0.3048
 42
0.9906
 43
1.0000
 50
180.0000
  0
INSERT
  8
32
  2
RECT
 10
32.5750
 20
64.9178
 30
0.0000
 41
0.3048
 42
0.9906
 43
1.0000
 50
180.0000
  0
INSERT
  8
32
  2
RECT
 10
33.2250
 20
64.9178
 30
0.0000
 41
0.3048
 42
0.9906
 43
1.0000
 50
180.0000
  0
INSERT
  8
32
  2
RECT
 10
33.8750
 20
64.9178
 30
0.0000
 41
0.3048
 42
0.9906
 43
1.0000
 50
180.0000
  0
INSERT
  8
32
  2
RECT
 10
34.5250
 20
64.9178
 30
0.0000
 41
0.3048
 42
0.9906
 43
1.0000
 50
180.0000
  0
INSERT
  8
32
  2
RECT
 10
35.1750
 20
64.9178
 30
0.0000
 41
0.3048
 42
0.9906
 43
1.0000
 50
180.0000
  0
INSERT
  8
32
  2
RECT
 10
35.8250
 20
64.9178
 30
0.0000
 41
0.3048
 42
0.9906
 43
1.0000
 50
180.0000
  0
INSERT
  8
32
  2
RECT
 10
36.4750
 20
64.9178
 30
0.0000
 41
0.3048
 42
0.9906
 43
1.0000
 50
180.0000
  0
INSERT
  8
32
  2
RECT
 10
37.1250
 20
64.9178
 30
0.0000
 41
0.3048
 42
0.9906
 43
1.0000
 50
180.0000
  0
INSERT
  8
32
  2
RECT
 10
82.1500
 20
27.6250
 30
0.0000
 41
0.8500
 42
0.2800
 43
1.0000
 50
270.0000
  0
INSERT
  8
32
  2
RECT
 10
81.6500
 20
27.6250
 30
0.0000
 41
0.8500
 42
0.2800
 43
1.0000
 50
270.0000
  0
INSERT
  8
32
  2
RECT
 10
81.1500
 20
27.6250
 30
0.0000
 41
0.8500
 42
0.2800
 43
1.0000
 50
270.0000
  0
INSERT
  8
32
  2
RECT
 10
80.6500
 20
27.6250
 30
0.0000
 41
0.8500
 42
0.2800
 43
1.0000
 50
270.0000
  0
INSERT
  8
32
  2
RECT
 10
80.1500
 20
27.6250
 30
0.0000
 41
0.8500
 42
0.2800
 43
1.0000
 50
270.0000
  0
INSERT
  8
32
  2
RECT
 10
79.6500
 20
27.6250
 30
0.0000
 41
0.8500
 42
0.2800
 43
1.0000
 50
270.0000
  0
INSERT
  8
32
  2
RECT
 10
79.1500
 20
27.6250
 30
0.0000
 41
0.8500
 42
0.2800
 43
1.0000
 50
270.0000
  0
INSERT
  8
32
  2
RECT
 10
78.6500
 20
27.6250
 30
0.0000
 41
0.8500
 42
0.2800
 43
1.0000
 50
270.0000
  0
INSERT
  8
32
  2
RECT
 10
78.1500
 20
27.6250
 30
0.0000
 41
0.8500
 42
0.2800
 43
1.0000
 50
270.0000
  0
INSERT
  8
32
  2
RECT
 10
77.6500
 20
27.6250
 30
0.0000
 41
0.8500
 42
0.2800
 43
1.0000
 50
270.0000
  0
INSERT
  8
32
  2
RECT
 10
76.9000
 20
28.3750
 30
0.0000
 41
0.8500
 42
0.2800
 43
1.0000
 50
0.0000
  0
INSERT
  8
32
  2
RECT
 10
76.9000
 20
28.8750
 30
0.0000
 41
0.8500
 42
0.2800
 43
1.0000
 50
0.0000
  0
INSERT
  8
32
  2
RECT
 10
76.9000
 20
29.3750
 30
0.0000
 41
0.8500
 42
0.2800
 43
1.0000
 50
0.0000
  0
INSERT
  8
32
  2
RECT
 10
76.9000
 20
29.8750
 30
0.0000
 41
0.8500
 42
0.2800
 43
1.0000
 50
0.0000
  0
INSERT
  8
32
  2
RECT
 10
76.9000
 20
30.3750
 30
0.0000
 41
0.8500
 42
0.2800
 43
1.0000
 50
0.0000
  0
INSERT
  8
32
  2
RECT
 10
76.9000
 20
30.8750
 30
0.0000
 41
0.8500
 42
0.2800
 43
1.0000
 50
0.0000
  0
INSERT
  8
32
  2
RECT
 10
76.9000
 20
31.3750
 30
0.0000
 41
0.8500
 42
0.2800
 43
1.0000
 50
0.0000
  0
INSERT
  8
32
  2
RECT
 10
76.9000
 20
31.8750
 30
0.0000
 41
0.8500
 42
0.2800
 43
1.0000
 50
0.0000
  0
INSERT
  8
32
  2
RECT
 10
76.9000
 20
32.3750
 30
0.0000
 41
0.8500
 42
0.2800
 43
1.0000
 50
0.0000
  0
INSERT
  8
32
  2
RECT
 10
76.9000
 20
32.8750
 30
0.0000
 41
0.8500
 42
0.2800
 43
1.0000
 50
0.0000
  0
INSERT
  8
32
  2
RECT
 10
77.6500
 20
33.6250
 30
0.0000
 41
0.8500
 42
0.2800
 43
1.0000
 50
90.0000
  0
INSERT
  8
32
  2
RECT
 10
78.1500
 20
33.6250
 30
0.0000
 41
0.8500
 42
0.2800
 43
1.0000
 50
90.0000
  0
INSERT
  8
32
  2
RECT
 10
78.6500
 20
33.6250
 30
0.0000
 41
0.8500
 42
0.2800
 43
1.0000
 50
90.0000
  0
INSERT
  8
32
  2
RECT
 10
79.1500
 20
33.6250
 30
0.0000
 41
0.8500
 42
0.2800
 43
1.0000
 50
90.0000
  0
INSERT
  8
32
  2
RECT
 10
79.6500
 20
33.6250
 30
0.0000
 41
0.8500
 42
0.2800
 43
1.0000
 50
90.0000
  0
INSERT
  8
32
  2
RECT
 10
80.1500
 20
33.6250
 30
0.0000
 41
0.8500
 42
0.2800
 43
1.0000
 50
90.0000
  0
INSERT
  8
32
  2
RECT
 10
80.6500
 20
33.6250
 30
0.0000
 41
0.8500
 42
0.2800
 43
1.0000
 50
90.0000
  0
INSERT
  8
32
  2
RECT
 10
81.1500
 20
33.6250
 30
0.0000
 41
0.8500
 42
0.2800
 43
1.0000
 50
90.0000
  0
INSERT
  8
32
  2
RECT
 10
81.6500
 20
33.6250
 30
0.0000
 41
0.8500
 42
0.2800
 43
1.0000
 50
90.0000
  0
INSERT
  8
32
  2
RECT
 10
82.1500
 20
33.6250
 30
0.0000
 41
0.8500
 42
0.2800
 43
1.0000
 50
90.0000
  0
INSERT
  8
32
  2
RECT
 10
82.9000
 20
32.8750
 30
0.0000
 41
0.8500
 42
0.2800
 43
1.0000
 50
180.0000
  0
INSERT
  8
32
  2
RECT
 10
82.9000
 20
32.3750
 30
0.0000
 41
0.8500
 42
0.2800
 43
1.0000
 50
180.0000
  0
INSERT
  8
32
  2
RECT
 10
82.9000
 20
31.8750
 30
0.0000
 41
0.8500
 42
0.2800
 43
1.0000
 50
180.0000
  0
INSERT
  8
32
  2
RECT
 10
82.9000
 20
31.3750
 30
0.0000
 41
0.8500
 42
0.2800
 43
1.0000
 50
180.0000
  0
INSERT
  8
32
  2
RECT
 10
82.9000
 20
30.8750
 30
0.0000
 41
0.8500
 42
0.2800
 43
1.0000
 50
180.0000
  0
INSERT
  8
32
  2
RECT
 10
82.9000
 20
30.3750
 30
0.0000
 41
0.8500
 42
0.2800
 43
1.0000
 50
180.0000
  0
INSERT
  8
32
  2
RECT
 10
82.9000
 20
29.8750
 30
0.0000
 41
0.8500
 42
0.2800
 43
1.0000
 50
180.0000
  0
INSERT
  8
32
  2
RECT
 10
82.9000
 20
29.3750
 30
0.0000
 41
0.8500
 42
0.2800
 43
1.0000
 50
180.0000
  0
INSERT
  8
32
  2
RECT
 10
82.9000
 20
28.8750
 30
0.0000
 41
0.8500
 42
0.2800
 43
1.0000
 50
180.0000
  0
INSERT
  8
32
  2
RECT
 10
82.9000
 20
28.3750
 30
0.0000
 41
0.8500
 42
0.2800
 43
1.0000
 50
180.0000
  0
INSERT
  8
32
  2
RECT
 10
80.8000
 20
29.9750
 30
0.0000
 41
1.0000
 42
1.5000
 43
1.0000
 50
90.0000
  0
INSERT
  8
32
  2
RECT
 10
80.8000
 20
31.2750
 30
0.0000
 41
1.0000
 42
1.5000
 43
1.0000
 50
90.0000
  0
INSERT
  8
32
  2
RECT
 10
79.0000
 20
31.2750
 30
0.0000
 41
1.0000
 42
1.5000
 43
1.0000
 50
90.0000
  0
INSERT
  8
32
  2
RECT
 10
79.0000
 20
29.9750
 30
0.0000
 41
1.0000
 42
1.5000
 43
1.0000
 50
90.0000
  0
INSERT
  8
32
  2
RECT
 10
75.2000
 20
93.1500
 30
0.0000
 41
0.4000
 42
1.4000
 43
1.0000
 50
180.0000
  0
INSERT
  8
32
  2
RECT
 10
75.8500
 20
93.1500
 30
0.0000
 41
0.4000
 42
1.4000
 43
1.0000
 50
180.0000
  0
INSERT
  8
32
  2
RECT
 10
76.5000
 20
93.1500
 30
0.0000
 41
0.4000
 42
1.4000
 43
1.0000
 50
180.0000
  0
INSERT
  8
32
  2
RECT
 10
77.1500
 20
93.1500
 30
0.0000
 41
0.4000
 42
1.4000
 43
1.0000
 50
180.0000
  0
INSERT
  8
32
  2
RECT
 10
77.8000
 20
93.1500
 30
0.0000
 41
0.4000
 42
1.4000
 43
1.0000
 50
180.0000
  0
INSERT
  8
32
  2
RECT
 10
76.5000
 20
95.8000
 30
0.0000
 41
4.0000
 42
1.9000
 43
1.0000
 50
0.0000
  0
INSERT
  8
32
  2
RECT304000X216000R100
 10
72.9500
 20
95.8000
 30
0.0000
 41
1.0000
 42
1.0000
 43
1.0000
 50
270.0000
  0
INSERT
  8
32
  2
RECT304000X216000R100
 10
80.0500
 20
95.8000
 30
0.0000
 41
1.0000
 42
1.0000
 43
1.0000
 50
270.0000
  0
INSERT
  8
32
  2
RECT
 10
74.1000
 20
93.5500
 30
0.0000
 41
1.1500
 42
1.4500
 43
1.0000
 50
180.0000
  0
INSERT
  8
32
  2
RECT
 10
78.9000
 20
93.5500
 30
0.0000
 41
1.1500
 42
1.4500
 43
1.0000
 50
180.0000
  0
INSERT
  8
32
  2
RECT
 10
41.6200
 20
92.8700
 30
0.0000
 41
0.3400
 42
0.3400
 43
1.0000
 50
180.0000
  0
INSERT
  8
32
  2
RECT
 10
41.7000
 20
92.3500
 30
0.0000
 41
0.2800
 42
0.6100
 43
1.0000
 50
90.0000
  0
INSERT
  8
32
  2
RECT
 10
41.7000
 20
91.8500
 30
0.0000
 41
0.2800
 42
0.6100
 43
1.0000
 50
90.0000
  0
INSERT
  8
32
  2
RECT
 10
41.7000
 20
91.3500
 30
0.0000
 41
0.2800
 42
0.6100
 43
1.0000
 50
90.0000
  0
INSERT
  8
32
  2
RECT
 10
41.7000
 20
90.8500
 30
0.0000
 41
0.2800
 42
0.6100
 43
1.0000
 50
90.0000
  0
INSERT
  8
32
  2
RECT
 10
41.6200
 20
90.3300
 30
0.0000
 41
0.3400
 42
0.3400
 43
1.0000
 50
180.0000
  0
INSERT
  8
32
  2
RECT
 10
41.1000
 20
90.2500
 30
0.0000
 41
0.2800
 42
0.6100
 43
1.0000
 50
0.0000
  0
INSERT
  8
32
  2
RECT
 10
40.6000
 20
90.2500
 30
0.0000
 41
0.2800
 42
0.6100
 43
1.0000
 50
0.0000
  0
INSERT
  8
32
  2
RECT
 10
40.1000
 20
90.2500
 30
0.0000
 41
0.2800
 42
0.6100
 43
1.0000
 50
0.0000
  0
INSERT
  8
32
  2
RECT
 10
39.6000
 20
90.2500
 30
0.0000
 41
0.2800
 42
0.6100
 43
1.0000
 50
0.0000
  0
INSERT
  8
32
  2
RECT
 10
39.0800
 20
90.3300
 30
0.0000
 41
0.3400
 42
0.3400
 43
1.0000
 50
180.0000
  0
INSERT
  8
32
  2
RECT
 10
39.0000
 20
90.8500
 30
0.0000
 41
0.2800
 42
0.6100
 43
1.0000
 50
90.0000
  0
INSERT
  8
32
  2
RECT
 10
39.0000
 20
91.3500
 30
0.0000
 41
0.2800
 42
0.6100
 43
1.0000
 50
90.0000
  0
INSERT
  8
32
  2
RECT
 10
39.0000
 20
91.8500
 30
0.0000
 41
0.2800
 42
0.6100
 43
1.0000
 50
90.0000
  0
INSERT
  8
32
  2
RECT
 10
39.0000
 20
92.3500
 30
0.0000
 41
0.2800
 42
0.6100
 43
1.0000
 50
90.0000
  0
INSERT
  8
32
  2
RECT
 10
39.0800
 20
92.8700
 30
0.0000
 41
0.3400
 42
0.3400
 43
1.0000
 50
180.0000
  0
INSERT
  8
32
  2
RECT
 10
39.6000
 20
92.9500
 30
0.0000
 41
0.2800
 42
0.6100
 43
1.0000
 50
180.0000
  0
INSERT
  8
32
  2
RECT
 10
40.1000
 20
92.9500
 30
0.0000
 41
0.2800
 42
0.6100
 43
1.0000
 50
180.0000
  0
INSERT
  8
32
  2
RECT
 10
40.6000
 20
92.9500
 30
0.0000
 41
0.2800
 42
0.6100
 43
1.0000
 50
180.0000
  0
INSERT
  8
32
  2
RECT
 10
41.1000
 20
92.9500
 30
0.0000
 41
0.2800
 42
0.6100
 43
1.0000
 50
180.0000
  0
INSERT
  8
32
  2
RECT
 10
40.3500
 20
91.6000
 30
0.0000
 41
1.7000
 42
1.7000
 43
1.0000
 50
180.0000
  0
INSERT
  8
32
  2
RECT
 10
29.8750
 20
73.8000
 30
0.0000
 41
0.6000
 42
0.2250
 43
1.0000
 50
90.0000
  0
INSERT
  8
32
  2
RECT
 10
29.4750
 20
73.8000
 30
0.0000
 41
0.6000
 42
0.2250
 43
1.0000
 50
90.0000
  0
INSERT
  8
32
  2
RECT
 10
29.0750
 20
73.8000
 30
0.0000
 41
0.6000
 42
0.2250
 43
1.0000
 50
90.0000
  0
INSERT
  8
32
  2
RECT
 10
28.6750
 20
73.8000
 30
0.0000
 41
0.6000
 42
0.2250
 43
1.0000
 50
90.0000
  0
INSERT
  8
32
  2
RECT
 10
28.2750
 20
73.8000
 30
0.0000
 41
0.6000
 42
0.2250
 43
1.0000
 50
90.0000
  0
INSERT
  8
32
  2
RECT
 10
28.2750
 20
75.6000
 30
0.0000
 41
0.6000
 42
0.2250
 43
1.0000
 50
90.0000
  0
INSERT
  8
32
  2
RECT
 10
28.6750
 20
75.6000
 30
0.0000
 41
0.6000
 42
0.2250
 43
1.0000
 50
90.0000
  0
INSERT
  8
32
  2
RECT
 10
29.0750
 20
75.6000
 30
0.0000
 41
0.6000
 42
0.2250
 43
1.0000
 50
90.0000
  0
INSERT
  8
32
  2
RECT
 10
29.4750
 20
75.6000
 30
0.0000
 41
0.6000
 42
0.2250
 43
1.0000
 50
90.0000
  0
INSERT
  8
32
  2
RECT
 10
29.8750
 20
75.6000
 30
0.0000
 41
0.6000
 42
0.2250
 43
1.0000
 50
90.0000
  0
INSERT
  8
32
  2
RECT
 10
45.0500
 20
57.5000
 30
0.0000
 41
0.2500
 42
1.2500
 43
1.0000
 50
90.0000
  0
INSERT
  8
32
  2
RECT
 10
45.0500
 20
58.0000
 30
0.0000
 41
0.2500
 42
1.2500
 43
1.0000
 50
90.0000
  0
INSERT
  8
32
  2
RECT
 10
45.0500
 20
58.5000
 30
0.0000
 41
0.2500
 42
1.2500
 43
1.0000
 50
90.0000
  0
INSERT
  8
32
  2
RECT
 10
45.0500
 20
59.0000
 30
0.0000
 41
0.2500
 42
1.2500
 43
1.0000
 50
90.0000
  0
INSERT
  8
32
  2
RECT
 10
45.0500
 20
59.5000
 30
0.0000
 41
0.2500
 42
1.2500
 43
1.0000
 50
90.0000
  0
INSERT
  8
32
  2
RECT
 10
45.0500
 20
60.0000
 30
0.0000
 41
0.2500
 42
1.2500
 43
1.0000
 50
90.0000
  0
INSERT
  8
32
  2
RECT
 10
45.0500
 20
60.5000
 30
0.0000
 41
0.2500
 42
1.2500
 43
1.0000
 50
90.0000
  0
INSERT
  8
32
  2
RECT
 10
45.0500
 20
61.0000
 30
0.0000
 41
0.2500
 42
1.2500
 43
1.0000
 50
90.0000
  0
INSERT
  8
32
  2
RECT
 10
45.0500
 20
61.5000
 30
0.0000
 41
0.2500
 42
1.2500
 43
1.0000
 50
90.0000
  0
INSERT
  8
32
  2
RECT
 10
45.0500
 20
62.0000
 30
0.0000
 41
0.2500
 42
1.2500
 43
1.0000
 50
90.0000
  0
INSERT
  8
32
  2
RECT
 10
45.0500
 20
62.5000
 30
0.0000
 41
0.2500
 42
1.2500
 43
1.0000
 50
90.0000
  0
INSERT
  8
32
  2
RECT
 10
45.0500
 20
63.0000
 30
0.0000
 41
0.2500
 42
1.2500
 43
1.0000
 50
90.0000
  0
INSERT
  8
32
  2
RECT
 10
45.0500
 20
63.5000
 30
0.0000
 41
0.2500
 42
1.2500
 43
1.0000
 50
90.0000
  0
INSERT
  8
32
  2
RECT
 10
45.0500
 20
64.0000
 30
0.0000
 41
0.2500
 42
1.2500
 43
1.0000
 50
90.0000
  0
INSERT
  8
32
  2
RECT
 10
45.0500
 20
64.5000
 30
0.0000
 41
0.2500
 42
1.2500
 43
1.0000
 50
90.0000
  0
INSERT
  8
32
  2
RECT
 10
45.0500
 20
65.0000
 30
0.0000
 41
0.2500
 42
1.2500
 43
1.0000
 50
90.0000
  0
INSERT
  8
32
  2
RECT
 10
45.0500
 20
65.5000
 30
0.0000
 41
0.2500
 42
1.2500
 43
1.0000
 50
90.0000
  0
INSERT
  8
32
  2
RECT
 10
45.0500
 20
66.0000
 30
0.0000
 41
0.2500
 42
1.2500
 43
1.0000
 50
90.0000
  0
INSERT
  8
32
  2
RECT
 10
45.0500
 20
66.5000
 30
0.0000
 41
0.2500
 42
1.2500
 43
1.0000
 50
90.0000
  0
INSERT
  8
32
  2
RECT
 10
45.0500
 20
67.0000
 30
0.0000
 41
0.2500
 42
1.2500
 43
1.0000
 50
90.0000
  0
INSERT
  8
32
  2
RECT
 10
45.0500
 20
67.5000
 30
0.0000
 41
0.2500
 42
1.2500
 43
1.0000
 50
90.0000
  0
INSERT
  8
32
  2
RECT
 10
45.0500
 20
68.0000
 30
0.0000
 41
0.2500
 42
1.2500
 43
1.0000
 50
90.0000
  0
INSERT
  8
32
  2
RECT
 10
45.0500
 20
68.5000
 30
0.0000
 41
0.2500
 42
1.2500
 43
1.0000
 50
90.0000
  0
INSERT
  8
32
  2
RECT
 10
45.0500
 20
69.0000
 30
0.0000
 41
0.2500
 42
1.2500
 43
1.0000
 50
90.0000
  0
INSERT
  8
32
  2
RECT
 10
45.0500
 20
69.5000
 30
0.0000
 41
0.2500
 42
1.2500
 43
1.0000
 50
90.0000
  0
INSERT
  8
32
  2
RECT
 10
45.0500
 20
70.0000
 30
0.0000
 41
0.2500
 42
1.2500
 43
1.0000
 50
90.0000
  0
INSERT
  8
32
  2
RECT
 10
45.0500
 20
70.5000
 30
0.0000
 41
0.2500
 42
1.2500
 43
1.0000
 50
90.0000
  0
INSERT
  8
32
  2
RECT
 10
45.0500
 20
71.0000
 30
0.0000
 41
0.2500
 42
1.2500
 43
1.0000
 50
90.0000
  0
INSERT
  8
32
  2
RECT
 10
45.0500
 20
71.5000
 30
0.0000
 41
0.2500
 42
1.2500
 43
1.0000
 50
90.0000
  0
INSERT
  8
32
  2
RECT
 10
45.0500
 20
72.0000
 30
0.0000
 41
0.2500
 42
1.2500
 43
1.0000
 50
90.0000
  0
INSERT
  8
32
  2
RECT
 10
45.0500
 20
72.5000
 30
0.0000
 41
0.2500
 42
1.2500
 43
1.0000
 50
90.0000
  0
INSERT
  8
32
  2
RECT
 10
45.0500
 20
73.0000
 30
0.0000
 41
0.2500
 42
1.2500
 43
1.0000
 50
90.0000
  0
INSERT
  8
32
  2
RECT
 10
45.0500
 20
73.5000
 30
0.0000
 41
0.2500
 42
1.2500
 43
1.0000
 50
90.0000
  0
INSERT
  8
32
  2
RECT
 10
45.0500
 20
74.0000
 30
0.0000
 41
0.2500
 42
1.2500
 43
1.0000
 50
90.0000
  0
INSERT
  8
32
  2
RECT
 10
45.0500
 20
74.5000
 30
0.0000
 41
0.2500
 42
1.2500
 43
1.0000
 50
90.0000
  0
INSERT
  8
32
  2
RECT
 10
45.0500
 20
75.0000
 30
0.0000
 41
0.2500
 42
1.2500
 43
1.0000
 50
90.0000
  0
INSERT
  8
32
  2
RECT
 10
45.0500
 20
75.5000
 30
0.0000
 41
0.2500
 42
1.2500
 43
1.0000
 50
90.0000
  0
INSERT
  8
32
  2
RECT
 10
45.0500
 20
76.0000
 30
0.0000
 41
0.2500
 42
1.2500
 43
1.0000
 50
90.0000
  0
INSERT
  8
32
  2
RECT
 10
45.0500
 20
76.5000
 30
0.0000
 41
0.2500
 42
1.2500
 43
1.0000
 50
90.0000
  0
INSERT
  8
32
  2
RECT
 10
45.0500
 20
77.0000
 30
0.0000
 41
0.2500
 42
1.2500
 43
1.0000
 50
90.0000
  0
INSERT
  8
32
  2
RECT
 10
45.0500
 20
77.5000
 30
0.0000
 41
0.2500
 42
1.2500
 43
1.0000
 50
90.0000
  0
INSERT
  8
32
  2
RECT
 10
45.0500
 20
78.0000
 30
0.0000
 41
0.2500
 42
1.2500
 43
1.0000
 50
90.0000
  0
INSERT
  8
32
  2
RECT
 10
45.0500
 20
78.5000
 30
0.0000
 41
0.2500
 42
1.2500
 43
1.0000
 50
90.0000
  0
INSERT
  8
32
  2
RECT
 10
45.0500
 20
79.0000
 30
0.0000
 41
0.2500
 42
1.2500
 43
1.0000
 50
90.0000
  0
INSERT
  8
32
  2
RECT
 10
45.0500
 20
79.5000
 30
0.0000
 41
0.2500
 42
1.2500
 43
1.0000
 50
90.0000
  0
INSERT
  8
32
  2
RECT
 10
45.0500
 20
80.0000
 30
0.0000
 41
0.2500
 42
1.2500
 43
1.0000
 50
90.0000
  0
INSERT
  8
32
  2
RECT
 10
45.0500
 20
80.5000
 30
0.0000
 41
0.2500
 42
1.2500
 43
1.0000
 50
90.0000
  0
INSERT
  8
32
  2
RECT
 10
45.0500
 20
81.0000
 30
0.0000
 41
0.2500
 42
1.2500
 43
1.0000
 50
90.0000
  0
INSERT
  8
32
  2
RECT
 10
45.0500
 20
81.5000
 30
0.0000
 41
0.2500
 42
1.2500
 43
1.0000
 50
90.0000
  0
INSERT
  8
32
  2
RECT
 10
45.0500
 20
82.0000
 30
0.0000
 41
0.2500
 42
1.2500
 43
1.0000
 50
90.0000
  0
INSERT
  8
32
  2
RECT
 10
48.3000
 20
55.4000
 30
0.0000
 41
2.4000
 42
2.4000
 43
1.0000
 50
180.0000
  0
INSERT
  8
32
  2
RECT
 10
48.3000
 20
84.1000
 30
0.0000
 41
2.4000
 42
2.4000
 43
1.0000
 50
180.0000
  0
ENDSEC
  0
EOF
