%
M48
M72
T01C0.0157
T02C0.0236
T03C0.0276
T04C0.0354
T05C0.0394
T06C0.0400
T07C0.0591
%
T01
X30373Y12282
X30651Y12561
X30373Y12839
X30930Y12839
X30930Y12282
T02
X29224Y33358
X29224Y33791
X29224Y34618
X29224Y35041
T03
X34588Y20691
X19145Y641
X3515Y16842
X8732Y34628
T04
X4490Y2797
X5946Y5494
X6025Y8191
X5966Y10730
X6734Y13269
X5946Y14135
X3880Y13328
X3033Y14135
X2974Y10730
X2994Y8191
X3033Y5494
X8840Y5494
X9352Y2797
X11754Y5494
X13269Y2797
X14687Y5494
X14805Y8191
X14726Y10730
X15572Y13348
X14746Y14135
X12639Y13328
X11783Y14135
X9726Y13309
X8870Y14135
X11232Y16675
X10946Y18840
X11084Y19844
X12344Y22570
X13131Y24254
X12236Y25504
X12728Y26399
X11439Y24588
X10494Y23860
X14411Y19490
X15464Y19332
X17029Y19381
X14992Y22069
X16340Y26025
X19175Y24706
X19254Y23456
X20228Y19244
X21596Y19047
X22433Y19244
X23387Y19313
X24529Y19795
X27472Y22403
X29219Y20607
X29795Y19529
X31311Y19391
X32147Y17620
X32344Y15838
X30917Y15031
X32196Y14204
X32748Y12452
X32305Y10710
X30907Y9372
X32147Y8191
X32147Y5494
X30691Y2797
X29234Y5494
X29254Y8191
X27817Y9401
X26419Y8191
X24933Y9618
X26360Y10858
X27009Y13761
X26291Y14135
X24933Y15130
X24155Y13525
X23456Y14126
X22019Y14923
X21990Y16439
X20937Y16567
X18840Y16350
X17246Y15740
X17620Y14126
X18506Y13328
X20563Y14126
X21114Y13092
X20553Y10858
X22029Y9765
X23446Y10848
X23407Y8191
X23407Y5494
X21970Y2797
X20454Y5494
X20612Y8191
X17679Y8191
X17610Y10838
X17541Y5494
X17108Y2817
X11832Y8191
X11793Y10730
X8860Y10730
X8939Y8191
X15070Y16439
X20444Y28515
X16370Y29490
X15602Y31350
X16320Y32590
X17679Y34175
X16921Y36074
X13486Y35966
X27472Y34716
X28850Y35691
X29903Y35779
X31163Y34637
X31891Y35966
X33663Y34047
X28025Y19214
X27452Y16271
X29322Y16488
X29283Y14135
X28604Y13929
X29283Y10868
X26301Y5494
X26340Y2797
T05
X26025Y17427
X26025Y18427
X25025Y18427
X25025Y17427
X24025Y17427
X24025Y18427
X23025Y18427
X23025Y17427
X22025Y17427
X22025Y18427
X21025Y18427
X21025Y17427
X20025Y17427
X20025Y18427
X19025Y18427
X18025Y18427
X18025Y17427
X19025Y17427
X17025Y17427
X17025Y18427
X16025Y18427
X16025Y17427
X15025Y17427
X15025Y18427
X14025Y18427
X14025Y17427
X13025Y17427
X13025Y18427
X12025Y18427
X12025Y17427
X27025Y17427
X27025Y18427
X28025Y18427
X28025Y17427
X29025Y17427
X29025Y18427
X30025Y18427
X30025Y17427
X31025Y17427
X31025Y18427
X22452Y36094
T06
X31224Y29116
X32224Y29116
T07
X26842Y37167
X32935Y37344
M30
